G04 #@! TF.GenerationSoftware,KiCad,Pcbnew,(6.0.10)*
G04 #@! TF.CreationDate,2023-01-01T01:58:12-05:00*
G04 #@! TF.ProjectId,2ndKeyboard,326e644b-6579-4626-9f61-72642e6b6963,rev?*
G04 #@! TF.SameCoordinates,Original*
G04 #@! TF.FileFunction,Legend,Top*
G04 #@! TF.FilePolarity,Positive*
%FSLAX46Y46*%
G04 Gerber Fmt 4.6, Leading zero omitted, Abs format (unit mm)*
G04 Created by KiCad (PCBNEW (6.0.10)) date 2023-01-01 01:58:12*
%MOMM*%
%LPD*%
G01*
G04 APERTURE LIST*
%ADD10C,0.150000*%
%ADD11C,0.120000*%
%ADD12C,1.700000*%
%ADD13C,4.000000*%
%ADD14C,2.200000*%
%ADD15C,3.050000*%
%ADD16C,0.650000*%
%ADD17O,1.000000X1.600000*%
%ADD18O,1.000000X2.100000*%
G04 APERTURE END LIST*
D10*
X135310714Y-74810880D02*
X135310714Y-73810880D01*
X135882142Y-74810880D02*
X135453571Y-74239452D01*
X135882142Y-73810880D02*
X135310714Y-74382309D01*
X136215476Y-73810880D02*
X136834523Y-73810880D01*
X136501190Y-74191833D01*
X136644047Y-74191833D01*
X136739285Y-74239452D01*
X136786904Y-74287071D01*
X136834523Y-74382309D01*
X136834523Y-74620404D01*
X136786904Y-74715642D01*
X136739285Y-74763261D01*
X136644047Y-74810880D01*
X136358333Y-74810880D01*
X136263095Y-74763261D01*
X136215476Y-74715642D01*
X137405952Y-74239452D02*
X137310714Y-74191833D01*
X137263095Y-74144214D01*
X137215476Y-74048976D01*
X137215476Y-74001357D01*
X137263095Y-73906119D01*
X137310714Y-73858500D01*
X137405952Y-73810880D01*
X137596428Y-73810880D01*
X137691666Y-73858500D01*
X137739285Y-73906119D01*
X137786904Y-74001357D01*
X137786904Y-74048976D01*
X137739285Y-74144214D01*
X137691666Y-74191833D01*
X137596428Y-74239452D01*
X137405952Y-74239452D01*
X137310714Y-74287071D01*
X137263095Y-74334690D01*
X137215476Y-74429928D01*
X137215476Y-74620404D01*
X137263095Y-74715642D01*
X137310714Y-74763261D01*
X137405952Y-74810880D01*
X137596428Y-74810880D01*
X137691666Y-74763261D01*
X137739285Y-74715642D01*
X137786904Y-74620404D01*
X137786904Y-74429928D01*
X137739285Y-74334690D01*
X137691666Y-74287071D01*
X137596428Y-74239452D01*
X225798214Y-55760880D02*
X225798214Y-54760880D01*
X226369642Y-55760880D02*
X225941071Y-55189452D01*
X226369642Y-54760880D02*
X225798214Y-55332309D01*
X226750595Y-54856119D02*
X226798214Y-54808500D01*
X226893452Y-54760880D01*
X227131547Y-54760880D01*
X227226785Y-54808500D01*
X227274404Y-54856119D01*
X227322023Y-54951357D01*
X227322023Y-55046595D01*
X227274404Y-55189452D01*
X226702976Y-55760880D01*
X227322023Y-55760880D01*
X228179166Y-54760880D02*
X227988690Y-54760880D01*
X227893452Y-54808500D01*
X227845833Y-54856119D01*
X227750595Y-54998976D01*
X227702976Y-55189452D01*
X227702976Y-55570404D01*
X227750595Y-55665642D01*
X227798214Y-55713261D01*
X227893452Y-55760880D01*
X228083928Y-55760880D01*
X228179166Y-55713261D01*
X228226785Y-55665642D01*
X228274404Y-55570404D01*
X228274404Y-55332309D01*
X228226785Y-55237071D01*
X228179166Y-55189452D01*
X228083928Y-55141833D01*
X227893452Y-55141833D01*
X227798214Y-55189452D01*
X227750595Y-55237071D01*
X227702976Y-55332309D01*
X301998214Y-29090880D02*
X301998214Y-28090880D01*
X302569642Y-29090880D02*
X302141071Y-28519452D01*
X302569642Y-28090880D02*
X301998214Y-28662309D01*
X303522023Y-29090880D02*
X302950595Y-29090880D01*
X303236309Y-29090880D02*
X303236309Y-28090880D01*
X303141071Y-28233738D01*
X303045833Y-28328976D01*
X302950595Y-28376595D01*
X303902976Y-28186119D02*
X303950595Y-28138500D01*
X304045833Y-28090880D01*
X304283928Y-28090880D01*
X304379166Y-28138500D01*
X304426785Y-28186119D01*
X304474404Y-28281357D01*
X304474404Y-28376595D01*
X304426785Y-28519452D01*
X303855357Y-29090880D01*
X304474404Y-29090880D01*
X125785714Y-93860880D02*
X125785714Y-92860880D01*
X126357142Y-93860880D02*
X125928571Y-93289452D01*
X126357142Y-92860880D02*
X125785714Y-93432309D01*
X127261904Y-92860880D02*
X126785714Y-92860880D01*
X126738095Y-93337071D01*
X126785714Y-93289452D01*
X126880952Y-93241833D01*
X127119047Y-93241833D01*
X127214285Y-93289452D01*
X127261904Y-93337071D01*
X127309523Y-93432309D01*
X127309523Y-93670404D01*
X127261904Y-93765642D01*
X127214285Y-93813261D01*
X127119047Y-93860880D01*
X126880952Y-93860880D01*
X126785714Y-93813261D01*
X126738095Y-93765642D01*
X128166666Y-93194214D02*
X128166666Y-93860880D01*
X127928571Y-92813261D02*
X127690476Y-93527547D01*
X128309523Y-93527547D01*
X364704464Y-55760880D02*
X364704464Y-54760880D01*
X365275892Y-55760880D02*
X364847321Y-55189452D01*
X365275892Y-54760880D02*
X364704464Y-55332309D01*
X365609226Y-54760880D02*
X366228273Y-54760880D01*
X365894940Y-55141833D01*
X366037797Y-55141833D01*
X366133035Y-55189452D01*
X366180654Y-55237071D01*
X366228273Y-55332309D01*
X366228273Y-55570404D01*
X366180654Y-55665642D01*
X366133035Y-55713261D01*
X366037797Y-55760880D01*
X365752083Y-55760880D01*
X365656845Y-55713261D01*
X365609226Y-55665642D01*
X366609226Y-54856119D02*
X366656845Y-54808500D01*
X366752083Y-54760880D01*
X366990178Y-54760880D01*
X367085416Y-54808500D01*
X367133035Y-54856119D01*
X367180654Y-54951357D01*
X367180654Y-55046595D01*
X367133035Y-55189452D01*
X366561607Y-55760880D01*
X367180654Y-55760880D01*
X192460714Y-74810880D02*
X192460714Y-73810880D01*
X193032142Y-74810880D02*
X192603571Y-74239452D01*
X193032142Y-73810880D02*
X192460714Y-74382309D01*
X193889285Y-74144214D02*
X193889285Y-74810880D01*
X193651190Y-73763261D02*
X193413095Y-74477547D01*
X194032142Y-74477547D01*
X194936904Y-74810880D02*
X194365476Y-74810880D01*
X194651190Y-74810880D02*
X194651190Y-73810880D01*
X194555952Y-73953738D01*
X194460714Y-74048976D01*
X194365476Y-74096595D01*
X131024404Y-29090880D02*
X131024404Y-28090880D01*
X131595833Y-29090880D02*
X131167261Y-28519452D01*
X131595833Y-28090880D02*
X131024404Y-28662309D01*
X132452976Y-28424214D02*
X132452976Y-29090880D01*
X132214880Y-28043261D02*
X131976785Y-28757547D01*
X132595833Y-28757547D01*
X116260714Y-112910880D02*
X116260714Y-111910880D01*
X116832142Y-112910880D02*
X116403571Y-112339452D01*
X116832142Y-111910880D02*
X116260714Y-112482309D01*
X117689285Y-111910880D02*
X117498809Y-111910880D01*
X117403571Y-111958500D01*
X117355952Y-112006119D01*
X117260714Y-112148976D01*
X117213095Y-112339452D01*
X117213095Y-112720404D01*
X117260714Y-112815642D01*
X117308333Y-112863261D01*
X117403571Y-112910880D01*
X117594047Y-112910880D01*
X117689285Y-112863261D01*
X117736904Y-112815642D01*
X117784523Y-112720404D01*
X117784523Y-112482309D01*
X117736904Y-112387071D01*
X117689285Y-112339452D01*
X117594047Y-112291833D01*
X117403571Y-112291833D01*
X117308333Y-112339452D01*
X117260714Y-112387071D01*
X117213095Y-112482309D01*
X118641666Y-111910880D02*
X118451190Y-111910880D01*
X118355952Y-111958500D01*
X118308333Y-112006119D01*
X118213095Y-112148976D01*
X118165476Y-112339452D01*
X118165476Y-112720404D01*
X118213095Y-112815642D01*
X118260714Y-112863261D01*
X118355952Y-112910880D01*
X118546428Y-112910880D01*
X118641666Y-112863261D01*
X118689285Y-112815642D01*
X118736904Y-112720404D01*
X118736904Y-112482309D01*
X118689285Y-112387071D01*
X118641666Y-112339452D01*
X118546428Y-112291833D01*
X118355952Y-112291833D01*
X118260714Y-112339452D01*
X118213095Y-112387071D01*
X118165476Y-112482309D01*
X268660714Y-112910880D02*
X268660714Y-111910880D01*
X269232142Y-112910880D02*
X268803571Y-112339452D01*
X269232142Y-111910880D02*
X268660714Y-112482309D01*
X269565476Y-111910880D02*
X270232142Y-111910880D01*
X269803571Y-112910880D01*
X271041666Y-112244214D02*
X271041666Y-112910880D01*
X270803571Y-111863261D02*
X270565476Y-112577547D01*
X271184523Y-112577547D01*
X230560714Y-74810880D02*
X230560714Y-73810880D01*
X231132142Y-74810880D02*
X230703571Y-74239452D01*
X231132142Y-73810880D02*
X230560714Y-74382309D01*
X231989285Y-74144214D02*
X231989285Y-74810880D01*
X231751190Y-73763261D02*
X231513095Y-74477547D01*
X232132142Y-74477547D01*
X232417857Y-73810880D02*
X233036904Y-73810880D01*
X232703571Y-74191833D01*
X232846428Y-74191833D01*
X232941666Y-74239452D01*
X232989285Y-74287071D01*
X233036904Y-74382309D01*
X233036904Y-74620404D01*
X232989285Y-74715642D01*
X232941666Y-74763261D01*
X232846428Y-74810880D01*
X232560714Y-74810880D01*
X232465476Y-74763261D01*
X232417857Y-74715642D01*
X318666964Y-131960880D02*
X318666964Y-130960880D01*
X319238392Y-131960880D02*
X318809821Y-131389452D01*
X319238392Y-130960880D02*
X318666964Y-131532309D01*
X319809821Y-131389452D02*
X319714583Y-131341833D01*
X319666964Y-131294214D01*
X319619345Y-131198976D01*
X319619345Y-131151357D01*
X319666964Y-131056119D01*
X319714583Y-131008500D01*
X319809821Y-130960880D01*
X320000297Y-130960880D01*
X320095535Y-131008500D01*
X320143154Y-131056119D01*
X320190773Y-131151357D01*
X320190773Y-131198976D01*
X320143154Y-131294214D01*
X320095535Y-131341833D01*
X320000297Y-131389452D01*
X319809821Y-131389452D01*
X319714583Y-131437071D01*
X319666964Y-131484690D01*
X319619345Y-131579928D01*
X319619345Y-131770404D01*
X319666964Y-131865642D01*
X319714583Y-131913261D01*
X319809821Y-131960880D01*
X320000297Y-131960880D01*
X320095535Y-131913261D01*
X320143154Y-131865642D01*
X320190773Y-131770404D01*
X320190773Y-131579928D01*
X320143154Y-131484690D01*
X320095535Y-131437071D01*
X320000297Y-131389452D01*
X321047916Y-131294214D02*
X321047916Y-131960880D01*
X320809821Y-130913261D02*
X320571726Y-131627547D01*
X321190773Y-131627547D01*
X345813214Y-29090880D02*
X345813214Y-28090880D01*
X346384642Y-29090880D02*
X345956071Y-28519452D01*
X346384642Y-28090880D02*
X345813214Y-28662309D01*
X347337023Y-29090880D02*
X346765595Y-29090880D01*
X347051309Y-29090880D02*
X347051309Y-28090880D01*
X346956071Y-28233738D01*
X346860833Y-28328976D01*
X346765595Y-28376595D01*
X348194166Y-28424214D02*
X348194166Y-29090880D01*
X347956071Y-28043261D02*
X347717976Y-28757547D01*
X348337023Y-28757547D01*
X150074404Y-29090880D02*
X150074404Y-28090880D01*
X150645833Y-29090880D02*
X150217261Y-28519452D01*
X150645833Y-28090880D02*
X150074404Y-28662309D01*
X151550595Y-28090880D02*
X151074404Y-28090880D01*
X151026785Y-28567071D01*
X151074404Y-28519452D01*
X151169642Y-28471833D01*
X151407738Y-28471833D01*
X151502976Y-28519452D01*
X151550595Y-28567071D01*
X151598214Y-28662309D01*
X151598214Y-28900404D01*
X151550595Y-28995642D01*
X151502976Y-29043261D01*
X151407738Y-29090880D01*
X151169642Y-29090880D01*
X151074404Y-29043261D01*
X151026785Y-28995642D01*
X244848214Y-55760880D02*
X244848214Y-54760880D01*
X245419642Y-55760880D02*
X244991071Y-55189452D01*
X245419642Y-54760880D02*
X244848214Y-55332309D01*
X245800595Y-54856119D02*
X245848214Y-54808500D01*
X245943452Y-54760880D01*
X246181547Y-54760880D01*
X246276785Y-54808500D01*
X246324404Y-54856119D01*
X246372023Y-54951357D01*
X246372023Y-55046595D01*
X246324404Y-55189452D01*
X245752976Y-55760880D01*
X246372023Y-55760880D01*
X246705357Y-54760880D02*
X247372023Y-54760880D01*
X246943452Y-55760880D01*
X111974404Y-29090880D02*
X111974404Y-28090880D01*
X112545833Y-29090880D02*
X112117261Y-28519452D01*
X112545833Y-28090880D02*
X111974404Y-28662309D01*
X112879166Y-28090880D02*
X113498214Y-28090880D01*
X113164880Y-28471833D01*
X113307738Y-28471833D01*
X113402976Y-28519452D01*
X113450595Y-28567071D01*
X113498214Y-28662309D01*
X113498214Y-28900404D01*
X113450595Y-28995642D01*
X113402976Y-29043261D01*
X113307738Y-29090880D01*
X113022023Y-29090880D01*
X112926785Y-29043261D01*
X112879166Y-28995642D01*
X364704464Y-131960880D02*
X364704464Y-130960880D01*
X365275892Y-131960880D02*
X364847321Y-131389452D01*
X365275892Y-130960880D02*
X364704464Y-131532309D01*
X365847321Y-131389452D02*
X365752083Y-131341833D01*
X365704464Y-131294214D01*
X365656845Y-131198976D01*
X365656845Y-131151357D01*
X365704464Y-131056119D01*
X365752083Y-131008500D01*
X365847321Y-130960880D01*
X366037797Y-130960880D01*
X366133035Y-131008500D01*
X366180654Y-131056119D01*
X366228273Y-131151357D01*
X366228273Y-131198976D01*
X366180654Y-131294214D01*
X366133035Y-131341833D01*
X366037797Y-131389452D01*
X365847321Y-131389452D01*
X365752083Y-131437071D01*
X365704464Y-131484690D01*
X365656845Y-131579928D01*
X365656845Y-131770404D01*
X365704464Y-131865642D01*
X365752083Y-131913261D01*
X365847321Y-131960880D01*
X366037797Y-131960880D01*
X366133035Y-131913261D01*
X366180654Y-131865642D01*
X366228273Y-131770404D01*
X366228273Y-131579928D01*
X366180654Y-131484690D01*
X366133035Y-131437071D01*
X366037797Y-131389452D01*
X367085416Y-130960880D02*
X366894940Y-130960880D01*
X366799702Y-131008500D01*
X366752083Y-131056119D01*
X366656845Y-131198976D01*
X366609226Y-131389452D01*
X366609226Y-131770404D01*
X366656845Y-131865642D01*
X366704464Y-131913261D01*
X366799702Y-131960880D01*
X366990178Y-131960880D01*
X367085416Y-131913261D01*
X367133035Y-131865642D01*
X367180654Y-131770404D01*
X367180654Y-131532309D01*
X367133035Y-131437071D01*
X367085416Y-131389452D01*
X366990178Y-131341833D01*
X366799702Y-131341833D01*
X366704464Y-131389452D01*
X366656845Y-131437071D01*
X366609226Y-131532309D01*
X154360714Y-74810880D02*
X154360714Y-73810880D01*
X154932142Y-74810880D02*
X154503571Y-74239452D01*
X154932142Y-73810880D02*
X154360714Y-74382309D01*
X155265476Y-73810880D02*
X155884523Y-73810880D01*
X155551190Y-74191833D01*
X155694047Y-74191833D01*
X155789285Y-74239452D01*
X155836904Y-74287071D01*
X155884523Y-74382309D01*
X155884523Y-74620404D01*
X155836904Y-74715642D01*
X155789285Y-74763261D01*
X155694047Y-74810880D01*
X155408333Y-74810880D01*
X155313095Y-74763261D01*
X155265476Y-74715642D01*
X156360714Y-74810880D02*
X156551190Y-74810880D01*
X156646428Y-74763261D01*
X156694047Y-74715642D01*
X156789285Y-74572785D01*
X156836904Y-74382309D01*
X156836904Y-74001357D01*
X156789285Y-73906119D01*
X156741666Y-73858500D01*
X156646428Y-73810880D01*
X156455952Y-73810880D01*
X156360714Y-73858500D01*
X156313095Y-73906119D01*
X156265476Y-74001357D01*
X156265476Y-74239452D01*
X156313095Y-74334690D01*
X156360714Y-74382309D01*
X156455952Y-74429928D01*
X156646428Y-74429928D01*
X156741666Y-74382309D01*
X156789285Y-74334690D01*
X156836904Y-74239452D01*
X235164404Y-29090880D02*
X235164404Y-28090880D01*
X235735833Y-29090880D02*
X235307261Y-28519452D01*
X235735833Y-28090880D02*
X235164404Y-28662309D01*
X236212023Y-29090880D02*
X236402500Y-29090880D01*
X236497738Y-29043261D01*
X236545357Y-28995642D01*
X236640595Y-28852785D01*
X236688214Y-28662309D01*
X236688214Y-28281357D01*
X236640595Y-28186119D01*
X236592976Y-28138500D01*
X236497738Y-28090880D01*
X236307261Y-28090880D01*
X236212023Y-28138500D01*
X236164404Y-28186119D01*
X236116785Y-28281357D01*
X236116785Y-28519452D01*
X236164404Y-28614690D01*
X236212023Y-28662309D01*
X236307261Y-28709928D01*
X236497738Y-28709928D01*
X236592976Y-28662309D01*
X236640595Y-28614690D01*
X236688214Y-28519452D01*
X197064404Y-29090880D02*
X197064404Y-28090880D01*
X197635833Y-29090880D02*
X197207261Y-28519452D01*
X197635833Y-28090880D02*
X197064404Y-28662309D01*
X197969166Y-28090880D02*
X198635833Y-28090880D01*
X198207261Y-29090880D01*
X294854464Y-131960880D02*
X294854464Y-130960880D01*
X295425892Y-131960880D02*
X294997321Y-131389452D01*
X295425892Y-130960880D02*
X294854464Y-131532309D01*
X295997321Y-131389452D02*
X295902083Y-131341833D01*
X295854464Y-131294214D01*
X295806845Y-131198976D01*
X295806845Y-131151357D01*
X295854464Y-131056119D01*
X295902083Y-131008500D01*
X295997321Y-130960880D01*
X296187797Y-130960880D01*
X296283035Y-131008500D01*
X296330654Y-131056119D01*
X296378273Y-131151357D01*
X296378273Y-131198976D01*
X296330654Y-131294214D01*
X296283035Y-131341833D01*
X296187797Y-131389452D01*
X295997321Y-131389452D01*
X295902083Y-131437071D01*
X295854464Y-131484690D01*
X295806845Y-131579928D01*
X295806845Y-131770404D01*
X295854464Y-131865642D01*
X295902083Y-131913261D01*
X295997321Y-131960880D01*
X296187797Y-131960880D01*
X296283035Y-131913261D01*
X296330654Y-131865642D01*
X296378273Y-131770404D01*
X296378273Y-131579928D01*
X296330654Y-131484690D01*
X296283035Y-131437071D01*
X296187797Y-131389452D01*
X296711607Y-130960880D02*
X297330654Y-130960880D01*
X296997321Y-131341833D01*
X297140178Y-131341833D01*
X297235416Y-131389452D01*
X297283035Y-131437071D01*
X297330654Y-131532309D01*
X297330654Y-131770404D01*
X297283035Y-131865642D01*
X297235416Y-131913261D01*
X297140178Y-131960880D01*
X296854464Y-131960880D01*
X296759226Y-131913261D01*
X296711607Y-131865642D01*
X80541964Y-131960880D02*
X80541964Y-130960880D01*
X81113392Y-131960880D02*
X80684821Y-131389452D01*
X81113392Y-130960880D02*
X80541964Y-131532309D01*
X81446726Y-130960880D02*
X82113392Y-130960880D01*
X81684821Y-131960880D01*
X82637202Y-131389452D02*
X82541964Y-131341833D01*
X82494345Y-131294214D01*
X82446726Y-131198976D01*
X82446726Y-131151357D01*
X82494345Y-131056119D01*
X82541964Y-131008500D01*
X82637202Y-130960880D01*
X82827678Y-130960880D01*
X82922916Y-131008500D01*
X82970535Y-131056119D01*
X83018154Y-131151357D01*
X83018154Y-131198976D01*
X82970535Y-131294214D01*
X82922916Y-131341833D01*
X82827678Y-131389452D01*
X82637202Y-131389452D01*
X82541964Y-131437071D01*
X82494345Y-131484690D01*
X82446726Y-131579928D01*
X82446726Y-131770404D01*
X82494345Y-131865642D01*
X82541964Y-131913261D01*
X82637202Y-131960880D01*
X82827678Y-131960880D01*
X82922916Y-131913261D01*
X82970535Y-131865642D01*
X83018154Y-131770404D01*
X83018154Y-131579928D01*
X82970535Y-131484690D01*
X82922916Y-131437071D01*
X82827678Y-131389452D01*
X130548214Y-55760880D02*
X130548214Y-54760880D01*
X131119642Y-55760880D02*
X130691071Y-55189452D01*
X131119642Y-54760880D02*
X130548214Y-55332309D01*
X131500595Y-54856119D02*
X131548214Y-54808500D01*
X131643452Y-54760880D01*
X131881547Y-54760880D01*
X131976785Y-54808500D01*
X132024404Y-54856119D01*
X132072023Y-54951357D01*
X132072023Y-55046595D01*
X132024404Y-55189452D01*
X131452976Y-55760880D01*
X132072023Y-55760880D01*
X133024404Y-55760880D02*
X132452976Y-55760880D01*
X132738690Y-55760880D02*
X132738690Y-54760880D01*
X132643452Y-54903738D01*
X132548214Y-54998976D01*
X132452976Y-55046595D01*
X111498214Y-55760880D02*
X111498214Y-54760880D01*
X112069642Y-55760880D02*
X111641071Y-55189452D01*
X112069642Y-54760880D02*
X111498214Y-55332309D01*
X112450595Y-54856119D02*
X112498214Y-54808500D01*
X112593452Y-54760880D01*
X112831547Y-54760880D01*
X112926785Y-54808500D01*
X112974404Y-54856119D01*
X113022023Y-54951357D01*
X113022023Y-55046595D01*
X112974404Y-55189452D01*
X112402976Y-55760880D01*
X113022023Y-55760880D01*
X113641071Y-54760880D02*
X113736309Y-54760880D01*
X113831547Y-54808500D01*
X113879166Y-54856119D01*
X113926785Y-54951357D01*
X113974404Y-55141833D01*
X113974404Y-55379928D01*
X113926785Y-55570404D01*
X113879166Y-55665642D01*
X113831547Y-55713261D01*
X113736309Y-55760880D01*
X113641071Y-55760880D01*
X113545833Y-55713261D01*
X113498214Y-55665642D01*
X113450595Y-55570404D01*
X113402976Y-55379928D01*
X113402976Y-55141833D01*
X113450595Y-54951357D01*
X113498214Y-54856119D01*
X113545833Y-54808500D01*
X113641071Y-54760880D01*
X278185714Y-93860880D02*
X278185714Y-92860880D01*
X278757142Y-93860880D02*
X278328571Y-93289452D01*
X278757142Y-92860880D02*
X278185714Y-93432309D01*
X279614285Y-92860880D02*
X279423809Y-92860880D01*
X279328571Y-92908500D01*
X279280952Y-92956119D01*
X279185714Y-93098976D01*
X279138095Y-93289452D01*
X279138095Y-93670404D01*
X279185714Y-93765642D01*
X279233333Y-93813261D01*
X279328571Y-93860880D01*
X279519047Y-93860880D01*
X279614285Y-93813261D01*
X279661904Y-93765642D01*
X279709523Y-93670404D01*
X279709523Y-93432309D01*
X279661904Y-93337071D01*
X279614285Y-93289452D01*
X279519047Y-93241833D01*
X279328571Y-93241833D01*
X279233333Y-93289452D01*
X279185714Y-93337071D01*
X279138095Y-93432309D01*
X280090476Y-92956119D02*
X280138095Y-92908500D01*
X280233333Y-92860880D01*
X280471428Y-92860880D01*
X280566666Y-92908500D01*
X280614285Y-92956119D01*
X280661904Y-93051357D01*
X280661904Y-93146595D01*
X280614285Y-93289452D01*
X280042857Y-93860880D01*
X280661904Y-93860880D01*
X249610714Y-74810880D02*
X249610714Y-73810880D01*
X250182142Y-74810880D02*
X249753571Y-74239452D01*
X250182142Y-73810880D02*
X249610714Y-74382309D01*
X251039285Y-74144214D02*
X251039285Y-74810880D01*
X250801190Y-73763261D02*
X250563095Y-74477547D01*
X251182142Y-74477547D01*
X251991666Y-74144214D02*
X251991666Y-74810880D01*
X251753571Y-73763261D02*
X251515476Y-74477547D01*
X252134523Y-74477547D01*
X104354464Y-131960880D02*
X104354464Y-130960880D01*
X104925892Y-131960880D02*
X104497321Y-131389452D01*
X104925892Y-130960880D02*
X104354464Y-131532309D01*
X105259226Y-130960880D02*
X105925892Y-130960880D01*
X105497321Y-131960880D01*
X106354464Y-131960880D02*
X106544940Y-131960880D01*
X106640178Y-131913261D01*
X106687797Y-131865642D01*
X106783035Y-131722785D01*
X106830654Y-131532309D01*
X106830654Y-131151357D01*
X106783035Y-131056119D01*
X106735416Y-131008500D01*
X106640178Y-130960880D01*
X106449702Y-130960880D01*
X106354464Y-131008500D01*
X106306845Y-131056119D01*
X106259226Y-131151357D01*
X106259226Y-131389452D01*
X106306845Y-131484690D01*
X106354464Y-131532309D01*
X106449702Y-131579928D01*
X106640178Y-131579928D01*
X106735416Y-131532309D01*
X106783035Y-131484690D01*
X106830654Y-131389452D01*
X259135714Y-93860880D02*
X259135714Y-92860880D01*
X259707142Y-93860880D02*
X259278571Y-93289452D01*
X259707142Y-92860880D02*
X259135714Y-93432309D01*
X260564285Y-92860880D02*
X260373809Y-92860880D01*
X260278571Y-92908500D01*
X260230952Y-92956119D01*
X260135714Y-93098976D01*
X260088095Y-93289452D01*
X260088095Y-93670404D01*
X260135714Y-93765642D01*
X260183333Y-93813261D01*
X260278571Y-93860880D01*
X260469047Y-93860880D01*
X260564285Y-93813261D01*
X260611904Y-93765642D01*
X260659523Y-93670404D01*
X260659523Y-93432309D01*
X260611904Y-93337071D01*
X260564285Y-93289452D01*
X260469047Y-93241833D01*
X260278571Y-93241833D01*
X260183333Y-93289452D01*
X260135714Y-93337071D01*
X260088095Y-93432309D01*
X261611904Y-93860880D02*
X261040476Y-93860880D01*
X261326190Y-93860880D02*
X261326190Y-92860880D01*
X261230952Y-93003738D01*
X261135714Y-93098976D01*
X261040476Y-93146595D01*
X116260714Y-74810880D02*
X116260714Y-73810880D01*
X116832142Y-74810880D02*
X116403571Y-74239452D01*
X116832142Y-73810880D02*
X116260714Y-74382309D01*
X117165476Y-73810880D02*
X117784523Y-73810880D01*
X117451190Y-74191833D01*
X117594047Y-74191833D01*
X117689285Y-74239452D01*
X117736904Y-74287071D01*
X117784523Y-74382309D01*
X117784523Y-74620404D01*
X117736904Y-74715642D01*
X117689285Y-74763261D01*
X117594047Y-74810880D01*
X117308333Y-74810880D01*
X117213095Y-74763261D01*
X117165476Y-74715642D01*
X118117857Y-73810880D02*
X118784523Y-73810880D01*
X118355952Y-74810880D01*
X383754464Y-131960880D02*
X383754464Y-130960880D01*
X384325892Y-131960880D02*
X383897321Y-131389452D01*
X384325892Y-130960880D02*
X383754464Y-131532309D01*
X384897321Y-131389452D02*
X384802083Y-131341833D01*
X384754464Y-131294214D01*
X384706845Y-131198976D01*
X384706845Y-131151357D01*
X384754464Y-131056119D01*
X384802083Y-131008500D01*
X384897321Y-130960880D01*
X385087797Y-130960880D01*
X385183035Y-131008500D01*
X385230654Y-131056119D01*
X385278273Y-131151357D01*
X385278273Y-131198976D01*
X385230654Y-131294214D01*
X385183035Y-131341833D01*
X385087797Y-131389452D01*
X384897321Y-131389452D01*
X384802083Y-131437071D01*
X384754464Y-131484690D01*
X384706845Y-131579928D01*
X384706845Y-131770404D01*
X384754464Y-131865642D01*
X384802083Y-131913261D01*
X384897321Y-131960880D01*
X385087797Y-131960880D01*
X385183035Y-131913261D01*
X385230654Y-131865642D01*
X385278273Y-131770404D01*
X385278273Y-131579928D01*
X385230654Y-131484690D01*
X385183035Y-131437071D01*
X385087797Y-131389452D01*
X385611607Y-130960880D02*
X386278273Y-130960880D01*
X385849702Y-131960880D01*
X282948214Y-29090880D02*
X282948214Y-28090880D01*
X283519642Y-29090880D02*
X283091071Y-28519452D01*
X283519642Y-28090880D02*
X282948214Y-28662309D01*
X284472023Y-29090880D02*
X283900595Y-29090880D01*
X284186309Y-29090880D02*
X284186309Y-28090880D01*
X284091071Y-28233738D01*
X283995833Y-28328976D01*
X283900595Y-28376595D01*
X285424404Y-29090880D02*
X284852976Y-29090880D01*
X285138690Y-29090880D02*
X285138690Y-28090880D01*
X285043452Y-28233738D01*
X284948214Y-28328976D01*
X284852976Y-28376595D01*
X144835714Y-93860880D02*
X144835714Y-92860880D01*
X145407142Y-93860880D02*
X144978571Y-93289452D01*
X145407142Y-92860880D02*
X144835714Y-93432309D01*
X146311904Y-92860880D02*
X145835714Y-92860880D01*
X145788095Y-93337071D01*
X145835714Y-93289452D01*
X145930952Y-93241833D01*
X146169047Y-93241833D01*
X146264285Y-93289452D01*
X146311904Y-93337071D01*
X146359523Y-93432309D01*
X146359523Y-93670404D01*
X146311904Y-93765642D01*
X146264285Y-93813261D01*
X146169047Y-93860880D01*
X145930952Y-93860880D01*
X145835714Y-93813261D01*
X145788095Y-93765642D01*
X147264285Y-92860880D02*
X146788095Y-92860880D01*
X146740476Y-93337071D01*
X146788095Y-93289452D01*
X146883333Y-93241833D01*
X147121428Y-93241833D01*
X147216666Y-93289452D01*
X147264285Y-93337071D01*
X147311904Y-93432309D01*
X147311904Y-93670404D01*
X147264285Y-93765642D01*
X147216666Y-93813261D01*
X147121428Y-93860880D01*
X146883333Y-93860880D01*
X146788095Y-93813261D01*
X146740476Y-93765642D01*
X87685714Y-93860880D02*
X87685714Y-92860880D01*
X88257142Y-93860880D02*
X87828571Y-93289452D01*
X88257142Y-92860880D02*
X87685714Y-93432309D01*
X89161904Y-92860880D02*
X88685714Y-92860880D01*
X88638095Y-93337071D01*
X88685714Y-93289452D01*
X88780952Y-93241833D01*
X89019047Y-93241833D01*
X89114285Y-93289452D01*
X89161904Y-93337071D01*
X89209523Y-93432309D01*
X89209523Y-93670404D01*
X89161904Y-93765642D01*
X89114285Y-93813261D01*
X89019047Y-93860880D01*
X88780952Y-93860880D01*
X88685714Y-93813261D01*
X88638095Y-93765642D01*
X89590476Y-92956119D02*
X89638095Y-92908500D01*
X89733333Y-92860880D01*
X89971428Y-92860880D01*
X90066666Y-92908500D01*
X90114285Y-92956119D01*
X90161904Y-93051357D01*
X90161904Y-93146595D01*
X90114285Y-93289452D01*
X89542857Y-93860880D01*
X90161904Y-93860880D01*
X106735714Y-93860880D02*
X106735714Y-92860880D01*
X107307142Y-93860880D02*
X106878571Y-93289452D01*
X107307142Y-92860880D02*
X106735714Y-93432309D01*
X108211904Y-92860880D02*
X107735714Y-92860880D01*
X107688095Y-93337071D01*
X107735714Y-93289452D01*
X107830952Y-93241833D01*
X108069047Y-93241833D01*
X108164285Y-93289452D01*
X108211904Y-93337071D01*
X108259523Y-93432309D01*
X108259523Y-93670404D01*
X108211904Y-93765642D01*
X108164285Y-93813261D01*
X108069047Y-93860880D01*
X107830952Y-93860880D01*
X107735714Y-93813261D01*
X107688095Y-93765642D01*
X108592857Y-92860880D02*
X109211904Y-92860880D01*
X108878571Y-93241833D01*
X109021428Y-93241833D01*
X109116666Y-93289452D01*
X109164285Y-93337071D01*
X109211904Y-93432309D01*
X109211904Y-93670404D01*
X109164285Y-93765642D01*
X109116666Y-93813261D01*
X109021428Y-93860880D01*
X108735714Y-93860880D01*
X108640476Y-93813261D01*
X108592857Y-93765642D01*
X135310714Y-112910880D02*
X135310714Y-111910880D01*
X135882142Y-112910880D02*
X135453571Y-112339452D01*
X135882142Y-111910880D02*
X135310714Y-112482309D01*
X136739285Y-111910880D02*
X136548809Y-111910880D01*
X136453571Y-111958500D01*
X136405952Y-112006119D01*
X136310714Y-112148976D01*
X136263095Y-112339452D01*
X136263095Y-112720404D01*
X136310714Y-112815642D01*
X136358333Y-112863261D01*
X136453571Y-112910880D01*
X136644047Y-112910880D01*
X136739285Y-112863261D01*
X136786904Y-112815642D01*
X136834523Y-112720404D01*
X136834523Y-112482309D01*
X136786904Y-112387071D01*
X136739285Y-112339452D01*
X136644047Y-112291833D01*
X136453571Y-112291833D01*
X136358333Y-112339452D01*
X136310714Y-112387071D01*
X136263095Y-112482309D01*
X137167857Y-111910880D02*
X137834523Y-111910880D01*
X137405952Y-112910880D01*
X345654464Y-74810880D02*
X345654464Y-73810880D01*
X346225892Y-74810880D02*
X345797321Y-74239452D01*
X346225892Y-73810880D02*
X345654464Y-74382309D01*
X347083035Y-74144214D02*
X347083035Y-74810880D01*
X346844940Y-73763261D02*
X346606845Y-74477547D01*
X347225892Y-74477547D01*
X347749702Y-74239452D02*
X347654464Y-74191833D01*
X347606845Y-74144214D01*
X347559226Y-74048976D01*
X347559226Y-74001357D01*
X347606845Y-73906119D01*
X347654464Y-73858500D01*
X347749702Y-73810880D01*
X347940178Y-73810880D01*
X348035416Y-73858500D01*
X348083035Y-73906119D01*
X348130654Y-74001357D01*
X348130654Y-74048976D01*
X348083035Y-74144214D01*
X348035416Y-74191833D01*
X347940178Y-74239452D01*
X347749702Y-74239452D01*
X347654464Y-74287071D01*
X347606845Y-74334690D01*
X347559226Y-74429928D01*
X347559226Y-74620404D01*
X347606845Y-74715642D01*
X347654464Y-74763261D01*
X347749702Y-74810880D01*
X347940178Y-74810880D01*
X348035416Y-74763261D01*
X348083035Y-74715642D01*
X348130654Y-74620404D01*
X348130654Y-74429928D01*
X348083035Y-74334690D01*
X348035416Y-74287071D01*
X347940178Y-74239452D01*
X230560714Y-112910880D02*
X230560714Y-111910880D01*
X231132142Y-112910880D02*
X230703571Y-112339452D01*
X231132142Y-111910880D02*
X230560714Y-112482309D01*
X231465476Y-111910880D02*
X232132142Y-111910880D01*
X231703571Y-112910880D01*
X232465476Y-112006119D02*
X232513095Y-111958500D01*
X232608333Y-111910880D01*
X232846428Y-111910880D01*
X232941666Y-111958500D01*
X232989285Y-112006119D01*
X233036904Y-112101357D01*
X233036904Y-112196595D01*
X232989285Y-112339452D01*
X232417857Y-112910880D01*
X233036904Y-112910880D01*
X287710714Y-74810880D02*
X287710714Y-73810880D01*
X288282142Y-74810880D02*
X287853571Y-74239452D01*
X288282142Y-73810880D02*
X287710714Y-74382309D01*
X289139285Y-74144214D02*
X289139285Y-74810880D01*
X288901190Y-73763261D02*
X288663095Y-74477547D01*
X289282142Y-74477547D01*
X290091666Y-73810880D02*
X289901190Y-73810880D01*
X289805952Y-73858500D01*
X289758333Y-73906119D01*
X289663095Y-74048976D01*
X289615476Y-74239452D01*
X289615476Y-74620404D01*
X289663095Y-74715642D01*
X289710714Y-74763261D01*
X289805952Y-74810880D01*
X289996428Y-74810880D01*
X290091666Y-74763261D01*
X290139285Y-74715642D01*
X290186904Y-74620404D01*
X290186904Y-74382309D01*
X290139285Y-74287071D01*
X290091666Y-74239452D01*
X289996428Y-74191833D01*
X289805952Y-74191833D01*
X289710714Y-74239452D01*
X289663095Y-74287071D01*
X289615476Y-74382309D01*
X364863214Y-29090880D02*
X364863214Y-28090880D01*
X365434642Y-29090880D02*
X365006071Y-28519452D01*
X365434642Y-28090880D02*
X364863214Y-28662309D01*
X366387023Y-29090880D02*
X365815595Y-29090880D01*
X366101309Y-29090880D02*
X366101309Y-28090880D01*
X366006071Y-28233738D01*
X365910833Y-28328976D01*
X365815595Y-28376595D01*
X367291785Y-28090880D02*
X366815595Y-28090880D01*
X366767976Y-28567071D01*
X366815595Y-28519452D01*
X366910833Y-28471833D01*
X367148928Y-28471833D01*
X367244166Y-28519452D01*
X367291785Y-28567071D01*
X367339404Y-28662309D01*
X367339404Y-28900404D01*
X367291785Y-28995642D01*
X367244166Y-29043261D01*
X367148928Y-29090880D01*
X366910833Y-29090880D01*
X366815595Y-29043261D01*
X366767976Y-28995642D01*
X321048214Y-29090880D02*
X321048214Y-28090880D01*
X321619642Y-29090880D02*
X321191071Y-28519452D01*
X321619642Y-28090880D02*
X321048214Y-28662309D01*
X322572023Y-29090880D02*
X322000595Y-29090880D01*
X322286309Y-29090880D02*
X322286309Y-28090880D01*
X322191071Y-28233738D01*
X322095833Y-28328976D01*
X322000595Y-28376595D01*
X322905357Y-28090880D02*
X323524404Y-28090880D01*
X323191071Y-28471833D01*
X323333928Y-28471833D01*
X323429166Y-28519452D01*
X323476785Y-28567071D01*
X323524404Y-28662309D01*
X323524404Y-28900404D01*
X323476785Y-28995642D01*
X323429166Y-29043261D01*
X323333928Y-29090880D01*
X323048214Y-29090880D01*
X322952976Y-29043261D01*
X322905357Y-28995642D01*
X92924404Y-29090880D02*
X92924404Y-28090880D01*
X93495833Y-29090880D02*
X93067261Y-28519452D01*
X93495833Y-28090880D02*
X92924404Y-28662309D01*
X93876785Y-28186119D02*
X93924404Y-28138500D01*
X94019642Y-28090880D01*
X94257738Y-28090880D01*
X94352976Y-28138500D01*
X94400595Y-28186119D01*
X94448214Y-28281357D01*
X94448214Y-28376595D01*
X94400595Y-28519452D01*
X93829166Y-29090880D01*
X94448214Y-29090880D01*
X163885714Y-93860880D02*
X163885714Y-92860880D01*
X164457142Y-93860880D02*
X164028571Y-93289452D01*
X164457142Y-92860880D02*
X163885714Y-93432309D01*
X165361904Y-92860880D02*
X164885714Y-92860880D01*
X164838095Y-93337071D01*
X164885714Y-93289452D01*
X164980952Y-93241833D01*
X165219047Y-93241833D01*
X165314285Y-93289452D01*
X165361904Y-93337071D01*
X165409523Y-93432309D01*
X165409523Y-93670404D01*
X165361904Y-93765642D01*
X165314285Y-93813261D01*
X165219047Y-93860880D01*
X164980952Y-93860880D01*
X164885714Y-93813261D01*
X164838095Y-93765642D01*
X166266666Y-92860880D02*
X166076190Y-92860880D01*
X165980952Y-92908500D01*
X165933333Y-92956119D01*
X165838095Y-93098976D01*
X165790476Y-93289452D01*
X165790476Y-93670404D01*
X165838095Y-93765642D01*
X165885714Y-93813261D01*
X165980952Y-93860880D01*
X166171428Y-93860880D01*
X166266666Y-93813261D01*
X166314285Y-93765642D01*
X166361904Y-93670404D01*
X166361904Y-93432309D01*
X166314285Y-93337071D01*
X166266666Y-93289452D01*
X166171428Y-93241833D01*
X165980952Y-93241833D01*
X165885714Y-93289452D01*
X165838095Y-93337071D01*
X165790476Y-93432309D01*
X192460714Y-112910880D02*
X192460714Y-111910880D01*
X193032142Y-112910880D02*
X192603571Y-112339452D01*
X193032142Y-111910880D02*
X192460714Y-112482309D01*
X193365476Y-111910880D02*
X194032142Y-111910880D01*
X193603571Y-112910880D01*
X194603571Y-111910880D02*
X194698809Y-111910880D01*
X194794047Y-111958500D01*
X194841666Y-112006119D01*
X194889285Y-112101357D01*
X194936904Y-112291833D01*
X194936904Y-112529928D01*
X194889285Y-112720404D01*
X194841666Y-112815642D01*
X194794047Y-112863261D01*
X194698809Y-112910880D01*
X194603571Y-112910880D01*
X194508333Y-112863261D01*
X194460714Y-112815642D01*
X194413095Y-112720404D01*
X194365476Y-112529928D01*
X194365476Y-112291833D01*
X194413095Y-112101357D01*
X194460714Y-112006119D01*
X194508333Y-111958500D01*
X194603571Y-111910880D01*
X201985714Y-93860880D02*
X201985714Y-92860880D01*
X202557142Y-93860880D02*
X202128571Y-93289452D01*
X202557142Y-92860880D02*
X201985714Y-93432309D01*
X203461904Y-92860880D02*
X202985714Y-92860880D01*
X202938095Y-93337071D01*
X202985714Y-93289452D01*
X203080952Y-93241833D01*
X203319047Y-93241833D01*
X203414285Y-93289452D01*
X203461904Y-93337071D01*
X203509523Y-93432309D01*
X203509523Y-93670404D01*
X203461904Y-93765642D01*
X203414285Y-93813261D01*
X203319047Y-93860880D01*
X203080952Y-93860880D01*
X202985714Y-93813261D01*
X202938095Y-93765642D01*
X204080952Y-93289452D02*
X203985714Y-93241833D01*
X203938095Y-93194214D01*
X203890476Y-93098976D01*
X203890476Y-93051357D01*
X203938095Y-92956119D01*
X203985714Y-92908500D01*
X204080952Y-92860880D01*
X204271428Y-92860880D01*
X204366666Y-92908500D01*
X204414285Y-92956119D01*
X204461904Y-93051357D01*
X204461904Y-93098976D01*
X204414285Y-93194214D01*
X204366666Y-93241833D01*
X204271428Y-93289452D01*
X204080952Y-93289452D01*
X203985714Y-93337071D01*
X203938095Y-93384690D01*
X203890476Y-93479928D01*
X203890476Y-93670404D01*
X203938095Y-93765642D01*
X203985714Y-93813261D01*
X204080952Y-93860880D01*
X204271428Y-93860880D01*
X204366666Y-93813261D01*
X204414285Y-93765642D01*
X204461904Y-93670404D01*
X204461904Y-93479928D01*
X204414285Y-93384690D01*
X204366666Y-93337071D01*
X204271428Y-93289452D01*
X168648214Y-55760880D02*
X168648214Y-54760880D01*
X169219642Y-55760880D02*
X168791071Y-55189452D01*
X169219642Y-54760880D02*
X168648214Y-55332309D01*
X169600595Y-54856119D02*
X169648214Y-54808500D01*
X169743452Y-54760880D01*
X169981547Y-54760880D01*
X170076785Y-54808500D01*
X170124404Y-54856119D01*
X170172023Y-54951357D01*
X170172023Y-55046595D01*
X170124404Y-55189452D01*
X169552976Y-55760880D01*
X170172023Y-55760880D01*
X170505357Y-54760880D02*
X171124404Y-54760880D01*
X170791071Y-55141833D01*
X170933928Y-55141833D01*
X171029166Y-55189452D01*
X171076785Y-55237071D01*
X171124404Y-55332309D01*
X171124404Y-55570404D01*
X171076785Y-55665642D01*
X171029166Y-55713261D01*
X170933928Y-55760880D01*
X170648214Y-55760880D01*
X170552976Y-55713261D01*
X170505357Y-55665642D01*
X211510714Y-74810880D02*
X211510714Y-73810880D01*
X212082142Y-74810880D02*
X211653571Y-74239452D01*
X212082142Y-73810880D02*
X211510714Y-74382309D01*
X212939285Y-74144214D02*
X212939285Y-74810880D01*
X212701190Y-73763261D02*
X212463095Y-74477547D01*
X213082142Y-74477547D01*
X213415476Y-73906119D02*
X213463095Y-73858500D01*
X213558333Y-73810880D01*
X213796428Y-73810880D01*
X213891666Y-73858500D01*
X213939285Y-73906119D01*
X213986904Y-74001357D01*
X213986904Y-74096595D01*
X213939285Y-74239452D01*
X213367857Y-74810880D01*
X213986904Y-74810880D01*
X383754464Y-55760880D02*
X383754464Y-54760880D01*
X384325892Y-55760880D02*
X383897321Y-55189452D01*
X384325892Y-54760880D02*
X383754464Y-55332309D01*
X384659226Y-54760880D02*
X385278273Y-54760880D01*
X384944940Y-55141833D01*
X385087797Y-55141833D01*
X385183035Y-55189452D01*
X385230654Y-55237071D01*
X385278273Y-55332309D01*
X385278273Y-55570404D01*
X385230654Y-55665642D01*
X385183035Y-55713261D01*
X385087797Y-55760880D01*
X384802083Y-55760880D01*
X384706845Y-55713261D01*
X384659226Y-55665642D01*
X385611607Y-54760880D02*
X386230654Y-54760880D01*
X385897321Y-55141833D01*
X386040178Y-55141833D01*
X386135416Y-55189452D01*
X386183035Y-55237071D01*
X386230654Y-55332309D01*
X386230654Y-55570404D01*
X386183035Y-55665642D01*
X386135416Y-55713261D01*
X386040178Y-55760880D01*
X385754464Y-55760880D01*
X385659226Y-55713261D01*
X385611607Y-55665642D01*
X149598214Y-55760880D02*
X149598214Y-54760880D01*
X150169642Y-55760880D02*
X149741071Y-55189452D01*
X150169642Y-54760880D02*
X149598214Y-55332309D01*
X150550595Y-54856119D02*
X150598214Y-54808500D01*
X150693452Y-54760880D01*
X150931547Y-54760880D01*
X151026785Y-54808500D01*
X151074404Y-54856119D01*
X151122023Y-54951357D01*
X151122023Y-55046595D01*
X151074404Y-55189452D01*
X150502976Y-55760880D01*
X151122023Y-55760880D01*
X151502976Y-54856119D02*
X151550595Y-54808500D01*
X151645833Y-54760880D01*
X151883928Y-54760880D01*
X151979166Y-54808500D01*
X152026785Y-54856119D01*
X152074404Y-54951357D01*
X152074404Y-55046595D01*
X152026785Y-55189452D01*
X151455357Y-55760880D01*
X152074404Y-55760880D01*
X268660714Y-74810880D02*
X268660714Y-73810880D01*
X269232142Y-74810880D02*
X268803571Y-74239452D01*
X269232142Y-73810880D02*
X268660714Y-74382309D01*
X270089285Y-74144214D02*
X270089285Y-74810880D01*
X269851190Y-73763261D02*
X269613095Y-74477547D01*
X270232142Y-74477547D01*
X271089285Y-73810880D02*
X270613095Y-73810880D01*
X270565476Y-74287071D01*
X270613095Y-74239452D01*
X270708333Y-74191833D01*
X270946428Y-74191833D01*
X271041666Y-74239452D01*
X271089285Y-74287071D01*
X271136904Y-74382309D01*
X271136904Y-74620404D01*
X271089285Y-74715642D01*
X271041666Y-74763261D01*
X270946428Y-74810880D01*
X270708333Y-74810880D01*
X270613095Y-74763261D01*
X270565476Y-74715642D01*
X173410714Y-112910880D02*
X173410714Y-111910880D01*
X173982142Y-112910880D02*
X173553571Y-112339452D01*
X173982142Y-111910880D02*
X173410714Y-112482309D01*
X174839285Y-111910880D02*
X174648809Y-111910880D01*
X174553571Y-111958500D01*
X174505952Y-112006119D01*
X174410714Y-112148976D01*
X174363095Y-112339452D01*
X174363095Y-112720404D01*
X174410714Y-112815642D01*
X174458333Y-112863261D01*
X174553571Y-112910880D01*
X174744047Y-112910880D01*
X174839285Y-112863261D01*
X174886904Y-112815642D01*
X174934523Y-112720404D01*
X174934523Y-112482309D01*
X174886904Y-112387071D01*
X174839285Y-112339452D01*
X174744047Y-112291833D01*
X174553571Y-112291833D01*
X174458333Y-112339452D01*
X174410714Y-112387071D01*
X174363095Y-112482309D01*
X175410714Y-112910880D02*
X175601190Y-112910880D01*
X175696428Y-112863261D01*
X175744047Y-112815642D01*
X175839285Y-112672785D01*
X175886904Y-112482309D01*
X175886904Y-112101357D01*
X175839285Y-112006119D01*
X175791666Y-111958500D01*
X175696428Y-111910880D01*
X175505952Y-111910880D01*
X175410714Y-111958500D01*
X175363095Y-112006119D01*
X175315476Y-112101357D01*
X175315476Y-112339452D01*
X175363095Y-112434690D01*
X175410714Y-112482309D01*
X175505952Y-112529928D01*
X175696428Y-112529928D01*
X175791666Y-112482309D01*
X175839285Y-112434690D01*
X175886904Y-112339452D01*
X66258214Y-112930880D02*
X66258214Y-111930880D01*
X66829642Y-112930880D02*
X66401071Y-112359452D01*
X66829642Y-111930880D02*
X66258214Y-112502309D01*
X67686785Y-111930880D02*
X67496309Y-111930880D01*
X67401071Y-111978500D01*
X67353452Y-112026119D01*
X67258214Y-112168976D01*
X67210595Y-112359452D01*
X67210595Y-112740404D01*
X67258214Y-112835642D01*
X67305833Y-112883261D01*
X67401071Y-112930880D01*
X67591547Y-112930880D01*
X67686785Y-112883261D01*
X67734404Y-112835642D01*
X67782023Y-112740404D01*
X67782023Y-112502309D01*
X67734404Y-112407071D01*
X67686785Y-112359452D01*
X67591547Y-112311833D01*
X67401071Y-112311833D01*
X67305833Y-112359452D01*
X67258214Y-112407071D01*
X67210595Y-112502309D01*
X68639166Y-112264214D02*
X68639166Y-112930880D01*
X68401071Y-111883261D02*
X68162976Y-112597547D01*
X68782023Y-112597547D01*
X92448214Y-55760880D02*
X92448214Y-54760880D01*
X93019642Y-55760880D02*
X92591071Y-55189452D01*
X93019642Y-54760880D02*
X92448214Y-55332309D01*
X93972023Y-55760880D02*
X93400595Y-55760880D01*
X93686309Y-55760880D02*
X93686309Y-54760880D01*
X93591071Y-54903738D01*
X93495833Y-54998976D01*
X93400595Y-55046595D01*
X94448214Y-55760880D02*
X94638690Y-55760880D01*
X94733928Y-55713261D01*
X94781547Y-55665642D01*
X94876785Y-55522785D01*
X94924404Y-55332309D01*
X94924404Y-54951357D01*
X94876785Y-54856119D01*
X94829166Y-54808500D01*
X94733928Y-54760880D01*
X94543452Y-54760880D01*
X94448214Y-54808500D01*
X94400595Y-54856119D01*
X94352976Y-54951357D01*
X94352976Y-55189452D01*
X94400595Y-55284690D01*
X94448214Y-55332309D01*
X94543452Y-55379928D01*
X94733928Y-55379928D01*
X94829166Y-55332309D01*
X94876785Y-55284690D01*
X94924404Y-55189452D01*
X154360714Y-112910880D02*
X154360714Y-111910880D01*
X154932142Y-112910880D02*
X154503571Y-112339452D01*
X154932142Y-111910880D02*
X154360714Y-112482309D01*
X155789285Y-111910880D02*
X155598809Y-111910880D01*
X155503571Y-111958500D01*
X155455952Y-112006119D01*
X155360714Y-112148976D01*
X155313095Y-112339452D01*
X155313095Y-112720404D01*
X155360714Y-112815642D01*
X155408333Y-112863261D01*
X155503571Y-112910880D01*
X155694047Y-112910880D01*
X155789285Y-112863261D01*
X155836904Y-112815642D01*
X155884523Y-112720404D01*
X155884523Y-112482309D01*
X155836904Y-112387071D01*
X155789285Y-112339452D01*
X155694047Y-112291833D01*
X155503571Y-112291833D01*
X155408333Y-112339452D01*
X155360714Y-112387071D01*
X155313095Y-112482309D01*
X156455952Y-112339452D02*
X156360714Y-112291833D01*
X156313095Y-112244214D01*
X156265476Y-112148976D01*
X156265476Y-112101357D01*
X156313095Y-112006119D01*
X156360714Y-111958500D01*
X156455952Y-111910880D01*
X156646428Y-111910880D01*
X156741666Y-111958500D01*
X156789285Y-112006119D01*
X156836904Y-112101357D01*
X156836904Y-112148976D01*
X156789285Y-112244214D01*
X156741666Y-112291833D01*
X156646428Y-112339452D01*
X156455952Y-112339452D01*
X156360714Y-112387071D01*
X156313095Y-112434690D01*
X156265476Y-112529928D01*
X156265476Y-112720404D01*
X156313095Y-112815642D01*
X156360714Y-112863261D01*
X156455952Y-112910880D01*
X156646428Y-112910880D01*
X156741666Y-112863261D01*
X156789285Y-112815642D01*
X156836904Y-112720404D01*
X156836904Y-112529928D01*
X156789285Y-112434690D01*
X156741666Y-112387071D01*
X156646428Y-112339452D01*
X73398214Y-55760880D02*
X73398214Y-54760880D01*
X73969642Y-55760880D02*
X73541071Y-55189452D01*
X73969642Y-54760880D02*
X73398214Y-55332309D01*
X74922023Y-55760880D02*
X74350595Y-55760880D01*
X74636309Y-55760880D02*
X74636309Y-54760880D01*
X74541071Y-54903738D01*
X74445833Y-54998976D01*
X74350595Y-55046595D01*
X75493452Y-55189452D02*
X75398214Y-55141833D01*
X75350595Y-55094214D01*
X75302976Y-54998976D01*
X75302976Y-54951357D01*
X75350595Y-54856119D01*
X75398214Y-54808500D01*
X75493452Y-54760880D01*
X75683928Y-54760880D01*
X75779166Y-54808500D01*
X75826785Y-54856119D01*
X75874404Y-54951357D01*
X75874404Y-54998976D01*
X75826785Y-55094214D01*
X75779166Y-55141833D01*
X75683928Y-55189452D01*
X75493452Y-55189452D01*
X75398214Y-55237071D01*
X75350595Y-55284690D01*
X75302976Y-55379928D01*
X75302976Y-55570404D01*
X75350595Y-55665642D01*
X75398214Y-55713261D01*
X75493452Y-55760880D01*
X75683928Y-55760880D01*
X75779166Y-55713261D01*
X75826785Y-55665642D01*
X75874404Y-55570404D01*
X75874404Y-55379928D01*
X75826785Y-55284690D01*
X75779166Y-55237071D01*
X75683928Y-55189452D01*
X97210714Y-112910880D02*
X97210714Y-111910880D01*
X97782142Y-112910880D02*
X97353571Y-112339452D01*
X97782142Y-111910880D02*
X97210714Y-112482309D01*
X98639285Y-111910880D02*
X98448809Y-111910880D01*
X98353571Y-111958500D01*
X98305952Y-112006119D01*
X98210714Y-112148976D01*
X98163095Y-112339452D01*
X98163095Y-112720404D01*
X98210714Y-112815642D01*
X98258333Y-112863261D01*
X98353571Y-112910880D01*
X98544047Y-112910880D01*
X98639285Y-112863261D01*
X98686904Y-112815642D01*
X98734523Y-112720404D01*
X98734523Y-112482309D01*
X98686904Y-112387071D01*
X98639285Y-112339452D01*
X98544047Y-112291833D01*
X98353571Y-112291833D01*
X98258333Y-112339452D01*
X98210714Y-112387071D01*
X98163095Y-112482309D01*
X99639285Y-111910880D02*
X99163095Y-111910880D01*
X99115476Y-112387071D01*
X99163095Y-112339452D01*
X99258333Y-112291833D01*
X99496428Y-112291833D01*
X99591666Y-112339452D01*
X99639285Y-112387071D01*
X99686904Y-112482309D01*
X99686904Y-112720404D01*
X99639285Y-112815642D01*
X99591666Y-112863261D01*
X99496428Y-112910880D01*
X99258333Y-112910880D01*
X99163095Y-112863261D01*
X99115476Y-112815642D01*
X221035714Y-93860880D02*
X221035714Y-92860880D01*
X221607142Y-93860880D02*
X221178571Y-93289452D01*
X221607142Y-92860880D02*
X221035714Y-93432309D01*
X222511904Y-92860880D02*
X222035714Y-92860880D01*
X221988095Y-93337071D01*
X222035714Y-93289452D01*
X222130952Y-93241833D01*
X222369047Y-93241833D01*
X222464285Y-93289452D01*
X222511904Y-93337071D01*
X222559523Y-93432309D01*
X222559523Y-93670404D01*
X222511904Y-93765642D01*
X222464285Y-93813261D01*
X222369047Y-93860880D01*
X222130952Y-93860880D01*
X222035714Y-93813261D01*
X221988095Y-93765642D01*
X223035714Y-93860880D02*
X223226190Y-93860880D01*
X223321428Y-93813261D01*
X223369047Y-93765642D01*
X223464285Y-93622785D01*
X223511904Y-93432309D01*
X223511904Y-93051357D01*
X223464285Y-92956119D01*
X223416666Y-92908500D01*
X223321428Y-92860880D01*
X223130952Y-92860880D01*
X223035714Y-92908500D01*
X222988095Y-92956119D01*
X222940476Y-93051357D01*
X222940476Y-93289452D01*
X222988095Y-93384690D01*
X223035714Y-93432309D01*
X223130952Y-93479928D01*
X223321428Y-93479928D01*
X223416666Y-93432309D01*
X223464285Y-93384690D01*
X223511904Y-93289452D01*
X56729464Y-131960880D02*
X56729464Y-130960880D01*
X57300892Y-131960880D02*
X56872321Y-131389452D01*
X57300892Y-130960880D02*
X56729464Y-131532309D01*
X57634226Y-130960880D02*
X58300892Y-130960880D01*
X57872321Y-131960880D01*
X58586607Y-130960880D02*
X59253273Y-130960880D01*
X58824702Y-131960880D01*
X78160714Y-74810880D02*
X78160714Y-73810880D01*
X78732142Y-74810880D02*
X78303571Y-74239452D01*
X78732142Y-73810880D02*
X78160714Y-74382309D01*
X79065476Y-73810880D02*
X79684523Y-73810880D01*
X79351190Y-74191833D01*
X79494047Y-74191833D01*
X79589285Y-74239452D01*
X79636904Y-74287071D01*
X79684523Y-74382309D01*
X79684523Y-74620404D01*
X79636904Y-74715642D01*
X79589285Y-74763261D01*
X79494047Y-74810880D01*
X79208333Y-74810880D01*
X79113095Y-74763261D01*
X79065476Y-74715642D01*
X80589285Y-73810880D02*
X80113095Y-73810880D01*
X80065476Y-74287071D01*
X80113095Y-74239452D01*
X80208333Y-74191833D01*
X80446428Y-74191833D01*
X80541666Y-74239452D01*
X80589285Y-74287071D01*
X80636904Y-74382309D01*
X80636904Y-74620404D01*
X80589285Y-74715642D01*
X80541666Y-74763261D01*
X80446428Y-74810880D01*
X80208333Y-74810880D01*
X80113095Y-74763261D01*
X80065476Y-74715642D01*
X364704464Y-112910880D02*
X364704464Y-111910880D01*
X365275892Y-112910880D02*
X364847321Y-112339452D01*
X365275892Y-111910880D02*
X364704464Y-112482309D01*
X365609226Y-111910880D02*
X366275892Y-111910880D01*
X365847321Y-112910880D01*
X367085416Y-111910880D02*
X366894940Y-111910880D01*
X366799702Y-111958500D01*
X366752083Y-112006119D01*
X366656845Y-112148976D01*
X366609226Y-112339452D01*
X366609226Y-112720404D01*
X366656845Y-112815642D01*
X366704464Y-112863261D01*
X366799702Y-112910880D01*
X366990178Y-112910880D01*
X367085416Y-112863261D01*
X367133035Y-112815642D01*
X367180654Y-112720404D01*
X367180654Y-112482309D01*
X367133035Y-112387071D01*
X367085416Y-112339452D01*
X366990178Y-112291833D01*
X366799702Y-112291833D01*
X366704464Y-112339452D01*
X366656845Y-112387071D01*
X366609226Y-112482309D01*
X61491964Y-93860880D02*
X61491964Y-92860880D01*
X62063392Y-93860880D02*
X61634821Y-93289452D01*
X62063392Y-92860880D02*
X61491964Y-93432309D01*
X62968154Y-92860880D02*
X62491964Y-92860880D01*
X62444345Y-93337071D01*
X62491964Y-93289452D01*
X62587202Y-93241833D01*
X62825297Y-93241833D01*
X62920535Y-93289452D01*
X62968154Y-93337071D01*
X63015773Y-93432309D01*
X63015773Y-93670404D01*
X62968154Y-93765642D01*
X62920535Y-93813261D01*
X62825297Y-93860880D01*
X62587202Y-93860880D01*
X62491964Y-93813261D01*
X62444345Y-93765642D01*
X63968154Y-93860880D02*
X63396726Y-93860880D01*
X63682440Y-93860880D02*
X63682440Y-92860880D01*
X63587202Y-93003738D01*
X63491964Y-93098976D01*
X63396726Y-93146595D01*
X313904464Y-74810880D02*
X313904464Y-73810880D01*
X314475892Y-74810880D02*
X314047321Y-74239452D01*
X314475892Y-73810880D02*
X313904464Y-74382309D01*
X315333035Y-74144214D02*
X315333035Y-74810880D01*
X315094940Y-73763261D02*
X314856845Y-74477547D01*
X315475892Y-74477547D01*
X315761607Y-73810880D02*
X316428273Y-73810880D01*
X315999702Y-74810880D01*
X263898214Y-29090880D02*
X263898214Y-28090880D01*
X264469642Y-29090880D02*
X264041071Y-28519452D01*
X264469642Y-28090880D02*
X263898214Y-28662309D01*
X265422023Y-29090880D02*
X264850595Y-29090880D01*
X265136309Y-29090880D02*
X265136309Y-28090880D01*
X265041071Y-28233738D01*
X264945833Y-28328976D01*
X264850595Y-28376595D01*
X266041071Y-28090880D02*
X266136309Y-28090880D01*
X266231547Y-28138500D01*
X266279166Y-28186119D01*
X266326785Y-28281357D01*
X266374404Y-28471833D01*
X266374404Y-28709928D01*
X266326785Y-28900404D01*
X266279166Y-28995642D01*
X266231547Y-29043261D01*
X266136309Y-29090880D01*
X266041071Y-29090880D01*
X265945833Y-29043261D01*
X265898214Y-28995642D01*
X265850595Y-28900404D01*
X265802976Y-28709928D01*
X265802976Y-28471833D01*
X265850595Y-28281357D01*
X265898214Y-28186119D01*
X265945833Y-28138500D01*
X266041071Y-28090880D01*
X54824404Y-29090880D02*
X54824404Y-28090880D01*
X55395833Y-29090880D02*
X54967261Y-28519452D01*
X55395833Y-28090880D02*
X54824404Y-28662309D01*
X56348214Y-29090880D02*
X55776785Y-29090880D01*
X56062500Y-29090880D02*
X56062500Y-28090880D01*
X55967261Y-28233738D01*
X55872023Y-28328976D01*
X55776785Y-28376595D01*
X364704464Y-74810880D02*
X364704464Y-73810880D01*
X365275892Y-74810880D02*
X364847321Y-74239452D01*
X365275892Y-73810880D02*
X364704464Y-74382309D01*
X366133035Y-74144214D02*
X366133035Y-74810880D01*
X365894940Y-73763261D02*
X365656845Y-74477547D01*
X366275892Y-74477547D01*
X366704464Y-74810880D02*
X366894940Y-74810880D01*
X366990178Y-74763261D01*
X367037797Y-74715642D01*
X367133035Y-74572785D01*
X367180654Y-74382309D01*
X367180654Y-74001357D01*
X367133035Y-73906119D01*
X367085416Y-73858500D01*
X366990178Y-73810880D01*
X366799702Y-73810880D01*
X366704464Y-73858500D01*
X366656845Y-73906119D01*
X366609226Y-74001357D01*
X366609226Y-74239452D01*
X366656845Y-74334690D01*
X366704464Y-74382309D01*
X366799702Y-74429928D01*
X366990178Y-74429928D01*
X367085416Y-74382309D01*
X367133035Y-74334690D01*
X367180654Y-74239452D01*
X175811014Y-131945680D02*
X175811014Y-130945680D01*
X176382442Y-131945680D02*
X175953871Y-131374252D01*
X176382442Y-130945680D02*
X175811014Y-131517109D01*
X176953871Y-131374252D02*
X176858633Y-131326633D01*
X176811014Y-131279014D01*
X176763395Y-131183776D01*
X176763395Y-131136157D01*
X176811014Y-131040919D01*
X176858633Y-130993300D01*
X176953871Y-130945680D01*
X177144347Y-130945680D01*
X177239585Y-130993300D01*
X177287204Y-131040919D01*
X177334823Y-131136157D01*
X177334823Y-131183776D01*
X177287204Y-131279014D01*
X177239585Y-131326633D01*
X177144347Y-131374252D01*
X176953871Y-131374252D01*
X176858633Y-131421871D01*
X176811014Y-131469490D01*
X176763395Y-131564728D01*
X176763395Y-131755204D01*
X176811014Y-131850442D01*
X176858633Y-131898061D01*
X176953871Y-131945680D01*
X177144347Y-131945680D01*
X177239585Y-131898061D01*
X177287204Y-131850442D01*
X177334823Y-131755204D01*
X177334823Y-131564728D01*
X177287204Y-131469490D01*
X177239585Y-131421871D01*
X177144347Y-131374252D01*
X177953871Y-130945680D02*
X178049109Y-130945680D01*
X178144347Y-130993300D01*
X178191966Y-131040919D01*
X178239585Y-131136157D01*
X178287204Y-131326633D01*
X178287204Y-131564728D01*
X178239585Y-131755204D01*
X178191966Y-131850442D01*
X178144347Y-131898061D01*
X178049109Y-131945680D01*
X177953871Y-131945680D01*
X177858633Y-131898061D01*
X177811014Y-131850442D01*
X177763395Y-131755204D01*
X177715776Y-131564728D01*
X177715776Y-131326633D01*
X177763395Y-131136157D01*
X177811014Y-131040919D01*
X177858633Y-130993300D01*
X177953871Y-130945680D01*
X173410714Y-74810880D02*
X173410714Y-73810880D01*
X173982142Y-74810880D02*
X173553571Y-74239452D01*
X173982142Y-73810880D02*
X173410714Y-74382309D01*
X174839285Y-74144214D02*
X174839285Y-74810880D01*
X174601190Y-73763261D02*
X174363095Y-74477547D01*
X174982142Y-74477547D01*
X175553571Y-73810880D02*
X175648809Y-73810880D01*
X175744047Y-73858500D01*
X175791666Y-73906119D01*
X175839285Y-74001357D01*
X175886904Y-74191833D01*
X175886904Y-74429928D01*
X175839285Y-74620404D01*
X175791666Y-74715642D01*
X175744047Y-74763261D01*
X175648809Y-74810880D01*
X175553571Y-74810880D01*
X175458333Y-74763261D01*
X175410714Y-74715642D01*
X175363095Y-74620404D01*
X175315476Y-74429928D01*
X175315476Y-74191833D01*
X175363095Y-74001357D01*
X175410714Y-73906119D01*
X175458333Y-73858500D01*
X175553571Y-73810880D01*
X383754464Y-74810880D02*
X383754464Y-73810880D01*
X384325892Y-74810880D02*
X383897321Y-74239452D01*
X384325892Y-73810880D02*
X383754464Y-74382309D01*
X385230654Y-73810880D02*
X384754464Y-73810880D01*
X384706845Y-74287071D01*
X384754464Y-74239452D01*
X384849702Y-74191833D01*
X385087797Y-74191833D01*
X385183035Y-74239452D01*
X385230654Y-74287071D01*
X385278273Y-74382309D01*
X385278273Y-74620404D01*
X385230654Y-74715642D01*
X385183035Y-74763261D01*
X385087797Y-74810880D01*
X384849702Y-74810880D01*
X384754464Y-74763261D01*
X384706845Y-74715642D01*
X385897321Y-73810880D02*
X385992559Y-73810880D01*
X386087797Y-73858500D01*
X386135416Y-73906119D01*
X386183035Y-74001357D01*
X386230654Y-74191833D01*
X386230654Y-74429928D01*
X386183035Y-74620404D01*
X386135416Y-74715642D01*
X386087797Y-74763261D01*
X385992559Y-74810880D01*
X385897321Y-74810880D01*
X385802083Y-74763261D01*
X385754464Y-74715642D01*
X385706845Y-74620404D01*
X385659226Y-74429928D01*
X385659226Y-74191833D01*
X385706845Y-74001357D01*
X385754464Y-73906119D01*
X385802083Y-73858500D01*
X385897321Y-73810880D01*
X211510714Y-112910880D02*
X211510714Y-111910880D01*
X212082142Y-112910880D02*
X211653571Y-112339452D01*
X212082142Y-111910880D02*
X211510714Y-112482309D01*
X212415476Y-111910880D02*
X213082142Y-111910880D01*
X212653571Y-112910880D01*
X213986904Y-112910880D02*
X213415476Y-112910880D01*
X213701190Y-112910880D02*
X213701190Y-111910880D01*
X213605952Y-112053738D01*
X213510714Y-112148976D01*
X213415476Y-112196595D01*
X187698214Y-55760880D02*
X187698214Y-54760880D01*
X188269642Y-55760880D02*
X187841071Y-55189452D01*
X188269642Y-54760880D02*
X187698214Y-55332309D01*
X188650595Y-54856119D02*
X188698214Y-54808500D01*
X188793452Y-54760880D01*
X189031547Y-54760880D01*
X189126785Y-54808500D01*
X189174404Y-54856119D01*
X189222023Y-54951357D01*
X189222023Y-55046595D01*
X189174404Y-55189452D01*
X188602976Y-55760880D01*
X189222023Y-55760880D01*
X190079166Y-55094214D02*
X190079166Y-55760880D01*
X189841071Y-54713261D02*
X189602976Y-55427547D01*
X190222023Y-55427547D01*
X345654464Y-131960880D02*
X345654464Y-130960880D01*
X346225892Y-131960880D02*
X345797321Y-131389452D01*
X346225892Y-130960880D02*
X345654464Y-131532309D01*
X346797321Y-131389452D02*
X346702083Y-131341833D01*
X346654464Y-131294214D01*
X346606845Y-131198976D01*
X346606845Y-131151357D01*
X346654464Y-131056119D01*
X346702083Y-131008500D01*
X346797321Y-130960880D01*
X346987797Y-130960880D01*
X347083035Y-131008500D01*
X347130654Y-131056119D01*
X347178273Y-131151357D01*
X347178273Y-131198976D01*
X347130654Y-131294214D01*
X347083035Y-131341833D01*
X346987797Y-131389452D01*
X346797321Y-131389452D01*
X346702083Y-131437071D01*
X346654464Y-131484690D01*
X346606845Y-131579928D01*
X346606845Y-131770404D01*
X346654464Y-131865642D01*
X346702083Y-131913261D01*
X346797321Y-131960880D01*
X346987797Y-131960880D01*
X347083035Y-131913261D01*
X347130654Y-131865642D01*
X347178273Y-131770404D01*
X347178273Y-131579928D01*
X347130654Y-131484690D01*
X347083035Y-131437071D01*
X346987797Y-131389452D01*
X348083035Y-130960880D02*
X347606845Y-130960880D01*
X347559226Y-131437071D01*
X347606845Y-131389452D01*
X347702083Y-131341833D01*
X347940178Y-131341833D01*
X348035416Y-131389452D01*
X348083035Y-131437071D01*
X348130654Y-131532309D01*
X348130654Y-131770404D01*
X348083035Y-131865642D01*
X348035416Y-131913261D01*
X347940178Y-131960880D01*
X347702083Y-131960880D01*
X347606845Y-131913261D01*
X347559226Y-131865642D01*
X206748214Y-55760880D02*
X206748214Y-54760880D01*
X207319642Y-55760880D02*
X206891071Y-55189452D01*
X207319642Y-54760880D02*
X206748214Y-55332309D01*
X207700595Y-54856119D02*
X207748214Y-54808500D01*
X207843452Y-54760880D01*
X208081547Y-54760880D01*
X208176785Y-54808500D01*
X208224404Y-54856119D01*
X208272023Y-54951357D01*
X208272023Y-55046595D01*
X208224404Y-55189452D01*
X207652976Y-55760880D01*
X208272023Y-55760880D01*
X209176785Y-54760880D02*
X208700595Y-54760880D01*
X208652976Y-55237071D01*
X208700595Y-55189452D01*
X208795833Y-55141833D01*
X209033928Y-55141833D01*
X209129166Y-55189452D01*
X209176785Y-55237071D01*
X209224404Y-55332309D01*
X209224404Y-55570404D01*
X209176785Y-55665642D01*
X209129166Y-55713261D01*
X209033928Y-55760880D01*
X208795833Y-55760880D01*
X208700595Y-55713261D01*
X208652976Y-55665642D01*
X56729464Y-74810880D02*
X56729464Y-73810880D01*
X57300892Y-74810880D02*
X56872321Y-74239452D01*
X57300892Y-73810880D02*
X56729464Y-74382309D01*
X57634226Y-73810880D02*
X58253273Y-73810880D01*
X57919940Y-74191833D01*
X58062797Y-74191833D01*
X58158035Y-74239452D01*
X58205654Y-74287071D01*
X58253273Y-74382309D01*
X58253273Y-74620404D01*
X58205654Y-74715642D01*
X58158035Y-74763261D01*
X58062797Y-74810880D01*
X57777083Y-74810880D01*
X57681845Y-74763261D01*
X57634226Y-74715642D01*
X59110416Y-74144214D02*
X59110416Y-74810880D01*
X58872321Y-73763261D02*
X58634226Y-74477547D01*
X59253273Y-74477547D01*
X216114404Y-29090880D02*
X216114404Y-28090880D01*
X216685833Y-29090880D02*
X216257261Y-28519452D01*
X216685833Y-28090880D02*
X216114404Y-28662309D01*
X217257261Y-28519452D02*
X217162023Y-28471833D01*
X217114404Y-28424214D01*
X217066785Y-28328976D01*
X217066785Y-28281357D01*
X217114404Y-28186119D01*
X217162023Y-28138500D01*
X217257261Y-28090880D01*
X217447738Y-28090880D01*
X217542976Y-28138500D01*
X217590595Y-28186119D01*
X217638214Y-28281357D01*
X217638214Y-28328976D01*
X217590595Y-28424214D01*
X217542976Y-28471833D01*
X217447738Y-28519452D01*
X217257261Y-28519452D01*
X217162023Y-28567071D01*
X217114404Y-28614690D01*
X217066785Y-28709928D01*
X217066785Y-28900404D01*
X217114404Y-28995642D01*
X217162023Y-29043261D01*
X217257261Y-29090880D01*
X217447738Y-29090880D01*
X217542976Y-29043261D01*
X217590595Y-28995642D01*
X217638214Y-28900404D01*
X217638214Y-28709928D01*
X217590595Y-28614690D01*
X217542976Y-28567071D01*
X217447738Y-28519452D01*
X247229464Y-131960880D02*
X247229464Y-130960880D01*
X247800892Y-131960880D02*
X247372321Y-131389452D01*
X247800892Y-130960880D02*
X247229464Y-131532309D01*
X248372321Y-131389452D02*
X248277083Y-131341833D01*
X248229464Y-131294214D01*
X248181845Y-131198976D01*
X248181845Y-131151357D01*
X248229464Y-131056119D01*
X248277083Y-131008500D01*
X248372321Y-130960880D01*
X248562797Y-130960880D01*
X248658035Y-131008500D01*
X248705654Y-131056119D01*
X248753273Y-131151357D01*
X248753273Y-131198976D01*
X248705654Y-131294214D01*
X248658035Y-131341833D01*
X248562797Y-131389452D01*
X248372321Y-131389452D01*
X248277083Y-131437071D01*
X248229464Y-131484690D01*
X248181845Y-131579928D01*
X248181845Y-131770404D01*
X248229464Y-131865642D01*
X248277083Y-131913261D01*
X248372321Y-131960880D01*
X248562797Y-131960880D01*
X248658035Y-131913261D01*
X248705654Y-131865642D01*
X248753273Y-131770404D01*
X248753273Y-131579928D01*
X248705654Y-131484690D01*
X248658035Y-131437071D01*
X248562797Y-131389452D01*
X249705654Y-131960880D02*
X249134226Y-131960880D01*
X249419940Y-131960880D02*
X249419940Y-130960880D01*
X249324702Y-131103738D01*
X249229464Y-131198976D01*
X249134226Y-131246595D01*
X304379464Y-112910880D02*
X304379464Y-111910880D01*
X304950892Y-112910880D02*
X304522321Y-112339452D01*
X304950892Y-111910880D02*
X304379464Y-112482309D01*
X305284226Y-111910880D02*
X305950892Y-111910880D01*
X305522321Y-112910880D01*
X306808035Y-111910880D02*
X306331845Y-111910880D01*
X306284226Y-112387071D01*
X306331845Y-112339452D01*
X306427083Y-112291833D01*
X306665178Y-112291833D01*
X306760416Y-112339452D01*
X306808035Y-112387071D01*
X306855654Y-112482309D01*
X306855654Y-112720404D01*
X306808035Y-112815642D01*
X306760416Y-112863261D01*
X306665178Y-112910880D01*
X306427083Y-112910880D01*
X306331845Y-112863261D01*
X306284226Y-112815642D01*
X263898214Y-55760880D02*
X263898214Y-54760880D01*
X264469642Y-55760880D02*
X264041071Y-55189452D01*
X264469642Y-54760880D02*
X263898214Y-55332309D01*
X264850595Y-54856119D02*
X264898214Y-54808500D01*
X264993452Y-54760880D01*
X265231547Y-54760880D01*
X265326785Y-54808500D01*
X265374404Y-54856119D01*
X265422023Y-54951357D01*
X265422023Y-55046595D01*
X265374404Y-55189452D01*
X264802976Y-55760880D01*
X265422023Y-55760880D01*
X265993452Y-55189452D02*
X265898214Y-55141833D01*
X265850595Y-55094214D01*
X265802976Y-54998976D01*
X265802976Y-54951357D01*
X265850595Y-54856119D01*
X265898214Y-54808500D01*
X265993452Y-54760880D01*
X266183928Y-54760880D01*
X266279166Y-54808500D01*
X266326785Y-54856119D01*
X266374404Y-54951357D01*
X266374404Y-54998976D01*
X266326785Y-55094214D01*
X266279166Y-55141833D01*
X266183928Y-55189452D01*
X265993452Y-55189452D01*
X265898214Y-55237071D01*
X265850595Y-55284690D01*
X265802976Y-55379928D01*
X265802976Y-55570404D01*
X265850595Y-55665642D01*
X265898214Y-55713261D01*
X265993452Y-55760880D01*
X266183928Y-55760880D01*
X266279166Y-55713261D01*
X266326785Y-55665642D01*
X266374404Y-55570404D01*
X266374404Y-55379928D01*
X266326785Y-55284690D01*
X266279166Y-55237071D01*
X266183928Y-55189452D01*
X311497814Y-55771080D02*
X311497814Y-54771080D01*
X312069242Y-55771080D02*
X311640671Y-55199652D01*
X312069242Y-54771080D02*
X311497814Y-55342509D01*
X312402576Y-54771080D02*
X313021623Y-54771080D01*
X312688290Y-55152033D01*
X312831147Y-55152033D01*
X312926385Y-55199652D01*
X312974004Y-55247271D01*
X313021623Y-55342509D01*
X313021623Y-55580604D01*
X312974004Y-55675842D01*
X312926385Y-55723461D01*
X312831147Y-55771080D01*
X312545433Y-55771080D01*
X312450195Y-55723461D01*
X312402576Y-55675842D01*
X313640671Y-54771080D02*
X313735909Y-54771080D01*
X313831147Y-54818700D01*
X313878766Y-54866319D01*
X313926385Y-54961557D01*
X313974004Y-55152033D01*
X313974004Y-55390128D01*
X313926385Y-55580604D01*
X313878766Y-55675842D01*
X313831147Y-55723461D01*
X313735909Y-55771080D01*
X313640671Y-55771080D01*
X313545433Y-55723461D01*
X313497814Y-55675842D01*
X313450195Y-55580604D01*
X313402576Y-55390128D01*
X313402576Y-55152033D01*
X313450195Y-54961557D01*
X313497814Y-54866319D01*
X313545433Y-54818700D01*
X313640671Y-54771080D01*
X383913214Y-29090880D02*
X383913214Y-28090880D01*
X384484642Y-29090880D02*
X384056071Y-28519452D01*
X384484642Y-28090880D02*
X383913214Y-28662309D01*
X385437023Y-29090880D02*
X384865595Y-29090880D01*
X385151309Y-29090880D02*
X385151309Y-28090880D01*
X385056071Y-28233738D01*
X384960833Y-28328976D01*
X384865595Y-28376595D01*
X386294166Y-28090880D02*
X386103690Y-28090880D01*
X386008452Y-28138500D01*
X385960833Y-28186119D01*
X385865595Y-28328976D01*
X385817976Y-28519452D01*
X385817976Y-28900404D01*
X385865595Y-28995642D01*
X385913214Y-29043261D01*
X386008452Y-29090880D01*
X386198928Y-29090880D01*
X386294166Y-29043261D01*
X386341785Y-28995642D01*
X386389404Y-28900404D01*
X386389404Y-28662309D01*
X386341785Y-28567071D01*
X386294166Y-28519452D01*
X386198928Y-28471833D01*
X386008452Y-28471833D01*
X385913214Y-28519452D01*
X385865595Y-28567071D01*
X385817976Y-28662309D01*
X54348214Y-55760880D02*
X54348214Y-54760880D01*
X54919642Y-55760880D02*
X54491071Y-55189452D01*
X54919642Y-54760880D02*
X54348214Y-55332309D01*
X55872023Y-55760880D02*
X55300595Y-55760880D01*
X55586309Y-55760880D02*
X55586309Y-54760880D01*
X55491071Y-54903738D01*
X55395833Y-54998976D01*
X55300595Y-55046595D01*
X56205357Y-54760880D02*
X56872023Y-54760880D01*
X56443452Y-55760880D01*
X271038214Y-131970880D02*
X271038214Y-130970880D01*
X271609642Y-131970880D02*
X271181071Y-131399452D01*
X271609642Y-130970880D02*
X271038214Y-131542309D01*
X272181071Y-131399452D02*
X272085833Y-131351833D01*
X272038214Y-131304214D01*
X271990595Y-131208976D01*
X271990595Y-131161357D01*
X272038214Y-131066119D01*
X272085833Y-131018500D01*
X272181071Y-130970880D01*
X272371547Y-130970880D01*
X272466785Y-131018500D01*
X272514404Y-131066119D01*
X272562023Y-131161357D01*
X272562023Y-131208976D01*
X272514404Y-131304214D01*
X272466785Y-131351833D01*
X272371547Y-131399452D01*
X272181071Y-131399452D01*
X272085833Y-131447071D01*
X272038214Y-131494690D01*
X271990595Y-131589928D01*
X271990595Y-131780404D01*
X272038214Y-131875642D01*
X272085833Y-131923261D01*
X272181071Y-131970880D01*
X272371547Y-131970880D01*
X272466785Y-131923261D01*
X272514404Y-131875642D01*
X272562023Y-131780404D01*
X272562023Y-131589928D01*
X272514404Y-131494690D01*
X272466785Y-131447071D01*
X272371547Y-131399452D01*
X272942976Y-131066119D02*
X272990595Y-131018500D01*
X273085833Y-130970880D01*
X273323928Y-130970880D01*
X273419166Y-131018500D01*
X273466785Y-131066119D01*
X273514404Y-131161357D01*
X273514404Y-131256595D01*
X273466785Y-131399452D01*
X272895357Y-131970880D01*
X273514404Y-131970880D01*
X345654464Y-55760880D02*
X345654464Y-54760880D01*
X346225892Y-55760880D02*
X345797321Y-55189452D01*
X346225892Y-54760880D02*
X345654464Y-55332309D01*
X346559226Y-54760880D02*
X347178273Y-54760880D01*
X346844940Y-55141833D01*
X346987797Y-55141833D01*
X347083035Y-55189452D01*
X347130654Y-55237071D01*
X347178273Y-55332309D01*
X347178273Y-55570404D01*
X347130654Y-55665642D01*
X347083035Y-55713261D01*
X346987797Y-55760880D01*
X346702083Y-55760880D01*
X346606845Y-55713261D01*
X346559226Y-55665642D01*
X348130654Y-55760880D02*
X347559226Y-55760880D01*
X347844940Y-55760880D02*
X347844940Y-54760880D01*
X347749702Y-54903738D01*
X347654464Y-54998976D01*
X347559226Y-55046595D01*
X249610714Y-112910880D02*
X249610714Y-111910880D01*
X250182142Y-112910880D02*
X249753571Y-112339452D01*
X250182142Y-111910880D02*
X249610714Y-112482309D01*
X250515476Y-111910880D02*
X251182142Y-111910880D01*
X250753571Y-112910880D01*
X251467857Y-111910880D02*
X252086904Y-111910880D01*
X251753571Y-112291833D01*
X251896428Y-112291833D01*
X251991666Y-112339452D01*
X252039285Y-112387071D01*
X252086904Y-112482309D01*
X252086904Y-112720404D01*
X252039285Y-112815642D01*
X251991666Y-112863261D01*
X251896428Y-112910880D01*
X251610714Y-112910880D01*
X251515476Y-112863261D01*
X251467857Y-112815642D01*
X240085714Y-93860880D02*
X240085714Y-92860880D01*
X240657142Y-93860880D02*
X240228571Y-93289452D01*
X240657142Y-92860880D02*
X240085714Y-93432309D01*
X241514285Y-92860880D02*
X241323809Y-92860880D01*
X241228571Y-92908500D01*
X241180952Y-92956119D01*
X241085714Y-93098976D01*
X241038095Y-93289452D01*
X241038095Y-93670404D01*
X241085714Y-93765642D01*
X241133333Y-93813261D01*
X241228571Y-93860880D01*
X241419047Y-93860880D01*
X241514285Y-93813261D01*
X241561904Y-93765642D01*
X241609523Y-93670404D01*
X241609523Y-93432309D01*
X241561904Y-93337071D01*
X241514285Y-93289452D01*
X241419047Y-93241833D01*
X241228571Y-93241833D01*
X241133333Y-93289452D01*
X241085714Y-93337071D01*
X241038095Y-93432309D01*
X242228571Y-92860880D02*
X242323809Y-92860880D01*
X242419047Y-92908500D01*
X242466666Y-92956119D01*
X242514285Y-93051357D01*
X242561904Y-93241833D01*
X242561904Y-93479928D01*
X242514285Y-93670404D01*
X242466666Y-93765642D01*
X242419047Y-93813261D01*
X242323809Y-93860880D01*
X242228571Y-93860880D01*
X242133333Y-93813261D01*
X242085714Y-93765642D01*
X242038095Y-93670404D01*
X241990476Y-93479928D01*
X241990476Y-93241833D01*
X242038095Y-93051357D01*
X242085714Y-92956119D01*
X242133333Y-92908500D01*
X242228571Y-92860880D01*
X282948214Y-55760880D02*
X282948214Y-54760880D01*
X283519642Y-55760880D02*
X283091071Y-55189452D01*
X283519642Y-54760880D02*
X282948214Y-55332309D01*
X283900595Y-54856119D02*
X283948214Y-54808500D01*
X284043452Y-54760880D01*
X284281547Y-54760880D01*
X284376785Y-54808500D01*
X284424404Y-54856119D01*
X284472023Y-54951357D01*
X284472023Y-55046595D01*
X284424404Y-55189452D01*
X283852976Y-55760880D01*
X284472023Y-55760880D01*
X284948214Y-55760880D02*
X285138690Y-55760880D01*
X285233928Y-55713261D01*
X285281547Y-55665642D01*
X285376785Y-55522785D01*
X285424404Y-55332309D01*
X285424404Y-54951357D01*
X285376785Y-54856119D01*
X285329166Y-54808500D01*
X285233928Y-54760880D01*
X285043452Y-54760880D01*
X284948214Y-54808500D01*
X284900595Y-54856119D01*
X284852976Y-54951357D01*
X284852976Y-55189452D01*
X284900595Y-55284690D01*
X284948214Y-55332309D01*
X285043452Y-55379928D01*
X285233928Y-55379928D01*
X285329166Y-55332309D01*
X285376785Y-55284690D01*
X285424404Y-55189452D01*
X182935714Y-93860880D02*
X182935714Y-92860880D01*
X183507142Y-93860880D02*
X183078571Y-93289452D01*
X183507142Y-92860880D02*
X182935714Y-93432309D01*
X184411904Y-92860880D02*
X183935714Y-92860880D01*
X183888095Y-93337071D01*
X183935714Y-93289452D01*
X184030952Y-93241833D01*
X184269047Y-93241833D01*
X184364285Y-93289452D01*
X184411904Y-93337071D01*
X184459523Y-93432309D01*
X184459523Y-93670404D01*
X184411904Y-93765642D01*
X184364285Y-93813261D01*
X184269047Y-93860880D01*
X184030952Y-93860880D01*
X183935714Y-93813261D01*
X183888095Y-93765642D01*
X184792857Y-92860880D02*
X185459523Y-92860880D01*
X185030952Y-93860880D01*
X178014404Y-29090880D02*
X178014404Y-28090880D01*
X178585833Y-29090880D02*
X178157261Y-28519452D01*
X178585833Y-28090880D02*
X178014404Y-28662309D01*
X179442976Y-28090880D02*
X179252500Y-28090880D01*
X179157261Y-28138500D01*
X179109642Y-28186119D01*
X179014404Y-28328976D01*
X178966785Y-28519452D01*
X178966785Y-28900404D01*
X179014404Y-28995642D01*
X179062023Y-29043261D01*
X179157261Y-29090880D01*
X179347738Y-29090880D01*
X179442976Y-29043261D01*
X179490595Y-28995642D01*
X179538214Y-28900404D01*
X179538214Y-28662309D01*
X179490595Y-28567071D01*
X179442976Y-28519452D01*
X179347738Y-28471833D01*
X179157261Y-28471833D01*
X179062023Y-28519452D01*
X179014404Y-28567071D01*
X178966785Y-28662309D01*
X309141964Y-93860880D02*
X309141964Y-92860880D01*
X309713392Y-93860880D02*
X309284821Y-93289452D01*
X309713392Y-92860880D02*
X309141964Y-93432309D01*
X310570535Y-92860880D02*
X310380059Y-92860880D01*
X310284821Y-92908500D01*
X310237202Y-92956119D01*
X310141964Y-93098976D01*
X310094345Y-93289452D01*
X310094345Y-93670404D01*
X310141964Y-93765642D01*
X310189583Y-93813261D01*
X310284821Y-93860880D01*
X310475297Y-93860880D01*
X310570535Y-93813261D01*
X310618154Y-93765642D01*
X310665773Y-93670404D01*
X310665773Y-93432309D01*
X310618154Y-93337071D01*
X310570535Y-93289452D01*
X310475297Y-93241833D01*
X310284821Y-93241833D01*
X310189583Y-93289452D01*
X310141964Y-93337071D01*
X310094345Y-93432309D01*
X310999107Y-92860880D02*
X311618154Y-92860880D01*
X311284821Y-93241833D01*
X311427678Y-93241833D01*
X311522916Y-93289452D01*
X311570535Y-93337071D01*
X311618154Y-93432309D01*
X311618154Y-93670404D01*
X311570535Y-93765642D01*
X311522916Y-93813261D01*
X311427678Y-93860880D01*
X311141964Y-93860880D01*
X311046726Y-93813261D01*
X310999107Y-93765642D01*
X97210714Y-74810880D02*
X97210714Y-73810880D01*
X97782142Y-74810880D02*
X97353571Y-74239452D01*
X97782142Y-73810880D02*
X97210714Y-74382309D01*
X98115476Y-73810880D02*
X98734523Y-73810880D01*
X98401190Y-74191833D01*
X98544047Y-74191833D01*
X98639285Y-74239452D01*
X98686904Y-74287071D01*
X98734523Y-74382309D01*
X98734523Y-74620404D01*
X98686904Y-74715642D01*
X98639285Y-74763261D01*
X98544047Y-74810880D01*
X98258333Y-74810880D01*
X98163095Y-74763261D01*
X98115476Y-74715642D01*
X99591666Y-73810880D02*
X99401190Y-73810880D01*
X99305952Y-73858500D01*
X99258333Y-73906119D01*
X99163095Y-74048976D01*
X99115476Y-74239452D01*
X99115476Y-74620404D01*
X99163095Y-74715642D01*
X99210714Y-74763261D01*
X99305952Y-74810880D01*
X99496428Y-74810880D01*
X99591666Y-74763261D01*
X99639285Y-74715642D01*
X99686904Y-74620404D01*
X99686904Y-74382309D01*
X99639285Y-74287071D01*
X99591666Y-74239452D01*
X99496428Y-74191833D01*
X99305952Y-74191833D01*
X99210714Y-74239452D01*
X99163095Y-74287071D01*
X99115476Y-74382309D01*
D11*
X143510000Y-75247500D02*
X143510000Y-89217500D01*
X129540000Y-89217500D02*
X129540000Y-75247500D01*
X143510000Y-89217500D02*
X129540000Y-89217500D01*
X129540000Y-75247500D02*
X143510000Y-75247500D01*
X233997500Y-56197500D02*
X233997500Y-70167500D01*
X233997500Y-70167500D02*
X220027500Y-70167500D01*
X220027500Y-56197500D02*
X233997500Y-56197500D01*
X220027500Y-70167500D02*
X220027500Y-56197500D01*
X310197500Y-43497500D02*
X296227500Y-43497500D01*
X310197500Y-29527500D02*
X310197500Y-43497500D01*
X296227500Y-43497500D02*
X296227500Y-29527500D01*
X296227500Y-29527500D02*
X310197500Y-29527500D01*
X120015000Y-108267500D02*
X120015000Y-94297500D01*
X120015000Y-94297500D02*
X133985000Y-94297500D01*
X133985000Y-108267500D02*
X120015000Y-108267500D01*
X133985000Y-94297500D02*
X133985000Y-108267500D01*
X372903750Y-56197500D02*
X372903750Y-70167500D01*
X358933750Y-56197500D02*
X372903750Y-56197500D01*
X358933750Y-70167500D02*
X358933750Y-56197500D01*
X372903750Y-70167500D02*
X358933750Y-70167500D01*
X186690000Y-75247500D02*
X200660000Y-75247500D01*
X200660000Y-75247500D02*
X200660000Y-89217500D01*
X186690000Y-89217500D02*
X186690000Y-75247500D01*
X200660000Y-89217500D02*
X186690000Y-89217500D01*
X124777500Y-29527500D02*
X138747500Y-29527500D01*
X124777500Y-43497500D02*
X124777500Y-29527500D01*
X138747500Y-43497500D02*
X124777500Y-43497500D01*
X138747500Y-29527500D02*
X138747500Y-43497500D01*
X110490000Y-127317500D02*
X110490000Y-113347500D01*
X124460000Y-127317500D02*
X110490000Y-127317500D01*
X124460000Y-113347500D02*
X124460000Y-127317500D01*
X110490000Y-113347500D02*
X124460000Y-113347500D01*
X276860000Y-127317500D02*
X262890000Y-127317500D01*
X262890000Y-127317500D02*
X262890000Y-113347500D01*
X276860000Y-113347500D02*
X276860000Y-127317500D01*
X262890000Y-113347500D02*
X276860000Y-113347500D01*
X224790000Y-75247500D02*
X238760000Y-75247500D01*
X238760000Y-89217500D02*
X224790000Y-89217500D01*
X238760000Y-75247500D02*
X238760000Y-89217500D01*
X224790000Y-89217500D02*
X224790000Y-75247500D01*
X326866250Y-146367500D02*
X312896250Y-146367500D01*
X312896250Y-132397500D02*
X326866250Y-132397500D01*
X326866250Y-132397500D02*
X326866250Y-146367500D01*
X312896250Y-146367500D02*
X312896250Y-132397500D01*
X354012500Y-43497500D02*
X340042500Y-43497500D01*
X340042500Y-29527500D02*
X354012500Y-29527500D01*
X354012500Y-29527500D02*
X354012500Y-43497500D01*
X340042500Y-43497500D02*
X340042500Y-29527500D01*
X157797500Y-29527500D02*
X157797500Y-43497500D01*
X157797500Y-43497500D02*
X143827500Y-43497500D01*
X143827500Y-43497500D02*
X143827500Y-29527500D01*
X143827500Y-29527500D02*
X157797500Y-29527500D01*
X253047500Y-56197500D02*
X253047500Y-70167500D01*
X253047500Y-70167500D02*
X239077500Y-70167500D01*
X239077500Y-70167500D02*
X239077500Y-56197500D01*
X239077500Y-56197500D02*
X253047500Y-56197500D01*
X119697500Y-29527500D02*
X119697500Y-43497500D01*
X105727500Y-43497500D02*
X105727500Y-29527500D01*
X119697500Y-43497500D02*
X105727500Y-43497500D01*
X105727500Y-29527500D02*
X119697500Y-29527500D01*
X372903750Y-132397500D02*
X372903750Y-146367500D01*
X358933750Y-146367500D02*
X358933750Y-132397500D01*
X358933750Y-132397500D02*
X372903750Y-132397500D01*
X372903750Y-146367500D02*
X358933750Y-146367500D01*
X162560000Y-75247500D02*
X162560000Y-89217500D01*
X148590000Y-75247500D02*
X162560000Y-75247500D01*
X162560000Y-89217500D02*
X148590000Y-89217500D01*
X148590000Y-89217500D02*
X148590000Y-75247500D01*
X242887500Y-29527500D02*
X242887500Y-43497500D01*
X242887500Y-43497500D02*
X228917500Y-43497500D01*
X228917500Y-43497500D02*
X228917500Y-29527500D01*
X228917500Y-29527500D02*
X242887500Y-29527500D01*
X204787500Y-43497500D02*
X190817500Y-43497500D01*
X190817500Y-43497500D02*
X190817500Y-29527500D01*
X190817500Y-29527500D02*
X204787500Y-29527500D01*
X204787500Y-29527500D02*
X204787500Y-43497500D01*
X303053750Y-146367500D02*
X289083750Y-146367500D01*
X289083750Y-146367500D02*
X289083750Y-132397500D01*
X289083750Y-132397500D02*
X303053750Y-132397500D01*
X303053750Y-132397500D02*
X303053750Y-146367500D01*
X74771250Y-146367500D02*
X74771250Y-132397500D01*
X88741250Y-132397500D02*
X88741250Y-146367500D01*
X88741250Y-146367500D02*
X74771250Y-146367500D01*
X74771250Y-132397500D02*
X88741250Y-132397500D01*
X124777500Y-70167500D02*
X124777500Y-56197500D01*
X138747500Y-70167500D02*
X124777500Y-70167500D01*
X138747500Y-56197500D02*
X138747500Y-70167500D01*
X124777500Y-56197500D02*
X138747500Y-56197500D01*
X119697500Y-70167500D02*
X105727500Y-70167500D01*
X105727500Y-56197500D02*
X119697500Y-56197500D01*
X119697500Y-56197500D02*
X119697500Y-70167500D01*
X105727500Y-70167500D02*
X105727500Y-56197500D01*
X286385000Y-108267500D02*
X272415000Y-108267500D01*
X272415000Y-108267500D02*
X272415000Y-94297500D01*
X286385000Y-94297500D02*
X286385000Y-108267500D01*
X272415000Y-94297500D02*
X286385000Y-94297500D01*
X257810000Y-89217500D02*
X243840000Y-89217500D01*
X243840000Y-89217500D02*
X243840000Y-75247500D01*
X257810000Y-75247500D02*
X257810000Y-89217500D01*
X243840000Y-75247500D02*
X257810000Y-75247500D01*
X98583750Y-146367500D02*
X98583750Y-132397500D01*
X112553750Y-132397500D02*
X112553750Y-146367500D01*
X112553750Y-146367500D02*
X98583750Y-146367500D01*
X98583750Y-132397500D02*
X112553750Y-132397500D01*
X267335000Y-108267500D02*
X253365000Y-108267500D01*
X253365000Y-108267500D02*
X253365000Y-94297500D01*
X253365000Y-94297500D02*
X267335000Y-94297500D01*
X267335000Y-94297500D02*
X267335000Y-108267500D01*
X124460000Y-89217500D02*
X110490000Y-89217500D01*
X110490000Y-89217500D02*
X110490000Y-75247500D01*
X110490000Y-75247500D02*
X124460000Y-75247500D01*
X124460000Y-75247500D02*
X124460000Y-89217500D01*
X377983750Y-146367500D02*
X377983750Y-132397500D01*
X377983750Y-132397500D02*
X391953750Y-132397500D01*
X391953750Y-132397500D02*
X391953750Y-146367500D01*
X391953750Y-146367500D02*
X377983750Y-146367500D01*
X277177500Y-43497500D02*
X277177500Y-29527500D01*
X291147500Y-43497500D02*
X277177500Y-43497500D01*
X291147500Y-29527500D02*
X291147500Y-43497500D01*
X277177500Y-29527500D02*
X291147500Y-29527500D01*
X153035000Y-94297500D02*
X153035000Y-108267500D01*
X139065000Y-94297500D02*
X153035000Y-94297500D01*
X139065000Y-108267500D02*
X139065000Y-94297500D01*
X153035000Y-108267500D02*
X139065000Y-108267500D01*
X95885000Y-108267500D02*
X81915000Y-108267500D01*
X95885000Y-94297500D02*
X95885000Y-108267500D01*
X81915000Y-94297500D02*
X95885000Y-94297500D01*
X81915000Y-108267500D02*
X81915000Y-94297500D01*
X114935000Y-108267500D02*
X100965000Y-108267500D01*
X114935000Y-94297500D02*
X114935000Y-108267500D01*
X100965000Y-94297500D02*
X114935000Y-94297500D01*
X100965000Y-108267500D02*
X100965000Y-94297500D01*
X129540000Y-127317500D02*
X129540000Y-113347500D01*
X129540000Y-113347500D02*
X143510000Y-113347500D01*
X143510000Y-127317500D02*
X129540000Y-127317500D01*
X143510000Y-113347500D02*
X143510000Y-127317500D01*
X339883750Y-89217500D02*
X339883750Y-75247500D01*
X339883750Y-75247500D02*
X353853750Y-75247500D01*
X353853750Y-75247500D02*
X353853750Y-89217500D01*
X353853750Y-89217500D02*
X339883750Y-89217500D01*
X224790000Y-127317500D02*
X224790000Y-113347500D01*
X238760000Y-127317500D02*
X224790000Y-127317500D01*
X224790000Y-113347500D02*
X238760000Y-113347500D01*
X238760000Y-113347500D02*
X238760000Y-127317500D01*
X295910000Y-75247500D02*
X295910000Y-89217500D01*
X295910000Y-89217500D02*
X281940000Y-89217500D01*
X281940000Y-89217500D02*
X281940000Y-75247500D01*
X281940000Y-75247500D02*
X295910000Y-75247500D01*
X373062500Y-29527500D02*
X373062500Y-43497500D01*
X359092500Y-29527500D02*
X373062500Y-29527500D01*
X359092500Y-43497500D02*
X359092500Y-29527500D01*
X373062500Y-43497500D02*
X359092500Y-43497500D01*
X329247500Y-43497500D02*
X315277500Y-43497500D01*
X329247500Y-29527500D02*
X329247500Y-43497500D01*
X315277500Y-43497500D02*
X315277500Y-29527500D01*
X315277500Y-29527500D02*
X329247500Y-29527500D01*
X86677500Y-43497500D02*
X86677500Y-29527500D01*
X86677500Y-29527500D02*
X100647500Y-29527500D01*
X100647500Y-29527500D02*
X100647500Y-43497500D01*
X100647500Y-43497500D02*
X86677500Y-43497500D01*
X158115000Y-94297500D02*
X172085000Y-94297500D01*
X172085000Y-108267500D02*
X158115000Y-108267500D01*
X158115000Y-108267500D02*
X158115000Y-94297500D01*
X172085000Y-94297500D02*
X172085000Y-108267500D01*
X200660000Y-127317500D02*
X186690000Y-127317500D01*
X200660000Y-113347500D02*
X200660000Y-127317500D01*
X186690000Y-127317500D02*
X186690000Y-113347500D01*
X186690000Y-113347500D02*
X200660000Y-113347500D01*
X196215000Y-94297500D02*
X210185000Y-94297500D01*
X210185000Y-108267500D02*
X196215000Y-108267500D01*
X196215000Y-108267500D02*
X196215000Y-94297500D01*
X210185000Y-94297500D02*
X210185000Y-108267500D01*
X162877500Y-70167500D02*
X162877500Y-56197500D01*
X176847500Y-70167500D02*
X162877500Y-70167500D01*
X162877500Y-56197500D02*
X176847500Y-56197500D01*
X176847500Y-56197500D02*
X176847500Y-70167500D01*
X205740000Y-75247500D02*
X219710000Y-75247500D01*
X219710000Y-89217500D02*
X205740000Y-89217500D01*
X205740000Y-89217500D02*
X205740000Y-75247500D01*
X219710000Y-75247500D02*
X219710000Y-89217500D01*
X391953750Y-70167500D02*
X377983750Y-70167500D01*
X391953750Y-56197500D02*
X391953750Y-70167500D01*
X377983750Y-56197500D02*
X391953750Y-56197500D01*
X377983750Y-70167500D02*
X377983750Y-56197500D01*
X143827500Y-70167500D02*
X143827500Y-56197500D01*
X143827500Y-56197500D02*
X157797500Y-56197500D01*
X157797500Y-70167500D02*
X143827500Y-70167500D01*
X157797500Y-56197500D02*
X157797500Y-70167500D01*
X276860000Y-89217500D02*
X262890000Y-89217500D01*
X262890000Y-75247500D02*
X276860000Y-75247500D01*
X262890000Y-89217500D02*
X262890000Y-75247500D01*
X276860000Y-75247500D02*
X276860000Y-89217500D01*
X167640000Y-127317500D02*
X167640000Y-113347500D01*
X167640000Y-113347500D02*
X181610000Y-113347500D01*
X181610000Y-113347500D02*
X181610000Y-127317500D01*
X181610000Y-127317500D02*
X167640000Y-127317500D01*
X74457500Y-127337500D02*
X60487500Y-127337500D01*
X74457500Y-113367500D02*
X74457500Y-127337500D01*
X60487500Y-127337500D02*
X60487500Y-113367500D01*
X60487500Y-113367500D02*
X74457500Y-113367500D01*
X86677500Y-70167500D02*
X86677500Y-56197500D01*
X86677500Y-56197500D02*
X100647500Y-56197500D01*
X100647500Y-56197500D02*
X100647500Y-70167500D01*
X100647500Y-70167500D02*
X86677500Y-70167500D01*
X162560000Y-127317500D02*
X148590000Y-127317500D01*
X148590000Y-127317500D02*
X148590000Y-113347500D01*
X162560000Y-113347500D02*
X162560000Y-127317500D01*
X148590000Y-113347500D02*
X162560000Y-113347500D01*
X67627500Y-70167500D02*
X67627500Y-56197500D01*
X67627500Y-56197500D02*
X81597500Y-56197500D01*
X81597500Y-56197500D02*
X81597500Y-70167500D01*
X81597500Y-70167500D02*
X67627500Y-70167500D01*
X105410000Y-127317500D02*
X91440000Y-127317500D01*
X91440000Y-127317500D02*
X91440000Y-113347500D01*
X105410000Y-113347500D02*
X105410000Y-127317500D01*
X91440000Y-113347500D02*
X105410000Y-113347500D01*
X215265000Y-108267500D02*
X215265000Y-94297500D01*
X229235000Y-94297500D02*
X229235000Y-108267500D01*
X229235000Y-108267500D02*
X215265000Y-108267500D01*
X215265000Y-94297500D02*
X229235000Y-94297500D01*
X64928750Y-132397500D02*
X64928750Y-146367500D01*
X50958750Y-146367500D02*
X50958750Y-132397500D01*
X64928750Y-146367500D02*
X50958750Y-146367500D01*
X50958750Y-132397500D02*
X64928750Y-132397500D01*
X86360000Y-89217500D02*
X72390000Y-89217500D01*
X72390000Y-75247500D02*
X86360000Y-75247500D01*
X86360000Y-75247500D02*
X86360000Y-89217500D01*
X72390000Y-89217500D02*
X72390000Y-75247500D01*
X358933750Y-113347500D02*
X372903750Y-113347500D01*
X372903750Y-127317500D02*
X358933750Y-127317500D01*
X358933750Y-127317500D02*
X358933750Y-113347500D01*
X372903750Y-113347500D02*
X372903750Y-127317500D01*
X55721250Y-94297500D02*
X69691250Y-94297500D01*
X69691250Y-94297500D02*
X69691250Y-108267500D01*
X55721250Y-108267500D02*
X55721250Y-94297500D01*
X69691250Y-108267500D02*
X55721250Y-108267500D01*
X322103750Y-89217500D02*
X308133750Y-89217500D01*
X322103750Y-75247500D02*
X322103750Y-89217500D01*
X308133750Y-89217500D02*
X308133750Y-75247500D01*
X308133750Y-75247500D02*
X322103750Y-75247500D01*
X258127500Y-29527500D02*
X272097500Y-29527500D01*
X258127500Y-43497500D02*
X258127500Y-29527500D01*
X272097500Y-29527500D02*
X272097500Y-43497500D01*
X272097500Y-43497500D02*
X258127500Y-43497500D01*
X62547500Y-43497500D02*
X48577500Y-43497500D01*
X62547500Y-29527500D02*
X62547500Y-43497500D01*
X48577500Y-29527500D02*
X62547500Y-29527500D01*
X48577500Y-43497500D02*
X48577500Y-29527500D01*
X372903750Y-89217500D02*
X358933750Y-89217500D01*
X358933750Y-89217500D02*
X358933750Y-75247500D01*
X358933750Y-75247500D02*
X372903750Y-75247500D01*
X372903750Y-75247500D02*
X372903750Y-89217500D01*
X184010300Y-146352300D02*
X170040300Y-146352300D01*
X170040300Y-146352300D02*
X170040300Y-132382300D01*
X184010300Y-132382300D02*
X184010300Y-146352300D01*
X170040300Y-132382300D02*
X184010300Y-132382300D01*
X167640000Y-89217500D02*
X167640000Y-75247500D01*
X181610000Y-75247500D02*
X181610000Y-89217500D01*
X167640000Y-75247500D02*
X181610000Y-75247500D01*
X181610000Y-89217500D02*
X167640000Y-89217500D01*
X377983750Y-89217500D02*
X377983750Y-75247500D01*
X391953750Y-89217500D02*
X377983750Y-89217500D01*
X377983750Y-75247500D02*
X391953750Y-75247500D01*
X391953750Y-75247500D02*
X391953750Y-89217500D01*
X205740000Y-113347500D02*
X219710000Y-113347500D01*
X219710000Y-127317500D02*
X205740000Y-127317500D01*
X205740000Y-127317500D02*
X205740000Y-113347500D01*
X219710000Y-113347500D02*
X219710000Y-127317500D01*
X195897500Y-70167500D02*
X181927500Y-70167500D01*
X195897500Y-56197500D02*
X195897500Y-70167500D01*
X181927500Y-70167500D02*
X181927500Y-56197500D01*
X181927500Y-56197500D02*
X195897500Y-56197500D01*
X353853750Y-146367500D02*
X339883750Y-146367500D01*
X339883750Y-146367500D02*
X339883750Y-132397500D01*
X339883750Y-132397500D02*
X353853750Y-132397500D01*
X353853750Y-132397500D02*
X353853750Y-146367500D01*
X200977500Y-70167500D02*
X200977500Y-56197500D01*
X214947500Y-56197500D02*
X214947500Y-70167500D01*
X200977500Y-56197500D02*
X214947500Y-56197500D01*
X214947500Y-70167500D02*
X200977500Y-70167500D01*
X64928750Y-89217500D02*
X50958750Y-89217500D01*
X64928750Y-75247500D02*
X64928750Y-89217500D01*
X50958750Y-89217500D02*
X50958750Y-75247500D01*
X50958750Y-75247500D02*
X64928750Y-75247500D01*
X209867500Y-43497500D02*
X209867500Y-29527500D01*
X223837500Y-43497500D02*
X209867500Y-43497500D01*
X209867500Y-29527500D02*
X223837500Y-29527500D01*
X223837500Y-29527500D02*
X223837500Y-43497500D01*
X255428750Y-132397500D02*
X255428750Y-146367500D01*
X255428750Y-146367500D02*
X241458750Y-146367500D01*
X241458750Y-132397500D02*
X255428750Y-132397500D01*
X241458750Y-146367500D02*
X241458750Y-132397500D01*
X312578750Y-127317500D02*
X298608750Y-127317500D01*
X298608750Y-127317500D02*
X298608750Y-113347500D01*
X312578750Y-113347500D02*
X312578750Y-127317500D01*
X298608750Y-113347500D02*
X312578750Y-113347500D01*
X258127500Y-70167500D02*
X258127500Y-56197500D01*
X258127500Y-56197500D02*
X272097500Y-56197500D01*
X272097500Y-70167500D02*
X258127500Y-70167500D01*
X272097500Y-56197500D02*
X272097500Y-70167500D01*
X305727100Y-70177700D02*
X305727100Y-56207700D01*
X319697100Y-70177700D02*
X305727100Y-70177700D01*
X319697100Y-56207700D02*
X319697100Y-70177700D01*
X305727100Y-56207700D02*
X319697100Y-56207700D01*
X378142500Y-43497500D02*
X378142500Y-29527500D01*
X392112500Y-43497500D02*
X378142500Y-43497500D01*
X392112500Y-29527500D02*
X392112500Y-43497500D01*
X378142500Y-29527500D02*
X392112500Y-29527500D01*
X62547500Y-70167500D02*
X48577500Y-70167500D01*
X62547500Y-56197500D02*
X62547500Y-70167500D01*
X48577500Y-56197500D02*
X62547500Y-56197500D01*
X48577500Y-70167500D02*
X48577500Y-56197500D01*
X279237500Y-146377500D02*
X265267500Y-146377500D01*
X279237500Y-132407500D02*
X279237500Y-146377500D01*
X265267500Y-146377500D02*
X265267500Y-132407500D01*
X265267500Y-132407500D02*
X279237500Y-132407500D01*
X339883750Y-56197500D02*
X353853750Y-56197500D01*
X353853750Y-70167500D02*
X339883750Y-70167500D01*
X353853750Y-56197500D02*
X353853750Y-70167500D01*
X339883750Y-70167500D02*
X339883750Y-56197500D01*
X243840000Y-113347500D02*
X257810000Y-113347500D01*
X257810000Y-113347500D02*
X257810000Y-127317500D01*
X243840000Y-127317500D02*
X243840000Y-113347500D01*
X257810000Y-127317500D02*
X243840000Y-127317500D01*
X248285000Y-94297500D02*
X248285000Y-108267500D01*
X234315000Y-94297500D02*
X248285000Y-94297500D01*
X248285000Y-108267500D02*
X234315000Y-108267500D01*
X234315000Y-108267500D02*
X234315000Y-94297500D01*
X277177500Y-70167500D02*
X277177500Y-56197500D01*
X277177500Y-56197500D02*
X291147500Y-56197500D01*
X291147500Y-70167500D02*
X277177500Y-70167500D01*
X291147500Y-56197500D02*
X291147500Y-70167500D01*
X191135000Y-94297500D02*
X191135000Y-108267500D01*
X191135000Y-108267500D02*
X177165000Y-108267500D01*
X177165000Y-108267500D02*
X177165000Y-94297500D01*
X177165000Y-94297500D02*
X191135000Y-94297500D01*
X171767500Y-29527500D02*
X185737500Y-29527500D01*
X185737500Y-43497500D02*
X171767500Y-43497500D01*
X171767500Y-43497500D02*
X171767500Y-29527500D01*
X185737500Y-29527500D02*
X185737500Y-43497500D01*
X303371250Y-94297500D02*
X317341250Y-94297500D01*
X317341250Y-108267500D02*
X303371250Y-108267500D01*
X317341250Y-94297500D02*
X317341250Y-108267500D01*
X303371250Y-108267500D02*
X303371250Y-94297500D01*
X91440000Y-75247500D02*
X105410000Y-75247500D01*
X105410000Y-75247500D02*
X105410000Y-89217500D01*
X105410000Y-89217500D02*
X91440000Y-89217500D01*
X91440000Y-89217500D02*
X91440000Y-75247500D01*
%LPC*%
D12*
X141605000Y-82232500D03*
X131445000Y-82232500D03*
D13*
X136525000Y-82232500D03*
D14*
X139065000Y-77152500D03*
X132715000Y-79692500D03*
D12*
X221932500Y-63182500D03*
X232092500Y-63182500D03*
D13*
X227012500Y-63182500D03*
D14*
X229552500Y-58102500D03*
X223202500Y-60642500D03*
D12*
X298132500Y-36512500D03*
D13*
X303212500Y-36512500D03*
D12*
X308292500Y-36512500D03*
D14*
X305752500Y-31432500D03*
X299402500Y-33972500D03*
D13*
X127000000Y-101282500D03*
D12*
X132080000Y-101282500D03*
X121920000Y-101282500D03*
D14*
X129540000Y-96202500D03*
X123190000Y-98742500D03*
D13*
X365918750Y-63182500D03*
D12*
X370998750Y-63182500D03*
X360838750Y-63182500D03*
D14*
X368458750Y-58102500D03*
X362108750Y-60642500D03*
D12*
X198755000Y-82232500D03*
X188595000Y-82232500D03*
D13*
X193675000Y-82232500D03*
D14*
X196215000Y-77152500D03*
X189865000Y-79692500D03*
D13*
X131762500Y-36512500D03*
D12*
X136842500Y-36512500D03*
X126682500Y-36512500D03*
D14*
X134302500Y-31432500D03*
X127952500Y-33972500D03*
D12*
X112395000Y-120332500D03*
X122555000Y-120332500D03*
D13*
X117475000Y-120332500D03*
D14*
X120015000Y-115252500D03*
X113665000Y-117792500D03*
D12*
X274955000Y-120332500D03*
D13*
X269875000Y-120332500D03*
D12*
X264795000Y-120332500D03*
D14*
X272415000Y-115252500D03*
X266065000Y-117792500D03*
D12*
X236855000Y-82232500D03*
X226695000Y-82232500D03*
D13*
X231775000Y-82232500D03*
D14*
X234315000Y-77152500D03*
X227965000Y-79692500D03*
D12*
X324961250Y-139382500D03*
X314801250Y-139382500D03*
D13*
X319881250Y-139382500D03*
D14*
X322421250Y-134302500D03*
X316071250Y-136842500D03*
D12*
X352107500Y-36512500D03*
X341947500Y-36512500D03*
D13*
X347027500Y-36512500D03*
D14*
X349567500Y-31432500D03*
X343217500Y-33972500D03*
D13*
X150812500Y-36512500D03*
D12*
X145732500Y-36512500D03*
X155892500Y-36512500D03*
D14*
X153352500Y-31432500D03*
X147002500Y-33972500D03*
D13*
X246062500Y-63182500D03*
D12*
X251142500Y-63182500D03*
X240982500Y-63182500D03*
D14*
X248602500Y-58102500D03*
X242252500Y-60642500D03*
D13*
X112712500Y-36512500D03*
D12*
X117792500Y-36512500D03*
X107632500Y-36512500D03*
D14*
X115252500Y-31432500D03*
X108902500Y-33972500D03*
D12*
X360838750Y-139382500D03*
D13*
X365918750Y-139382500D03*
D12*
X370998750Y-139382500D03*
D14*
X368458750Y-134302500D03*
X362108750Y-136842500D03*
D12*
X160655000Y-82232500D03*
D13*
X155575000Y-82232500D03*
D12*
X150495000Y-82232500D03*
D14*
X158115000Y-77152500D03*
X151765000Y-79692500D03*
D13*
X235902500Y-36512500D03*
D12*
X240982500Y-36512500D03*
X230822500Y-36512500D03*
D14*
X238442500Y-31432500D03*
X232092500Y-33972500D03*
D13*
X197802500Y-36512500D03*
D12*
X192722500Y-36512500D03*
X202882500Y-36512500D03*
D14*
X200342500Y-31432500D03*
X193992500Y-33972500D03*
D12*
X301148750Y-139382500D03*
X290988750Y-139382500D03*
D13*
X296068750Y-139382500D03*
D14*
X298608750Y-134302500D03*
X292258750Y-136842500D03*
D12*
X86836250Y-139382500D03*
X76676250Y-139382500D03*
D13*
X81756250Y-139382500D03*
D14*
X84296250Y-134302500D03*
X77946250Y-136842500D03*
D13*
X131762500Y-63182500D03*
D12*
X136842500Y-63182500D03*
X126682500Y-63182500D03*
D14*
X134302500Y-58102500D03*
X127952500Y-60642500D03*
D12*
X117792500Y-63182500D03*
D13*
X112712500Y-63182500D03*
D12*
X107632500Y-63182500D03*
D14*
X115252500Y-58102500D03*
X108902500Y-60642500D03*
D12*
X274320000Y-101282500D03*
X284480000Y-101282500D03*
D13*
X279400000Y-101282500D03*
D14*
X281940000Y-96202500D03*
X275590000Y-98742500D03*
D12*
X255905000Y-82232500D03*
X245745000Y-82232500D03*
D13*
X250825000Y-82232500D03*
D14*
X253365000Y-77152500D03*
X247015000Y-79692500D03*
D13*
X105568750Y-139382500D03*
D12*
X100488750Y-139382500D03*
X110648750Y-139382500D03*
D14*
X108108750Y-134302500D03*
X101758750Y-136842500D03*
D13*
X260350000Y-101282500D03*
D12*
X265430000Y-101282500D03*
X255270000Y-101282500D03*
D14*
X262890000Y-96202500D03*
X256540000Y-98742500D03*
D13*
X117475000Y-82232500D03*
D12*
X112395000Y-82232500D03*
X122555000Y-82232500D03*
D14*
X120015000Y-77152500D03*
X113665000Y-79692500D03*
D13*
X384968750Y-139382500D03*
D12*
X390048750Y-139382500D03*
X379888750Y-139382500D03*
D14*
X387508750Y-134302500D03*
X381158750Y-136842500D03*
D12*
X279082500Y-36512500D03*
X289242500Y-36512500D03*
D13*
X284162500Y-36512500D03*
D14*
X286702500Y-31432500D03*
X280352500Y-33972500D03*
D12*
X140970000Y-101282500D03*
X151130000Y-101282500D03*
D13*
X146050000Y-101282500D03*
D14*
X148590000Y-96202500D03*
X142240000Y-98742500D03*
D12*
X93980000Y-101282500D03*
X83820000Y-101282500D03*
D13*
X88900000Y-101282500D03*
D14*
X91440000Y-96202500D03*
X85090000Y-98742500D03*
D13*
X107950000Y-101282500D03*
D12*
X102870000Y-101282500D03*
X113030000Y-101282500D03*
D14*
X110490000Y-96202500D03*
X104140000Y-98742500D03*
D13*
X136525000Y-120332500D03*
D12*
X141605000Y-120332500D03*
X131445000Y-120332500D03*
D14*
X139065000Y-115252500D03*
X132715000Y-117792500D03*
D12*
X341788750Y-82232500D03*
X351948750Y-82232500D03*
D13*
X346868750Y-82232500D03*
D14*
X349408750Y-77152500D03*
X343058750Y-79692500D03*
D12*
X236855000Y-120332500D03*
X226695000Y-120332500D03*
D13*
X231775000Y-120332500D03*
D14*
X234315000Y-115252500D03*
X227965000Y-117792500D03*
D12*
X294005000Y-82232500D03*
X283845000Y-82232500D03*
D13*
X288925000Y-82232500D03*
D14*
X291465000Y-77152500D03*
X285115000Y-79692500D03*
D13*
X366077500Y-36512500D03*
D12*
X371157500Y-36512500D03*
X360997500Y-36512500D03*
D14*
X368617500Y-31432500D03*
X362267500Y-33972500D03*
D13*
X322262500Y-36512500D03*
D12*
X327342500Y-36512500D03*
X317182500Y-36512500D03*
D14*
X324802500Y-31432500D03*
X318452500Y-33972500D03*
D12*
X98742500Y-36512500D03*
D13*
X93662500Y-36512500D03*
D12*
X88582500Y-36512500D03*
D14*
X96202500Y-31432500D03*
X89852500Y-33972500D03*
D12*
X160020000Y-101282500D03*
X170180000Y-101282500D03*
D13*
X165100000Y-101282500D03*
D14*
X167640000Y-96202500D03*
X161290000Y-98742500D03*
D12*
X188595000Y-120332500D03*
X198755000Y-120332500D03*
D13*
X193675000Y-120332500D03*
D14*
X196215000Y-115252500D03*
X189865000Y-117792500D03*
D12*
X198120000Y-101282500D03*
X208280000Y-101282500D03*
D13*
X203200000Y-101282500D03*
D14*
X205740000Y-96202500D03*
X199390000Y-98742500D03*
D12*
X174942500Y-63182500D03*
X164782500Y-63182500D03*
D13*
X169862500Y-63182500D03*
D14*
X172402500Y-58102500D03*
X166052500Y-60642500D03*
D13*
X212725000Y-82232500D03*
D12*
X217805000Y-82232500D03*
X207645000Y-82232500D03*
D14*
X215265000Y-77152500D03*
X208915000Y-79692500D03*
D12*
X390048750Y-63182500D03*
D13*
X384968750Y-63182500D03*
D12*
X379888750Y-63182500D03*
D14*
X387508750Y-58102500D03*
X381158750Y-60642500D03*
D12*
X145732500Y-63182500D03*
X155892500Y-63182500D03*
D13*
X150812500Y-63182500D03*
D14*
X153352500Y-58102500D03*
X147002500Y-60642500D03*
D12*
X264795000Y-82232500D03*
X274955000Y-82232500D03*
D13*
X269875000Y-82232500D03*
D14*
X272415000Y-77152500D03*
X266065000Y-79692500D03*
D12*
X179705000Y-120332500D03*
X169545000Y-120332500D03*
D13*
X174625000Y-120332500D03*
D14*
X177165000Y-115252500D03*
X170815000Y-117792500D03*
D13*
X55572500Y-128592500D03*
X67472500Y-120352500D03*
X79372500Y-128592500D03*
D15*
X55572500Y-113352500D03*
D12*
X62392500Y-120352500D03*
D15*
X79372500Y-113352500D03*
D12*
X72552500Y-120352500D03*
D14*
X70012500Y-115272500D03*
X63662500Y-117812500D03*
D13*
X93662500Y-63182500D03*
D12*
X88582500Y-63182500D03*
X98742500Y-63182500D03*
D14*
X96202500Y-58102500D03*
X89852500Y-60642500D03*
D12*
X160655000Y-120332500D03*
X150495000Y-120332500D03*
D13*
X155575000Y-120332500D03*
D14*
X158115000Y-115252500D03*
X151765000Y-117792500D03*
D12*
X69532500Y-63182500D03*
D13*
X74612500Y-63182500D03*
D12*
X79692500Y-63182500D03*
D14*
X77152500Y-58102500D03*
X70802500Y-60642500D03*
D12*
X103505000Y-120332500D03*
X93345000Y-120332500D03*
D13*
X98425000Y-120332500D03*
D14*
X100965000Y-115252500D03*
X94615000Y-117792500D03*
D13*
X222250000Y-101282500D03*
D12*
X217170000Y-101282500D03*
X227330000Y-101282500D03*
D14*
X224790000Y-96202500D03*
X218440000Y-98742500D03*
D13*
X57943750Y-139382500D03*
D12*
X63023750Y-139382500D03*
X52863750Y-139382500D03*
D14*
X60483750Y-134302500D03*
X54133750Y-136842500D03*
D12*
X84455000Y-82232500D03*
D13*
X79375000Y-82232500D03*
D12*
X74295000Y-82232500D03*
D14*
X81915000Y-77152500D03*
X75565000Y-79692500D03*
D13*
X365918750Y-120332500D03*
D12*
X370998750Y-120332500D03*
X360838750Y-120332500D03*
D14*
X368458750Y-115252500D03*
X362108750Y-117792500D03*
D12*
X57626250Y-101282500D03*
D13*
X62706250Y-101282500D03*
D12*
X67786250Y-101282500D03*
D14*
X65246250Y-96202500D03*
X58896250Y-98742500D03*
D12*
X320198750Y-82232500D03*
D13*
X315118750Y-82232500D03*
D12*
X310038750Y-82232500D03*
D14*
X317658750Y-77152500D03*
X311308750Y-79692500D03*
D12*
X270192500Y-36512500D03*
D13*
X265112500Y-36512500D03*
D12*
X260032500Y-36512500D03*
D14*
X267652500Y-31432500D03*
X261302500Y-33972500D03*
D12*
X50482500Y-36512500D03*
X60642500Y-36512500D03*
D13*
X55562500Y-36512500D03*
D14*
X58102500Y-31432500D03*
X51752500Y-33972500D03*
D12*
X360838750Y-82232500D03*
X370998750Y-82232500D03*
D13*
X365918750Y-82232500D03*
D14*
X368458750Y-77152500D03*
X362108750Y-79692500D03*
D13*
X127025300Y-147607300D03*
D15*
X127025300Y-132367300D03*
D13*
X227025300Y-147607300D03*
D12*
X182105300Y-139367300D03*
X171945300Y-139367300D03*
D13*
X177025300Y-139367300D03*
D15*
X227025300Y-132367300D03*
D14*
X179565300Y-134287300D03*
X173215300Y-136827300D03*
D13*
X174625000Y-82232500D03*
D12*
X179705000Y-82232500D03*
X169545000Y-82232500D03*
D14*
X177165000Y-77152500D03*
X170815000Y-79692500D03*
D13*
X384968750Y-82232500D03*
D12*
X390048750Y-82232500D03*
X379888750Y-82232500D03*
D14*
X387508750Y-77152500D03*
X381158750Y-79692500D03*
D12*
X217805000Y-120332500D03*
X207645000Y-120332500D03*
D13*
X212725000Y-120332500D03*
D14*
X215265000Y-115252500D03*
X208915000Y-117792500D03*
D13*
X188912500Y-63182500D03*
D12*
X193992500Y-63182500D03*
X183832500Y-63182500D03*
D14*
X191452500Y-58102500D03*
X185102500Y-60642500D03*
D12*
X351948750Y-139382500D03*
X341788750Y-139382500D03*
D13*
X346868750Y-139382500D03*
D14*
X349408750Y-134302500D03*
X343058750Y-136842500D03*
D13*
X207962500Y-63182500D03*
D12*
X202882500Y-63182500D03*
X213042500Y-63182500D03*
D14*
X210502500Y-58102500D03*
X204152500Y-60642500D03*
D12*
X63023750Y-82232500D03*
X52863750Y-82232500D03*
D13*
X57943750Y-82232500D03*
D14*
X60483750Y-77152500D03*
X54133750Y-79692500D03*
D12*
X211772500Y-36512500D03*
X221932500Y-36512500D03*
D13*
X216852500Y-36512500D03*
D14*
X219392500Y-31432500D03*
X213042500Y-33972500D03*
D12*
X243363750Y-139382500D03*
D13*
X248443750Y-139382500D03*
D12*
X253523750Y-139382500D03*
D14*
X250983750Y-134302500D03*
X244633750Y-136842500D03*
D13*
X293693750Y-128572500D03*
X305593750Y-120332500D03*
X317493750Y-128572500D03*
D15*
X293693750Y-113332500D03*
X317493750Y-113332500D03*
D12*
X310673750Y-120332500D03*
X300513750Y-120332500D03*
D14*
X308133750Y-115252500D03*
X301783750Y-117792500D03*
D12*
X270192500Y-63182500D03*
D13*
X265112500Y-63182500D03*
D12*
X260032500Y-63182500D03*
D14*
X267652500Y-58102500D03*
X261302500Y-60642500D03*
D12*
X317792100Y-63192700D03*
D15*
X324612100Y-56192700D03*
D13*
X324612100Y-71432700D03*
X300812100Y-71432700D03*
D15*
X300812100Y-56192700D03*
D12*
X307632100Y-63192700D03*
D13*
X312712100Y-63192700D03*
D14*
X315252100Y-58112700D03*
X308902100Y-60652700D03*
D12*
X380047500Y-36512500D03*
D13*
X385127500Y-36512500D03*
D12*
X390207500Y-36512500D03*
D14*
X387667500Y-31432500D03*
X381317500Y-33972500D03*
D12*
X50482500Y-63182500D03*
X60642500Y-63182500D03*
D13*
X55562500Y-63182500D03*
D14*
X58102500Y-58102500D03*
X51752500Y-60642500D03*
D12*
X277332500Y-139392500D03*
X267172500Y-139392500D03*
D13*
X272252500Y-139392500D03*
D14*
X274792500Y-134312500D03*
X268442500Y-136852500D03*
D13*
X346868750Y-63182500D03*
D12*
X341788750Y-63182500D03*
X351948750Y-63182500D03*
D14*
X349408750Y-58102500D03*
X343058750Y-60642500D03*
D13*
X250825000Y-120332500D03*
D12*
X245745000Y-120332500D03*
X255905000Y-120332500D03*
D14*
X253365000Y-115252500D03*
X247015000Y-117792500D03*
D12*
X236220000Y-101282500D03*
X246380000Y-101282500D03*
D13*
X241300000Y-101282500D03*
D14*
X243840000Y-96202500D03*
X237490000Y-98742500D03*
D13*
X284162500Y-63182500D03*
D12*
X279082500Y-63182500D03*
X289242500Y-63182500D03*
D14*
X286702500Y-58102500D03*
X280352500Y-60642500D03*
D13*
X184150000Y-101282500D03*
D12*
X179070000Y-101282500D03*
X189230000Y-101282500D03*
D14*
X186690000Y-96202500D03*
X180340000Y-98742500D03*
D12*
X183832500Y-36512500D03*
X173672500Y-36512500D03*
D13*
X178752500Y-36512500D03*
D14*
X181292500Y-31432500D03*
X174942500Y-33972500D03*
D15*
X322256250Y-94282500D03*
D13*
X310356250Y-101282500D03*
D15*
X298456250Y-94282500D03*
D12*
X305276250Y-101282500D03*
D13*
X322256250Y-109522500D03*
D12*
X315436250Y-101282500D03*
D13*
X298456250Y-109522500D03*
D14*
X312896250Y-96202500D03*
X306546250Y-98742500D03*
D13*
X98425000Y-82232500D03*
D12*
X103505000Y-82232500D03*
X93345000Y-82232500D03*
D14*
X100965000Y-77152500D03*
X94615000Y-79692500D03*
D16*
X331437500Y-22620000D03*
X337217500Y-22620000D03*
D17*
X330007500Y-18970000D03*
X338647500Y-18970000D03*
D18*
X330007500Y-23150000D03*
X338647500Y-23150000D03*
M02*
