%TF.GenerationSoftware,KiCad,Pcbnew,(6.0.10)*%
%TF.CreationDate,2023-01-10T21:57:36-05:00*%
%TF.ProjectId,2ndKeyboard,326e644b-6579-4626-9f61-72642e6b6963,rev?*%
%TF.SameCoordinates,Original*%
%TF.FileFunction,Legend,Bot*%
%TF.FilePolarity,Positive*%
%FSLAX46Y46*%
G04 Gerber Fmt 4.6, Leading zero omitted, Abs format (unit mm)*
G04 Created by KiCad (PCBNEW (6.0.10)) date 2023-01-10 21:57:36*
%MOMM*%
%LPD*%
G01*
G04 APERTURE LIST*
G04 Aperture macros list*
%AMRoundRect*
0 Rectangle with rounded corners*
0 $1 Rounding radius*
0 $2 $3 $4 $5 $6 $7 $8 $9 X,Y pos of 4 corners*
0 Add a 4 corners polygon primitive as box body*
4,1,4,$2,$3,$4,$5,$6,$7,$8,$9,$2,$3,0*
0 Add four circle primitives for the rounded corners*
1,1,$1+$1,$2,$3*
1,1,$1+$1,$4,$5*
1,1,$1+$1,$6,$7*
1,1,$1+$1,$8,$9*
0 Add four rect primitives between the rounded corners*
20,1,$1+$1,$2,$3,$4,$5,0*
20,1,$1+$1,$4,$5,$6,$7,0*
20,1,$1+$1,$6,$7,$8,$9,0*
20,1,$1+$1,$8,$9,$2,$3,0*%
G04 Aperture macros list end*
%ADD10C,0.100000*%
%ADD11C,0.150000*%
%ADD12C,0.125000*%
%ADD13C,0.120000*%
%ADD14C,0.250000*%
%ADD15C,1.700000*%
%ADD16C,4.000000*%
%ADD17C,2.200000*%
%ADD18C,2.700000*%
%ADD19R,1.200000X0.900000*%
%ADD20RoundRect,0.250000X0.337500X0.475000X-0.337500X0.475000X-0.337500X-0.475000X0.337500X-0.475000X0*%
%ADD21R,1.800000X1.100000*%
%ADD22RoundRect,0.250000X-0.325000X-0.450000X0.325000X-0.450000X0.325000X0.450000X-0.325000X0.450000X0*%
%ADD23R,1.800000X2.100000*%
%ADD24RoundRect,0.250000X-0.350000X-0.450000X0.350000X-0.450000X0.350000X0.450000X-0.350000X0.450000X0*%
%ADD25RoundRect,0.250000X0.350000X0.450000X-0.350000X0.450000X-0.350000X-0.450000X0.350000X-0.450000X0*%
%ADD26RoundRect,0.250001X-0.624999X0.462499X-0.624999X-0.462499X0.624999X-0.462499X0.624999X0.462499X0*%
%ADD27RoundRect,0.250000X0.475000X-0.337500X0.475000X0.337500X-0.475000X0.337500X-0.475000X-0.337500X0*%
%ADD28R,0.700000X1.000000*%
%ADD29R,0.700000X0.600000*%
%ADD30R,1.700000X1.700000*%
%ADD31C,0.650000*%
%ADD32R,0.600000X2.450000*%
%ADD33R,0.560000X2.450000*%
%ADD34R,0.300000X2.450000*%
%ADD35R,0.560000X2.460000*%
%ADD36R,0.550000X1.500000*%
%ADD37R,1.500000X0.550000*%
%ADD38RoundRect,0.250000X-0.450000X0.350000X-0.450000X-0.350000X0.450000X-0.350000X0.450000X0.350000X0*%
%ADD39RoundRect,0.250000X-0.337500X-0.475000X0.337500X-0.475000X0.337500X0.475000X-0.337500X0.475000X0*%
%ADD40RoundRect,0.250000X-0.475000X0.337500X-0.475000X-0.337500X0.475000X-0.337500X0.475000X0.337500X0*%
G04 APERTURE END LIST*
D10*
X393301904Y-91456190D02*
X393468571Y-91218095D01*
X393587619Y-91456190D02*
X393587619Y-90956190D01*
X393397142Y-90956190D01*
X393349523Y-90980000D01*
X393325714Y-91003809D01*
X393301904Y-91051428D01*
X393301904Y-91122857D01*
X393325714Y-91170476D01*
X393349523Y-91194285D01*
X393397142Y-91218095D01*
X393587619Y-91218095D01*
X392897142Y-91432380D02*
X392944761Y-91456190D01*
X393040000Y-91456190D01*
X393087619Y-91432380D01*
X393111428Y-91384761D01*
X393111428Y-91194285D01*
X393087619Y-91146666D01*
X393040000Y-91122857D01*
X392944761Y-91122857D01*
X392897142Y-91146666D01*
X392873333Y-91194285D01*
X392873333Y-91241904D01*
X393111428Y-91289523D01*
X392682857Y-91432380D02*
X392635238Y-91456190D01*
X392540000Y-91456190D01*
X392492380Y-91432380D01*
X392468571Y-91384761D01*
X392468571Y-91360952D01*
X392492380Y-91313333D01*
X392540000Y-91289523D01*
X392611428Y-91289523D01*
X392659047Y-91265714D01*
X392682857Y-91218095D01*
X392682857Y-91194285D01*
X392659047Y-91146666D01*
X392611428Y-91122857D01*
X392540000Y-91122857D01*
X392492380Y-91146666D01*
X392063809Y-91432380D02*
X392111428Y-91456190D01*
X392206666Y-91456190D01*
X392254285Y-91432380D01*
X392278095Y-91384761D01*
X392278095Y-91194285D01*
X392254285Y-91146666D01*
X392206666Y-91122857D01*
X392111428Y-91122857D01*
X392063809Y-91146666D01*
X392040000Y-91194285D01*
X392040000Y-91241904D01*
X392278095Y-91289523D01*
X391897142Y-91122857D02*
X391706666Y-91122857D01*
X391825714Y-90956190D02*
X391825714Y-91384761D01*
X391801904Y-91432380D01*
X391754285Y-91456190D01*
X391706666Y-91456190D01*
X391182857Y-91432380D02*
X391111428Y-91456190D01*
X390992380Y-91456190D01*
X390944761Y-91432380D01*
X390920952Y-91408571D01*
X390897142Y-91360952D01*
X390897142Y-91313333D01*
X390920952Y-91265714D01*
X390944761Y-91241904D01*
X390992380Y-91218095D01*
X391087619Y-91194285D01*
X391135238Y-91170476D01*
X391159047Y-91146666D01*
X391182857Y-91099047D01*
X391182857Y-91051428D01*
X391159047Y-91003809D01*
X391135238Y-90980000D01*
X391087619Y-90956190D01*
X390968571Y-90956190D01*
X390897142Y-90980000D01*
X390730476Y-91122857D02*
X390635238Y-91456190D01*
X390540000Y-91218095D01*
X390444761Y-91456190D01*
X390349523Y-91122857D01*
X390159047Y-91456190D02*
X390159047Y-91122857D01*
X390159047Y-90956190D02*
X390182857Y-90980000D01*
X390159047Y-91003809D01*
X390135238Y-90980000D01*
X390159047Y-90956190D01*
X390159047Y-91003809D01*
X389992380Y-91122857D02*
X389801904Y-91122857D01*
X389920952Y-90956190D02*
X389920952Y-91384761D01*
X389897142Y-91432380D01*
X389849523Y-91456190D01*
X389801904Y-91456190D01*
X389420952Y-91432380D02*
X389468571Y-91456190D01*
X389563809Y-91456190D01*
X389611428Y-91432380D01*
X389635238Y-91408571D01*
X389659047Y-91360952D01*
X389659047Y-91218095D01*
X389635238Y-91170476D01*
X389611428Y-91146666D01*
X389563809Y-91122857D01*
X389468571Y-91122857D01*
X389420952Y-91146666D01*
X389206666Y-91456190D02*
X389206666Y-90956190D01*
X388992380Y-91456190D02*
X388992380Y-91194285D01*
X389016190Y-91146666D01*
X389063809Y-91122857D01*
X389135238Y-91122857D01*
X389182857Y-91146666D01*
X389206666Y-91170476D01*
D11*
X47413809Y-146682380D02*
X47747142Y-146206190D01*
X47985238Y-146682380D02*
X47985238Y-145682380D01*
X47604285Y-145682380D01*
X47509047Y-145730000D01*
X47461428Y-145777619D01*
X47413809Y-145872857D01*
X47413809Y-146015714D01*
X47461428Y-146110952D01*
X47509047Y-146158571D01*
X47604285Y-146206190D01*
X47985238Y-146206190D01*
X46842380Y-146682380D02*
X46937619Y-146634761D01*
X46985238Y-146587142D01*
X47032857Y-146491904D01*
X47032857Y-146206190D01*
X46985238Y-146110952D01*
X46937619Y-146063333D01*
X46842380Y-146015714D01*
X46699523Y-146015714D01*
X46604285Y-146063333D01*
X46556666Y-146110952D01*
X46509047Y-146206190D01*
X46509047Y-146491904D01*
X46556666Y-146587142D01*
X46604285Y-146634761D01*
X46699523Y-146682380D01*
X46842380Y-146682380D01*
X46175714Y-146015714D02*
X45985238Y-146682380D01*
X45794761Y-146206190D01*
X45604285Y-146682380D01*
X45413809Y-146015714D01*
X45270952Y-146777619D02*
X44509047Y-146777619D01*
X43794761Y-145682380D02*
X44270952Y-145682380D01*
X44318571Y-146158571D01*
X44270952Y-146110952D01*
X44175714Y-146063333D01*
X43937619Y-146063333D01*
X43842380Y-146110952D01*
X43794761Y-146158571D01*
X43747142Y-146253809D01*
X43747142Y-146491904D01*
X43794761Y-146587142D01*
X43842380Y-146634761D01*
X43937619Y-146682380D01*
X44175714Y-146682380D01*
X44270952Y-146634761D01*
X44318571Y-146587142D01*
D10*
X352416190Y-105025238D02*
X352916190Y-105358571D01*
X352416190Y-105358571D02*
X352916190Y-105025238D01*
X352463809Y-105525238D02*
X352440000Y-105549047D01*
X352416190Y-105596666D01*
X352416190Y-105715714D01*
X352440000Y-105763333D01*
X352463809Y-105787142D01*
X352511428Y-105810952D01*
X352559047Y-105810952D01*
X352630476Y-105787142D01*
X352916190Y-105501428D01*
X352916190Y-105810952D01*
D11*
X47713809Y-88582380D02*
X48047142Y-88106190D01*
X48285238Y-88582380D02*
X48285238Y-87582380D01*
X47904285Y-87582380D01*
X47809047Y-87630000D01*
X47761428Y-87677619D01*
X47713809Y-87772857D01*
X47713809Y-87915714D01*
X47761428Y-88010952D01*
X47809047Y-88058571D01*
X47904285Y-88106190D01*
X48285238Y-88106190D01*
X47142380Y-88582380D02*
X47237619Y-88534761D01*
X47285238Y-88487142D01*
X47332857Y-88391904D01*
X47332857Y-88106190D01*
X47285238Y-88010952D01*
X47237619Y-87963333D01*
X47142380Y-87915714D01*
X46999523Y-87915714D01*
X46904285Y-87963333D01*
X46856666Y-88010952D01*
X46809047Y-88106190D01*
X46809047Y-88391904D01*
X46856666Y-88487142D01*
X46904285Y-88534761D01*
X46999523Y-88582380D01*
X47142380Y-88582380D01*
X46475714Y-87915714D02*
X46285238Y-88582380D01*
X46094761Y-88106190D01*
X45904285Y-88582380D01*
X45713809Y-87915714D01*
X45570952Y-88677619D02*
X44809047Y-88677619D01*
X44618571Y-87677619D02*
X44570952Y-87630000D01*
X44475714Y-87582380D01*
X44237619Y-87582380D01*
X44142380Y-87630000D01*
X44094761Y-87677619D01*
X44047142Y-87772857D01*
X44047142Y-87868095D01*
X44094761Y-88010952D01*
X44666190Y-88582380D01*
X44047142Y-88582380D01*
X47413809Y-69882380D02*
X47747142Y-69406190D01*
X47985238Y-69882380D02*
X47985238Y-68882380D01*
X47604285Y-68882380D01*
X47509047Y-68930000D01*
X47461428Y-68977619D01*
X47413809Y-69072857D01*
X47413809Y-69215714D01*
X47461428Y-69310952D01*
X47509047Y-69358571D01*
X47604285Y-69406190D01*
X47985238Y-69406190D01*
X46842380Y-69882380D02*
X46937619Y-69834761D01*
X46985238Y-69787142D01*
X47032857Y-69691904D01*
X47032857Y-69406190D01*
X46985238Y-69310952D01*
X46937619Y-69263333D01*
X46842380Y-69215714D01*
X46699523Y-69215714D01*
X46604285Y-69263333D01*
X46556666Y-69310952D01*
X46509047Y-69406190D01*
X46509047Y-69691904D01*
X46556666Y-69787142D01*
X46604285Y-69834761D01*
X46699523Y-69882380D01*
X46842380Y-69882380D01*
X46175714Y-69215714D02*
X45985238Y-69882380D01*
X45794761Y-69406190D01*
X45604285Y-69882380D01*
X45413809Y-69215714D01*
X45270952Y-69977619D02*
X44509047Y-69977619D01*
X43747142Y-69882380D02*
X44318571Y-69882380D01*
X44032857Y-69882380D02*
X44032857Y-68882380D01*
X44128095Y-69025238D01*
X44223333Y-69120476D01*
X44318571Y-69168095D01*
X69413809Y-40482380D02*
X69747142Y-40006190D01*
X69985238Y-40482380D02*
X69985238Y-39482380D01*
X69604285Y-39482380D01*
X69509047Y-39530000D01*
X69461428Y-39577619D01*
X69413809Y-39672857D01*
X69413809Y-39815714D01*
X69461428Y-39910952D01*
X69509047Y-39958571D01*
X69604285Y-40006190D01*
X69985238Y-40006190D01*
X68842380Y-40482380D02*
X68937619Y-40434761D01*
X68985238Y-40387142D01*
X69032857Y-40291904D01*
X69032857Y-40006190D01*
X68985238Y-39910952D01*
X68937619Y-39863333D01*
X68842380Y-39815714D01*
X68699523Y-39815714D01*
X68604285Y-39863333D01*
X68556666Y-39910952D01*
X68509047Y-40006190D01*
X68509047Y-40291904D01*
X68556666Y-40387142D01*
X68604285Y-40434761D01*
X68699523Y-40482380D01*
X68842380Y-40482380D01*
X68175714Y-39815714D02*
X67985238Y-40482380D01*
X67794761Y-40006190D01*
X67604285Y-40482380D01*
X67413809Y-39815714D01*
X67270952Y-40577619D02*
X66509047Y-40577619D01*
X66080476Y-39482380D02*
X65985238Y-39482380D01*
X65890000Y-39530000D01*
X65842380Y-39577619D01*
X65794761Y-39672857D01*
X65747142Y-39863333D01*
X65747142Y-40101428D01*
X65794761Y-40291904D01*
X65842380Y-40387142D01*
X65890000Y-40434761D01*
X65985238Y-40482380D01*
X66080476Y-40482380D01*
X66175714Y-40434761D01*
X66223333Y-40387142D01*
X66270952Y-40291904D01*
X66318571Y-40101428D01*
X66318571Y-39863333D01*
X66270952Y-39672857D01*
X66223333Y-39577619D01*
X66175714Y-39530000D01*
X66080476Y-39482380D01*
X56913809Y-126982380D02*
X57247142Y-126506190D01*
X57485238Y-126982380D02*
X57485238Y-125982380D01*
X57104285Y-125982380D01*
X57009047Y-126030000D01*
X56961428Y-126077619D01*
X56913809Y-126172857D01*
X56913809Y-126315714D01*
X56961428Y-126410952D01*
X57009047Y-126458571D01*
X57104285Y-126506190D01*
X57485238Y-126506190D01*
X56342380Y-126982380D02*
X56437619Y-126934761D01*
X56485238Y-126887142D01*
X56532857Y-126791904D01*
X56532857Y-126506190D01*
X56485238Y-126410952D01*
X56437619Y-126363333D01*
X56342380Y-126315714D01*
X56199523Y-126315714D01*
X56104285Y-126363333D01*
X56056666Y-126410952D01*
X56009047Y-126506190D01*
X56009047Y-126791904D01*
X56056666Y-126887142D01*
X56104285Y-126934761D01*
X56199523Y-126982380D01*
X56342380Y-126982380D01*
X55675714Y-126315714D02*
X55485238Y-126982380D01*
X55294761Y-126506190D01*
X55104285Y-126982380D01*
X54913809Y-126315714D01*
X54770952Y-127077619D02*
X54009047Y-127077619D01*
X53342380Y-126315714D02*
X53342380Y-126982380D01*
X53580476Y-125934761D02*
X53818571Y-126649047D01*
X53199523Y-126649047D01*
X52213809Y-108082380D02*
X52547142Y-107606190D01*
X52785238Y-108082380D02*
X52785238Y-107082380D01*
X52404285Y-107082380D01*
X52309047Y-107130000D01*
X52261428Y-107177619D01*
X52213809Y-107272857D01*
X52213809Y-107415714D01*
X52261428Y-107510952D01*
X52309047Y-107558571D01*
X52404285Y-107606190D01*
X52785238Y-107606190D01*
X51642380Y-108082380D02*
X51737619Y-108034761D01*
X51785238Y-107987142D01*
X51832857Y-107891904D01*
X51832857Y-107606190D01*
X51785238Y-107510952D01*
X51737619Y-107463333D01*
X51642380Y-107415714D01*
X51499523Y-107415714D01*
X51404285Y-107463333D01*
X51356666Y-107510952D01*
X51309047Y-107606190D01*
X51309047Y-107891904D01*
X51356666Y-107987142D01*
X51404285Y-108034761D01*
X51499523Y-108082380D01*
X51642380Y-108082380D01*
X50975714Y-107415714D02*
X50785238Y-108082380D01*
X50594761Y-107606190D01*
X50404285Y-108082380D01*
X50213809Y-107415714D01*
X50070952Y-108177619D02*
X49309047Y-108177619D01*
X49166190Y-107082380D02*
X48547142Y-107082380D01*
X48880476Y-107463333D01*
X48737619Y-107463333D01*
X48642380Y-107510952D01*
X48594761Y-107558571D01*
X48547142Y-107653809D01*
X48547142Y-107891904D01*
X48594761Y-107987142D01*
X48642380Y-108034761D01*
X48737619Y-108082380D01*
X49023333Y-108082380D01*
X49118571Y-108034761D01*
X49166190Y-107987142D01*
X79554880Y-85384464D02*
X78554880Y-85384464D01*
X78554880Y-85622559D01*
X78602500Y-85765416D01*
X78697738Y-85860654D01*
X78792976Y-85908273D01*
X78983452Y-85955892D01*
X79126309Y-85955892D01*
X79316785Y-85908273D01*
X79412023Y-85860654D01*
X79507261Y-85765416D01*
X79554880Y-85622559D01*
X79554880Y-85384464D01*
X78554880Y-86289226D02*
X78554880Y-86908273D01*
X78935833Y-86574940D01*
X78935833Y-86717797D01*
X78983452Y-86813035D01*
X79031071Y-86860654D01*
X79126309Y-86908273D01*
X79364404Y-86908273D01*
X79459642Y-86860654D01*
X79507261Y-86813035D01*
X79554880Y-86717797D01*
X79554880Y-86432083D01*
X79507261Y-86336845D01*
X79459642Y-86289226D01*
X78554880Y-87813035D02*
X78554880Y-87336845D01*
X79031071Y-87289226D01*
X78983452Y-87336845D01*
X78935833Y-87432083D01*
X78935833Y-87670178D01*
X78983452Y-87765416D01*
X79031071Y-87813035D01*
X79126309Y-87860654D01*
X79364404Y-87860654D01*
X79459642Y-87813035D01*
X79507261Y-87765416D01*
X79554880Y-87670178D01*
X79554880Y-87432083D01*
X79507261Y-87336845D01*
X79459642Y-87289226D01*
X208192380Y-66571964D02*
X207192380Y-66571964D01*
X207192380Y-66810059D01*
X207240000Y-66952916D01*
X207335238Y-67048154D01*
X207430476Y-67095773D01*
X207620952Y-67143392D01*
X207763809Y-67143392D01*
X207954285Y-67095773D01*
X208049523Y-67048154D01*
X208144761Y-66952916D01*
X208192380Y-66810059D01*
X208192380Y-66571964D01*
X207287619Y-67524345D02*
X207240000Y-67571964D01*
X207192380Y-67667202D01*
X207192380Y-67905297D01*
X207240000Y-68000535D01*
X207287619Y-68048154D01*
X207382857Y-68095773D01*
X207478095Y-68095773D01*
X207620952Y-68048154D01*
X208192380Y-67476726D01*
X208192380Y-68095773D01*
X207192380Y-69000535D02*
X207192380Y-68524345D01*
X207668571Y-68476726D01*
X207620952Y-68524345D01*
X207573333Y-68619583D01*
X207573333Y-68857678D01*
X207620952Y-68952916D01*
X207668571Y-69000535D01*
X207763809Y-69048154D01*
X208001904Y-69048154D01*
X208097142Y-69000535D01*
X208144761Y-68952916D01*
X208192380Y-68857678D01*
X208192380Y-68619583D01*
X208144761Y-68524345D01*
X208097142Y-68476726D01*
X193904880Y-123721964D02*
X192904880Y-123721964D01*
X192904880Y-123960059D01*
X192952500Y-124102916D01*
X193047738Y-124198154D01*
X193142976Y-124245773D01*
X193333452Y-124293392D01*
X193476309Y-124293392D01*
X193666785Y-124245773D01*
X193762023Y-124198154D01*
X193857261Y-124102916D01*
X193904880Y-123960059D01*
X193904880Y-123721964D01*
X192904880Y-124626726D02*
X192904880Y-125293392D01*
X193904880Y-124864821D01*
X192904880Y-125864821D02*
X192904880Y-125960059D01*
X192952500Y-126055297D01*
X193000119Y-126102916D01*
X193095357Y-126150535D01*
X193285833Y-126198154D01*
X193523928Y-126198154D01*
X193714404Y-126150535D01*
X193809642Y-126102916D01*
X193857261Y-126055297D01*
X193904880Y-125960059D01*
X193904880Y-125864821D01*
X193857261Y-125769583D01*
X193809642Y-125721964D01*
X193714404Y-125674345D01*
X193523928Y-125626726D01*
X193285833Y-125626726D01*
X193095357Y-125674345D01*
X193000119Y-125721964D01*
X192952500Y-125769583D01*
X192904880Y-125864821D01*
X320111130Y-142771964D02*
X319111130Y-142771964D01*
X319111130Y-143010059D01*
X319158750Y-143152916D01*
X319253988Y-143248154D01*
X319349226Y-143295773D01*
X319539702Y-143343392D01*
X319682559Y-143343392D01*
X319873035Y-143295773D01*
X319968273Y-143248154D01*
X320063511Y-143152916D01*
X320111130Y-143010059D01*
X320111130Y-142771964D01*
X319539702Y-143914821D02*
X319492083Y-143819583D01*
X319444464Y-143771964D01*
X319349226Y-143724345D01*
X319301607Y-143724345D01*
X319206369Y-143771964D01*
X319158750Y-143819583D01*
X319111130Y-143914821D01*
X319111130Y-144105297D01*
X319158750Y-144200535D01*
X319206369Y-144248154D01*
X319301607Y-144295773D01*
X319349226Y-144295773D01*
X319444464Y-144248154D01*
X319492083Y-144200535D01*
X319539702Y-144105297D01*
X319539702Y-143914821D01*
X319587321Y-143819583D01*
X319634940Y-143771964D01*
X319730178Y-143724345D01*
X319920654Y-143724345D01*
X320015892Y-143771964D01*
X320063511Y-143819583D01*
X320111130Y-143914821D01*
X320111130Y-144105297D01*
X320063511Y-144200535D01*
X320015892Y-144248154D01*
X319920654Y-144295773D01*
X319730178Y-144295773D01*
X319634940Y-144248154D01*
X319587321Y-144200535D01*
X319539702Y-144105297D01*
X319444464Y-145152916D02*
X320111130Y-145152916D01*
X319063511Y-144914821D02*
X319777797Y-144676726D01*
X319777797Y-145295773D01*
X289104880Y-85384464D02*
X288104880Y-85384464D01*
X288104880Y-85622559D01*
X288152500Y-85765416D01*
X288247738Y-85860654D01*
X288342976Y-85908273D01*
X288533452Y-85955892D01*
X288676309Y-85955892D01*
X288866785Y-85908273D01*
X288962023Y-85860654D01*
X289057261Y-85765416D01*
X289104880Y-85622559D01*
X289104880Y-85384464D01*
X288438214Y-86813035D02*
X289104880Y-86813035D01*
X288057261Y-86574940D02*
X288771547Y-86336845D01*
X288771547Y-86955892D01*
X288104880Y-87765416D02*
X288104880Y-87574940D01*
X288152500Y-87479702D01*
X288200119Y-87432083D01*
X288342976Y-87336845D01*
X288533452Y-87289226D01*
X288914404Y-87289226D01*
X289009642Y-87336845D01*
X289057261Y-87384464D01*
X289104880Y-87479702D01*
X289104880Y-87670178D01*
X289057261Y-87765416D01*
X289009642Y-87813035D01*
X288914404Y-87860654D01*
X288676309Y-87860654D01*
X288581071Y-87813035D01*
X288533452Y-87765416D01*
X288485833Y-87670178D01*
X288485833Y-87479702D01*
X288533452Y-87384464D01*
X288581071Y-87336845D01*
X288676309Y-87289226D01*
X235973630Y-40060654D02*
X234973630Y-40060654D01*
X234973630Y-40298750D01*
X235021250Y-40441607D01*
X235116488Y-40536845D01*
X235211726Y-40584464D01*
X235402202Y-40632083D01*
X235545059Y-40632083D01*
X235735535Y-40584464D01*
X235830773Y-40536845D01*
X235926011Y-40441607D01*
X235973630Y-40298750D01*
X235973630Y-40060654D01*
X235973630Y-41108273D02*
X235973630Y-41298750D01*
X235926011Y-41393988D01*
X235878392Y-41441607D01*
X235735535Y-41536845D01*
X235545059Y-41584464D01*
X235164107Y-41584464D01*
X235068869Y-41536845D01*
X235021250Y-41489226D01*
X234973630Y-41393988D01*
X234973630Y-41203511D01*
X235021250Y-41108273D01*
X235068869Y-41060654D01*
X235164107Y-41013035D01*
X235402202Y-41013035D01*
X235497440Y-41060654D01*
X235545059Y-41108273D01*
X235592678Y-41203511D01*
X235592678Y-41393988D01*
X235545059Y-41489226D01*
X235497440Y-41536845D01*
X235402202Y-41584464D01*
X325456666Y-112387142D02*
X325504285Y-112434761D01*
X325647142Y-112482380D01*
X325742380Y-112482380D01*
X325885238Y-112434761D01*
X325980476Y-112339523D01*
X326028095Y-112244285D01*
X326075714Y-112053809D01*
X326075714Y-111910952D01*
X326028095Y-111720476D01*
X325980476Y-111625238D01*
X325885238Y-111530000D01*
X325742380Y-111482380D01*
X325647142Y-111482380D01*
X325504285Y-111530000D01*
X325456666Y-111577619D01*
X324599523Y-111815714D02*
X324599523Y-112482380D01*
X324837619Y-111434761D02*
X325075714Y-112149047D01*
X324456666Y-112149047D01*
X392523333Y-90534761D02*
X392380476Y-90582380D01*
X392142380Y-90582380D01*
X392047142Y-90534761D01*
X391999523Y-90487142D01*
X391951904Y-90391904D01*
X391951904Y-90296666D01*
X391999523Y-90201428D01*
X392047142Y-90153809D01*
X392142380Y-90106190D01*
X392332857Y-90058571D01*
X392428095Y-90010952D01*
X392475714Y-89963333D01*
X392523333Y-89868095D01*
X392523333Y-89772857D01*
X392475714Y-89677619D01*
X392428095Y-89630000D01*
X392332857Y-89582380D01*
X392094761Y-89582380D01*
X391951904Y-89630000D01*
X391618571Y-89582380D02*
X391380476Y-90582380D01*
X391190000Y-89868095D01*
X390999523Y-90582380D01*
X390761428Y-89582380D01*
X389856666Y-90582380D02*
X390428095Y-90582380D01*
X390142380Y-90582380D02*
X390142380Y-89582380D01*
X390237619Y-89725238D01*
X390332857Y-89820476D01*
X390428095Y-89868095D01*
X385198630Y-39984464D02*
X384198630Y-39984464D01*
X384198630Y-40222559D01*
X384246250Y-40365416D01*
X384341488Y-40460654D01*
X384436726Y-40508273D01*
X384627202Y-40555892D01*
X384770059Y-40555892D01*
X384960535Y-40508273D01*
X385055773Y-40460654D01*
X385151011Y-40365416D01*
X385198630Y-40222559D01*
X385198630Y-39984464D01*
X385198630Y-41508273D02*
X385198630Y-40936845D01*
X385198630Y-41222559D02*
X384198630Y-41222559D01*
X384341488Y-41127321D01*
X384436726Y-41032083D01*
X384484345Y-40936845D01*
X384198630Y-42365416D02*
X384198630Y-42174940D01*
X384246250Y-42079702D01*
X384293869Y-42032083D01*
X384436726Y-41936845D01*
X384627202Y-41889226D01*
X385008154Y-41889226D01*
X385103392Y-41936845D01*
X385151011Y-41984464D01*
X385198630Y-42079702D01*
X385198630Y-42270178D01*
X385151011Y-42365416D01*
X385103392Y-42413035D01*
X385008154Y-42460654D01*
X384770059Y-42460654D01*
X384674821Y-42413035D01*
X384627202Y-42365416D01*
X384579583Y-42270178D01*
X384579583Y-42079702D01*
X384627202Y-41984464D01*
X384674821Y-41936845D01*
X384770059Y-41889226D01*
X231954880Y-85384464D02*
X230954880Y-85384464D01*
X230954880Y-85622559D01*
X231002500Y-85765416D01*
X231097738Y-85860654D01*
X231192976Y-85908273D01*
X231383452Y-85955892D01*
X231526309Y-85955892D01*
X231716785Y-85908273D01*
X231812023Y-85860654D01*
X231907261Y-85765416D01*
X231954880Y-85622559D01*
X231954880Y-85384464D01*
X231288214Y-86813035D02*
X231954880Y-86813035D01*
X230907261Y-86574940D02*
X231621547Y-86336845D01*
X231621547Y-86955892D01*
X230954880Y-87241607D02*
X230954880Y-87860654D01*
X231335833Y-87527321D01*
X231335833Y-87670178D01*
X231383452Y-87765416D01*
X231431071Y-87813035D01*
X231526309Y-87860654D01*
X231764404Y-87860654D01*
X231859642Y-87813035D01*
X231907261Y-87765416D01*
X231954880Y-87670178D01*
X231954880Y-87384464D01*
X231907261Y-87289226D01*
X231859642Y-87241607D01*
X203492380Y-104671964D02*
X202492380Y-104671964D01*
X202492380Y-104910059D01*
X202540000Y-105052916D01*
X202635238Y-105148154D01*
X202730476Y-105195773D01*
X202920952Y-105243392D01*
X203063809Y-105243392D01*
X203254285Y-105195773D01*
X203349523Y-105148154D01*
X203444761Y-105052916D01*
X203492380Y-104910059D01*
X203492380Y-104671964D01*
X202492380Y-106148154D02*
X202492380Y-105671964D01*
X202968571Y-105624345D01*
X202920952Y-105671964D01*
X202873333Y-105767202D01*
X202873333Y-106005297D01*
X202920952Y-106100535D01*
X202968571Y-106148154D01*
X203063809Y-106195773D01*
X203301904Y-106195773D01*
X203397142Y-106148154D01*
X203444761Y-106100535D01*
X203492380Y-106005297D01*
X203492380Y-105767202D01*
X203444761Y-105671964D01*
X203397142Y-105624345D01*
X202920952Y-106767202D02*
X202873333Y-106671964D01*
X202825714Y-106624345D01*
X202730476Y-106576726D01*
X202682857Y-106576726D01*
X202587619Y-106624345D01*
X202540000Y-106671964D01*
X202492380Y-106767202D01*
X202492380Y-106957678D01*
X202540000Y-107052916D01*
X202587619Y-107100535D01*
X202682857Y-107148154D01*
X202730476Y-107148154D01*
X202825714Y-107100535D01*
X202873333Y-107052916D01*
X202920952Y-106957678D01*
X202920952Y-106767202D01*
X202968571Y-106671964D01*
X203016190Y-106624345D01*
X203111428Y-106576726D01*
X203301904Y-106576726D01*
X203397142Y-106624345D01*
X203444761Y-106671964D01*
X203492380Y-106767202D01*
X203492380Y-106957678D01*
X203444761Y-107052916D01*
X203397142Y-107100535D01*
X203301904Y-107148154D01*
X203111428Y-107148154D01*
X203016190Y-107100535D01*
X202968571Y-107052916D01*
X202920952Y-106957678D01*
X251054880Y-123721964D02*
X250054880Y-123721964D01*
X250054880Y-123960059D01*
X250102500Y-124102916D01*
X250197738Y-124198154D01*
X250292976Y-124245773D01*
X250483452Y-124293392D01*
X250626309Y-124293392D01*
X250816785Y-124245773D01*
X250912023Y-124198154D01*
X251007261Y-124102916D01*
X251054880Y-123960059D01*
X251054880Y-123721964D01*
X250054880Y-124626726D02*
X250054880Y-125293392D01*
X251054880Y-124864821D01*
X250054880Y-125579107D02*
X250054880Y-126198154D01*
X250435833Y-125864821D01*
X250435833Y-126007678D01*
X250483452Y-126102916D01*
X250531071Y-126150535D01*
X250626309Y-126198154D01*
X250864404Y-126198154D01*
X250959642Y-126150535D01*
X251007261Y-126102916D01*
X251054880Y-126007678D01*
X251054880Y-125721964D01*
X251007261Y-125626726D01*
X250959642Y-125579107D01*
X108242380Y-104671964D02*
X107242380Y-104671964D01*
X107242380Y-104910059D01*
X107290000Y-105052916D01*
X107385238Y-105148154D01*
X107480476Y-105195773D01*
X107670952Y-105243392D01*
X107813809Y-105243392D01*
X108004285Y-105195773D01*
X108099523Y-105148154D01*
X108194761Y-105052916D01*
X108242380Y-104910059D01*
X108242380Y-104671964D01*
X107242380Y-106148154D02*
X107242380Y-105671964D01*
X107718571Y-105624345D01*
X107670952Y-105671964D01*
X107623333Y-105767202D01*
X107623333Y-106005297D01*
X107670952Y-106100535D01*
X107718571Y-106148154D01*
X107813809Y-106195773D01*
X108051904Y-106195773D01*
X108147142Y-106148154D01*
X108194761Y-106100535D01*
X108242380Y-106005297D01*
X108242380Y-105767202D01*
X108194761Y-105671964D01*
X108147142Y-105624345D01*
X107242380Y-106529107D02*
X107242380Y-107148154D01*
X107623333Y-106814821D01*
X107623333Y-106957678D01*
X107670952Y-107052916D01*
X107718571Y-107100535D01*
X107813809Y-107148154D01*
X108051904Y-107148154D01*
X108147142Y-107100535D01*
X108194761Y-107052916D01*
X108242380Y-106957678D01*
X108242380Y-106671964D01*
X108194761Y-106576726D01*
X108147142Y-106529107D01*
X366148630Y-123721964D02*
X365148630Y-123721964D01*
X365148630Y-123960059D01*
X365196250Y-124102916D01*
X365291488Y-124198154D01*
X365386726Y-124245773D01*
X365577202Y-124293392D01*
X365720059Y-124293392D01*
X365910535Y-124245773D01*
X366005773Y-124198154D01*
X366101011Y-124102916D01*
X366148630Y-123960059D01*
X366148630Y-123721964D01*
X365148630Y-124626726D02*
X365148630Y-125293392D01*
X366148630Y-124864821D01*
X365148630Y-126102916D02*
X365148630Y-125912440D01*
X365196250Y-125817202D01*
X365243869Y-125769583D01*
X365386726Y-125674345D01*
X365577202Y-125626726D01*
X365958154Y-125626726D01*
X366053392Y-125674345D01*
X366101011Y-125721964D01*
X366148630Y-125817202D01*
X366148630Y-126007678D01*
X366101011Y-126102916D01*
X366053392Y-126150535D01*
X365958154Y-126198154D01*
X365720059Y-126198154D01*
X365624821Y-126150535D01*
X365577202Y-126102916D01*
X365529583Y-126007678D01*
X365529583Y-125817202D01*
X365577202Y-125721964D01*
X365624821Y-125674345D01*
X365720059Y-125626726D01*
X81986130Y-142771964D02*
X80986130Y-142771964D01*
X80986130Y-143010059D01*
X81033750Y-143152916D01*
X81128988Y-143248154D01*
X81224226Y-143295773D01*
X81414702Y-143343392D01*
X81557559Y-143343392D01*
X81748035Y-143295773D01*
X81843273Y-143248154D01*
X81938511Y-143152916D01*
X81986130Y-143010059D01*
X81986130Y-142771964D01*
X80986130Y-143676726D02*
X80986130Y-144343392D01*
X81986130Y-143914821D01*
X81414702Y-144867202D02*
X81367083Y-144771964D01*
X81319464Y-144724345D01*
X81224226Y-144676726D01*
X81176607Y-144676726D01*
X81081369Y-144724345D01*
X81033750Y-144771964D01*
X80986130Y-144867202D01*
X80986130Y-145057678D01*
X81033750Y-145152916D01*
X81081369Y-145200535D01*
X81176607Y-145248154D01*
X81224226Y-145248154D01*
X81319464Y-145200535D01*
X81367083Y-145152916D01*
X81414702Y-145057678D01*
X81414702Y-144867202D01*
X81462321Y-144771964D01*
X81509940Y-144724345D01*
X81605178Y-144676726D01*
X81795654Y-144676726D01*
X81890892Y-144724345D01*
X81938511Y-144771964D01*
X81986130Y-144867202D01*
X81986130Y-145057678D01*
X81938511Y-145152916D01*
X81890892Y-145200535D01*
X81795654Y-145248154D01*
X81605178Y-145248154D01*
X81509940Y-145200535D01*
X81462321Y-145152916D01*
X81414702Y-145057678D01*
X222542380Y-104671964D02*
X221542380Y-104671964D01*
X221542380Y-104910059D01*
X221590000Y-105052916D01*
X221685238Y-105148154D01*
X221780476Y-105195773D01*
X221970952Y-105243392D01*
X222113809Y-105243392D01*
X222304285Y-105195773D01*
X222399523Y-105148154D01*
X222494761Y-105052916D01*
X222542380Y-104910059D01*
X222542380Y-104671964D01*
X221542380Y-106148154D02*
X221542380Y-105671964D01*
X222018571Y-105624345D01*
X221970952Y-105671964D01*
X221923333Y-105767202D01*
X221923333Y-106005297D01*
X221970952Y-106100535D01*
X222018571Y-106148154D01*
X222113809Y-106195773D01*
X222351904Y-106195773D01*
X222447142Y-106148154D01*
X222494761Y-106100535D01*
X222542380Y-106005297D01*
X222542380Y-105767202D01*
X222494761Y-105671964D01*
X222447142Y-105624345D01*
X222542380Y-106671964D02*
X222542380Y-106862440D01*
X222494761Y-106957678D01*
X222447142Y-107005297D01*
X222304285Y-107100535D01*
X222113809Y-107148154D01*
X221732857Y-107148154D01*
X221637619Y-107100535D01*
X221590000Y-107052916D01*
X221542380Y-106957678D01*
X221542380Y-106767202D01*
X221590000Y-106671964D01*
X221637619Y-106624345D01*
X221732857Y-106576726D01*
X221970952Y-106576726D01*
X222066190Y-106624345D01*
X222113809Y-106671964D01*
X222161428Y-106767202D01*
X222161428Y-106957678D01*
X222113809Y-107052916D01*
X222066190Y-107100535D01*
X221970952Y-107148154D01*
X305823630Y-123721964D02*
X304823630Y-123721964D01*
X304823630Y-123960059D01*
X304871250Y-124102916D01*
X304966488Y-124198154D01*
X305061726Y-124245773D01*
X305252202Y-124293392D01*
X305395059Y-124293392D01*
X305585535Y-124245773D01*
X305680773Y-124198154D01*
X305776011Y-124102916D01*
X305823630Y-123960059D01*
X305823630Y-123721964D01*
X304823630Y-124626726D02*
X304823630Y-125293392D01*
X305823630Y-124864821D01*
X304823630Y-126150535D02*
X304823630Y-125674345D01*
X305299821Y-125626726D01*
X305252202Y-125674345D01*
X305204583Y-125769583D01*
X305204583Y-126007678D01*
X305252202Y-126102916D01*
X305299821Y-126150535D01*
X305395059Y-126198154D01*
X305633154Y-126198154D01*
X305728392Y-126150535D01*
X305776011Y-126102916D01*
X305823630Y-126007678D01*
X305823630Y-125769583D01*
X305776011Y-125674345D01*
X305728392Y-125626726D01*
X347473333Y-24658571D02*
X347806666Y-24658571D01*
X347806666Y-25182380D02*
X347806666Y-24182380D01*
X347330476Y-24182380D01*
X346616190Y-24658571D02*
X346473333Y-24706190D01*
X346425714Y-24753809D01*
X346378095Y-24849047D01*
X346378095Y-24991904D01*
X346425714Y-25087142D01*
X346473333Y-25134761D01*
X346568571Y-25182380D01*
X346949523Y-25182380D01*
X346949523Y-24182380D01*
X346616190Y-24182380D01*
X346520952Y-24230000D01*
X346473333Y-24277619D01*
X346425714Y-24372857D01*
X346425714Y-24468095D01*
X346473333Y-24563333D01*
X346520952Y-24610952D01*
X346616190Y-24658571D01*
X346949523Y-24658571D01*
X345425714Y-25182380D02*
X345997142Y-25182380D01*
X345711428Y-25182380D02*
X345711428Y-24182380D01*
X345806666Y-24325238D01*
X345901904Y-24420476D01*
X345997142Y-24468095D01*
X57323630Y-85421964D02*
X56323630Y-85421964D01*
X56323630Y-85660059D01*
X56371250Y-85802916D01*
X56466488Y-85898154D01*
X56561726Y-85945773D01*
X56752202Y-85993392D01*
X56895059Y-85993392D01*
X57085535Y-85945773D01*
X57180773Y-85898154D01*
X57276011Y-85802916D01*
X57323630Y-85660059D01*
X57323630Y-85421964D01*
X56323630Y-86326726D02*
X56323630Y-86945773D01*
X56704583Y-86612440D01*
X56704583Y-86755297D01*
X56752202Y-86850535D01*
X56799821Y-86898154D01*
X56895059Y-86945773D01*
X57133154Y-86945773D01*
X57228392Y-86898154D01*
X57276011Y-86850535D01*
X57323630Y-86755297D01*
X57323630Y-86469583D01*
X57276011Y-86374345D01*
X57228392Y-86326726D01*
X56656964Y-87802916D02*
X57323630Y-87802916D01*
X56276011Y-87564821D02*
X56990297Y-87326726D01*
X56990297Y-87945773D01*
X112942380Y-66571964D02*
X111942380Y-66571964D01*
X111942380Y-66810059D01*
X111990000Y-66952916D01*
X112085238Y-67048154D01*
X112180476Y-67095773D01*
X112370952Y-67143392D01*
X112513809Y-67143392D01*
X112704285Y-67095773D01*
X112799523Y-67048154D01*
X112894761Y-66952916D01*
X112942380Y-66810059D01*
X112942380Y-66571964D01*
X112037619Y-67524345D02*
X111990000Y-67571964D01*
X111942380Y-67667202D01*
X111942380Y-67905297D01*
X111990000Y-68000535D01*
X112037619Y-68048154D01*
X112132857Y-68095773D01*
X112228095Y-68095773D01*
X112370952Y-68048154D01*
X112942380Y-67476726D01*
X112942380Y-68095773D01*
X111942380Y-68714821D02*
X111942380Y-68810059D01*
X111990000Y-68905297D01*
X112037619Y-68952916D01*
X112132857Y-69000535D01*
X112323333Y-69048154D01*
X112561428Y-69048154D01*
X112751904Y-69000535D01*
X112847142Y-68952916D01*
X112894761Y-68905297D01*
X112942380Y-68810059D01*
X112942380Y-68714821D01*
X112894761Y-68619583D01*
X112847142Y-68571964D01*
X112751904Y-68524345D01*
X112561428Y-68476726D01*
X112323333Y-68476726D01*
X112132857Y-68524345D01*
X112037619Y-68571964D01*
X111990000Y-68619583D01*
X111942380Y-68714821D01*
X366029880Y-84528214D02*
X365029880Y-84528214D01*
X365029880Y-84766309D01*
X365077500Y-84909166D01*
X365172738Y-85004404D01*
X365267976Y-85052023D01*
X365458452Y-85099642D01*
X365601309Y-85099642D01*
X365791785Y-85052023D01*
X365887023Y-85004404D01*
X365982261Y-84909166D01*
X366029880Y-84766309D01*
X366029880Y-84528214D01*
X365363214Y-85956785D02*
X366029880Y-85956785D01*
X364982261Y-85718690D02*
X365696547Y-85480595D01*
X365696547Y-86099642D01*
X366029880Y-86528214D02*
X366029880Y-86718690D01*
X365982261Y-86813928D01*
X365934642Y-86861547D01*
X365791785Y-86956785D01*
X365601309Y-87004404D01*
X365220357Y-87004404D01*
X365125119Y-86956785D01*
X365077500Y-86909166D01*
X365029880Y-86813928D01*
X365029880Y-86623452D01*
X365077500Y-86528214D01*
X365125119Y-86480595D01*
X365220357Y-86432976D01*
X365458452Y-86432976D01*
X365553690Y-86480595D01*
X365601309Y-86528214D01*
X365648928Y-86623452D01*
X365648928Y-86813928D01*
X365601309Y-86909166D01*
X365553690Y-86956785D01*
X365458452Y-87004404D01*
X189142380Y-66571964D02*
X188142380Y-66571964D01*
X188142380Y-66810059D01*
X188190000Y-66952916D01*
X188285238Y-67048154D01*
X188380476Y-67095773D01*
X188570952Y-67143392D01*
X188713809Y-67143392D01*
X188904285Y-67095773D01*
X188999523Y-67048154D01*
X189094761Y-66952916D01*
X189142380Y-66810059D01*
X189142380Y-66571964D01*
X188237619Y-67524345D02*
X188190000Y-67571964D01*
X188142380Y-67667202D01*
X188142380Y-67905297D01*
X188190000Y-68000535D01*
X188237619Y-68048154D01*
X188332857Y-68095773D01*
X188428095Y-68095773D01*
X188570952Y-68048154D01*
X189142380Y-67476726D01*
X189142380Y-68095773D01*
X188475714Y-68952916D02*
X189142380Y-68952916D01*
X188094761Y-68714821D02*
X188809047Y-68476726D01*
X188809047Y-69095773D01*
X353228690Y-107791309D02*
X353704880Y-107791309D01*
X352704880Y-107457976D02*
X353228690Y-107791309D01*
X352704880Y-108124642D01*
X353704880Y-108981785D02*
X353704880Y-108410357D01*
X353704880Y-108696071D02*
X352704880Y-108696071D01*
X352847738Y-108600833D01*
X352942976Y-108505595D01*
X352990595Y-108410357D01*
X136754880Y-123721964D02*
X135754880Y-123721964D01*
X135754880Y-123960059D01*
X135802500Y-124102916D01*
X135897738Y-124198154D01*
X135992976Y-124245773D01*
X136183452Y-124293392D01*
X136326309Y-124293392D01*
X136516785Y-124245773D01*
X136612023Y-124198154D01*
X136707261Y-124102916D01*
X136754880Y-123960059D01*
X136754880Y-123721964D01*
X135754880Y-125150535D02*
X135754880Y-124960059D01*
X135802500Y-124864821D01*
X135850119Y-124817202D01*
X135992976Y-124721964D01*
X136183452Y-124674345D01*
X136564404Y-124674345D01*
X136659642Y-124721964D01*
X136707261Y-124769583D01*
X136754880Y-124864821D01*
X136754880Y-125055297D01*
X136707261Y-125150535D01*
X136659642Y-125198154D01*
X136564404Y-125245773D01*
X136326309Y-125245773D01*
X136231071Y-125198154D01*
X136183452Y-125150535D01*
X136135833Y-125055297D01*
X136135833Y-124864821D01*
X136183452Y-124769583D01*
X136231071Y-124721964D01*
X136326309Y-124674345D01*
X135754880Y-125579107D02*
X135754880Y-126245773D01*
X136754880Y-125817202D01*
X355206666Y-111887142D02*
X355254285Y-111934761D01*
X355397142Y-111982380D01*
X355492380Y-111982380D01*
X355635238Y-111934761D01*
X355730476Y-111839523D01*
X355778095Y-111744285D01*
X355825714Y-111553809D01*
X355825714Y-111410952D01*
X355778095Y-111220476D01*
X355730476Y-111125238D01*
X355635238Y-111030000D01*
X355492380Y-110982380D01*
X355397142Y-110982380D01*
X355254285Y-111030000D01*
X355206666Y-111077619D01*
X354349523Y-110982380D02*
X354540000Y-110982380D01*
X354635238Y-111030000D01*
X354682857Y-111077619D01*
X354778095Y-111220476D01*
X354825714Y-111410952D01*
X354825714Y-111791904D01*
X354778095Y-111887142D01*
X354730476Y-111934761D01*
X354635238Y-111982380D01*
X354444761Y-111982380D01*
X354349523Y-111934761D01*
X354301904Y-111887142D01*
X354254285Y-111791904D01*
X354254285Y-111553809D01*
X354301904Y-111458571D01*
X354349523Y-111410952D01*
X354444761Y-111363333D01*
X354635238Y-111363333D01*
X354730476Y-111410952D01*
X354778095Y-111458571D01*
X354825714Y-111553809D01*
X260642380Y-104671964D02*
X259642380Y-104671964D01*
X259642380Y-104910059D01*
X259690000Y-105052916D01*
X259785238Y-105148154D01*
X259880476Y-105195773D01*
X260070952Y-105243392D01*
X260213809Y-105243392D01*
X260404285Y-105195773D01*
X260499523Y-105148154D01*
X260594761Y-105052916D01*
X260642380Y-104910059D01*
X260642380Y-104671964D01*
X259642380Y-106100535D02*
X259642380Y-105910059D01*
X259690000Y-105814821D01*
X259737619Y-105767202D01*
X259880476Y-105671964D01*
X260070952Y-105624345D01*
X260451904Y-105624345D01*
X260547142Y-105671964D01*
X260594761Y-105719583D01*
X260642380Y-105814821D01*
X260642380Y-106005297D01*
X260594761Y-106100535D01*
X260547142Y-106148154D01*
X260451904Y-106195773D01*
X260213809Y-106195773D01*
X260118571Y-106148154D01*
X260070952Y-106100535D01*
X260023333Y-106005297D01*
X260023333Y-105814821D01*
X260070952Y-105719583D01*
X260118571Y-105671964D01*
X260213809Y-105624345D01*
X260642380Y-107148154D02*
X260642380Y-106576726D01*
X260642380Y-106862440D02*
X259642380Y-106862440D01*
X259785238Y-106767202D01*
X259880476Y-106671964D01*
X259928095Y-106576726D01*
X330456666Y-114732380D02*
X330790000Y-114256190D01*
X331028095Y-114732380D02*
X331028095Y-113732380D01*
X330647142Y-113732380D01*
X330551904Y-113780000D01*
X330504285Y-113827619D01*
X330456666Y-113922857D01*
X330456666Y-114065714D01*
X330504285Y-114160952D01*
X330551904Y-114208571D01*
X330647142Y-114256190D01*
X331028095Y-114256190D01*
X329599523Y-113732380D02*
X329790000Y-113732380D01*
X329885238Y-113780000D01*
X329932857Y-113827619D01*
X330028095Y-113970476D01*
X330075714Y-114160952D01*
X330075714Y-114541904D01*
X330028095Y-114637142D01*
X329980476Y-114684761D01*
X329885238Y-114732380D01*
X329694761Y-114732380D01*
X329599523Y-114684761D01*
X329551904Y-114637142D01*
X329504285Y-114541904D01*
X329504285Y-114303809D01*
X329551904Y-114208571D01*
X329599523Y-114160952D01*
X329694761Y-114113333D01*
X329885238Y-114113333D01*
X329980476Y-114160952D01*
X330028095Y-114208571D01*
X330075714Y-114303809D01*
X347198630Y-85821964D02*
X346198630Y-85821964D01*
X346198630Y-86060059D01*
X346246250Y-86202916D01*
X346341488Y-86298154D01*
X346436726Y-86345773D01*
X346627202Y-86393392D01*
X346770059Y-86393392D01*
X346960535Y-86345773D01*
X347055773Y-86298154D01*
X347151011Y-86202916D01*
X347198630Y-86060059D01*
X347198630Y-85821964D01*
X346531964Y-87250535D02*
X347198630Y-87250535D01*
X346151011Y-87012440D02*
X346865297Y-86774345D01*
X346865297Y-87393392D01*
X346627202Y-87917202D02*
X346579583Y-87821964D01*
X346531964Y-87774345D01*
X346436726Y-87726726D01*
X346389107Y-87726726D01*
X346293869Y-87774345D01*
X346246250Y-87821964D01*
X346198630Y-87917202D01*
X346198630Y-88107678D01*
X346246250Y-88202916D01*
X346293869Y-88250535D01*
X346389107Y-88298154D01*
X346436726Y-88298154D01*
X346531964Y-88250535D01*
X346579583Y-88202916D01*
X346627202Y-88107678D01*
X346627202Y-87917202D01*
X346674821Y-87821964D01*
X346722440Y-87774345D01*
X346817678Y-87726726D01*
X347008154Y-87726726D01*
X347103392Y-87774345D01*
X347151011Y-87821964D01*
X347198630Y-87917202D01*
X347198630Y-88107678D01*
X347151011Y-88202916D01*
X347103392Y-88250535D01*
X347008154Y-88298154D01*
X346817678Y-88298154D01*
X346722440Y-88250535D01*
X346674821Y-88202916D01*
X346627202Y-88107678D01*
X241592380Y-104671964D02*
X240592380Y-104671964D01*
X240592380Y-104910059D01*
X240640000Y-105052916D01*
X240735238Y-105148154D01*
X240830476Y-105195773D01*
X241020952Y-105243392D01*
X241163809Y-105243392D01*
X241354285Y-105195773D01*
X241449523Y-105148154D01*
X241544761Y-105052916D01*
X241592380Y-104910059D01*
X241592380Y-104671964D01*
X240592380Y-106100535D02*
X240592380Y-105910059D01*
X240640000Y-105814821D01*
X240687619Y-105767202D01*
X240830476Y-105671964D01*
X241020952Y-105624345D01*
X241401904Y-105624345D01*
X241497142Y-105671964D01*
X241544761Y-105719583D01*
X241592380Y-105814821D01*
X241592380Y-106005297D01*
X241544761Y-106100535D01*
X241497142Y-106148154D01*
X241401904Y-106195773D01*
X241163809Y-106195773D01*
X241068571Y-106148154D01*
X241020952Y-106100535D01*
X240973333Y-106005297D01*
X240973333Y-105814821D01*
X241020952Y-105719583D01*
X241068571Y-105671964D01*
X241163809Y-105624345D01*
X240592380Y-106814821D02*
X240592380Y-106910059D01*
X240640000Y-107005297D01*
X240687619Y-107052916D01*
X240782857Y-107100535D01*
X240973333Y-107148154D01*
X241211428Y-107148154D01*
X241401904Y-107100535D01*
X241497142Y-107052916D01*
X241544761Y-107005297D01*
X241592380Y-106910059D01*
X241592380Y-106814821D01*
X241544761Y-106719583D01*
X241497142Y-106671964D01*
X241401904Y-106624345D01*
X241211428Y-106576726D01*
X240973333Y-106576726D01*
X240782857Y-106624345D01*
X240687619Y-106671964D01*
X240640000Y-106719583D01*
X240592380Y-106814821D01*
X174854880Y-123721964D02*
X173854880Y-123721964D01*
X173854880Y-123960059D01*
X173902500Y-124102916D01*
X173997738Y-124198154D01*
X174092976Y-124245773D01*
X174283452Y-124293392D01*
X174426309Y-124293392D01*
X174616785Y-124245773D01*
X174712023Y-124198154D01*
X174807261Y-124102916D01*
X174854880Y-123960059D01*
X174854880Y-123721964D01*
X173854880Y-125150535D02*
X173854880Y-124960059D01*
X173902500Y-124864821D01*
X173950119Y-124817202D01*
X174092976Y-124721964D01*
X174283452Y-124674345D01*
X174664404Y-124674345D01*
X174759642Y-124721964D01*
X174807261Y-124769583D01*
X174854880Y-124864821D01*
X174854880Y-125055297D01*
X174807261Y-125150535D01*
X174759642Y-125198154D01*
X174664404Y-125245773D01*
X174426309Y-125245773D01*
X174331071Y-125198154D01*
X174283452Y-125150535D01*
X174235833Y-125055297D01*
X174235833Y-124864821D01*
X174283452Y-124769583D01*
X174331071Y-124721964D01*
X174426309Y-124674345D01*
X174854880Y-125721964D02*
X174854880Y-125912440D01*
X174807261Y-126007678D01*
X174759642Y-126055297D01*
X174616785Y-126150535D01*
X174426309Y-126198154D01*
X174045357Y-126198154D01*
X173950119Y-126150535D01*
X173902500Y-126102916D01*
X173854880Y-126007678D01*
X173854880Y-125817202D01*
X173902500Y-125721964D01*
X173950119Y-125674345D01*
X174045357Y-125626726D01*
X174283452Y-125626726D01*
X174378690Y-125674345D01*
X174426309Y-125721964D01*
X174473928Y-125817202D01*
X174473928Y-126007678D01*
X174426309Y-126102916D01*
X174378690Y-126150535D01*
X174283452Y-126198154D01*
X170092380Y-66571964D02*
X169092380Y-66571964D01*
X169092380Y-66810059D01*
X169140000Y-66952916D01*
X169235238Y-67048154D01*
X169330476Y-67095773D01*
X169520952Y-67143392D01*
X169663809Y-67143392D01*
X169854285Y-67095773D01*
X169949523Y-67048154D01*
X170044761Y-66952916D01*
X170092380Y-66810059D01*
X170092380Y-66571964D01*
X169187619Y-67524345D02*
X169140000Y-67571964D01*
X169092380Y-67667202D01*
X169092380Y-67905297D01*
X169140000Y-68000535D01*
X169187619Y-68048154D01*
X169282857Y-68095773D01*
X169378095Y-68095773D01*
X169520952Y-68048154D01*
X170092380Y-67476726D01*
X170092380Y-68095773D01*
X169092380Y-68429107D02*
X169092380Y-69048154D01*
X169473333Y-68714821D01*
X169473333Y-68857678D01*
X169520952Y-68952916D01*
X169568571Y-69000535D01*
X169663809Y-69048154D01*
X169901904Y-69048154D01*
X169997142Y-69000535D01*
X170044761Y-68952916D01*
X170092380Y-68857678D01*
X170092380Y-68571964D01*
X170044761Y-68476726D01*
X169997142Y-68429107D01*
X151042380Y-40060654D02*
X150042380Y-40060654D01*
X150042380Y-40298750D01*
X150090000Y-40441607D01*
X150185238Y-40536845D01*
X150280476Y-40584464D01*
X150470952Y-40632083D01*
X150613809Y-40632083D01*
X150804285Y-40584464D01*
X150899523Y-40536845D01*
X150994761Y-40441607D01*
X151042380Y-40298750D01*
X151042380Y-40060654D01*
X150042380Y-41536845D02*
X150042380Y-41060654D01*
X150518571Y-41013035D01*
X150470952Y-41060654D01*
X150423333Y-41155892D01*
X150423333Y-41393988D01*
X150470952Y-41489226D01*
X150518571Y-41536845D01*
X150613809Y-41584464D01*
X150851904Y-41584464D01*
X150947142Y-41536845D01*
X150994761Y-41489226D01*
X151042380Y-41393988D01*
X151042380Y-41155892D01*
X150994761Y-41060654D01*
X150947142Y-41013035D01*
X342706666Y-114957142D02*
X342754285Y-115004761D01*
X342897142Y-115052380D01*
X342992380Y-115052380D01*
X343135238Y-115004761D01*
X343230476Y-114909523D01*
X343278095Y-114814285D01*
X343325714Y-114623809D01*
X343325714Y-114480952D01*
X343278095Y-114290476D01*
X343230476Y-114195238D01*
X343135238Y-114100000D01*
X342992380Y-114052380D01*
X342897142Y-114052380D01*
X342754285Y-114100000D01*
X342706666Y-114147619D01*
X342373333Y-114052380D02*
X341754285Y-114052380D01*
X342087619Y-114433333D01*
X341944761Y-114433333D01*
X341849523Y-114480952D01*
X341801904Y-114528571D01*
X341754285Y-114623809D01*
X341754285Y-114861904D01*
X341801904Y-114957142D01*
X341849523Y-115004761D01*
X341944761Y-115052380D01*
X342230476Y-115052380D01*
X342325714Y-115004761D01*
X342373333Y-114957142D01*
X146342380Y-104671964D02*
X145342380Y-104671964D01*
X145342380Y-104910059D01*
X145390000Y-105052916D01*
X145485238Y-105148154D01*
X145580476Y-105195773D01*
X145770952Y-105243392D01*
X145913809Y-105243392D01*
X146104285Y-105195773D01*
X146199523Y-105148154D01*
X146294761Y-105052916D01*
X146342380Y-104910059D01*
X146342380Y-104671964D01*
X145342380Y-106148154D02*
X145342380Y-105671964D01*
X145818571Y-105624345D01*
X145770952Y-105671964D01*
X145723333Y-105767202D01*
X145723333Y-106005297D01*
X145770952Y-106100535D01*
X145818571Y-106148154D01*
X145913809Y-106195773D01*
X146151904Y-106195773D01*
X146247142Y-106148154D01*
X146294761Y-106100535D01*
X146342380Y-106005297D01*
X146342380Y-105767202D01*
X146294761Y-105671964D01*
X146247142Y-105624345D01*
X145342380Y-107100535D02*
X145342380Y-106624345D01*
X145818571Y-106576726D01*
X145770952Y-106624345D01*
X145723333Y-106719583D01*
X145723333Y-106957678D01*
X145770952Y-107052916D01*
X145818571Y-107100535D01*
X145913809Y-107148154D01*
X146151904Y-107148154D01*
X146247142Y-107100535D01*
X146294761Y-107052916D01*
X146342380Y-106957678D01*
X146342380Y-106719583D01*
X146294761Y-106624345D01*
X146247142Y-106576726D01*
X347098630Y-142771964D02*
X346098630Y-142771964D01*
X346098630Y-143010059D01*
X346146250Y-143152916D01*
X346241488Y-143248154D01*
X346336726Y-143295773D01*
X346527202Y-143343392D01*
X346670059Y-143343392D01*
X346860535Y-143295773D01*
X346955773Y-143248154D01*
X347051011Y-143152916D01*
X347098630Y-143010059D01*
X347098630Y-142771964D01*
X346527202Y-143914821D02*
X346479583Y-143819583D01*
X346431964Y-143771964D01*
X346336726Y-143724345D01*
X346289107Y-143724345D01*
X346193869Y-143771964D01*
X346146250Y-143819583D01*
X346098630Y-143914821D01*
X346098630Y-144105297D01*
X346146250Y-144200535D01*
X346193869Y-144248154D01*
X346289107Y-144295773D01*
X346336726Y-144295773D01*
X346431964Y-144248154D01*
X346479583Y-144200535D01*
X346527202Y-144105297D01*
X346527202Y-143914821D01*
X346574821Y-143819583D01*
X346622440Y-143771964D01*
X346717678Y-143724345D01*
X346908154Y-143724345D01*
X347003392Y-143771964D01*
X347051011Y-143819583D01*
X347098630Y-143914821D01*
X347098630Y-144105297D01*
X347051011Y-144200535D01*
X347003392Y-144248154D01*
X346908154Y-144295773D01*
X346717678Y-144295773D01*
X346622440Y-144248154D01*
X346574821Y-144200535D01*
X346527202Y-144105297D01*
X346098630Y-145200535D02*
X346098630Y-144724345D01*
X346574821Y-144676726D01*
X346527202Y-144724345D01*
X346479583Y-144819583D01*
X346479583Y-145057678D01*
X346527202Y-145152916D01*
X346574821Y-145200535D01*
X346670059Y-145248154D01*
X346908154Y-145248154D01*
X347003392Y-145200535D01*
X347051011Y-145152916D01*
X347098630Y-145057678D01*
X347098630Y-144819583D01*
X347051011Y-144724345D01*
X347003392Y-144676726D01*
X98604880Y-85384464D02*
X97604880Y-85384464D01*
X97604880Y-85622559D01*
X97652500Y-85765416D01*
X97747738Y-85860654D01*
X97842976Y-85908273D01*
X98033452Y-85955892D01*
X98176309Y-85955892D01*
X98366785Y-85908273D01*
X98462023Y-85860654D01*
X98557261Y-85765416D01*
X98604880Y-85622559D01*
X98604880Y-85384464D01*
X97604880Y-86289226D02*
X97604880Y-86908273D01*
X97985833Y-86574940D01*
X97985833Y-86717797D01*
X98033452Y-86813035D01*
X98081071Y-86860654D01*
X98176309Y-86908273D01*
X98414404Y-86908273D01*
X98509642Y-86860654D01*
X98557261Y-86813035D01*
X98604880Y-86717797D01*
X98604880Y-86432083D01*
X98557261Y-86336845D01*
X98509642Y-86289226D01*
X97604880Y-87765416D02*
X97604880Y-87574940D01*
X97652500Y-87479702D01*
X97700119Y-87432083D01*
X97842976Y-87336845D01*
X98033452Y-87289226D01*
X98414404Y-87289226D01*
X98509642Y-87336845D01*
X98557261Y-87384464D01*
X98604880Y-87479702D01*
X98604880Y-87670178D01*
X98557261Y-87765416D01*
X98509642Y-87813035D01*
X98414404Y-87860654D01*
X98176309Y-87860654D01*
X98081071Y-87813035D01*
X98033452Y-87765416D01*
X97985833Y-87670178D01*
X97985833Y-87479702D01*
X98033452Y-87384464D01*
X98081071Y-87336845D01*
X98176309Y-87289226D01*
X328756666Y-29282380D02*
X329090000Y-28806190D01*
X329328095Y-29282380D02*
X329328095Y-28282380D01*
X328947142Y-28282380D01*
X328851904Y-28330000D01*
X328804285Y-28377619D01*
X328756666Y-28472857D01*
X328756666Y-28615714D01*
X328804285Y-28710952D01*
X328851904Y-28758571D01*
X328947142Y-28806190D01*
X329328095Y-28806190D01*
X327851904Y-28282380D02*
X328328095Y-28282380D01*
X328375714Y-28758571D01*
X328328095Y-28710952D01*
X328232857Y-28663333D01*
X327994761Y-28663333D01*
X327899523Y-28710952D01*
X327851904Y-28758571D01*
X327804285Y-28853809D01*
X327804285Y-29091904D01*
X327851904Y-29187142D01*
X327899523Y-29234761D01*
X327994761Y-29282380D01*
X328232857Y-29282380D01*
X328328095Y-29234761D01*
X328375714Y-29187142D01*
X272486130Y-142771964D02*
X271486130Y-142771964D01*
X271486130Y-143010059D01*
X271533750Y-143152916D01*
X271628988Y-143248154D01*
X271724226Y-143295773D01*
X271914702Y-143343392D01*
X272057559Y-143343392D01*
X272248035Y-143295773D01*
X272343273Y-143248154D01*
X272438511Y-143152916D01*
X272486130Y-143010059D01*
X272486130Y-142771964D01*
X271914702Y-143914821D02*
X271867083Y-143819583D01*
X271819464Y-143771964D01*
X271724226Y-143724345D01*
X271676607Y-143724345D01*
X271581369Y-143771964D01*
X271533750Y-143819583D01*
X271486130Y-143914821D01*
X271486130Y-144105297D01*
X271533750Y-144200535D01*
X271581369Y-144248154D01*
X271676607Y-144295773D01*
X271724226Y-144295773D01*
X271819464Y-144248154D01*
X271867083Y-144200535D01*
X271914702Y-144105297D01*
X271914702Y-143914821D01*
X271962321Y-143819583D01*
X272009940Y-143771964D01*
X272105178Y-143724345D01*
X272295654Y-143724345D01*
X272390892Y-143771964D01*
X272438511Y-143819583D01*
X272486130Y-143914821D01*
X272486130Y-144105297D01*
X272438511Y-144200535D01*
X272390892Y-144248154D01*
X272295654Y-144295773D01*
X272105178Y-144295773D01*
X272009940Y-144248154D01*
X271962321Y-144200535D01*
X271914702Y-144105297D01*
X271581369Y-144676726D02*
X271533750Y-144724345D01*
X271486130Y-144819583D01*
X271486130Y-145057678D01*
X271533750Y-145152916D01*
X271581369Y-145200535D01*
X271676607Y-145248154D01*
X271771845Y-145248154D01*
X271914702Y-145200535D01*
X272486130Y-144629107D01*
X272486130Y-145248154D01*
X347154880Y-40184464D02*
X346154880Y-40184464D01*
X346154880Y-40422559D01*
X346202500Y-40565416D01*
X346297738Y-40660654D01*
X346392976Y-40708273D01*
X346583452Y-40755892D01*
X346726309Y-40755892D01*
X346916785Y-40708273D01*
X347012023Y-40660654D01*
X347107261Y-40565416D01*
X347154880Y-40422559D01*
X347154880Y-40184464D01*
X347154880Y-41708273D02*
X347154880Y-41136845D01*
X347154880Y-41422559D02*
X346154880Y-41422559D01*
X346297738Y-41327321D01*
X346392976Y-41232083D01*
X346440595Y-41136845D01*
X346488214Y-42565416D02*
X347154880Y-42565416D01*
X346107261Y-42327321D02*
X346821547Y-42089226D01*
X346821547Y-42708273D01*
X131992380Y-66571964D02*
X130992380Y-66571964D01*
X130992380Y-66810059D01*
X131040000Y-66952916D01*
X131135238Y-67048154D01*
X131230476Y-67095773D01*
X131420952Y-67143392D01*
X131563809Y-67143392D01*
X131754285Y-67095773D01*
X131849523Y-67048154D01*
X131944761Y-66952916D01*
X131992380Y-66810059D01*
X131992380Y-66571964D01*
X131087619Y-67524345D02*
X131040000Y-67571964D01*
X130992380Y-67667202D01*
X130992380Y-67905297D01*
X131040000Y-68000535D01*
X131087619Y-68048154D01*
X131182857Y-68095773D01*
X131278095Y-68095773D01*
X131420952Y-68048154D01*
X131992380Y-67476726D01*
X131992380Y-68095773D01*
X131992380Y-69048154D02*
X131992380Y-68476726D01*
X131992380Y-68762440D02*
X130992380Y-68762440D01*
X131135238Y-68667202D01*
X131230476Y-68571964D01*
X131278095Y-68476726D01*
X329368571Y-36484166D02*
X329368571Y-36150833D01*
X329892380Y-36150833D02*
X328892380Y-36150833D01*
X328892380Y-36627023D01*
X329892380Y-37531785D02*
X329892380Y-36960357D01*
X329892380Y-37246071D02*
X328892380Y-37246071D01*
X329035238Y-37150833D01*
X329130476Y-37055595D01*
X329178095Y-36960357D01*
X347327142Y-103863333D02*
X347374761Y-103815714D01*
X347422380Y-103672857D01*
X347422380Y-103577619D01*
X347374761Y-103434761D01*
X347279523Y-103339523D01*
X347184285Y-103291904D01*
X346993809Y-103244285D01*
X346850952Y-103244285D01*
X346660476Y-103291904D01*
X346565238Y-103339523D01*
X346470000Y-103434761D01*
X346422380Y-103577619D01*
X346422380Y-103672857D01*
X346470000Y-103815714D01*
X346517619Y-103863333D01*
X346517619Y-104244285D02*
X346470000Y-104291904D01*
X346422380Y-104387142D01*
X346422380Y-104625238D01*
X346470000Y-104720476D01*
X346517619Y-104768095D01*
X346612857Y-104815714D01*
X346708095Y-104815714D01*
X346850952Y-104768095D01*
X347422380Y-104196666D01*
X347422380Y-104815714D01*
X55792380Y-66778214D02*
X54792380Y-66778214D01*
X54792380Y-67016309D01*
X54840000Y-67159166D01*
X54935238Y-67254404D01*
X55030476Y-67302023D01*
X55220952Y-67349642D01*
X55363809Y-67349642D01*
X55554285Y-67302023D01*
X55649523Y-67254404D01*
X55744761Y-67159166D01*
X55792380Y-67016309D01*
X55792380Y-66778214D01*
X55792380Y-68302023D02*
X55792380Y-67730595D01*
X55792380Y-68016309D02*
X54792380Y-68016309D01*
X54935238Y-67921071D01*
X55030476Y-67825833D01*
X55078095Y-67730595D01*
X54792380Y-68635357D02*
X54792380Y-69302023D01*
X55792380Y-68873452D01*
X265648630Y-39984464D02*
X264648630Y-39984464D01*
X264648630Y-40222559D01*
X264696250Y-40365416D01*
X264791488Y-40460654D01*
X264886726Y-40508273D01*
X265077202Y-40555892D01*
X265220059Y-40555892D01*
X265410535Y-40508273D01*
X265505773Y-40460654D01*
X265601011Y-40365416D01*
X265648630Y-40222559D01*
X265648630Y-39984464D01*
X265648630Y-41508273D02*
X265648630Y-40936845D01*
X265648630Y-41222559D02*
X264648630Y-41222559D01*
X264791488Y-41127321D01*
X264886726Y-41032083D01*
X264934345Y-40936845D01*
X264648630Y-42127321D02*
X264648630Y-42222559D01*
X264696250Y-42317797D01*
X264743869Y-42365416D01*
X264839107Y-42413035D01*
X265029583Y-42460654D01*
X265267678Y-42460654D01*
X265458154Y-42413035D01*
X265553392Y-42365416D01*
X265601011Y-42317797D01*
X265648630Y-42222559D01*
X265648630Y-42127321D01*
X265601011Y-42032083D01*
X265553392Y-41984464D01*
X265458154Y-41936845D01*
X265267678Y-41889226D01*
X265029583Y-41889226D01*
X264839107Y-41936845D01*
X264743869Y-41984464D01*
X264696250Y-42032083D01*
X264648630Y-42127321D01*
X338504285Y-33682380D02*
X338504285Y-32682380D01*
X338266190Y-32682380D01*
X338123333Y-32730000D01*
X338028095Y-32825238D01*
X337980476Y-32920476D01*
X337932857Y-33110952D01*
X337932857Y-33253809D01*
X337980476Y-33444285D01*
X338028095Y-33539523D01*
X338123333Y-33634761D01*
X338266190Y-33682380D01*
X338504285Y-33682380D01*
X337361428Y-33110952D02*
X337456666Y-33063333D01*
X337504285Y-33015714D01*
X337551904Y-32920476D01*
X337551904Y-32872857D01*
X337504285Y-32777619D01*
X337456666Y-32730000D01*
X337361428Y-32682380D01*
X337170952Y-32682380D01*
X337075714Y-32730000D01*
X337028095Y-32777619D01*
X336980476Y-32872857D01*
X336980476Y-32920476D01*
X337028095Y-33015714D01*
X337075714Y-33063333D01*
X337170952Y-33110952D01*
X337361428Y-33110952D01*
X337456666Y-33158571D01*
X337504285Y-33206190D01*
X337551904Y-33301428D01*
X337551904Y-33491904D01*
X337504285Y-33587142D01*
X337456666Y-33634761D01*
X337361428Y-33682380D01*
X337170952Y-33682380D01*
X337075714Y-33634761D01*
X337028095Y-33587142D01*
X336980476Y-33491904D01*
X336980476Y-33301428D01*
X337028095Y-33206190D01*
X337075714Y-33158571D01*
X337170952Y-33110952D01*
X336409047Y-33110952D02*
X336504285Y-33063333D01*
X336551904Y-33015714D01*
X336599523Y-32920476D01*
X336599523Y-32872857D01*
X336551904Y-32777619D01*
X336504285Y-32730000D01*
X336409047Y-32682380D01*
X336218571Y-32682380D01*
X336123333Y-32730000D01*
X336075714Y-32777619D01*
X336028095Y-32872857D01*
X336028095Y-32920476D01*
X336075714Y-33015714D01*
X336123333Y-33063333D01*
X336218571Y-33110952D01*
X336409047Y-33110952D01*
X336504285Y-33158571D01*
X336551904Y-33206190D01*
X336599523Y-33301428D01*
X336599523Y-33491904D01*
X336551904Y-33587142D01*
X336504285Y-33634761D01*
X336409047Y-33682380D01*
X336218571Y-33682380D01*
X336123333Y-33634761D01*
X336075714Y-33587142D01*
X336028095Y-33491904D01*
X336028095Y-33301428D01*
X336075714Y-33206190D01*
X336123333Y-33158571D01*
X336218571Y-33110952D01*
X117654880Y-85384464D02*
X116654880Y-85384464D01*
X116654880Y-85622559D01*
X116702500Y-85765416D01*
X116797738Y-85860654D01*
X116892976Y-85908273D01*
X117083452Y-85955892D01*
X117226309Y-85955892D01*
X117416785Y-85908273D01*
X117512023Y-85860654D01*
X117607261Y-85765416D01*
X117654880Y-85622559D01*
X117654880Y-85384464D01*
X116654880Y-86289226D02*
X116654880Y-86908273D01*
X117035833Y-86574940D01*
X117035833Y-86717797D01*
X117083452Y-86813035D01*
X117131071Y-86860654D01*
X117226309Y-86908273D01*
X117464404Y-86908273D01*
X117559642Y-86860654D01*
X117607261Y-86813035D01*
X117654880Y-86717797D01*
X117654880Y-86432083D01*
X117607261Y-86336845D01*
X117559642Y-86289226D01*
X116654880Y-87241607D02*
X116654880Y-87908273D01*
X117654880Y-87479702D01*
X216923630Y-40060654D02*
X215923630Y-40060654D01*
X215923630Y-40298750D01*
X215971250Y-40441607D01*
X216066488Y-40536845D01*
X216161726Y-40584464D01*
X216352202Y-40632083D01*
X216495059Y-40632083D01*
X216685535Y-40584464D01*
X216780773Y-40536845D01*
X216876011Y-40441607D01*
X216923630Y-40298750D01*
X216923630Y-40060654D01*
X216352202Y-41203511D02*
X216304583Y-41108273D01*
X216256964Y-41060654D01*
X216161726Y-41013035D01*
X216114107Y-41013035D01*
X216018869Y-41060654D01*
X215971250Y-41108273D01*
X215923630Y-41203511D01*
X215923630Y-41393988D01*
X215971250Y-41489226D01*
X216018869Y-41536845D01*
X216114107Y-41584464D01*
X216161726Y-41584464D01*
X216256964Y-41536845D01*
X216304583Y-41489226D01*
X216352202Y-41393988D01*
X216352202Y-41203511D01*
X216399821Y-41108273D01*
X216447440Y-41060654D01*
X216542678Y-41013035D01*
X216733154Y-41013035D01*
X216828392Y-41060654D01*
X216876011Y-41108273D01*
X216923630Y-41203511D01*
X216923630Y-41393988D01*
X216876011Y-41489226D01*
X216828392Y-41536845D01*
X216733154Y-41584464D01*
X216542678Y-41584464D01*
X216447440Y-41536845D01*
X216399821Y-41489226D01*
X216352202Y-41393988D01*
X92598630Y-39366904D02*
X91598630Y-39366904D01*
X91598630Y-39605000D01*
X91646250Y-39747857D01*
X91741488Y-39843095D01*
X91836726Y-39890714D01*
X92027202Y-39938333D01*
X92170059Y-39938333D01*
X92360535Y-39890714D01*
X92455773Y-39843095D01*
X92551011Y-39747857D01*
X92598630Y-39605000D01*
X92598630Y-39366904D01*
X91693869Y-40319285D02*
X91646250Y-40366904D01*
X91598630Y-40462142D01*
X91598630Y-40700238D01*
X91646250Y-40795476D01*
X91693869Y-40843095D01*
X91789107Y-40890714D01*
X91884345Y-40890714D01*
X92027202Y-40843095D01*
X92598630Y-40271666D01*
X92598630Y-40890714D01*
X395011904Y-101590000D02*
X395107142Y-101542380D01*
X395250000Y-101542380D01*
X395392857Y-101590000D01*
X395488095Y-101685238D01*
X395535714Y-101780476D01*
X395583333Y-101970952D01*
X395583333Y-102113809D01*
X395535714Y-102304285D01*
X395488095Y-102399523D01*
X395392857Y-102494761D01*
X395250000Y-102542380D01*
X395154761Y-102542380D01*
X395011904Y-102494761D01*
X394964285Y-102447142D01*
X394964285Y-102113809D01*
X395154761Y-102113809D01*
X394535714Y-102542380D02*
X394535714Y-101542380D01*
X393964285Y-102542380D01*
X393964285Y-101542380D01*
X393488095Y-102542380D02*
X393488095Y-101542380D01*
X393250000Y-101542380D01*
X393107142Y-101590000D01*
X393011904Y-101685238D01*
X392964285Y-101780476D01*
X392916666Y-101970952D01*
X392916666Y-102113809D01*
X392964285Y-102304285D01*
X393011904Y-102399523D01*
X393107142Y-102494761D01*
X393250000Y-102542380D01*
X393488095Y-102542380D01*
X395941428Y-104732380D02*
X395941428Y-103732380D01*
X395608095Y-104446666D01*
X395274761Y-103732380D01*
X395274761Y-104732380D01*
X394608095Y-103732380D02*
X394417619Y-103732380D01*
X394322380Y-103780000D01*
X394227142Y-103875238D01*
X394179523Y-104065714D01*
X394179523Y-104399047D01*
X394227142Y-104589523D01*
X394322380Y-104684761D01*
X394417619Y-104732380D01*
X394608095Y-104732380D01*
X394703333Y-104684761D01*
X394798571Y-104589523D01*
X394846190Y-104399047D01*
X394846190Y-104065714D01*
X394798571Y-103875238D01*
X394703333Y-103780000D01*
X394608095Y-103732380D01*
X393798571Y-104684761D02*
X393655714Y-104732380D01*
X393417619Y-104732380D01*
X393322380Y-104684761D01*
X393274761Y-104637142D01*
X393227142Y-104541904D01*
X393227142Y-104446666D01*
X393274761Y-104351428D01*
X393322380Y-104303809D01*
X393417619Y-104256190D01*
X393608095Y-104208571D01*
X393703333Y-104160952D01*
X393750952Y-104113333D01*
X393798571Y-104018095D01*
X393798571Y-103922857D01*
X393750952Y-103827619D01*
X393703333Y-103780000D01*
X393608095Y-103732380D01*
X393370000Y-103732380D01*
X393227142Y-103780000D01*
X392798571Y-104732380D02*
X392798571Y-103732380D01*
X386698869Y-102351130D02*
X387032202Y-101874940D01*
X387270297Y-102351130D02*
X387270297Y-101351130D01*
X386889345Y-101351130D01*
X386794107Y-101398750D01*
X386746488Y-101446369D01*
X386698869Y-101541607D01*
X386698869Y-101684464D01*
X386746488Y-101779702D01*
X386794107Y-101827321D01*
X386889345Y-101874940D01*
X387270297Y-101874940D01*
X386317916Y-102303511D02*
X386175059Y-102351130D01*
X385936964Y-102351130D01*
X385841726Y-102303511D01*
X385794107Y-102255892D01*
X385746488Y-102160654D01*
X385746488Y-102065416D01*
X385794107Y-101970178D01*
X385841726Y-101922559D01*
X385936964Y-101874940D01*
X386127440Y-101827321D01*
X386222678Y-101779702D01*
X386270297Y-101732083D01*
X386317916Y-101636845D01*
X386317916Y-101541607D01*
X386270297Y-101446369D01*
X386222678Y-101398750D01*
X386127440Y-101351130D01*
X385889345Y-101351130D01*
X385746488Y-101398750D01*
X385460773Y-101351130D02*
X384889345Y-101351130D01*
X385175059Y-102351130D02*
X385175059Y-101351130D01*
X387405714Y-104684761D02*
X387262857Y-104732380D01*
X387024761Y-104732380D01*
X386929523Y-104684761D01*
X386881904Y-104637142D01*
X386834285Y-104541904D01*
X386834285Y-104446666D01*
X386881904Y-104351428D01*
X386929523Y-104303809D01*
X387024761Y-104256190D01*
X387215238Y-104208571D01*
X387310476Y-104160952D01*
X387358095Y-104113333D01*
X387405714Y-104018095D01*
X387405714Y-103922857D01*
X387358095Y-103827619D01*
X387310476Y-103780000D01*
X387215238Y-103732380D01*
X386977142Y-103732380D01*
X386834285Y-103780000D01*
X385834285Y-104637142D02*
X385881904Y-104684761D01*
X386024761Y-104732380D01*
X386120000Y-104732380D01*
X386262857Y-104684761D01*
X386358095Y-104589523D01*
X386405714Y-104494285D01*
X386453333Y-104303809D01*
X386453333Y-104160952D01*
X386405714Y-103970476D01*
X386358095Y-103875238D01*
X386262857Y-103780000D01*
X386120000Y-103732380D01*
X386024761Y-103732380D01*
X385881904Y-103780000D01*
X385834285Y-103827619D01*
X385405714Y-104732380D02*
X385405714Y-103732380D01*
X384834285Y-104732380D02*
X385262857Y-104160952D01*
X384834285Y-103732380D02*
X385405714Y-104303809D01*
X395453333Y-106232380D02*
X395120000Y-107232380D01*
X394786666Y-106232380D01*
X393881904Y-107137142D02*
X393929523Y-107184761D01*
X394072380Y-107232380D01*
X394167619Y-107232380D01*
X394310476Y-107184761D01*
X394405714Y-107089523D01*
X394453333Y-106994285D01*
X394500952Y-106803809D01*
X394500952Y-106660952D01*
X394453333Y-106470476D01*
X394405714Y-106375238D01*
X394310476Y-106280000D01*
X394167619Y-106232380D01*
X394072380Y-106232380D01*
X393929523Y-106280000D01*
X393881904Y-106327619D01*
X392881904Y-107137142D02*
X392929523Y-107184761D01*
X393072380Y-107232380D01*
X393167619Y-107232380D01*
X393310476Y-107184761D01*
X393405714Y-107089523D01*
X393453333Y-106994285D01*
X393500952Y-106803809D01*
X393500952Y-106660952D01*
X393453333Y-106470476D01*
X393405714Y-106375238D01*
X393310476Y-106280000D01*
X393167619Y-106232380D01*
X393072380Y-106232380D01*
X392929523Y-106280000D01*
X392881904Y-106327619D01*
X105798630Y-142771964D02*
X104798630Y-142771964D01*
X104798630Y-143010059D01*
X104846250Y-143152916D01*
X104941488Y-143248154D01*
X105036726Y-143295773D01*
X105227202Y-143343392D01*
X105370059Y-143343392D01*
X105560535Y-143295773D01*
X105655773Y-143248154D01*
X105751011Y-143152916D01*
X105798630Y-143010059D01*
X105798630Y-142771964D01*
X104798630Y-143676726D02*
X104798630Y-144343392D01*
X105798630Y-143914821D01*
X105798630Y-144771964D02*
X105798630Y-144962440D01*
X105751011Y-145057678D01*
X105703392Y-145105297D01*
X105560535Y-145200535D01*
X105370059Y-145248154D01*
X104989107Y-145248154D01*
X104893869Y-145200535D01*
X104846250Y-145152916D01*
X104798630Y-145057678D01*
X104798630Y-144867202D01*
X104846250Y-144771964D01*
X104893869Y-144724345D01*
X104989107Y-144676726D01*
X105227202Y-144676726D01*
X105322440Y-144724345D01*
X105370059Y-144771964D01*
X105417678Y-144867202D01*
X105417678Y-145057678D01*
X105370059Y-145152916D01*
X105322440Y-145200535D01*
X105227202Y-145248154D01*
X178823630Y-40060654D02*
X177823630Y-40060654D01*
X177823630Y-40298750D01*
X177871250Y-40441607D01*
X177966488Y-40536845D01*
X178061726Y-40584464D01*
X178252202Y-40632083D01*
X178395059Y-40632083D01*
X178585535Y-40584464D01*
X178680773Y-40536845D01*
X178776011Y-40441607D01*
X178823630Y-40298750D01*
X178823630Y-40060654D01*
X177823630Y-41489226D02*
X177823630Y-41298750D01*
X177871250Y-41203511D01*
X177918869Y-41155892D01*
X178061726Y-41060654D01*
X178252202Y-41013035D01*
X178633154Y-41013035D01*
X178728392Y-41060654D01*
X178776011Y-41108273D01*
X178823630Y-41203511D01*
X178823630Y-41393988D01*
X178776011Y-41489226D01*
X178728392Y-41536845D01*
X178633154Y-41584464D01*
X178395059Y-41584464D01*
X178299821Y-41536845D01*
X178252202Y-41489226D01*
X178204583Y-41393988D01*
X178204583Y-41203511D01*
X178252202Y-41108273D01*
X178299821Y-41060654D01*
X178395059Y-41013035D01*
X366498630Y-66571964D02*
X365498630Y-66571964D01*
X365498630Y-66810059D01*
X365546250Y-66952916D01*
X365641488Y-67048154D01*
X365736726Y-67095773D01*
X365927202Y-67143392D01*
X366070059Y-67143392D01*
X366260535Y-67095773D01*
X366355773Y-67048154D01*
X366451011Y-66952916D01*
X366498630Y-66810059D01*
X366498630Y-66571964D01*
X365498630Y-67476726D02*
X365498630Y-68095773D01*
X365879583Y-67762440D01*
X365879583Y-67905297D01*
X365927202Y-68000535D01*
X365974821Y-68048154D01*
X366070059Y-68095773D01*
X366308154Y-68095773D01*
X366403392Y-68048154D01*
X366451011Y-68000535D01*
X366498630Y-67905297D01*
X366498630Y-67619583D01*
X366451011Y-67524345D01*
X366403392Y-67476726D01*
X365593869Y-68476726D02*
X365546250Y-68524345D01*
X365498630Y-68619583D01*
X365498630Y-68857678D01*
X365546250Y-68952916D01*
X365593869Y-69000535D01*
X365689107Y-69048154D01*
X365784345Y-69048154D01*
X365927202Y-69000535D01*
X366498630Y-68429107D01*
X366498630Y-69048154D01*
X117704880Y-123721964D02*
X116704880Y-123721964D01*
X116704880Y-123960059D01*
X116752500Y-124102916D01*
X116847738Y-124198154D01*
X116942976Y-124245773D01*
X117133452Y-124293392D01*
X117276309Y-124293392D01*
X117466785Y-124245773D01*
X117562023Y-124198154D01*
X117657261Y-124102916D01*
X117704880Y-123960059D01*
X117704880Y-123721964D01*
X116704880Y-125150535D02*
X116704880Y-124960059D01*
X116752500Y-124864821D01*
X116800119Y-124817202D01*
X116942976Y-124721964D01*
X117133452Y-124674345D01*
X117514404Y-124674345D01*
X117609642Y-124721964D01*
X117657261Y-124769583D01*
X117704880Y-124864821D01*
X117704880Y-125055297D01*
X117657261Y-125150535D01*
X117609642Y-125198154D01*
X117514404Y-125245773D01*
X117276309Y-125245773D01*
X117181071Y-125198154D01*
X117133452Y-125150535D01*
X117085833Y-125055297D01*
X117085833Y-124864821D01*
X117133452Y-124769583D01*
X117181071Y-124721964D01*
X117276309Y-124674345D01*
X116704880Y-126102916D02*
X116704880Y-125912440D01*
X116752500Y-125817202D01*
X116800119Y-125769583D01*
X116942976Y-125674345D01*
X117133452Y-125626726D01*
X117514404Y-125626726D01*
X117609642Y-125674345D01*
X117657261Y-125721964D01*
X117704880Y-125817202D01*
X117704880Y-126007678D01*
X117657261Y-126102916D01*
X117609642Y-126150535D01*
X117514404Y-126198154D01*
X117276309Y-126198154D01*
X117181071Y-126150535D01*
X117133452Y-126102916D01*
X117085833Y-126007678D01*
X117085833Y-125817202D01*
X117133452Y-125721964D01*
X117181071Y-125674345D01*
X117276309Y-125626726D01*
X197873630Y-40060654D02*
X196873630Y-40060654D01*
X196873630Y-40298750D01*
X196921250Y-40441607D01*
X197016488Y-40536845D01*
X197111726Y-40584464D01*
X197302202Y-40632083D01*
X197445059Y-40632083D01*
X197635535Y-40584464D01*
X197730773Y-40536845D01*
X197826011Y-40441607D01*
X197873630Y-40298750D01*
X197873630Y-40060654D01*
X196873630Y-40965416D02*
X196873630Y-41632083D01*
X197873630Y-41203511D01*
X270054880Y-85384464D02*
X269054880Y-85384464D01*
X269054880Y-85622559D01*
X269102500Y-85765416D01*
X269197738Y-85860654D01*
X269292976Y-85908273D01*
X269483452Y-85955892D01*
X269626309Y-85955892D01*
X269816785Y-85908273D01*
X269912023Y-85860654D01*
X270007261Y-85765416D01*
X270054880Y-85622559D01*
X270054880Y-85384464D01*
X269388214Y-86813035D02*
X270054880Y-86813035D01*
X269007261Y-86574940D02*
X269721547Y-86336845D01*
X269721547Y-86955892D01*
X269054880Y-87813035D02*
X269054880Y-87336845D01*
X269531071Y-87289226D01*
X269483452Y-87336845D01*
X269435833Y-87432083D01*
X269435833Y-87670178D01*
X269483452Y-87765416D01*
X269531071Y-87813035D01*
X269626309Y-87860654D01*
X269864404Y-87860654D01*
X269959642Y-87813035D01*
X270007261Y-87765416D01*
X270054880Y-87670178D01*
X270054880Y-87432083D01*
X270007261Y-87336845D01*
X269959642Y-87289226D01*
X155804880Y-123721964D02*
X154804880Y-123721964D01*
X154804880Y-123960059D01*
X154852500Y-124102916D01*
X154947738Y-124198154D01*
X155042976Y-124245773D01*
X155233452Y-124293392D01*
X155376309Y-124293392D01*
X155566785Y-124245773D01*
X155662023Y-124198154D01*
X155757261Y-124102916D01*
X155804880Y-123960059D01*
X155804880Y-123721964D01*
X154804880Y-125150535D02*
X154804880Y-124960059D01*
X154852500Y-124864821D01*
X154900119Y-124817202D01*
X155042976Y-124721964D01*
X155233452Y-124674345D01*
X155614404Y-124674345D01*
X155709642Y-124721964D01*
X155757261Y-124769583D01*
X155804880Y-124864821D01*
X155804880Y-125055297D01*
X155757261Y-125150535D01*
X155709642Y-125198154D01*
X155614404Y-125245773D01*
X155376309Y-125245773D01*
X155281071Y-125198154D01*
X155233452Y-125150535D01*
X155185833Y-125055297D01*
X155185833Y-124864821D01*
X155233452Y-124769583D01*
X155281071Y-124721964D01*
X155376309Y-124674345D01*
X155233452Y-125817202D02*
X155185833Y-125721964D01*
X155138214Y-125674345D01*
X155042976Y-125626726D01*
X154995357Y-125626726D01*
X154900119Y-125674345D01*
X154852500Y-125721964D01*
X154804880Y-125817202D01*
X154804880Y-126007678D01*
X154852500Y-126102916D01*
X154900119Y-126150535D01*
X154995357Y-126198154D01*
X155042976Y-126198154D01*
X155138214Y-126150535D01*
X155185833Y-126102916D01*
X155233452Y-126007678D01*
X155233452Y-125817202D01*
X155281071Y-125721964D01*
X155328690Y-125674345D01*
X155423928Y-125626726D01*
X155614404Y-125626726D01*
X155709642Y-125674345D01*
X155757261Y-125721964D01*
X155804880Y-125817202D01*
X155804880Y-126007678D01*
X155757261Y-126102916D01*
X155709642Y-126150535D01*
X155614404Y-126198154D01*
X155423928Y-126198154D01*
X155328690Y-126150535D01*
X155281071Y-126102916D01*
X155233452Y-126007678D01*
X67698630Y-123721964D02*
X66698630Y-123721964D01*
X66698630Y-123960059D01*
X66746250Y-124102916D01*
X66841488Y-124198154D01*
X66936726Y-124245773D01*
X67127202Y-124293392D01*
X67270059Y-124293392D01*
X67460535Y-124245773D01*
X67555773Y-124198154D01*
X67651011Y-124102916D01*
X67698630Y-123960059D01*
X67698630Y-123721964D01*
X66698630Y-125150535D02*
X66698630Y-124960059D01*
X66746250Y-124864821D01*
X66793869Y-124817202D01*
X66936726Y-124721964D01*
X67127202Y-124674345D01*
X67508154Y-124674345D01*
X67603392Y-124721964D01*
X67651011Y-124769583D01*
X67698630Y-124864821D01*
X67698630Y-125055297D01*
X67651011Y-125150535D01*
X67603392Y-125198154D01*
X67508154Y-125245773D01*
X67270059Y-125245773D01*
X67174821Y-125198154D01*
X67127202Y-125150535D01*
X67079583Y-125055297D01*
X67079583Y-124864821D01*
X67127202Y-124769583D01*
X67174821Y-124721964D01*
X67270059Y-124674345D01*
X67031964Y-126102916D02*
X67698630Y-126102916D01*
X66651011Y-125864821D02*
X67365297Y-125626726D01*
X67365297Y-126245773D01*
X336065595Y-22182380D02*
X336065595Y-22991904D01*
X336017976Y-23087142D01*
X335970357Y-23134761D01*
X335875119Y-23182380D01*
X335684642Y-23182380D01*
X335589404Y-23134761D01*
X335541785Y-23087142D01*
X335494166Y-22991904D01*
X335494166Y-22182380D01*
X335065595Y-23134761D02*
X334922738Y-23182380D01*
X334684642Y-23182380D01*
X334589404Y-23134761D01*
X334541785Y-23087142D01*
X334494166Y-22991904D01*
X334494166Y-22896666D01*
X334541785Y-22801428D01*
X334589404Y-22753809D01*
X334684642Y-22706190D01*
X334875119Y-22658571D01*
X334970357Y-22610952D01*
X335017976Y-22563333D01*
X335065595Y-22468095D01*
X335065595Y-22372857D01*
X335017976Y-22277619D01*
X334970357Y-22230000D01*
X334875119Y-22182380D01*
X334637023Y-22182380D01*
X334494166Y-22230000D01*
X333732261Y-22658571D02*
X333589404Y-22706190D01*
X333541785Y-22753809D01*
X333494166Y-22849047D01*
X333494166Y-22991904D01*
X333541785Y-23087142D01*
X333589404Y-23134761D01*
X333684642Y-23182380D01*
X334065595Y-23182380D01*
X334065595Y-22182380D01*
X333732261Y-22182380D01*
X333637023Y-22230000D01*
X333589404Y-22277619D01*
X333541785Y-22372857D01*
X333541785Y-22468095D01*
X333589404Y-22563333D01*
X333637023Y-22610952D01*
X333732261Y-22658571D01*
X334065595Y-22658571D01*
X332541785Y-23182380D02*
X333113214Y-23182380D01*
X332827500Y-23182380D02*
X332827500Y-22182380D01*
X332922738Y-22325238D01*
X333017976Y-22420476D01*
X333113214Y-22468095D01*
X284748630Y-39984464D02*
X283748630Y-39984464D01*
X283748630Y-40222559D01*
X283796250Y-40365416D01*
X283891488Y-40460654D01*
X283986726Y-40508273D01*
X284177202Y-40555892D01*
X284320059Y-40555892D01*
X284510535Y-40508273D01*
X284605773Y-40460654D01*
X284701011Y-40365416D01*
X284748630Y-40222559D01*
X284748630Y-39984464D01*
X284748630Y-41508273D02*
X284748630Y-40936845D01*
X284748630Y-41222559D02*
X283748630Y-41222559D01*
X283891488Y-41127321D01*
X283986726Y-41032083D01*
X284034345Y-40936845D01*
X284748630Y-42460654D02*
X284748630Y-41889226D01*
X284748630Y-42174940D02*
X283748630Y-42174940D01*
X283891488Y-42079702D01*
X283986726Y-41984464D01*
X284034345Y-41889226D01*
X279692380Y-104671964D02*
X278692380Y-104671964D01*
X278692380Y-104910059D01*
X278740000Y-105052916D01*
X278835238Y-105148154D01*
X278930476Y-105195773D01*
X279120952Y-105243392D01*
X279263809Y-105243392D01*
X279454285Y-105195773D01*
X279549523Y-105148154D01*
X279644761Y-105052916D01*
X279692380Y-104910059D01*
X279692380Y-104671964D01*
X278692380Y-106100535D02*
X278692380Y-105910059D01*
X278740000Y-105814821D01*
X278787619Y-105767202D01*
X278930476Y-105671964D01*
X279120952Y-105624345D01*
X279501904Y-105624345D01*
X279597142Y-105671964D01*
X279644761Y-105719583D01*
X279692380Y-105814821D01*
X279692380Y-106005297D01*
X279644761Y-106100535D01*
X279597142Y-106148154D01*
X279501904Y-106195773D01*
X279263809Y-106195773D01*
X279168571Y-106148154D01*
X279120952Y-106100535D01*
X279073333Y-106005297D01*
X279073333Y-105814821D01*
X279120952Y-105719583D01*
X279168571Y-105671964D01*
X279263809Y-105624345D01*
X278787619Y-106576726D02*
X278740000Y-106624345D01*
X278692380Y-106719583D01*
X278692380Y-106957678D01*
X278740000Y-107052916D01*
X278787619Y-107100535D01*
X278882857Y-107148154D01*
X278978095Y-107148154D01*
X279120952Y-107100535D01*
X279692380Y-106529107D01*
X279692380Y-107148154D01*
X265342380Y-66571964D02*
X264342380Y-66571964D01*
X264342380Y-66810059D01*
X264390000Y-66952916D01*
X264485238Y-67048154D01*
X264580476Y-67095773D01*
X264770952Y-67143392D01*
X264913809Y-67143392D01*
X265104285Y-67095773D01*
X265199523Y-67048154D01*
X265294761Y-66952916D01*
X265342380Y-66810059D01*
X265342380Y-66571964D01*
X264437619Y-67524345D02*
X264390000Y-67571964D01*
X264342380Y-67667202D01*
X264342380Y-67905297D01*
X264390000Y-68000535D01*
X264437619Y-68048154D01*
X264532857Y-68095773D01*
X264628095Y-68095773D01*
X264770952Y-68048154D01*
X265342380Y-67476726D01*
X265342380Y-68095773D01*
X264770952Y-68667202D02*
X264723333Y-68571964D01*
X264675714Y-68524345D01*
X264580476Y-68476726D01*
X264532857Y-68476726D01*
X264437619Y-68524345D01*
X264390000Y-68571964D01*
X264342380Y-68667202D01*
X264342380Y-68857678D01*
X264390000Y-68952916D01*
X264437619Y-69000535D01*
X264532857Y-69048154D01*
X264580476Y-69048154D01*
X264675714Y-69000535D01*
X264723333Y-68952916D01*
X264770952Y-68857678D01*
X264770952Y-68667202D01*
X264818571Y-68571964D01*
X264866190Y-68524345D01*
X264961428Y-68476726D01*
X265151904Y-68476726D01*
X265247142Y-68524345D01*
X265294761Y-68571964D01*
X265342380Y-68667202D01*
X265342380Y-68857678D01*
X265294761Y-68952916D01*
X265247142Y-69000535D01*
X265151904Y-69048154D01*
X264961428Y-69048154D01*
X264866190Y-69000535D01*
X264818571Y-68952916D01*
X264770952Y-68857678D01*
X341492380Y-100268095D02*
X342301904Y-100268095D01*
X342397142Y-100315714D01*
X342444761Y-100363333D01*
X342492380Y-100458571D01*
X342492380Y-100649047D01*
X342444761Y-100744285D01*
X342397142Y-100791904D01*
X342301904Y-100839523D01*
X341492380Y-100839523D01*
X342492380Y-101839523D02*
X342492380Y-101268095D01*
X342492380Y-101553809D02*
X341492380Y-101553809D01*
X341635238Y-101458571D01*
X341730476Y-101363333D01*
X341778095Y-101268095D01*
D12*
X332142857Y-103299523D02*
X332642857Y-103299523D01*
X332166666Y-103299523D02*
X332142857Y-103347142D01*
X332142857Y-103442380D01*
X332166666Y-103490000D01*
X332190476Y-103513809D01*
X332238095Y-103537619D01*
X332380952Y-103537619D01*
X332428571Y-103513809D01*
X332452380Y-103490000D01*
X332476190Y-103442380D01*
X332476190Y-103347142D01*
X332452380Y-103299523D01*
X332476190Y-103751904D02*
X332142857Y-103751904D01*
X331976190Y-103751904D02*
X332000000Y-103728095D01*
X332023809Y-103751904D01*
X332000000Y-103775714D01*
X331976190Y-103751904D01*
X332023809Y-103751904D01*
X332142857Y-103990000D02*
X332476190Y-103990000D01*
X332190476Y-103990000D02*
X332166666Y-104013809D01*
X332142857Y-104061428D01*
X332142857Y-104132857D01*
X332166666Y-104180476D01*
X332214285Y-104204285D01*
X332476190Y-104204285D01*
X332476190Y-104704285D02*
X332476190Y-104418571D01*
X332476190Y-104561428D02*
X331976190Y-104561428D01*
X332047619Y-104513809D01*
X332095238Y-104466190D01*
X332119047Y-104418571D01*
D11*
X296298630Y-142771964D02*
X295298630Y-142771964D01*
X295298630Y-143010059D01*
X295346250Y-143152916D01*
X295441488Y-143248154D01*
X295536726Y-143295773D01*
X295727202Y-143343392D01*
X295870059Y-143343392D01*
X296060535Y-143295773D01*
X296155773Y-143248154D01*
X296251011Y-143152916D01*
X296298630Y-143010059D01*
X296298630Y-142771964D01*
X295727202Y-143914821D02*
X295679583Y-143819583D01*
X295631964Y-143771964D01*
X295536726Y-143724345D01*
X295489107Y-143724345D01*
X295393869Y-143771964D01*
X295346250Y-143819583D01*
X295298630Y-143914821D01*
X295298630Y-144105297D01*
X295346250Y-144200535D01*
X295393869Y-144248154D01*
X295489107Y-144295773D01*
X295536726Y-144295773D01*
X295631964Y-144248154D01*
X295679583Y-144200535D01*
X295727202Y-144105297D01*
X295727202Y-143914821D01*
X295774821Y-143819583D01*
X295822440Y-143771964D01*
X295917678Y-143724345D01*
X296108154Y-143724345D01*
X296203392Y-143771964D01*
X296251011Y-143819583D01*
X296298630Y-143914821D01*
X296298630Y-144105297D01*
X296251011Y-144200535D01*
X296203392Y-144248154D01*
X296108154Y-144295773D01*
X295917678Y-144295773D01*
X295822440Y-144248154D01*
X295774821Y-144200535D01*
X295727202Y-144105297D01*
X295298630Y-144629107D02*
X295298630Y-145248154D01*
X295679583Y-144914821D01*
X295679583Y-145057678D01*
X295727202Y-145152916D01*
X295774821Y-145200535D01*
X295870059Y-145248154D01*
X296108154Y-145248154D01*
X296203392Y-145200535D01*
X296251011Y-145152916D01*
X296298630Y-145057678D01*
X296298630Y-144771964D01*
X296251011Y-144676726D01*
X296203392Y-144629107D01*
X212904880Y-85384464D02*
X211904880Y-85384464D01*
X211904880Y-85622559D01*
X211952500Y-85765416D01*
X212047738Y-85860654D01*
X212142976Y-85908273D01*
X212333452Y-85955892D01*
X212476309Y-85955892D01*
X212666785Y-85908273D01*
X212762023Y-85860654D01*
X212857261Y-85765416D01*
X212904880Y-85622559D01*
X212904880Y-85384464D01*
X212238214Y-86813035D02*
X212904880Y-86813035D01*
X211857261Y-86574940D02*
X212571547Y-86336845D01*
X212571547Y-86955892D01*
X212000119Y-87289226D02*
X211952500Y-87336845D01*
X211904880Y-87432083D01*
X211904880Y-87670178D01*
X211952500Y-87765416D01*
X212000119Y-87813035D01*
X212095357Y-87860654D01*
X212190595Y-87860654D01*
X212333452Y-87813035D01*
X212904880Y-87241607D01*
X212904880Y-87860654D01*
X89192380Y-104671964D02*
X88192380Y-104671964D01*
X88192380Y-104910059D01*
X88240000Y-105052916D01*
X88335238Y-105148154D01*
X88430476Y-105195773D01*
X88620952Y-105243392D01*
X88763809Y-105243392D01*
X88954285Y-105195773D01*
X89049523Y-105148154D01*
X89144761Y-105052916D01*
X89192380Y-104910059D01*
X89192380Y-104671964D01*
X88192380Y-106148154D02*
X88192380Y-105671964D01*
X88668571Y-105624345D01*
X88620952Y-105671964D01*
X88573333Y-105767202D01*
X88573333Y-106005297D01*
X88620952Y-106100535D01*
X88668571Y-106148154D01*
X88763809Y-106195773D01*
X89001904Y-106195773D01*
X89097142Y-106148154D01*
X89144761Y-106100535D01*
X89192380Y-106005297D01*
X89192380Y-105767202D01*
X89144761Y-105671964D01*
X89097142Y-105624345D01*
X88287619Y-106576726D02*
X88240000Y-106624345D01*
X88192380Y-106719583D01*
X88192380Y-106957678D01*
X88240000Y-107052916D01*
X88287619Y-107100535D01*
X88382857Y-107148154D01*
X88478095Y-107148154D01*
X88620952Y-107100535D01*
X89192380Y-106529107D01*
X89192380Y-107148154D01*
X246292380Y-66571964D02*
X245292380Y-66571964D01*
X245292380Y-66810059D01*
X245340000Y-66952916D01*
X245435238Y-67048154D01*
X245530476Y-67095773D01*
X245720952Y-67143392D01*
X245863809Y-67143392D01*
X246054285Y-67095773D01*
X246149523Y-67048154D01*
X246244761Y-66952916D01*
X246292380Y-66810059D01*
X246292380Y-66571964D01*
X245387619Y-67524345D02*
X245340000Y-67571964D01*
X245292380Y-67667202D01*
X245292380Y-67905297D01*
X245340000Y-68000535D01*
X245387619Y-68048154D01*
X245482857Y-68095773D01*
X245578095Y-68095773D01*
X245720952Y-68048154D01*
X246292380Y-67476726D01*
X246292380Y-68095773D01*
X245292380Y-68429107D02*
X245292380Y-69095773D01*
X246292380Y-68667202D01*
X232004880Y-123721964D02*
X231004880Y-123721964D01*
X231004880Y-123960059D01*
X231052500Y-124102916D01*
X231147738Y-124198154D01*
X231242976Y-124245773D01*
X231433452Y-124293392D01*
X231576309Y-124293392D01*
X231766785Y-124245773D01*
X231862023Y-124198154D01*
X231957261Y-124102916D01*
X232004880Y-123960059D01*
X232004880Y-123721964D01*
X231004880Y-124626726D02*
X231004880Y-125293392D01*
X232004880Y-124864821D01*
X231100119Y-125626726D02*
X231052500Y-125674345D01*
X231004880Y-125769583D01*
X231004880Y-126007678D01*
X231052500Y-126102916D01*
X231100119Y-126150535D01*
X231195357Y-126198154D01*
X231290595Y-126198154D01*
X231433452Y-126150535D01*
X232004880Y-125579107D01*
X232004880Y-126198154D01*
X335706666Y-91232380D02*
X336040000Y-90756190D01*
X336278095Y-91232380D02*
X336278095Y-90232380D01*
X335897142Y-90232380D01*
X335801904Y-90280000D01*
X335754285Y-90327619D01*
X335706666Y-90422857D01*
X335706666Y-90565714D01*
X335754285Y-90660952D01*
X335801904Y-90708571D01*
X335897142Y-90756190D01*
X336278095Y-90756190D01*
X335373333Y-90232380D02*
X334754285Y-90232380D01*
X335087619Y-90613333D01*
X334944761Y-90613333D01*
X334849523Y-90660952D01*
X334801904Y-90708571D01*
X334754285Y-90803809D01*
X334754285Y-91041904D01*
X334801904Y-91137142D01*
X334849523Y-91184761D01*
X334944761Y-91232380D01*
X335230476Y-91232380D01*
X335325714Y-91184761D01*
X335373333Y-91137142D01*
X315298630Y-85384464D02*
X314298630Y-85384464D01*
X314298630Y-85622559D01*
X314346250Y-85765416D01*
X314441488Y-85860654D01*
X314536726Y-85908273D01*
X314727202Y-85955892D01*
X314870059Y-85955892D01*
X315060535Y-85908273D01*
X315155773Y-85860654D01*
X315251011Y-85765416D01*
X315298630Y-85622559D01*
X315298630Y-85384464D01*
X314631964Y-86813035D02*
X315298630Y-86813035D01*
X314251011Y-86574940D02*
X314965297Y-86336845D01*
X314965297Y-86955892D01*
X314298630Y-87241607D02*
X314298630Y-87908273D01*
X315298630Y-87479702D01*
X312967380Y-66571964D02*
X311967380Y-66571964D01*
X311967380Y-66810059D01*
X312015000Y-66952916D01*
X312110238Y-67048154D01*
X312205476Y-67095773D01*
X312395952Y-67143392D01*
X312538809Y-67143392D01*
X312729285Y-67095773D01*
X312824523Y-67048154D01*
X312919761Y-66952916D01*
X312967380Y-66810059D01*
X312967380Y-66571964D01*
X311967380Y-67476726D02*
X311967380Y-68095773D01*
X312348333Y-67762440D01*
X312348333Y-67905297D01*
X312395952Y-68000535D01*
X312443571Y-68048154D01*
X312538809Y-68095773D01*
X312776904Y-68095773D01*
X312872142Y-68048154D01*
X312919761Y-68000535D01*
X312967380Y-67905297D01*
X312967380Y-67619583D01*
X312919761Y-67524345D01*
X312872142Y-67476726D01*
X311967380Y-68714821D02*
X311967380Y-68810059D01*
X312015000Y-68905297D01*
X312062619Y-68952916D01*
X312157857Y-69000535D01*
X312348333Y-69048154D01*
X312586428Y-69048154D01*
X312776904Y-69000535D01*
X312872142Y-68952916D01*
X312919761Y-68905297D01*
X312967380Y-68810059D01*
X312967380Y-68714821D01*
X312919761Y-68619583D01*
X312872142Y-68571964D01*
X312776904Y-68524345D01*
X312586428Y-68476726D01*
X312348333Y-68476726D01*
X312157857Y-68524345D01*
X312062619Y-68571964D01*
X312015000Y-68619583D01*
X311967380Y-68714821D01*
X385198630Y-85621964D02*
X384198630Y-85621964D01*
X384198630Y-85860059D01*
X384246250Y-86002916D01*
X384341488Y-86098154D01*
X384436726Y-86145773D01*
X384627202Y-86193392D01*
X384770059Y-86193392D01*
X384960535Y-86145773D01*
X385055773Y-86098154D01*
X385151011Y-86002916D01*
X385198630Y-85860059D01*
X385198630Y-85621964D01*
X384198630Y-87098154D02*
X384198630Y-86621964D01*
X384674821Y-86574345D01*
X384627202Y-86621964D01*
X384579583Y-86717202D01*
X384579583Y-86955297D01*
X384627202Y-87050535D01*
X384674821Y-87098154D01*
X384770059Y-87145773D01*
X385008154Y-87145773D01*
X385103392Y-87098154D01*
X385151011Y-87050535D01*
X385198630Y-86955297D01*
X385198630Y-86717202D01*
X385151011Y-86621964D01*
X385103392Y-86574345D01*
X384198630Y-87764821D02*
X384198630Y-87860059D01*
X384246250Y-87955297D01*
X384293869Y-88002916D01*
X384389107Y-88050535D01*
X384579583Y-88098154D01*
X384817678Y-88098154D01*
X385008154Y-88050535D01*
X385103392Y-88002916D01*
X385151011Y-87955297D01*
X385198630Y-87860059D01*
X385198630Y-87764821D01*
X385151011Y-87669583D01*
X385103392Y-87621964D01*
X385008154Y-87574345D01*
X384817678Y-87526726D01*
X384579583Y-87526726D01*
X384389107Y-87574345D01*
X384293869Y-87621964D01*
X384246250Y-87669583D01*
X384198630Y-87764821D01*
X340456666Y-98137142D02*
X340504285Y-98184761D01*
X340647142Y-98232380D01*
X340742380Y-98232380D01*
X340885238Y-98184761D01*
X340980476Y-98089523D01*
X341028095Y-97994285D01*
X341075714Y-97803809D01*
X341075714Y-97660952D01*
X341028095Y-97470476D01*
X340980476Y-97375238D01*
X340885238Y-97280000D01*
X340742380Y-97232380D01*
X340647142Y-97232380D01*
X340504285Y-97280000D01*
X340456666Y-97327619D01*
X339885238Y-97660952D02*
X339980476Y-97613333D01*
X340028095Y-97565714D01*
X340075714Y-97470476D01*
X340075714Y-97422857D01*
X340028095Y-97327619D01*
X339980476Y-97280000D01*
X339885238Y-97232380D01*
X339694761Y-97232380D01*
X339599523Y-97280000D01*
X339551904Y-97327619D01*
X339504285Y-97422857D01*
X339504285Y-97470476D01*
X339551904Y-97565714D01*
X339599523Y-97613333D01*
X339694761Y-97660952D01*
X339885238Y-97660952D01*
X339980476Y-97708571D01*
X340028095Y-97756190D01*
X340075714Y-97851428D01*
X340075714Y-98041904D01*
X340028095Y-98137142D01*
X339980476Y-98184761D01*
X339885238Y-98232380D01*
X339694761Y-98232380D01*
X339599523Y-98184761D01*
X339551904Y-98137142D01*
X339504285Y-98041904D01*
X339504285Y-97851428D01*
X339551904Y-97756190D01*
X339599523Y-97708571D01*
X339694761Y-97660952D01*
X248673630Y-142771964D02*
X247673630Y-142771964D01*
X247673630Y-143010059D01*
X247721250Y-143152916D01*
X247816488Y-143248154D01*
X247911726Y-143295773D01*
X248102202Y-143343392D01*
X248245059Y-143343392D01*
X248435535Y-143295773D01*
X248530773Y-143248154D01*
X248626011Y-143152916D01*
X248673630Y-143010059D01*
X248673630Y-142771964D01*
X248102202Y-143914821D02*
X248054583Y-143819583D01*
X248006964Y-143771964D01*
X247911726Y-143724345D01*
X247864107Y-143724345D01*
X247768869Y-143771964D01*
X247721250Y-143819583D01*
X247673630Y-143914821D01*
X247673630Y-144105297D01*
X247721250Y-144200535D01*
X247768869Y-144248154D01*
X247864107Y-144295773D01*
X247911726Y-144295773D01*
X248006964Y-144248154D01*
X248054583Y-144200535D01*
X248102202Y-144105297D01*
X248102202Y-143914821D01*
X248149821Y-143819583D01*
X248197440Y-143771964D01*
X248292678Y-143724345D01*
X248483154Y-143724345D01*
X248578392Y-143771964D01*
X248626011Y-143819583D01*
X248673630Y-143914821D01*
X248673630Y-144105297D01*
X248626011Y-144200535D01*
X248578392Y-144248154D01*
X248483154Y-144295773D01*
X248292678Y-144295773D01*
X248197440Y-144248154D01*
X248149821Y-144200535D01*
X248102202Y-144105297D01*
X248673630Y-145248154D02*
X248673630Y-144676726D01*
X248673630Y-144962440D02*
X247673630Y-144962440D01*
X247816488Y-144867202D01*
X247911726Y-144771964D01*
X247959345Y-144676726D01*
X270104880Y-123721964D02*
X269104880Y-123721964D01*
X269104880Y-123960059D01*
X269152500Y-124102916D01*
X269247738Y-124198154D01*
X269342976Y-124245773D01*
X269533452Y-124293392D01*
X269676309Y-124293392D01*
X269866785Y-124245773D01*
X269962023Y-124198154D01*
X270057261Y-124102916D01*
X270104880Y-123960059D01*
X270104880Y-123721964D01*
X269104880Y-124626726D02*
X269104880Y-125293392D01*
X270104880Y-124864821D01*
X269438214Y-126102916D02*
X270104880Y-126102916D01*
X269057261Y-125864821D02*
X269771547Y-125626726D01*
X269771547Y-126245773D01*
X127292380Y-104671964D02*
X126292380Y-104671964D01*
X126292380Y-104910059D01*
X126340000Y-105052916D01*
X126435238Y-105148154D01*
X126530476Y-105195773D01*
X126720952Y-105243392D01*
X126863809Y-105243392D01*
X127054285Y-105195773D01*
X127149523Y-105148154D01*
X127244761Y-105052916D01*
X127292380Y-104910059D01*
X127292380Y-104671964D01*
X126292380Y-106148154D02*
X126292380Y-105671964D01*
X126768571Y-105624345D01*
X126720952Y-105671964D01*
X126673333Y-105767202D01*
X126673333Y-106005297D01*
X126720952Y-106100535D01*
X126768571Y-106148154D01*
X126863809Y-106195773D01*
X127101904Y-106195773D01*
X127197142Y-106148154D01*
X127244761Y-106100535D01*
X127292380Y-106005297D01*
X127292380Y-105767202D01*
X127244761Y-105671964D01*
X127197142Y-105624345D01*
X126625714Y-107052916D02*
X127292380Y-107052916D01*
X126244761Y-106814821D02*
X126959047Y-106576726D01*
X126959047Y-107195773D01*
X251004880Y-85384464D02*
X250004880Y-85384464D01*
X250004880Y-85622559D01*
X250052500Y-85765416D01*
X250147738Y-85860654D01*
X250242976Y-85908273D01*
X250433452Y-85955892D01*
X250576309Y-85955892D01*
X250766785Y-85908273D01*
X250862023Y-85860654D01*
X250957261Y-85765416D01*
X251004880Y-85622559D01*
X251004880Y-85384464D01*
X250338214Y-86813035D02*
X251004880Y-86813035D01*
X249957261Y-86574940D02*
X250671547Y-86336845D01*
X250671547Y-86955892D01*
X250338214Y-87765416D02*
X251004880Y-87765416D01*
X249957261Y-87527321D02*
X250671547Y-87289226D01*
X250671547Y-87908273D01*
X366148630Y-142771964D02*
X365148630Y-142771964D01*
X365148630Y-143010059D01*
X365196250Y-143152916D01*
X365291488Y-143248154D01*
X365386726Y-143295773D01*
X365577202Y-143343392D01*
X365720059Y-143343392D01*
X365910535Y-143295773D01*
X366005773Y-143248154D01*
X366101011Y-143152916D01*
X366148630Y-143010059D01*
X366148630Y-142771964D01*
X365577202Y-143914821D02*
X365529583Y-143819583D01*
X365481964Y-143771964D01*
X365386726Y-143724345D01*
X365339107Y-143724345D01*
X365243869Y-143771964D01*
X365196250Y-143819583D01*
X365148630Y-143914821D01*
X365148630Y-144105297D01*
X365196250Y-144200535D01*
X365243869Y-144248154D01*
X365339107Y-144295773D01*
X365386726Y-144295773D01*
X365481964Y-144248154D01*
X365529583Y-144200535D01*
X365577202Y-144105297D01*
X365577202Y-143914821D01*
X365624821Y-143819583D01*
X365672440Y-143771964D01*
X365767678Y-143724345D01*
X365958154Y-143724345D01*
X366053392Y-143771964D01*
X366101011Y-143819583D01*
X366148630Y-143914821D01*
X366148630Y-144105297D01*
X366101011Y-144200535D01*
X366053392Y-144248154D01*
X365958154Y-144295773D01*
X365767678Y-144295773D01*
X365672440Y-144248154D01*
X365624821Y-144200535D01*
X365577202Y-144105297D01*
X365148630Y-145152916D02*
X365148630Y-144962440D01*
X365196250Y-144867202D01*
X365243869Y-144819583D01*
X365386726Y-144724345D01*
X365577202Y-144676726D01*
X365958154Y-144676726D01*
X366053392Y-144724345D01*
X366101011Y-144771964D01*
X366148630Y-144867202D01*
X366148630Y-145057678D01*
X366101011Y-145152916D01*
X366053392Y-145200535D01*
X365958154Y-145248154D01*
X365720059Y-145248154D01*
X365624821Y-145200535D01*
X365577202Y-145152916D01*
X365529583Y-145057678D01*
X365529583Y-144867202D01*
X365577202Y-144771964D01*
X365624821Y-144724345D01*
X365720059Y-144676726D01*
X385548630Y-66571964D02*
X384548630Y-66571964D01*
X384548630Y-66810059D01*
X384596250Y-66952916D01*
X384691488Y-67048154D01*
X384786726Y-67095773D01*
X384977202Y-67143392D01*
X385120059Y-67143392D01*
X385310535Y-67095773D01*
X385405773Y-67048154D01*
X385501011Y-66952916D01*
X385548630Y-66810059D01*
X385548630Y-66571964D01*
X384548630Y-67476726D02*
X384548630Y-68095773D01*
X384929583Y-67762440D01*
X384929583Y-67905297D01*
X384977202Y-68000535D01*
X385024821Y-68048154D01*
X385120059Y-68095773D01*
X385358154Y-68095773D01*
X385453392Y-68048154D01*
X385501011Y-68000535D01*
X385548630Y-67905297D01*
X385548630Y-67619583D01*
X385501011Y-67524345D01*
X385453392Y-67476726D01*
X384548630Y-68429107D02*
X384548630Y-69048154D01*
X384929583Y-68714821D01*
X384929583Y-68857678D01*
X384977202Y-68952916D01*
X385024821Y-69000535D01*
X385120059Y-69048154D01*
X385358154Y-69048154D01*
X385453392Y-69000535D01*
X385501011Y-68952916D01*
X385548630Y-68857678D01*
X385548630Y-68571964D01*
X385501011Y-68476726D01*
X385453392Y-68429107D01*
X184442380Y-104671964D02*
X183442380Y-104671964D01*
X183442380Y-104910059D01*
X183490000Y-105052916D01*
X183585238Y-105148154D01*
X183680476Y-105195773D01*
X183870952Y-105243392D01*
X184013809Y-105243392D01*
X184204285Y-105195773D01*
X184299523Y-105148154D01*
X184394761Y-105052916D01*
X184442380Y-104910059D01*
X184442380Y-104671964D01*
X183442380Y-106148154D02*
X183442380Y-105671964D01*
X183918571Y-105624345D01*
X183870952Y-105671964D01*
X183823333Y-105767202D01*
X183823333Y-106005297D01*
X183870952Y-106100535D01*
X183918571Y-106148154D01*
X184013809Y-106195773D01*
X184251904Y-106195773D01*
X184347142Y-106148154D01*
X184394761Y-106100535D01*
X184442380Y-106005297D01*
X184442380Y-105767202D01*
X184394761Y-105671964D01*
X184347142Y-105624345D01*
X183442380Y-106529107D02*
X183442380Y-107195773D01*
X184442380Y-106767202D01*
X54404880Y-39416904D02*
X53404880Y-39416904D01*
X53404880Y-39655000D01*
X53452500Y-39797857D01*
X53547738Y-39893095D01*
X53642976Y-39940714D01*
X53833452Y-39988333D01*
X53976309Y-39988333D01*
X54166785Y-39940714D01*
X54262023Y-39893095D01*
X54357261Y-39797857D01*
X54404880Y-39655000D01*
X54404880Y-39416904D01*
X54404880Y-40940714D02*
X54404880Y-40369285D01*
X54404880Y-40655000D02*
X53404880Y-40655000D01*
X53547738Y-40559761D01*
X53642976Y-40464523D01*
X53690595Y-40369285D01*
X303448630Y-39984464D02*
X302448630Y-39984464D01*
X302448630Y-40222559D01*
X302496250Y-40365416D01*
X302591488Y-40460654D01*
X302686726Y-40508273D01*
X302877202Y-40555892D01*
X303020059Y-40555892D01*
X303210535Y-40508273D01*
X303305773Y-40460654D01*
X303401011Y-40365416D01*
X303448630Y-40222559D01*
X303448630Y-39984464D01*
X303448630Y-41508273D02*
X303448630Y-40936845D01*
X303448630Y-41222559D02*
X302448630Y-41222559D01*
X302591488Y-41127321D01*
X302686726Y-41032083D01*
X302734345Y-40936845D01*
X302543869Y-41889226D02*
X302496250Y-41936845D01*
X302448630Y-42032083D01*
X302448630Y-42270178D01*
X302496250Y-42365416D01*
X302543869Y-42413035D01*
X302639107Y-42460654D01*
X302734345Y-42460654D01*
X302877202Y-42413035D01*
X303448630Y-41841607D01*
X303448630Y-42460654D01*
X333206666Y-91232380D02*
X333540000Y-90756190D01*
X333778095Y-91232380D02*
X333778095Y-90232380D01*
X333397142Y-90232380D01*
X333301904Y-90280000D01*
X333254285Y-90327619D01*
X333206666Y-90422857D01*
X333206666Y-90565714D01*
X333254285Y-90660952D01*
X333301904Y-90708571D01*
X333397142Y-90756190D01*
X333778095Y-90756190D01*
X332825714Y-90327619D02*
X332778095Y-90280000D01*
X332682857Y-90232380D01*
X332444761Y-90232380D01*
X332349523Y-90280000D01*
X332301904Y-90327619D01*
X332254285Y-90422857D01*
X332254285Y-90518095D01*
X332301904Y-90660952D01*
X332873333Y-91232380D01*
X332254285Y-91232380D01*
X284392380Y-66571964D02*
X283392380Y-66571964D01*
X283392380Y-66810059D01*
X283440000Y-66952916D01*
X283535238Y-67048154D01*
X283630476Y-67095773D01*
X283820952Y-67143392D01*
X283963809Y-67143392D01*
X284154285Y-67095773D01*
X284249523Y-67048154D01*
X284344761Y-66952916D01*
X284392380Y-66810059D01*
X284392380Y-66571964D01*
X283487619Y-67524345D02*
X283440000Y-67571964D01*
X283392380Y-67667202D01*
X283392380Y-67905297D01*
X283440000Y-68000535D01*
X283487619Y-68048154D01*
X283582857Y-68095773D01*
X283678095Y-68095773D01*
X283820952Y-68048154D01*
X284392380Y-67476726D01*
X284392380Y-68095773D01*
X284392380Y-68571964D02*
X284392380Y-68762440D01*
X284344761Y-68857678D01*
X284297142Y-68905297D01*
X284154285Y-69000535D01*
X283963809Y-69048154D01*
X283582857Y-69048154D01*
X283487619Y-69000535D01*
X283440000Y-68952916D01*
X283392380Y-68857678D01*
X283392380Y-68667202D01*
X283440000Y-68571964D01*
X283487619Y-68524345D01*
X283582857Y-68476726D01*
X283820952Y-68476726D01*
X283916190Y-68524345D01*
X283963809Y-68571964D01*
X284011428Y-68667202D01*
X284011428Y-68857678D01*
X283963809Y-68952916D01*
X283916190Y-69000535D01*
X283820952Y-69048154D01*
X366604880Y-39984464D02*
X365604880Y-39984464D01*
X365604880Y-40222559D01*
X365652500Y-40365416D01*
X365747738Y-40460654D01*
X365842976Y-40508273D01*
X366033452Y-40555892D01*
X366176309Y-40555892D01*
X366366785Y-40508273D01*
X366462023Y-40460654D01*
X366557261Y-40365416D01*
X366604880Y-40222559D01*
X366604880Y-39984464D01*
X366604880Y-41508273D02*
X366604880Y-40936845D01*
X366604880Y-41222559D02*
X365604880Y-41222559D01*
X365747738Y-41127321D01*
X365842976Y-41032083D01*
X365890595Y-40936845D01*
X365604880Y-42413035D02*
X365604880Y-41936845D01*
X366081071Y-41889226D01*
X366033452Y-41936845D01*
X365985833Y-42032083D01*
X365985833Y-42270178D01*
X366033452Y-42365416D01*
X366081071Y-42413035D01*
X366176309Y-42460654D01*
X366414404Y-42460654D01*
X366509642Y-42413035D01*
X366557261Y-42365416D01*
X366604880Y-42270178D01*
X366604880Y-42032083D01*
X366557261Y-41936845D01*
X366509642Y-41889226D01*
X98654880Y-123721964D02*
X97654880Y-123721964D01*
X97654880Y-123960059D01*
X97702500Y-124102916D01*
X97797738Y-124198154D01*
X97892976Y-124245773D01*
X98083452Y-124293392D01*
X98226309Y-124293392D01*
X98416785Y-124245773D01*
X98512023Y-124198154D01*
X98607261Y-124102916D01*
X98654880Y-123960059D01*
X98654880Y-123721964D01*
X97654880Y-125150535D02*
X97654880Y-124960059D01*
X97702500Y-124864821D01*
X97750119Y-124817202D01*
X97892976Y-124721964D01*
X98083452Y-124674345D01*
X98464404Y-124674345D01*
X98559642Y-124721964D01*
X98607261Y-124769583D01*
X98654880Y-124864821D01*
X98654880Y-125055297D01*
X98607261Y-125150535D01*
X98559642Y-125198154D01*
X98464404Y-125245773D01*
X98226309Y-125245773D01*
X98131071Y-125198154D01*
X98083452Y-125150535D01*
X98035833Y-125055297D01*
X98035833Y-124864821D01*
X98083452Y-124769583D01*
X98131071Y-124721964D01*
X98226309Y-124674345D01*
X97654880Y-126150535D02*
X97654880Y-125674345D01*
X98131071Y-125626726D01*
X98083452Y-125674345D01*
X98035833Y-125769583D01*
X98035833Y-126007678D01*
X98083452Y-126102916D01*
X98131071Y-126150535D01*
X98226309Y-126198154D01*
X98464404Y-126198154D01*
X98559642Y-126150535D01*
X98607261Y-126102916D01*
X98654880Y-126007678D01*
X98654880Y-125769583D01*
X98607261Y-125674345D01*
X98559642Y-125626726D01*
X356206666Y-105637142D02*
X356254285Y-105684761D01*
X356397142Y-105732380D01*
X356492380Y-105732380D01*
X356635238Y-105684761D01*
X356730476Y-105589523D01*
X356778095Y-105494285D01*
X356825714Y-105303809D01*
X356825714Y-105160952D01*
X356778095Y-104970476D01*
X356730476Y-104875238D01*
X356635238Y-104780000D01*
X356492380Y-104732380D01*
X356397142Y-104732380D01*
X356254285Y-104780000D01*
X356206666Y-104827619D01*
X355873333Y-104732380D02*
X355206666Y-104732380D01*
X355635238Y-105732380D01*
X177236130Y-142771964D02*
X176236130Y-142771964D01*
X176236130Y-143010059D01*
X176283750Y-143152916D01*
X176378988Y-143248154D01*
X176474226Y-143295773D01*
X176664702Y-143343392D01*
X176807559Y-143343392D01*
X176998035Y-143295773D01*
X177093273Y-143248154D01*
X177188511Y-143152916D01*
X177236130Y-143010059D01*
X177236130Y-142771964D01*
X176664702Y-143914821D02*
X176617083Y-143819583D01*
X176569464Y-143771964D01*
X176474226Y-143724345D01*
X176426607Y-143724345D01*
X176331369Y-143771964D01*
X176283750Y-143819583D01*
X176236130Y-143914821D01*
X176236130Y-144105297D01*
X176283750Y-144200535D01*
X176331369Y-144248154D01*
X176426607Y-144295773D01*
X176474226Y-144295773D01*
X176569464Y-144248154D01*
X176617083Y-144200535D01*
X176664702Y-144105297D01*
X176664702Y-143914821D01*
X176712321Y-143819583D01*
X176759940Y-143771964D01*
X176855178Y-143724345D01*
X177045654Y-143724345D01*
X177140892Y-143771964D01*
X177188511Y-143819583D01*
X177236130Y-143914821D01*
X177236130Y-144105297D01*
X177188511Y-144200535D01*
X177140892Y-144248154D01*
X177045654Y-144295773D01*
X176855178Y-144295773D01*
X176759940Y-144248154D01*
X176712321Y-144200535D01*
X176664702Y-144105297D01*
X176236130Y-144914821D02*
X176236130Y-145010059D01*
X176283750Y-145105297D01*
X176331369Y-145152916D01*
X176426607Y-145200535D01*
X176617083Y-145248154D01*
X176855178Y-145248154D01*
X177045654Y-145200535D01*
X177140892Y-145152916D01*
X177188511Y-145105297D01*
X177236130Y-145010059D01*
X177236130Y-144914821D01*
X177188511Y-144819583D01*
X177140892Y-144771964D01*
X177045654Y-144724345D01*
X176855178Y-144676726D01*
X176617083Y-144676726D01*
X176426607Y-144724345D01*
X176331369Y-144771964D01*
X176283750Y-144819583D01*
X176236130Y-144914821D01*
X155754880Y-85384464D02*
X154754880Y-85384464D01*
X154754880Y-85622559D01*
X154802500Y-85765416D01*
X154897738Y-85860654D01*
X154992976Y-85908273D01*
X155183452Y-85955892D01*
X155326309Y-85955892D01*
X155516785Y-85908273D01*
X155612023Y-85860654D01*
X155707261Y-85765416D01*
X155754880Y-85622559D01*
X155754880Y-85384464D01*
X154754880Y-86289226D02*
X154754880Y-86908273D01*
X155135833Y-86574940D01*
X155135833Y-86717797D01*
X155183452Y-86813035D01*
X155231071Y-86860654D01*
X155326309Y-86908273D01*
X155564404Y-86908273D01*
X155659642Y-86860654D01*
X155707261Y-86813035D01*
X155754880Y-86717797D01*
X155754880Y-86432083D01*
X155707261Y-86336845D01*
X155659642Y-86289226D01*
X155754880Y-87384464D02*
X155754880Y-87574940D01*
X155707261Y-87670178D01*
X155659642Y-87717797D01*
X155516785Y-87813035D01*
X155326309Y-87860654D01*
X154945357Y-87860654D01*
X154850119Y-87813035D01*
X154802500Y-87765416D01*
X154754880Y-87670178D01*
X154754880Y-87479702D01*
X154802500Y-87384464D01*
X154850119Y-87336845D01*
X154945357Y-87289226D01*
X155183452Y-87289226D01*
X155278690Y-87336845D01*
X155326309Y-87384464D01*
X155373928Y-87479702D01*
X155373928Y-87670178D01*
X155326309Y-87765416D01*
X155278690Y-87813035D01*
X155183452Y-87860654D01*
X338756666Y-31982380D02*
X339090000Y-31506190D01*
X339328095Y-31982380D02*
X339328095Y-30982380D01*
X338947142Y-30982380D01*
X338851904Y-31030000D01*
X338804285Y-31077619D01*
X338756666Y-31172857D01*
X338756666Y-31315714D01*
X338804285Y-31410952D01*
X338851904Y-31458571D01*
X338947142Y-31506190D01*
X339328095Y-31506190D01*
X337899523Y-31315714D02*
X337899523Y-31982380D01*
X338137619Y-30934761D02*
X338375714Y-31649047D01*
X337756666Y-31649047D01*
X347298630Y-66496964D02*
X346298630Y-66496964D01*
X346298630Y-66735059D01*
X346346250Y-66877916D01*
X346441488Y-66973154D01*
X346536726Y-67020773D01*
X346727202Y-67068392D01*
X346870059Y-67068392D01*
X347060535Y-67020773D01*
X347155773Y-66973154D01*
X347251011Y-66877916D01*
X347298630Y-66735059D01*
X347298630Y-66496964D01*
X346298630Y-67401726D02*
X346298630Y-68020773D01*
X346679583Y-67687440D01*
X346679583Y-67830297D01*
X346727202Y-67925535D01*
X346774821Y-67973154D01*
X346870059Y-68020773D01*
X347108154Y-68020773D01*
X347203392Y-67973154D01*
X347251011Y-67925535D01*
X347298630Y-67830297D01*
X347298630Y-67544583D01*
X347251011Y-67449345D01*
X347203392Y-67401726D01*
X347298630Y-68973154D02*
X347298630Y-68401726D01*
X347298630Y-68687440D02*
X346298630Y-68687440D01*
X346441488Y-68592202D01*
X346536726Y-68496964D01*
X346584345Y-68401726D01*
X151042380Y-66571964D02*
X150042380Y-66571964D01*
X150042380Y-66810059D01*
X150090000Y-66952916D01*
X150185238Y-67048154D01*
X150280476Y-67095773D01*
X150470952Y-67143392D01*
X150613809Y-67143392D01*
X150804285Y-67095773D01*
X150899523Y-67048154D01*
X150994761Y-66952916D01*
X151042380Y-66810059D01*
X151042380Y-66571964D01*
X150137619Y-67524345D02*
X150090000Y-67571964D01*
X150042380Y-67667202D01*
X150042380Y-67905297D01*
X150090000Y-68000535D01*
X150137619Y-68048154D01*
X150232857Y-68095773D01*
X150328095Y-68095773D01*
X150470952Y-68048154D01*
X151042380Y-67476726D01*
X151042380Y-68095773D01*
X150137619Y-68476726D02*
X150090000Y-68524345D01*
X150042380Y-68619583D01*
X150042380Y-68857678D01*
X150090000Y-68952916D01*
X150137619Y-69000535D01*
X150232857Y-69048154D01*
X150328095Y-69048154D01*
X150470952Y-69000535D01*
X151042380Y-68429107D01*
X151042380Y-69048154D01*
X74842380Y-66771964D02*
X73842380Y-66771964D01*
X73842380Y-67010059D01*
X73890000Y-67152916D01*
X73985238Y-67248154D01*
X74080476Y-67295773D01*
X74270952Y-67343392D01*
X74413809Y-67343392D01*
X74604285Y-67295773D01*
X74699523Y-67248154D01*
X74794761Y-67152916D01*
X74842380Y-67010059D01*
X74842380Y-66771964D01*
X74842380Y-68295773D02*
X74842380Y-67724345D01*
X74842380Y-68010059D02*
X73842380Y-68010059D01*
X73985238Y-67914821D01*
X74080476Y-67819583D01*
X74128095Y-67724345D01*
X74270952Y-68867202D02*
X74223333Y-68771964D01*
X74175714Y-68724345D01*
X74080476Y-68676726D01*
X74032857Y-68676726D01*
X73937619Y-68724345D01*
X73890000Y-68771964D01*
X73842380Y-68867202D01*
X73842380Y-69057678D01*
X73890000Y-69152916D01*
X73937619Y-69200535D01*
X74032857Y-69248154D01*
X74080476Y-69248154D01*
X74175714Y-69200535D01*
X74223333Y-69152916D01*
X74270952Y-69057678D01*
X74270952Y-68867202D01*
X74318571Y-68771964D01*
X74366190Y-68724345D01*
X74461428Y-68676726D01*
X74651904Y-68676726D01*
X74747142Y-68724345D01*
X74794761Y-68771964D01*
X74842380Y-68867202D01*
X74842380Y-69057678D01*
X74794761Y-69152916D01*
X74747142Y-69200535D01*
X74651904Y-69248154D01*
X74461428Y-69248154D01*
X74366190Y-69200535D01*
X74318571Y-69152916D01*
X74270952Y-69057678D01*
X330706666Y-96887142D02*
X330754285Y-96934761D01*
X330897142Y-96982380D01*
X330992380Y-96982380D01*
X331135238Y-96934761D01*
X331230476Y-96839523D01*
X331278095Y-96744285D01*
X331325714Y-96553809D01*
X331325714Y-96410952D01*
X331278095Y-96220476D01*
X331230476Y-96125238D01*
X331135238Y-96030000D01*
X330992380Y-95982380D01*
X330897142Y-95982380D01*
X330754285Y-96030000D01*
X330706666Y-96077619D01*
X329801904Y-95982380D02*
X330278095Y-95982380D01*
X330325714Y-96458571D01*
X330278095Y-96410952D01*
X330182857Y-96363333D01*
X329944761Y-96363333D01*
X329849523Y-96410952D01*
X329801904Y-96458571D01*
X329754285Y-96553809D01*
X329754285Y-96791904D01*
X329801904Y-96887142D01*
X329849523Y-96934761D01*
X329944761Y-96982380D01*
X330182857Y-96982380D01*
X330278095Y-96934761D01*
X330325714Y-96887142D01*
X131992380Y-40060654D02*
X130992380Y-40060654D01*
X130992380Y-40298750D01*
X131040000Y-40441607D01*
X131135238Y-40536845D01*
X131230476Y-40584464D01*
X131420952Y-40632083D01*
X131563809Y-40632083D01*
X131754285Y-40584464D01*
X131849523Y-40536845D01*
X131944761Y-40441607D01*
X131992380Y-40298750D01*
X131992380Y-40060654D01*
X131325714Y-41489226D02*
X131992380Y-41489226D01*
X130944761Y-41251130D02*
X131659047Y-41013035D01*
X131659047Y-41632083D01*
X310648630Y-104671964D02*
X309648630Y-104671964D01*
X309648630Y-104910059D01*
X309696250Y-105052916D01*
X309791488Y-105148154D01*
X309886726Y-105195773D01*
X310077202Y-105243392D01*
X310220059Y-105243392D01*
X310410535Y-105195773D01*
X310505773Y-105148154D01*
X310601011Y-105052916D01*
X310648630Y-104910059D01*
X310648630Y-104671964D01*
X309648630Y-106100535D02*
X309648630Y-105910059D01*
X309696250Y-105814821D01*
X309743869Y-105767202D01*
X309886726Y-105671964D01*
X310077202Y-105624345D01*
X310458154Y-105624345D01*
X310553392Y-105671964D01*
X310601011Y-105719583D01*
X310648630Y-105814821D01*
X310648630Y-106005297D01*
X310601011Y-106100535D01*
X310553392Y-106148154D01*
X310458154Y-106195773D01*
X310220059Y-106195773D01*
X310124821Y-106148154D01*
X310077202Y-106100535D01*
X310029583Y-106005297D01*
X310029583Y-105814821D01*
X310077202Y-105719583D01*
X310124821Y-105671964D01*
X310220059Y-105624345D01*
X309648630Y-106529107D02*
X309648630Y-107148154D01*
X310029583Y-106814821D01*
X310029583Y-106957678D01*
X310077202Y-107052916D01*
X310124821Y-107100535D01*
X310220059Y-107148154D01*
X310458154Y-107148154D01*
X310553392Y-107100535D01*
X310601011Y-107052916D01*
X310648630Y-106957678D01*
X310648630Y-106671964D01*
X310601011Y-106576726D01*
X310553392Y-106529107D01*
X326897142Y-100113333D02*
X326944761Y-100065714D01*
X326992380Y-99922857D01*
X326992380Y-99827619D01*
X326944761Y-99684761D01*
X326849523Y-99589523D01*
X326754285Y-99541904D01*
X326563809Y-99494285D01*
X326420952Y-99494285D01*
X326230476Y-99541904D01*
X326135238Y-99589523D01*
X326040000Y-99684761D01*
X325992380Y-99827619D01*
X325992380Y-99922857D01*
X326040000Y-100065714D01*
X326087619Y-100113333D01*
X326992380Y-101065714D02*
X326992380Y-100494285D01*
X326992380Y-100780000D02*
X325992380Y-100780000D01*
X326135238Y-100684761D01*
X326230476Y-100589523D01*
X326278095Y-100494285D01*
X322967142Y-100363333D02*
X323014761Y-100315714D01*
X323062380Y-100172857D01*
X323062380Y-100077619D01*
X323014761Y-99934761D01*
X322919523Y-99839523D01*
X322824285Y-99791904D01*
X322633809Y-99744285D01*
X322490952Y-99744285D01*
X322300476Y-99791904D01*
X322205238Y-99839523D01*
X322110000Y-99934761D01*
X322062380Y-100077619D01*
X322062380Y-100172857D01*
X322110000Y-100315714D01*
X322157619Y-100363333D01*
X323062380Y-100839523D02*
X323062380Y-101030000D01*
X323014761Y-101125238D01*
X322967142Y-101172857D01*
X322824285Y-101268095D01*
X322633809Y-101315714D01*
X322252857Y-101315714D01*
X322157619Y-101268095D01*
X322110000Y-101220476D01*
X322062380Y-101125238D01*
X322062380Y-100934761D01*
X322110000Y-100839523D01*
X322157619Y-100791904D01*
X322252857Y-100744285D01*
X322490952Y-100744285D01*
X322586190Y-100791904D01*
X322633809Y-100839523D01*
X322681428Y-100934761D01*
X322681428Y-101125238D01*
X322633809Y-101220476D01*
X322586190Y-101268095D01*
X322490952Y-101315714D01*
X111942380Y-39960654D02*
X110942380Y-39960654D01*
X110942380Y-40198750D01*
X110990000Y-40341607D01*
X111085238Y-40436845D01*
X111180476Y-40484464D01*
X111370952Y-40532083D01*
X111513809Y-40532083D01*
X111704285Y-40484464D01*
X111799523Y-40436845D01*
X111894761Y-40341607D01*
X111942380Y-40198750D01*
X111942380Y-39960654D01*
X110942380Y-40865416D02*
X110942380Y-41484464D01*
X111323333Y-41151130D01*
X111323333Y-41293988D01*
X111370952Y-41389226D01*
X111418571Y-41436845D01*
X111513809Y-41484464D01*
X111751904Y-41484464D01*
X111847142Y-41436845D01*
X111894761Y-41389226D01*
X111942380Y-41293988D01*
X111942380Y-41008273D01*
X111894761Y-40913035D01*
X111847142Y-40865416D01*
X93892380Y-66571964D02*
X92892380Y-66571964D01*
X92892380Y-66810059D01*
X92940000Y-66952916D01*
X93035238Y-67048154D01*
X93130476Y-67095773D01*
X93320952Y-67143392D01*
X93463809Y-67143392D01*
X93654285Y-67095773D01*
X93749523Y-67048154D01*
X93844761Y-66952916D01*
X93892380Y-66810059D01*
X93892380Y-66571964D01*
X93892380Y-68095773D02*
X93892380Y-67524345D01*
X93892380Y-67810059D02*
X92892380Y-67810059D01*
X93035238Y-67714821D01*
X93130476Y-67619583D01*
X93178095Y-67524345D01*
X93892380Y-68571964D02*
X93892380Y-68762440D01*
X93844761Y-68857678D01*
X93797142Y-68905297D01*
X93654285Y-69000535D01*
X93463809Y-69048154D01*
X93082857Y-69048154D01*
X92987619Y-69000535D01*
X92940000Y-68952916D01*
X92892380Y-68857678D01*
X92892380Y-68667202D01*
X92940000Y-68571964D01*
X92987619Y-68524345D01*
X93082857Y-68476726D01*
X93320952Y-68476726D01*
X93416190Y-68524345D01*
X93463809Y-68571964D01*
X93511428Y-68667202D01*
X93511428Y-68857678D01*
X93463809Y-68952916D01*
X93416190Y-69000535D01*
X93320952Y-69048154D01*
X322442380Y-40184464D02*
X321442380Y-40184464D01*
X321442380Y-40422559D01*
X321490000Y-40565416D01*
X321585238Y-40660654D01*
X321680476Y-40708273D01*
X321870952Y-40755892D01*
X322013809Y-40755892D01*
X322204285Y-40708273D01*
X322299523Y-40660654D01*
X322394761Y-40565416D01*
X322442380Y-40422559D01*
X322442380Y-40184464D01*
X322442380Y-41708273D02*
X322442380Y-41136845D01*
X322442380Y-41422559D02*
X321442380Y-41422559D01*
X321585238Y-41327321D01*
X321680476Y-41232083D01*
X321728095Y-41136845D01*
X321442380Y-42041607D02*
X321442380Y-42660654D01*
X321823333Y-42327321D01*
X321823333Y-42470178D01*
X321870952Y-42565416D01*
X321918571Y-42613035D01*
X322013809Y-42660654D01*
X322251904Y-42660654D01*
X322347142Y-42613035D01*
X322394761Y-42565416D01*
X322442380Y-42470178D01*
X322442380Y-42184464D01*
X322394761Y-42089226D01*
X322347142Y-42041607D01*
X165392380Y-104671964D02*
X164392380Y-104671964D01*
X164392380Y-104910059D01*
X164440000Y-105052916D01*
X164535238Y-105148154D01*
X164630476Y-105195773D01*
X164820952Y-105243392D01*
X164963809Y-105243392D01*
X165154285Y-105195773D01*
X165249523Y-105148154D01*
X165344761Y-105052916D01*
X165392380Y-104910059D01*
X165392380Y-104671964D01*
X164392380Y-106148154D02*
X164392380Y-105671964D01*
X164868571Y-105624345D01*
X164820952Y-105671964D01*
X164773333Y-105767202D01*
X164773333Y-106005297D01*
X164820952Y-106100535D01*
X164868571Y-106148154D01*
X164963809Y-106195773D01*
X165201904Y-106195773D01*
X165297142Y-106148154D01*
X165344761Y-106100535D01*
X165392380Y-106005297D01*
X165392380Y-105767202D01*
X165344761Y-105671964D01*
X165297142Y-105624345D01*
X164392380Y-107052916D02*
X164392380Y-106862440D01*
X164440000Y-106767202D01*
X164487619Y-106719583D01*
X164630476Y-106624345D01*
X164820952Y-106576726D01*
X165201904Y-106576726D01*
X165297142Y-106624345D01*
X165344761Y-106671964D01*
X165392380Y-106767202D01*
X165392380Y-106957678D01*
X165344761Y-107052916D01*
X165297142Y-107100535D01*
X165201904Y-107148154D01*
X164963809Y-107148154D01*
X164868571Y-107100535D01*
X164820952Y-107052916D01*
X164773333Y-106957678D01*
X164773333Y-106767202D01*
X164820952Y-106671964D01*
X164868571Y-106624345D01*
X164963809Y-106576726D01*
X136704880Y-85384464D02*
X135704880Y-85384464D01*
X135704880Y-85622559D01*
X135752500Y-85765416D01*
X135847738Y-85860654D01*
X135942976Y-85908273D01*
X136133452Y-85955892D01*
X136276309Y-85955892D01*
X136466785Y-85908273D01*
X136562023Y-85860654D01*
X136657261Y-85765416D01*
X136704880Y-85622559D01*
X136704880Y-85384464D01*
X135704880Y-86289226D02*
X135704880Y-86908273D01*
X136085833Y-86574940D01*
X136085833Y-86717797D01*
X136133452Y-86813035D01*
X136181071Y-86860654D01*
X136276309Y-86908273D01*
X136514404Y-86908273D01*
X136609642Y-86860654D01*
X136657261Y-86813035D01*
X136704880Y-86717797D01*
X136704880Y-86432083D01*
X136657261Y-86336845D01*
X136609642Y-86289226D01*
X136133452Y-87479702D02*
X136085833Y-87384464D01*
X136038214Y-87336845D01*
X135942976Y-87289226D01*
X135895357Y-87289226D01*
X135800119Y-87336845D01*
X135752500Y-87384464D01*
X135704880Y-87479702D01*
X135704880Y-87670178D01*
X135752500Y-87765416D01*
X135800119Y-87813035D01*
X135895357Y-87860654D01*
X135942976Y-87860654D01*
X136038214Y-87813035D01*
X136085833Y-87765416D01*
X136133452Y-87670178D01*
X136133452Y-87479702D01*
X136181071Y-87384464D01*
X136228690Y-87336845D01*
X136323928Y-87289226D01*
X136514404Y-87289226D01*
X136609642Y-87336845D01*
X136657261Y-87384464D01*
X136704880Y-87479702D01*
X136704880Y-87670178D01*
X136657261Y-87765416D01*
X136609642Y-87813035D01*
X136514404Y-87860654D01*
X136323928Y-87860654D01*
X136228690Y-87813035D01*
X136181071Y-87765416D01*
X136133452Y-87670178D01*
X62998630Y-104671964D02*
X61998630Y-104671964D01*
X61998630Y-104910059D01*
X62046250Y-105052916D01*
X62141488Y-105148154D01*
X62236726Y-105195773D01*
X62427202Y-105243392D01*
X62570059Y-105243392D01*
X62760535Y-105195773D01*
X62855773Y-105148154D01*
X62951011Y-105052916D01*
X62998630Y-104910059D01*
X62998630Y-104671964D01*
X61998630Y-106148154D02*
X61998630Y-105671964D01*
X62474821Y-105624345D01*
X62427202Y-105671964D01*
X62379583Y-105767202D01*
X62379583Y-106005297D01*
X62427202Y-106100535D01*
X62474821Y-106148154D01*
X62570059Y-106195773D01*
X62808154Y-106195773D01*
X62903392Y-106148154D01*
X62951011Y-106100535D01*
X62998630Y-106005297D01*
X62998630Y-105767202D01*
X62951011Y-105671964D01*
X62903392Y-105624345D01*
X62998630Y-107148154D02*
X62998630Y-106576726D01*
X62998630Y-106862440D02*
X61998630Y-106862440D01*
X62141488Y-106767202D01*
X62236726Y-106671964D01*
X62284345Y-106576726D01*
X193604880Y-85703214D02*
X192604880Y-85703214D01*
X192604880Y-85941309D01*
X192652500Y-86084166D01*
X192747738Y-86179404D01*
X192842976Y-86227023D01*
X193033452Y-86274642D01*
X193176309Y-86274642D01*
X193366785Y-86227023D01*
X193462023Y-86179404D01*
X193557261Y-86084166D01*
X193604880Y-85941309D01*
X193604880Y-85703214D01*
X192938214Y-87131785D02*
X193604880Y-87131785D01*
X192557261Y-86893690D02*
X193271547Y-86655595D01*
X193271547Y-87274642D01*
X193604880Y-88179404D02*
X193604880Y-87607976D01*
X193604880Y-87893690D02*
X192604880Y-87893690D01*
X192747738Y-87798452D01*
X192842976Y-87703214D01*
X192890595Y-87607976D01*
X227242380Y-66571964D02*
X226242380Y-66571964D01*
X226242380Y-66810059D01*
X226290000Y-66952916D01*
X226385238Y-67048154D01*
X226480476Y-67095773D01*
X226670952Y-67143392D01*
X226813809Y-67143392D01*
X227004285Y-67095773D01*
X227099523Y-67048154D01*
X227194761Y-66952916D01*
X227242380Y-66810059D01*
X227242380Y-66571964D01*
X226337619Y-67524345D02*
X226290000Y-67571964D01*
X226242380Y-67667202D01*
X226242380Y-67905297D01*
X226290000Y-68000535D01*
X226337619Y-68048154D01*
X226432857Y-68095773D01*
X226528095Y-68095773D01*
X226670952Y-68048154D01*
X227242380Y-67476726D01*
X227242380Y-68095773D01*
X226242380Y-68952916D02*
X226242380Y-68762440D01*
X226290000Y-68667202D01*
X226337619Y-68619583D01*
X226480476Y-68524345D01*
X226670952Y-68476726D01*
X227051904Y-68476726D01*
X227147142Y-68524345D01*
X227194761Y-68571964D01*
X227242380Y-68667202D01*
X227242380Y-68857678D01*
X227194761Y-68952916D01*
X227147142Y-69000535D01*
X227051904Y-69048154D01*
X226813809Y-69048154D01*
X226718571Y-69000535D01*
X226670952Y-68952916D01*
X226623333Y-68857678D01*
X226623333Y-68667202D01*
X226670952Y-68571964D01*
X226718571Y-68524345D01*
X226813809Y-68476726D01*
X58173630Y-142771964D02*
X57173630Y-142771964D01*
X57173630Y-143010059D01*
X57221250Y-143152916D01*
X57316488Y-143248154D01*
X57411726Y-143295773D01*
X57602202Y-143343392D01*
X57745059Y-143343392D01*
X57935535Y-143295773D01*
X58030773Y-143248154D01*
X58126011Y-143152916D01*
X58173630Y-143010059D01*
X58173630Y-142771964D01*
X57173630Y-143676726D02*
X57173630Y-144343392D01*
X58173630Y-143914821D01*
X57173630Y-144629107D02*
X57173630Y-145295773D01*
X58173630Y-144867202D01*
X212954880Y-123721964D02*
X211954880Y-123721964D01*
X211954880Y-123960059D01*
X212002500Y-124102916D01*
X212097738Y-124198154D01*
X212192976Y-124245773D01*
X212383452Y-124293392D01*
X212526309Y-124293392D01*
X212716785Y-124245773D01*
X212812023Y-124198154D01*
X212907261Y-124102916D01*
X212954880Y-123960059D01*
X212954880Y-123721964D01*
X211954880Y-124626726D02*
X211954880Y-125293392D01*
X212954880Y-124864821D01*
X212954880Y-126198154D02*
X212954880Y-125626726D01*
X212954880Y-125912440D02*
X211954880Y-125912440D01*
X212097738Y-125817202D01*
X212192976Y-125721964D01*
X212240595Y-125626726D01*
X385198630Y-142771964D02*
X384198630Y-142771964D01*
X384198630Y-143010059D01*
X384246250Y-143152916D01*
X384341488Y-143248154D01*
X384436726Y-143295773D01*
X384627202Y-143343392D01*
X384770059Y-143343392D01*
X384960535Y-143295773D01*
X385055773Y-143248154D01*
X385151011Y-143152916D01*
X385198630Y-143010059D01*
X385198630Y-142771964D01*
X384627202Y-143914821D02*
X384579583Y-143819583D01*
X384531964Y-143771964D01*
X384436726Y-143724345D01*
X384389107Y-143724345D01*
X384293869Y-143771964D01*
X384246250Y-143819583D01*
X384198630Y-143914821D01*
X384198630Y-144105297D01*
X384246250Y-144200535D01*
X384293869Y-144248154D01*
X384389107Y-144295773D01*
X384436726Y-144295773D01*
X384531964Y-144248154D01*
X384579583Y-144200535D01*
X384627202Y-144105297D01*
X384627202Y-143914821D01*
X384674821Y-143819583D01*
X384722440Y-143771964D01*
X384817678Y-143724345D01*
X385008154Y-143724345D01*
X385103392Y-143771964D01*
X385151011Y-143819583D01*
X385198630Y-143914821D01*
X385198630Y-144105297D01*
X385151011Y-144200535D01*
X385103392Y-144248154D01*
X385008154Y-144295773D01*
X384817678Y-144295773D01*
X384722440Y-144248154D01*
X384674821Y-144200535D01*
X384627202Y-144105297D01*
X384198630Y-144629107D02*
X384198630Y-145295773D01*
X385198630Y-144867202D01*
X384876666Y-94482380D02*
X385210000Y-94006190D01*
X385448095Y-94482380D02*
X385448095Y-93482380D01*
X385067142Y-93482380D01*
X384971904Y-93530000D01*
X384924285Y-93577619D01*
X384876666Y-93672857D01*
X384876666Y-93815714D01*
X384924285Y-93910952D01*
X384971904Y-93958571D01*
X385067142Y-94006190D01*
X385448095Y-94006190D01*
X383924285Y-94482380D02*
X384495714Y-94482380D01*
X384210000Y-94482380D02*
X384210000Y-93482380D01*
X384305238Y-93625238D01*
X384400476Y-93720476D01*
X384495714Y-93768095D01*
X174804880Y-85384464D02*
X173804880Y-85384464D01*
X173804880Y-85622559D01*
X173852500Y-85765416D01*
X173947738Y-85860654D01*
X174042976Y-85908273D01*
X174233452Y-85955892D01*
X174376309Y-85955892D01*
X174566785Y-85908273D01*
X174662023Y-85860654D01*
X174757261Y-85765416D01*
X174804880Y-85622559D01*
X174804880Y-85384464D01*
X174138214Y-86813035D02*
X174804880Y-86813035D01*
X173757261Y-86574940D02*
X174471547Y-86336845D01*
X174471547Y-86955892D01*
X173804880Y-87527321D02*
X173804880Y-87622559D01*
X173852500Y-87717797D01*
X173900119Y-87765416D01*
X173995357Y-87813035D01*
X174185833Y-87860654D01*
X174423928Y-87860654D01*
X174614404Y-87813035D01*
X174709642Y-87765416D01*
X174757261Y-87717797D01*
X174804880Y-87622559D01*
X174804880Y-87527321D01*
X174757261Y-87432083D01*
X174709642Y-87384464D01*
X174614404Y-87336845D01*
X174423928Y-87289226D01*
X174185833Y-87289226D01*
X173995357Y-87336845D01*
X173900119Y-87384464D01*
X173852500Y-87432083D01*
X173804880Y-87527321D01*
D13*
X76102500Y-88848750D02*
X76102500Y-84948750D01*
X78102500Y-88848750D02*
X78102500Y-84948750D01*
X78102500Y-88848750D02*
X76102500Y-88848750D01*
X206740000Y-70036250D02*
X204740000Y-70036250D01*
X206740000Y-70036250D02*
X206740000Y-66136250D01*
X204740000Y-70036250D02*
X204740000Y-66136250D01*
X192452500Y-127186250D02*
X190452500Y-127186250D01*
X192452500Y-127186250D02*
X192452500Y-123286250D01*
X190452500Y-127186250D02*
X190452500Y-123286250D01*
X318658750Y-146236250D02*
X318658750Y-142336250D01*
X316658750Y-146236250D02*
X316658750Y-142336250D01*
X318658750Y-146236250D02*
X316658750Y-146236250D01*
X285652500Y-88848750D02*
X285652500Y-84948750D01*
X287652500Y-88848750D02*
X285652500Y-88848750D01*
X287652500Y-88848750D02*
X287652500Y-84948750D01*
X232521250Y-43048750D02*
X232521250Y-39148750D01*
X234521250Y-43048750D02*
X234521250Y-39148750D01*
X234521250Y-43048750D02*
X232521250Y-43048750D01*
X327551252Y-110765000D02*
X327028748Y-110765000D01*
X327551252Y-109295000D02*
X327028748Y-109295000D01*
X392740000Y-97250000D02*
X389840000Y-97250000D01*
X392740000Y-91810000D02*
X389840000Y-91810000D01*
X388570000Y-95570000D02*
X388570000Y-93490000D01*
X392740000Y-97250000D02*
X393230000Y-96760000D01*
X394010000Y-95570000D02*
X394010000Y-93490000D01*
X389840000Y-97250000D02*
X389350000Y-96760000D01*
X392740000Y-91810000D02*
X393230000Y-92300000D01*
X389840000Y-91810000D02*
X389350000Y-92300000D01*
X383746250Y-43448750D02*
X381746250Y-43448750D01*
X381746250Y-43448750D02*
X381746250Y-39548750D01*
X383746250Y-43448750D02*
X383746250Y-39548750D01*
X230502500Y-88848750D02*
X230502500Y-84948750D01*
X228502500Y-88848750D02*
X228502500Y-84948750D01*
X230502500Y-88848750D02*
X228502500Y-88848750D01*
X202040000Y-108136250D02*
X200040000Y-108136250D01*
X200040000Y-108136250D02*
X200040000Y-104236250D01*
X202040000Y-108136250D02*
X202040000Y-104236250D01*
X247602500Y-127186250D02*
X247602500Y-123286250D01*
X249602500Y-127186250D02*
X247602500Y-127186250D01*
X249602500Y-127186250D02*
X249602500Y-123286250D01*
X106790000Y-108136250D02*
X104790000Y-108136250D01*
X104790000Y-108136250D02*
X104790000Y-104236250D01*
X106790000Y-108136250D02*
X106790000Y-104236250D01*
X362696250Y-127186250D02*
X362696250Y-123286250D01*
X364696250Y-127186250D02*
X362696250Y-127186250D01*
X364696250Y-127186250D02*
X364696250Y-123286250D01*
X78533750Y-146236250D02*
X78533750Y-142336250D01*
X80533750Y-146236250D02*
X80533750Y-142336250D01*
X80533750Y-146236250D02*
X78533750Y-146236250D01*
X221090000Y-108136250D02*
X219090000Y-108136250D01*
X219090000Y-108136250D02*
X219090000Y-104236250D01*
X221090000Y-108136250D02*
X221090000Y-104236250D01*
X304371250Y-127186250D02*
X304371250Y-123286250D01*
X304371250Y-127186250D02*
X302371250Y-127186250D01*
X302371250Y-127186250D02*
X302371250Y-123286250D01*
X343128748Y-25440000D02*
X343651252Y-25440000D01*
X343128748Y-24020000D02*
X343651252Y-24020000D01*
X53871250Y-88886250D02*
X53871250Y-84986250D01*
X55871250Y-88886250D02*
X55871250Y-84986250D01*
X55871250Y-88886250D02*
X53871250Y-88886250D01*
X111490000Y-70036250D02*
X109490000Y-70036250D01*
X109490000Y-70036250D02*
X109490000Y-66136250D01*
X111490000Y-70036250D02*
X111490000Y-66136250D01*
X364596250Y-88686250D02*
X362596250Y-88686250D01*
X364596250Y-88686250D02*
X364596250Y-84786250D01*
X362596250Y-88686250D02*
X362596250Y-84786250D01*
X185690000Y-70036250D02*
X185690000Y-66136250D01*
X187690000Y-70036250D02*
X185690000Y-70036250D01*
X187690000Y-70036250D02*
X187690000Y-66136250D01*
X347952500Y-110967500D02*
X347952500Y-105567500D01*
X352452500Y-110967500D02*
X347952500Y-110967500D01*
X133302500Y-127186250D02*
X133302500Y-123286250D01*
X135302500Y-127186250D02*
X135302500Y-123286250D01*
X135302500Y-127186250D02*
X133302500Y-127186250D01*
X355226252Y-110590000D02*
X354703748Y-110590000D01*
X355226252Y-109120000D02*
X354703748Y-109120000D01*
X259190000Y-108136250D02*
X257190000Y-108136250D01*
X259190000Y-108136250D02*
X259190000Y-104236250D01*
X257190000Y-108136250D02*
X257190000Y-104236250D01*
X330562936Y-115295000D02*
X331017064Y-115295000D01*
X330562936Y-116765000D02*
X331017064Y-116765000D01*
X345746250Y-89286250D02*
X345746250Y-85386250D01*
X343746250Y-89286250D02*
X343746250Y-85386250D01*
X345746250Y-89286250D02*
X343746250Y-89286250D01*
X240140000Y-108136250D02*
X240140000Y-104236250D01*
X238140000Y-108136250D02*
X238140000Y-104236250D01*
X240140000Y-108136250D02*
X238140000Y-108136250D01*
X173402500Y-127186250D02*
X171402500Y-127186250D01*
X173402500Y-127186250D02*
X173402500Y-123286250D01*
X171402500Y-127186250D02*
X171402500Y-123286250D01*
X166640000Y-70036250D02*
X166640000Y-66136250D01*
X168640000Y-70036250D02*
X166640000Y-70036250D01*
X168640000Y-70036250D02*
X168640000Y-66136250D01*
X149590000Y-43048750D02*
X149590000Y-39148750D01*
X149590000Y-43048750D02*
X147590000Y-43048750D01*
X147590000Y-43048750D02*
X147590000Y-39148750D01*
X341051252Y-115545000D02*
X340528748Y-115545000D01*
X341051252Y-117015000D02*
X340528748Y-117015000D01*
X142890000Y-108136250D02*
X142890000Y-104236250D01*
X144890000Y-108136250D02*
X144890000Y-104236250D01*
X144890000Y-108136250D02*
X142890000Y-108136250D01*
X345646250Y-146236250D02*
X345646250Y-142336250D01*
X343646250Y-146236250D02*
X343646250Y-142336250D01*
X345646250Y-146236250D02*
X343646250Y-146236250D01*
X97152500Y-88848750D02*
X95152500Y-88848750D01*
X97152500Y-88848750D02*
X97152500Y-84948750D01*
X95152500Y-88848750D02*
X95152500Y-84948750D01*
X331617064Y-29095000D02*
X331162936Y-29095000D01*
X331617064Y-30565000D02*
X331162936Y-30565000D01*
X271033750Y-146236250D02*
X269033750Y-146236250D01*
X271033750Y-146236250D02*
X271033750Y-142336250D01*
X269033750Y-146236250D02*
X269033750Y-142336250D01*
X345702500Y-43648750D02*
X345702500Y-39748750D01*
X345702500Y-43648750D02*
X343702500Y-43648750D01*
X343702500Y-43648750D02*
X343702500Y-39748750D01*
X130540000Y-70036250D02*
X130540000Y-66136250D01*
X130540000Y-70036250D02*
X128540000Y-70036250D01*
X128540000Y-70036250D02*
X128540000Y-66136250D01*
X332600000Y-36927936D02*
X332600000Y-38132064D01*
X330780000Y-36927936D02*
X330780000Y-38132064D01*
X344555000Y-104291252D02*
X344555000Y-103768748D01*
X346025000Y-104291252D02*
X346025000Y-103768748D01*
X52340000Y-70242500D02*
X52340000Y-66342500D01*
X54340000Y-70242500D02*
X54340000Y-66342500D01*
X54340000Y-70242500D02*
X52340000Y-70242500D01*
X264196250Y-43448750D02*
X262196250Y-43448750D01*
X264196250Y-43448750D02*
X264196250Y-39548750D01*
X262196250Y-43448750D02*
X262196250Y-39548750D01*
X333620000Y-31310000D02*
X335620000Y-31310000D01*
X334920000Y-34430000D02*
X333620000Y-34430000D01*
X116202500Y-88848750D02*
X114202500Y-88848750D01*
X116202500Y-88848750D02*
X116202500Y-84948750D01*
X114202500Y-88848750D02*
X114202500Y-84948750D01*
X215471250Y-43048750D02*
X215471250Y-39148750D01*
X213471250Y-43048750D02*
X213471250Y-39148750D01*
X215471250Y-43048750D02*
X213471250Y-43048750D01*
X91146250Y-42355000D02*
X91146250Y-38455000D01*
X91146250Y-42355000D02*
X89146250Y-42355000D01*
X89146250Y-42355000D02*
X89146250Y-38455000D01*
D14*
X387620000Y-100530000D02*
X387620000Y-103030000D01*
X392620000Y-103030000D02*
X392620000Y-100530000D01*
X387620000Y-103030000D02*
X392620000Y-103030000D01*
X392620000Y-100530000D02*
X387620000Y-100530000D01*
D13*
X104346250Y-146236250D02*
X102346250Y-146236250D01*
X102346250Y-146236250D02*
X102346250Y-142336250D01*
X104346250Y-146236250D02*
X104346250Y-142336250D01*
X177371250Y-43048750D02*
X175371250Y-43048750D01*
X177371250Y-43048750D02*
X177371250Y-39148750D01*
X175371250Y-43048750D02*
X175371250Y-39148750D01*
X365046250Y-70036250D02*
X365046250Y-66136250D01*
X363046250Y-70036250D02*
X363046250Y-66136250D01*
X365046250Y-70036250D02*
X363046250Y-70036250D01*
X114252500Y-127186250D02*
X114252500Y-123286250D01*
X116252500Y-127186250D02*
X114252500Y-127186250D01*
X116252500Y-127186250D02*
X116252500Y-123286250D01*
X196421250Y-43048750D02*
X196421250Y-39148750D01*
X196421250Y-43048750D02*
X194421250Y-43048750D01*
X194421250Y-43048750D02*
X194421250Y-39148750D01*
X266602500Y-88848750D02*
X266602500Y-84948750D01*
X268602500Y-88848750D02*
X268602500Y-84948750D01*
X268602500Y-88848750D02*
X266602500Y-88848750D01*
X154352500Y-127186250D02*
X154352500Y-123286250D01*
X154352500Y-127186250D02*
X152352500Y-127186250D01*
X152352500Y-127186250D02*
X152352500Y-123286250D01*
X66246250Y-127186250D02*
X64246250Y-127186250D01*
X64246250Y-127186250D02*
X64246250Y-123286250D01*
X66246250Y-127186250D02*
X66246250Y-123286250D01*
X283296250Y-43448750D02*
X281296250Y-43448750D01*
X281296250Y-43448750D02*
X281296250Y-39548750D01*
X283296250Y-43448750D02*
X283296250Y-39548750D01*
X278240000Y-108136250D02*
X276240000Y-108136250D01*
X278240000Y-108136250D02*
X278240000Y-104236250D01*
X276240000Y-108136250D02*
X276240000Y-104236250D01*
X263890000Y-70036250D02*
X261890000Y-70036250D01*
X263890000Y-70036250D02*
X263890000Y-66136250D01*
X261890000Y-70036250D02*
X261890000Y-66136250D01*
X332050000Y-102690000D02*
X332250000Y-102440000D01*
D11*
X331690000Y-101855000D02*
X331690000Y-100580000D01*
D13*
X332250000Y-102440000D02*
X332300000Y-102430000D01*
X332330000Y-103020000D02*
X332330000Y-102400000D01*
D11*
X331115000Y-101855000D02*
X331690000Y-101855000D01*
X331115000Y-112205000D02*
X331115000Y-111530000D01*
X331115000Y-101855000D02*
X331115000Y-102530000D01*
X341465000Y-112205000D02*
X341465000Y-111530000D01*
D13*
X332310000Y-102380000D02*
X332630000Y-102710000D01*
D11*
X331115000Y-112205000D02*
X331790000Y-112205000D01*
X341465000Y-101855000D02*
X340790000Y-101855000D01*
X341465000Y-101855000D02*
X341465000Y-102530000D01*
X341465000Y-112205000D02*
X340790000Y-112205000D01*
D13*
X292846250Y-146236250D02*
X292846250Y-142336250D01*
X294846250Y-146236250D02*
X292846250Y-146236250D01*
X294846250Y-146236250D02*
X294846250Y-142336250D01*
X209452500Y-88848750D02*
X209452500Y-84948750D01*
X211452500Y-88848750D02*
X209452500Y-88848750D01*
X211452500Y-88848750D02*
X211452500Y-84948750D01*
X87740000Y-108136250D02*
X87740000Y-104236250D01*
X85740000Y-108136250D02*
X85740000Y-104236250D01*
X87740000Y-108136250D02*
X85740000Y-108136250D01*
X244840000Y-70036250D02*
X244840000Y-66136250D01*
X242840000Y-70036250D02*
X242840000Y-66136250D01*
X244840000Y-70036250D02*
X242840000Y-70036250D01*
X228552500Y-127186250D02*
X228552500Y-123286250D01*
X230552500Y-127186250D02*
X230552500Y-123286250D01*
X230552500Y-127186250D02*
X228552500Y-127186250D01*
X336025000Y-94332936D02*
X336025000Y-94787064D01*
X334555000Y-94332936D02*
X334555000Y-94787064D01*
X313846250Y-88848750D02*
X313846250Y-84948750D01*
X313846250Y-88848750D02*
X311846250Y-88848750D01*
X311846250Y-88848750D02*
X311846250Y-84948750D01*
X309515000Y-70036250D02*
X309515000Y-66136250D01*
X311515000Y-70036250D02*
X309515000Y-70036250D01*
X311515000Y-70036250D02*
X311515000Y-66136250D01*
X381746250Y-89086250D02*
X381746250Y-85186250D01*
X383746250Y-89086250D02*
X381746250Y-89086250D01*
X383746250Y-89086250D02*
X383746250Y-85186250D01*
X336528748Y-97295000D02*
X337051252Y-97295000D01*
X336528748Y-98765000D02*
X337051252Y-98765000D01*
X247221250Y-146236250D02*
X245221250Y-146236250D01*
X245221250Y-146236250D02*
X245221250Y-142336250D01*
X247221250Y-146236250D02*
X247221250Y-142336250D01*
X266652500Y-127186250D02*
X266652500Y-123286250D01*
X268652500Y-127186250D02*
X268652500Y-123286250D01*
X268652500Y-127186250D02*
X266652500Y-127186250D01*
X123840000Y-108136250D02*
X123840000Y-104236250D01*
X125840000Y-108136250D02*
X125840000Y-104236250D01*
X125840000Y-108136250D02*
X123840000Y-108136250D01*
X247552500Y-88848750D02*
X247552500Y-84948750D01*
X249552500Y-88848750D02*
X249552500Y-84948750D01*
X249552500Y-88848750D02*
X247552500Y-88848750D01*
X364696250Y-146236250D02*
X364696250Y-142336250D01*
X362696250Y-146236250D02*
X362696250Y-142336250D01*
X364696250Y-146236250D02*
X362696250Y-146236250D01*
X382096250Y-70036250D02*
X382096250Y-66136250D01*
X384096250Y-70036250D02*
X384096250Y-66136250D01*
X384096250Y-70036250D02*
X382096250Y-70036250D01*
X182990000Y-108136250D02*
X180990000Y-108136250D01*
X182990000Y-108136250D02*
X182990000Y-104236250D01*
X180990000Y-108136250D02*
X180990000Y-104236250D01*
X52952500Y-42405000D02*
X52952500Y-38505000D01*
X50952500Y-42405000D02*
X50952500Y-38505000D01*
X52952500Y-42405000D02*
X50952500Y-42405000D01*
X301996250Y-43448750D02*
X301996250Y-39548750D01*
X299996250Y-43448750D02*
X299996250Y-39548750D01*
X301996250Y-43448750D02*
X299996250Y-43448750D01*
X333981250Y-94332936D02*
X333981250Y-94787064D01*
X332511250Y-94332936D02*
X332511250Y-94787064D01*
X282940000Y-70036250D02*
X280940000Y-70036250D01*
X282940000Y-70036250D02*
X282940000Y-66136250D01*
X280940000Y-70036250D02*
X280940000Y-66136250D01*
X365152500Y-43448750D02*
X363152500Y-43448750D01*
X365152500Y-43448750D02*
X365152500Y-39548750D01*
X363152500Y-43448750D02*
X363152500Y-39548750D01*
X97202500Y-127186250D02*
X97202500Y-123286250D01*
X95202500Y-127186250D02*
X95202500Y-123286250D01*
X97202500Y-127186250D02*
X95202500Y-127186250D01*
X355226252Y-107415000D02*
X354703748Y-107415000D01*
X355226252Y-105945000D02*
X354703748Y-105945000D01*
X175783750Y-146236250D02*
X173783750Y-146236250D01*
X173783750Y-146236250D02*
X173783750Y-142336250D01*
X175783750Y-146236250D02*
X175783750Y-142336250D01*
X152302500Y-88848750D02*
X152302500Y-84948750D01*
X154302500Y-88848750D02*
X152302500Y-88848750D01*
X154302500Y-88848750D02*
X154302500Y-84948750D01*
X336762936Y-30565000D02*
X337217064Y-30565000D01*
X336762936Y-29095000D02*
X337217064Y-29095000D01*
X345846250Y-69961250D02*
X345846250Y-66061250D01*
X343846250Y-69961250D02*
X343846250Y-66061250D01*
X345846250Y-69961250D02*
X343846250Y-69961250D01*
X147590000Y-70036250D02*
X147590000Y-66136250D01*
X149590000Y-70036250D02*
X147590000Y-70036250D01*
X149590000Y-70036250D02*
X149590000Y-66136250D01*
X73390000Y-70236250D02*
X71390000Y-70236250D01*
X73390000Y-70236250D02*
X73390000Y-66336250D01*
X71390000Y-70236250D02*
X71390000Y-66336250D01*
X330278748Y-97295000D02*
X330801252Y-97295000D01*
X330278748Y-98765000D02*
X330801252Y-98765000D01*
X130540000Y-43048750D02*
X128540000Y-43048750D01*
X128540000Y-43048750D02*
X128540000Y-39148750D01*
X130540000Y-43048750D02*
X130540000Y-39148750D01*
X307196250Y-108136250D02*
X307196250Y-104236250D01*
X309196250Y-108136250D02*
X307196250Y-108136250D01*
X309196250Y-108136250D02*
X309196250Y-104236250D01*
X327305000Y-101541252D02*
X327305000Y-101018748D01*
X328775000Y-101541252D02*
X328775000Y-101018748D01*
X325025000Y-100268748D02*
X325025000Y-100791252D01*
X323555000Y-100268748D02*
X323555000Y-100791252D01*
X110490000Y-42948750D02*
X110490000Y-39048750D01*
X110490000Y-42948750D02*
X108490000Y-42948750D01*
X108490000Y-42948750D02*
X108490000Y-39048750D01*
X92440000Y-70036250D02*
X90440000Y-70036250D01*
X92440000Y-70036250D02*
X92440000Y-66136250D01*
X90440000Y-70036250D02*
X90440000Y-66136250D01*
X318990000Y-43648750D02*
X318990000Y-39748750D01*
X320990000Y-43648750D02*
X318990000Y-43648750D01*
X320990000Y-43648750D02*
X320990000Y-39748750D01*
X163940000Y-108136250D02*
X163940000Y-104236250D01*
X163940000Y-108136250D02*
X161940000Y-108136250D01*
X161940000Y-108136250D02*
X161940000Y-104236250D01*
X133252500Y-88848750D02*
X133252500Y-84948750D01*
X135252500Y-88848750D02*
X135252500Y-84948750D01*
X135252500Y-88848750D02*
X133252500Y-88848750D01*
X59546250Y-108136250D02*
X59546250Y-104236250D01*
X61546250Y-108136250D02*
X59546250Y-108136250D01*
X61546250Y-108136250D02*
X61546250Y-104236250D01*
X192152500Y-89167500D02*
X192152500Y-85267500D01*
X190152500Y-89167500D02*
X190152500Y-85267500D01*
X192152500Y-89167500D02*
X190152500Y-89167500D01*
X225790000Y-70036250D02*
X225790000Y-66136250D01*
X225790000Y-70036250D02*
X223790000Y-70036250D01*
X223790000Y-70036250D02*
X223790000Y-66136250D01*
X56721250Y-146236250D02*
X56721250Y-142336250D01*
X56721250Y-146236250D02*
X54721250Y-146236250D01*
X54721250Y-146236250D02*
X54721250Y-142336250D01*
X211502500Y-127186250D02*
X211502500Y-123286250D01*
X211502500Y-127186250D02*
X209502500Y-127186250D01*
X209502500Y-127186250D02*
X209502500Y-123286250D01*
X383746250Y-146236250D02*
X381746250Y-146236250D01*
X383746250Y-146236250D02*
X383746250Y-142336250D01*
X381746250Y-146236250D02*
X381746250Y-142336250D01*
X384517064Y-97015000D02*
X384062936Y-97015000D01*
X384517064Y-95545000D02*
X384062936Y-95545000D01*
X173352500Y-88848750D02*
X171352500Y-88848750D01*
X171352500Y-88848750D02*
X171352500Y-84948750D01*
X173352500Y-88848750D02*
X173352500Y-84948750D01*
%LPC*%
D15*
X141605000Y-82232500D03*
X131445000Y-82232500D03*
D16*
X136525000Y-82232500D03*
D17*
X139065000Y-77152500D03*
X132715000Y-79692500D03*
D15*
X221932500Y-63182500D03*
X232092500Y-63182500D03*
D16*
X227012500Y-63182500D03*
D17*
X229552500Y-58102500D03*
X223202500Y-60642500D03*
D18*
X164190000Y-48330000D03*
D15*
X298132500Y-36512500D03*
D16*
X303212500Y-36512500D03*
D15*
X308292500Y-36512500D03*
D17*
X305752500Y-31432500D03*
X299402500Y-33972500D03*
D16*
X127000000Y-101282500D03*
D15*
X132080000Y-101282500D03*
X121920000Y-101282500D03*
D17*
X129540000Y-96202500D03*
X123190000Y-98742500D03*
D16*
X365918750Y-63182500D03*
D15*
X370998750Y-63182500D03*
X360838750Y-63182500D03*
D17*
X368458750Y-58102500D03*
X362108750Y-60642500D03*
D15*
X198755000Y-82232500D03*
X188595000Y-82232500D03*
D16*
X193675000Y-82232500D03*
D17*
X196215000Y-77152500D03*
X189865000Y-79692500D03*
D16*
X131762500Y-36512500D03*
D15*
X136842500Y-36512500D03*
X126682500Y-36512500D03*
D17*
X134302500Y-31432500D03*
X127952500Y-33972500D03*
D15*
X112395000Y-120332500D03*
X122555000Y-120332500D03*
D16*
X117475000Y-120332500D03*
D17*
X120015000Y-115252500D03*
X113665000Y-117792500D03*
D15*
X274955000Y-120332500D03*
D16*
X269875000Y-120332500D03*
D15*
X264795000Y-120332500D03*
D17*
X272415000Y-115252500D03*
X266065000Y-117792500D03*
D15*
X236855000Y-82232500D03*
X226695000Y-82232500D03*
D16*
X231775000Y-82232500D03*
D17*
X234315000Y-77152500D03*
X227965000Y-79692500D03*
D15*
X324961250Y-139382500D03*
D16*
X319881250Y-139382500D03*
D15*
X314801250Y-139382500D03*
D17*
X322421250Y-134302500D03*
X316071250Y-136842500D03*
D15*
X352107500Y-36512500D03*
X341947500Y-36512500D03*
D16*
X347027500Y-36512500D03*
D17*
X349567500Y-31432500D03*
X343217500Y-33972500D03*
D16*
X150812500Y-36512500D03*
D15*
X145732500Y-36512500D03*
X155892500Y-36512500D03*
D17*
X153352500Y-31432500D03*
X147002500Y-33972500D03*
D16*
X246062500Y-63182500D03*
D15*
X251142500Y-63182500D03*
X240982500Y-63182500D03*
D17*
X248602500Y-58102500D03*
X242252500Y-60642500D03*
D16*
X112712500Y-36512500D03*
D15*
X117792500Y-36512500D03*
X107632500Y-36512500D03*
D17*
X115252500Y-31432500D03*
X108902500Y-33972500D03*
D15*
X360838750Y-139382500D03*
D16*
X365918750Y-139382500D03*
D15*
X370998750Y-139382500D03*
D17*
X368458750Y-134302500D03*
X362108750Y-136842500D03*
D15*
X160655000Y-82232500D03*
D16*
X155575000Y-82232500D03*
D15*
X150495000Y-82232500D03*
D17*
X158115000Y-77152500D03*
X151765000Y-79692500D03*
D16*
X235902500Y-36512500D03*
D15*
X240982500Y-36512500D03*
X230822500Y-36512500D03*
D17*
X238442500Y-31432500D03*
X232092500Y-33972500D03*
D18*
X392340000Y-122430000D03*
D16*
X197802500Y-36512500D03*
D15*
X192722500Y-36512500D03*
X202882500Y-36512500D03*
D17*
X200342500Y-31432500D03*
X193992500Y-33972500D03*
D15*
X290988750Y-139382500D03*
X301148750Y-139382500D03*
D16*
X296068750Y-139382500D03*
D17*
X298608750Y-134302500D03*
X292258750Y-136842500D03*
D15*
X76676250Y-139382500D03*
D16*
X81756250Y-139382500D03*
D15*
X86836250Y-139382500D03*
D17*
X84296250Y-134302500D03*
X77946250Y-136842500D03*
D16*
X131762500Y-63182500D03*
D15*
X136842500Y-63182500D03*
X126682500Y-63182500D03*
D17*
X134302500Y-58102500D03*
X127952500Y-60642500D03*
D15*
X117792500Y-63182500D03*
D16*
X112712500Y-63182500D03*
D15*
X107632500Y-63182500D03*
D17*
X115252500Y-58102500D03*
X108902500Y-60642500D03*
D15*
X274320000Y-101282500D03*
X284480000Y-101282500D03*
D16*
X279400000Y-101282500D03*
D17*
X281940000Y-96202500D03*
X275590000Y-98742500D03*
D15*
X255905000Y-82232500D03*
X245745000Y-82232500D03*
D16*
X250825000Y-82232500D03*
D17*
X253365000Y-77152500D03*
X247015000Y-79692500D03*
D15*
X100488750Y-139382500D03*
D16*
X105568750Y-139382500D03*
D15*
X110648750Y-139382500D03*
D17*
X108108750Y-134302500D03*
X101758750Y-136842500D03*
D16*
X260350000Y-101282500D03*
D15*
X265430000Y-101282500D03*
X255270000Y-101282500D03*
D17*
X262890000Y-96202500D03*
X256540000Y-98742500D03*
D16*
X117475000Y-82232500D03*
D15*
X112395000Y-82232500D03*
X122555000Y-82232500D03*
D17*
X120015000Y-77152500D03*
X113665000Y-79692500D03*
D16*
X384968750Y-139382500D03*
D15*
X390048750Y-139382500D03*
X379888750Y-139382500D03*
D17*
X387508750Y-134302500D03*
X381158750Y-136842500D03*
D15*
X279082500Y-36512500D03*
X289242500Y-36512500D03*
D16*
X284162500Y-36512500D03*
D17*
X286702500Y-31432500D03*
X280352500Y-33972500D03*
D15*
X140970000Y-101282500D03*
X151130000Y-101282500D03*
D16*
X146050000Y-101282500D03*
D17*
X148590000Y-96202500D03*
X142240000Y-98742500D03*
D15*
X93980000Y-101282500D03*
X83820000Y-101282500D03*
D16*
X88900000Y-101282500D03*
D17*
X91440000Y-96202500D03*
X85090000Y-98742500D03*
D16*
X107950000Y-101282500D03*
D15*
X102870000Y-101282500D03*
X113030000Y-101282500D03*
D17*
X110490000Y-96202500D03*
X104140000Y-98742500D03*
D16*
X136525000Y-120332500D03*
D15*
X141605000Y-120332500D03*
X131445000Y-120332500D03*
D17*
X139065000Y-115252500D03*
X132715000Y-117792500D03*
D15*
X341788750Y-82232500D03*
X351948750Y-82232500D03*
D16*
X346868750Y-82232500D03*
D17*
X349408750Y-77152500D03*
X343058750Y-79692500D03*
D15*
X236855000Y-120332500D03*
X226695000Y-120332500D03*
D16*
X231775000Y-120332500D03*
D17*
X234315000Y-115252500D03*
X227965000Y-117792500D03*
D15*
X294005000Y-82232500D03*
X283845000Y-82232500D03*
D16*
X288925000Y-82232500D03*
D17*
X291465000Y-77152500D03*
X285115000Y-79692500D03*
D16*
X366077500Y-36512500D03*
D15*
X371157500Y-36512500D03*
X360997500Y-36512500D03*
D17*
X368617500Y-31432500D03*
X362267500Y-33972500D03*
D18*
X297740000Y-50330000D03*
D16*
X322262500Y-36512500D03*
D15*
X327342500Y-36512500D03*
X317182500Y-36512500D03*
D17*
X324802500Y-31432500D03*
X318452500Y-33972500D03*
D18*
X132390000Y-136680000D03*
D15*
X98742500Y-36512500D03*
D16*
X93662500Y-36512500D03*
D15*
X88582500Y-36512500D03*
D17*
X96202500Y-31432500D03*
X89852500Y-33972500D03*
D15*
X160020000Y-101282500D03*
X170180000Y-101282500D03*
D16*
X165100000Y-101282500D03*
D17*
X167640000Y-96202500D03*
X161290000Y-98742500D03*
D15*
X188595000Y-120332500D03*
X198755000Y-120332500D03*
D16*
X193675000Y-120332500D03*
D17*
X196215000Y-115252500D03*
X189865000Y-117792500D03*
D15*
X198120000Y-101282500D03*
X208280000Y-101282500D03*
D16*
X203200000Y-101282500D03*
D17*
X205740000Y-96202500D03*
X199390000Y-98742500D03*
D15*
X174942500Y-63182500D03*
X164782500Y-63182500D03*
D16*
X169862500Y-63182500D03*
D17*
X172402500Y-58102500D03*
X166052500Y-60642500D03*
D16*
X212725000Y-82232500D03*
D15*
X217805000Y-82232500D03*
X207645000Y-82232500D03*
D17*
X215265000Y-77152500D03*
X208915000Y-79692500D03*
D15*
X390048750Y-63182500D03*
D16*
X384968750Y-63182500D03*
D15*
X379888750Y-63182500D03*
D17*
X387508750Y-58102500D03*
X381158750Y-60642500D03*
D15*
X145732500Y-63182500D03*
X155892500Y-63182500D03*
D16*
X150812500Y-63182500D03*
D17*
X153352500Y-58102500D03*
X147002500Y-60642500D03*
D15*
X264795000Y-82232500D03*
X274955000Y-82232500D03*
D16*
X269875000Y-82232500D03*
D17*
X272415000Y-77152500D03*
X266065000Y-79692500D03*
D15*
X179705000Y-120332500D03*
X169545000Y-120332500D03*
D16*
X174625000Y-120332500D03*
D17*
X177165000Y-115252500D03*
X170815000Y-117792500D03*
D15*
X72552500Y-120352500D03*
X62392500Y-120352500D03*
D16*
X67472500Y-120352500D03*
D17*
X70012500Y-115272500D03*
X63662500Y-117812500D03*
D18*
X376240000Y-49630000D03*
D16*
X93662500Y-63182500D03*
D15*
X88582500Y-63182500D03*
X98742500Y-63182500D03*
D17*
X96202500Y-58102500D03*
X89852500Y-60642500D03*
D18*
X49590000Y-120930000D03*
D15*
X160655000Y-120332500D03*
X150495000Y-120332500D03*
D16*
X155575000Y-120332500D03*
D17*
X158115000Y-115252500D03*
X151765000Y-117792500D03*
D15*
X69532500Y-63182500D03*
D16*
X74612500Y-63182500D03*
D15*
X79692500Y-63182500D03*
D17*
X77152500Y-58102500D03*
X70802500Y-60642500D03*
D15*
X103505000Y-120332500D03*
X93345000Y-120332500D03*
D16*
X98425000Y-120332500D03*
D17*
X100965000Y-115252500D03*
X94615000Y-117792500D03*
D16*
X222250000Y-101282500D03*
D15*
X217170000Y-101282500D03*
X227330000Y-101282500D03*
D17*
X224790000Y-96202500D03*
X218440000Y-98742500D03*
D15*
X52863750Y-139382500D03*
X63023750Y-139382500D03*
D16*
X57943750Y-139382500D03*
D17*
X60483750Y-134302500D03*
X54133750Y-136842500D03*
D15*
X84455000Y-82232500D03*
D16*
X79375000Y-82232500D03*
D15*
X74295000Y-82232500D03*
D17*
X81915000Y-77152500D03*
X75565000Y-79692500D03*
D16*
X365918750Y-120332500D03*
D15*
X370998750Y-120332500D03*
X360838750Y-120332500D03*
D17*
X368458750Y-115252500D03*
X362108750Y-117792500D03*
D16*
X62706250Y-101282500D03*
D15*
X57626250Y-101282500D03*
X67786250Y-101282500D03*
D17*
X65246250Y-96202500D03*
X58896250Y-98742500D03*
D16*
X315118750Y-82232500D03*
D15*
X310038750Y-82232500D03*
X320198750Y-82232500D03*
D17*
X317658750Y-77152500D03*
X311308750Y-79692500D03*
D15*
X270192500Y-36512500D03*
D16*
X265112500Y-36512500D03*
D15*
X260032500Y-36512500D03*
D17*
X267652500Y-31432500D03*
X261302500Y-33972500D03*
D15*
X50482500Y-36512500D03*
X60642500Y-36512500D03*
D16*
X55562500Y-36512500D03*
D17*
X58102500Y-31432500D03*
X51752500Y-33972500D03*
D15*
X360838750Y-82232500D03*
X370998750Y-82232500D03*
D16*
X365918750Y-82232500D03*
D17*
X368458750Y-77152500D03*
X362108750Y-79692500D03*
D15*
X171945300Y-139367300D03*
X182105300Y-139367300D03*
D16*
X177025300Y-139367300D03*
D17*
X179565300Y-134287300D03*
X173215300Y-136827300D03*
D16*
X174625000Y-82232500D03*
D15*
X179705000Y-82232500D03*
X169545000Y-82232500D03*
D17*
X177165000Y-77152500D03*
X170815000Y-79692500D03*
D16*
X384968750Y-82232500D03*
D15*
X390048750Y-82232500D03*
X379888750Y-82232500D03*
D17*
X387508750Y-77152500D03*
X381158750Y-79692500D03*
D15*
X217805000Y-120332500D03*
X207645000Y-120332500D03*
D16*
X212725000Y-120332500D03*
D17*
X215265000Y-115252500D03*
X208915000Y-117792500D03*
D16*
X188912500Y-63182500D03*
D15*
X193992500Y-63182500D03*
X183832500Y-63182500D03*
D17*
X191452500Y-58102500D03*
X185102500Y-60642500D03*
D15*
X351948750Y-139382500D03*
X341788750Y-139382500D03*
D16*
X346868750Y-139382500D03*
D17*
X349408750Y-134302500D03*
X343058750Y-136842500D03*
D16*
X207962500Y-63182500D03*
D15*
X202882500Y-63182500D03*
X213042500Y-63182500D03*
D17*
X210502500Y-58102500D03*
X204152500Y-60642500D03*
D15*
X63023750Y-82232500D03*
X52863750Y-82232500D03*
D16*
X57943750Y-82232500D03*
D17*
X60483750Y-77152500D03*
X54133750Y-79692500D03*
D15*
X211772500Y-36512500D03*
X221932500Y-36512500D03*
D16*
X216852500Y-36512500D03*
D17*
X219392500Y-31432500D03*
X213042500Y-33972500D03*
D18*
X250590000Y-26080000D03*
D15*
X243363750Y-139382500D03*
X253523750Y-139382500D03*
D16*
X248443750Y-139382500D03*
D17*
X250983750Y-134302500D03*
X244633750Y-136842500D03*
D16*
X305593750Y-120332500D03*
D15*
X300513750Y-120332500D03*
X310673750Y-120332500D03*
D17*
X308133750Y-115252500D03*
X301783750Y-117792500D03*
D18*
X294890000Y-100730000D03*
D15*
X270192500Y-63182500D03*
D16*
X265112500Y-63182500D03*
D15*
X260032500Y-63182500D03*
D17*
X267652500Y-58102500D03*
X261302500Y-60642500D03*
D18*
X74690000Y-27780000D03*
D15*
X307632100Y-63192700D03*
D16*
X312712100Y-63192700D03*
D15*
X317792100Y-63192700D03*
D17*
X315252100Y-58112700D03*
X308902100Y-60652700D03*
D15*
X380047500Y-36512500D03*
D16*
X385127500Y-36512500D03*
D15*
X390207500Y-36512500D03*
D17*
X387667500Y-31432500D03*
X381317500Y-33972500D03*
D15*
X50482500Y-63182500D03*
X60642500Y-63182500D03*
D16*
X55562500Y-63182500D03*
D17*
X58102500Y-58102500D03*
X51752500Y-60642500D03*
D15*
X277332500Y-139392500D03*
X267172500Y-139392500D03*
D16*
X272252500Y-139392500D03*
D17*
X274792500Y-134312500D03*
X268442500Y-136852500D03*
D16*
X346868750Y-63182500D03*
D15*
X341788750Y-63182500D03*
X351948750Y-63182500D03*
D17*
X349408750Y-58102500D03*
X343058750Y-60642500D03*
D16*
X250825000Y-120332500D03*
D15*
X245745000Y-120332500D03*
X255905000Y-120332500D03*
D17*
X253365000Y-115252500D03*
X247015000Y-117792500D03*
D18*
X219290000Y-137580000D03*
D15*
X236220000Y-101282500D03*
X246380000Y-101282500D03*
D16*
X241300000Y-101282500D03*
D17*
X243840000Y-96202500D03*
X237490000Y-98742500D03*
D16*
X284162500Y-63182500D03*
D15*
X279082500Y-63182500D03*
X289242500Y-63182500D03*
D17*
X286702500Y-58102500D03*
X280352500Y-60642500D03*
D16*
X184150000Y-101282500D03*
D15*
X179070000Y-101282500D03*
X189230000Y-101282500D03*
D17*
X186690000Y-96202500D03*
X180340000Y-98742500D03*
D15*
X183832500Y-36512500D03*
X173672500Y-36512500D03*
D16*
X178752500Y-36512500D03*
D17*
X181292500Y-31432500D03*
X174942500Y-33972500D03*
D15*
X315436250Y-101282500D03*
D16*
X310356250Y-101282500D03*
D15*
X305276250Y-101282500D03*
D17*
X312896250Y-96202500D03*
X306546250Y-98742500D03*
D16*
X98425000Y-82232500D03*
D15*
X103505000Y-82232500D03*
X93345000Y-82232500D03*
D17*
X100965000Y-77152500D03*
X94615000Y-79692500D03*
D19*
X77102500Y-88248750D03*
X77102500Y-84948750D03*
X205740000Y-69436250D03*
X205740000Y-66136250D03*
X191452500Y-126586250D03*
X191452500Y-123286250D03*
X317658750Y-145636250D03*
X317658750Y-142336250D03*
X286652500Y-88248750D03*
X286652500Y-84948750D03*
X233521250Y-42448750D03*
X233521250Y-39148750D03*
D20*
X328327500Y-110030000D03*
X326252500Y-110030000D03*
D21*
X388190000Y-92680000D03*
X394390000Y-92680000D03*
X394390000Y-96380000D03*
X388190000Y-96380000D03*
D19*
X382746250Y-42848750D03*
X382746250Y-39548750D03*
X229502500Y-88248750D03*
X229502500Y-84948750D03*
X201040000Y-107536250D03*
X201040000Y-104236250D03*
X248602500Y-126586250D03*
X248602500Y-123286250D03*
X105790000Y-107536250D03*
X105790000Y-104236250D03*
X363696250Y-126586250D03*
X363696250Y-123286250D03*
X79533750Y-145636250D03*
X79533750Y-142336250D03*
X220090000Y-107536250D03*
X220090000Y-104236250D03*
X303371250Y-126586250D03*
X303371250Y-123286250D03*
D22*
X342365000Y-24730000D03*
X344415000Y-24730000D03*
D19*
X54871250Y-88286250D03*
X54871250Y-84986250D03*
X110490000Y-69436250D03*
X110490000Y-66136250D03*
X363596250Y-88086250D03*
X363596250Y-84786250D03*
X186690000Y-69436250D03*
X186690000Y-66136250D03*
D23*
X349052500Y-109717500D03*
X349052500Y-106817500D03*
X351352500Y-106817500D03*
X351352500Y-109717500D03*
D19*
X134302500Y-126586250D03*
X134302500Y-123286250D03*
D20*
X356002500Y-109855000D03*
X353927500Y-109855000D03*
D19*
X258190000Y-107536250D03*
X258190000Y-104236250D03*
D24*
X329790000Y-116030000D03*
X331790000Y-116030000D03*
D19*
X344746250Y-88686250D03*
X344746250Y-85386250D03*
X239140000Y-107536250D03*
X239140000Y-104236250D03*
X172402500Y-126586250D03*
X172402500Y-123286250D03*
X167640000Y-69436250D03*
X167640000Y-66136250D03*
X148590000Y-42448750D03*
X148590000Y-39148750D03*
D20*
X341827500Y-116280000D03*
X339752500Y-116280000D03*
D19*
X143890000Y-107536250D03*
X143890000Y-104236250D03*
X344646250Y-145636250D03*
X344646250Y-142336250D03*
X96152500Y-88248750D03*
X96152500Y-84948750D03*
D25*
X332390000Y-29830000D03*
X330390000Y-29830000D03*
D19*
X270033750Y-145636250D03*
X270033750Y-142336250D03*
X344702500Y-43048750D03*
X344702500Y-39748750D03*
X129540000Y-69436250D03*
X129540000Y-66136250D03*
D26*
X331690000Y-36042500D03*
X331690000Y-39017500D03*
D27*
X345290000Y-105067500D03*
X345290000Y-102992500D03*
D19*
X53340000Y-69642500D03*
X53340000Y-66342500D03*
X263196250Y-42848750D03*
X263196250Y-39548750D03*
D28*
X335270000Y-32120000D03*
D29*
X335270000Y-33820000D03*
X333270000Y-33820000D03*
X333270000Y-31920000D03*
D19*
X115202500Y-88248750D03*
X115202500Y-84948750D03*
X214471250Y-42448750D03*
X214471250Y-39148750D03*
X90146250Y-41755000D03*
X90146250Y-38455000D03*
D15*
X388850000Y-106820000D03*
X391390000Y-106820000D03*
X388850000Y-104280000D03*
X391390000Y-104280000D03*
X388850000Y-101740000D03*
D30*
X391390000Y-101740000D03*
D19*
X103346250Y-145636250D03*
X103346250Y-142336250D03*
X176371250Y-42448750D03*
X176371250Y-39148750D03*
X364046250Y-69436250D03*
X364046250Y-66136250D03*
X115252500Y-126586250D03*
X115252500Y-123286250D03*
X195421250Y-42448750D03*
X195421250Y-39148750D03*
X267602500Y-88248750D03*
X267602500Y-84948750D03*
X153352500Y-126586250D03*
X153352500Y-123286250D03*
X65246250Y-126586250D03*
X65246250Y-123286250D03*
D31*
X331437500Y-24095000D03*
X337217500Y-24095000D03*
D32*
X331102500Y-26040000D03*
D33*
X331897500Y-26040000D03*
D34*
X332577500Y-26040000D03*
X333077500Y-26040000D03*
X333577500Y-26040000D03*
X334077500Y-26040000D03*
X334577500Y-26040000D03*
X335077500Y-26040000D03*
X335577500Y-26040000D03*
X336077500Y-26040000D03*
D35*
X336757500Y-26035000D03*
D32*
X337552500Y-26040000D03*
D19*
X282296250Y-42848750D03*
X282296250Y-39548750D03*
X277240000Y-107536250D03*
X277240000Y-104236250D03*
X262890000Y-69436250D03*
X262890000Y-66136250D03*
D36*
X332290000Y-101330000D03*
X333090000Y-101330000D03*
X333890000Y-101330000D03*
X334690000Y-101330000D03*
X335490000Y-101330000D03*
X336290000Y-101330000D03*
X337090000Y-101330000D03*
X337890000Y-101330000D03*
X338690000Y-101330000D03*
X339490000Y-101330000D03*
X340290000Y-101330000D03*
D37*
X341990000Y-103030000D03*
X341990000Y-103830000D03*
X341990000Y-104630000D03*
X341990000Y-105430000D03*
X341990000Y-106230000D03*
X341990000Y-107030000D03*
X341990000Y-107830000D03*
X341990000Y-108630000D03*
X341990000Y-109430000D03*
X341990000Y-110230000D03*
X341990000Y-111030000D03*
D36*
X340290000Y-112730000D03*
X339490000Y-112730000D03*
X338690000Y-112730000D03*
X337890000Y-112730000D03*
X337090000Y-112730000D03*
X336290000Y-112730000D03*
X335490000Y-112730000D03*
X334690000Y-112730000D03*
X333890000Y-112730000D03*
X333090000Y-112730000D03*
X332290000Y-112730000D03*
D37*
X330590000Y-111030000D03*
X330590000Y-110230000D03*
X330590000Y-109430000D03*
X330590000Y-108630000D03*
X330590000Y-107830000D03*
X330590000Y-107030000D03*
X330590000Y-106230000D03*
X330590000Y-105430000D03*
X330590000Y-104630000D03*
X330590000Y-103830000D03*
X330590000Y-103030000D03*
D19*
X293846250Y-145636250D03*
X293846250Y-142336250D03*
X210452500Y-88248750D03*
X210452500Y-84948750D03*
X86740000Y-107536250D03*
X86740000Y-104236250D03*
X243840000Y-69436250D03*
X243840000Y-66136250D03*
X229552500Y-126586250D03*
X229552500Y-123286250D03*
D38*
X335290000Y-93560000D03*
X335290000Y-95560000D03*
D19*
X312846250Y-88248750D03*
X312846250Y-84948750D03*
X310515000Y-69436250D03*
X310515000Y-66136250D03*
X382746250Y-88486250D03*
X382746250Y-85186250D03*
D39*
X335752500Y-98030000D03*
X337827500Y-98030000D03*
D19*
X246221250Y-145636250D03*
X246221250Y-142336250D03*
X267652500Y-126586250D03*
X267652500Y-123286250D03*
X124840000Y-107536250D03*
X124840000Y-104236250D03*
X248552500Y-88248750D03*
X248552500Y-84948750D03*
X363696250Y-145636250D03*
X363696250Y-142336250D03*
X383096250Y-69436250D03*
X383096250Y-66136250D03*
X181990000Y-107536250D03*
X181990000Y-104236250D03*
X51952500Y-41805000D03*
X51952500Y-38505000D03*
X300996250Y-42848750D03*
X300996250Y-39548750D03*
D38*
X333246250Y-93560000D03*
X333246250Y-95560000D03*
D19*
X281940000Y-69436250D03*
X281940000Y-66136250D03*
X364152500Y-42848750D03*
X364152500Y-39548750D03*
X96202500Y-126586250D03*
X96202500Y-123286250D03*
D20*
X356002500Y-106680000D03*
X353927500Y-106680000D03*
D19*
X174783750Y-145636250D03*
X174783750Y-142336250D03*
X153302500Y-88248750D03*
X153302500Y-84948750D03*
D24*
X335990000Y-29830000D03*
X337990000Y-29830000D03*
D19*
X344846250Y-69361250D03*
X344846250Y-66061250D03*
X148590000Y-69436250D03*
X148590000Y-66136250D03*
X72390000Y-69636250D03*
X72390000Y-66336250D03*
D39*
X329502500Y-98030000D03*
X331577500Y-98030000D03*
D19*
X129540000Y-42448750D03*
X129540000Y-39148750D03*
X308196250Y-107536250D03*
X308196250Y-104236250D03*
D27*
X328040000Y-102317500D03*
X328040000Y-100242500D03*
D40*
X324290000Y-99492500D03*
X324290000Y-101567500D03*
D19*
X109490000Y-42348750D03*
X109490000Y-39048750D03*
X91440000Y-69436250D03*
X91440000Y-66136250D03*
X319990000Y-43048750D03*
X319990000Y-39748750D03*
X162940000Y-107536250D03*
X162940000Y-104236250D03*
X134252500Y-88248750D03*
X134252500Y-84948750D03*
X60546250Y-107536250D03*
X60546250Y-104236250D03*
X191152500Y-88567500D03*
X191152500Y-85267500D03*
X224790000Y-69436250D03*
X224790000Y-66136250D03*
X55721250Y-145636250D03*
X55721250Y-142336250D03*
X210502500Y-126586250D03*
X210502500Y-123286250D03*
X382746250Y-145636250D03*
X382746250Y-142336250D03*
D25*
X385290000Y-96280000D03*
X383290000Y-96280000D03*
D19*
X172352500Y-88248750D03*
X172352500Y-84948750D03*
M02*
