M48
; DRILL file {KiCad (6.0.10)} date dim 01 jan 2023 01:58:15
; FORMAT={-:-/ absolute / metric / decimal}
; #@! TF.CreationDate,2023-01-01T01:58:15-05:00
; #@! TF.GenerationSoftware,Kicad,Pcbnew,(6.0.10)
; #@! TF.FileFunction,Plated,1,2,PTH
FMAT,2
METRIC
; #@! TA.AperFunction,Plated,PTH,ViaDrill
T1C0.400
; #@! TA.AperFunction,Plated,PTH,ComponentDrill
T2C0.600
; #@! TA.AperFunction,Plated,PTH,ComponentDrill
T3C1.000
; #@! TA.AperFunction,Plated,PTH,ComponentDrill
T4C1.500
%
G90
G05
T1
X65.246Y-111.526
X76.942Y-108.343
X97.541Y-111.829
X120.015Y-110.375
X136.136Y-112.324
X158.115Y-112.435
X174.326Y-112.414
X196.215Y-112.675
X212.566Y-112.554
X229.871Y-91.121
X250.226Y-89.816
X266.886Y-92.206
X286.511Y-91.631
X308.667Y-91.973
X317.659Y-93.639
X326.08Y-113.27
X327.28Y-108.01
X328.67Y-69.02
X328.92Y-88.15
X329.0Y-44.26
X329.23Y-91.31
X331.04Y-97.861
X331.809Y-26.549
X332.903Y-101.102
X336.3Y-44.34
X336.802Y-26.44
X338.091Y-69.361
X338.39Y-100.89
X338.43Y-88.3
X338.71Y-91.31
X341.32Y-118.6
X344.87Y-104.23
X345.182Y-98.912
X345.71Y-115.05
X347.17Y-107.57
X347.192Y-113.468
X347.67Y-127.01
X347.67Y-129.16
X348.11Y-99.85
X350.77Y-115.32
X352.22Y-92.706
X352.22Y-95.91
X357.42Y-106.69
X357.42Y-109.87
X370.45Y-111.32
T3
X346.89Y-93.43
X346.89Y-95.97
X346.89Y-98.51
X349.43Y-93.43
X349.43Y-95.97
X349.43Y-98.51
T4
X51.752Y-33.972
X51.752Y-60.642
X54.134Y-79.692
X54.134Y-136.843
X58.102Y-31.432
X58.102Y-58.102
X58.896Y-98.742
X60.484Y-77.153
X60.484Y-134.302
X63.662Y-117.812
X65.246Y-96.203
X70.013Y-115.272
X70.802Y-60.642
X75.565Y-79.692
X77.153Y-58.102
X77.946Y-136.843
X81.915Y-77.153
X84.296Y-134.302
X85.09Y-98.742
X89.852Y-33.972
X89.852Y-60.642
X91.44Y-96.203
X94.615Y-79.692
X94.615Y-117.792
X96.203Y-31.432
X96.203Y-58.102
X100.965Y-77.153
X100.965Y-115.252
X101.759Y-136.843
X104.14Y-98.742
X108.109Y-134.302
X108.902Y-33.972
X108.902Y-60.642
X110.49Y-96.203
X113.665Y-79.692
X113.665Y-117.792
X115.252Y-31.432
X115.252Y-58.102
X120.015Y-77.153
X120.015Y-115.252
X123.19Y-98.742
X127.953Y-33.972
X127.953Y-60.642
X129.54Y-96.203
X132.715Y-79.692
X132.715Y-117.792
X134.302Y-31.432
X134.302Y-58.102
X139.065Y-77.153
X139.065Y-115.252
X142.24Y-98.742
X147.002Y-33.972
X147.002Y-60.642
X148.59Y-96.203
X151.765Y-79.692
X151.765Y-117.792
X153.352Y-31.432
X153.352Y-58.102
X158.115Y-77.153
X158.115Y-115.252
X161.29Y-98.742
X166.052Y-60.642
X167.64Y-96.203
X170.815Y-79.692
X170.815Y-117.792
X172.403Y-58.102
X173.215Y-136.827
X174.942Y-33.972
X177.165Y-77.153
X177.165Y-115.252
X179.565Y-134.287
X180.34Y-98.742
X181.292Y-31.432
X185.102Y-60.642
X186.69Y-96.203
X189.865Y-79.692
X189.865Y-117.792
X191.452Y-58.102
X193.992Y-33.972
X196.215Y-77.153
X196.215Y-115.252
X199.39Y-98.742
X200.343Y-31.432
X204.153Y-60.642
X205.74Y-96.203
X208.915Y-79.692
X208.915Y-117.792
X210.502Y-58.102
X213.042Y-33.972
X215.265Y-77.153
X215.265Y-115.252
X218.44Y-98.742
X219.392Y-31.432
X223.202Y-60.642
X224.79Y-96.203
X227.965Y-79.692
X227.965Y-117.792
X229.552Y-58.102
X232.093Y-33.972
X234.315Y-77.153
X234.315Y-115.252
X237.49Y-98.742
X238.442Y-31.432
X242.252Y-60.642
X243.84Y-96.203
X244.634Y-136.843
X247.015Y-79.692
X247.015Y-117.792
X248.602Y-58.102
X250.984Y-134.302
X253.365Y-77.153
X253.365Y-115.252
X256.54Y-98.742
X261.303Y-33.972
X261.303Y-60.642
X262.89Y-96.203
X266.065Y-79.692
X266.065Y-117.792
X267.652Y-31.432
X267.652Y-58.102
X268.442Y-136.852
X272.415Y-77.153
X272.415Y-115.252
X274.792Y-134.312
X275.59Y-98.742
X280.352Y-33.972
X280.352Y-60.642
X281.94Y-96.203
X285.115Y-79.692
X286.702Y-31.432
X286.702Y-58.102
X291.465Y-77.153
X292.259Y-136.843
X298.609Y-134.302
X299.402Y-33.972
X301.784Y-117.792
X305.752Y-31.432
X306.546Y-98.742
X308.134Y-115.252
X308.902Y-60.653
X311.309Y-79.692
X312.896Y-96.203
X315.252Y-58.113
X316.071Y-136.843
X317.659Y-77.153
X318.452Y-33.972
X322.421Y-134.302
X324.803Y-31.432
X343.059Y-60.642
X343.059Y-79.692
X343.059Y-136.843
X343.217Y-33.972
X349.409Y-58.102
X349.409Y-77.153
X349.409Y-134.302
X349.567Y-31.432
X362.109Y-60.642
X362.109Y-79.692
X362.109Y-117.792
X362.109Y-136.843
X362.267Y-33.972
X368.459Y-58.102
X368.459Y-77.153
X368.459Y-115.252
X368.459Y-134.302
X368.618Y-31.432
X381.159Y-60.642
X381.159Y-79.692
X381.159Y-136.843
X381.317Y-33.972
X387.509Y-58.102
X387.509Y-77.153
X387.509Y-134.302
X387.667Y-31.432
T2
X330.007Y-18.67G85X330.007Y-19.27
G05
X330.007Y-22.6G85X330.007Y-23.7
G05
X338.647Y-18.67G85X338.647Y-19.27
G05
X338.647Y-22.6G85X338.647Y-23.7
G05
T0
M30
