M48
; DRILL file {KiCad (6.0.10)} date mar 10 jan 2023 21:57:40
; FORMAT={-:-/ absolute / metric / decimal}
; #@! TF.CreationDate,2023-01-10T21:57:40-05:00
; #@! TF.GenerationSoftware,Kicad,Pcbnew,(6.0.10)
; #@! TF.FileFunction,NonPlated,1,2,NPTH
FMAT,2
METRIC
; #@! TA.AperFunction,NonPlated,NPTH,ComponentDrill
T1C0.650
; #@! TA.AperFunction,NonPlated,NPTH,ComponentDrill
T2C1.700
; #@! TA.AperFunction,NonPlated,NPTH,ComponentDrill
T3C2.700
; #@! TA.AperFunction,NonPlated,NPTH,ComponentDrill
T4C4.000
%
G90
G05
T1
X331.438Y-24.095
X337.217Y-24.095
T2
X50.482Y-36.512
X50.482Y-63.182
X52.864Y-82.233
X52.864Y-139.382
X57.626Y-101.282
X60.642Y-36.512
X60.642Y-63.182
X62.392Y-120.352
X63.024Y-82.233
X63.024Y-139.382
X67.786Y-101.282
X69.532Y-63.182
X72.552Y-120.352
X74.295Y-82.233
X76.676Y-139.382
X79.692Y-63.182
X83.82Y-101.282
X84.455Y-82.233
X86.836Y-139.382
X88.582Y-36.512
X88.582Y-63.182
X93.345Y-82.233
X93.345Y-120.332
X93.98Y-101.282
X98.742Y-36.512
X98.742Y-63.182
X100.489Y-139.382
X102.87Y-101.282
X103.505Y-82.233
X103.505Y-120.332
X107.632Y-36.512
X107.632Y-63.182
X110.649Y-139.382
X112.395Y-82.233
X112.395Y-120.332
X113.03Y-101.282
X117.792Y-36.512
X117.792Y-63.182
X121.92Y-101.282
X122.555Y-82.233
X122.555Y-120.332
X126.682Y-36.512
X126.682Y-63.182
X131.445Y-82.233
X131.445Y-120.332
X132.08Y-101.282
X136.843Y-36.512
X136.843Y-63.182
X140.97Y-101.282
X141.605Y-82.233
X141.605Y-120.332
X145.732Y-36.512
X145.732Y-63.182
X150.495Y-82.233
X150.495Y-120.332
X151.13Y-101.282
X155.892Y-36.512
X155.892Y-63.182
X160.02Y-101.282
X160.655Y-82.233
X160.655Y-120.332
X164.782Y-63.182
X169.545Y-82.233
X169.545Y-120.332
X170.18Y-101.282
X171.945Y-139.367
X173.672Y-36.512
X174.942Y-63.182
X179.07Y-101.282
X179.705Y-82.233
X179.705Y-120.332
X182.105Y-139.367
X183.832Y-36.512
X183.832Y-63.182
X188.595Y-82.233
X188.595Y-120.332
X189.23Y-101.282
X192.722Y-36.512
X193.992Y-63.182
X198.12Y-101.282
X198.755Y-82.233
X198.755Y-120.332
X202.882Y-36.512
X202.882Y-63.182
X207.645Y-82.233
X207.645Y-120.332
X208.28Y-101.282
X211.772Y-36.512
X213.042Y-63.182
X217.17Y-101.282
X217.805Y-82.233
X217.805Y-120.332
X221.932Y-36.512
X221.932Y-63.182
X226.695Y-82.233
X226.695Y-120.332
X227.33Y-101.282
X230.822Y-36.512
X232.093Y-63.182
X236.22Y-101.282
X236.855Y-82.233
X236.855Y-120.332
X240.982Y-36.512
X240.982Y-63.182
X243.364Y-139.382
X245.745Y-82.233
X245.745Y-120.332
X246.38Y-101.282
X251.142Y-63.182
X253.524Y-139.382
X255.27Y-101.282
X255.905Y-82.233
X255.905Y-120.332
X260.032Y-36.512
X260.032Y-63.182
X264.795Y-82.233
X264.795Y-120.332
X265.43Y-101.282
X267.173Y-139.392
X270.192Y-36.512
X270.192Y-63.182
X274.32Y-101.282
X274.955Y-82.233
X274.955Y-120.332
X277.332Y-139.392
X279.082Y-36.512
X279.082Y-63.182
X283.845Y-82.233
X284.48Y-101.282
X289.243Y-36.512
X289.243Y-63.182
X290.989Y-139.382
X294.005Y-82.233
X298.132Y-36.512
X300.514Y-120.332
X301.149Y-139.382
X305.276Y-101.282
X307.632Y-63.193
X308.292Y-36.512
X310.039Y-82.233
X310.674Y-120.332
X314.801Y-139.382
X315.436Y-101.282
X317.183Y-36.512
X317.792Y-63.193
X320.199Y-82.233
X324.961Y-139.382
X327.342Y-36.512
X341.789Y-63.182
X341.789Y-82.233
X341.789Y-139.382
X341.947Y-36.512
X351.949Y-63.182
X351.949Y-82.233
X351.949Y-139.382
X352.107Y-36.512
X360.839Y-63.182
X360.839Y-82.233
X360.839Y-120.332
X360.839Y-139.382
X360.998Y-36.512
X370.999Y-63.182
X370.999Y-82.233
X370.999Y-120.332
X370.999Y-139.382
X371.157Y-36.512
X379.889Y-63.182
X379.889Y-82.233
X379.889Y-139.382
X380.047Y-36.512
X390.049Y-63.182
X390.049Y-82.233
X390.049Y-139.382
X390.207Y-36.512
T3
X49.59Y-120.93
X74.69Y-27.78
X132.39Y-136.68
X164.19Y-48.33
X219.29Y-137.58
X250.59Y-26.08
X294.89Y-100.73
X297.74Y-50.33
X376.24Y-49.63
X392.34Y-122.43
T4
X55.562Y-36.512
X55.562Y-63.182
X57.944Y-82.233
X57.944Y-139.382
X62.706Y-101.282
X67.472Y-120.352
X74.612Y-63.182
X79.375Y-82.233
X81.756Y-139.382
X88.9Y-101.282
X93.662Y-36.512
X93.662Y-63.182
X98.425Y-82.233
X98.425Y-120.332
X105.569Y-139.382
X107.95Y-101.282
X112.712Y-36.512
X112.712Y-63.182
X117.475Y-82.233
X117.475Y-120.332
X127.0Y-101.282
X131.762Y-36.512
X131.762Y-63.182
X136.525Y-82.233
X136.525Y-120.332
X146.05Y-101.282
X150.812Y-36.512
X150.812Y-63.182
X155.575Y-82.233
X155.575Y-120.332
X165.1Y-101.282
X169.862Y-63.182
X174.625Y-82.233
X174.625Y-120.332
X177.025Y-139.367
X178.752Y-36.512
X184.15Y-101.282
X188.912Y-63.182
X193.675Y-82.233
X193.675Y-120.332
X197.802Y-36.512
X203.2Y-101.282
X207.962Y-63.182
X212.725Y-82.233
X212.725Y-120.332
X216.852Y-36.512
X222.25Y-101.282
X227.012Y-63.182
X231.775Y-82.233
X231.775Y-120.332
X235.903Y-36.512
X241.3Y-101.282
X246.062Y-63.182
X248.444Y-139.382
X250.825Y-82.233
X250.825Y-120.332
X260.35Y-101.282
X265.113Y-36.512
X265.113Y-63.182
X269.875Y-82.233
X269.875Y-120.332
X272.252Y-139.392
X279.4Y-101.282
X284.162Y-36.512
X284.162Y-63.182
X288.925Y-82.233
X296.069Y-139.382
X303.212Y-36.512
X305.594Y-120.332
X310.356Y-101.282
X312.712Y-63.193
X315.119Y-82.233
X319.881Y-139.382
X322.262Y-36.512
X346.869Y-63.182
X346.869Y-82.233
X346.869Y-139.382
X347.027Y-36.512
X365.919Y-63.182
X365.919Y-82.233
X365.919Y-120.332
X365.919Y-139.382
X366.077Y-36.512
X384.969Y-63.182
X384.969Y-82.233
X384.969Y-139.382
X385.127Y-36.512
T0
M30
