%TF.GenerationSoftware,KiCad,Pcbnew,(6.0.10)*%
%TF.CreationDate,2023-01-08T00:12:16-05:00*%
%TF.ProjectId,2ndKeyboard,326e644b-6579-4626-9f61-72642e6b6963,rev?*%
%TF.SameCoordinates,Original*%
%TF.FileFunction,Drillmap*%
%TF.FilePolarity,Positive*%
%FSLAX45Y45*%
G04 Gerber Fmt 4.5, Leading zero omitted, Abs format (unit mm)*
G04 Created by KiCad (PCBNEW (6.0.10)) date 2023-01-08 00:12:16*
%MOMM*%
%LPD*%
G01*
G04 APERTURE LIST*
%ADD10C,0.100000*%
%ADD11C,0.200000*%
%ADD12C,0.040000*%
%ADD13C,0.060000*%
%ADD14C,0.150000*%
G04 APERTURE END LIST*
D10*
X4441251Y-2178000D02*
X32718375Y-2174875D01*
X4282501Y-2336750D02*
X4282500Y-15265747D01*
X32718375Y-2174875D02*
G75*
G03*
X32877125Y-2016125I-5J158755D01*
G01*
X32877125Y-2016125D02*
X32877125Y-1778000D01*
X4441251Y-2178001D02*
G75*
G03*
X4282501Y-2336750I9J-158759D01*
G01*
X32877125Y-1778000D02*
X33988375Y-1778000D01*
X39604000Y-15428000D02*
G75*
G03*
X39779000Y-15253000I14930J160070D01*
G01*
X4282503Y-15265747D02*
G75*
G03*
X4441250Y-15424497I158757J7D01*
G01*
X33988375Y-1778000D02*
X33988375Y-2016125D01*
X39779000Y-2333625D02*
X39779000Y-15253000D01*
X4441250Y-15424497D02*
X39604000Y-15428000D01*
X39778995Y-2333625D02*
G75*
G03*
X39620250Y-2174875I-158745J5D01*
G01*
X34147125Y-2174875D02*
X39620250Y-2174875D01*
X33988375Y-2016125D02*
G75*
G03*
X34147125Y-2174875I158745J-5D01*
G01*
D11*
D12*
X6566375Y-11125250D02*
X6606375Y-11165250D01*
X6606375Y-11125250D02*
X6566375Y-11165250D01*
X7674250Y-10814250D02*
X7714250Y-10854250D01*
X7714250Y-10814250D02*
X7674250Y-10854250D01*
X9734125Y-11162875D02*
X9774125Y-11202875D01*
X9774125Y-11162875D02*
X9734125Y-11202875D01*
X11981500Y-11017500D02*
X12021500Y-11057500D01*
X12021500Y-11017500D02*
X11981500Y-11057500D01*
X13593625Y-11212375D02*
X13633625Y-11252375D01*
X13633625Y-11212375D02*
X13593625Y-11252375D01*
X15791500Y-11223500D02*
X15831500Y-11263500D01*
X15831500Y-11223500D02*
X15791500Y-11263500D01*
X17412625Y-11221375D02*
X17452625Y-11261375D01*
X17452625Y-11221375D02*
X17412625Y-11261375D01*
X19601500Y-11247500D02*
X19641500Y-11287500D01*
X19641500Y-11247500D02*
X19601500Y-11287500D01*
X21236625Y-11235375D02*
X21276625Y-11275375D01*
X21276625Y-11235375D02*
X21236625Y-11275375D01*
X22967125Y-9092125D02*
X23007125Y-9132125D01*
X23007125Y-9092125D02*
X22967125Y-9132125D01*
X25002625Y-8961625D02*
X25042625Y-9001625D01*
X25042625Y-8961625D02*
X25002625Y-9001625D01*
X26668625Y-9200625D02*
X26708625Y-9240625D01*
X26708625Y-9200625D02*
X26668625Y-9240625D01*
X28631125Y-9143125D02*
X28671125Y-9183125D01*
X28671125Y-9143125D02*
X28631125Y-9183125D01*
X30846687Y-9177313D02*
X30886687Y-9217313D01*
X30886687Y-9177313D02*
X30846687Y-9217313D01*
X31745875Y-9343875D02*
X31785875Y-9383875D01*
X31785875Y-9343875D02*
X31745875Y-9383875D01*
X32459000Y-2608000D02*
X32499000Y-2648000D01*
X32499000Y-2608000D02*
X32459000Y-2648000D01*
X32484000Y-10808000D02*
X32524000Y-10848000D01*
X32524000Y-10808000D02*
X32484000Y-10848000D01*
X32586347Y-10130653D02*
X32626347Y-10170653D01*
X32626347Y-10130653D02*
X32586347Y-10170653D01*
X32634000Y-10708000D02*
X32674000Y-10748000D01*
X32674000Y-10708000D02*
X32634000Y-10748000D01*
X32684000Y-2358000D02*
X32724000Y-2398000D01*
X32724000Y-2358000D02*
X32684000Y-2398000D01*
X32684000Y-9633000D02*
X32724000Y-9673000D01*
X32724000Y-9633000D02*
X32684000Y-9673000D01*
X32804950Y-11578950D02*
X32844950Y-11618950D01*
X32844950Y-11578950D02*
X32804950Y-11618950D01*
X32809000Y-11258000D02*
X32849000Y-11298000D01*
X32849000Y-11258000D02*
X32809000Y-11298000D01*
X32847000Y-6882000D02*
X32887000Y-6922000D01*
X32887000Y-6882000D02*
X32847000Y-6922000D01*
X32872000Y-8795000D02*
X32912000Y-8835000D01*
X32912000Y-8795000D02*
X32872000Y-8835000D01*
X32880000Y-4406000D02*
X32920000Y-4446000D01*
X32920000Y-4406000D02*
X32880000Y-4446000D01*
X32884000Y-2608000D02*
X32924000Y-2648000D01*
X32924000Y-2608000D02*
X32884000Y-2648000D01*
X32884000Y-9108000D02*
X32924000Y-9148000D01*
X32924000Y-9108000D02*
X32884000Y-9148000D01*
X32885230Y-9634230D02*
X32925230Y-9674230D01*
X32925230Y-9634230D02*
X32885230Y-9674230D01*
X32984000Y-2983000D02*
X33024000Y-3023000D01*
X33024000Y-2983000D02*
X32984000Y-3023000D01*
X32984000Y-9433000D02*
X33024000Y-9473000D01*
X33024000Y-9433000D02*
X32984000Y-9473000D01*
X33009000Y-9958000D02*
X33049000Y-9998000D01*
X33049000Y-9958000D02*
X33009000Y-9998000D01*
X33159000Y-1983000D02*
X33199000Y-2023000D01*
X33199000Y-1983000D02*
X33159000Y-2023000D01*
X33160880Y-2634880D02*
X33200880Y-2674880D01*
X33200880Y-2634880D02*
X33160880Y-2674880D01*
X33188000Y-9183000D02*
X33228000Y-9223000D01*
X33228000Y-9183000D02*
X33188000Y-9223000D01*
X33284000Y-9783000D02*
X33324000Y-9823000D01*
X33324000Y-9783000D02*
X33284000Y-9823000D01*
X33409000Y-2158000D02*
X33449000Y-2198000D01*
X33449000Y-2158000D02*
X33409000Y-2198000D01*
X33534000Y-2808000D02*
X33574000Y-2848000D01*
X33574000Y-2808000D02*
X33534000Y-2848000D01*
X33633050Y-9183000D02*
X33673050Y-9223000D01*
X33673050Y-9183000D02*
X33633050Y-9223000D01*
X33634000Y-1983000D02*
X33674000Y-2023000D01*
X33674000Y-1983000D02*
X33634000Y-2023000D01*
X33659000Y-2983000D02*
X33699000Y-3023000D01*
X33699000Y-2983000D02*
X33659000Y-3023000D01*
X33660200Y-2624000D02*
X33700200Y-2664000D01*
X33700200Y-2624000D02*
X33660200Y-2664000D01*
X33709000Y-4414000D02*
X33749000Y-4454000D01*
X33749000Y-4414000D02*
X33709000Y-4454000D01*
X33717417Y-9941417D02*
X33757417Y-9981417D01*
X33757417Y-9941417D02*
X33717417Y-9981417D01*
X33784000Y-6883000D02*
X33824000Y-6923000D01*
X33824000Y-6883000D02*
X33784000Y-6923000D01*
X33823000Y-8810000D02*
X33863000Y-8850000D01*
X33863000Y-8810000D02*
X33823000Y-8850000D01*
X33851000Y-9111000D02*
X33891000Y-9151000D01*
X33891000Y-9111000D02*
X33851000Y-9151000D01*
X33909000Y-2608000D02*
X33949000Y-2648000D01*
X33949000Y-2608000D02*
X33909000Y-2648000D01*
X33921450Y-11458000D02*
X33961450Y-11498000D01*
X33961450Y-11458000D02*
X33921450Y-11498000D01*
X34009000Y-2358000D02*
X34049000Y-2398000D01*
X34049000Y-2358000D02*
X34009000Y-2398000D01*
X34234000Y-2608000D02*
X34274000Y-2648000D01*
X34274000Y-2608000D02*
X34234000Y-2648000D01*
X34309000Y-9958000D02*
X34349000Y-9998000D01*
X34349000Y-9958000D02*
X34309000Y-9998000D01*
X34316550Y-11575450D02*
X34356550Y-11615450D01*
X34356550Y-11575450D02*
X34316550Y-11615450D01*
X34421505Y-10142955D02*
X34461505Y-10182955D01*
X34461505Y-10142955D02*
X34421505Y-10182955D01*
X34434000Y-12683000D02*
X34474000Y-12723000D01*
X34474000Y-12683000D02*
X34434000Y-12723000D01*
X34434000Y-12896000D02*
X34474000Y-12936000D01*
X34474000Y-12896000D02*
X34434000Y-12936000D01*
X34493955Y-10051515D02*
X34533955Y-10091515D01*
X34533955Y-10051515D02*
X34493955Y-10091515D01*
X34659000Y-10483000D02*
X34699000Y-10523000D01*
X34699000Y-10483000D02*
X34659000Y-10523000D01*
X35034000Y-10458000D02*
X35074000Y-10498000D01*
X35074000Y-10458000D02*
X35034000Y-10498000D01*
X35057000Y-11512000D02*
X35097000Y-11552000D01*
X35097000Y-11512000D02*
X35057000Y-11552000D01*
X35202000Y-9250550D02*
X35242000Y-9290550D01*
X35242000Y-9250550D02*
X35202000Y-9290550D01*
X35202000Y-9571000D02*
X35242000Y-9611000D01*
X35242000Y-9571000D02*
X35202000Y-9611000D01*
X35722000Y-10649000D02*
X35762000Y-10689000D01*
X35762000Y-10649000D02*
X35722000Y-10689000D01*
X35722000Y-10967000D02*
X35762000Y-11007000D01*
X35762000Y-10967000D02*
X35722000Y-11007000D01*
X37025000Y-11112000D02*
X37065000Y-11152000D01*
X37065000Y-11112000D02*
X37025000Y-11152000D01*
D13*
X33030750Y-1897000D02*
G75*
G03*
X33030750Y-1897000I-30000J0D01*
G01*
D11*
X32970750Y-1867000D02*
X32970750Y-1927000D01*
X33030750Y-1867000D02*
X33030750Y-1927000D01*
X32970750Y-1927000D02*
G75*
G03*
X33030750Y-1927000I30000J0D01*
G01*
X33030750Y-1867000D02*
G75*
G03*
X32970750Y-1867000I-30000J0D01*
G01*
D13*
X33030750Y-2315000D02*
G75*
G03*
X33030750Y-2315000I-30000J0D01*
G01*
D11*
X32970750Y-2260000D02*
X32970750Y-2370000D01*
X33030750Y-2260000D02*
X33030750Y-2370000D01*
X32970750Y-2370000D02*
G75*
G03*
X33030750Y-2370000I30000J0D01*
G01*
X33030750Y-2260000D02*
G75*
G03*
X32970750Y-2260000I-30000J0D01*
G01*
D13*
X33894750Y-1897000D02*
G75*
G03*
X33894750Y-1897000I-30000J0D01*
G01*
D11*
X33834750Y-1867000D02*
X33834750Y-1927000D01*
X33894750Y-1867000D02*
X33894750Y-1927000D01*
X33834750Y-1927000D02*
G75*
G03*
X33894750Y-1927000I30000J0D01*
G01*
X33894750Y-1867000D02*
G75*
G03*
X33834750Y-1867000I-30000J0D01*
G01*
D13*
X33894750Y-2315000D02*
G75*
G03*
X33894750Y-2315000I-30000J0D01*
G01*
D11*
X33834750Y-2260000D02*
X33834750Y-2370000D01*
X33894750Y-2260000D02*
X33894750Y-2370000D01*
X33834750Y-2370000D02*
G75*
G03*
X33894750Y-2370000I30000J0D01*
G01*
X33894750Y-2260000D02*
G75*
G03*
X33834750Y-2260000I-30000J0D01*
G01*
D10*
X34689000Y-9293000D02*
X34689000Y-9393000D01*
X34639000Y-9343000D02*
X34739000Y-9343000D01*
X34689000Y-9547000D02*
X34689000Y-9647000D01*
X34639000Y-9597000D02*
X34739000Y-9597000D01*
X34689000Y-9801000D02*
X34689000Y-9901000D01*
X34639000Y-9851000D02*
X34739000Y-9851000D01*
X34943000Y-9293000D02*
X34943000Y-9393000D01*
X34893000Y-9343000D02*
X34993000Y-9343000D01*
X34943000Y-9547000D02*
X34943000Y-9647000D01*
X34893000Y-9597000D02*
X34993000Y-9597000D01*
X34943000Y-9801000D02*
X34943000Y-9901000D01*
X34893000Y-9851000D02*
X34993000Y-9851000D01*
D14*
X5228284Y-3450283D02*
X5228284Y-3344216D01*
X5122217Y-3344216D01*
X5122217Y-3450283D01*
X5228284Y-3450283D01*
X5228284Y-6117283D02*
X5228284Y-6011216D01*
X5122217Y-6011216D01*
X5122217Y-6117283D01*
X5228284Y-6117283D01*
X5466409Y-8022283D02*
X5466409Y-7916216D01*
X5360342Y-7916216D01*
X5360342Y-8022283D01*
X5466409Y-8022283D01*
X5466409Y-13737283D02*
X5466409Y-13631216D01*
X5360342Y-13631216D01*
X5360342Y-13737283D01*
X5466409Y-13737283D01*
X5863283Y-3196283D02*
X5863283Y-3090216D01*
X5757216Y-3090216D01*
X5757216Y-3196283D01*
X5863283Y-3196283D01*
X5863283Y-5863283D02*
X5863283Y-5757216D01*
X5757216Y-5757216D01*
X5757216Y-5863283D01*
X5863283Y-5863283D01*
X5942658Y-9927284D02*
X5942658Y-9821217D01*
X5836591Y-9821217D01*
X5836591Y-9927284D01*
X5942658Y-9927284D01*
X6101408Y-7768283D02*
X6101408Y-7662216D01*
X5995341Y-7662216D01*
X5995341Y-7768283D01*
X6101408Y-7768283D01*
X6101408Y-13483283D02*
X6101408Y-13377216D01*
X5995341Y-13377216D01*
X5995341Y-13483283D01*
X6101408Y-13483283D01*
X6419283Y-11834283D02*
X6419283Y-11728216D01*
X6313216Y-11728216D01*
X6313216Y-11834283D01*
X6419283Y-11834283D01*
X6577658Y-9673284D02*
X6577658Y-9567217D01*
X6471591Y-9567217D01*
X6471591Y-9673284D01*
X6577658Y-9673284D01*
X7054283Y-11580283D02*
X7054283Y-11474216D01*
X6948216Y-11474216D01*
X6948216Y-11580283D01*
X7054283Y-11580283D01*
X7133283Y-6117283D02*
X7133283Y-6011216D01*
X7027216Y-6011216D01*
X7027216Y-6117283D01*
X7133283Y-6117283D01*
X7609533Y-8022283D02*
X7609533Y-7916216D01*
X7503466Y-7916216D01*
X7503466Y-8022283D01*
X7609533Y-8022283D01*
X7768283Y-5863283D02*
X7768283Y-5757216D01*
X7662216Y-5757216D01*
X7662216Y-5863283D01*
X7768283Y-5863283D01*
X7847658Y-13737283D02*
X7847658Y-13631216D01*
X7741591Y-13631216D01*
X7741591Y-13737283D01*
X7847658Y-13737283D01*
X8244533Y-7768283D02*
X8244533Y-7662216D01*
X8138466Y-7662216D01*
X8138466Y-7768283D01*
X8244533Y-7768283D01*
X8482659Y-13483283D02*
X8482659Y-13377216D01*
X8376591Y-13377216D01*
X8376591Y-13483283D01*
X8482659Y-13483283D01*
X8562034Y-9927284D02*
X8562034Y-9821217D01*
X8455967Y-9821217D01*
X8455967Y-9927284D01*
X8562034Y-9927284D01*
X9038284Y-3450283D02*
X9038284Y-3344216D01*
X8932217Y-3344216D01*
X8932217Y-3450283D01*
X9038284Y-3450283D01*
X9038284Y-6117283D02*
X9038284Y-6011216D01*
X8932217Y-6011216D01*
X8932217Y-6117283D01*
X9038284Y-6117283D01*
X9197034Y-9673284D02*
X9197034Y-9567217D01*
X9090967Y-9567217D01*
X9090967Y-9673284D01*
X9197034Y-9673284D01*
X9514534Y-8022283D02*
X9514534Y-7916216D01*
X9408467Y-7916216D01*
X9408467Y-8022283D01*
X9514534Y-8022283D01*
X9514534Y-11832283D02*
X9514534Y-11726216D01*
X9408467Y-11726216D01*
X9408467Y-11832283D01*
X9514534Y-11832283D01*
X9673284Y-3196283D02*
X9673284Y-3090216D01*
X9567217Y-3090216D01*
X9567217Y-3196283D01*
X9673284Y-3196283D01*
X9673284Y-5863283D02*
X9673284Y-5757216D01*
X9567217Y-5757216D01*
X9567217Y-5863283D01*
X9673284Y-5863283D01*
X10149534Y-7768283D02*
X10149534Y-7662216D01*
X10043467Y-7662216D01*
X10043467Y-7768283D01*
X10149534Y-7768283D01*
X10149534Y-11578283D02*
X10149534Y-11472216D01*
X10043467Y-11472216D01*
X10043467Y-11578283D01*
X10149534Y-11578283D01*
X10228909Y-13737283D02*
X10228909Y-13631216D01*
X10122842Y-13631216D01*
X10122842Y-13737283D01*
X10228909Y-13737283D01*
X10467034Y-9927284D02*
X10467034Y-9821217D01*
X10360967Y-9821217D01*
X10360967Y-9927284D01*
X10467034Y-9927284D01*
X10863909Y-13483283D02*
X10863909Y-13377216D01*
X10757842Y-13377216D01*
X10757842Y-13483283D01*
X10863909Y-13483283D01*
X10943284Y-3450283D02*
X10943284Y-3344216D01*
X10837217Y-3344216D01*
X10837217Y-3450283D01*
X10943284Y-3450283D01*
X10943284Y-6117283D02*
X10943284Y-6011216D01*
X10837217Y-6011216D01*
X10837217Y-6117283D01*
X10943284Y-6117283D01*
X11102034Y-9673284D02*
X11102034Y-9567217D01*
X10995967Y-9567217D01*
X10995967Y-9673284D01*
X11102034Y-9673284D01*
X11419533Y-8022283D02*
X11419533Y-7916216D01*
X11313466Y-7916216D01*
X11313466Y-8022283D01*
X11419533Y-8022283D01*
X11419533Y-11832283D02*
X11419533Y-11726216D01*
X11313466Y-11726216D01*
X11313466Y-11832283D01*
X11419533Y-11832283D01*
X11578283Y-3196283D02*
X11578283Y-3090216D01*
X11472216Y-3090216D01*
X11472216Y-3196283D01*
X11578283Y-3196283D01*
X11578283Y-5863283D02*
X11578283Y-5757216D01*
X11472216Y-5757216D01*
X11472216Y-5863283D01*
X11578283Y-5863283D01*
X12054533Y-7768283D02*
X12054533Y-7662216D01*
X11948466Y-7662216D01*
X11948466Y-7768283D01*
X12054533Y-7768283D01*
X12054533Y-11578283D02*
X12054533Y-11472216D01*
X11948466Y-11472216D01*
X11948466Y-11578283D01*
X12054533Y-11578283D01*
X12372033Y-9927284D02*
X12372033Y-9821217D01*
X12265966Y-9821217D01*
X12265966Y-9927284D01*
X12372033Y-9927284D01*
X12848283Y-3450283D02*
X12848283Y-3344216D01*
X12742216Y-3344216D01*
X12742216Y-3450283D01*
X12848283Y-3450283D01*
X12848283Y-6117283D02*
X12848283Y-6011216D01*
X12742216Y-6011216D01*
X12742216Y-6117283D01*
X12848283Y-6117283D01*
X13007033Y-9673284D02*
X13007033Y-9567217D01*
X12900966Y-9567217D01*
X12900966Y-9673284D01*
X13007033Y-9673284D01*
X13324533Y-8022283D02*
X13324533Y-7916216D01*
X13218466Y-7916216D01*
X13218466Y-8022283D01*
X13324533Y-8022283D01*
X13324533Y-11832283D02*
X13324533Y-11726216D01*
X13218466Y-11726216D01*
X13218466Y-11832283D01*
X13324533Y-11832283D01*
X13483283Y-3196283D02*
X13483283Y-3090216D01*
X13377216Y-3090216D01*
X13377216Y-3196283D01*
X13483283Y-3196283D01*
X13483283Y-5863283D02*
X13483283Y-5757216D01*
X13377216Y-5757216D01*
X13377216Y-5863283D01*
X13483283Y-5863283D01*
X13959533Y-7768283D02*
X13959533Y-7662216D01*
X13853466Y-7662216D01*
X13853466Y-7768283D01*
X13959533Y-7768283D01*
X13959533Y-11578283D02*
X13959533Y-11472216D01*
X13853466Y-11472216D01*
X13853466Y-11578283D01*
X13959533Y-11578283D01*
X14277033Y-9927284D02*
X14277033Y-9821217D01*
X14170966Y-9821217D01*
X14170966Y-9927284D01*
X14277033Y-9927284D01*
X14753283Y-3450283D02*
X14753283Y-3344216D01*
X14647216Y-3344216D01*
X14647216Y-3450283D01*
X14753283Y-3450283D01*
X14753283Y-6117283D02*
X14753283Y-6011216D01*
X14647216Y-6011216D01*
X14647216Y-6117283D01*
X14753283Y-6117283D01*
X14912033Y-9673284D02*
X14912033Y-9567217D01*
X14805966Y-9567217D01*
X14805966Y-9673284D01*
X14912033Y-9673284D01*
X15229533Y-8022283D02*
X15229533Y-7916216D01*
X15123466Y-7916216D01*
X15123466Y-8022283D01*
X15229533Y-8022283D01*
X15229533Y-11832283D02*
X15229533Y-11726216D01*
X15123466Y-11726216D01*
X15123466Y-11832283D01*
X15229533Y-11832283D01*
X15388283Y-3196283D02*
X15388283Y-3090216D01*
X15282216Y-3090216D01*
X15282216Y-3196283D01*
X15388283Y-3196283D01*
X15388283Y-5863283D02*
X15388283Y-5757216D01*
X15282216Y-5757216D01*
X15282216Y-5863283D01*
X15388283Y-5863283D01*
X15864533Y-7768283D02*
X15864533Y-7662216D01*
X15758466Y-7662216D01*
X15758466Y-7768283D01*
X15864533Y-7768283D01*
X15864533Y-11578283D02*
X15864533Y-11472216D01*
X15758466Y-11472216D01*
X15758466Y-11578283D01*
X15864533Y-11578283D01*
X16182033Y-9927284D02*
X16182033Y-9821217D01*
X16075966Y-9821217D01*
X16075966Y-9927284D01*
X16182033Y-9927284D01*
X16658283Y-6117283D02*
X16658283Y-6011216D01*
X16552216Y-6011216D01*
X16552216Y-6117283D01*
X16658283Y-6117283D01*
X16817034Y-9673284D02*
X16817034Y-9567217D01*
X16710966Y-9567217D01*
X16710966Y-9673284D01*
X16817034Y-9673284D01*
X17134534Y-8022283D02*
X17134534Y-7916216D01*
X17028467Y-7916216D01*
X17028467Y-8022283D01*
X17134534Y-8022283D01*
X17134534Y-11832283D02*
X17134534Y-11726216D01*
X17028467Y-11726216D01*
X17028467Y-11832283D01*
X17134534Y-11832283D01*
X17293284Y-5863283D02*
X17293284Y-5757216D01*
X17187217Y-5757216D01*
X17187217Y-5863283D01*
X17293284Y-5863283D01*
X17374564Y-13735763D02*
X17374564Y-13629696D01*
X17268497Y-13629696D01*
X17268497Y-13735763D01*
X17374564Y-13735763D01*
X17547284Y-3450283D02*
X17547284Y-3344216D01*
X17441217Y-3344216D01*
X17441217Y-3450283D01*
X17547284Y-3450283D01*
X17769534Y-7768283D02*
X17769534Y-7662216D01*
X17663467Y-7662216D01*
X17663467Y-7768283D01*
X17769534Y-7768283D01*
X17769534Y-11578283D02*
X17769534Y-11472216D01*
X17663467Y-11472216D01*
X17663467Y-11578283D01*
X17769534Y-11578283D01*
X18009564Y-13481763D02*
X18009564Y-13375696D01*
X17903497Y-13375696D01*
X17903497Y-13481763D01*
X18009564Y-13481763D01*
X18087034Y-9927284D02*
X18087034Y-9821217D01*
X17980967Y-9821217D01*
X17980967Y-9927284D01*
X18087034Y-9927284D01*
X18182284Y-3196283D02*
X18182284Y-3090216D01*
X18076217Y-3090216D01*
X18076217Y-3196283D01*
X18182284Y-3196283D01*
X18563284Y-6117283D02*
X18563284Y-6011216D01*
X18457217Y-6011216D01*
X18457217Y-6117283D01*
X18563284Y-6117283D01*
X18722034Y-9673284D02*
X18722034Y-9567217D01*
X18615967Y-9567217D01*
X18615967Y-9673284D01*
X18722034Y-9673284D01*
X19039534Y-8022283D02*
X19039534Y-7916216D01*
X18933467Y-7916216D01*
X18933467Y-8022283D01*
X19039534Y-8022283D01*
X19039534Y-11832283D02*
X19039534Y-11726216D01*
X18933467Y-11726216D01*
X18933467Y-11832283D01*
X19039534Y-11832283D01*
X19198284Y-5863283D02*
X19198284Y-5757216D01*
X19092217Y-5757216D01*
X19092217Y-5863283D01*
X19198284Y-5863283D01*
X19452284Y-3450283D02*
X19452284Y-3344216D01*
X19346217Y-3344216D01*
X19346217Y-3450283D01*
X19452284Y-3450283D01*
X19674534Y-7768283D02*
X19674534Y-7662216D01*
X19568467Y-7662216D01*
X19568467Y-7768283D01*
X19674534Y-7768283D01*
X19674534Y-11578283D02*
X19674534Y-11472216D01*
X19568467Y-11472216D01*
X19568467Y-11578283D01*
X19674534Y-11578283D01*
X19992034Y-9927284D02*
X19992034Y-9821217D01*
X19885967Y-9821217D01*
X19885967Y-9927284D01*
X19992034Y-9927284D01*
X20087284Y-3196283D02*
X20087284Y-3090216D01*
X19981217Y-3090216D01*
X19981217Y-3196283D01*
X20087284Y-3196283D01*
X20468284Y-6117283D02*
X20468284Y-6011216D01*
X20362217Y-6011216D01*
X20362217Y-6117283D01*
X20468284Y-6117283D01*
X20627034Y-9673284D02*
X20627034Y-9567217D01*
X20520967Y-9567217D01*
X20520967Y-9673284D01*
X20627034Y-9673284D01*
X20944534Y-8022283D02*
X20944534Y-7916216D01*
X20838467Y-7916216D01*
X20838467Y-8022283D01*
X20944534Y-8022283D01*
X20944534Y-11832283D02*
X20944534Y-11726216D01*
X20838467Y-11726216D01*
X20838467Y-11832283D01*
X20944534Y-11832283D01*
X21103284Y-5863283D02*
X21103284Y-5757216D01*
X20997217Y-5757216D01*
X20997217Y-5863283D01*
X21103284Y-5863283D01*
X21357284Y-3450283D02*
X21357284Y-3344216D01*
X21251217Y-3344216D01*
X21251217Y-3450283D01*
X21357284Y-3450283D01*
X21579534Y-7768283D02*
X21579534Y-7662216D01*
X21473467Y-7662216D01*
X21473467Y-7768283D01*
X21579534Y-7768283D01*
X21579534Y-11578283D02*
X21579534Y-11472216D01*
X21473467Y-11472216D01*
X21473467Y-11578283D01*
X21579534Y-11578283D01*
X21897034Y-9927284D02*
X21897034Y-9821217D01*
X21790967Y-9821217D01*
X21790967Y-9927284D01*
X21897034Y-9927284D01*
X21992284Y-3196283D02*
X21992284Y-3090216D01*
X21886217Y-3090216D01*
X21886217Y-3196283D01*
X21992284Y-3196283D01*
X22373283Y-6117283D02*
X22373283Y-6011216D01*
X22267217Y-6011216D01*
X22267217Y-6117283D01*
X22373283Y-6117283D01*
X22532033Y-9673284D02*
X22532033Y-9567217D01*
X22425966Y-9567217D01*
X22425966Y-9673284D01*
X22532033Y-9673284D01*
X22849533Y-8022283D02*
X22849533Y-7916216D01*
X22743466Y-7916216D01*
X22743466Y-8022283D01*
X22849533Y-8022283D01*
X22849533Y-11832283D02*
X22849533Y-11726216D01*
X22743466Y-11726216D01*
X22743466Y-11832283D01*
X22849533Y-11832283D01*
X23008283Y-5863283D02*
X23008283Y-5757216D01*
X22902216Y-5757216D01*
X22902216Y-5863283D01*
X23008283Y-5863283D01*
X23262283Y-3450283D02*
X23262283Y-3344216D01*
X23156216Y-3344216D01*
X23156216Y-3450283D01*
X23262283Y-3450283D01*
X23484533Y-7768283D02*
X23484533Y-7662216D01*
X23378466Y-7662216D01*
X23378466Y-7768283D01*
X23484533Y-7768283D01*
X23484533Y-11578283D02*
X23484533Y-11472216D01*
X23378466Y-11472216D01*
X23378466Y-11578283D01*
X23484533Y-11578283D01*
X23802033Y-9927284D02*
X23802033Y-9821217D01*
X23695966Y-9821217D01*
X23695966Y-9927284D01*
X23802033Y-9927284D01*
X23897283Y-3196283D02*
X23897283Y-3090216D01*
X23791216Y-3090216D01*
X23791216Y-3196283D01*
X23897283Y-3196283D01*
X24278283Y-6117283D02*
X24278283Y-6011216D01*
X24172216Y-6011216D01*
X24172216Y-6117283D01*
X24278283Y-6117283D01*
X24437033Y-9673284D02*
X24437033Y-9567217D01*
X24330966Y-9567217D01*
X24330966Y-9673284D01*
X24437033Y-9673284D01*
X24516408Y-13737283D02*
X24516408Y-13631216D01*
X24410341Y-13631216D01*
X24410341Y-13737283D01*
X24516408Y-13737283D01*
X24754533Y-8022283D02*
X24754533Y-7916216D01*
X24648466Y-7916216D01*
X24648466Y-8022283D01*
X24754533Y-8022283D01*
X24754533Y-11832283D02*
X24754533Y-11726216D01*
X24648466Y-11726216D01*
X24648466Y-11832283D01*
X24754533Y-11832283D01*
X24913283Y-5863283D02*
X24913283Y-5757216D01*
X24807216Y-5757216D01*
X24807216Y-5863283D01*
X24913283Y-5863283D01*
X25151408Y-13483283D02*
X25151408Y-13377216D01*
X25045341Y-13377216D01*
X25045341Y-13483283D01*
X25151408Y-13483283D01*
X25389533Y-7768283D02*
X25389533Y-7662216D01*
X25283466Y-7662216D01*
X25283466Y-7768283D01*
X25389533Y-7768283D01*
X25389533Y-11578283D02*
X25389533Y-11472216D01*
X25283466Y-11472216D01*
X25283466Y-11578283D01*
X25389533Y-11578283D01*
X25707033Y-9927284D02*
X25707033Y-9821217D01*
X25600966Y-9821217D01*
X25600966Y-9927284D01*
X25707033Y-9927284D01*
X26183283Y-3450283D02*
X26183283Y-3344216D01*
X26077216Y-3344216D01*
X26077216Y-3450283D01*
X26183283Y-3450283D01*
X26183283Y-6117283D02*
X26183283Y-6011216D01*
X26077216Y-6011216D01*
X26077216Y-6117283D01*
X26183283Y-6117283D01*
X26342033Y-9673284D02*
X26342033Y-9567217D01*
X26235966Y-9567217D01*
X26235966Y-9673284D01*
X26342033Y-9673284D01*
X26659533Y-8022283D02*
X26659533Y-7916216D01*
X26553466Y-7916216D01*
X26553466Y-8022283D01*
X26659533Y-8022283D01*
X26659533Y-11832283D02*
X26659533Y-11726216D01*
X26553466Y-11726216D01*
X26553466Y-11832283D01*
X26659533Y-11832283D01*
X26818283Y-3196283D02*
X26818283Y-3090216D01*
X26712216Y-3090216D01*
X26712216Y-3196283D01*
X26818283Y-3196283D01*
X26818283Y-5863283D02*
X26818283Y-5757216D01*
X26712216Y-5757216D01*
X26712216Y-5863283D01*
X26818283Y-5863283D01*
X26897283Y-13738283D02*
X26897283Y-13632216D01*
X26791216Y-13632216D01*
X26791216Y-13738283D01*
X26897283Y-13738283D01*
X27294533Y-7768283D02*
X27294533Y-7662216D01*
X27188466Y-7662216D01*
X27188466Y-7768283D01*
X27294533Y-7768283D01*
X27294533Y-11578283D02*
X27294533Y-11472216D01*
X27188466Y-11472216D01*
X27188466Y-11578283D01*
X27294533Y-11578283D01*
X27532283Y-13484283D02*
X27532283Y-13378216D01*
X27426216Y-13378216D01*
X27426216Y-13484283D01*
X27532283Y-13484283D01*
X27612033Y-9927284D02*
X27612033Y-9821217D01*
X27505966Y-9821217D01*
X27505966Y-9927284D01*
X27612033Y-9927284D01*
X28088283Y-3450283D02*
X28088283Y-3344216D01*
X27982216Y-3344216D01*
X27982216Y-3450283D01*
X28088283Y-3450283D01*
X28088283Y-6117283D02*
X28088283Y-6011216D01*
X27982216Y-6011216D01*
X27982216Y-6117283D01*
X28088283Y-6117283D01*
X28247033Y-9673284D02*
X28247033Y-9567217D01*
X28140966Y-9567217D01*
X28140966Y-9673284D01*
X28247033Y-9673284D01*
X28564533Y-8022283D02*
X28564533Y-7916216D01*
X28458466Y-7916216D01*
X28458466Y-8022283D01*
X28564533Y-8022283D01*
X28723283Y-3196283D02*
X28723283Y-3090216D01*
X28617216Y-3090216D01*
X28617216Y-3196283D01*
X28723283Y-3196283D01*
X28723283Y-5863283D02*
X28723283Y-5757216D01*
X28617216Y-5757216D01*
X28617216Y-5863283D01*
X28723283Y-5863283D01*
X29199533Y-7768283D02*
X29199533Y-7662216D01*
X29093466Y-7662216D01*
X29093466Y-7768283D01*
X29199533Y-7768283D01*
X29278908Y-13737283D02*
X29278908Y-13631216D01*
X29172841Y-13631216D01*
X29172841Y-13737283D01*
X29278908Y-13737283D01*
X29913908Y-13483283D02*
X29913908Y-13377216D01*
X29807841Y-13377216D01*
X29807841Y-13483283D01*
X29913908Y-13483283D01*
X29993283Y-3450283D02*
X29993283Y-3344216D01*
X29887216Y-3344216D01*
X29887216Y-3450283D01*
X29993283Y-3450283D01*
X30231408Y-11832283D02*
X30231408Y-11726216D01*
X30125341Y-11726216D01*
X30125341Y-11832283D01*
X30231408Y-11832283D01*
X30628283Y-3196283D02*
X30628283Y-3090216D01*
X30522216Y-3090216D01*
X30522216Y-3196283D01*
X30628283Y-3196283D01*
X30707658Y-9927284D02*
X30707658Y-9821217D01*
X30601591Y-9821217D01*
X30601591Y-9927284D01*
X30707658Y-9927284D01*
X30866408Y-11578283D02*
X30866408Y-11472216D01*
X30760341Y-11472216D01*
X30760341Y-11578283D01*
X30866408Y-11578283D01*
X30943243Y-6118303D02*
X30943243Y-6012236D01*
X30837176Y-6012236D01*
X30837176Y-6118303D01*
X30943243Y-6118303D01*
X31183908Y-8022283D02*
X31183908Y-7916216D01*
X31077841Y-7916216D01*
X31077841Y-8022283D01*
X31183908Y-8022283D01*
X31342658Y-9673284D02*
X31342658Y-9567217D01*
X31236591Y-9567217D01*
X31236591Y-9673284D01*
X31342658Y-9673284D01*
X31578243Y-5864303D02*
X31578243Y-5758236D01*
X31472176Y-5758236D01*
X31472176Y-5864303D01*
X31578243Y-5864303D01*
X31660158Y-13737283D02*
X31660158Y-13631216D01*
X31554091Y-13631216D01*
X31554091Y-13737283D01*
X31660158Y-13737283D01*
X31818908Y-7768283D02*
X31818908Y-7662216D01*
X31712841Y-7662216D01*
X31712841Y-7768283D01*
X31818908Y-7768283D01*
X31898283Y-3450283D02*
X31898283Y-3344216D01*
X31792216Y-3344216D01*
X31792216Y-3450283D01*
X31898283Y-3450283D01*
X32295158Y-13483283D02*
X32295158Y-13377216D01*
X32189091Y-13377216D01*
X32189091Y-13483283D01*
X32295158Y-13483283D01*
X32533283Y-3196283D02*
X32533283Y-3090216D01*
X32427216Y-3090216D01*
X32427216Y-3196283D01*
X32533283Y-3196283D01*
X34358909Y-6117283D02*
X34358909Y-6011216D01*
X34252842Y-6011216D01*
X34252842Y-6117283D01*
X34358909Y-6117283D01*
X34358909Y-8022283D02*
X34358909Y-7916216D01*
X34252842Y-7916216D01*
X34252842Y-8022283D01*
X34358909Y-8022283D01*
X34358909Y-13737283D02*
X34358909Y-13631216D01*
X34252842Y-13631216D01*
X34252842Y-13737283D01*
X34358909Y-13737283D01*
X34374784Y-3450283D02*
X34374784Y-3344216D01*
X34268717Y-3344216D01*
X34268717Y-3450283D01*
X34374784Y-3450283D01*
X34993909Y-5863283D02*
X34993909Y-5757216D01*
X34887842Y-5757216D01*
X34887842Y-5863283D01*
X34993909Y-5863283D01*
X34993909Y-7768283D02*
X34993909Y-7662216D01*
X34887842Y-7662216D01*
X34887842Y-7768283D01*
X34993909Y-7768283D01*
X34993909Y-13483283D02*
X34993909Y-13377216D01*
X34887842Y-13377216D01*
X34887842Y-13483283D01*
X34993909Y-13483283D01*
X35009784Y-3196283D02*
X35009784Y-3090216D01*
X34903717Y-3090216D01*
X34903717Y-3196283D01*
X35009784Y-3196283D01*
X36263909Y-6117283D02*
X36263909Y-6011216D01*
X36157842Y-6011216D01*
X36157842Y-6117283D01*
X36263909Y-6117283D01*
X36263909Y-8022283D02*
X36263909Y-7916216D01*
X36157842Y-7916216D01*
X36157842Y-8022283D01*
X36263909Y-8022283D01*
X36263909Y-11832283D02*
X36263909Y-11726216D01*
X36157842Y-11726216D01*
X36157842Y-11832283D01*
X36263909Y-11832283D01*
X36263909Y-13737283D02*
X36263909Y-13631216D01*
X36157842Y-13631216D01*
X36157842Y-13737283D01*
X36263909Y-13737283D01*
X36279784Y-3450283D02*
X36279784Y-3344216D01*
X36173717Y-3344216D01*
X36173717Y-3450283D01*
X36279784Y-3450283D01*
X36898909Y-5863283D02*
X36898909Y-5757216D01*
X36792842Y-5757216D01*
X36792842Y-5863283D01*
X36898909Y-5863283D01*
X36898909Y-7768283D02*
X36898909Y-7662216D01*
X36792842Y-7662216D01*
X36792842Y-7768283D01*
X36898909Y-7768283D01*
X36898909Y-11578283D02*
X36898909Y-11472216D01*
X36792842Y-11472216D01*
X36792842Y-11578283D01*
X36898909Y-11578283D01*
X36898909Y-13483283D02*
X36898909Y-13377216D01*
X36792842Y-13377216D01*
X36792842Y-13483283D01*
X36898909Y-13483283D01*
X36914784Y-3196283D02*
X36914784Y-3090216D01*
X36808717Y-3090216D01*
X36808717Y-3196283D01*
X36914784Y-3196283D01*
X38168909Y-6117283D02*
X38168909Y-6011216D01*
X38062842Y-6011216D01*
X38062842Y-6117283D01*
X38168909Y-6117283D01*
X38168909Y-8022283D02*
X38168909Y-7916216D01*
X38062842Y-7916216D01*
X38062842Y-8022283D01*
X38168909Y-8022283D01*
X38168909Y-13737283D02*
X38168909Y-13631216D01*
X38062842Y-13631216D01*
X38062842Y-13737283D01*
X38168909Y-13737283D01*
X38184784Y-3450283D02*
X38184784Y-3344216D01*
X38078717Y-3344216D01*
X38078717Y-3450283D01*
X38184784Y-3450283D01*
X38803909Y-5863283D02*
X38803909Y-5757216D01*
X38697842Y-5757216D01*
X38697842Y-5863283D01*
X38803909Y-5863283D01*
X38803909Y-7768283D02*
X38803909Y-7662216D01*
X38697842Y-7662216D01*
X38697842Y-7768283D01*
X38803909Y-7768283D01*
X38803909Y-13483283D02*
X38803909Y-13377216D01*
X38697842Y-13377216D01*
X38697842Y-13483283D01*
X38803909Y-13483283D01*
X38819784Y-3196283D02*
X38819784Y-3090216D01*
X38713717Y-3090216D01*
X38713717Y-3196283D01*
X38819784Y-3196283D01*
D11*
X4535119Y-15744171D02*
X4535119Y-15544171D01*
X4582738Y-15544171D01*
X4611310Y-15553695D01*
X4630357Y-15572742D01*
X4639881Y-15591790D01*
X4649405Y-15629885D01*
X4649405Y-15658457D01*
X4639881Y-15696552D01*
X4630357Y-15715599D01*
X4611310Y-15734647D01*
X4582738Y-15744171D01*
X4535119Y-15744171D01*
X4735119Y-15744171D02*
X4735119Y-15610838D01*
X4735119Y-15648933D02*
X4744643Y-15629885D01*
X4754167Y-15620361D01*
X4773214Y-15610838D01*
X4792262Y-15610838D01*
X4858929Y-15744171D02*
X4858929Y-15610838D01*
X4858929Y-15544171D02*
X4849405Y-15553695D01*
X4858929Y-15563219D01*
X4868452Y-15553695D01*
X4858929Y-15544171D01*
X4858929Y-15563219D01*
X4982738Y-15744171D02*
X4963690Y-15734647D01*
X4954167Y-15715599D01*
X4954167Y-15544171D01*
X5087500Y-15744171D02*
X5068452Y-15734647D01*
X5058929Y-15715599D01*
X5058929Y-15544171D01*
X5316071Y-15744171D02*
X5316071Y-15544171D01*
X5382738Y-15687028D01*
X5449405Y-15544171D01*
X5449405Y-15744171D01*
X5630357Y-15744171D02*
X5630357Y-15639409D01*
X5620833Y-15620361D01*
X5601786Y-15610838D01*
X5563690Y-15610838D01*
X5544643Y-15620361D01*
X5630357Y-15734647D02*
X5611309Y-15744171D01*
X5563690Y-15744171D01*
X5544643Y-15734647D01*
X5535119Y-15715599D01*
X5535119Y-15696552D01*
X5544643Y-15677504D01*
X5563690Y-15667980D01*
X5611309Y-15667980D01*
X5630357Y-15658457D01*
X5725595Y-15610838D02*
X5725595Y-15810838D01*
X5725595Y-15620361D02*
X5744643Y-15610838D01*
X5782738Y-15610838D01*
X5801786Y-15620361D01*
X5811309Y-15629885D01*
X5820833Y-15648933D01*
X5820833Y-15706076D01*
X5811309Y-15725123D01*
X5801786Y-15734647D01*
X5782738Y-15744171D01*
X5744643Y-15744171D01*
X5725595Y-15734647D01*
X5906548Y-15725123D02*
X5916071Y-15734647D01*
X5906548Y-15744171D01*
X5897024Y-15734647D01*
X5906548Y-15725123D01*
X5906548Y-15744171D01*
X5906548Y-15620361D02*
X5916071Y-15629885D01*
X5906548Y-15639409D01*
X5897024Y-15629885D01*
X5906548Y-15620361D01*
X5906548Y-15639409D01*
D12*
X4237500Y-16053695D02*
X4277500Y-16093695D01*
X4277500Y-16053695D02*
X4237500Y-16093695D01*
D11*
X4573214Y-15964171D02*
X4592262Y-15964171D01*
X4611310Y-15973695D01*
X4620833Y-15983219D01*
X4630357Y-16002266D01*
X4639881Y-16040361D01*
X4639881Y-16087980D01*
X4630357Y-16126076D01*
X4620833Y-16145123D01*
X4611310Y-16154647D01*
X4592262Y-16164171D01*
X4573214Y-16164171D01*
X4554167Y-16154647D01*
X4544643Y-16145123D01*
X4535119Y-16126076D01*
X4525595Y-16087980D01*
X4525595Y-16040361D01*
X4535119Y-16002266D01*
X4544643Y-15983219D01*
X4554167Y-15973695D01*
X4573214Y-15964171D01*
X4725595Y-16145123D02*
X4735119Y-16154647D01*
X4725595Y-16164171D01*
X4716071Y-16154647D01*
X4725595Y-16145123D01*
X4725595Y-16164171D01*
X4906548Y-16030838D02*
X4906548Y-16164171D01*
X4858929Y-15954647D02*
X4811310Y-16097504D01*
X4935119Y-16097504D01*
X5049405Y-15964171D02*
X5068452Y-15964171D01*
X5087500Y-15973695D01*
X5097024Y-15983219D01*
X5106548Y-16002266D01*
X5116071Y-16040361D01*
X5116071Y-16087980D01*
X5106548Y-16126076D01*
X5097024Y-16145123D01*
X5087500Y-16154647D01*
X5068452Y-16164171D01*
X5049405Y-16164171D01*
X5030357Y-16154647D01*
X5020833Y-16145123D01*
X5011310Y-16126076D01*
X5001786Y-16087980D01*
X5001786Y-16040361D01*
X5011310Y-16002266D01*
X5020833Y-15983219D01*
X5030357Y-15973695D01*
X5049405Y-15964171D01*
X5239881Y-15964171D02*
X5258929Y-15964171D01*
X5277976Y-15973695D01*
X5287500Y-15983219D01*
X5297024Y-16002266D01*
X5306548Y-16040361D01*
X5306548Y-16087980D01*
X5297024Y-16126076D01*
X5287500Y-16145123D01*
X5277976Y-16154647D01*
X5258929Y-16164171D01*
X5239881Y-16164171D01*
X5220833Y-16154647D01*
X5211310Y-16145123D01*
X5201786Y-16126076D01*
X5192262Y-16087980D01*
X5192262Y-16040361D01*
X5201786Y-16002266D01*
X5211310Y-15983219D01*
X5220833Y-15973695D01*
X5239881Y-15964171D01*
X5392262Y-16164171D02*
X5392262Y-16030838D01*
X5392262Y-16049885D02*
X5401786Y-16040361D01*
X5420833Y-16030838D01*
X5449405Y-16030838D01*
X5468452Y-16040361D01*
X5477976Y-16059409D01*
X5477976Y-16164171D01*
X5477976Y-16059409D02*
X5487500Y-16040361D01*
X5506548Y-16030838D01*
X5535119Y-16030838D01*
X5554167Y-16040361D01*
X5563690Y-16059409D01*
X5563690Y-16164171D01*
X5658928Y-16164171D02*
X5658928Y-16030838D01*
X5658928Y-16049885D02*
X5668452Y-16040361D01*
X5687500Y-16030838D01*
X5716071Y-16030838D01*
X5735119Y-16040361D01*
X5744643Y-16059409D01*
X5744643Y-16164171D01*
X5744643Y-16059409D02*
X5754167Y-16040361D01*
X5773214Y-16030838D01*
X5801786Y-16030838D01*
X5820833Y-16040361D01*
X5830357Y-16059409D01*
X5830357Y-16164171D01*
X6220833Y-15954647D02*
X6049405Y-16211790D01*
X6477976Y-15964171D02*
X6497024Y-15964171D01*
X6516071Y-15973695D01*
X6525595Y-15983219D01*
X6535119Y-16002266D01*
X6544643Y-16040361D01*
X6544643Y-16087980D01*
X6535119Y-16126076D01*
X6525595Y-16145123D01*
X6516071Y-16154647D01*
X6497024Y-16164171D01*
X6477976Y-16164171D01*
X6458928Y-16154647D01*
X6449405Y-16145123D01*
X6439881Y-16126076D01*
X6430357Y-16087980D01*
X6430357Y-16040361D01*
X6439881Y-16002266D01*
X6449405Y-15983219D01*
X6458928Y-15973695D01*
X6477976Y-15964171D01*
X6630357Y-16145123D02*
X6639881Y-16154647D01*
X6630357Y-16164171D01*
X6620833Y-16154647D01*
X6630357Y-16145123D01*
X6630357Y-16164171D01*
X6763690Y-15964171D02*
X6782738Y-15964171D01*
X6801786Y-15973695D01*
X6811309Y-15983219D01*
X6820833Y-16002266D01*
X6830357Y-16040361D01*
X6830357Y-16087980D01*
X6820833Y-16126076D01*
X6811309Y-16145123D01*
X6801786Y-16154647D01*
X6782738Y-16164171D01*
X6763690Y-16164171D01*
X6744643Y-16154647D01*
X6735119Y-16145123D01*
X6725595Y-16126076D01*
X6716071Y-16087980D01*
X6716071Y-16040361D01*
X6725595Y-16002266D01*
X6735119Y-15983219D01*
X6744643Y-15973695D01*
X6763690Y-15964171D01*
X7020833Y-16164171D02*
X6906548Y-16164171D01*
X6963690Y-16164171D02*
X6963690Y-15964171D01*
X6944643Y-15992742D01*
X6925595Y-16011790D01*
X6906548Y-16021314D01*
X7201786Y-15964171D02*
X7106548Y-15964171D01*
X7097024Y-16059409D01*
X7106548Y-16049885D01*
X7125595Y-16040361D01*
X7173214Y-16040361D01*
X7192262Y-16049885D01*
X7201786Y-16059409D01*
X7211309Y-16078457D01*
X7211309Y-16126076D01*
X7201786Y-16145123D01*
X7192262Y-16154647D01*
X7173214Y-16164171D01*
X7125595Y-16164171D01*
X7106548Y-16154647D01*
X7097024Y-16145123D01*
X7277976Y-15964171D02*
X7411309Y-15964171D01*
X7325595Y-16164171D01*
X7477976Y-15964171D02*
X7477976Y-16002266D01*
X7554167Y-15964171D02*
X7554167Y-16002266D01*
X7849405Y-16240361D02*
X7839881Y-16230838D01*
X7820833Y-16202266D01*
X7811309Y-16183219D01*
X7801786Y-16154647D01*
X7792262Y-16107028D01*
X7792262Y-16068933D01*
X7801786Y-16021314D01*
X7811309Y-15992742D01*
X7820833Y-15973695D01*
X7839881Y-15945123D01*
X7849405Y-15935599D01*
X8011309Y-15964171D02*
X7973214Y-15964171D01*
X7954167Y-15973695D01*
X7944643Y-15983219D01*
X7925595Y-16011790D01*
X7916071Y-16049885D01*
X7916071Y-16126076D01*
X7925595Y-16145123D01*
X7935119Y-16154647D01*
X7954167Y-16164171D01*
X7992262Y-16164171D01*
X8011309Y-16154647D01*
X8020833Y-16145123D01*
X8030357Y-16126076D01*
X8030357Y-16078457D01*
X8020833Y-16059409D01*
X8011309Y-16049885D01*
X7992262Y-16040361D01*
X7954167Y-16040361D01*
X7935119Y-16049885D01*
X7925595Y-16059409D01*
X7916071Y-16078457D01*
X8211309Y-15964171D02*
X8116071Y-15964171D01*
X8106548Y-16059409D01*
X8116071Y-16049885D01*
X8135119Y-16040361D01*
X8182738Y-16040361D01*
X8201786Y-16049885D01*
X8211309Y-16059409D01*
X8220833Y-16078457D01*
X8220833Y-16126076D01*
X8211309Y-16145123D01*
X8201786Y-16154647D01*
X8182738Y-16164171D01*
X8135119Y-16164171D01*
X8116071Y-16154647D01*
X8106548Y-16145123D01*
X8458929Y-16164171D02*
X8458929Y-15964171D01*
X8544643Y-16164171D02*
X8544643Y-16059409D01*
X8535119Y-16040361D01*
X8516071Y-16030838D01*
X8487500Y-16030838D01*
X8468452Y-16040361D01*
X8458929Y-16049885D01*
X8668452Y-16164171D02*
X8649405Y-16154647D01*
X8639881Y-16145123D01*
X8630357Y-16126076D01*
X8630357Y-16068933D01*
X8639881Y-16049885D01*
X8649405Y-16040361D01*
X8668452Y-16030838D01*
X8697024Y-16030838D01*
X8716071Y-16040361D01*
X8725595Y-16049885D01*
X8735119Y-16068933D01*
X8735119Y-16126076D01*
X8725595Y-16145123D01*
X8716071Y-16154647D01*
X8697024Y-16164171D01*
X8668452Y-16164171D01*
X8849405Y-16164171D02*
X8830357Y-16154647D01*
X8820833Y-16135599D01*
X8820833Y-15964171D01*
X9001786Y-16154647D02*
X8982738Y-16164171D01*
X8944643Y-16164171D01*
X8925595Y-16154647D01*
X8916071Y-16135599D01*
X8916071Y-16059409D01*
X8925595Y-16040361D01*
X8944643Y-16030838D01*
X8982738Y-16030838D01*
X9001786Y-16040361D01*
X9011310Y-16059409D01*
X9011310Y-16078457D01*
X8916071Y-16097504D01*
X9087500Y-16154647D02*
X9106548Y-16164171D01*
X9144643Y-16164171D01*
X9163690Y-16154647D01*
X9173214Y-16135599D01*
X9173214Y-16126076D01*
X9163690Y-16107028D01*
X9144643Y-16097504D01*
X9116071Y-16097504D01*
X9097024Y-16087980D01*
X9087500Y-16068933D01*
X9087500Y-16059409D01*
X9097024Y-16040361D01*
X9116071Y-16030838D01*
X9144643Y-16030838D01*
X9163690Y-16040361D01*
X9239881Y-16240361D02*
X9249405Y-16230838D01*
X9268452Y-16202266D01*
X9277976Y-16183219D01*
X9287500Y-16154647D01*
X9297024Y-16107028D01*
X9297024Y-16068933D01*
X9287500Y-16021314D01*
X9277976Y-15992742D01*
X9268452Y-15973695D01*
X9249405Y-15945123D01*
X9239881Y-15935599D01*
D13*
X4277500Y-16337695D02*
G75*
G03*
X4277500Y-16337695I-30000J0D01*
G01*
D11*
X4573214Y-16228171D02*
X4592262Y-16228171D01*
X4611310Y-16237695D01*
X4620833Y-16247219D01*
X4630357Y-16266266D01*
X4639881Y-16304361D01*
X4639881Y-16351980D01*
X4630357Y-16390076D01*
X4620833Y-16409123D01*
X4611310Y-16418647D01*
X4592262Y-16428171D01*
X4573214Y-16428171D01*
X4554167Y-16418647D01*
X4544643Y-16409123D01*
X4535119Y-16390076D01*
X4525595Y-16351980D01*
X4525595Y-16304361D01*
X4535119Y-16266266D01*
X4544643Y-16247219D01*
X4554167Y-16237695D01*
X4573214Y-16228171D01*
X4725595Y-16409123D02*
X4735119Y-16418647D01*
X4725595Y-16428171D01*
X4716071Y-16418647D01*
X4725595Y-16409123D01*
X4725595Y-16428171D01*
X4906548Y-16228171D02*
X4868452Y-16228171D01*
X4849405Y-16237695D01*
X4839881Y-16247219D01*
X4820833Y-16275790D01*
X4811310Y-16313885D01*
X4811310Y-16390076D01*
X4820833Y-16409123D01*
X4830357Y-16418647D01*
X4849405Y-16428171D01*
X4887500Y-16428171D01*
X4906548Y-16418647D01*
X4916071Y-16409123D01*
X4925595Y-16390076D01*
X4925595Y-16342457D01*
X4916071Y-16323409D01*
X4906548Y-16313885D01*
X4887500Y-16304361D01*
X4849405Y-16304361D01*
X4830357Y-16313885D01*
X4820833Y-16323409D01*
X4811310Y-16342457D01*
X5049405Y-16228171D02*
X5068452Y-16228171D01*
X5087500Y-16237695D01*
X5097024Y-16247219D01*
X5106548Y-16266266D01*
X5116071Y-16304361D01*
X5116071Y-16351980D01*
X5106548Y-16390076D01*
X5097024Y-16409123D01*
X5087500Y-16418647D01*
X5068452Y-16428171D01*
X5049405Y-16428171D01*
X5030357Y-16418647D01*
X5020833Y-16409123D01*
X5011310Y-16390076D01*
X5001786Y-16351980D01*
X5001786Y-16304361D01*
X5011310Y-16266266D01*
X5020833Y-16247219D01*
X5030357Y-16237695D01*
X5049405Y-16228171D01*
X5239881Y-16228171D02*
X5258929Y-16228171D01*
X5277976Y-16237695D01*
X5287500Y-16247219D01*
X5297024Y-16266266D01*
X5306548Y-16304361D01*
X5306548Y-16351980D01*
X5297024Y-16390076D01*
X5287500Y-16409123D01*
X5277976Y-16418647D01*
X5258929Y-16428171D01*
X5239881Y-16428171D01*
X5220833Y-16418647D01*
X5211310Y-16409123D01*
X5201786Y-16390076D01*
X5192262Y-16351980D01*
X5192262Y-16304361D01*
X5201786Y-16266266D01*
X5211310Y-16247219D01*
X5220833Y-16237695D01*
X5239881Y-16228171D01*
X5392262Y-16428171D02*
X5392262Y-16294838D01*
X5392262Y-16313885D02*
X5401786Y-16304361D01*
X5420833Y-16294838D01*
X5449405Y-16294838D01*
X5468452Y-16304361D01*
X5477976Y-16323409D01*
X5477976Y-16428171D01*
X5477976Y-16323409D02*
X5487500Y-16304361D01*
X5506548Y-16294838D01*
X5535119Y-16294838D01*
X5554167Y-16304361D01*
X5563690Y-16323409D01*
X5563690Y-16428171D01*
X5658928Y-16428171D02*
X5658928Y-16294838D01*
X5658928Y-16313885D02*
X5668452Y-16304361D01*
X5687500Y-16294838D01*
X5716071Y-16294838D01*
X5735119Y-16304361D01*
X5744643Y-16323409D01*
X5744643Y-16428171D01*
X5744643Y-16323409D02*
X5754167Y-16304361D01*
X5773214Y-16294838D01*
X5801786Y-16294838D01*
X5820833Y-16304361D01*
X5830357Y-16323409D01*
X5830357Y-16428171D01*
X6220833Y-16218647D02*
X6049405Y-16475790D01*
X6477976Y-16228171D02*
X6497024Y-16228171D01*
X6516071Y-16237695D01*
X6525595Y-16247219D01*
X6535119Y-16266266D01*
X6544643Y-16304361D01*
X6544643Y-16351980D01*
X6535119Y-16390076D01*
X6525595Y-16409123D01*
X6516071Y-16418647D01*
X6497024Y-16428171D01*
X6477976Y-16428171D01*
X6458928Y-16418647D01*
X6449405Y-16409123D01*
X6439881Y-16390076D01*
X6430357Y-16351980D01*
X6430357Y-16304361D01*
X6439881Y-16266266D01*
X6449405Y-16247219D01*
X6458928Y-16237695D01*
X6477976Y-16228171D01*
X6630357Y-16409123D02*
X6639881Y-16418647D01*
X6630357Y-16428171D01*
X6620833Y-16418647D01*
X6630357Y-16409123D01*
X6630357Y-16428171D01*
X6763690Y-16228171D02*
X6782738Y-16228171D01*
X6801786Y-16237695D01*
X6811309Y-16247219D01*
X6820833Y-16266266D01*
X6830357Y-16304361D01*
X6830357Y-16351980D01*
X6820833Y-16390076D01*
X6811309Y-16409123D01*
X6801786Y-16418647D01*
X6782738Y-16428171D01*
X6763690Y-16428171D01*
X6744643Y-16418647D01*
X6735119Y-16409123D01*
X6725595Y-16390076D01*
X6716071Y-16351980D01*
X6716071Y-16304361D01*
X6725595Y-16266266D01*
X6735119Y-16247219D01*
X6744643Y-16237695D01*
X6763690Y-16228171D01*
X6906548Y-16247219D02*
X6916071Y-16237695D01*
X6935119Y-16228171D01*
X6982738Y-16228171D01*
X7001786Y-16237695D01*
X7011309Y-16247219D01*
X7020833Y-16266266D01*
X7020833Y-16285314D01*
X7011309Y-16313885D01*
X6897024Y-16428171D01*
X7020833Y-16428171D01*
X7087500Y-16228171D02*
X7211309Y-16228171D01*
X7144643Y-16304361D01*
X7173214Y-16304361D01*
X7192262Y-16313885D01*
X7201786Y-16323409D01*
X7211309Y-16342457D01*
X7211309Y-16390076D01*
X7201786Y-16409123D01*
X7192262Y-16418647D01*
X7173214Y-16428171D01*
X7116071Y-16428171D01*
X7097024Y-16418647D01*
X7087500Y-16409123D01*
X7382738Y-16228171D02*
X7344643Y-16228171D01*
X7325595Y-16237695D01*
X7316071Y-16247219D01*
X7297024Y-16275790D01*
X7287500Y-16313885D01*
X7287500Y-16390076D01*
X7297024Y-16409123D01*
X7306548Y-16418647D01*
X7325595Y-16428171D01*
X7363690Y-16428171D01*
X7382738Y-16418647D01*
X7392262Y-16409123D01*
X7401786Y-16390076D01*
X7401786Y-16342457D01*
X7392262Y-16323409D01*
X7382738Y-16313885D01*
X7363690Y-16304361D01*
X7325595Y-16304361D01*
X7306548Y-16313885D01*
X7297024Y-16323409D01*
X7287500Y-16342457D01*
X7477976Y-16228171D02*
X7477976Y-16266266D01*
X7554167Y-16228171D02*
X7554167Y-16266266D01*
X7849405Y-16504361D02*
X7839881Y-16494838D01*
X7820833Y-16466266D01*
X7811309Y-16447219D01*
X7801786Y-16418647D01*
X7792262Y-16371028D01*
X7792262Y-16332933D01*
X7801786Y-16285314D01*
X7811309Y-16256742D01*
X7820833Y-16237695D01*
X7839881Y-16209123D01*
X7849405Y-16199599D01*
X7963690Y-16228171D02*
X7982738Y-16228171D01*
X8001786Y-16237695D01*
X8011309Y-16247219D01*
X8020833Y-16266266D01*
X8030357Y-16304361D01*
X8030357Y-16351980D01*
X8020833Y-16390076D01*
X8011309Y-16409123D01*
X8001786Y-16418647D01*
X7982738Y-16428171D01*
X7963690Y-16428171D01*
X7944643Y-16418647D01*
X7935119Y-16409123D01*
X7925595Y-16390076D01*
X7916071Y-16351980D01*
X7916071Y-16304361D01*
X7925595Y-16266266D01*
X7935119Y-16247219D01*
X7944643Y-16237695D01*
X7963690Y-16228171D01*
X8268452Y-16428171D02*
X8268452Y-16228171D01*
X8354167Y-16428171D02*
X8354167Y-16323409D01*
X8344643Y-16304361D01*
X8325595Y-16294838D01*
X8297024Y-16294838D01*
X8277976Y-16304361D01*
X8268452Y-16313885D01*
X8477976Y-16428171D02*
X8458929Y-16418647D01*
X8449405Y-16409123D01*
X8439881Y-16390076D01*
X8439881Y-16332933D01*
X8449405Y-16313885D01*
X8458929Y-16304361D01*
X8477976Y-16294838D01*
X8506548Y-16294838D01*
X8525595Y-16304361D01*
X8535119Y-16313885D01*
X8544643Y-16332933D01*
X8544643Y-16390076D01*
X8535119Y-16409123D01*
X8525595Y-16418647D01*
X8506548Y-16428171D01*
X8477976Y-16428171D01*
X8658929Y-16428171D02*
X8639881Y-16418647D01*
X8630357Y-16399599D01*
X8630357Y-16228171D01*
X8811310Y-16418647D02*
X8792262Y-16428171D01*
X8754167Y-16428171D01*
X8735119Y-16418647D01*
X8725595Y-16399599D01*
X8725595Y-16323409D01*
X8735119Y-16304361D01*
X8754167Y-16294838D01*
X8792262Y-16294838D01*
X8811310Y-16304361D01*
X8820833Y-16323409D01*
X8820833Y-16342457D01*
X8725595Y-16361504D01*
X8897024Y-16418647D02*
X8916071Y-16428171D01*
X8954167Y-16428171D01*
X8973214Y-16418647D01*
X8982738Y-16399599D01*
X8982738Y-16390076D01*
X8973214Y-16371028D01*
X8954167Y-16361504D01*
X8925595Y-16361504D01*
X8906548Y-16351980D01*
X8897024Y-16332933D01*
X8897024Y-16323409D01*
X8906548Y-16304361D01*
X8925595Y-16294838D01*
X8954167Y-16294838D01*
X8973214Y-16304361D01*
X9220833Y-16351980D02*
X9373214Y-16351980D01*
X9297024Y-16428171D02*
X9297024Y-16275790D01*
X9706548Y-16294838D02*
X9706548Y-16428171D01*
X9658929Y-16218647D02*
X9611310Y-16361504D01*
X9735119Y-16361504D01*
X9954167Y-16418647D02*
X9973214Y-16428171D01*
X10011310Y-16428171D01*
X10030357Y-16418647D01*
X10039881Y-16399599D01*
X10039881Y-16390076D01*
X10030357Y-16371028D01*
X10011310Y-16361504D01*
X9982738Y-16361504D01*
X9963690Y-16351980D01*
X9954167Y-16332933D01*
X9954167Y-16323409D01*
X9963690Y-16304361D01*
X9982738Y-16294838D01*
X10011310Y-16294838D01*
X10030357Y-16304361D01*
X10154167Y-16428171D02*
X10135119Y-16418647D01*
X10125595Y-16399599D01*
X10125595Y-16228171D01*
X10258929Y-16428171D02*
X10239881Y-16418647D01*
X10230357Y-16409123D01*
X10220833Y-16390076D01*
X10220833Y-16332933D01*
X10230357Y-16313885D01*
X10239881Y-16304361D01*
X10258929Y-16294838D01*
X10287500Y-16294838D01*
X10306548Y-16304361D01*
X10316071Y-16313885D01*
X10325595Y-16332933D01*
X10325595Y-16390076D01*
X10316071Y-16409123D01*
X10306548Y-16418647D01*
X10287500Y-16428171D01*
X10258929Y-16428171D01*
X10382738Y-16294838D02*
X10458929Y-16294838D01*
X10411310Y-16228171D02*
X10411310Y-16399599D01*
X10420833Y-16418647D01*
X10439881Y-16428171D01*
X10458929Y-16428171D01*
X10516071Y-16418647D02*
X10535119Y-16428171D01*
X10573214Y-16428171D01*
X10592262Y-16418647D01*
X10601786Y-16399599D01*
X10601786Y-16390076D01*
X10592262Y-16371028D01*
X10573214Y-16361504D01*
X10544643Y-16361504D01*
X10525595Y-16351980D01*
X10516071Y-16332933D01*
X10516071Y-16323409D01*
X10525595Y-16304361D01*
X10544643Y-16294838D01*
X10573214Y-16294838D01*
X10592262Y-16304361D01*
X10668452Y-16504361D02*
X10677976Y-16494838D01*
X10697024Y-16466266D01*
X10706548Y-16447219D01*
X10716071Y-16418647D01*
X10725595Y-16371028D01*
X10725595Y-16332933D01*
X10716071Y-16285314D01*
X10706548Y-16256742D01*
X10697024Y-16237695D01*
X10677976Y-16209123D01*
X10668452Y-16199599D01*
D10*
X4227500Y-16551695D02*
X4227500Y-16651695D01*
X4177500Y-16601695D02*
X4277500Y-16601695D01*
D11*
X4639881Y-16692171D02*
X4525595Y-16692171D01*
X4582738Y-16692171D02*
X4582738Y-16492171D01*
X4563690Y-16520742D01*
X4544643Y-16539790D01*
X4525595Y-16549314D01*
X4725595Y-16673123D02*
X4735119Y-16682647D01*
X4725595Y-16692171D01*
X4716071Y-16682647D01*
X4725595Y-16673123D01*
X4725595Y-16692171D01*
X4858929Y-16492171D02*
X4877976Y-16492171D01*
X4897024Y-16501695D01*
X4906548Y-16511219D01*
X4916071Y-16530266D01*
X4925595Y-16568361D01*
X4925595Y-16615980D01*
X4916071Y-16654076D01*
X4906548Y-16673123D01*
X4897024Y-16682647D01*
X4877976Y-16692171D01*
X4858929Y-16692171D01*
X4839881Y-16682647D01*
X4830357Y-16673123D01*
X4820833Y-16654076D01*
X4811310Y-16615980D01*
X4811310Y-16568361D01*
X4820833Y-16530266D01*
X4830357Y-16511219D01*
X4839881Y-16501695D01*
X4858929Y-16492171D01*
X5049405Y-16492171D02*
X5068452Y-16492171D01*
X5087500Y-16501695D01*
X5097024Y-16511219D01*
X5106548Y-16530266D01*
X5116071Y-16568361D01*
X5116071Y-16615980D01*
X5106548Y-16654076D01*
X5097024Y-16673123D01*
X5087500Y-16682647D01*
X5068452Y-16692171D01*
X5049405Y-16692171D01*
X5030357Y-16682647D01*
X5020833Y-16673123D01*
X5011310Y-16654076D01*
X5001786Y-16615980D01*
X5001786Y-16568361D01*
X5011310Y-16530266D01*
X5020833Y-16511219D01*
X5030357Y-16501695D01*
X5049405Y-16492171D01*
X5239881Y-16492171D02*
X5258929Y-16492171D01*
X5277976Y-16501695D01*
X5287500Y-16511219D01*
X5297024Y-16530266D01*
X5306548Y-16568361D01*
X5306548Y-16615980D01*
X5297024Y-16654076D01*
X5287500Y-16673123D01*
X5277976Y-16682647D01*
X5258929Y-16692171D01*
X5239881Y-16692171D01*
X5220833Y-16682647D01*
X5211310Y-16673123D01*
X5201786Y-16654076D01*
X5192262Y-16615980D01*
X5192262Y-16568361D01*
X5201786Y-16530266D01*
X5211310Y-16511219D01*
X5220833Y-16501695D01*
X5239881Y-16492171D01*
X5392262Y-16692171D02*
X5392262Y-16558838D01*
X5392262Y-16577885D02*
X5401786Y-16568361D01*
X5420833Y-16558838D01*
X5449405Y-16558838D01*
X5468452Y-16568361D01*
X5477976Y-16587409D01*
X5477976Y-16692171D01*
X5477976Y-16587409D02*
X5487500Y-16568361D01*
X5506548Y-16558838D01*
X5535119Y-16558838D01*
X5554167Y-16568361D01*
X5563690Y-16587409D01*
X5563690Y-16692171D01*
X5658928Y-16692171D02*
X5658928Y-16558838D01*
X5658928Y-16577885D02*
X5668452Y-16568361D01*
X5687500Y-16558838D01*
X5716071Y-16558838D01*
X5735119Y-16568361D01*
X5744643Y-16587409D01*
X5744643Y-16692171D01*
X5744643Y-16587409D02*
X5754167Y-16568361D01*
X5773214Y-16558838D01*
X5801786Y-16558838D01*
X5820833Y-16568361D01*
X5830357Y-16587409D01*
X5830357Y-16692171D01*
X6220833Y-16482647D02*
X6049405Y-16739790D01*
X6477976Y-16492171D02*
X6497024Y-16492171D01*
X6516071Y-16501695D01*
X6525595Y-16511219D01*
X6535119Y-16530266D01*
X6544643Y-16568361D01*
X6544643Y-16615980D01*
X6535119Y-16654076D01*
X6525595Y-16673123D01*
X6516071Y-16682647D01*
X6497024Y-16692171D01*
X6477976Y-16692171D01*
X6458928Y-16682647D01*
X6449405Y-16673123D01*
X6439881Y-16654076D01*
X6430357Y-16615980D01*
X6430357Y-16568361D01*
X6439881Y-16530266D01*
X6449405Y-16511219D01*
X6458928Y-16501695D01*
X6477976Y-16492171D01*
X6630357Y-16673123D02*
X6639881Y-16682647D01*
X6630357Y-16692171D01*
X6620833Y-16682647D01*
X6630357Y-16673123D01*
X6630357Y-16692171D01*
X6763690Y-16492171D02*
X6782738Y-16492171D01*
X6801786Y-16501695D01*
X6811309Y-16511219D01*
X6820833Y-16530266D01*
X6830357Y-16568361D01*
X6830357Y-16615980D01*
X6820833Y-16654076D01*
X6811309Y-16673123D01*
X6801786Y-16682647D01*
X6782738Y-16692171D01*
X6763690Y-16692171D01*
X6744643Y-16682647D01*
X6735119Y-16673123D01*
X6725595Y-16654076D01*
X6716071Y-16615980D01*
X6716071Y-16568361D01*
X6725595Y-16530266D01*
X6735119Y-16511219D01*
X6744643Y-16501695D01*
X6763690Y-16492171D01*
X6897024Y-16492171D02*
X7020833Y-16492171D01*
X6954167Y-16568361D01*
X6982738Y-16568361D01*
X7001786Y-16577885D01*
X7011309Y-16587409D01*
X7020833Y-16606457D01*
X7020833Y-16654076D01*
X7011309Y-16673123D01*
X7001786Y-16682647D01*
X6982738Y-16692171D01*
X6925595Y-16692171D01*
X6906548Y-16682647D01*
X6897024Y-16673123D01*
X7116071Y-16692171D02*
X7154167Y-16692171D01*
X7173214Y-16682647D01*
X7182738Y-16673123D01*
X7201786Y-16644552D01*
X7211309Y-16606457D01*
X7211309Y-16530266D01*
X7201786Y-16511219D01*
X7192262Y-16501695D01*
X7173214Y-16492171D01*
X7135119Y-16492171D01*
X7116071Y-16501695D01*
X7106548Y-16511219D01*
X7097024Y-16530266D01*
X7097024Y-16577885D01*
X7106548Y-16596933D01*
X7116071Y-16606457D01*
X7135119Y-16615980D01*
X7173214Y-16615980D01*
X7192262Y-16606457D01*
X7201786Y-16596933D01*
X7211309Y-16577885D01*
X7382738Y-16558838D02*
X7382738Y-16692171D01*
X7335119Y-16482647D02*
X7287500Y-16625504D01*
X7411309Y-16625504D01*
X7477976Y-16492171D02*
X7477976Y-16530266D01*
X7554167Y-16492171D02*
X7554167Y-16530266D01*
X7849405Y-16768361D02*
X7839881Y-16758838D01*
X7820833Y-16730266D01*
X7811309Y-16711219D01*
X7801786Y-16682647D01*
X7792262Y-16635028D01*
X7792262Y-16596933D01*
X7801786Y-16549314D01*
X7811309Y-16520742D01*
X7820833Y-16501695D01*
X7839881Y-16473123D01*
X7849405Y-16463599D01*
X8011309Y-16492171D02*
X7973214Y-16492171D01*
X7954167Y-16501695D01*
X7944643Y-16511219D01*
X7925595Y-16539790D01*
X7916071Y-16577885D01*
X7916071Y-16654076D01*
X7925595Y-16673123D01*
X7935119Y-16682647D01*
X7954167Y-16692171D01*
X7992262Y-16692171D01*
X8011309Y-16682647D01*
X8020833Y-16673123D01*
X8030357Y-16654076D01*
X8030357Y-16606457D01*
X8020833Y-16587409D01*
X8011309Y-16577885D01*
X7992262Y-16568361D01*
X7954167Y-16568361D01*
X7935119Y-16577885D01*
X7925595Y-16587409D01*
X7916071Y-16606457D01*
X8268452Y-16692171D02*
X8268452Y-16492171D01*
X8354167Y-16692171D02*
X8354167Y-16587409D01*
X8344643Y-16568361D01*
X8325595Y-16558838D01*
X8297024Y-16558838D01*
X8277976Y-16568361D01*
X8268452Y-16577885D01*
X8477976Y-16692171D02*
X8458929Y-16682647D01*
X8449405Y-16673123D01*
X8439881Y-16654076D01*
X8439881Y-16596933D01*
X8449405Y-16577885D01*
X8458929Y-16568361D01*
X8477976Y-16558838D01*
X8506548Y-16558838D01*
X8525595Y-16568361D01*
X8535119Y-16577885D01*
X8544643Y-16596933D01*
X8544643Y-16654076D01*
X8535119Y-16673123D01*
X8525595Y-16682647D01*
X8506548Y-16692171D01*
X8477976Y-16692171D01*
X8658929Y-16692171D02*
X8639881Y-16682647D01*
X8630357Y-16663599D01*
X8630357Y-16492171D01*
X8811310Y-16682647D02*
X8792262Y-16692171D01*
X8754167Y-16692171D01*
X8735119Y-16682647D01*
X8725595Y-16663599D01*
X8725595Y-16587409D01*
X8735119Y-16568361D01*
X8754167Y-16558838D01*
X8792262Y-16558838D01*
X8811310Y-16568361D01*
X8820833Y-16587409D01*
X8820833Y-16606457D01*
X8725595Y-16625504D01*
X8897024Y-16682647D02*
X8916071Y-16692171D01*
X8954167Y-16692171D01*
X8973214Y-16682647D01*
X8982738Y-16663599D01*
X8982738Y-16654076D01*
X8973214Y-16635028D01*
X8954167Y-16625504D01*
X8925595Y-16625504D01*
X8906548Y-16615980D01*
X8897024Y-16596933D01*
X8897024Y-16587409D01*
X8906548Y-16568361D01*
X8925595Y-16558838D01*
X8954167Y-16558838D01*
X8973214Y-16568361D01*
X9049405Y-16768361D02*
X9058929Y-16758838D01*
X9077976Y-16730266D01*
X9087500Y-16711219D01*
X9097024Y-16682647D01*
X9106548Y-16635028D01*
X9106548Y-16596933D01*
X9097024Y-16549314D01*
X9087500Y-16520742D01*
X9077976Y-16501695D01*
X9058929Y-16473123D01*
X9049405Y-16463599D01*
D14*
X4255534Y-16918728D02*
X4255534Y-16812661D01*
X4149466Y-16812661D01*
X4149466Y-16918728D01*
X4255534Y-16918728D01*
D11*
X4639881Y-16956171D02*
X4525595Y-16956171D01*
X4582738Y-16956171D02*
X4582738Y-16756171D01*
X4563690Y-16784742D01*
X4544643Y-16803790D01*
X4525595Y-16813314D01*
X4725595Y-16937123D02*
X4735119Y-16946647D01*
X4725595Y-16956171D01*
X4716071Y-16946647D01*
X4725595Y-16937123D01*
X4725595Y-16956171D01*
X4916071Y-16756171D02*
X4820833Y-16756171D01*
X4811310Y-16851409D01*
X4820833Y-16841885D01*
X4839881Y-16832361D01*
X4887500Y-16832361D01*
X4906548Y-16841885D01*
X4916071Y-16851409D01*
X4925595Y-16870457D01*
X4925595Y-16918076D01*
X4916071Y-16937123D01*
X4906548Y-16946647D01*
X4887500Y-16956171D01*
X4839881Y-16956171D01*
X4820833Y-16946647D01*
X4811310Y-16937123D01*
X5049405Y-16756171D02*
X5068452Y-16756171D01*
X5087500Y-16765695D01*
X5097024Y-16775219D01*
X5106548Y-16794266D01*
X5116071Y-16832361D01*
X5116071Y-16879981D01*
X5106548Y-16918076D01*
X5097024Y-16937123D01*
X5087500Y-16946647D01*
X5068452Y-16956171D01*
X5049405Y-16956171D01*
X5030357Y-16946647D01*
X5020833Y-16937123D01*
X5011310Y-16918076D01*
X5001786Y-16879981D01*
X5001786Y-16832361D01*
X5011310Y-16794266D01*
X5020833Y-16775219D01*
X5030357Y-16765695D01*
X5049405Y-16756171D01*
X5239881Y-16756171D02*
X5258929Y-16756171D01*
X5277976Y-16765695D01*
X5287500Y-16775219D01*
X5297024Y-16794266D01*
X5306548Y-16832361D01*
X5306548Y-16879981D01*
X5297024Y-16918076D01*
X5287500Y-16937123D01*
X5277976Y-16946647D01*
X5258929Y-16956171D01*
X5239881Y-16956171D01*
X5220833Y-16946647D01*
X5211310Y-16937123D01*
X5201786Y-16918076D01*
X5192262Y-16879981D01*
X5192262Y-16832361D01*
X5201786Y-16794266D01*
X5211310Y-16775219D01*
X5220833Y-16765695D01*
X5239881Y-16756171D01*
X5392262Y-16956171D02*
X5392262Y-16822838D01*
X5392262Y-16841885D02*
X5401786Y-16832361D01*
X5420833Y-16822838D01*
X5449405Y-16822838D01*
X5468452Y-16832361D01*
X5477976Y-16851409D01*
X5477976Y-16956171D01*
X5477976Y-16851409D02*
X5487500Y-16832361D01*
X5506548Y-16822838D01*
X5535119Y-16822838D01*
X5554167Y-16832361D01*
X5563690Y-16851409D01*
X5563690Y-16956171D01*
X5658928Y-16956171D02*
X5658928Y-16822838D01*
X5658928Y-16841885D02*
X5668452Y-16832361D01*
X5687500Y-16822838D01*
X5716071Y-16822838D01*
X5735119Y-16832361D01*
X5744643Y-16851409D01*
X5744643Y-16956171D01*
X5744643Y-16851409D02*
X5754167Y-16832361D01*
X5773214Y-16822838D01*
X5801786Y-16822838D01*
X5820833Y-16832361D01*
X5830357Y-16851409D01*
X5830357Y-16956171D01*
X6220833Y-16746647D02*
X6049405Y-17003790D01*
X6477976Y-16756171D02*
X6497024Y-16756171D01*
X6516071Y-16765695D01*
X6525595Y-16775219D01*
X6535119Y-16794266D01*
X6544643Y-16832361D01*
X6544643Y-16879981D01*
X6535119Y-16918076D01*
X6525595Y-16937123D01*
X6516071Y-16946647D01*
X6497024Y-16956171D01*
X6477976Y-16956171D01*
X6458928Y-16946647D01*
X6449405Y-16937123D01*
X6439881Y-16918076D01*
X6430357Y-16879981D01*
X6430357Y-16832361D01*
X6439881Y-16794266D01*
X6449405Y-16775219D01*
X6458928Y-16765695D01*
X6477976Y-16756171D01*
X6630357Y-16937123D02*
X6639881Y-16946647D01*
X6630357Y-16956171D01*
X6620833Y-16946647D01*
X6630357Y-16937123D01*
X6630357Y-16956171D01*
X6763690Y-16756171D02*
X6782738Y-16756171D01*
X6801786Y-16765695D01*
X6811309Y-16775219D01*
X6820833Y-16794266D01*
X6830357Y-16832361D01*
X6830357Y-16879981D01*
X6820833Y-16918076D01*
X6811309Y-16937123D01*
X6801786Y-16946647D01*
X6782738Y-16956171D01*
X6763690Y-16956171D01*
X6744643Y-16946647D01*
X6735119Y-16937123D01*
X6725595Y-16918076D01*
X6716071Y-16879981D01*
X6716071Y-16832361D01*
X6725595Y-16794266D01*
X6735119Y-16775219D01*
X6744643Y-16765695D01*
X6763690Y-16756171D01*
X7011309Y-16756171D02*
X6916071Y-16756171D01*
X6906548Y-16851409D01*
X6916071Y-16841885D01*
X6935119Y-16832361D01*
X6982738Y-16832361D01*
X7001786Y-16841885D01*
X7011309Y-16851409D01*
X7020833Y-16870457D01*
X7020833Y-16918076D01*
X7011309Y-16937123D01*
X7001786Y-16946647D01*
X6982738Y-16956171D01*
X6935119Y-16956171D01*
X6916071Y-16946647D01*
X6906548Y-16937123D01*
X7116071Y-16956171D02*
X7154167Y-16956171D01*
X7173214Y-16946647D01*
X7182738Y-16937123D01*
X7201786Y-16908552D01*
X7211309Y-16870457D01*
X7211309Y-16794266D01*
X7201786Y-16775219D01*
X7192262Y-16765695D01*
X7173214Y-16756171D01*
X7135119Y-16756171D01*
X7116071Y-16765695D01*
X7106548Y-16775219D01*
X7097024Y-16794266D01*
X7097024Y-16841885D01*
X7106548Y-16860933D01*
X7116071Y-16870457D01*
X7135119Y-16879981D01*
X7173214Y-16879981D01*
X7192262Y-16870457D01*
X7201786Y-16860933D01*
X7211309Y-16841885D01*
X7401786Y-16956171D02*
X7287500Y-16956171D01*
X7344643Y-16956171D02*
X7344643Y-16756171D01*
X7325595Y-16784742D01*
X7306548Y-16803790D01*
X7287500Y-16813314D01*
X7477976Y-16756171D02*
X7477976Y-16794266D01*
X7554167Y-16756171D02*
X7554167Y-16794266D01*
X7849405Y-17032361D02*
X7839881Y-17022838D01*
X7820833Y-16994266D01*
X7811309Y-16975219D01*
X7801786Y-16946647D01*
X7792262Y-16899028D01*
X7792262Y-16860933D01*
X7801786Y-16813314D01*
X7811309Y-16784742D01*
X7820833Y-16765695D01*
X7839881Y-16737123D01*
X7849405Y-16727599D01*
X8030357Y-16956171D02*
X7916071Y-16956171D01*
X7973214Y-16956171D02*
X7973214Y-16756171D01*
X7954167Y-16784742D01*
X7935119Y-16803790D01*
X7916071Y-16813314D01*
X8097024Y-16756171D02*
X8230357Y-16756171D01*
X8144643Y-16956171D01*
X8392262Y-16822838D02*
X8392262Y-16956171D01*
X8344643Y-16746647D02*
X8297024Y-16889504D01*
X8420833Y-16889504D01*
X8649405Y-16956171D02*
X8649405Y-16756171D01*
X8735119Y-16956171D02*
X8735119Y-16851409D01*
X8725595Y-16832361D01*
X8706548Y-16822838D01*
X8677976Y-16822838D01*
X8658929Y-16832361D01*
X8649405Y-16841885D01*
X8858929Y-16956171D02*
X8839881Y-16946647D01*
X8830357Y-16937123D01*
X8820833Y-16918076D01*
X8820833Y-16860933D01*
X8830357Y-16841885D01*
X8839881Y-16832361D01*
X8858929Y-16822838D01*
X8887500Y-16822838D01*
X8906548Y-16832361D01*
X8916071Y-16841885D01*
X8925595Y-16860933D01*
X8925595Y-16918076D01*
X8916071Y-16937123D01*
X8906548Y-16946647D01*
X8887500Y-16956171D01*
X8858929Y-16956171D01*
X9039881Y-16956171D02*
X9020833Y-16946647D01*
X9011310Y-16927600D01*
X9011310Y-16756171D01*
X9192262Y-16946647D02*
X9173214Y-16956171D01*
X9135119Y-16956171D01*
X9116071Y-16946647D01*
X9106548Y-16927600D01*
X9106548Y-16851409D01*
X9116071Y-16832361D01*
X9135119Y-16822838D01*
X9173214Y-16822838D01*
X9192262Y-16832361D01*
X9201786Y-16851409D01*
X9201786Y-16870457D01*
X9106548Y-16889504D01*
X9277976Y-16946647D02*
X9297024Y-16956171D01*
X9335119Y-16956171D01*
X9354167Y-16946647D01*
X9363690Y-16927600D01*
X9363690Y-16918076D01*
X9354167Y-16899028D01*
X9335119Y-16889504D01*
X9306548Y-16889504D01*
X9287500Y-16879981D01*
X9277976Y-16860933D01*
X9277976Y-16851409D01*
X9287500Y-16832361D01*
X9306548Y-16822838D01*
X9335119Y-16822838D01*
X9354167Y-16832361D01*
X9430357Y-17032361D02*
X9439881Y-17022838D01*
X9458929Y-16994266D01*
X9468452Y-16975219D01*
X9477976Y-16946647D01*
X9487500Y-16899028D01*
X9487500Y-16860933D01*
X9477976Y-16813314D01*
X9468452Y-16784742D01*
X9458929Y-16765695D01*
X9439881Y-16737123D01*
X9430357Y-16727599D01*
M02*
