G04 #@! TF.GenerationSoftware,KiCad,Pcbnew,(6.0.10)*
G04 #@! TF.CreationDate,2023-01-01T01:58:12-05:00*
G04 #@! TF.ProjectId,2ndKeyboard,326e644b-6579-4626-9f61-72642e6b6963,rev?*
G04 #@! TF.SameCoordinates,Original*
G04 #@! TF.FileFunction,Legend,Bot*
G04 #@! TF.FilePolarity,Positive*
%FSLAX46Y46*%
G04 Gerber Fmt 4.6, Leading zero omitted, Abs format (unit mm)*
G04 Created by KiCad (PCBNEW (6.0.10)) date 2023-01-01 01:58:12*
%MOMM*%
%LPD*%
G01*
G04 APERTURE LIST*
G04 Aperture macros list*
%AMRoundRect*
0 Rectangle with rounded corners*
0 $1 Rounding radius*
0 $2 $3 $4 $5 $6 $7 $8 $9 X,Y pos of 4 corners*
0 Add a 4 corners polygon primitive as box body*
4,1,4,$2,$3,$4,$5,$6,$7,$8,$9,$2,$3,0*
0 Add four circle primitives for the rounded corners*
1,1,$1+$1,$2,$3*
1,1,$1+$1,$4,$5*
1,1,$1+$1,$6,$7*
1,1,$1+$1,$8,$9*
0 Add four rect primitives between the rounded corners*
20,1,$1+$1,$2,$3,$4,$5,0*
20,1,$1+$1,$4,$5,$6,$7,0*
20,1,$1+$1,$6,$7,$8,$9,0*
20,1,$1+$1,$8,$9,$2,$3,0*%
G04 Aperture macros list end*
%ADD10C,0.150000*%
%ADD11C,0.120000*%
%ADD12C,0.250000*%
%ADD13C,1.700000*%
%ADD14C,4.000000*%
%ADD15C,2.200000*%
%ADD16C,3.050000*%
%ADD17R,1.200000X0.900000*%
%ADD18RoundRect,0.250000X-0.350000X-0.450000X0.350000X-0.450000X0.350000X0.450000X-0.350000X0.450000X0*%
%ADD19R,1.800000X1.100000*%
%ADD20RoundRect,0.250000X-0.337500X-0.475000X0.337500X-0.475000X0.337500X0.475000X-0.337500X0.475000X0*%
%ADD21RoundRect,0.250000X-0.325000X-0.450000X0.325000X-0.450000X0.325000X0.450000X-0.325000X0.450000X0*%
%ADD22R,1.800000X2.100000*%
%ADD23RoundRect,0.250000X0.337500X0.475000X-0.337500X0.475000X-0.337500X-0.475000X0.337500X-0.475000X0*%
%ADD24R,0.550000X1.500000*%
%ADD25R,1.500000X0.550000*%
%ADD26RoundRect,0.250000X0.350000X0.450000X-0.350000X0.450000X-0.350000X-0.450000X0.350000X-0.450000X0*%
%ADD27RoundRect,0.250001X-0.624999X0.462499X-0.624999X-0.462499X0.624999X-0.462499X0.624999X0.462499X0*%
%ADD28RoundRect,0.250000X0.475000X-0.337500X0.475000X0.337500X-0.475000X0.337500X-0.475000X-0.337500X0*%
%ADD29R,0.700000X1.000000*%
%ADD30R,0.700000X0.600000*%
%ADD31R,1.700000X1.700000*%
%ADD32C,0.650000*%
%ADD33R,0.600000X2.450000*%
%ADD34R,0.300000X2.450000*%
%ADD35RoundRect,0.250000X-0.450000X0.350000X-0.450000X-0.350000X0.450000X-0.350000X0.450000X0.350000X0*%
%ADD36RoundRect,0.250000X-0.475000X0.337500X-0.475000X-0.337500X0.475000X-0.337500X0.475000X0.337500X0*%
G04 APERTURE END LIST*
D10*
X79554880Y-85384464D02*
X78554880Y-85384464D01*
X78554880Y-85622559D01*
X78602500Y-85765416D01*
X78697738Y-85860654D01*
X78792976Y-85908273D01*
X78983452Y-85955892D01*
X79126309Y-85955892D01*
X79316785Y-85908273D01*
X79412023Y-85860654D01*
X79507261Y-85765416D01*
X79554880Y-85622559D01*
X79554880Y-85384464D01*
X78554880Y-86289226D02*
X78554880Y-86908273D01*
X78935833Y-86574940D01*
X78935833Y-86717797D01*
X78983452Y-86813035D01*
X79031071Y-86860654D01*
X79126309Y-86908273D01*
X79364404Y-86908273D01*
X79459642Y-86860654D01*
X79507261Y-86813035D01*
X79554880Y-86717797D01*
X79554880Y-86432083D01*
X79507261Y-86336845D01*
X79459642Y-86289226D01*
X78554880Y-87813035D02*
X78554880Y-87336845D01*
X79031071Y-87289226D01*
X78983452Y-87336845D01*
X78935833Y-87432083D01*
X78935833Y-87670178D01*
X78983452Y-87765416D01*
X79031071Y-87813035D01*
X79126309Y-87860654D01*
X79364404Y-87860654D01*
X79459642Y-87813035D01*
X79507261Y-87765416D01*
X79554880Y-87670178D01*
X79554880Y-87432083D01*
X79507261Y-87336845D01*
X79459642Y-87289226D01*
X208192380Y-66571964D02*
X207192380Y-66571964D01*
X207192380Y-66810059D01*
X207240000Y-66952916D01*
X207335238Y-67048154D01*
X207430476Y-67095773D01*
X207620952Y-67143392D01*
X207763809Y-67143392D01*
X207954285Y-67095773D01*
X208049523Y-67048154D01*
X208144761Y-66952916D01*
X208192380Y-66810059D01*
X208192380Y-66571964D01*
X207287619Y-67524345D02*
X207240000Y-67571964D01*
X207192380Y-67667202D01*
X207192380Y-67905297D01*
X207240000Y-68000535D01*
X207287619Y-68048154D01*
X207382857Y-68095773D01*
X207478095Y-68095773D01*
X207620952Y-68048154D01*
X208192380Y-67476726D01*
X208192380Y-68095773D01*
X207192380Y-69000535D02*
X207192380Y-68524345D01*
X207668571Y-68476726D01*
X207620952Y-68524345D01*
X207573333Y-68619583D01*
X207573333Y-68857678D01*
X207620952Y-68952916D01*
X207668571Y-69000535D01*
X207763809Y-69048154D01*
X208001904Y-69048154D01*
X208097142Y-69000535D01*
X208144761Y-68952916D01*
X208192380Y-68857678D01*
X208192380Y-68619583D01*
X208144761Y-68524345D01*
X208097142Y-68476726D01*
X193904880Y-123721964D02*
X192904880Y-123721964D01*
X192904880Y-123960059D01*
X192952500Y-124102916D01*
X193047738Y-124198154D01*
X193142976Y-124245773D01*
X193333452Y-124293392D01*
X193476309Y-124293392D01*
X193666785Y-124245773D01*
X193762023Y-124198154D01*
X193857261Y-124102916D01*
X193904880Y-123960059D01*
X193904880Y-123721964D01*
X192904880Y-124626726D02*
X192904880Y-125293392D01*
X193904880Y-124864821D01*
X192904880Y-125864821D02*
X192904880Y-125960059D01*
X192952500Y-126055297D01*
X193000119Y-126102916D01*
X193095357Y-126150535D01*
X193285833Y-126198154D01*
X193523928Y-126198154D01*
X193714404Y-126150535D01*
X193809642Y-126102916D01*
X193857261Y-126055297D01*
X193904880Y-125960059D01*
X193904880Y-125864821D01*
X193857261Y-125769583D01*
X193809642Y-125721964D01*
X193714404Y-125674345D01*
X193523928Y-125626726D01*
X193285833Y-125626726D01*
X193095357Y-125674345D01*
X193000119Y-125721964D01*
X192952500Y-125769583D01*
X192904880Y-125864821D01*
X320111130Y-142771964D02*
X319111130Y-142771964D01*
X319111130Y-143010059D01*
X319158750Y-143152916D01*
X319253988Y-143248154D01*
X319349226Y-143295773D01*
X319539702Y-143343392D01*
X319682559Y-143343392D01*
X319873035Y-143295773D01*
X319968273Y-143248154D01*
X320063511Y-143152916D01*
X320111130Y-143010059D01*
X320111130Y-142771964D01*
X319539702Y-143914821D02*
X319492083Y-143819583D01*
X319444464Y-143771964D01*
X319349226Y-143724345D01*
X319301607Y-143724345D01*
X319206369Y-143771964D01*
X319158750Y-143819583D01*
X319111130Y-143914821D01*
X319111130Y-144105297D01*
X319158750Y-144200535D01*
X319206369Y-144248154D01*
X319301607Y-144295773D01*
X319349226Y-144295773D01*
X319444464Y-144248154D01*
X319492083Y-144200535D01*
X319539702Y-144105297D01*
X319539702Y-143914821D01*
X319587321Y-143819583D01*
X319634940Y-143771964D01*
X319730178Y-143724345D01*
X319920654Y-143724345D01*
X320015892Y-143771964D01*
X320063511Y-143819583D01*
X320111130Y-143914821D01*
X320111130Y-144105297D01*
X320063511Y-144200535D01*
X320015892Y-144248154D01*
X319920654Y-144295773D01*
X319730178Y-144295773D01*
X319634940Y-144248154D01*
X319587321Y-144200535D01*
X319539702Y-144105297D01*
X319444464Y-145152916D02*
X320111130Y-145152916D01*
X319063511Y-144914821D02*
X319777797Y-144676726D01*
X319777797Y-145295773D01*
X289104880Y-85384464D02*
X288104880Y-85384464D01*
X288104880Y-85622559D01*
X288152500Y-85765416D01*
X288247738Y-85860654D01*
X288342976Y-85908273D01*
X288533452Y-85955892D01*
X288676309Y-85955892D01*
X288866785Y-85908273D01*
X288962023Y-85860654D01*
X289057261Y-85765416D01*
X289104880Y-85622559D01*
X289104880Y-85384464D01*
X288438214Y-86813035D02*
X289104880Y-86813035D01*
X288057261Y-86574940D02*
X288771547Y-86336845D01*
X288771547Y-86955892D01*
X288104880Y-87765416D02*
X288104880Y-87574940D01*
X288152500Y-87479702D01*
X288200119Y-87432083D01*
X288342976Y-87336845D01*
X288533452Y-87289226D01*
X288914404Y-87289226D01*
X289009642Y-87336845D01*
X289057261Y-87384464D01*
X289104880Y-87479702D01*
X289104880Y-87670178D01*
X289057261Y-87765416D01*
X289009642Y-87813035D01*
X288914404Y-87860654D01*
X288676309Y-87860654D01*
X288581071Y-87813035D01*
X288533452Y-87765416D01*
X288485833Y-87670178D01*
X288485833Y-87479702D01*
X288533452Y-87384464D01*
X288581071Y-87336845D01*
X288676309Y-87289226D01*
X332086666Y-118312380D02*
X332420000Y-117836190D01*
X332658095Y-118312380D02*
X332658095Y-117312380D01*
X332277142Y-117312380D01*
X332181904Y-117360000D01*
X332134285Y-117407619D01*
X332086666Y-117502857D01*
X332086666Y-117645714D01*
X332134285Y-117740952D01*
X332181904Y-117788571D01*
X332277142Y-117836190D01*
X332658095Y-117836190D01*
X331229523Y-117312380D02*
X331420000Y-117312380D01*
X331515238Y-117360000D01*
X331562857Y-117407619D01*
X331658095Y-117550476D01*
X331705714Y-117740952D01*
X331705714Y-118121904D01*
X331658095Y-118217142D01*
X331610476Y-118264761D01*
X331515238Y-118312380D01*
X331324761Y-118312380D01*
X331229523Y-118264761D01*
X331181904Y-118217142D01*
X331134285Y-118121904D01*
X331134285Y-117883809D01*
X331181904Y-117788571D01*
X331229523Y-117740952D01*
X331324761Y-117693333D01*
X331515238Y-117693333D01*
X331610476Y-117740952D01*
X331658095Y-117788571D01*
X331705714Y-117883809D01*
X235973630Y-40060654D02*
X234973630Y-40060654D01*
X234973630Y-40298750D01*
X235021250Y-40441607D01*
X235116488Y-40536845D01*
X235211726Y-40584464D01*
X235402202Y-40632083D01*
X235545059Y-40632083D01*
X235735535Y-40584464D01*
X235830773Y-40536845D01*
X235926011Y-40441607D01*
X235973630Y-40298750D01*
X235973630Y-40060654D01*
X235973630Y-41108273D02*
X235973630Y-41298750D01*
X235926011Y-41393988D01*
X235878392Y-41441607D01*
X235735535Y-41536845D01*
X235545059Y-41584464D01*
X235164107Y-41584464D01*
X235068869Y-41536845D01*
X235021250Y-41489226D01*
X234973630Y-41393988D01*
X234973630Y-41203511D01*
X235021250Y-41108273D01*
X235068869Y-41060654D01*
X235164107Y-41013035D01*
X235402202Y-41013035D01*
X235497440Y-41060654D01*
X235545059Y-41108273D01*
X235592678Y-41203511D01*
X235592678Y-41393988D01*
X235545059Y-41489226D01*
X235497440Y-41536845D01*
X235402202Y-41584464D01*
X364463333Y-91644761D02*
X364320476Y-91692380D01*
X364082380Y-91692380D01*
X363987142Y-91644761D01*
X363939523Y-91597142D01*
X363891904Y-91501904D01*
X363891904Y-91406666D01*
X363939523Y-91311428D01*
X363987142Y-91263809D01*
X364082380Y-91216190D01*
X364272857Y-91168571D01*
X364368095Y-91120952D01*
X364415714Y-91073333D01*
X364463333Y-90978095D01*
X364463333Y-90882857D01*
X364415714Y-90787619D01*
X364368095Y-90740000D01*
X364272857Y-90692380D01*
X364034761Y-90692380D01*
X363891904Y-90740000D01*
X363558571Y-90692380D02*
X363320476Y-91692380D01*
X363130000Y-90978095D01*
X362939523Y-91692380D01*
X362701428Y-90692380D01*
X361796666Y-91692380D02*
X362368095Y-91692380D01*
X362082380Y-91692380D02*
X362082380Y-90692380D01*
X362177619Y-90835238D01*
X362272857Y-90930476D01*
X362368095Y-90978095D01*
X385198630Y-39984464D02*
X384198630Y-39984464D01*
X384198630Y-40222559D01*
X384246250Y-40365416D01*
X384341488Y-40460654D01*
X384436726Y-40508273D01*
X384627202Y-40555892D01*
X384770059Y-40555892D01*
X384960535Y-40508273D01*
X385055773Y-40460654D01*
X385151011Y-40365416D01*
X385198630Y-40222559D01*
X385198630Y-39984464D01*
X385198630Y-41508273D02*
X385198630Y-40936845D01*
X385198630Y-41222559D02*
X384198630Y-41222559D01*
X384341488Y-41127321D01*
X384436726Y-41032083D01*
X384484345Y-40936845D01*
X384198630Y-42365416D02*
X384198630Y-42174940D01*
X384246250Y-42079702D01*
X384293869Y-42032083D01*
X384436726Y-41936845D01*
X384627202Y-41889226D01*
X385008154Y-41889226D01*
X385103392Y-41936845D01*
X385151011Y-41984464D01*
X385198630Y-42079702D01*
X385198630Y-42270178D01*
X385151011Y-42365416D01*
X385103392Y-42413035D01*
X385008154Y-42460654D01*
X384770059Y-42460654D01*
X384674821Y-42413035D01*
X384627202Y-42365416D01*
X384579583Y-42270178D01*
X384579583Y-42079702D01*
X384627202Y-41984464D01*
X384674821Y-41936845D01*
X384770059Y-41889226D01*
X231954880Y-85384464D02*
X230954880Y-85384464D01*
X230954880Y-85622559D01*
X231002500Y-85765416D01*
X231097738Y-85860654D01*
X231192976Y-85908273D01*
X231383452Y-85955892D01*
X231526309Y-85955892D01*
X231716785Y-85908273D01*
X231812023Y-85860654D01*
X231907261Y-85765416D01*
X231954880Y-85622559D01*
X231954880Y-85384464D01*
X231288214Y-86813035D02*
X231954880Y-86813035D01*
X230907261Y-86574940D02*
X231621547Y-86336845D01*
X231621547Y-86955892D01*
X230954880Y-87241607D02*
X230954880Y-87860654D01*
X231335833Y-87527321D01*
X231335833Y-87670178D01*
X231383452Y-87765416D01*
X231431071Y-87813035D01*
X231526309Y-87860654D01*
X231764404Y-87860654D01*
X231859642Y-87813035D01*
X231907261Y-87765416D01*
X231954880Y-87670178D01*
X231954880Y-87384464D01*
X231907261Y-87289226D01*
X231859642Y-87241607D01*
X203492380Y-104671964D02*
X202492380Y-104671964D01*
X202492380Y-104910059D01*
X202540000Y-105052916D01*
X202635238Y-105148154D01*
X202730476Y-105195773D01*
X202920952Y-105243392D01*
X203063809Y-105243392D01*
X203254285Y-105195773D01*
X203349523Y-105148154D01*
X203444761Y-105052916D01*
X203492380Y-104910059D01*
X203492380Y-104671964D01*
X202492380Y-106148154D02*
X202492380Y-105671964D01*
X202968571Y-105624345D01*
X202920952Y-105671964D01*
X202873333Y-105767202D01*
X202873333Y-106005297D01*
X202920952Y-106100535D01*
X202968571Y-106148154D01*
X203063809Y-106195773D01*
X203301904Y-106195773D01*
X203397142Y-106148154D01*
X203444761Y-106100535D01*
X203492380Y-106005297D01*
X203492380Y-105767202D01*
X203444761Y-105671964D01*
X203397142Y-105624345D01*
X202920952Y-106767202D02*
X202873333Y-106671964D01*
X202825714Y-106624345D01*
X202730476Y-106576726D01*
X202682857Y-106576726D01*
X202587619Y-106624345D01*
X202540000Y-106671964D01*
X202492380Y-106767202D01*
X202492380Y-106957678D01*
X202540000Y-107052916D01*
X202587619Y-107100535D01*
X202682857Y-107148154D01*
X202730476Y-107148154D01*
X202825714Y-107100535D01*
X202873333Y-107052916D01*
X202920952Y-106957678D01*
X202920952Y-106767202D01*
X202968571Y-106671964D01*
X203016190Y-106624345D01*
X203111428Y-106576726D01*
X203301904Y-106576726D01*
X203397142Y-106624345D01*
X203444761Y-106671964D01*
X203492380Y-106767202D01*
X203492380Y-106957678D01*
X203444761Y-107052916D01*
X203397142Y-107100535D01*
X203301904Y-107148154D01*
X203111428Y-107148154D01*
X203016190Y-107100535D01*
X202968571Y-107052916D01*
X202920952Y-106957678D01*
X251054880Y-123721964D02*
X250054880Y-123721964D01*
X250054880Y-123960059D01*
X250102500Y-124102916D01*
X250197738Y-124198154D01*
X250292976Y-124245773D01*
X250483452Y-124293392D01*
X250626309Y-124293392D01*
X250816785Y-124245773D01*
X250912023Y-124198154D01*
X251007261Y-124102916D01*
X251054880Y-123960059D01*
X251054880Y-123721964D01*
X250054880Y-124626726D02*
X250054880Y-125293392D01*
X251054880Y-124864821D01*
X250054880Y-125579107D02*
X250054880Y-126198154D01*
X250435833Y-125864821D01*
X250435833Y-126007678D01*
X250483452Y-126102916D01*
X250531071Y-126150535D01*
X250626309Y-126198154D01*
X250864404Y-126198154D01*
X250959642Y-126150535D01*
X251007261Y-126102916D01*
X251054880Y-126007678D01*
X251054880Y-125721964D01*
X251007261Y-125626726D01*
X250959642Y-125579107D01*
X328956666Y-104087142D02*
X329004285Y-104134761D01*
X329147142Y-104182380D01*
X329242380Y-104182380D01*
X329385238Y-104134761D01*
X329480476Y-104039523D01*
X329528095Y-103944285D01*
X329575714Y-103753809D01*
X329575714Y-103610952D01*
X329528095Y-103420476D01*
X329480476Y-103325238D01*
X329385238Y-103230000D01*
X329242380Y-103182380D01*
X329147142Y-103182380D01*
X329004285Y-103230000D01*
X328956666Y-103277619D01*
X328004285Y-104182380D02*
X328575714Y-104182380D01*
X328290000Y-104182380D02*
X328290000Y-103182380D01*
X328385238Y-103325238D01*
X328480476Y-103420476D01*
X328575714Y-103468095D01*
X108242380Y-104671964D02*
X107242380Y-104671964D01*
X107242380Y-104910059D01*
X107290000Y-105052916D01*
X107385238Y-105148154D01*
X107480476Y-105195773D01*
X107670952Y-105243392D01*
X107813809Y-105243392D01*
X108004285Y-105195773D01*
X108099523Y-105148154D01*
X108194761Y-105052916D01*
X108242380Y-104910059D01*
X108242380Y-104671964D01*
X107242380Y-106148154D02*
X107242380Y-105671964D01*
X107718571Y-105624345D01*
X107670952Y-105671964D01*
X107623333Y-105767202D01*
X107623333Y-106005297D01*
X107670952Y-106100535D01*
X107718571Y-106148154D01*
X107813809Y-106195773D01*
X108051904Y-106195773D01*
X108147142Y-106148154D01*
X108194761Y-106100535D01*
X108242380Y-106005297D01*
X108242380Y-105767202D01*
X108194761Y-105671964D01*
X108147142Y-105624345D01*
X107242380Y-106529107D02*
X107242380Y-107148154D01*
X107623333Y-106814821D01*
X107623333Y-106957678D01*
X107670952Y-107052916D01*
X107718571Y-107100535D01*
X107813809Y-107148154D01*
X108051904Y-107148154D01*
X108147142Y-107100535D01*
X108194761Y-107052916D01*
X108242380Y-106957678D01*
X108242380Y-106671964D01*
X108194761Y-106576726D01*
X108147142Y-106529107D01*
X366148630Y-123721964D02*
X365148630Y-123721964D01*
X365148630Y-123960059D01*
X365196250Y-124102916D01*
X365291488Y-124198154D01*
X365386726Y-124245773D01*
X365577202Y-124293392D01*
X365720059Y-124293392D01*
X365910535Y-124245773D01*
X366005773Y-124198154D01*
X366101011Y-124102916D01*
X366148630Y-123960059D01*
X366148630Y-123721964D01*
X365148630Y-124626726D02*
X365148630Y-125293392D01*
X366148630Y-124864821D01*
X365148630Y-126102916D02*
X365148630Y-125912440D01*
X365196250Y-125817202D01*
X365243869Y-125769583D01*
X365386726Y-125674345D01*
X365577202Y-125626726D01*
X365958154Y-125626726D01*
X366053392Y-125674345D01*
X366101011Y-125721964D01*
X366148630Y-125817202D01*
X366148630Y-126007678D01*
X366101011Y-126102916D01*
X366053392Y-126150535D01*
X365958154Y-126198154D01*
X365720059Y-126198154D01*
X365624821Y-126150535D01*
X365577202Y-126102916D01*
X365529583Y-126007678D01*
X365529583Y-125817202D01*
X365577202Y-125721964D01*
X365624821Y-125674345D01*
X365720059Y-125626726D01*
X81986130Y-142771964D02*
X80986130Y-142771964D01*
X80986130Y-143010059D01*
X81033750Y-143152916D01*
X81128988Y-143248154D01*
X81224226Y-143295773D01*
X81414702Y-143343392D01*
X81557559Y-143343392D01*
X81748035Y-143295773D01*
X81843273Y-143248154D01*
X81938511Y-143152916D01*
X81986130Y-143010059D01*
X81986130Y-142771964D01*
X80986130Y-143676726D02*
X80986130Y-144343392D01*
X81986130Y-143914821D01*
X81414702Y-144867202D02*
X81367083Y-144771964D01*
X81319464Y-144724345D01*
X81224226Y-144676726D01*
X81176607Y-144676726D01*
X81081369Y-144724345D01*
X81033750Y-144771964D01*
X80986130Y-144867202D01*
X80986130Y-145057678D01*
X81033750Y-145152916D01*
X81081369Y-145200535D01*
X81176607Y-145248154D01*
X81224226Y-145248154D01*
X81319464Y-145200535D01*
X81367083Y-145152916D01*
X81414702Y-145057678D01*
X81414702Y-144867202D01*
X81462321Y-144771964D01*
X81509940Y-144724345D01*
X81605178Y-144676726D01*
X81795654Y-144676726D01*
X81890892Y-144724345D01*
X81938511Y-144771964D01*
X81986130Y-144867202D01*
X81986130Y-145057678D01*
X81938511Y-145152916D01*
X81890892Y-145200535D01*
X81795654Y-145248154D01*
X81605178Y-145248154D01*
X81509940Y-145200535D01*
X81462321Y-145152916D01*
X81414702Y-145057678D01*
X222542380Y-104671964D02*
X221542380Y-104671964D01*
X221542380Y-104910059D01*
X221590000Y-105052916D01*
X221685238Y-105148154D01*
X221780476Y-105195773D01*
X221970952Y-105243392D01*
X222113809Y-105243392D01*
X222304285Y-105195773D01*
X222399523Y-105148154D01*
X222494761Y-105052916D01*
X222542380Y-104910059D01*
X222542380Y-104671964D01*
X221542380Y-106148154D02*
X221542380Y-105671964D01*
X222018571Y-105624345D01*
X221970952Y-105671964D01*
X221923333Y-105767202D01*
X221923333Y-106005297D01*
X221970952Y-106100535D01*
X222018571Y-106148154D01*
X222113809Y-106195773D01*
X222351904Y-106195773D01*
X222447142Y-106148154D01*
X222494761Y-106100535D01*
X222542380Y-106005297D01*
X222542380Y-105767202D01*
X222494761Y-105671964D01*
X222447142Y-105624345D01*
X222542380Y-106671964D02*
X222542380Y-106862440D01*
X222494761Y-106957678D01*
X222447142Y-107005297D01*
X222304285Y-107100535D01*
X222113809Y-107148154D01*
X221732857Y-107148154D01*
X221637619Y-107100535D01*
X221590000Y-107052916D01*
X221542380Y-106957678D01*
X221542380Y-106767202D01*
X221590000Y-106671964D01*
X221637619Y-106624345D01*
X221732857Y-106576726D01*
X221970952Y-106576726D01*
X222066190Y-106624345D01*
X222113809Y-106671964D01*
X222161428Y-106767202D01*
X222161428Y-106957678D01*
X222113809Y-107052916D01*
X222066190Y-107100535D01*
X221970952Y-107148154D01*
X305823630Y-123721964D02*
X304823630Y-123721964D01*
X304823630Y-123960059D01*
X304871250Y-124102916D01*
X304966488Y-124198154D01*
X305061726Y-124245773D01*
X305252202Y-124293392D01*
X305395059Y-124293392D01*
X305585535Y-124245773D01*
X305680773Y-124198154D01*
X305776011Y-124102916D01*
X305823630Y-123960059D01*
X305823630Y-123721964D01*
X304823630Y-124626726D02*
X304823630Y-125293392D01*
X305823630Y-124864821D01*
X304823630Y-126150535D02*
X304823630Y-125674345D01*
X305299821Y-125626726D01*
X305252202Y-125674345D01*
X305204583Y-125769583D01*
X305204583Y-126007678D01*
X305252202Y-126102916D01*
X305299821Y-126150535D01*
X305395059Y-126198154D01*
X305633154Y-126198154D01*
X305728392Y-126150535D01*
X305776011Y-126102916D01*
X305823630Y-126007678D01*
X305823630Y-125769583D01*
X305776011Y-125674345D01*
X305728392Y-125626726D01*
X344123333Y-25608571D02*
X344456666Y-25608571D01*
X344456666Y-26132380D02*
X344456666Y-25132380D01*
X343980476Y-25132380D01*
X343266190Y-25608571D02*
X343123333Y-25656190D01*
X343075714Y-25703809D01*
X343028095Y-25799047D01*
X343028095Y-25941904D01*
X343075714Y-26037142D01*
X343123333Y-26084761D01*
X343218571Y-26132380D01*
X343599523Y-26132380D01*
X343599523Y-25132380D01*
X343266190Y-25132380D01*
X343170952Y-25180000D01*
X343123333Y-25227619D01*
X343075714Y-25322857D01*
X343075714Y-25418095D01*
X343123333Y-25513333D01*
X343170952Y-25560952D01*
X343266190Y-25608571D01*
X343599523Y-25608571D01*
X342075714Y-26132380D02*
X342647142Y-26132380D01*
X342361428Y-26132380D02*
X342361428Y-25132380D01*
X342456666Y-25275238D01*
X342551904Y-25370476D01*
X342647142Y-25418095D01*
X57323630Y-85421964D02*
X56323630Y-85421964D01*
X56323630Y-85660059D01*
X56371250Y-85802916D01*
X56466488Y-85898154D01*
X56561726Y-85945773D01*
X56752202Y-85993392D01*
X56895059Y-85993392D01*
X57085535Y-85945773D01*
X57180773Y-85898154D01*
X57276011Y-85802916D01*
X57323630Y-85660059D01*
X57323630Y-85421964D01*
X56323630Y-86326726D02*
X56323630Y-86945773D01*
X56704583Y-86612440D01*
X56704583Y-86755297D01*
X56752202Y-86850535D01*
X56799821Y-86898154D01*
X56895059Y-86945773D01*
X57133154Y-86945773D01*
X57228392Y-86898154D01*
X57276011Y-86850535D01*
X57323630Y-86755297D01*
X57323630Y-86469583D01*
X57276011Y-86374345D01*
X57228392Y-86326726D01*
X56656964Y-87802916D02*
X57323630Y-87802916D01*
X56276011Y-87564821D02*
X56990297Y-87326726D01*
X56990297Y-87945773D01*
X112942380Y-66571964D02*
X111942380Y-66571964D01*
X111942380Y-66810059D01*
X111990000Y-66952916D01*
X112085238Y-67048154D01*
X112180476Y-67095773D01*
X112370952Y-67143392D01*
X112513809Y-67143392D01*
X112704285Y-67095773D01*
X112799523Y-67048154D01*
X112894761Y-66952916D01*
X112942380Y-66810059D01*
X112942380Y-66571964D01*
X112037619Y-67524345D02*
X111990000Y-67571964D01*
X111942380Y-67667202D01*
X111942380Y-67905297D01*
X111990000Y-68000535D01*
X112037619Y-68048154D01*
X112132857Y-68095773D01*
X112228095Y-68095773D01*
X112370952Y-68048154D01*
X112942380Y-67476726D01*
X112942380Y-68095773D01*
X111942380Y-68714821D02*
X111942380Y-68810059D01*
X111990000Y-68905297D01*
X112037619Y-68952916D01*
X112132857Y-69000535D01*
X112323333Y-69048154D01*
X112561428Y-69048154D01*
X112751904Y-69000535D01*
X112847142Y-68952916D01*
X112894761Y-68905297D01*
X112942380Y-68810059D01*
X112942380Y-68714821D01*
X112894761Y-68619583D01*
X112847142Y-68571964D01*
X112751904Y-68524345D01*
X112561428Y-68476726D01*
X112323333Y-68476726D01*
X112132857Y-68524345D01*
X112037619Y-68571964D01*
X111990000Y-68619583D01*
X111942380Y-68714821D01*
X366029880Y-84528214D02*
X365029880Y-84528214D01*
X365029880Y-84766309D01*
X365077500Y-84909166D01*
X365172738Y-85004404D01*
X365267976Y-85052023D01*
X365458452Y-85099642D01*
X365601309Y-85099642D01*
X365791785Y-85052023D01*
X365887023Y-85004404D01*
X365982261Y-84909166D01*
X366029880Y-84766309D01*
X366029880Y-84528214D01*
X365363214Y-85956785D02*
X366029880Y-85956785D01*
X364982261Y-85718690D02*
X365696547Y-85480595D01*
X365696547Y-86099642D01*
X366029880Y-86528214D02*
X366029880Y-86718690D01*
X365982261Y-86813928D01*
X365934642Y-86861547D01*
X365791785Y-86956785D01*
X365601309Y-87004404D01*
X365220357Y-87004404D01*
X365125119Y-86956785D01*
X365077500Y-86909166D01*
X365029880Y-86813928D01*
X365029880Y-86623452D01*
X365077500Y-86528214D01*
X365125119Y-86480595D01*
X365220357Y-86432976D01*
X365458452Y-86432976D01*
X365553690Y-86480595D01*
X365601309Y-86528214D01*
X365648928Y-86623452D01*
X365648928Y-86813928D01*
X365601309Y-86909166D01*
X365553690Y-86956785D01*
X365458452Y-87004404D01*
X189142380Y-66571964D02*
X188142380Y-66571964D01*
X188142380Y-66810059D01*
X188190000Y-66952916D01*
X188285238Y-67048154D01*
X188380476Y-67095773D01*
X188570952Y-67143392D01*
X188713809Y-67143392D01*
X188904285Y-67095773D01*
X188999523Y-67048154D01*
X189094761Y-66952916D01*
X189142380Y-66810059D01*
X189142380Y-66571964D01*
X188237619Y-67524345D02*
X188190000Y-67571964D01*
X188142380Y-67667202D01*
X188142380Y-67905297D01*
X188190000Y-68000535D01*
X188237619Y-68048154D01*
X188332857Y-68095773D01*
X188428095Y-68095773D01*
X188570952Y-68048154D01*
X189142380Y-67476726D01*
X189142380Y-68095773D01*
X188475714Y-68952916D02*
X189142380Y-68952916D01*
X188094761Y-68714821D02*
X188809047Y-68476726D01*
X188809047Y-69095773D01*
X353228690Y-107791309D02*
X353704880Y-107791309D01*
X352704880Y-107457976D02*
X353228690Y-107791309D01*
X352704880Y-108124642D01*
X353704880Y-108981785D02*
X353704880Y-108410357D01*
X353704880Y-108696071D02*
X352704880Y-108696071D01*
X352847738Y-108600833D01*
X352942976Y-108505595D01*
X352990595Y-108410357D01*
X136754880Y-123721964D02*
X135754880Y-123721964D01*
X135754880Y-123960059D01*
X135802500Y-124102916D01*
X135897738Y-124198154D01*
X135992976Y-124245773D01*
X136183452Y-124293392D01*
X136326309Y-124293392D01*
X136516785Y-124245773D01*
X136612023Y-124198154D01*
X136707261Y-124102916D01*
X136754880Y-123960059D01*
X136754880Y-123721964D01*
X135754880Y-125150535D02*
X135754880Y-124960059D01*
X135802500Y-124864821D01*
X135850119Y-124817202D01*
X135992976Y-124721964D01*
X136183452Y-124674345D01*
X136564404Y-124674345D01*
X136659642Y-124721964D01*
X136707261Y-124769583D01*
X136754880Y-124864821D01*
X136754880Y-125055297D01*
X136707261Y-125150535D01*
X136659642Y-125198154D01*
X136564404Y-125245773D01*
X136326309Y-125245773D01*
X136231071Y-125198154D01*
X136183452Y-125150535D01*
X136135833Y-125055297D01*
X136135833Y-124864821D01*
X136183452Y-124769583D01*
X136231071Y-124721964D01*
X136326309Y-124674345D01*
X135754880Y-125579107D02*
X135754880Y-126245773D01*
X136754880Y-125817202D01*
X355131666Y-108532142D02*
X355179285Y-108579761D01*
X355322142Y-108627380D01*
X355417380Y-108627380D01*
X355560238Y-108579761D01*
X355655476Y-108484523D01*
X355703095Y-108389285D01*
X355750714Y-108198809D01*
X355750714Y-108055952D01*
X355703095Y-107865476D01*
X355655476Y-107770238D01*
X355560238Y-107675000D01*
X355417380Y-107627380D01*
X355322142Y-107627380D01*
X355179285Y-107675000D01*
X355131666Y-107722619D01*
X354274523Y-107627380D02*
X354465000Y-107627380D01*
X354560238Y-107675000D01*
X354607857Y-107722619D01*
X354703095Y-107865476D01*
X354750714Y-108055952D01*
X354750714Y-108436904D01*
X354703095Y-108532142D01*
X354655476Y-108579761D01*
X354560238Y-108627380D01*
X354369761Y-108627380D01*
X354274523Y-108579761D01*
X354226904Y-108532142D01*
X354179285Y-108436904D01*
X354179285Y-108198809D01*
X354226904Y-108103571D01*
X354274523Y-108055952D01*
X354369761Y-108008333D01*
X354560238Y-108008333D01*
X354655476Y-108055952D01*
X354703095Y-108103571D01*
X354750714Y-108198809D01*
X260642380Y-104671964D02*
X259642380Y-104671964D01*
X259642380Y-104910059D01*
X259690000Y-105052916D01*
X259785238Y-105148154D01*
X259880476Y-105195773D01*
X260070952Y-105243392D01*
X260213809Y-105243392D01*
X260404285Y-105195773D01*
X260499523Y-105148154D01*
X260594761Y-105052916D01*
X260642380Y-104910059D01*
X260642380Y-104671964D01*
X259642380Y-106100535D02*
X259642380Y-105910059D01*
X259690000Y-105814821D01*
X259737619Y-105767202D01*
X259880476Y-105671964D01*
X260070952Y-105624345D01*
X260451904Y-105624345D01*
X260547142Y-105671964D01*
X260594761Y-105719583D01*
X260642380Y-105814821D01*
X260642380Y-106005297D01*
X260594761Y-106100535D01*
X260547142Y-106148154D01*
X260451904Y-106195773D01*
X260213809Y-106195773D01*
X260118571Y-106148154D01*
X260070952Y-106100535D01*
X260023333Y-106005297D01*
X260023333Y-105814821D01*
X260070952Y-105719583D01*
X260118571Y-105671964D01*
X260213809Y-105624345D01*
X260642380Y-107148154D02*
X260642380Y-106576726D01*
X260642380Y-106862440D02*
X259642380Y-106862440D01*
X259785238Y-106767202D01*
X259880476Y-106671964D01*
X259928095Y-106576726D01*
X347198630Y-85821964D02*
X346198630Y-85821964D01*
X346198630Y-86060059D01*
X346246250Y-86202916D01*
X346341488Y-86298154D01*
X346436726Y-86345773D01*
X346627202Y-86393392D01*
X346770059Y-86393392D01*
X346960535Y-86345773D01*
X347055773Y-86298154D01*
X347151011Y-86202916D01*
X347198630Y-86060059D01*
X347198630Y-85821964D01*
X346531964Y-87250535D02*
X347198630Y-87250535D01*
X346151011Y-87012440D02*
X346865297Y-86774345D01*
X346865297Y-87393392D01*
X346627202Y-87917202D02*
X346579583Y-87821964D01*
X346531964Y-87774345D01*
X346436726Y-87726726D01*
X346389107Y-87726726D01*
X346293869Y-87774345D01*
X346246250Y-87821964D01*
X346198630Y-87917202D01*
X346198630Y-88107678D01*
X346246250Y-88202916D01*
X346293869Y-88250535D01*
X346389107Y-88298154D01*
X346436726Y-88298154D01*
X346531964Y-88250535D01*
X346579583Y-88202916D01*
X346627202Y-88107678D01*
X346627202Y-87917202D01*
X346674821Y-87821964D01*
X346722440Y-87774345D01*
X346817678Y-87726726D01*
X347008154Y-87726726D01*
X347103392Y-87774345D01*
X347151011Y-87821964D01*
X347198630Y-87917202D01*
X347198630Y-88107678D01*
X347151011Y-88202916D01*
X347103392Y-88250535D01*
X347008154Y-88298154D01*
X346817678Y-88298154D01*
X346722440Y-88250535D01*
X346674821Y-88202916D01*
X346627202Y-88107678D01*
X241592380Y-104671964D02*
X240592380Y-104671964D01*
X240592380Y-104910059D01*
X240640000Y-105052916D01*
X240735238Y-105148154D01*
X240830476Y-105195773D01*
X241020952Y-105243392D01*
X241163809Y-105243392D01*
X241354285Y-105195773D01*
X241449523Y-105148154D01*
X241544761Y-105052916D01*
X241592380Y-104910059D01*
X241592380Y-104671964D01*
X240592380Y-106100535D02*
X240592380Y-105910059D01*
X240640000Y-105814821D01*
X240687619Y-105767202D01*
X240830476Y-105671964D01*
X241020952Y-105624345D01*
X241401904Y-105624345D01*
X241497142Y-105671964D01*
X241544761Y-105719583D01*
X241592380Y-105814821D01*
X241592380Y-106005297D01*
X241544761Y-106100535D01*
X241497142Y-106148154D01*
X241401904Y-106195773D01*
X241163809Y-106195773D01*
X241068571Y-106148154D01*
X241020952Y-106100535D01*
X240973333Y-106005297D01*
X240973333Y-105814821D01*
X241020952Y-105719583D01*
X241068571Y-105671964D01*
X241163809Y-105624345D01*
X240592380Y-106814821D02*
X240592380Y-106910059D01*
X240640000Y-107005297D01*
X240687619Y-107052916D01*
X240782857Y-107100535D01*
X240973333Y-107148154D01*
X241211428Y-107148154D01*
X241401904Y-107100535D01*
X241497142Y-107052916D01*
X241544761Y-107005297D01*
X241592380Y-106910059D01*
X241592380Y-106814821D01*
X241544761Y-106719583D01*
X241497142Y-106671964D01*
X241401904Y-106624345D01*
X241211428Y-106576726D01*
X240973333Y-106576726D01*
X240782857Y-106624345D01*
X240687619Y-106671964D01*
X240640000Y-106719583D01*
X240592380Y-106814821D01*
X174854880Y-123721964D02*
X173854880Y-123721964D01*
X173854880Y-123960059D01*
X173902500Y-124102916D01*
X173997738Y-124198154D01*
X174092976Y-124245773D01*
X174283452Y-124293392D01*
X174426309Y-124293392D01*
X174616785Y-124245773D01*
X174712023Y-124198154D01*
X174807261Y-124102916D01*
X174854880Y-123960059D01*
X174854880Y-123721964D01*
X173854880Y-125150535D02*
X173854880Y-124960059D01*
X173902500Y-124864821D01*
X173950119Y-124817202D01*
X174092976Y-124721964D01*
X174283452Y-124674345D01*
X174664404Y-124674345D01*
X174759642Y-124721964D01*
X174807261Y-124769583D01*
X174854880Y-124864821D01*
X174854880Y-125055297D01*
X174807261Y-125150535D01*
X174759642Y-125198154D01*
X174664404Y-125245773D01*
X174426309Y-125245773D01*
X174331071Y-125198154D01*
X174283452Y-125150535D01*
X174235833Y-125055297D01*
X174235833Y-124864821D01*
X174283452Y-124769583D01*
X174331071Y-124721964D01*
X174426309Y-124674345D01*
X174854880Y-125721964D02*
X174854880Y-125912440D01*
X174807261Y-126007678D01*
X174759642Y-126055297D01*
X174616785Y-126150535D01*
X174426309Y-126198154D01*
X174045357Y-126198154D01*
X173950119Y-126150535D01*
X173902500Y-126102916D01*
X173854880Y-126007678D01*
X173854880Y-125817202D01*
X173902500Y-125721964D01*
X173950119Y-125674345D01*
X174045357Y-125626726D01*
X174283452Y-125626726D01*
X174378690Y-125674345D01*
X174426309Y-125721964D01*
X174473928Y-125817202D01*
X174473928Y-126007678D01*
X174426309Y-126102916D01*
X174378690Y-126150535D01*
X174283452Y-126198154D01*
X170092380Y-66571964D02*
X169092380Y-66571964D01*
X169092380Y-66810059D01*
X169140000Y-66952916D01*
X169235238Y-67048154D01*
X169330476Y-67095773D01*
X169520952Y-67143392D01*
X169663809Y-67143392D01*
X169854285Y-67095773D01*
X169949523Y-67048154D01*
X170044761Y-66952916D01*
X170092380Y-66810059D01*
X170092380Y-66571964D01*
X169187619Y-67524345D02*
X169140000Y-67571964D01*
X169092380Y-67667202D01*
X169092380Y-67905297D01*
X169140000Y-68000535D01*
X169187619Y-68048154D01*
X169282857Y-68095773D01*
X169378095Y-68095773D01*
X169520952Y-68048154D01*
X170092380Y-67476726D01*
X170092380Y-68095773D01*
X169092380Y-68429107D02*
X169092380Y-69048154D01*
X169473333Y-68714821D01*
X169473333Y-68857678D01*
X169520952Y-68952916D01*
X169568571Y-69000535D01*
X169663809Y-69048154D01*
X169901904Y-69048154D01*
X169997142Y-69000535D01*
X170044761Y-68952916D01*
X170092380Y-68857678D01*
X170092380Y-68571964D01*
X170044761Y-68476726D01*
X169997142Y-68429107D01*
X151042380Y-40060654D02*
X150042380Y-40060654D01*
X150042380Y-40298750D01*
X150090000Y-40441607D01*
X150185238Y-40536845D01*
X150280476Y-40584464D01*
X150470952Y-40632083D01*
X150613809Y-40632083D01*
X150804285Y-40584464D01*
X150899523Y-40536845D01*
X150994761Y-40441607D01*
X151042380Y-40298750D01*
X151042380Y-40060654D01*
X150042380Y-41536845D02*
X150042380Y-41060654D01*
X150518571Y-41013035D01*
X150470952Y-41060654D01*
X150423333Y-41155892D01*
X150423333Y-41393988D01*
X150470952Y-41489226D01*
X150518571Y-41536845D01*
X150613809Y-41584464D01*
X150851904Y-41584464D01*
X150947142Y-41536845D01*
X150994761Y-41489226D01*
X151042380Y-41393988D01*
X151042380Y-41155892D01*
X150994761Y-41060654D01*
X150947142Y-41013035D01*
X329595238Y-107505595D02*
X330404762Y-107505595D01*
X330500000Y-107553214D01*
X330547619Y-107600833D01*
X330595238Y-107696071D01*
X330595238Y-107886547D01*
X330547619Y-107981785D01*
X330500000Y-108029404D01*
X330404762Y-108077023D01*
X329595238Y-108077023D01*
X330595238Y-109077023D02*
X330595238Y-108505595D01*
X330595238Y-108791309D02*
X329595238Y-108791309D01*
X329738096Y-108696071D01*
X329833334Y-108600833D01*
X329880953Y-108505595D01*
X146342380Y-104671964D02*
X145342380Y-104671964D01*
X145342380Y-104910059D01*
X145390000Y-105052916D01*
X145485238Y-105148154D01*
X145580476Y-105195773D01*
X145770952Y-105243392D01*
X145913809Y-105243392D01*
X146104285Y-105195773D01*
X146199523Y-105148154D01*
X146294761Y-105052916D01*
X146342380Y-104910059D01*
X146342380Y-104671964D01*
X145342380Y-106148154D02*
X145342380Y-105671964D01*
X145818571Y-105624345D01*
X145770952Y-105671964D01*
X145723333Y-105767202D01*
X145723333Y-106005297D01*
X145770952Y-106100535D01*
X145818571Y-106148154D01*
X145913809Y-106195773D01*
X146151904Y-106195773D01*
X146247142Y-106148154D01*
X146294761Y-106100535D01*
X146342380Y-106005297D01*
X146342380Y-105767202D01*
X146294761Y-105671964D01*
X146247142Y-105624345D01*
X145342380Y-107100535D02*
X145342380Y-106624345D01*
X145818571Y-106576726D01*
X145770952Y-106624345D01*
X145723333Y-106719583D01*
X145723333Y-106957678D01*
X145770952Y-107052916D01*
X145818571Y-107100535D01*
X145913809Y-107148154D01*
X146151904Y-107148154D01*
X146247142Y-107100535D01*
X146294761Y-107052916D01*
X146342380Y-106957678D01*
X146342380Y-106719583D01*
X146294761Y-106624345D01*
X146247142Y-106576726D01*
X347098630Y-142771964D02*
X346098630Y-142771964D01*
X346098630Y-143010059D01*
X346146250Y-143152916D01*
X346241488Y-143248154D01*
X346336726Y-143295773D01*
X346527202Y-143343392D01*
X346670059Y-143343392D01*
X346860535Y-143295773D01*
X346955773Y-143248154D01*
X347051011Y-143152916D01*
X347098630Y-143010059D01*
X347098630Y-142771964D01*
X346527202Y-143914821D02*
X346479583Y-143819583D01*
X346431964Y-143771964D01*
X346336726Y-143724345D01*
X346289107Y-143724345D01*
X346193869Y-143771964D01*
X346146250Y-143819583D01*
X346098630Y-143914821D01*
X346098630Y-144105297D01*
X346146250Y-144200535D01*
X346193869Y-144248154D01*
X346289107Y-144295773D01*
X346336726Y-144295773D01*
X346431964Y-144248154D01*
X346479583Y-144200535D01*
X346527202Y-144105297D01*
X346527202Y-143914821D01*
X346574821Y-143819583D01*
X346622440Y-143771964D01*
X346717678Y-143724345D01*
X346908154Y-143724345D01*
X347003392Y-143771964D01*
X347051011Y-143819583D01*
X347098630Y-143914821D01*
X347098630Y-144105297D01*
X347051011Y-144200535D01*
X347003392Y-144248154D01*
X346908154Y-144295773D01*
X346717678Y-144295773D01*
X346622440Y-144248154D01*
X346574821Y-144200535D01*
X346527202Y-144105297D01*
X346098630Y-145200535D02*
X346098630Y-144724345D01*
X346574821Y-144676726D01*
X346527202Y-144724345D01*
X346479583Y-144819583D01*
X346479583Y-145057678D01*
X346527202Y-145152916D01*
X346574821Y-145200535D01*
X346670059Y-145248154D01*
X346908154Y-145248154D01*
X347003392Y-145200535D01*
X347051011Y-145152916D01*
X347098630Y-145057678D01*
X347098630Y-144819583D01*
X347051011Y-144724345D01*
X347003392Y-144676726D01*
X98604880Y-85384464D02*
X97604880Y-85384464D01*
X97604880Y-85622559D01*
X97652500Y-85765416D01*
X97747738Y-85860654D01*
X97842976Y-85908273D01*
X98033452Y-85955892D01*
X98176309Y-85955892D01*
X98366785Y-85908273D01*
X98462023Y-85860654D01*
X98557261Y-85765416D01*
X98604880Y-85622559D01*
X98604880Y-85384464D01*
X97604880Y-86289226D02*
X97604880Y-86908273D01*
X97985833Y-86574940D01*
X97985833Y-86717797D01*
X98033452Y-86813035D01*
X98081071Y-86860654D01*
X98176309Y-86908273D01*
X98414404Y-86908273D01*
X98509642Y-86860654D01*
X98557261Y-86813035D01*
X98604880Y-86717797D01*
X98604880Y-86432083D01*
X98557261Y-86336845D01*
X98509642Y-86289226D01*
X97604880Y-87765416D02*
X97604880Y-87574940D01*
X97652500Y-87479702D01*
X97700119Y-87432083D01*
X97842976Y-87336845D01*
X98033452Y-87289226D01*
X98414404Y-87289226D01*
X98509642Y-87336845D01*
X98557261Y-87384464D01*
X98604880Y-87479702D01*
X98604880Y-87670178D01*
X98557261Y-87765416D01*
X98509642Y-87813035D01*
X98414404Y-87860654D01*
X98176309Y-87860654D01*
X98081071Y-87813035D01*
X98033452Y-87765416D01*
X97985833Y-87670178D01*
X97985833Y-87479702D01*
X98033452Y-87384464D01*
X98081071Y-87336845D01*
X98176309Y-87289226D01*
X330525416Y-30138630D02*
X330858750Y-29662440D01*
X331096845Y-30138630D02*
X331096845Y-29138630D01*
X330715892Y-29138630D01*
X330620654Y-29186250D01*
X330573035Y-29233869D01*
X330525416Y-29329107D01*
X330525416Y-29471964D01*
X330573035Y-29567202D01*
X330620654Y-29614821D01*
X330715892Y-29662440D01*
X331096845Y-29662440D01*
X329620654Y-29138630D02*
X330096845Y-29138630D01*
X330144464Y-29614821D01*
X330096845Y-29567202D01*
X330001607Y-29519583D01*
X329763511Y-29519583D01*
X329668273Y-29567202D01*
X329620654Y-29614821D01*
X329573035Y-29710059D01*
X329573035Y-29948154D01*
X329620654Y-30043392D01*
X329668273Y-30091011D01*
X329763511Y-30138630D01*
X330001607Y-30138630D01*
X330096845Y-30091011D01*
X330144464Y-30043392D01*
X272486130Y-142771964D02*
X271486130Y-142771964D01*
X271486130Y-143010059D01*
X271533750Y-143152916D01*
X271628988Y-143248154D01*
X271724226Y-143295773D01*
X271914702Y-143343392D01*
X272057559Y-143343392D01*
X272248035Y-143295773D01*
X272343273Y-143248154D01*
X272438511Y-143152916D01*
X272486130Y-143010059D01*
X272486130Y-142771964D01*
X271914702Y-143914821D02*
X271867083Y-143819583D01*
X271819464Y-143771964D01*
X271724226Y-143724345D01*
X271676607Y-143724345D01*
X271581369Y-143771964D01*
X271533750Y-143819583D01*
X271486130Y-143914821D01*
X271486130Y-144105297D01*
X271533750Y-144200535D01*
X271581369Y-144248154D01*
X271676607Y-144295773D01*
X271724226Y-144295773D01*
X271819464Y-144248154D01*
X271867083Y-144200535D01*
X271914702Y-144105297D01*
X271914702Y-143914821D01*
X271962321Y-143819583D01*
X272009940Y-143771964D01*
X272105178Y-143724345D01*
X272295654Y-143724345D01*
X272390892Y-143771964D01*
X272438511Y-143819583D01*
X272486130Y-143914821D01*
X272486130Y-144105297D01*
X272438511Y-144200535D01*
X272390892Y-144248154D01*
X272295654Y-144295773D01*
X272105178Y-144295773D01*
X272009940Y-144248154D01*
X271962321Y-144200535D01*
X271914702Y-144105297D01*
X271581369Y-144676726D02*
X271533750Y-144724345D01*
X271486130Y-144819583D01*
X271486130Y-145057678D01*
X271533750Y-145152916D01*
X271581369Y-145200535D01*
X271676607Y-145248154D01*
X271771845Y-145248154D01*
X271914702Y-145200535D01*
X272486130Y-144629107D01*
X272486130Y-145248154D01*
X347154880Y-40184464D02*
X346154880Y-40184464D01*
X346154880Y-40422559D01*
X346202500Y-40565416D01*
X346297738Y-40660654D01*
X346392976Y-40708273D01*
X346583452Y-40755892D01*
X346726309Y-40755892D01*
X346916785Y-40708273D01*
X347012023Y-40660654D01*
X347107261Y-40565416D01*
X347154880Y-40422559D01*
X347154880Y-40184464D01*
X347154880Y-41708273D02*
X347154880Y-41136845D01*
X347154880Y-41422559D02*
X346154880Y-41422559D01*
X346297738Y-41327321D01*
X346392976Y-41232083D01*
X346440595Y-41136845D01*
X346488214Y-42565416D02*
X347154880Y-42565416D01*
X346107261Y-42327321D02*
X346821547Y-42089226D01*
X346821547Y-42708273D01*
X131992380Y-66571964D02*
X130992380Y-66571964D01*
X130992380Y-66810059D01*
X131040000Y-66952916D01*
X131135238Y-67048154D01*
X131230476Y-67095773D01*
X131420952Y-67143392D01*
X131563809Y-67143392D01*
X131754285Y-67095773D01*
X131849523Y-67048154D01*
X131944761Y-66952916D01*
X131992380Y-66810059D01*
X131992380Y-66571964D01*
X131087619Y-67524345D02*
X131040000Y-67571964D01*
X130992380Y-67667202D01*
X130992380Y-67905297D01*
X131040000Y-68000535D01*
X131087619Y-68048154D01*
X131182857Y-68095773D01*
X131278095Y-68095773D01*
X131420952Y-68048154D01*
X131992380Y-67476726D01*
X131992380Y-68095773D01*
X131992380Y-69048154D02*
X131992380Y-68476726D01*
X131992380Y-68762440D02*
X130992380Y-68762440D01*
X131135238Y-68667202D01*
X131230476Y-68571964D01*
X131278095Y-68476726D01*
X328648571Y-34909166D02*
X328648571Y-34575833D01*
X329172380Y-34575833D02*
X328172380Y-34575833D01*
X328172380Y-35052023D01*
X329172380Y-35956785D02*
X329172380Y-35385357D01*
X329172380Y-35671071D02*
X328172380Y-35671071D01*
X328315238Y-35575833D01*
X328410476Y-35480595D01*
X328458095Y-35385357D01*
X350652142Y-102544583D02*
X350699761Y-102496964D01*
X350747380Y-102354107D01*
X350747380Y-102258869D01*
X350699761Y-102116011D01*
X350604523Y-102020773D01*
X350509285Y-101973154D01*
X350318809Y-101925535D01*
X350175952Y-101925535D01*
X349985476Y-101973154D01*
X349890238Y-102020773D01*
X349795000Y-102116011D01*
X349747380Y-102258869D01*
X349747380Y-102354107D01*
X349795000Y-102496964D01*
X349842619Y-102544583D01*
X349842619Y-102925535D02*
X349795000Y-102973154D01*
X349747380Y-103068392D01*
X349747380Y-103306488D01*
X349795000Y-103401726D01*
X349842619Y-103449345D01*
X349937857Y-103496964D01*
X350033095Y-103496964D01*
X350175952Y-103449345D01*
X350747380Y-102877916D01*
X350747380Y-103496964D01*
X55792380Y-66778214D02*
X54792380Y-66778214D01*
X54792380Y-67016309D01*
X54840000Y-67159166D01*
X54935238Y-67254404D01*
X55030476Y-67302023D01*
X55220952Y-67349642D01*
X55363809Y-67349642D01*
X55554285Y-67302023D01*
X55649523Y-67254404D01*
X55744761Y-67159166D01*
X55792380Y-67016309D01*
X55792380Y-66778214D01*
X55792380Y-68302023D02*
X55792380Y-67730595D01*
X55792380Y-68016309D02*
X54792380Y-68016309D01*
X54935238Y-67921071D01*
X55030476Y-67825833D01*
X55078095Y-67730595D01*
X54792380Y-68635357D02*
X54792380Y-69302023D01*
X55792380Y-68873452D01*
X265648630Y-39984464D02*
X264648630Y-39984464D01*
X264648630Y-40222559D01*
X264696250Y-40365416D01*
X264791488Y-40460654D01*
X264886726Y-40508273D01*
X265077202Y-40555892D01*
X265220059Y-40555892D01*
X265410535Y-40508273D01*
X265505773Y-40460654D01*
X265601011Y-40365416D01*
X265648630Y-40222559D01*
X265648630Y-39984464D01*
X265648630Y-41508273D02*
X265648630Y-40936845D01*
X265648630Y-41222559D02*
X264648630Y-41222559D01*
X264791488Y-41127321D01*
X264886726Y-41032083D01*
X264934345Y-40936845D01*
X264648630Y-42127321D02*
X264648630Y-42222559D01*
X264696250Y-42317797D01*
X264743869Y-42365416D01*
X264839107Y-42413035D01*
X265029583Y-42460654D01*
X265267678Y-42460654D01*
X265458154Y-42413035D01*
X265553392Y-42365416D01*
X265601011Y-42317797D01*
X265648630Y-42222559D01*
X265648630Y-42127321D01*
X265601011Y-42032083D01*
X265553392Y-41984464D01*
X265458154Y-41936845D01*
X265267678Y-41889226D01*
X265029583Y-41889226D01*
X264839107Y-41936845D01*
X264743869Y-41984464D01*
X264696250Y-42032083D01*
X264648630Y-42127321D01*
X335484285Y-35772380D02*
X335484285Y-34772380D01*
X335246190Y-34772380D01*
X335103333Y-34820000D01*
X335008095Y-34915238D01*
X334960476Y-35010476D01*
X334912857Y-35200952D01*
X334912857Y-35343809D01*
X334960476Y-35534285D01*
X335008095Y-35629523D01*
X335103333Y-35724761D01*
X335246190Y-35772380D01*
X335484285Y-35772380D01*
X334341428Y-35200952D02*
X334436666Y-35153333D01*
X334484285Y-35105714D01*
X334531904Y-35010476D01*
X334531904Y-34962857D01*
X334484285Y-34867619D01*
X334436666Y-34820000D01*
X334341428Y-34772380D01*
X334150952Y-34772380D01*
X334055714Y-34820000D01*
X334008095Y-34867619D01*
X333960476Y-34962857D01*
X333960476Y-35010476D01*
X334008095Y-35105714D01*
X334055714Y-35153333D01*
X334150952Y-35200952D01*
X334341428Y-35200952D01*
X334436666Y-35248571D01*
X334484285Y-35296190D01*
X334531904Y-35391428D01*
X334531904Y-35581904D01*
X334484285Y-35677142D01*
X334436666Y-35724761D01*
X334341428Y-35772380D01*
X334150952Y-35772380D01*
X334055714Y-35724761D01*
X334008095Y-35677142D01*
X333960476Y-35581904D01*
X333960476Y-35391428D01*
X334008095Y-35296190D01*
X334055714Y-35248571D01*
X334150952Y-35200952D01*
X333389047Y-35200952D02*
X333484285Y-35153333D01*
X333531904Y-35105714D01*
X333579523Y-35010476D01*
X333579523Y-34962857D01*
X333531904Y-34867619D01*
X333484285Y-34820000D01*
X333389047Y-34772380D01*
X333198571Y-34772380D01*
X333103333Y-34820000D01*
X333055714Y-34867619D01*
X333008095Y-34962857D01*
X333008095Y-35010476D01*
X333055714Y-35105714D01*
X333103333Y-35153333D01*
X333198571Y-35200952D01*
X333389047Y-35200952D01*
X333484285Y-35248571D01*
X333531904Y-35296190D01*
X333579523Y-35391428D01*
X333579523Y-35581904D01*
X333531904Y-35677142D01*
X333484285Y-35724761D01*
X333389047Y-35772380D01*
X333198571Y-35772380D01*
X333103333Y-35724761D01*
X333055714Y-35677142D01*
X333008095Y-35581904D01*
X333008095Y-35391428D01*
X333055714Y-35296190D01*
X333103333Y-35248571D01*
X333198571Y-35200952D01*
X117654880Y-85384464D02*
X116654880Y-85384464D01*
X116654880Y-85622559D01*
X116702500Y-85765416D01*
X116797738Y-85860654D01*
X116892976Y-85908273D01*
X117083452Y-85955892D01*
X117226309Y-85955892D01*
X117416785Y-85908273D01*
X117512023Y-85860654D01*
X117607261Y-85765416D01*
X117654880Y-85622559D01*
X117654880Y-85384464D01*
X116654880Y-86289226D02*
X116654880Y-86908273D01*
X117035833Y-86574940D01*
X117035833Y-86717797D01*
X117083452Y-86813035D01*
X117131071Y-86860654D01*
X117226309Y-86908273D01*
X117464404Y-86908273D01*
X117559642Y-86860654D01*
X117607261Y-86813035D01*
X117654880Y-86717797D01*
X117654880Y-86432083D01*
X117607261Y-86336845D01*
X117559642Y-86289226D01*
X116654880Y-87241607D02*
X116654880Y-87908273D01*
X117654880Y-87479702D01*
X216923630Y-40060654D02*
X215923630Y-40060654D01*
X215923630Y-40298750D01*
X215971250Y-40441607D01*
X216066488Y-40536845D01*
X216161726Y-40584464D01*
X216352202Y-40632083D01*
X216495059Y-40632083D01*
X216685535Y-40584464D01*
X216780773Y-40536845D01*
X216876011Y-40441607D01*
X216923630Y-40298750D01*
X216923630Y-40060654D01*
X216352202Y-41203511D02*
X216304583Y-41108273D01*
X216256964Y-41060654D01*
X216161726Y-41013035D01*
X216114107Y-41013035D01*
X216018869Y-41060654D01*
X215971250Y-41108273D01*
X215923630Y-41203511D01*
X215923630Y-41393988D01*
X215971250Y-41489226D01*
X216018869Y-41536845D01*
X216114107Y-41584464D01*
X216161726Y-41584464D01*
X216256964Y-41536845D01*
X216304583Y-41489226D01*
X216352202Y-41393988D01*
X216352202Y-41203511D01*
X216399821Y-41108273D01*
X216447440Y-41060654D01*
X216542678Y-41013035D01*
X216733154Y-41013035D01*
X216828392Y-41060654D01*
X216876011Y-41108273D01*
X216923630Y-41203511D01*
X216923630Y-41393988D01*
X216876011Y-41489226D01*
X216828392Y-41536845D01*
X216733154Y-41584464D01*
X216542678Y-41584464D01*
X216447440Y-41536845D01*
X216399821Y-41489226D01*
X216352202Y-41393988D01*
X92598630Y-39366904D02*
X91598630Y-39366904D01*
X91598630Y-39605000D01*
X91646250Y-39747857D01*
X91741488Y-39843095D01*
X91836726Y-39890714D01*
X92027202Y-39938333D01*
X92170059Y-39938333D01*
X92360535Y-39890714D01*
X92455773Y-39843095D01*
X92551011Y-39747857D01*
X92598630Y-39605000D01*
X92598630Y-39366904D01*
X91693869Y-40319285D02*
X91646250Y-40366904D01*
X91598630Y-40462142D01*
X91598630Y-40700238D01*
X91646250Y-40795476D01*
X91693869Y-40843095D01*
X91789107Y-40890714D01*
X91884345Y-40890714D01*
X92027202Y-40843095D01*
X92598630Y-40271666D01*
X92598630Y-40890714D01*
X344738869Y-94041130D02*
X345072202Y-93564940D01*
X345310297Y-94041130D02*
X345310297Y-93041130D01*
X344929345Y-93041130D01*
X344834107Y-93088750D01*
X344786488Y-93136369D01*
X344738869Y-93231607D01*
X344738869Y-93374464D01*
X344786488Y-93469702D01*
X344834107Y-93517321D01*
X344929345Y-93564940D01*
X345310297Y-93564940D01*
X344357916Y-93993511D02*
X344215059Y-94041130D01*
X343976964Y-94041130D01*
X343881726Y-93993511D01*
X343834107Y-93945892D01*
X343786488Y-93850654D01*
X343786488Y-93755416D01*
X343834107Y-93660178D01*
X343881726Y-93612559D01*
X343976964Y-93564940D01*
X344167440Y-93517321D01*
X344262678Y-93469702D01*
X344310297Y-93422083D01*
X344357916Y-93326845D01*
X344357916Y-93231607D01*
X344310297Y-93136369D01*
X344262678Y-93088750D01*
X344167440Y-93041130D01*
X343929345Y-93041130D01*
X343786488Y-93088750D01*
X343500773Y-93041130D02*
X342929345Y-93041130D01*
X343215059Y-94041130D02*
X343215059Y-93041130D01*
X353051904Y-93280000D02*
X353147142Y-93232380D01*
X353290000Y-93232380D01*
X353432857Y-93280000D01*
X353528095Y-93375238D01*
X353575714Y-93470476D01*
X353623333Y-93660952D01*
X353623333Y-93803809D01*
X353575714Y-93994285D01*
X353528095Y-94089523D01*
X353432857Y-94184761D01*
X353290000Y-94232380D01*
X353194761Y-94232380D01*
X353051904Y-94184761D01*
X353004285Y-94137142D01*
X353004285Y-93803809D01*
X353194761Y-93803809D01*
X352575714Y-94232380D02*
X352575714Y-93232380D01*
X352004285Y-94232380D01*
X352004285Y-93232380D01*
X351528095Y-94232380D02*
X351528095Y-93232380D01*
X351290000Y-93232380D01*
X351147142Y-93280000D01*
X351051904Y-93375238D01*
X351004285Y-93470476D01*
X350956666Y-93660952D01*
X350956666Y-93803809D01*
X351004285Y-93994285D01*
X351051904Y-94089523D01*
X351147142Y-94184761D01*
X351290000Y-94232380D01*
X351528095Y-94232380D01*
X353493333Y-97922380D02*
X353160000Y-98922380D01*
X352826666Y-97922380D01*
X351921904Y-98827142D02*
X351969523Y-98874761D01*
X352112380Y-98922380D01*
X352207619Y-98922380D01*
X352350476Y-98874761D01*
X352445714Y-98779523D01*
X352493333Y-98684285D01*
X352540952Y-98493809D01*
X352540952Y-98350952D01*
X352493333Y-98160476D01*
X352445714Y-98065238D01*
X352350476Y-97970000D01*
X352207619Y-97922380D01*
X352112380Y-97922380D01*
X351969523Y-97970000D01*
X351921904Y-98017619D01*
X350921904Y-98827142D02*
X350969523Y-98874761D01*
X351112380Y-98922380D01*
X351207619Y-98922380D01*
X351350476Y-98874761D01*
X351445714Y-98779523D01*
X351493333Y-98684285D01*
X351540952Y-98493809D01*
X351540952Y-98350952D01*
X351493333Y-98160476D01*
X351445714Y-98065238D01*
X351350476Y-97970000D01*
X351207619Y-97922380D01*
X351112380Y-97922380D01*
X350969523Y-97970000D01*
X350921904Y-98017619D01*
X345445714Y-96374761D02*
X345302857Y-96422380D01*
X345064761Y-96422380D01*
X344969523Y-96374761D01*
X344921904Y-96327142D01*
X344874285Y-96231904D01*
X344874285Y-96136666D01*
X344921904Y-96041428D01*
X344969523Y-95993809D01*
X345064761Y-95946190D01*
X345255238Y-95898571D01*
X345350476Y-95850952D01*
X345398095Y-95803333D01*
X345445714Y-95708095D01*
X345445714Y-95612857D01*
X345398095Y-95517619D01*
X345350476Y-95470000D01*
X345255238Y-95422380D01*
X345017142Y-95422380D01*
X344874285Y-95470000D01*
X343874285Y-96327142D02*
X343921904Y-96374761D01*
X344064761Y-96422380D01*
X344160000Y-96422380D01*
X344302857Y-96374761D01*
X344398095Y-96279523D01*
X344445714Y-96184285D01*
X344493333Y-95993809D01*
X344493333Y-95850952D01*
X344445714Y-95660476D01*
X344398095Y-95565238D01*
X344302857Y-95470000D01*
X344160000Y-95422380D01*
X344064761Y-95422380D01*
X343921904Y-95470000D01*
X343874285Y-95517619D01*
X343445714Y-96422380D02*
X343445714Y-95422380D01*
X342874285Y-96422380D02*
X343302857Y-95850952D01*
X342874285Y-95422380D02*
X343445714Y-95993809D01*
X345481428Y-98922380D02*
X345481428Y-97922380D01*
X345148095Y-98636666D01*
X344814761Y-97922380D01*
X344814761Y-98922380D01*
X344338571Y-98922380D02*
X344338571Y-97922380D01*
X343910000Y-98874761D02*
X343767142Y-98922380D01*
X343529047Y-98922380D01*
X343433809Y-98874761D01*
X343386190Y-98827142D01*
X343338571Y-98731904D01*
X343338571Y-98636666D01*
X343386190Y-98541428D01*
X343433809Y-98493809D01*
X343529047Y-98446190D01*
X343719523Y-98398571D01*
X343814761Y-98350952D01*
X343862380Y-98303333D01*
X343910000Y-98208095D01*
X343910000Y-98112857D01*
X343862380Y-98017619D01*
X343814761Y-97970000D01*
X343719523Y-97922380D01*
X343481428Y-97922380D01*
X343338571Y-97970000D01*
X342719523Y-97922380D02*
X342529047Y-97922380D01*
X342433809Y-97970000D01*
X342338571Y-98065238D01*
X342290952Y-98255714D01*
X342290952Y-98589047D01*
X342338571Y-98779523D01*
X342433809Y-98874761D01*
X342529047Y-98922380D01*
X342719523Y-98922380D01*
X342814761Y-98874761D01*
X342910000Y-98779523D01*
X342957619Y-98589047D01*
X342957619Y-98255714D01*
X342910000Y-98065238D01*
X342814761Y-97970000D01*
X342719523Y-97922380D01*
X353981428Y-96422380D02*
X353981428Y-95422380D01*
X353648095Y-96136666D01*
X353314761Y-95422380D01*
X353314761Y-96422380D01*
X352648095Y-95422380D02*
X352457619Y-95422380D01*
X352362380Y-95470000D01*
X352267142Y-95565238D01*
X352219523Y-95755714D01*
X352219523Y-96089047D01*
X352267142Y-96279523D01*
X352362380Y-96374761D01*
X352457619Y-96422380D01*
X352648095Y-96422380D01*
X352743333Y-96374761D01*
X352838571Y-96279523D01*
X352886190Y-96089047D01*
X352886190Y-95755714D01*
X352838571Y-95565238D01*
X352743333Y-95470000D01*
X352648095Y-95422380D01*
X351838571Y-96374761D02*
X351695714Y-96422380D01*
X351457619Y-96422380D01*
X351362380Y-96374761D01*
X351314761Y-96327142D01*
X351267142Y-96231904D01*
X351267142Y-96136666D01*
X351314761Y-96041428D01*
X351362380Y-95993809D01*
X351457619Y-95946190D01*
X351648095Y-95898571D01*
X351743333Y-95850952D01*
X351790952Y-95803333D01*
X351838571Y-95708095D01*
X351838571Y-95612857D01*
X351790952Y-95517619D01*
X351743333Y-95470000D01*
X351648095Y-95422380D01*
X351410000Y-95422380D01*
X351267142Y-95470000D01*
X350838571Y-96422380D02*
X350838571Y-95422380D01*
X105798630Y-142771964D02*
X104798630Y-142771964D01*
X104798630Y-143010059D01*
X104846250Y-143152916D01*
X104941488Y-143248154D01*
X105036726Y-143295773D01*
X105227202Y-143343392D01*
X105370059Y-143343392D01*
X105560535Y-143295773D01*
X105655773Y-143248154D01*
X105751011Y-143152916D01*
X105798630Y-143010059D01*
X105798630Y-142771964D01*
X104798630Y-143676726D02*
X104798630Y-144343392D01*
X105798630Y-143914821D01*
X105798630Y-144771964D02*
X105798630Y-144962440D01*
X105751011Y-145057678D01*
X105703392Y-145105297D01*
X105560535Y-145200535D01*
X105370059Y-145248154D01*
X104989107Y-145248154D01*
X104893869Y-145200535D01*
X104846250Y-145152916D01*
X104798630Y-145057678D01*
X104798630Y-144867202D01*
X104846250Y-144771964D01*
X104893869Y-144724345D01*
X104989107Y-144676726D01*
X105227202Y-144676726D01*
X105322440Y-144724345D01*
X105370059Y-144771964D01*
X105417678Y-144867202D01*
X105417678Y-145057678D01*
X105370059Y-145152916D01*
X105322440Y-145200535D01*
X105227202Y-145248154D01*
X178823630Y-40060654D02*
X177823630Y-40060654D01*
X177823630Y-40298750D01*
X177871250Y-40441607D01*
X177966488Y-40536845D01*
X178061726Y-40584464D01*
X178252202Y-40632083D01*
X178395059Y-40632083D01*
X178585535Y-40584464D01*
X178680773Y-40536845D01*
X178776011Y-40441607D01*
X178823630Y-40298750D01*
X178823630Y-40060654D01*
X177823630Y-41489226D02*
X177823630Y-41298750D01*
X177871250Y-41203511D01*
X177918869Y-41155892D01*
X178061726Y-41060654D01*
X178252202Y-41013035D01*
X178633154Y-41013035D01*
X178728392Y-41060654D01*
X178776011Y-41108273D01*
X178823630Y-41203511D01*
X178823630Y-41393988D01*
X178776011Y-41489226D01*
X178728392Y-41536845D01*
X178633154Y-41584464D01*
X178395059Y-41584464D01*
X178299821Y-41536845D01*
X178252202Y-41489226D01*
X178204583Y-41393988D01*
X178204583Y-41203511D01*
X178252202Y-41108273D01*
X178299821Y-41060654D01*
X178395059Y-41013035D01*
X366498630Y-66571964D02*
X365498630Y-66571964D01*
X365498630Y-66810059D01*
X365546250Y-66952916D01*
X365641488Y-67048154D01*
X365736726Y-67095773D01*
X365927202Y-67143392D01*
X366070059Y-67143392D01*
X366260535Y-67095773D01*
X366355773Y-67048154D01*
X366451011Y-66952916D01*
X366498630Y-66810059D01*
X366498630Y-66571964D01*
X365498630Y-67476726D02*
X365498630Y-68095773D01*
X365879583Y-67762440D01*
X365879583Y-67905297D01*
X365927202Y-68000535D01*
X365974821Y-68048154D01*
X366070059Y-68095773D01*
X366308154Y-68095773D01*
X366403392Y-68048154D01*
X366451011Y-68000535D01*
X366498630Y-67905297D01*
X366498630Y-67619583D01*
X366451011Y-67524345D01*
X366403392Y-67476726D01*
X365593869Y-68476726D02*
X365546250Y-68524345D01*
X365498630Y-68619583D01*
X365498630Y-68857678D01*
X365546250Y-68952916D01*
X365593869Y-69000535D01*
X365689107Y-69048154D01*
X365784345Y-69048154D01*
X365927202Y-69000535D01*
X366498630Y-68429107D01*
X366498630Y-69048154D01*
X117704880Y-123721964D02*
X116704880Y-123721964D01*
X116704880Y-123960059D01*
X116752500Y-124102916D01*
X116847738Y-124198154D01*
X116942976Y-124245773D01*
X117133452Y-124293392D01*
X117276309Y-124293392D01*
X117466785Y-124245773D01*
X117562023Y-124198154D01*
X117657261Y-124102916D01*
X117704880Y-123960059D01*
X117704880Y-123721964D01*
X116704880Y-125150535D02*
X116704880Y-124960059D01*
X116752500Y-124864821D01*
X116800119Y-124817202D01*
X116942976Y-124721964D01*
X117133452Y-124674345D01*
X117514404Y-124674345D01*
X117609642Y-124721964D01*
X117657261Y-124769583D01*
X117704880Y-124864821D01*
X117704880Y-125055297D01*
X117657261Y-125150535D01*
X117609642Y-125198154D01*
X117514404Y-125245773D01*
X117276309Y-125245773D01*
X117181071Y-125198154D01*
X117133452Y-125150535D01*
X117085833Y-125055297D01*
X117085833Y-124864821D01*
X117133452Y-124769583D01*
X117181071Y-124721964D01*
X117276309Y-124674345D01*
X116704880Y-126102916D02*
X116704880Y-125912440D01*
X116752500Y-125817202D01*
X116800119Y-125769583D01*
X116942976Y-125674345D01*
X117133452Y-125626726D01*
X117514404Y-125626726D01*
X117609642Y-125674345D01*
X117657261Y-125721964D01*
X117704880Y-125817202D01*
X117704880Y-126007678D01*
X117657261Y-126102916D01*
X117609642Y-126150535D01*
X117514404Y-126198154D01*
X117276309Y-126198154D01*
X117181071Y-126150535D01*
X117133452Y-126102916D01*
X117085833Y-126007678D01*
X117085833Y-125817202D01*
X117133452Y-125721964D01*
X117181071Y-125674345D01*
X117276309Y-125626726D01*
X197873630Y-40060654D02*
X196873630Y-40060654D01*
X196873630Y-40298750D01*
X196921250Y-40441607D01*
X197016488Y-40536845D01*
X197111726Y-40584464D01*
X197302202Y-40632083D01*
X197445059Y-40632083D01*
X197635535Y-40584464D01*
X197730773Y-40536845D01*
X197826011Y-40441607D01*
X197873630Y-40298750D01*
X197873630Y-40060654D01*
X196873630Y-40965416D02*
X196873630Y-41632083D01*
X197873630Y-41203511D01*
X270054880Y-85384464D02*
X269054880Y-85384464D01*
X269054880Y-85622559D01*
X269102500Y-85765416D01*
X269197738Y-85860654D01*
X269292976Y-85908273D01*
X269483452Y-85955892D01*
X269626309Y-85955892D01*
X269816785Y-85908273D01*
X269912023Y-85860654D01*
X270007261Y-85765416D01*
X270054880Y-85622559D01*
X270054880Y-85384464D01*
X269388214Y-86813035D02*
X270054880Y-86813035D01*
X269007261Y-86574940D02*
X269721547Y-86336845D01*
X269721547Y-86955892D01*
X269054880Y-87813035D02*
X269054880Y-87336845D01*
X269531071Y-87289226D01*
X269483452Y-87336845D01*
X269435833Y-87432083D01*
X269435833Y-87670178D01*
X269483452Y-87765416D01*
X269531071Y-87813035D01*
X269626309Y-87860654D01*
X269864404Y-87860654D01*
X269959642Y-87813035D01*
X270007261Y-87765416D01*
X270054880Y-87670178D01*
X270054880Y-87432083D01*
X270007261Y-87336845D01*
X269959642Y-87289226D01*
X155804880Y-123721964D02*
X154804880Y-123721964D01*
X154804880Y-123960059D01*
X154852500Y-124102916D01*
X154947738Y-124198154D01*
X155042976Y-124245773D01*
X155233452Y-124293392D01*
X155376309Y-124293392D01*
X155566785Y-124245773D01*
X155662023Y-124198154D01*
X155757261Y-124102916D01*
X155804880Y-123960059D01*
X155804880Y-123721964D01*
X154804880Y-125150535D02*
X154804880Y-124960059D01*
X154852500Y-124864821D01*
X154900119Y-124817202D01*
X155042976Y-124721964D01*
X155233452Y-124674345D01*
X155614404Y-124674345D01*
X155709642Y-124721964D01*
X155757261Y-124769583D01*
X155804880Y-124864821D01*
X155804880Y-125055297D01*
X155757261Y-125150535D01*
X155709642Y-125198154D01*
X155614404Y-125245773D01*
X155376309Y-125245773D01*
X155281071Y-125198154D01*
X155233452Y-125150535D01*
X155185833Y-125055297D01*
X155185833Y-124864821D01*
X155233452Y-124769583D01*
X155281071Y-124721964D01*
X155376309Y-124674345D01*
X155233452Y-125817202D02*
X155185833Y-125721964D01*
X155138214Y-125674345D01*
X155042976Y-125626726D01*
X154995357Y-125626726D01*
X154900119Y-125674345D01*
X154852500Y-125721964D01*
X154804880Y-125817202D01*
X154804880Y-126007678D01*
X154852500Y-126102916D01*
X154900119Y-126150535D01*
X154995357Y-126198154D01*
X155042976Y-126198154D01*
X155138214Y-126150535D01*
X155185833Y-126102916D01*
X155233452Y-126007678D01*
X155233452Y-125817202D01*
X155281071Y-125721964D01*
X155328690Y-125674345D01*
X155423928Y-125626726D01*
X155614404Y-125626726D01*
X155709642Y-125674345D01*
X155757261Y-125721964D01*
X155804880Y-125817202D01*
X155804880Y-126007678D01*
X155757261Y-126102916D01*
X155709642Y-126150535D01*
X155614404Y-126198154D01*
X155423928Y-126198154D01*
X155328690Y-126150535D01*
X155281071Y-126102916D01*
X155233452Y-126007678D01*
X67698630Y-123721964D02*
X66698630Y-123721964D01*
X66698630Y-123960059D01*
X66746250Y-124102916D01*
X66841488Y-124198154D01*
X66936726Y-124245773D01*
X67127202Y-124293392D01*
X67270059Y-124293392D01*
X67460535Y-124245773D01*
X67555773Y-124198154D01*
X67651011Y-124102916D01*
X67698630Y-123960059D01*
X67698630Y-123721964D01*
X66698630Y-125150535D02*
X66698630Y-124960059D01*
X66746250Y-124864821D01*
X66793869Y-124817202D01*
X66936726Y-124721964D01*
X67127202Y-124674345D01*
X67508154Y-124674345D01*
X67603392Y-124721964D01*
X67651011Y-124769583D01*
X67698630Y-124864821D01*
X67698630Y-125055297D01*
X67651011Y-125150535D01*
X67603392Y-125198154D01*
X67508154Y-125245773D01*
X67270059Y-125245773D01*
X67174821Y-125198154D01*
X67127202Y-125150535D01*
X67079583Y-125055297D01*
X67079583Y-124864821D01*
X67127202Y-124769583D01*
X67174821Y-124721964D01*
X67270059Y-124674345D01*
X67031964Y-126102916D02*
X67698630Y-126102916D01*
X66651011Y-125864821D02*
X67365297Y-125626726D01*
X67365297Y-126245773D01*
X336065595Y-21201130D02*
X336065595Y-22010654D01*
X336017976Y-22105892D01*
X335970357Y-22153511D01*
X335875119Y-22201130D01*
X335684642Y-22201130D01*
X335589404Y-22153511D01*
X335541785Y-22105892D01*
X335494166Y-22010654D01*
X335494166Y-21201130D01*
X335065595Y-22153511D02*
X334922738Y-22201130D01*
X334684642Y-22201130D01*
X334589404Y-22153511D01*
X334541785Y-22105892D01*
X334494166Y-22010654D01*
X334494166Y-21915416D01*
X334541785Y-21820178D01*
X334589404Y-21772559D01*
X334684642Y-21724940D01*
X334875119Y-21677321D01*
X334970357Y-21629702D01*
X335017976Y-21582083D01*
X335065595Y-21486845D01*
X335065595Y-21391607D01*
X335017976Y-21296369D01*
X334970357Y-21248750D01*
X334875119Y-21201130D01*
X334637023Y-21201130D01*
X334494166Y-21248750D01*
X333732261Y-21677321D02*
X333589404Y-21724940D01*
X333541785Y-21772559D01*
X333494166Y-21867797D01*
X333494166Y-22010654D01*
X333541785Y-22105892D01*
X333589404Y-22153511D01*
X333684642Y-22201130D01*
X334065595Y-22201130D01*
X334065595Y-21201130D01*
X333732261Y-21201130D01*
X333637023Y-21248750D01*
X333589404Y-21296369D01*
X333541785Y-21391607D01*
X333541785Y-21486845D01*
X333589404Y-21582083D01*
X333637023Y-21629702D01*
X333732261Y-21677321D01*
X334065595Y-21677321D01*
X332541785Y-22201130D02*
X333113214Y-22201130D01*
X332827500Y-22201130D02*
X332827500Y-21201130D01*
X332922738Y-21343988D01*
X333017976Y-21439226D01*
X333113214Y-21486845D01*
X284748630Y-39984464D02*
X283748630Y-39984464D01*
X283748630Y-40222559D01*
X283796250Y-40365416D01*
X283891488Y-40460654D01*
X283986726Y-40508273D01*
X284177202Y-40555892D01*
X284320059Y-40555892D01*
X284510535Y-40508273D01*
X284605773Y-40460654D01*
X284701011Y-40365416D01*
X284748630Y-40222559D01*
X284748630Y-39984464D01*
X284748630Y-41508273D02*
X284748630Y-40936845D01*
X284748630Y-41222559D02*
X283748630Y-41222559D01*
X283891488Y-41127321D01*
X283986726Y-41032083D01*
X284034345Y-40936845D01*
X284748630Y-42460654D02*
X284748630Y-41889226D01*
X284748630Y-42174940D02*
X283748630Y-42174940D01*
X283891488Y-42079702D01*
X283986726Y-41984464D01*
X284034345Y-41889226D01*
X279692380Y-104671964D02*
X278692380Y-104671964D01*
X278692380Y-104910059D01*
X278740000Y-105052916D01*
X278835238Y-105148154D01*
X278930476Y-105195773D01*
X279120952Y-105243392D01*
X279263809Y-105243392D01*
X279454285Y-105195773D01*
X279549523Y-105148154D01*
X279644761Y-105052916D01*
X279692380Y-104910059D01*
X279692380Y-104671964D01*
X278692380Y-106100535D02*
X278692380Y-105910059D01*
X278740000Y-105814821D01*
X278787619Y-105767202D01*
X278930476Y-105671964D01*
X279120952Y-105624345D01*
X279501904Y-105624345D01*
X279597142Y-105671964D01*
X279644761Y-105719583D01*
X279692380Y-105814821D01*
X279692380Y-106005297D01*
X279644761Y-106100535D01*
X279597142Y-106148154D01*
X279501904Y-106195773D01*
X279263809Y-106195773D01*
X279168571Y-106148154D01*
X279120952Y-106100535D01*
X279073333Y-106005297D01*
X279073333Y-105814821D01*
X279120952Y-105719583D01*
X279168571Y-105671964D01*
X279263809Y-105624345D01*
X278787619Y-106576726D02*
X278740000Y-106624345D01*
X278692380Y-106719583D01*
X278692380Y-106957678D01*
X278740000Y-107052916D01*
X278787619Y-107100535D01*
X278882857Y-107148154D01*
X278978095Y-107148154D01*
X279120952Y-107100535D01*
X279692380Y-106529107D01*
X279692380Y-107148154D01*
X265342380Y-66571964D02*
X264342380Y-66571964D01*
X264342380Y-66810059D01*
X264390000Y-66952916D01*
X264485238Y-67048154D01*
X264580476Y-67095773D01*
X264770952Y-67143392D01*
X264913809Y-67143392D01*
X265104285Y-67095773D01*
X265199523Y-67048154D01*
X265294761Y-66952916D01*
X265342380Y-66810059D01*
X265342380Y-66571964D01*
X264437619Y-67524345D02*
X264390000Y-67571964D01*
X264342380Y-67667202D01*
X264342380Y-67905297D01*
X264390000Y-68000535D01*
X264437619Y-68048154D01*
X264532857Y-68095773D01*
X264628095Y-68095773D01*
X264770952Y-68048154D01*
X265342380Y-67476726D01*
X265342380Y-68095773D01*
X264770952Y-68667202D02*
X264723333Y-68571964D01*
X264675714Y-68524345D01*
X264580476Y-68476726D01*
X264532857Y-68476726D01*
X264437619Y-68524345D01*
X264390000Y-68571964D01*
X264342380Y-68667202D01*
X264342380Y-68857678D01*
X264390000Y-68952916D01*
X264437619Y-69000535D01*
X264532857Y-69048154D01*
X264580476Y-69048154D01*
X264675714Y-69000535D01*
X264723333Y-68952916D01*
X264770952Y-68857678D01*
X264770952Y-68667202D01*
X264818571Y-68571964D01*
X264866190Y-68524345D01*
X264961428Y-68476726D01*
X265151904Y-68476726D01*
X265247142Y-68524345D01*
X265294761Y-68571964D01*
X265342380Y-68667202D01*
X265342380Y-68857678D01*
X265294761Y-68952916D01*
X265247142Y-69000535D01*
X265151904Y-69048154D01*
X264961428Y-69048154D01*
X264866190Y-69000535D01*
X264818571Y-68952916D01*
X264770952Y-68857678D01*
X296298630Y-142771964D02*
X295298630Y-142771964D01*
X295298630Y-143010059D01*
X295346250Y-143152916D01*
X295441488Y-143248154D01*
X295536726Y-143295773D01*
X295727202Y-143343392D01*
X295870059Y-143343392D01*
X296060535Y-143295773D01*
X296155773Y-143248154D01*
X296251011Y-143152916D01*
X296298630Y-143010059D01*
X296298630Y-142771964D01*
X295727202Y-143914821D02*
X295679583Y-143819583D01*
X295631964Y-143771964D01*
X295536726Y-143724345D01*
X295489107Y-143724345D01*
X295393869Y-143771964D01*
X295346250Y-143819583D01*
X295298630Y-143914821D01*
X295298630Y-144105297D01*
X295346250Y-144200535D01*
X295393869Y-144248154D01*
X295489107Y-144295773D01*
X295536726Y-144295773D01*
X295631964Y-144248154D01*
X295679583Y-144200535D01*
X295727202Y-144105297D01*
X295727202Y-143914821D01*
X295774821Y-143819583D01*
X295822440Y-143771964D01*
X295917678Y-143724345D01*
X296108154Y-143724345D01*
X296203392Y-143771964D01*
X296251011Y-143819583D01*
X296298630Y-143914821D01*
X296298630Y-144105297D01*
X296251011Y-144200535D01*
X296203392Y-144248154D01*
X296108154Y-144295773D01*
X295917678Y-144295773D01*
X295822440Y-144248154D01*
X295774821Y-144200535D01*
X295727202Y-144105297D01*
X295298630Y-144629107D02*
X295298630Y-145248154D01*
X295679583Y-144914821D01*
X295679583Y-145057678D01*
X295727202Y-145152916D01*
X295774821Y-145200535D01*
X295870059Y-145248154D01*
X296108154Y-145248154D01*
X296203392Y-145200535D01*
X296251011Y-145152916D01*
X296298630Y-145057678D01*
X296298630Y-144771964D01*
X296251011Y-144676726D01*
X296203392Y-144629107D01*
X212904880Y-85384464D02*
X211904880Y-85384464D01*
X211904880Y-85622559D01*
X211952500Y-85765416D01*
X212047738Y-85860654D01*
X212142976Y-85908273D01*
X212333452Y-85955892D01*
X212476309Y-85955892D01*
X212666785Y-85908273D01*
X212762023Y-85860654D01*
X212857261Y-85765416D01*
X212904880Y-85622559D01*
X212904880Y-85384464D01*
X212238214Y-86813035D02*
X212904880Y-86813035D01*
X211857261Y-86574940D02*
X212571547Y-86336845D01*
X212571547Y-86955892D01*
X212000119Y-87289226D02*
X211952500Y-87336845D01*
X211904880Y-87432083D01*
X211904880Y-87670178D01*
X211952500Y-87765416D01*
X212000119Y-87813035D01*
X212095357Y-87860654D01*
X212190595Y-87860654D01*
X212333452Y-87813035D01*
X212904880Y-87241607D01*
X212904880Y-87860654D01*
X89192380Y-104671964D02*
X88192380Y-104671964D01*
X88192380Y-104910059D01*
X88240000Y-105052916D01*
X88335238Y-105148154D01*
X88430476Y-105195773D01*
X88620952Y-105243392D01*
X88763809Y-105243392D01*
X88954285Y-105195773D01*
X89049523Y-105148154D01*
X89144761Y-105052916D01*
X89192380Y-104910059D01*
X89192380Y-104671964D01*
X88192380Y-106148154D02*
X88192380Y-105671964D01*
X88668571Y-105624345D01*
X88620952Y-105671964D01*
X88573333Y-105767202D01*
X88573333Y-106005297D01*
X88620952Y-106100535D01*
X88668571Y-106148154D01*
X88763809Y-106195773D01*
X89001904Y-106195773D01*
X89097142Y-106148154D01*
X89144761Y-106100535D01*
X89192380Y-106005297D01*
X89192380Y-105767202D01*
X89144761Y-105671964D01*
X89097142Y-105624345D01*
X88287619Y-106576726D02*
X88240000Y-106624345D01*
X88192380Y-106719583D01*
X88192380Y-106957678D01*
X88240000Y-107052916D01*
X88287619Y-107100535D01*
X88382857Y-107148154D01*
X88478095Y-107148154D01*
X88620952Y-107100535D01*
X89192380Y-106529107D01*
X89192380Y-107148154D01*
X246292380Y-66571964D02*
X245292380Y-66571964D01*
X245292380Y-66810059D01*
X245340000Y-66952916D01*
X245435238Y-67048154D01*
X245530476Y-67095773D01*
X245720952Y-67143392D01*
X245863809Y-67143392D01*
X246054285Y-67095773D01*
X246149523Y-67048154D01*
X246244761Y-66952916D01*
X246292380Y-66810059D01*
X246292380Y-66571964D01*
X245387619Y-67524345D02*
X245340000Y-67571964D01*
X245292380Y-67667202D01*
X245292380Y-67905297D01*
X245340000Y-68000535D01*
X245387619Y-68048154D01*
X245482857Y-68095773D01*
X245578095Y-68095773D01*
X245720952Y-68048154D01*
X246292380Y-67476726D01*
X246292380Y-68095773D01*
X245292380Y-68429107D02*
X245292380Y-69095773D01*
X246292380Y-68667202D01*
X232004880Y-123721964D02*
X231004880Y-123721964D01*
X231004880Y-123960059D01*
X231052500Y-124102916D01*
X231147738Y-124198154D01*
X231242976Y-124245773D01*
X231433452Y-124293392D01*
X231576309Y-124293392D01*
X231766785Y-124245773D01*
X231862023Y-124198154D01*
X231957261Y-124102916D01*
X232004880Y-123960059D01*
X232004880Y-123721964D01*
X231004880Y-124626726D02*
X231004880Y-125293392D01*
X232004880Y-124864821D01*
X231100119Y-125626726D02*
X231052500Y-125674345D01*
X231004880Y-125769583D01*
X231004880Y-126007678D01*
X231052500Y-126102916D01*
X231100119Y-126150535D01*
X231195357Y-126198154D01*
X231290595Y-126198154D01*
X231433452Y-126150535D01*
X232004880Y-125579107D01*
X232004880Y-126198154D01*
X337492380Y-94363333D02*
X337016190Y-94030000D01*
X337492380Y-93791904D02*
X336492380Y-93791904D01*
X336492380Y-94172857D01*
X336540000Y-94268095D01*
X336587619Y-94315714D01*
X336682857Y-94363333D01*
X336825714Y-94363333D01*
X336920952Y-94315714D01*
X336968571Y-94268095D01*
X337016190Y-94172857D01*
X337016190Y-93791904D01*
X336492380Y-94696666D02*
X336492380Y-95315714D01*
X336873333Y-94982380D01*
X336873333Y-95125238D01*
X336920952Y-95220476D01*
X336968571Y-95268095D01*
X337063809Y-95315714D01*
X337301904Y-95315714D01*
X337397142Y-95268095D01*
X337444761Y-95220476D01*
X337492380Y-95125238D01*
X337492380Y-94839523D01*
X337444761Y-94744285D01*
X337397142Y-94696666D01*
X315298630Y-85384464D02*
X314298630Y-85384464D01*
X314298630Y-85622559D01*
X314346250Y-85765416D01*
X314441488Y-85860654D01*
X314536726Y-85908273D01*
X314727202Y-85955892D01*
X314870059Y-85955892D01*
X315060535Y-85908273D01*
X315155773Y-85860654D01*
X315251011Y-85765416D01*
X315298630Y-85622559D01*
X315298630Y-85384464D01*
X314631964Y-86813035D02*
X315298630Y-86813035D01*
X314251011Y-86574940D02*
X314965297Y-86336845D01*
X314965297Y-86955892D01*
X314298630Y-87241607D02*
X314298630Y-87908273D01*
X315298630Y-87479702D01*
X312967380Y-66571964D02*
X311967380Y-66571964D01*
X311967380Y-66810059D01*
X312015000Y-66952916D01*
X312110238Y-67048154D01*
X312205476Y-67095773D01*
X312395952Y-67143392D01*
X312538809Y-67143392D01*
X312729285Y-67095773D01*
X312824523Y-67048154D01*
X312919761Y-66952916D01*
X312967380Y-66810059D01*
X312967380Y-66571964D01*
X311967380Y-67476726D02*
X311967380Y-68095773D01*
X312348333Y-67762440D01*
X312348333Y-67905297D01*
X312395952Y-68000535D01*
X312443571Y-68048154D01*
X312538809Y-68095773D01*
X312776904Y-68095773D01*
X312872142Y-68048154D01*
X312919761Y-68000535D01*
X312967380Y-67905297D01*
X312967380Y-67619583D01*
X312919761Y-67524345D01*
X312872142Y-67476726D01*
X311967380Y-68714821D02*
X311967380Y-68810059D01*
X312015000Y-68905297D01*
X312062619Y-68952916D01*
X312157857Y-69000535D01*
X312348333Y-69048154D01*
X312586428Y-69048154D01*
X312776904Y-69000535D01*
X312872142Y-68952916D01*
X312919761Y-68905297D01*
X312967380Y-68810059D01*
X312967380Y-68714821D01*
X312919761Y-68619583D01*
X312872142Y-68571964D01*
X312776904Y-68524345D01*
X312586428Y-68476726D01*
X312348333Y-68476726D01*
X312157857Y-68524345D01*
X312062619Y-68571964D01*
X312015000Y-68619583D01*
X311967380Y-68714821D01*
X385198630Y-85621964D02*
X384198630Y-85621964D01*
X384198630Y-85860059D01*
X384246250Y-86002916D01*
X384341488Y-86098154D01*
X384436726Y-86145773D01*
X384627202Y-86193392D01*
X384770059Y-86193392D01*
X384960535Y-86145773D01*
X385055773Y-86098154D01*
X385151011Y-86002916D01*
X385198630Y-85860059D01*
X385198630Y-85621964D01*
X384198630Y-87098154D02*
X384198630Y-86621964D01*
X384674821Y-86574345D01*
X384627202Y-86621964D01*
X384579583Y-86717202D01*
X384579583Y-86955297D01*
X384627202Y-87050535D01*
X384674821Y-87098154D01*
X384770059Y-87145773D01*
X385008154Y-87145773D01*
X385103392Y-87098154D01*
X385151011Y-87050535D01*
X385198630Y-86955297D01*
X385198630Y-86717202D01*
X385151011Y-86621964D01*
X385103392Y-86574345D01*
X384198630Y-87764821D02*
X384198630Y-87860059D01*
X384246250Y-87955297D01*
X384293869Y-88002916D01*
X384389107Y-88050535D01*
X384579583Y-88098154D01*
X384817678Y-88098154D01*
X385008154Y-88050535D01*
X385103392Y-88002916D01*
X385151011Y-87955297D01*
X385198630Y-87860059D01*
X385198630Y-87764821D01*
X385151011Y-87669583D01*
X385103392Y-87621964D01*
X385008154Y-87574345D01*
X384817678Y-87526726D01*
X384579583Y-87526726D01*
X384389107Y-87574345D01*
X384293869Y-87621964D01*
X384246250Y-87669583D01*
X384198630Y-87764821D01*
X248673630Y-142771964D02*
X247673630Y-142771964D01*
X247673630Y-143010059D01*
X247721250Y-143152916D01*
X247816488Y-143248154D01*
X247911726Y-143295773D01*
X248102202Y-143343392D01*
X248245059Y-143343392D01*
X248435535Y-143295773D01*
X248530773Y-143248154D01*
X248626011Y-143152916D01*
X248673630Y-143010059D01*
X248673630Y-142771964D01*
X248102202Y-143914821D02*
X248054583Y-143819583D01*
X248006964Y-143771964D01*
X247911726Y-143724345D01*
X247864107Y-143724345D01*
X247768869Y-143771964D01*
X247721250Y-143819583D01*
X247673630Y-143914821D01*
X247673630Y-144105297D01*
X247721250Y-144200535D01*
X247768869Y-144248154D01*
X247864107Y-144295773D01*
X247911726Y-144295773D01*
X248006964Y-144248154D01*
X248054583Y-144200535D01*
X248102202Y-144105297D01*
X248102202Y-143914821D01*
X248149821Y-143819583D01*
X248197440Y-143771964D01*
X248292678Y-143724345D01*
X248483154Y-143724345D01*
X248578392Y-143771964D01*
X248626011Y-143819583D01*
X248673630Y-143914821D01*
X248673630Y-144105297D01*
X248626011Y-144200535D01*
X248578392Y-144248154D01*
X248483154Y-144295773D01*
X248292678Y-144295773D01*
X248197440Y-144248154D01*
X248149821Y-144200535D01*
X248102202Y-144105297D01*
X248673630Y-145248154D02*
X248673630Y-144676726D01*
X248673630Y-144962440D02*
X247673630Y-144962440D01*
X247816488Y-144867202D01*
X247911726Y-144771964D01*
X247959345Y-144676726D01*
X270104880Y-123721964D02*
X269104880Y-123721964D01*
X269104880Y-123960059D01*
X269152500Y-124102916D01*
X269247738Y-124198154D01*
X269342976Y-124245773D01*
X269533452Y-124293392D01*
X269676309Y-124293392D01*
X269866785Y-124245773D01*
X269962023Y-124198154D01*
X270057261Y-124102916D01*
X270104880Y-123960059D01*
X270104880Y-123721964D01*
X269104880Y-124626726D02*
X269104880Y-125293392D01*
X270104880Y-124864821D01*
X269438214Y-126102916D02*
X270104880Y-126102916D01*
X269057261Y-125864821D02*
X269771547Y-125626726D01*
X269771547Y-126245773D01*
X327657142Y-113083333D02*
X327704761Y-113035714D01*
X327752380Y-112892857D01*
X327752380Y-112797619D01*
X327704761Y-112654761D01*
X327609523Y-112559523D01*
X327514285Y-112511904D01*
X327323809Y-112464285D01*
X327180952Y-112464285D01*
X326990476Y-112511904D01*
X326895238Y-112559523D01*
X326800000Y-112654761D01*
X326752380Y-112797619D01*
X326752380Y-112892857D01*
X326800000Y-113035714D01*
X326847619Y-113083333D01*
X327085714Y-113940476D02*
X327752380Y-113940476D01*
X326704761Y-113702380D02*
X327419047Y-113464285D01*
X327419047Y-114083333D01*
X127292380Y-104671964D02*
X126292380Y-104671964D01*
X126292380Y-104910059D01*
X126340000Y-105052916D01*
X126435238Y-105148154D01*
X126530476Y-105195773D01*
X126720952Y-105243392D01*
X126863809Y-105243392D01*
X127054285Y-105195773D01*
X127149523Y-105148154D01*
X127244761Y-105052916D01*
X127292380Y-104910059D01*
X127292380Y-104671964D01*
X126292380Y-106148154D02*
X126292380Y-105671964D01*
X126768571Y-105624345D01*
X126720952Y-105671964D01*
X126673333Y-105767202D01*
X126673333Y-106005297D01*
X126720952Y-106100535D01*
X126768571Y-106148154D01*
X126863809Y-106195773D01*
X127101904Y-106195773D01*
X127197142Y-106148154D01*
X127244761Y-106100535D01*
X127292380Y-106005297D01*
X127292380Y-105767202D01*
X127244761Y-105671964D01*
X127197142Y-105624345D01*
X126625714Y-107052916D02*
X127292380Y-107052916D01*
X126244761Y-106814821D02*
X126959047Y-106576726D01*
X126959047Y-107195773D01*
X251004880Y-85384464D02*
X250004880Y-85384464D01*
X250004880Y-85622559D01*
X250052500Y-85765416D01*
X250147738Y-85860654D01*
X250242976Y-85908273D01*
X250433452Y-85955892D01*
X250576309Y-85955892D01*
X250766785Y-85908273D01*
X250862023Y-85860654D01*
X250957261Y-85765416D01*
X251004880Y-85622559D01*
X251004880Y-85384464D01*
X250338214Y-86813035D02*
X251004880Y-86813035D01*
X249957261Y-86574940D02*
X250671547Y-86336845D01*
X250671547Y-86955892D01*
X250338214Y-87765416D02*
X251004880Y-87765416D01*
X249957261Y-87527321D02*
X250671547Y-87289226D01*
X250671547Y-87908273D01*
X366148630Y-142771964D02*
X365148630Y-142771964D01*
X365148630Y-143010059D01*
X365196250Y-143152916D01*
X365291488Y-143248154D01*
X365386726Y-143295773D01*
X365577202Y-143343392D01*
X365720059Y-143343392D01*
X365910535Y-143295773D01*
X366005773Y-143248154D01*
X366101011Y-143152916D01*
X366148630Y-143010059D01*
X366148630Y-142771964D01*
X365577202Y-143914821D02*
X365529583Y-143819583D01*
X365481964Y-143771964D01*
X365386726Y-143724345D01*
X365339107Y-143724345D01*
X365243869Y-143771964D01*
X365196250Y-143819583D01*
X365148630Y-143914821D01*
X365148630Y-144105297D01*
X365196250Y-144200535D01*
X365243869Y-144248154D01*
X365339107Y-144295773D01*
X365386726Y-144295773D01*
X365481964Y-144248154D01*
X365529583Y-144200535D01*
X365577202Y-144105297D01*
X365577202Y-143914821D01*
X365624821Y-143819583D01*
X365672440Y-143771964D01*
X365767678Y-143724345D01*
X365958154Y-143724345D01*
X366053392Y-143771964D01*
X366101011Y-143819583D01*
X366148630Y-143914821D01*
X366148630Y-144105297D01*
X366101011Y-144200535D01*
X366053392Y-144248154D01*
X365958154Y-144295773D01*
X365767678Y-144295773D01*
X365672440Y-144248154D01*
X365624821Y-144200535D01*
X365577202Y-144105297D01*
X365148630Y-145152916D02*
X365148630Y-144962440D01*
X365196250Y-144867202D01*
X365243869Y-144819583D01*
X365386726Y-144724345D01*
X365577202Y-144676726D01*
X365958154Y-144676726D01*
X366053392Y-144724345D01*
X366101011Y-144771964D01*
X366148630Y-144867202D01*
X366148630Y-145057678D01*
X366101011Y-145152916D01*
X366053392Y-145200535D01*
X365958154Y-145248154D01*
X365720059Y-145248154D01*
X365624821Y-145200535D01*
X365577202Y-145152916D01*
X365529583Y-145057678D01*
X365529583Y-144867202D01*
X365577202Y-144771964D01*
X365624821Y-144724345D01*
X365720059Y-144676726D01*
X385548630Y-66571964D02*
X384548630Y-66571964D01*
X384548630Y-66810059D01*
X384596250Y-66952916D01*
X384691488Y-67048154D01*
X384786726Y-67095773D01*
X384977202Y-67143392D01*
X385120059Y-67143392D01*
X385310535Y-67095773D01*
X385405773Y-67048154D01*
X385501011Y-66952916D01*
X385548630Y-66810059D01*
X385548630Y-66571964D01*
X384548630Y-67476726D02*
X384548630Y-68095773D01*
X384929583Y-67762440D01*
X384929583Y-67905297D01*
X384977202Y-68000535D01*
X385024821Y-68048154D01*
X385120059Y-68095773D01*
X385358154Y-68095773D01*
X385453392Y-68048154D01*
X385501011Y-68000535D01*
X385548630Y-67905297D01*
X385548630Y-67619583D01*
X385501011Y-67524345D01*
X385453392Y-67476726D01*
X384548630Y-68429107D02*
X384548630Y-69048154D01*
X384929583Y-68714821D01*
X384929583Y-68857678D01*
X384977202Y-68952916D01*
X385024821Y-69000535D01*
X385120059Y-69048154D01*
X385358154Y-69048154D01*
X385453392Y-69000535D01*
X385501011Y-68952916D01*
X385548630Y-68857678D01*
X385548630Y-68571964D01*
X385501011Y-68476726D01*
X385453392Y-68429107D01*
X184442380Y-104671964D02*
X183442380Y-104671964D01*
X183442380Y-104910059D01*
X183490000Y-105052916D01*
X183585238Y-105148154D01*
X183680476Y-105195773D01*
X183870952Y-105243392D01*
X184013809Y-105243392D01*
X184204285Y-105195773D01*
X184299523Y-105148154D01*
X184394761Y-105052916D01*
X184442380Y-104910059D01*
X184442380Y-104671964D01*
X183442380Y-106148154D02*
X183442380Y-105671964D01*
X183918571Y-105624345D01*
X183870952Y-105671964D01*
X183823333Y-105767202D01*
X183823333Y-106005297D01*
X183870952Y-106100535D01*
X183918571Y-106148154D01*
X184013809Y-106195773D01*
X184251904Y-106195773D01*
X184347142Y-106148154D01*
X184394761Y-106100535D01*
X184442380Y-106005297D01*
X184442380Y-105767202D01*
X184394761Y-105671964D01*
X184347142Y-105624345D01*
X183442380Y-106529107D02*
X183442380Y-107195773D01*
X184442380Y-106767202D01*
X54404880Y-39416904D02*
X53404880Y-39416904D01*
X53404880Y-39655000D01*
X53452500Y-39797857D01*
X53547738Y-39893095D01*
X53642976Y-39940714D01*
X53833452Y-39988333D01*
X53976309Y-39988333D01*
X54166785Y-39940714D01*
X54262023Y-39893095D01*
X54357261Y-39797857D01*
X54404880Y-39655000D01*
X54404880Y-39416904D01*
X54404880Y-40940714D02*
X54404880Y-40369285D01*
X54404880Y-40655000D02*
X53404880Y-40655000D01*
X53547738Y-40559761D01*
X53642976Y-40464523D01*
X53690595Y-40369285D01*
X335441666Y-99446250D02*
X335489285Y-99493869D01*
X335632142Y-99541488D01*
X335727380Y-99541488D01*
X335870238Y-99493869D01*
X335965476Y-99398631D01*
X336013095Y-99303393D01*
X336060714Y-99112917D01*
X336060714Y-98970060D01*
X336013095Y-98779584D01*
X335965476Y-98684346D01*
X335870238Y-98589108D01*
X335727380Y-98541488D01*
X335632142Y-98541488D01*
X335489285Y-98589108D01*
X335441666Y-98636727D01*
X334870238Y-98970060D02*
X334965476Y-98922441D01*
X335013095Y-98874822D01*
X335060714Y-98779584D01*
X335060714Y-98731965D01*
X335013095Y-98636727D01*
X334965476Y-98589108D01*
X334870238Y-98541488D01*
X334679761Y-98541488D01*
X334584523Y-98589108D01*
X334536904Y-98636727D01*
X334489285Y-98731965D01*
X334489285Y-98779584D01*
X334536904Y-98874822D01*
X334584523Y-98922441D01*
X334679761Y-98970060D01*
X334870238Y-98970060D01*
X334965476Y-99017679D01*
X335013095Y-99065298D01*
X335060714Y-99160536D01*
X335060714Y-99351012D01*
X335013095Y-99446250D01*
X334965476Y-99493869D01*
X334870238Y-99541488D01*
X334679761Y-99541488D01*
X334584523Y-99493869D01*
X334536904Y-99446250D01*
X334489285Y-99351012D01*
X334489285Y-99160536D01*
X334536904Y-99065298D01*
X334584523Y-99017679D01*
X334679761Y-98970060D01*
X303448630Y-39984464D02*
X302448630Y-39984464D01*
X302448630Y-40222559D01*
X302496250Y-40365416D01*
X302591488Y-40460654D01*
X302686726Y-40508273D01*
X302877202Y-40555892D01*
X303020059Y-40555892D01*
X303210535Y-40508273D01*
X303305773Y-40460654D01*
X303401011Y-40365416D01*
X303448630Y-40222559D01*
X303448630Y-39984464D01*
X303448630Y-41508273D02*
X303448630Y-40936845D01*
X303448630Y-41222559D02*
X302448630Y-41222559D01*
X302591488Y-41127321D01*
X302686726Y-41032083D01*
X302734345Y-40936845D01*
X302543869Y-41889226D02*
X302496250Y-41936845D01*
X302448630Y-42032083D01*
X302448630Y-42270178D01*
X302496250Y-42365416D01*
X302543869Y-42413035D01*
X302639107Y-42460654D01*
X302734345Y-42460654D01*
X302877202Y-42413035D01*
X303448630Y-41841607D01*
X303448630Y-42460654D01*
X332048630Y-94393333D02*
X331572440Y-94060000D01*
X332048630Y-93821904D02*
X331048630Y-93821904D01*
X331048630Y-94202857D01*
X331096250Y-94298095D01*
X331143869Y-94345714D01*
X331239107Y-94393333D01*
X331381964Y-94393333D01*
X331477202Y-94345714D01*
X331524821Y-94298095D01*
X331572440Y-94202857D01*
X331572440Y-93821904D01*
X331143869Y-94774285D02*
X331096250Y-94821904D01*
X331048630Y-94917142D01*
X331048630Y-95155238D01*
X331096250Y-95250476D01*
X331143869Y-95298095D01*
X331239107Y-95345714D01*
X331334345Y-95345714D01*
X331477202Y-95298095D01*
X332048630Y-94726666D01*
X332048630Y-95345714D01*
X284392380Y-66571964D02*
X283392380Y-66571964D01*
X283392380Y-66810059D01*
X283440000Y-66952916D01*
X283535238Y-67048154D01*
X283630476Y-67095773D01*
X283820952Y-67143392D01*
X283963809Y-67143392D01*
X284154285Y-67095773D01*
X284249523Y-67048154D01*
X284344761Y-66952916D01*
X284392380Y-66810059D01*
X284392380Y-66571964D01*
X283487619Y-67524345D02*
X283440000Y-67571964D01*
X283392380Y-67667202D01*
X283392380Y-67905297D01*
X283440000Y-68000535D01*
X283487619Y-68048154D01*
X283582857Y-68095773D01*
X283678095Y-68095773D01*
X283820952Y-68048154D01*
X284392380Y-67476726D01*
X284392380Y-68095773D01*
X284392380Y-68571964D02*
X284392380Y-68762440D01*
X284344761Y-68857678D01*
X284297142Y-68905297D01*
X284154285Y-69000535D01*
X283963809Y-69048154D01*
X283582857Y-69048154D01*
X283487619Y-69000535D01*
X283440000Y-68952916D01*
X283392380Y-68857678D01*
X283392380Y-68667202D01*
X283440000Y-68571964D01*
X283487619Y-68524345D01*
X283582857Y-68476726D01*
X283820952Y-68476726D01*
X283916190Y-68524345D01*
X283963809Y-68571964D01*
X284011428Y-68667202D01*
X284011428Y-68857678D01*
X283963809Y-68952916D01*
X283916190Y-69000535D01*
X283820952Y-69048154D01*
X366604880Y-39984464D02*
X365604880Y-39984464D01*
X365604880Y-40222559D01*
X365652500Y-40365416D01*
X365747738Y-40460654D01*
X365842976Y-40508273D01*
X366033452Y-40555892D01*
X366176309Y-40555892D01*
X366366785Y-40508273D01*
X366462023Y-40460654D01*
X366557261Y-40365416D01*
X366604880Y-40222559D01*
X366604880Y-39984464D01*
X366604880Y-41508273D02*
X366604880Y-40936845D01*
X366604880Y-41222559D02*
X365604880Y-41222559D01*
X365747738Y-41127321D01*
X365842976Y-41032083D01*
X365890595Y-40936845D01*
X365604880Y-42413035D02*
X365604880Y-41936845D01*
X366081071Y-41889226D01*
X366033452Y-41936845D01*
X365985833Y-42032083D01*
X365985833Y-42270178D01*
X366033452Y-42365416D01*
X366081071Y-42413035D01*
X366176309Y-42460654D01*
X366414404Y-42460654D01*
X366509642Y-42413035D01*
X366557261Y-42365416D01*
X366604880Y-42270178D01*
X366604880Y-42032083D01*
X366557261Y-41936845D01*
X366509642Y-41889226D01*
X98654880Y-123721964D02*
X97654880Y-123721964D01*
X97654880Y-123960059D01*
X97702500Y-124102916D01*
X97797738Y-124198154D01*
X97892976Y-124245773D01*
X98083452Y-124293392D01*
X98226309Y-124293392D01*
X98416785Y-124245773D01*
X98512023Y-124198154D01*
X98607261Y-124102916D01*
X98654880Y-123960059D01*
X98654880Y-123721964D01*
X97654880Y-125150535D02*
X97654880Y-124960059D01*
X97702500Y-124864821D01*
X97750119Y-124817202D01*
X97892976Y-124721964D01*
X98083452Y-124674345D01*
X98464404Y-124674345D01*
X98559642Y-124721964D01*
X98607261Y-124769583D01*
X98654880Y-124864821D01*
X98654880Y-125055297D01*
X98607261Y-125150535D01*
X98559642Y-125198154D01*
X98464404Y-125245773D01*
X98226309Y-125245773D01*
X98131071Y-125198154D01*
X98083452Y-125150535D01*
X98035833Y-125055297D01*
X98035833Y-124864821D01*
X98083452Y-124769583D01*
X98131071Y-124721964D01*
X98226309Y-124674345D01*
X97654880Y-126150535D02*
X97654880Y-125674345D01*
X98131071Y-125626726D01*
X98083452Y-125674345D01*
X98035833Y-125769583D01*
X98035833Y-126007678D01*
X98083452Y-126102916D01*
X98131071Y-126150535D01*
X98226309Y-126198154D01*
X98464404Y-126198154D01*
X98559642Y-126150535D01*
X98607261Y-126102916D01*
X98654880Y-126007678D01*
X98654880Y-125769583D01*
X98607261Y-125674345D01*
X98559642Y-125626726D01*
X355131666Y-105357142D02*
X355179285Y-105404761D01*
X355322142Y-105452380D01*
X355417380Y-105452380D01*
X355560238Y-105404761D01*
X355655476Y-105309523D01*
X355703095Y-105214285D01*
X355750714Y-105023809D01*
X355750714Y-104880952D01*
X355703095Y-104690476D01*
X355655476Y-104595238D01*
X355560238Y-104500000D01*
X355417380Y-104452380D01*
X355322142Y-104452380D01*
X355179285Y-104500000D01*
X355131666Y-104547619D01*
X354798333Y-104452380D02*
X354131666Y-104452380D01*
X354560238Y-105452380D01*
X177236130Y-142771964D02*
X176236130Y-142771964D01*
X176236130Y-143010059D01*
X176283750Y-143152916D01*
X176378988Y-143248154D01*
X176474226Y-143295773D01*
X176664702Y-143343392D01*
X176807559Y-143343392D01*
X176998035Y-143295773D01*
X177093273Y-143248154D01*
X177188511Y-143152916D01*
X177236130Y-143010059D01*
X177236130Y-142771964D01*
X176664702Y-143914821D02*
X176617083Y-143819583D01*
X176569464Y-143771964D01*
X176474226Y-143724345D01*
X176426607Y-143724345D01*
X176331369Y-143771964D01*
X176283750Y-143819583D01*
X176236130Y-143914821D01*
X176236130Y-144105297D01*
X176283750Y-144200535D01*
X176331369Y-144248154D01*
X176426607Y-144295773D01*
X176474226Y-144295773D01*
X176569464Y-144248154D01*
X176617083Y-144200535D01*
X176664702Y-144105297D01*
X176664702Y-143914821D01*
X176712321Y-143819583D01*
X176759940Y-143771964D01*
X176855178Y-143724345D01*
X177045654Y-143724345D01*
X177140892Y-143771964D01*
X177188511Y-143819583D01*
X177236130Y-143914821D01*
X177236130Y-144105297D01*
X177188511Y-144200535D01*
X177140892Y-144248154D01*
X177045654Y-144295773D01*
X176855178Y-144295773D01*
X176759940Y-144248154D01*
X176712321Y-144200535D01*
X176664702Y-144105297D01*
X176236130Y-144914821D02*
X176236130Y-145010059D01*
X176283750Y-145105297D01*
X176331369Y-145152916D01*
X176426607Y-145200535D01*
X176617083Y-145248154D01*
X176855178Y-145248154D01*
X177045654Y-145200535D01*
X177140892Y-145152916D01*
X177188511Y-145105297D01*
X177236130Y-145010059D01*
X177236130Y-144914821D01*
X177188511Y-144819583D01*
X177140892Y-144771964D01*
X177045654Y-144724345D01*
X176855178Y-144676726D01*
X176617083Y-144676726D01*
X176426607Y-144724345D01*
X176331369Y-144771964D01*
X176283750Y-144819583D01*
X176236130Y-144914821D01*
X155754880Y-85384464D02*
X154754880Y-85384464D01*
X154754880Y-85622559D01*
X154802500Y-85765416D01*
X154897738Y-85860654D01*
X154992976Y-85908273D01*
X155183452Y-85955892D01*
X155326309Y-85955892D01*
X155516785Y-85908273D01*
X155612023Y-85860654D01*
X155707261Y-85765416D01*
X155754880Y-85622559D01*
X155754880Y-85384464D01*
X154754880Y-86289226D02*
X154754880Y-86908273D01*
X155135833Y-86574940D01*
X155135833Y-86717797D01*
X155183452Y-86813035D01*
X155231071Y-86860654D01*
X155326309Y-86908273D01*
X155564404Y-86908273D01*
X155659642Y-86860654D01*
X155707261Y-86813035D01*
X155754880Y-86717797D01*
X155754880Y-86432083D01*
X155707261Y-86336845D01*
X155659642Y-86289226D01*
X155754880Y-87384464D02*
X155754880Y-87574940D01*
X155707261Y-87670178D01*
X155659642Y-87717797D01*
X155516785Y-87813035D01*
X155326309Y-87860654D01*
X154945357Y-87860654D01*
X154850119Y-87813035D01*
X154802500Y-87765416D01*
X154754880Y-87670178D01*
X154754880Y-87479702D01*
X154802500Y-87384464D01*
X154850119Y-87336845D01*
X154945357Y-87289226D01*
X155183452Y-87289226D01*
X155278690Y-87336845D01*
X155326309Y-87384464D01*
X155373928Y-87479702D01*
X155373928Y-87670178D01*
X155326309Y-87765416D01*
X155278690Y-87813035D01*
X155183452Y-87860654D01*
X338462916Y-30138630D02*
X338796250Y-29662440D01*
X339034345Y-30138630D02*
X339034345Y-29138630D01*
X338653392Y-29138630D01*
X338558154Y-29186250D01*
X338510535Y-29233869D01*
X338462916Y-29329107D01*
X338462916Y-29471964D01*
X338510535Y-29567202D01*
X338558154Y-29614821D01*
X338653392Y-29662440D01*
X339034345Y-29662440D01*
X337605773Y-29471964D02*
X337605773Y-30138630D01*
X337843869Y-29091011D02*
X338081964Y-29805297D01*
X337462916Y-29805297D01*
X347298630Y-66496964D02*
X346298630Y-66496964D01*
X346298630Y-66735059D01*
X346346250Y-66877916D01*
X346441488Y-66973154D01*
X346536726Y-67020773D01*
X346727202Y-67068392D01*
X346870059Y-67068392D01*
X347060535Y-67020773D01*
X347155773Y-66973154D01*
X347251011Y-66877916D01*
X347298630Y-66735059D01*
X347298630Y-66496964D01*
X346298630Y-67401726D02*
X346298630Y-68020773D01*
X346679583Y-67687440D01*
X346679583Y-67830297D01*
X346727202Y-67925535D01*
X346774821Y-67973154D01*
X346870059Y-68020773D01*
X347108154Y-68020773D01*
X347203392Y-67973154D01*
X347251011Y-67925535D01*
X347298630Y-67830297D01*
X347298630Y-67544583D01*
X347251011Y-67449345D01*
X347203392Y-67401726D01*
X347298630Y-68973154D02*
X347298630Y-68401726D01*
X347298630Y-68687440D02*
X346298630Y-68687440D01*
X346441488Y-68592202D01*
X346536726Y-68496964D01*
X346584345Y-68401726D01*
X151042380Y-66571964D02*
X150042380Y-66571964D01*
X150042380Y-66810059D01*
X150090000Y-66952916D01*
X150185238Y-67048154D01*
X150280476Y-67095773D01*
X150470952Y-67143392D01*
X150613809Y-67143392D01*
X150804285Y-67095773D01*
X150899523Y-67048154D01*
X150994761Y-66952916D01*
X151042380Y-66810059D01*
X151042380Y-66571964D01*
X150137619Y-67524345D02*
X150090000Y-67571964D01*
X150042380Y-67667202D01*
X150042380Y-67905297D01*
X150090000Y-68000535D01*
X150137619Y-68048154D01*
X150232857Y-68095773D01*
X150328095Y-68095773D01*
X150470952Y-68048154D01*
X151042380Y-67476726D01*
X151042380Y-68095773D01*
X150137619Y-68476726D02*
X150090000Y-68524345D01*
X150042380Y-68619583D01*
X150042380Y-68857678D01*
X150090000Y-68952916D01*
X150137619Y-69000535D01*
X150232857Y-69048154D01*
X150328095Y-69048154D01*
X150470952Y-69000535D01*
X151042380Y-68429107D01*
X151042380Y-69048154D01*
X74842380Y-66771964D02*
X73842380Y-66771964D01*
X73842380Y-67010059D01*
X73890000Y-67152916D01*
X73985238Y-67248154D01*
X74080476Y-67295773D01*
X74270952Y-67343392D01*
X74413809Y-67343392D01*
X74604285Y-67295773D01*
X74699523Y-67248154D01*
X74794761Y-67152916D01*
X74842380Y-67010059D01*
X74842380Y-66771964D01*
X74842380Y-68295773D02*
X74842380Y-67724345D01*
X74842380Y-68010059D02*
X73842380Y-68010059D01*
X73985238Y-67914821D01*
X74080476Y-67819583D01*
X74128095Y-67724345D01*
X74270952Y-68867202D02*
X74223333Y-68771964D01*
X74175714Y-68724345D01*
X74080476Y-68676726D01*
X74032857Y-68676726D01*
X73937619Y-68724345D01*
X73890000Y-68771964D01*
X73842380Y-68867202D01*
X73842380Y-69057678D01*
X73890000Y-69152916D01*
X73937619Y-69200535D01*
X74032857Y-69248154D01*
X74080476Y-69248154D01*
X74175714Y-69200535D01*
X74223333Y-69152916D01*
X74270952Y-69057678D01*
X74270952Y-68867202D01*
X74318571Y-68771964D01*
X74366190Y-68724345D01*
X74461428Y-68676726D01*
X74651904Y-68676726D01*
X74747142Y-68724345D01*
X74794761Y-68771964D01*
X74842380Y-68867202D01*
X74842380Y-69057678D01*
X74794761Y-69152916D01*
X74747142Y-69200535D01*
X74651904Y-69248154D01*
X74461428Y-69248154D01*
X74366190Y-69200535D01*
X74318571Y-69152916D01*
X74270952Y-69057678D01*
X131992380Y-40060654D02*
X130992380Y-40060654D01*
X130992380Y-40298750D01*
X131040000Y-40441607D01*
X131135238Y-40536845D01*
X131230476Y-40584464D01*
X131420952Y-40632083D01*
X131563809Y-40632083D01*
X131754285Y-40584464D01*
X131849523Y-40536845D01*
X131944761Y-40441607D01*
X131992380Y-40298750D01*
X131992380Y-40060654D01*
X131325714Y-41489226D02*
X131992380Y-41489226D01*
X130944761Y-41251130D02*
X131659047Y-41013035D01*
X131659047Y-41632083D01*
X310648630Y-104671964D02*
X309648630Y-104671964D01*
X309648630Y-104910059D01*
X309696250Y-105052916D01*
X309791488Y-105148154D01*
X309886726Y-105195773D01*
X310077202Y-105243392D01*
X310220059Y-105243392D01*
X310410535Y-105195773D01*
X310505773Y-105148154D01*
X310601011Y-105052916D01*
X310648630Y-104910059D01*
X310648630Y-104671964D01*
X309648630Y-106100535D02*
X309648630Y-105910059D01*
X309696250Y-105814821D01*
X309743869Y-105767202D01*
X309886726Y-105671964D01*
X310077202Y-105624345D01*
X310458154Y-105624345D01*
X310553392Y-105671964D01*
X310601011Y-105719583D01*
X310648630Y-105814821D01*
X310648630Y-106005297D01*
X310601011Y-106100535D01*
X310553392Y-106148154D01*
X310458154Y-106195773D01*
X310220059Y-106195773D01*
X310124821Y-106148154D01*
X310077202Y-106100535D01*
X310029583Y-106005297D01*
X310029583Y-105814821D01*
X310077202Y-105719583D01*
X310124821Y-105671964D01*
X310220059Y-105624345D01*
X309648630Y-106529107D02*
X309648630Y-107148154D01*
X310029583Y-106814821D01*
X310029583Y-106957678D01*
X310077202Y-107052916D01*
X310124821Y-107100535D01*
X310220059Y-107148154D01*
X310458154Y-107148154D01*
X310553392Y-107100535D01*
X310601011Y-107052916D01*
X310648630Y-106957678D01*
X310648630Y-106671964D01*
X310601011Y-106576726D01*
X310553392Y-106529107D01*
X328886666Y-97127142D02*
X328934285Y-97174761D01*
X329077142Y-97222380D01*
X329172380Y-97222380D01*
X329315238Y-97174761D01*
X329410476Y-97079523D01*
X329458095Y-96984285D01*
X329505714Y-96793809D01*
X329505714Y-96650952D01*
X329458095Y-96460476D01*
X329410476Y-96365238D01*
X329315238Y-96270000D01*
X329172380Y-96222380D01*
X329077142Y-96222380D01*
X328934285Y-96270000D01*
X328886666Y-96317619D01*
X327981904Y-96222380D02*
X328458095Y-96222380D01*
X328505714Y-96698571D01*
X328458095Y-96650952D01*
X328362857Y-96603333D01*
X328124761Y-96603333D01*
X328029523Y-96650952D01*
X327981904Y-96698571D01*
X327934285Y-96793809D01*
X327934285Y-97031904D01*
X327981904Y-97127142D01*
X328029523Y-97174761D01*
X328124761Y-97222380D01*
X328362857Y-97222380D01*
X328458095Y-97174761D01*
X328505714Y-97127142D01*
X111942380Y-39960654D02*
X110942380Y-39960654D01*
X110942380Y-40198750D01*
X110990000Y-40341607D01*
X111085238Y-40436845D01*
X111180476Y-40484464D01*
X111370952Y-40532083D01*
X111513809Y-40532083D01*
X111704285Y-40484464D01*
X111799523Y-40436845D01*
X111894761Y-40341607D01*
X111942380Y-40198750D01*
X111942380Y-39960654D01*
X110942380Y-40865416D02*
X110942380Y-41484464D01*
X111323333Y-41151130D01*
X111323333Y-41293988D01*
X111370952Y-41389226D01*
X111418571Y-41436845D01*
X111513809Y-41484464D01*
X111751904Y-41484464D01*
X111847142Y-41436845D01*
X111894761Y-41389226D01*
X111942380Y-41293988D01*
X111942380Y-41008273D01*
X111894761Y-40913035D01*
X111847142Y-40865416D01*
X93892380Y-66571964D02*
X92892380Y-66571964D01*
X92892380Y-66810059D01*
X92940000Y-66952916D01*
X93035238Y-67048154D01*
X93130476Y-67095773D01*
X93320952Y-67143392D01*
X93463809Y-67143392D01*
X93654285Y-67095773D01*
X93749523Y-67048154D01*
X93844761Y-66952916D01*
X93892380Y-66810059D01*
X93892380Y-66571964D01*
X93892380Y-68095773D02*
X93892380Y-67524345D01*
X93892380Y-67810059D02*
X92892380Y-67810059D01*
X93035238Y-67714821D01*
X93130476Y-67619583D01*
X93178095Y-67524345D01*
X93892380Y-68571964D02*
X93892380Y-68762440D01*
X93844761Y-68857678D01*
X93797142Y-68905297D01*
X93654285Y-69000535D01*
X93463809Y-69048154D01*
X93082857Y-69048154D01*
X92987619Y-69000535D01*
X92940000Y-68952916D01*
X92892380Y-68857678D01*
X92892380Y-68667202D01*
X92940000Y-68571964D01*
X92987619Y-68524345D01*
X93082857Y-68476726D01*
X93320952Y-68476726D01*
X93416190Y-68524345D01*
X93463809Y-68571964D01*
X93511428Y-68667202D01*
X93511428Y-68857678D01*
X93463809Y-68952916D01*
X93416190Y-69000535D01*
X93320952Y-69048154D01*
X322442380Y-40184464D02*
X321442380Y-40184464D01*
X321442380Y-40422559D01*
X321490000Y-40565416D01*
X321585238Y-40660654D01*
X321680476Y-40708273D01*
X321870952Y-40755892D01*
X322013809Y-40755892D01*
X322204285Y-40708273D01*
X322299523Y-40660654D01*
X322394761Y-40565416D01*
X322442380Y-40422559D01*
X322442380Y-40184464D01*
X322442380Y-41708273D02*
X322442380Y-41136845D01*
X322442380Y-41422559D02*
X321442380Y-41422559D01*
X321585238Y-41327321D01*
X321680476Y-41232083D01*
X321728095Y-41136845D01*
X321442380Y-42041607D02*
X321442380Y-42660654D01*
X321823333Y-42327321D01*
X321823333Y-42470178D01*
X321870952Y-42565416D01*
X321918571Y-42613035D01*
X322013809Y-42660654D01*
X322251904Y-42660654D01*
X322347142Y-42613035D01*
X322394761Y-42565416D01*
X322442380Y-42470178D01*
X322442380Y-42184464D01*
X322394761Y-42089226D01*
X322347142Y-42041607D01*
X165392380Y-104671964D02*
X164392380Y-104671964D01*
X164392380Y-104910059D01*
X164440000Y-105052916D01*
X164535238Y-105148154D01*
X164630476Y-105195773D01*
X164820952Y-105243392D01*
X164963809Y-105243392D01*
X165154285Y-105195773D01*
X165249523Y-105148154D01*
X165344761Y-105052916D01*
X165392380Y-104910059D01*
X165392380Y-104671964D01*
X164392380Y-106148154D02*
X164392380Y-105671964D01*
X164868571Y-105624345D01*
X164820952Y-105671964D01*
X164773333Y-105767202D01*
X164773333Y-106005297D01*
X164820952Y-106100535D01*
X164868571Y-106148154D01*
X164963809Y-106195773D01*
X165201904Y-106195773D01*
X165297142Y-106148154D01*
X165344761Y-106100535D01*
X165392380Y-106005297D01*
X165392380Y-105767202D01*
X165344761Y-105671964D01*
X165297142Y-105624345D01*
X164392380Y-107052916D02*
X164392380Y-106862440D01*
X164440000Y-106767202D01*
X164487619Y-106719583D01*
X164630476Y-106624345D01*
X164820952Y-106576726D01*
X165201904Y-106576726D01*
X165297142Y-106624345D01*
X165344761Y-106671964D01*
X165392380Y-106767202D01*
X165392380Y-106957678D01*
X165344761Y-107052916D01*
X165297142Y-107100535D01*
X165201904Y-107148154D01*
X164963809Y-107148154D01*
X164868571Y-107100535D01*
X164820952Y-107052916D01*
X164773333Y-106957678D01*
X164773333Y-106767202D01*
X164820952Y-106671964D01*
X164868571Y-106624345D01*
X164963809Y-106576726D01*
X136704880Y-85384464D02*
X135704880Y-85384464D01*
X135704880Y-85622559D01*
X135752500Y-85765416D01*
X135847738Y-85860654D01*
X135942976Y-85908273D01*
X136133452Y-85955892D01*
X136276309Y-85955892D01*
X136466785Y-85908273D01*
X136562023Y-85860654D01*
X136657261Y-85765416D01*
X136704880Y-85622559D01*
X136704880Y-85384464D01*
X135704880Y-86289226D02*
X135704880Y-86908273D01*
X136085833Y-86574940D01*
X136085833Y-86717797D01*
X136133452Y-86813035D01*
X136181071Y-86860654D01*
X136276309Y-86908273D01*
X136514404Y-86908273D01*
X136609642Y-86860654D01*
X136657261Y-86813035D01*
X136704880Y-86717797D01*
X136704880Y-86432083D01*
X136657261Y-86336845D01*
X136609642Y-86289226D01*
X136133452Y-87479702D02*
X136085833Y-87384464D01*
X136038214Y-87336845D01*
X135942976Y-87289226D01*
X135895357Y-87289226D01*
X135800119Y-87336845D01*
X135752500Y-87384464D01*
X135704880Y-87479702D01*
X135704880Y-87670178D01*
X135752500Y-87765416D01*
X135800119Y-87813035D01*
X135895357Y-87860654D01*
X135942976Y-87860654D01*
X136038214Y-87813035D01*
X136085833Y-87765416D01*
X136133452Y-87670178D01*
X136133452Y-87479702D01*
X136181071Y-87384464D01*
X136228690Y-87336845D01*
X136323928Y-87289226D01*
X136514404Y-87289226D01*
X136609642Y-87336845D01*
X136657261Y-87384464D01*
X136704880Y-87479702D01*
X136704880Y-87670178D01*
X136657261Y-87765416D01*
X136609642Y-87813035D01*
X136514404Y-87860654D01*
X136323928Y-87860654D01*
X136228690Y-87813035D01*
X136181071Y-87765416D01*
X136133452Y-87670178D01*
X62998630Y-104671964D02*
X61998630Y-104671964D01*
X61998630Y-104910059D01*
X62046250Y-105052916D01*
X62141488Y-105148154D01*
X62236726Y-105195773D01*
X62427202Y-105243392D01*
X62570059Y-105243392D01*
X62760535Y-105195773D01*
X62855773Y-105148154D01*
X62951011Y-105052916D01*
X62998630Y-104910059D01*
X62998630Y-104671964D01*
X61998630Y-106148154D02*
X61998630Y-105671964D01*
X62474821Y-105624345D01*
X62427202Y-105671964D01*
X62379583Y-105767202D01*
X62379583Y-106005297D01*
X62427202Y-106100535D01*
X62474821Y-106148154D01*
X62570059Y-106195773D01*
X62808154Y-106195773D01*
X62903392Y-106148154D01*
X62951011Y-106100535D01*
X62998630Y-106005297D01*
X62998630Y-105767202D01*
X62951011Y-105671964D01*
X62903392Y-105624345D01*
X62998630Y-107148154D02*
X62998630Y-106576726D01*
X62998630Y-106862440D02*
X61998630Y-106862440D01*
X62141488Y-106767202D01*
X62236726Y-106671964D01*
X62284345Y-106576726D01*
X193604880Y-85703214D02*
X192604880Y-85703214D01*
X192604880Y-85941309D01*
X192652500Y-86084166D01*
X192747738Y-86179404D01*
X192842976Y-86227023D01*
X193033452Y-86274642D01*
X193176309Y-86274642D01*
X193366785Y-86227023D01*
X193462023Y-86179404D01*
X193557261Y-86084166D01*
X193604880Y-85941309D01*
X193604880Y-85703214D01*
X192938214Y-87131785D02*
X193604880Y-87131785D01*
X192557261Y-86893690D02*
X193271547Y-86655595D01*
X193271547Y-87274642D01*
X193604880Y-88179404D02*
X193604880Y-87607976D01*
X193604880Y-87893690D02*
X192604880Y-87893690D01*
X192747738Y-87798452D01*
X192842976Y-87703214D01*
X192890595Y-87607976D01*
X227242380Y-66571964D02*
X226242380Y-66571964D01*
X226242380Y-66810059D01*
X226290000Y-66952916D01*
X226385238Y-67048154D01*
X226480476Y-67095773D01*
X226670952Y-67143392D01*
X226813809Y-67143392D01*
X227004285Y-67095773D01*
X227099523Y-67048154D01*
X227194761Y-66952916D01*
X227242380Y-66810059D01*
X227242380Y-66571964D01*
X226337619Y-67524345D02*
X226290000Y-67571964D01*
X226242380Y-67667202D01*
X226242380Y-67905297D01*
X226290000Y-68000535D01*
X226337619Y-68048154D01*
X226432857Y-68095773D01*
X226528095Y-68095773D01*
X226670952Y-68048154D01*
X227242380Y-67476726D01*
X227242380Y-68095773D01*
X226242380Y-68952916D02*
X226242380Y-68762440D01*
X226290000Y-68667202D01*
X226337619Y-68619583D01*
X226480476Y-68524345D01*
X226670952Y-68476726D01*
X227051904Y-68476726D01*
X227147142Y-68524345D01*
X227194761Y-68571964D01*
X227242380Y-68667202D01*
X227242380Y-68857678D01*
X227194761Y-68952916D01*
X227147142Y-69000535D01*
X227051904Y-69048154D01*
X226813809Y-69048154D01*
X226718571Y-69000535D01*
X226670952Y-68952916D01*
X226623333Y-68857678D01*
X226623333Y-68667202D01*
X226670952Y-68571964D01*
X226718571Y-68524345D01*
X226813809Y-68476726D01*
X58173630Y-142771964D02*
X57173630Y-142771964D01*
X57173630Y-143010059D01*
X57221250Y-143152916D01*
X57316488Y-143248154D01*
X57411726Y-143295773D01*
X57602202Y-143343392D01*
X57745059Y-143343392D01*
X57935535Y-143295773D01*
X58030773Y-143248154D01*
X58126011Y-143152916D01*
X58173630Y-143010059D01*
X58173630Y-142771964D01*
X57173630Y-143676726D02*
X57173630Y-144343392D01*
X58173630Y-143914821D01*
X57173630Y-144629107D02*
X57173630Y-145295773D01*
X58173630Y-144867202D01*
X212954880Y-123721964D02*
X211954880Y-123721964D01*
X211954880Y-123960059D01*
X212002500Y-124102916D01*
X212097738Y-124198154D01*
X212192976Y-124245773D01*
X212383452Y-124293392D01*
X212526309Y-124293392D01*
X212716785Y-124245773D01*
X212812023Y-124198154D01*
X212907261Y-124102916D01*
X212954880Y-123960059D01*
X212954880Y-123721964D01*
X211954880Y-124626726D02*
X211954880Y-125293392D01*
X212954880Y-124864821D01*
X212954880Y-126198154D02*
X212954880Y-125626726D01*
X212954880Y-125912440D02*
X211954880Y-125912440D01*
X212097738Y-125817202D01*
X212192976Y-125721964D01*
X212240595Y-125626726D01*
X339256666Y-117355892D02*
X339304285Y-117403511D01*
X339447142Y-117451130D01*
X339542380Y-117451130D01*
X339685238Y-117403511D01*
X339780476Y-117308273D01*
X339828095Y-117213035D01*
X339875714Y-117022559D01*
X339875714Y-116879702D01*
X339828095Y-116689226D01*
X339780476Y-116593988D01*
X339685238Y-116498750D01*
X339542380Y-116451130D01*
X339447142Y-116451130D01*
X339304285Y-116498750D01*
X339256666Y-116546369D01*
X338923333Y-116451130D02*
X338304285Y-116451130D01*
X338637619Y-116832083D01*
X338494761Y-116832083D01*
X338399523Y-116879702D01*
X338351904Y-116927321D01*
X338304285Y-117022559D01*
X338304285Y-117260654D01*
X338351904Y-117355892D01*
X338399523Y-117403511D01*
X338494761Y-117451130D01*
X338780476Y-117451130D01*
X338875714Y-117403511D01*
X338923333Y-117355892D01*
X385198630Y-142771964D02*
X384198630Y-142771964D01*
X384198630Y-143010059D01*
X384246250Y-143152916D01*
X384341488Y-143248154D01*
X384436726Y-143295773D01*
X384627202Y-143343392D01*
X384770059Y-143343392D01*
X384960535Y-143295773D01*
X385055773Y-143248154D01*
X385151011Y-143152916D01*
X385198630Y-143010059D01*
X385198630Y-142771964D01*
X384627202Y-143914821D02*
X384579583Y-143819583D01*
X384531964Y-143771964D01*
X384436726Y-143724345D01*
X384389107Y-143724345D01*
X384293869Y-143771964D01*
X384246250Y-143819583D01*
X384198630Y-143914821D01*
X384198630Y-144105297D01*
X384246250Y-144200535D01*
X384293869Y-144248154D01*
X384389107Y-144295773D01*
X384436726Y-144295773D01*
X384531964Y-144248154D01*
X384579583Y-144200535D01*
X384627202Y-144105297D01*
X384627202Y-143914821D01*
X384674821Y-143819583D01*
X384722440Y-143771964D01*
X384817678Y-143724345D01*
X385008154Y-143724345D01*
X385103392Y-143771964D01*
X385151011Y-143819583D01*
X385198630Y-143914821D01*
X385198630Y-144105297D01*
X385151011Y-144200535D01*
X385103392Y-144248154D01*
X385008154Y-144295773D01*
X384817678Y-144295773D01*
X384722440Y-144248154D01*
X384674821Y-144200535D01*
X384627202Y-144105297D01*
X384198630Y-144629107D02*
X384198630Y-145295773D01*
X385198630Y-144867202D01*
X357036666Y-95582380D02*
X357370000Y-95106190D01*
X357608095Y-95582380D02*
X357608095Y-94582380D01*
X357227142Y-94582380D01*
X357131904Y-94630000D01*
X357084285Y-94677619D01*
X357036666Y-94772857D01*
X357036666Y-94915714D01*
X357084285Y-95010952D01*
X357131904Y-95058571D01*
X357227142Y-95106190D01*
X357608095Y-95106190D01*
X356084285Y-95582380D02*
X356655714Y-95582380D01*
X356370000Y-95582380D02*
X356370000Y-94582380D01*
X356465238Y-94725238D01*
X356560476Y-94820476D01*
X356655714Y-94868095D01*
X174804880Y-85384464D02*
X173804880Y-85384464D01*
X173804880Y-85622559D01*
X173852500Y-85765416D01*
X173947738Y-85860654D01*
X174042976Y-85908273D01*
X174233452Y-85955892D01*
X174376309Y-85955892D01*
X174566785Y-85908273D01*
X174662023Y-85860654D01*
X174757261Y-85765416D01*
X174804880Y-85622559D01*
X174804880Y-85384464D01*
X174138214Y-86813035D02*
X174804880Y-86813035D01*
X173757261Y-86574940D02*
X174471547Y-86336845D01*
X174471547Y-86955892D01*
X173804880Y-87527321D02*
X173804880Y-87622559D01*
X173852500Y-87717797D01*
X173900119Y-87765416D01*
X173995357Y-87813035D01*
X174185833Y-87860654D01*
X174423928Y-87860654D01*
X174614404Y-87813035D01*
X174709642Y-87765416D01*
X174757261Y-87717797D01*
X174804880Y-87622559D01*
X174804880Y-87527321D01*
X174757261Y-87432083D01*
X174709642Y-87384464D01*
X174614404Y-87336845D01*
X174423928Y-87289226D01*
X174185833Y-87289226D01*
X173995357Y-87336845D01*
X173900119Y-87384464D01*
X173852500Y-87432083D01*
X173804880Y-87527321D01*
D11*
X76102500Y-88848750D02*
X76102500Y-84948750D01*
X78102500Y-88848750D02*
X78102500Y-84948750D01*
X78102500Y-88848750D02*
X76102500Y-88848750D01*
X206740000Y-70036250D02*
X204740000Y-70036250D01*
X206740000Y-70036250D02*
X206740000Y-66136250D01*
X204740000Y-70036250D02*
X204740000Y-66136250D01*
X192452500Y-127186250D02*
X190452500Y-127186250D01*
X192452500Y-127186250D02*
X192452500Y-123286250D01*
X190452500Y-127186250D02*
X190452500Y-123286250D01*
X318658750Y-146236250D02*
X318658750Y-142336250D01*
X316658750Y-146236250D02*
X316658750Y-142336250D01*
X318658750Y-146236250D02*
X316658750Y-146236250D01*
X285652500Y-88848750D02*
X285652500Y-84948750D01*
X287652500Y-88848750D02*
X285652500Y-88848750D01*
X287652500Y-88848750D02*
X287652500Y-84948750D01*
X331692936Y-115475000D02*
X332147064Y-115475000D01*
X331692936Y-116945000D02*
X332147064Y-116945000D01*
X232521250Y-43048750D02*
X232521250Y-39148750D01*
X234521250Y-43048750D02*
X234521250Y-39148750D01*
X234521250Y-43048750D02*
X232521250Y-43048750D01*
X364580000Y-97560000D02*
X361680000Y-97560000D01*
X364580000Y-92120000D02*
X361680000Y-92120000D01*
X360410000Y-95880000D02*
X360410000Y-93800000D01*
X364580000Y-97560000D02*
X365070000Y-97070000D01*
X365850000Y-95880000D02*
X365850000Y-93800000D01*
X361680000Y-97560000D02*
X361190000Y-97070000D01*
X364580000Y-92120000D02*
X365070000Y-92610000D01*
X361680000Y-92120000D02*
X361190000Y-92610000D01*
X383746250Y-43448750D02*
X381746250Y-43448750D01*
X381746250Y-43448750D02*
X381746250Y-39548750D01*
X383746250Y-43448750D02*
X383746250Y-39548750D01*
X230502500Y-88848750D02*
X230502500Y-84948750D01*
X228502500Y-88848750D02*
X228502500Y-84948750D01*
X230502500Y-88848750D02*
X228502500Y-88848750D01*
X202040000Y-108136250D02*
X200040000Y-108136250D01*
X200040000Y-108136250D02*
X200040000Y-104236250D01*
X202040000Y-108136250D02*
X202040000Y-104236250D01*
X247602500Y-127186250D02*
X247602500Y-123286250D01*
X249602500Y-127186250D02*
X247602500Y-127186250D01*
X249602500Y-127186250D02*
X249602500Y-123286250D01*
X328528748Y-102785000D02*
X329051252Y-102785000D01*
X328528748Y-101315000D02*
X329051252Y-101315000D01*
X106790000Y-108136250D02*
X104790000Y-108136250D01*
X104790000Y-108136250D02*
X104790000Y-104236250D01*
X106790000Y-108136250D02*
X106790000Y-104236250D01*
X362696250Y-127186250D02*
X362696250Y-123286250D01*
X364696250Y-127186250D02*
X362696250Y-127186250D01*
X364696250Y-127186250D02*
X364696250Y-123286250D01*
X78533750Y-146236250D02*
X78533750Y-142336250D01*
X80533750Y-146236250D02*
X80533750Y-142336250D01*
X80533750Y-146236250D02*
X78533750Y-146236250D01*
X221090000Y-108136250D02*
X219090000Y-108136250D01*
X219090000Y-108136250D02*
X219090000Y-104236250D01*
X221090000Y-108136250D02*
X221090000Y-104236250D01*
X304371250Y-127186250D02*
X304371250Y-123286250D01*
X304371250Y-127186250D02*
X302371250Y-127186250D01*
X302371250Y-127186250D02*
X302371250Y-123286250D01*
X343028748Y-24740000D02*
X343551252Y-24740000D01*
X343028748Y-23320000D02*
X343551252Y-23320000D01*
X53871250Y-88886250D02*
X53871250Y-84986250D01*
X55871250Y-88886250D02*
X55871250Y-84986250D01*
X55871250Y-88886250D02*
X53871250Y-88886250D01*
X111490000Y-70036250D02*
X109490000Y-70036250D01*
X109490000Y-70036250D02*
X109490000Y-66136250D01*
X111490000Y-70036250D02*
X111490000Y-66136250D01*
X364596250Y-88686250D02*
X362596250Y-88686250D01*
X364596250Y-88686250D02*
X364596250Y-84786250D01*
X362596250Y-88686250D02*
X362596250Y-84786250D01*
X185690000Y-70036250D02*
X185690000Y-66136250D01*
X187690000Y-70036250D02*
X185690000Y-70036250D01*
X187690000Y-70036250D02*
X187690000Y-66136250D01*
X347952500Y-110967500D02*
X347952500Y-105567500D01*
X352452500Y-110967500D02*
X347952500Y-110967500D01*
X133302500Y-127186250D02*
X133302500Y-123286250D01*
X135302500Y-127186250D02*
X135302500Y-123286250D01*
X135302500Y-127186250D02*
X133302500Y-127186250D01*
X355226252Y-110590000D02*
X354703748Y-110590000D01*
X355226252Y-109120000D02*
X354703748Y-109120000D01*
X259190000Y-108136250D02*
X257190000Y-108136250D01*
X259190000Y-108136250D02*
X259190000Y-104236250D01*
X257190000Y-108136250D02*
X257190000Y-104236250D01*
X345746250Y-89286250D02*
X345746250Y-85386250D01*
X343746250Y-89286250D02*
X343746250Y-85386250D01*
X345746250Y-89286250D02*
X343746250Y-89286250D01*
X240140000Y-108136250D02*
X240140000Y-104236250D01*
X238140000Y-108136250D02*
X238140000Y-104236250D01*
X240140000Y-108136250D02*
X238140000Y-108136250D01*
X173402500Y-127186250D02*
X171402500Y-127186250D01*
X173402500Y-127186250D02*
X173402500Y-123286250D01*
X171402500Y-127186250D02*
X171402500Y-123286250D01*
X166640000Y-70036250D02*
X166640000Y-66136250D01*
X168640000Y-70036250D02*
X166640000Y-70036250D01*
X168640000Y-70036250D02*
X168640000Y-66136250D01*
X149590000Y-43048750D02*
X149590000Y-39148750D01*
X149590000Y-43048750D02*
X147590000Y-43048750D01*
X147590000Y-43048750D02*
X147590000Y-39148750D01*
D10*
X332417858Y-113442500D02*
X332417858Y-112767500D01*
X332417858Y-113442500D02*
X333092858Y-113442500D01*
X342767858Y-103092500D02*
X342092858Y-103092500D01*
X332417858Y-103092500D02*
X332992858Y-103092500D01*
X342767858Y-113442500D02*
X342092858Y-113442500D01*
X332992858Y-103092500D02*
X332992858Y-101817500D01*
X332417858Y-103092500D02*
X332417858Y-103767500D01*
X342767858Y-103092500D02*
X342767858Y-103767500D01*
X342767858Y-113442500D02*
X342767858Y-112767500D01*
D11*
X142890000Y-108136250D02*
X142890000Y-104236250D01*
X144890000Y-108136250D02*
X144890000Y-104236250D01*
X144890000Y-108136250D02*
X142890000Y-108136250D01*
X345646250Y-146236250D02*
X345646250Y-142336250D01*
X343646250Y-146236250D02*
X343646250Y-142336250D01*
X345646250Y-146236250D02*
X343646250Y-146236250D01*
X97152500Y-88848750D02*
X95152500Y-88848750D01*
X97152500Y-88848750D02*
X97152500Y-84948750D01*
X95152500Y-88848750D02*
X95152500Y-84948750D01*
X330585814Y-27363750D02*
X330131686Y-27363750D01*
X330585814Y-28833750D02*
X330131686Y-28833750D01*
X271033750Y-146236250D02*
X269033750Y-146236250D01*
X271033750Y-146236250D02*
X271033750Y-142336250D01*
X269033750Y-146236250D02*
X269033750Y-142336250D01*
X345702500Y-43648750D02*
X345702500Y-39748750D01*
X345702500Y-43648750D02*
X343702500Y-43648750D01*
X343702500Y-43648750D02*
X343702500Y-39748750D01*
X130540000Y-70036250D02*
X130540000Y-66136250D01*
X130540000Y-70036250D02*
X128540000Y-70036250D01*
X128540000Y-70036250D02*
X128540000Y-66136250D01*
X331450000Y-34640436D02*
X331450000Y-35844564D01*
X329630000Y-34640436D02*
X329630000Y-35844564D01*
X347880000Y-102972502D02*
X347880000Y-102449998D01*
X349350000Y-102972502D02*
X349350000Y-102449998D01*
X52340000Y-70242500D02*
X52340000Y-66342500D01*
X54340000Y-70242500D02*
X54340000Y-66342500D01*
X54340000Y-70242500D02*
X52340000Y-70242500D01*
X264196250Y-43448750D02*
X262196250Y-43448750D01*
X264196250Y-43448750D02*
X264196250Y-39548750D01*
X262196250Y-43448750D02*
X262196250Y-39548750D01*
D10*
X334920000Y-34320000D02*
X333620000Y-34320000D01*
X334920000Y-31420000D02*
X334920000Y-34320000D01*
X333620000Y-31420000D02*
X333620000Y-34320000D01*
X333620000Y-31420000D02*
X334920000Y-31420000D01*
D11*
X116202500Y-88848750D02*
X114202500Y-88848750D01*
X116202500Y-88848750D02*
X116202500Y-84948750D01*
X114202500Y-88848750D02*
X114202500Y-84948750D01*
X215471250Y-43048750D02*
X215471250Y-39148750D01*
X213471250Y-43048750D02*
X213471250Y-39148750D01*
X215471250Y-43048750D02*
X213471250Y-43048750D01*
X91146250Y-42355000D02*
X91146250Y-38455000D01*
X91146250Y-42355000D02*
X89146250Y-42355000D01*
X89146250Y-42355000D02*
X89146250Y-38455000D01*
D12*
X350660000Y-92220000D02*
X345660000Y-92220000D01*
X345660000Y-94720000D02*
X350660000Y-94720000D01*
X350660000Y-94720000D02*
X350660000Y-92220000D01*
X345660000Y-92220000D02*
X345660000Y-94720000D01*
D11*
X104346250Y-146236250D02*
X102346250Y-146236250D01*
X102346250Y-146236250D02*
X102346250Y-142336250D01*
X104346250Y-146236250D02*
X104346250Y-142336250D01*
X177371250Y-43048750D02*
X175371250Y-43048750D01*
X177371250Y-43048750D02*
X177371250Y-39148750D01*
X175371250Y-43048750D02*
X175371250Y-39148750D01*
X365046250Y-70036250D02*
X365046250Y-66136250D01*
X363046250Y-70036250D02*
X363046250Y-66136250D01*
X365046250Y-70036250D02*
X363046250Y-70036250D01*
X114252500Y-127186250D02*
X114252500Y-123286250D01*
X116252500Y-127186250D02*
X114252500Y-127186250D01*
X116252500Y-127186250D02*
X116252500Y-123286250D01*
X196421250Y-43048750D02*
X196421250Y-39148750D01*
X196421250Y-43048750D02*
X194421250Y-43048750D01*
X194421250Y-43048750D02*
X194421250Y-39148750D01*
X266602500Y-88848750D02*
X266602500Y-84948750D01*
X268602500Y-88848750D02*
X268602500Y-84948750D01*
X268602500Y-88848750D02*
X266602500Y-88848750D01*
X154352500Y-127186250D02*
X154352500Y-123286250D01*
X154352500Y-127186250D02*
X152352500Y-127186250D01*
X152352500Y-127186250D02*
X152352500Y-123286250D01*
X66246250Y-127186250D02*
X64246250Y-127186250D01*
X64246250Y-127186250D02*
X64246250Y-123286250D01*
X66246250Y-127186250D02*
X66246250Y-123286250D01*
X283296250Y-43448750D02*
X281296250Y-43448750D01*
X281296250Y-43448750D02*
X281296250Y-39548750D01*
X283296250Y-43448750D02*
X283296250Y-39548750D01*
X278240000Y-108136250D02*
X276240000Y-108136250D01*
X278240000Y-108136250D02*
X278240000Y-104236250D01*
X276240000Y-108136250D02*
X276240000Y-104236250D01*
X263890000Y-70036250D02*
X261890000Y-70036250D01*
X263890000Y-70036250D02*
X263890000Y-66136250D01*
X261890000Y-70036250D02*
X261890000Y-66136250D01*
X292846250Y-146236250D02*
X292846250Y-142336250D01*
X294846250Y-146236250D02*
X292846250Y-146236250D01*
X294846250Y-146236250D02*
X294846250Y-142336250D01*
X209452500Y-88848750D02*
X209452500Y-84948750D01*
X211452500Y-88848750D02*
X209452500Y-88848750D01*
X211452500Y-88848750D02*
X211452500Y-84948750D01*
X87740000Y-108136250D02*
X87740000Y-104236250D01*
X85740000Y-108136250D02*
X85740000Y-104236250D01*
X87740000Y-108136250D02*
X85740000Y-108136250D01*
X244840000Y-70036250D02*
X244840000Y-66136250D01*
X242840000Y-70036250D02*
X242840000Y-66136250D01*
X244840000Y-70036250D02*
X242840000Y-70036250D01*
X228552500Y-127186250D02*
X228552500Y-123286250D01*
X230552500Y-127186250D02*
X230552500Y-123286250D01*
X230552500Y-127186250D02*
X228552500Y-127186250D01*
X336025000Y-94332936D02*
X336025000Y-94787064D01*
X334555000Y-94332936D02*
X334555000Y-94787064D01*
X313846250Y-88848750D02*
X313846250Y-84948750D01*
X313846250Y-88848750D02*
X311846250Y-88848750D01*
X311846250Y-88848750D02*
X311846250Y-84948750D01*
X309515000Y-70036250D02*
X309515000Y-66136250D01*
X311515000Y-70036250D02*
X309515000Y-70036250D01*
X311515000Y-70036250D02*
X311515000Y-66136250D01*
X381746250Y-89086250D02*
X381746250Y-85186250D01*
X383746250Y-89086250D02*
X381746250Y-89086250D01*
X383746250Y-89086250D02*
X383746250Y-85186250D01*
X247221250Y-146236250D02*
X245221250Y-146236250D01*
X245221250Y-146236250D02*
X245221250Y-142336250D01*
X247221250Y-146236250D02*
X247221250Y-142336250D01*
X266652500Y-127186250D02*
X266652500Y-123286250D01*
X268652500Y-127186250D02*
X268652500Y-123286250D01*
X268652500Y-127186250D02*
X266652500Y-127186250D01*
X329715000Y-112988748D02*
X329715000Y-113511252D01*
X328245000Y-112988748D02*
X328245000Y-113511252D01*
X123840000Y-108136250D02*
X123840000Y-104236250D01*
X125840000Y-108136250D02*
X125840000Y-104236250D01*
X125840000Y-108136250D02*
X123840000Y-108136250D01*
X247552500Y-88848750D02*
X247552500Y-84948750D01*
X249552500Y-88848750D02*
X249552500Y-84948750D01*
X249552500Y-88848750D02*
X247552500Y-88848750D01*
X364696250Y-146236250D02*
X364696250Y-142336250D01*
X362696250Y-146236250D02*
X362696250Y-142336250D01*
X364696250Y-146236250D02*
X362696250Y-146236250D01*
X382096250Y-70036250D02*
X382096250Y-66136250D01*
X384096250Y-70036250D02*
X384096250Y-66136250D01*
X384096250Y-70036250D02*
X382096250Y-70036250D01*
X182990000Y-108136250D02*
X180990000Y-108136250D01*
X182990000Y-108136250D02*
X182990000Y-104236250D01*
X180990000Y-108136250D02*
X180990000Y-104236250D01*
X52952500Y-42405000D02*
X52952500Y-38505000D01*
X50952500Y-42405000D02*
X50952500Y-38505000D01*
X52952500Y-42405000D02*
X50952500Y-42405000D01*
X338188748Y-98095000D02*
X338711252Y-98095000D01*
X338188748Y-99565000D02*
X338711252Y-99565000D01*
X301996250Y-43448750D02*
X301996250Y-39548750D01*
X299996250Y-43448750D02*
X299996250Y-39548750D01*
X301996250Y-43448750D02*
X299996250Y-43448750D01*
X333981250Y-94332936D02*
X333981250Y-94787064D01*
X332511250Y-94332936D02*
X332511250Y-94787064D01*
X282940000Y-70036250D02*
X280940000Y-70036250D01*
X282940000Y-70036250D02*
X282940000Y-66136250D01*
X280940000Y-70036250D02*
X280940000Y-66136250D01*
X365152500Y-43448750D02*
X363152500Y-43448750D01*
X365152500Y-43448750D02*
X365152500Y-39548750D01*
X363152500Y-43448750D02*
X363152500Y-39548750D01*
X97202500Y-127186250D02*
X97202500Y-123286250D01*
X95202500Y-127186250D02*
X95202500Y-123286250D01*
X97202500Y-127186250D02*
X95202500Y-127186250D01*
X355226252Y-107415000D02*
X354703748Y-107415000D01*
X355226252Y-105945000D02*
X354703748Y-105945000D01*
X175783750Y-146236250D02*
X173783750Y-146236250D01*
X173783750Y-146236250D02*
X173783750Y-142336250D01*
X175783750Y-146236250D02*
X175783750Y-142336250D01*
X152302500Y-88848750D02*
X152302500Y-84948750D01*
X154302500Y-88848750D02*
X152302500Y-88848750D01*
X154302500Y-88848750D02*
X154302500Y-84948750D01*
X338069186Y-28833750D02*
X338523314Y-28833750D01*
X338069186Y-27363750D02*
X338523314Y-27363750D01*
X345846250Y-69961250D02*
X345846250Y-66061250D01*
X343846250Y-69961250D02*
X343846250Y-66061250D01*
X345846250Y-69961250D02*
X343846250Y-69961250D01*
X147590000Y-70036250D02*
X147590000Y-66136250D01*
X149590000Y-70036250D02*
X147590000Y-70036250D01*
X149590000Y-70036250D02*
X149590000Y-66136250D01*
X73390000Y-70236250D02*
X71390000Y-70236250D01*
X73390000Y-70236250D02*
X73390000Y-66336250D01*
X71390000Y-70236250D02*
X71390000Y-66336250D01*
X130540000Y-43048750D02*
X128540000Y-43048750D01*
X128540000Y-43048750D02*
X128540000Y-39148750D01*
X130540000Y-43048750D02*
X130540000Y-39148750D01*
X307196250Y-108136250D02*
X307196250Y-104236250D01*
X309196250Y-108136250D02*
X307196250Y-108136250D01*
X309196250Y-108136250D02*
X309196250Y-104236250D01*
X329428748Y-98765000D02*
X329951252Y-98765000D01*
X329428748Y-100235000D02*
X329951252Y-100235000D01*
X110490000Y-42948750D02*
X110490000Y-39048750D01*
X110490000Y-42948750D02*
X108490000Y-42948750D01*
X108490000Y-42948750D02*
X108490000Y-39048750D01*
X92440000Y-70036250D02*
X90440000Y-70036250D01*
X92440000Y-70036250D02*
X92440000Y-66136250D01*
X90440000Y-70036250D02*
X90440000Y-66136250D01*
X318990000Y-43648750D02*
X318990000Y-39748750D01*
X320990000Y-43648750D02*
X318990000Y-43648750D01*
X320990000Y-43648750D02*
X320990000Y-39748750D01*
X163940000Y-108136250D02*
X163940000Y-104236250D01*
X163940000Y-108136250D02*
X161940000Y-108136250D01*
X161940000Y-108136250D02*
X161940000Y-104236250D01*
X133252500Y-88848750D02*
X133252500Y-84948750D01*
X135252500Y-88848750D02*
X135252500Y-84948750D01*
X135252500Y-88848750D02*
X133252500Y-88848750D01*
X59546250Y-108136250D02*
X59546250Y-104236250D01*
X61546250Y-108136250D02*
X59546250Y-108136250D01*
X61546250Y-108136250D02*
X61546250Y-104236250D01*
X192152500Y-89167500D02*
X192152500Y-85267500D01*
X190152500Y-89167500D02*
X190152500Y-85267500D01*
X192152500Y-89167500D02*
X190152500Y-89167500D01*
X225790000Y-70036250D02*
X225790000Y-66136250D01*
X225790000Y-70036250D02*
X223790000Y-70036250D01*
X223790000Y-70036250D02*
X223790000Y-66136250D01*
X56721250Y-146236250D02*
X56721250Y-142336250D01*
X56721250Y-146236250D02*
X54721250Y-146236250D01*
X54721250Y-146236250D02*
X54721250Y-142336250D01*
X211502500Y-127186250D02*
X211502500Y-123286250D01*
X211502500Y-127186250D02*
X209502500Y-127186250D01*
X209502500Y-127186250D02*
X209502500Y-123286250D01*
X342616610Y-116263750D02*
X342094106Y-116263750D01*
X342616610Y-117733750D02*
X342094106Y-117733750D01*
X383746250Y-146236250D02*
X381746250Y-146236250D01*
X383746250Y-146236250D02*
X383746250Y-142336250D01*
X381746250Y-146236250D02*
X381746250Y-142336250D01*
X357097064Y-97515000D02*
X356642936Y-97515000D01*
X357097064Y-96045000D02*
X356642936Y-96045000D01*
X173352500Y-88848750D02*
X171352500Y-88848750D01*
X171352500Y-88848750D02*
X171352500Y-84948750D01*
X173352500Y-88848750D02*
X173352500Y-84948750D01*
%LPC*%
D13*
X141605000Y-82232500D03*
X131445000Y-82232500D03*
D14*
X136525000Y-82232500D03*
D15*
X139065000Y-77152500D03*
X132715000Y-79692500D03*
D13*
X221932500Y-63182500D03*
X232092500Y-63182500D03*
D14*
X227012500Y-63182500D03*
D15*
X229552500Y-58102500D03*
X223202500Y-60642500D03*
D13*
X298132500Y-36512500D03*
D14*
X303212500Y-36512500D03*
D13*
X308292500Y-36512500D03*
D15*
X305752500Y-31432500D03*
X299402500Y-33972500D03*
D14*
X127000000Y-101282500D03*
D13*
X132080000Y-101282500D03*
X121920000Y-101282500D03*
D15*
X129540000Y-96202500D03*
X123190000Y-98742500D03*
D14*
X365918750Y-63182500D03*
D13*
X370998750Y-63182500D03*
X360838750Y-63182500D03*
D15*
X368458750Y-58102500D03*
X362108750Y-60642500D03*
D13*
X198755000Y-82232500D03*
X188595000Y-82232500D03*
D14*
X193675000Y-82232500D03*
D15*
X196215000Y-77152500D03*
X189865000Y-79692500D03*
D14*
X131762500Y-36512500D03*
D13*
X136842500Y-36512500D03*
X126682500Y-36512500D03*
D15*
X134302500Y-31432500D03*
X127952500Y-33972500D03*
D13*
X112395000Y-120332500D03*
X122555000Y-120332500D03*
D14*
X117475000Y-120332500D03*
D15*
X120015000Y-115252500D03*
X113665000Y-117792500D03*
D13*
X274955000Y-120332500D03*
D14*
X269875000Y-120332500D03*
D13*
X264795000Y-120332500D03*
D15*
X272415000Y-115252500D03*
X266065000Y-117792500D03*
D13*
X236855000Y-82232500D03*
X226695000Y-82232500D03*
D14*
X231775000Y-82232500D03*
D15*
X234315000Y-77152500D03*
X227965000Y-79692500D03*
D13*
X324961250Y-139382500D03*
X314801250Y-139382500D03*
D14*
X319881250Y-139382500D03*
D15*
X322421250Y-134302500D03*
X316071250Y-136842500D03*
D13*
X352107500Y-36512500D03*
X341947500Y-36512500D03*
D14*
X347027500Y-36512500D03*
D15*
X349567500Y-31432500D03*
X343217500Y-33972500D03*
D14*
X150812500Y-36512500D03*
D13*
X145732500Y-36512500D03*
X155892500Y-36512500D03*
D15*
X153352500Y-31432500D03*
X147002500Y-33972500D03*
D14*
X246062500Y-63182500D03*
D13*
X251142500Y-63182500D03*
X240982500Y-63182500D03*
D15*
X248602500Y-58102500D03*
X242252500Y-60642500D03*
D14*
X112712500Y-36512500D03*
D13*
X117792500Y-36512500D03*
X107632500Y-36512500D03*
D15*
X115252500Y-31432500D03*
X108902500Y-33972500D03*
D13*
X360838750Y-139382500D03*
D14*
X365918750Y-139382500D03*
D13*
X370998750Y-139382500D03*
D15*
X368458750Y-134302500D03*
X362108750Y-136842500D03*
D13*
X160655000Y-82232500D03*
D14*
X155575000Y-82232500D03*
D13*
X150495000Y-82232500D03*
D15*
X158115000Y-77152500D03*
X151765000Y-79692500D03*
D14*
X235902500Y-36512500D03*
D13*
X240982500Y-36512500D03*
X230822500Y-36512500D03*
D15*
X238442500Y-31432500D03*
X232092500Y-33972500D03*
D14*
X197802500Y-36512500D03*
D13*
X192722500Y-36512500D03*
X202882500Y-36512500D03*
D15*
X200342500Y-31432500D03*
X193992500Y-33972500D03*
D13*
X301148750Y-139382500D03*
X290988750Y-139382500D03*
D14*
X296068750Y-139382500D03*
D15*
X298608750Y-134302500D03*
X292258750Y-136842500D03*
D13*
X86836250Y-139382500D03*
X76676250Y-139382500D03*
D14*
X81756250Y-139382500D03*
D15*
X84296250Y-134302500D03*
X77946250Y-136842500D03*
D14*
X131762500Y-63182500D03*
D13*
X136842500Y-63182500D03*
X126682500Y-63182500D03*
D15*
X134302500Y-58102500D03*
X127952500Y-60642500D03*
D13*
X117792500Y-63182500D03*
D14*
X112712500Y-63182500D03*
D13*
X107632500Y-63182500D03*
D15*
X115252500Y-58102500D03*
X108902500Y-60642500D03*
D13*
X274320000Y-101282500D03*
X284480000Y-101282500D03*
D14*
X279400000Y-101282500D03*
D15*
X281940000Y-96202500D03*
X275590000Y-98742500D03*
D13*
X255905000Y-82232500D03*
X245745000Y-82232500D03*
D14*
X250825000Y-82232500D03*
D15*
X253365000Y-77152500D03*
X247015000Y-79692500D03*
D14*
X105568750Y-139382500D03*
D13*
X100488750Y-139382500D03*
X110648750Y-139382500D03*
D15*
X108108750Y-134302500D03*
X101758750Y-136842500D03*
D14*
X260350000Y-101282500D03*
D13*
X265430000Y-101282500D03*
X255270000Y-101282500D03*
D15*
X262890000Y-96202500D03*
X256540000Y-98742500D03*
D14*
X117475000Y-82232500D03*
D13*
X112395000Y-82232500D03*
X122555000Y-82232500D03*
D15*
X120015000Y-77152500D03*
X113665000Y-79692500D03*
D14*
X384968750Y-139382500D03*
D13*
X390048750Y-139382500D03*
X379888750Y-139382500D03*
D15*
X387508750Y-134302500D03*
X381158750Y-136842500D03*
D13*
X279082500Y-36512500D03*
X289242500Y-36512500D03*
D14*
X284162500Y-36512500D03*
D15*
X286702500Y-31432500D03*
X280352500Y-33972500D03*
D13*
X140970000Y-101282500D03*
X151130000Y-101282500D03*
D14*
X146050000Y-101282500D03*
D15*
X148590000Y-96202500D03*
X142240000Y-98742500D03*
D13*
X93980000Y-101282500D03*
X83820000Y-101282500D03*
D14*
X88900000Y-101282500D03*
D15*
X91440000Y-96202500D03*
X85090000Y-98742500D03*
D14*
X107950000Y-101282500D03*
D13*
X102870000Y-101282500D03*
X113030000Y-101282500D03*
D15*
X110490000Y-96202500D03*
X104140000Y-98742500D03*
D14*
X136525000Y-120332500D03*
D13*
X141605000Y-120332500D03*
X131445000Y-120332500D03*
D15*
X139065000Y-115252500D03*
X132715000Y-117792500D03*
D13*
X341788750Y-82232500D03*
X351948750Y-82232500D03*
D14*
X346868750Y-82232500D03*
D15*
X349408750Y-77152500D03*
X343058750Y-79692500D03*
D13*
X236855000Y-120332500D03*
X226695000Y-120332500D03*
D14*
X231775000Y-120332500D03*
D15*
X234315000Y-115252500D03*
X227965000Y-117792500D03*
D13*
X294005000Y-82232500D03*
X283845000Y-82232500D03*
D14*
X288925000Y-82232500D03*
D15*
X291465000Y-77152500D03*
X285115000Y-79692500D03*
D14*
X366077500Y-36512500D03*
D13*
X371157500Y-36512500D03*
X360997500Y-36512500D03*
D15*
X368617500Y-31432500D03*
X362267500Y-33972500D03*
D14*
X322262500Y-36512500D03*
D13*
X327342500Y-36512500D03*
X317182500Y-36512500D03*
D15*
X324802500Y-31432500D03*
X318452500Y-33972500D03*
D13*
X98742500Y-36512500D03*
D14*
X93662500Y-36512500D03*
D13*
X88582500Y-36512500D03*
D15*
X96202500Y-31432500D03*
X89852500Y-33972500D03*
D13*
X160020000Y-101282500D03*
X170180000Y-101282500D03*
D14*
X165100000Y-101282500D03*
D15*
X167640000Y-96202500D03*
X161290000Y-98742500D03*
D13*
X188595000Y-120332500D03*
X198755000Y-120332500D03*
D14*
X193675000Y-120332500D03*
D15*
X196215000Y-115252500D03*
X189865000Y-117792500D03*
D13*
X198120000Y-101282500D03*
X208280000Y-101282500D03*
D14*
X203200000Y-101282500D03*
D15*
X205740000Y-96202500D03*
X199390000Y-98742500D03*
D13*
X174942500Y-63182500D03*
X164782500Y-63182500D03*
D14*
X169862500Y-63182500D03*
D15*
X172402500Y-58102500D03*
X166052500Y-60642500D03*
D14*
X212725000Y-82232500D03*
D13*
X217805000Y-82232500D03*
X207645000Y-82232500D03*
D15*
X215265000Y-77152500D03*
X208915000Y-79692500D03*
D13*
X390048750Y-63182500D03*
D14*
X384968750Y-63182500D03*
D13*
X379888750Y-63182500D03*
D15*
X387508750Y-58102500D03*
X381158750Y-60642500D03*
D13*
X145732500Y-63182500D03*
X155892500Y-63182500D03*
D14*
X150812500Y-63182500D03*
D15*
X153352500Y-58102500D03*
X147002500Y-60642500D03*
D13*
X264795000Y-82232500D03*
X274955000Y-82232500D03*
D14*
X269875000Y-82232500D03*
D15*
X272415000Y-77152500D03*
X266065000Y-79692500D03*
D13*
X179705000Y-120332500D03*
X169545000Y-120332500D03*
D14*
X174625000Y-120332500D03*
D15*
X177165000Y-115252500D03*
X170815000Y-117792500D03*
D14*
X55572500Y-128592500D03*
X67472500Y-120352500D03*
X79372500Y-128592500D03*
D16*
X55572500Y-113352500D03*
D13*
X62392500Y-120352500D03*
D16*
X79372500Y-113352500D03*
D13*
X72552500Y-120352500D03*
D15*
X70012500Y-115272500D03*
X63662500Y-117812500D03*
D14*
X93662500Y-63182500D03*
D13*
X88582500Y-63182500D03*
X98742500Y-63182500D03*
D15*
X96202500Y-58102500D03*
X89852500Y-60642500D03*
D13*
X160655000Y-120332500D03*
X150495000Y-120332500D03*
D14*
X155575000Y-120332500D03*
D15*
X158115000Y-115252500D03*
X151765000Y-117792500D03*
D13*
X69532500Y-63182500D03*
D14*
X74612500Y-63182500D03*
D13*
X79692500Y-63182500D03*
D15*
X77152500Y-58102500D03*
X70802500Y-60642500D03*
D13*
X103505000Y-120332500D03*
X93345000Y-120332500D03*
D14*
X98425000Y-120332500D03*
D15*
X100965000Y-115252500D03*
X94615000Y-117792500D03*
D14*
X222250000Y-101282500D03*
D13*
X217170000Y-101282500D03*
X227330000Y-101282500D03*
D15*
X224790000Y-96202500D03*
X218440000Y-98742500D03*
D14*
X57943750Y-139382500D03*
D13*
X63023750Y-139382500D03*
X52863750Y-139382500D03*
D15*
X60483750Y-134302500D03*
X54133750Y-136842500D03*
D13*
X84455000Y-82232500D03*
D14*
X79375000Y-82232500D03*
D13*
X74295000Y-82232500D03*
D15*
X81915000Y-77152500D03*
X75565000Y-79692500D03*
D14*
X365918750Y-120332500D03*
D13*
X370998750Y-120332500D03*
X360838750Y-120332500D03*
D15*
X368458750Y-115252500D03*
X362108750Y-117792500D03*
D13*
X57626250Y-101282500D03*
D14*
X62706250Y-101282500D03*
D13*
X67786250Y-101282500D03*
D15*
X65246250Y-96202500D03*
X58896250Y-98742500D03*
D13*
X320198750Y-82232500D03*
D14*
X315118750Y-82232500D03*
D13*
X310038750Y-82232500D03*
D15*
X317658750Y-77152500D03*
X311308750Y-79692500D03*
D13*
X270192500Y-36512500D03*
D14*
X265112500Y-36512500D03*
D13*
X260032500Y-36512500D03*
D15*
X267652500Y-31432500D03*
X261302500Y-33972500D03*
D13*
X50482500Y-36512500D03*
X60642500Y-36512500D03*
D14*
X55562500Y-36512500D03*
D15*
X58102500Y-31432500D03*
X51752500Y-33972500D03*
D13*
X360838750Y-82232500D03*
X370998750Y-82232500D03*
D14*
X365918750Y-82232500D03*
D15*
X368458750Y-77152500D03*
X362108750Y-79692500D03*
D14*
X127025300Y-147607300D03*
D16*
X127025300Y-132367300D03*
D14*
X227025300Y-147607300D03*
D13*
X182105300Y-139367300D03*
X171945300Y-139367300D03*
D14*
X177025300Y-139367300D03*
D16*
X227025300Y-132367300D03*
D15*
X179565300Y-134287300D03*
X173215300Y-136827300D03*
D14*
X174625000Y-82232500D03*
D13*
X179705000Y-82232500D03*
X169545000Y-82232500D03*
D15*
X177165000Y-77152500D03*
X170815000Y-79692500D03*
D14*
X384968750Y-82232500D03*
D13*
X390048750Y-82232500D03*
X379888750Y-82232500D03*
D15*
X387508750Y-77152500D03*
X381158750Y-79692500D03*
D13*
X217805000Y-120332500D03*
X207645000Y-120332500D03*
D14*
X212725000Y-120332500D03*
D15*
X215265000Y-115252500D03*
X208915000Y-117792500D03*
D14*
X188912500Y-63182500D03*
D13*
X193992500Y-63182500D03*
X183832500Y-63182500D03*
D15*
X191452500Y-58102500D03*
X185102500Y-60642500D03*
D13*
X351948750Y-139382500D03*
X341788750Y-139382500D03*
D14*
X346868750Y-139382500D03*
D15*
X349408750Y-134302500D03*
X343058750Y-136842500D03*
D14*
X207962500Y-63182500D03*
D13*
X202882500Y-63182500D03*
X213042500Y-63182500D03*
D15*
X210502500Y-58102500D03*
X204152500Y-60642500D03*
D13*
X63023750Y-82232500D03*
X52863750Y-82232500D03*
D14*
X57943750Y-82232500D03*
D15*
X60483750Y-77152500D03*
X54133750Y-79692500D03*
D13*
X211772500Y-36512500D03*
X221932500Y-36512500D03*
D14*
X216852500Y-36512500D03*
D15*
X219392500Y-31432500D03*
X213042500Y-33972500D03*
D13*
X243363750Y-139382500D03*
D14*
X248443750Y-139382500D03*
D13*
X253523750Y-139382500D03*
D15*
X250983750Y-134302500D03*
X244633750Y-136842500D03*
D14*
X293693750Y-128572500D03*
X305593750Y-120332500D03*
X317493750Y-128572500D03*
D16*
X293693750Y-113332500D03*
X317493750Y-113332500D03*
D13*
X310673750Y-120332500D03*
X300513750Y-120332500D03*
D15*
X308133750Y-115252500D03*
X301783750Y-117792500D03*
D13*
X270192500Y-63182500D03*
D14*
X265112500Y-63182500D03*
D13*
X260032500Y-63182500D03*
D15*
X267652500Y-58102500D03*
X261302500Y-60642500D03*
D13*
X317792100Y-63192700D03*
D16*
X324612100Y-56192700D03*
D14*
X324612100Y-71432700D03*
X300812100Y-71432700D03*
D16*
X300812100Y-56192700D03*
D13*
X307632100Y-63192700D03*
D14*
X312712100Y-63192700D03*
D15*
X315252100Y-58112700D03*
X308902100Y-60652700D03*
D13*
X380047500Y-36512500D03*
D14*
X385127500Y-36512500D03*
D13*
X390207500Y-36512500D03*
D15*
X387667500Y-31432500D03*
X381317500Y-33972500D03*
D13*
X50482500Y-63182500D03*
X60642500Y-63182500D03*
D14*
X55562500Y-63182500D03*
D15*
X58102500Y-58102500D03*
X51752500Y-60642500D03*
D13*
X277332500Y-139392500D03*
X267172500Y-139392500D03*
D14*
X272252500Y-139392500D03*
D15*
X274792500Y-134312500D03*
X268442500Y-136852500D03*
D14*
X346868750Y-63182500D03*
D13*
X341788750Y-63182500D03*
X351948750Y-63182500D03*
D15*
X349408750Y-58102500D03*
X343058750Y-60642500D03*
D14*
X250825000Y-120332500D03*
D13*
X245745000Y-120332500D03*
X255905000Y-120332500D03*
D15*
X253365000Y-115252500D03*
X247015000Y-117792500D03*
D13*
X236220000Y-101282500D03*
X246380000Y-101282500D03*
D14*
X241300000Y-101282500D03*
D15*
X243840000Y-96202500D03*
X237490000Y-98742500D03*
D14*
X284162500Y-63182500D03*
D13*
X279082500Y-63182500D03*
X289242500Y-63182500D03*
D15*
X286702500Y-58102500D03*
X280352500Y-60642500D03*
D14*
X184150000Y-101282500D03*
D13*
X179070000Y-101282500D03*
X189230000Y-101282500D03*
D15*
X186690000Y-96202500D03*
X180340000Y-98742500D03*
D13*
X183832500Y-36512500D03*
X173672500Y-36512500D03*
D14*
X178752500Y-36512500D03*
D15*
X181292500Y-31432500D03*
X174942500Y-33972500D03*
D16*
X322256250Y-94282500D03*
D14*
X310356250Y-101282500D03*
D16*
X298456250Y-94282500D03*
D13*
X305276250Y-101282500D03*
D14*
X322256250Y-109522500D03*
D13*
X315436250Y-101282500D03*
D14*
X298456250Y-109522500D03*
D15*
X312896250Y-96202500D03*
X306546250Y-98742500D03*
D14*
X98425000Y-82232500D03*
D13*
X103505000Y-82232500D03*
X93345000Y-82232500D03*
D15*
X100965000Y-77152500D03*
X94615000Y-79692500D03*
D17*
X77102500Y-88248750D03*
X77102500Y-84948750D03*
X205740000Y-69436250D03*
X205740000Y-66136250D03*
X191452500Y-126586250D03*
X191452500Y-123286250D03*
X317658750Y-145636250D03*
X317658750Y-142336250D03*
X286652500Y-88248750D03*
X286652500Y-84948750D03*
D18*
X330920000Y-116210000D03*
X332920000Y-116210000D03*
D17*
X233521250Y-42448750D03*
X233521250Y-39148750D03*
D19*
X360030000Y-92990000D03*
X366230000Y-92990000D03*
X366230000Y-96690000D03*
X360030000Y-96690000D03*
D17*
X382746250Y-42848750D03*
X382746250Y-39548750D03*
X229502500Y-88248750D03*
X229502500Y-84948750D03*
X201040000Y-107536250D03*
X201040000Y-104236250D03*
X248602500Y-126586250D03*
X248602500Y-123286250D03*
D20*
X327752500Y-102050000D03*
X329827500Y-102050000D03*
D17*
X105790000Y-107536250D03*
X105790000Y-104236250D03*
X363696250Y-126586250D03*
X363696250Y-123286250D03*
X79533750Y-145636250D03*
X79533750Y-142336250D03*
X220090000Y-107536250D03*
X220090000Y-104236250D03*
X303371250Y-126586250D03*
X303371250Y-123286250D03*
D21*
X342265000Y-24030000D03*
X344315000Y-24030000D03*
D17*
X54871250Y-88286250D03*
X54871250Y-84986250D03*
X110490000Y-69436250D03*
X110490000Y-66136250D03*
X363596250Y-88086250D03*
X363596250Y-84786250D03*
X186690000Y-69436250D03*
X186690000Y-66136250D03*
D22*
X349052500Y-109717500D03*
X349052500Y-106817500D03*
X351352500Y-106817500D03*
X351352500Y-109717500D03*
D17*
X134302500Y-126586250D03*
X134302500Y-123286250D03*
D23*
X356002500Y-109855000D03*
X353927500Y-109855000D03*
D17*
X258190000Y-107536250D03*
X258190000Y-104236250D03*
X344746250Y-88686250D03*
X344746250Y-85386250D03*
X239140000Y-107536250D03*
X239140000Y-104236250D03*
X172402500Y-126586250D03*
X172402500Y-123286250D03*
X167640000Y-69436250D03*
X167640000Y-66136250D03*
X148590000Y-42448750D03*
X148590000Y-39148750D03*
D24*
X333592858Y-102567500D03*
X334392858Y-102567500D03*
X335192858Y-102567500D03*
X335992858Y-102567500D03*
X336792858Y-102567500D03*
X337592858Y-102567500D03*
X338392858Y-102567500D03*
X339192858Y-102567500D03*
X339992858Y-102567500D03*
X340792858Y-102567500D03*
X341592858Y-102567500D03*
D25*
X343292858Y-104267500D03*
X343292858Y-105067500D03*
X343292858Y-105867500D03*
X343292858Y-106667500D03*
X343292858Y-107467500D03*
X343292858Y-108267500D03*
X343292858Y-109067500D03*
X343292858Y-109867500D03*
X343292858Y-110667500D03*
X343292858Y-111467500D03*
X343292858Y-112267500D03*
D24*
X341592858Y-113967500D03*
X340792858Y-113967500D03*
X339992858Y-113967500D03*
X339192858Y-113967500D03*
X338392858Y-113967500D03*
X337592858Y-113967500D03*
X336792858Y-113967500D03*
X335992858Y-113967500D03*
X335192858Y-113967500D03*
X334392858Y-113967500D03*
X333592858Y-113967500D03*
D25*
X331892858Y-112267500D03*
X331892858Y-111467500D03*
X331892858Y-110667500D03*
X331892858Y-109867500D03*
X331892858Y-109067500D03*
X331892858Y-108267500D03*
X331892858Y-107467500D03*
X331892858Y-106667500D03*
X331892858Y-105867500D03*
X331892858Y-105067500D03*
X331892858Y-104267500D03*
D17*
X143890000Y-107536250D03*
X143890000Y-104236250D03*
X344646250Y-145636250D03*
X344646250Y-142336250D03*
X96152500Y-88248750D03*
X96152500Y-84948750D03*
D26*
X331358750Y-28098750D03*
X329358750Y-28098750D03*
D17*
X270033750Y-145636250D03*
X270033750Y-142336250D03*
X344702500Y-43048750D03*
X344702500Y-39748750D03*
X129540000Y-69436250D03*
X129540000Y-66136250D03*
D27*
X330540000Y-33755000D03*
X330540000Y-36730000D03*
D28*
X348615000Y-103748750D03*
X348615000Y-101673750D03*
D17*
X53340000Y-69642500D03*
X53340000Y-66342500D03*
X263196250Y-42848750D03*
X263196250Y-39548750D03*
D29*
X335270000Y-32120000D03*
D30*
X335270000Y-33820000D03*
X333270000Y-33820000D03*
X333270000Y-31920000D03*
D17*
X115202500Y-88248750D03*
X115202500Y-84948750D03*
X214471250Y-42448750D03*
X214471250Y-39148750D03*
X90146250Y-41755000D03*
X90146250Y-38455000D03*
D31*
X349430000Y-93430000D03*
D13*
X346890000Y-93430000D03*
X349430000Y-95970000D03*
X346890000Y-95970000D03*
X349430000Y-98510000D03*
X346890000Y-98510000D03*
D17*
X103346250Y-145636250D03*
X103346250Y-142336250D03*
X176371250Y-42448750D03*
X176371250Y-39148750D03*
X364046250Y-69436250D03*
X364046250Y-66136250D03*
X115252500Y-126586250D03*
X115252500Y-123286250D03*
X195421250Y-42448750D03*
X195421250Y-39148750D03*
X267602500Y-88248750D03*
X267602500Y-84948750D03*
X153352500Y-126586250D03*
X153352500Y-123286250D03*
X65246250Y-126586250D03*
X65246250Y-123286250D03*
D32*
X331437500Y-22620000D03*
X337217500Y-22620000D03*
D33*
X331102500Y-24565000D03*
X331877500Y-24565000D03*
D34*
X332577500Y-24565000D03*
X333077500Y-24565000D03*
X333577500Y-24565000D03*
X334077500Y-24565000D03*
X334577500Y-24565000D03*
X335077500Y-24565000D03*
X335577500Y-24565000D03*
X336077500Y-24565000D03*
D33*
X336777500Y-24565000D03*
X337552500Y-24565000D03*
D17*
X282296250Y-42848750D03*
X282296250Y-39548750D03*
X277240000Y-107536250D03*
X277240000Y-104236250D03*
X262890000Y-69436250D03*
X262890000Y-66136250D03*
X293846250Y-145636250D03*
X293846250Y-142336250D03*
X210452500Y-88248750D03*
X210452500Y-84948750D03*
X86740000Y-107536250D03*
X86740000Y-104236250D03*
X243840000Y-69436250D03*
X243840000Y-66136250D03*
X229552500Y-126586250D03*
X229552500Y-123286250D03*
D35*
X335290000Y-93560000D03*
X335290000Y-95560000D03*
D17*
X312846250Y-88248750D03*
X312846250Y-84948750D03*
X310515000Y-69436250D03*
X310515000Y-66136250D03*
X382746250Y-88486250D03*
X382746250Y-85186250D03*
X246221250Y-145636250D03*
X246221250Y-142336250D03*
X267652500Y-126586250D03*
X267652500Y-123286250D03*
D36*
X328980000Y-112212500D03*
X328980000Y-114287500D03*
D17*
X124840000Y-107536250D03*
X124840000Y-104236250D03*
X248552500Y-88248750D03*
X248552500Y-84948750D03*
X363696250Y-145636250D03*
X363696250Y-142336250D03*
X383096250Y-69436250D03*
X383096250Y-66136250D03*
X181990000Y-107536250D03*
X181990000Y-104236250D03*
X51952500Y-41805000D03*
X51952500Y-38505000D03*
D20*
X337412500Y-98830000D03*
X339487500Y-98830000D03*
D17*
X300996250Y-42848750D03*
X300996250Y-39548750D03*
D35*
X333246250Y-93560000D03*
X333246250Y-95560000D03*
D17*
X281940000Y-69436250D03*
X281940000Y-66136250D03*
X364152500Y-42848750D03*
X364152500Y-39548750D03*
X96202500Y-126586250D03*
X96202500Y-123286250D03*
D23*
X356002500Y-106680000D03*
X353927500Y-106680000D03*
D17*
X174783750Y-145636250D03*
X174783750Y-142336250D03*
X153302500Y-88248750D03*
X153302500Y-84948750D03*
D18*
X337296250Y-28098750D03*
X339296250Y-28098750D03*
D17*
X344846250Y-69361250D03*
X344846250Y-66061250D03*
X148590000Y-69436250D03*
X148590000Y-66136250D03*
X72390000Y-69636250D03*
X72390000Y-66336250D03*
X129540000Y-42448750D03*
X129540000Y-39148750D03*
X308196250Y-107536250D03*
X308196250Y-104236250D03*
D20*
X328652500Y-99500000D03*
X330727500Y-99500000D03*
D17*
X109490000Y-42348750D03*
X109490000Y-39048750D03*
X91440000Y-69436250D03*
X91440000Y-66136250D03*
X319990000Y-43048750D03*
X319990000Y-39748750D03*
X162940000Y-107536250D03*
X162940000Y-104236250D03*
X134252500Y-88248750D03*
X134252500Y-84948750D03*
X60546250Y-107536250D03*
X60546250Y-104236250D03*
X191152500Y-88567500D03*
X191152500Y-85267500D03*
X224790000Y-69436250D03*
X224790000Y-66136250D03*
X55721250Y-145636250D03*
X55721250Y-142336250D03*
X210502500Y-126586250D03*
X210502500Y-123286250D03*
D23*
X343392858Y-116998750D03*
X341317858Y-116998750D03*
D17*
X382746250Y-145636250D03*
X382746250Y-142336250D03*
D26*
X357870000Y-96780000D03*
X355870000Y-96780000D03*
D17*
X172352500Y-88248750D03*
X172352500Y-84948750D03*
M02*
