G04 #@! TF.GenerationSoftware,KiCad,Pcbnew,(6.0.10)*
G04 #@! TF.CreationDate,2023-01-08T00:12:10-05:00*
G04 #@! TF.ProjectId,2ndKeyboard,326e644b-6579-4626-9f61-72642e6b6963,rev?*
G04 #@! TF.SameCoordinates,Original*
G04 #@! TF.FileFunction,Soldermask,Bot*
G04 #@! TF.FilePolarity,Negative*
%FSLAX46Y46*%
G04 Gerber Fmt 4.6, Leading zero omitted, Abs format (unit mm)*
G04 Created by KiCad (PCBNEW (6.0.10)) date 2023-01-08 00:12:10*
%MOMM*%
%LPD*%
G01*
G04 APERTURE LIST*
G04 Aperture macros list*
%AMRoundRect*
0 Rectangle with rounded corners*
0 $1 Rounding radius*
0 $2 $3 $4 $5 $6 $7 $8 $9 X,Y pos of 4 corners*
0 Add a 4 corners polygon primitive as box body*
4,1,4,$2,$3,$4,$5,$6,$7,$8,$9,$2,$3,0*
0 Add four circle primitives for the rounded corners*
1,1,$1+$1,$2,$3*
1,1,$1+$1,$4,$5*
1,1,$1+$1,$6,$7*
1,1,$1+$1,$8,$9*
0 Add four rect primitives between the rounded corners*
20,1,$1+$1,$2,$3,$4,$5,0*
20,1,$1+$1,$4,$5,$6,$7,0*
20,1,$1+$1,$6,$7,$8,$9,0*
20,1,$1+$1,$8,$9,$2,$3,0*%
G04 Aperture macros list end*
%ADD10R,0.700000X1.000000*%
%ADD11R,0.700000X0.600000*%
%ADD12C,4.000000*%
%ADD13C,1.700000*%
%ADD14C,2.200000*%
%ADD15R,0.550000X1.500000*%
%ADD16R,1.500000X0.550000*%
%ADD17R,1.200000X0.900000*%
%ADD18RoundRect,0.250000X0.337500X0.475000X-0.337500X0.475000X-0.337500X-0.475000X0.337500X-0.475000X0*%
%ADD19R,1.800000X1.100000*%
%ADD20RoundRect,0.250000X-0.325000X-0.450000X0.325000X-0.450000X0.325000X0.450000X-0.325000X0.450000X0*%
%ADD21R,1.800000X2.100000*%
%ADD22RoundRect,0.250000X-0.350000X-0.450000X0.350000X-0.450000X0.350000X0.450000X-0.350000X0.450000X0*%
%ADD23RoundRect,0.250000X0.350000X0.450000X-0.350000X0.450000X-0.350000X-0.450000X0.350000X-0.450000X0*%
%ADD24RoundRect,0.250001X-0.624999X0.462499X-0.624999X-0.462499X0.624999X-0.462499X0.624999X0.462499X0*%
%ADD25RoundRect,0.250000X0.475000X-0.337500X0.475000X0.337500X-0.475000X0.337500X-0.475000X-0.337500X0*%
%ADD26R,1.700000X1.700000*%
%ADD27R,0.600000X2.450000*%
%ADD28R,0.560000X2.460000*%
%ADD29R,0.300000X2.450000*%
%ADD30R,0.560000X2.450000*%
%ADD31C,0.650000*%
%ADD32RoundRect,0.250000X-0.450000X0.350000X-0.450000X-0.350000X0.450000X-0.350000X0.450000X0.350000X0*%
%ADD33RoundRect,0.250000X-0.337500X-0.475000X0.337500X-0.475000X0.337500X0.475000X-0.337500X0.475000X0*%
%ADD34RoundRect,0.250000X-0.475000X0.337500X-0.475000X-0.337500X0.475000X-0.337500X0.475000X0.337500X0*%
G04 APERTURE END LIST*
D10*
X335270000Y-32120000D03*
D11*
X335270000Y-33820000D03*
X333270000Y-33820000D03*
X333270000Y-31920000D03*
D12*
X319881250Y-139382500D03*
D13*
X314801250Y-139382500D03*
X324961250Y-139382500D03*
D14*
X322421250Y-134302500D03*
X316071250Y-136842500D03*
D12*
X296068750Y-139382500D03*
D13*
X290988750Y-139382500D03*
X301148750Y-139382500D03*
D14*
X298608750Y-134302500D03*
X292258750Y-136842500D03*
D12*
X272252500Y-139392500D03*
D13*
X267172500Y-139392500D03*
X277332500Y-139392500D03*
D14*
X274792500Y-134312500D03*
X268442500Y-136852500D03*
D12*
X248443750Y-139382500D03*
D13*
X243363750Y-139382500D03*
X253523750Y-139382500D03*
D14*
X250983750Y-134302500D03*
X244633750Y-136842500D03*
D12*
X177025300Y-139367300D03*
D13*
X171945300Y-139367300D03*
X182105300Y-139367300D03*
D14*
X179565300Y-134287300D03*
X173215300Y-136827300D03*
D12*
X105568750Y-139382500D03*
D13*
X100488750Y-139382500D03*
X110648750Y-139382500D03*
D14*
X108108750Y-134302500D03*
X101758750Y-136842500D03*
D12*
X81756250Y-139382500D03*
D13*
X76676250Y-139382500D03*
X86836250Y-139382500D03*
D14*
X84296250Y-134302500D03*
X77946250Y-136842500D03*
D12*
X57943750Y-139382500D03*
D13*
X52863750Y-139382500D03*
X63023750Y-139382500D03*
D14*
X60483750Y-134302500D03*
X54133750Y-136842500D03*
D12*
X305593750Y-120332500D03*
D13*
X300513750Y-120332500D03*
X310673750Y-120332500D03*
D14*
X308133750Y-115252500D03*
X301783750Y-117792500D03*
D12*
X67472500Y-120352500D03*
D13*
X62392500Y-120352500D03*
X72552500Y-120352500D03*
D14*
X70012500Y-115272500D03*
X63662500Y-117812500D03*
D12*
X310356250Y-101282500D03*
D13*
X305276250Y-101282500D03*
X315436250Y-101282500D03*
D14*
X312896250Y-96202500D03*
X306546250Y-98742500D03*
D12*
X62706250Y-101282500D03*
D13*
X57626250Y-101282500D03*
X67786250Y-101282500D03*
D14*
X65246250Y-96202500D03*
X58896250Y-98742500D03*
D12*
X315118750Y-82232500D03*
D13*
X310038750Y-82232500D03*
X320198750Y-82232500D03*
D14*
X317658750Y-77152500D03*
X311308750Y-79692500D03*
D12*
X57943750Y-82232500D03*
D13*
X52863750Y-82232500D03*
X63023750Y-82232500D03*
D14*
X60483750Y-77152500D03*
X54133750Y-79692500D03*
D12*
X312712100Y-63192700D03*
D13*
X307632100Y-63192700D03*
X317792100Y-63192700D03*
D14*
X315252100Y-58112700D03*
X308902100Y-60652700D03*
D15*
X332290000Y-101330000D03*
X333090000Y-101330000D03*
X333890000Y-101330000D03*
X334690000Y-101330000D03*
X335490000Y-101330000D03*
X336290000Y-101330000D03*
X337090000Y-101330000D03*
X337890000Y-101330000D03*
X338690000Y-101330000D03*
X339490000Y-101330000D03*
X340290000Y-101330000D03*
D16*
X341990000Y-103030000D03*
X341990000Y-103830000D03*
X341990000Y-104630000D03*
X341990000Y-105430000D03*
X341990000Y-106230000D03*
X341990000Y-107030000D03*
X341990000Y-107830000D03*
X341990000Y-108630000D03*
X341990000Y-109430000D03*
X341990000Y-110230000D03*
X341990000Y-111030000D03*
D15*
X340290000Y-112730000D03*
X339490000Y-112730000D03*
X338690000Y-112730000D03*
X337890000Y-112730000D03*
X337090000Y-112730000D03*
X336290000Y-112730000D03*
X335490000Y-112730000D03*
X334690000Y-112730000D03*
X333890000Y-112730000D03*
X333090000Y-112730000D03*
X332290000Y-112730000D03*
D16*
X330590000Y-111030000D03*
X330590000Y-110230000D03*
X330590000Y-109430000D03*
X330590000Y-108630000D03*
X330590000Y-107830000D03*
X330590000Y-107030000D03*
X330590000Y-106230000D03*
X330590000Y-105430000D03*
X330590000Y-104630000D03*
X330590000Y-103830000D03*
X330590000Y-103030000D03*
D14*
X132715000Y-79692500D03*
X139065000Y-77152500D03*
D12*
X136525000Y-82232500D03*
D13*
X131445000Y-82232500D03*
X141605000Y-82232500D03*
D14*
X223202500Y-60642500D03*
X229552500Y-58102500D03*
D12*
X227012500Y-63182500D03*
D13*
X232092500Y-63182500D03*
X221932500Y-63182500D03*
D14*
X299402500Y-33972500D03*
X305752500Y-31432500D03*
D13*
X308292500Y-36512500D03*
D12*
X303212500Y-36512500D03*
D13*
X298132500Y-36512500D03*
D14*
X123190000Y-98742500D03*
X129540000Y-96202500D03*
D13*
X121920000Y-101282500D03*
X132080000Y-101282500D03*
D12*
X127000000Y-101282500D03*
D14*
X362108750Y-60642500D03*
X368458750Y-58102500D03*
D13*
X360838750Y-63182500D03*
X370998750Y-63182500D03*
D12*
X365918750Y-63182500D03*
D14*
X189865000Y-79692500D03*
X196215000Y-77152500D03*
D12*
X193675000Y-82232500D03*
D13*
X188595000Y-82232500D03*
X198755000Y-82232500D03*
D14*
X127952500Y-33972500D03*
X134302500Y-31432500D03*
D13*
X126682500Y-36512500D03*
X136842500Y-36512500D03*
D12*
X131762500Y-36512500D03*
D14*
X113665000Y-117792500D03*
X120015000Y-115252500D03*
D12*
X117475000Y-120332500D03*
D13*
X122555000Y-120332500D03*
X112395000Y-120332500D03*
D14*
X266065000Y-117792500D03*
X272415000Y-115252500D03*
D13*
X264795000Y-120332500D03*
D12*
X269875000Y-120332500D03*
D13*
X274955000Y-120332500D03*
D14*
X227965000Y-79692500D03*
X234315000Y-77152500D03*
D12*
X231775000Y-82232500D03*
D13*
X226695000Y-82232500D03*
X236855000Y-82232500D03*
D14*
X343217500Y-33972500D03*
X349567500Y-31432500D03*
D12*
X347027500Y-36512500D03*
D13*
X341947500Y-36512500D03*
X352107500Y-36512500D03*
D14*
X147002500Y-33972500D03*
X153352500Y-31432500D03*
D13*
X155892500Y-36512500D03*
X145732500Y-36512500D03*
D12*
X150812500Y-36512500D03*
D14*
X242252500Y-60642500D03*
X248602500Y-58102500D03*
D13*
X240982500Y-63182500D03*
X251142500Y-63182500D03*
D12*
X246062500Y-63182500D03*
D14*
X108902500Y-33972500D03*
X115252500Y-31432500D03*
D13*
X107632500Y-36512500D03*
X117792500Y-36512500D03*
D12*
X112712500Y-36512500D03*
D14*
X362108750Y-136842500D03*
X368458750Y-134302500D03*
D13*
X370998750Y-139382500D03*
D12*
X365918750Y-139382500D03*
D13*
X360838750Y-139382500D03*
D14*
X151765000Y-79692500D03*
X158115000Y-77152500D03*
D13*
X150495000Y-82232500D03*
D12*
X155575000Y-82232500D03*
D13*
X160655000Y-82232500D03*
D14*
X232092500Y-33972500D03*
X238442500Y-31432500D03*
D13*
X230822500Y-36512500D03*
X240982500Y-36512500D03*
D12*
X235902500Y-36512500D03*
D14*
X193992500Y-33972500D03*
X200342500Y-31432500D03*
D13*
X202882500Y-36512500D03*
X192722500Y-36512500D03*
D12*
X197802500Y-36512500D03*
D14*
X127952500Y-60642500D03*
X134302500Y-58102500D03*
D13*
X126682500Y-63182500D03*
X136842500Y-63182500D03*
D12*
X131762500Y-63182500D03*
D14*
X108902500Y-60642500D03*
X115252500Y-58102500D03*
D13*
X107632500Y-63182500D03*
D12*
X112712500Y-63182500D03*
D13*
X117792500Y-63182500D03*
D14*
X275590000Y-98742500D03*
X281940000Y-96202500D03*
D12*
X279400000Y-101282500D03*
D13*
X284480000Y-101282500D03*
X274320000Y-101282500D03*
D14*
X247015000Y-79692500D03*
X253365000Y-77152500D03*
D12*
X250825000Y-82232500D03*
D13*
X245745000Y-82232500D03*
X255905000Y-82232500D03*
D14*
X256540000Y-98742500D03*
X262890000Y-96202500D03*
D13*
X255270000Y-101282500D03*
X265430000Y-101282500D03*
D12*
X260350000Y-101282500D03*
D14*
X113665000Y-79692500D03*
X120015000Y-77152500D03*
D13*
X122555000Y-82232500D03*
X112395000Y-82232500D03*
D12*
X117475000Y-82232500D03*
D14*
X381158750Y-136842500D03*
X387508750Y-134302500D03*
D13*
X379888750Y-139382500D03*
X390048750Y-139382500D03*
D12*
X384968750Y-139382500D03*
D14*
X280352500Y-33972500D03*
X286702500Y-31432500D03*
D12*
X284162500Y-36512500D03*
D13*
X289242500Y-36512500D03*
X279082500Y-36512500D03*
D14*
X142240000Y-98742500D03*
X148590000Y-96202500D03*
D12*
X146050000Y-101282500D03*
D13*
X151130000Y-101282500D03*
X140970000Y-101282500D03*
D14*
X85090000Y-98742500D03*
X91440000Y-96202500D03*
D12*
X88900000Y-101282500D03*
D13*
X83820000Y-101282500D03*
X93980000Y-101282500D03*
D14*
X104140000Y-98742500D03*
X110490000Y-96202500D03*
D13*
X113030000Y-101282500D03*
X102870000Y-101282500D03*
D12*
X107950000Y-101282500D03*
D14*
X132715000Y-117792500D03*
X139065000Y-115252500D03*
D13*
X131445000Y-120332500D03*
X141605000Y-120332500D03*
D12*
X136525000Y-120332500D03*
D14*
X343058750Y-79692500D03*
X349408750Y-77152500D03*
D12*
X346868750Y-82232500D03*
D13*
X351948750Y-82232500D03*
X341788750Y-82232500D03*
D14*
X227965000Y-117792500D03*
X234315000Y-115252500D03*
D12*
X231775000Y-120332500D03*
D13*
X226695000Y-120332500D03*
X236855000Y-120332500D03*
D14*
X285115000Y-79692500D03*
X291465000Y-77152500D03*
D12*
X288925000Y-82232500D03*
D13*
X283845000Y-82232500D03*
X294005000Y-82232500D03*
D14*
X362267500Y-33972500D03*
X368617500Y-31432500D03*
D13*
X360997500Y-36512500D03*
X371157500Y-36512500D03*
D12*
X366077500Y-36512500D03*
D14*
X318452500Y-33972500D03*
X324802500Y-31432500D03*
D13*
X317182500Y-36512500D03*
X327342500Y-36512500D03*
D12*
X322262500Y-36512500D03*
D14*
X89852500Y-33972500D03*
X96202500Y-31432500D03*
D13*
X88582500Y-36512500D03*
D12*
X93662500Y-36512500D03*
D13*
X98742500Y-36512500D03*
D14*
X161290000Y-98742500D03*
X167640000Y-96202500D03*
D12*
X165100000Y-101282500D03*
D13*
X170180000Y-101282500D03*
X160020000Y-101282500D03*
D14*
X189865000Y-117792500D03*
X196215000Y-115252500D03*
D12*
X193675000Y-120332500D03*
D13*
X198755000Y-120332500D03*
X188595000Y-120332500D03*
D14*
X199390000Y-98742500D03*
X205740000Y-96202500D03*
D12*
X203200000Y-101282500D03*
D13*
X208280000Y-101282500D03*
X198120000Y-101282500D03*
D14*
X166052500Y-60642500D03*
X172402500Y-58102500D03*
D12*
X169862500Y-63182500D03*
D13*
X164782500Y-63182500D03*
X174942500Y-63182500D03*
D14*
X208915000Y-79692500D03*
X215265000Y-77152500D03*
D13*
X207645000Y-82232500D03*
X217805000Y-82232500D03*
D12*
X212725000Y-82232500D03*
D14*
X381158750Y-60642500D03*
X387508750Y-58102500D03*
D13*
X379888750Y-63182500D03*
D12*
X384968750Y-63182500D03*
D13*
X390048750Y-63182500D03*
D14*
X147002500Y-60642500D03*
X153352500Y-58102500D03*
D12*
X150812500Y-63182500D03*
D13*
X155892500Y-63182500D03*
X145732500Y-63182500D03*
D14*
X266065000Y-79692500D03*
X272415000Y-77152500D03*
D12*
X269875000Y-82232500D03*
D13*
X274955000Y-82232500D03*
X264795000Y-82232500D03*
D14*
X170815000Y-117792500D03*
X177165000Y-115252500D03*
D12*
X174625000Y-120332500D03*
D13*
X169545000Y-120332500D03*
X179705000Y-120332500D03*
D14*
X89852500Y-60642500D03*
X96202500Y-58102500D03*
D13*
X98742500Y-63182500D03*
X88582500Y-63182500D03*
D12*
X93662500Y-63182500D03*
D14*
X151765000Y-117792500D03*
X158115000Y-115252500D03*
D12*
X155575000Y-120332500D03*
D13*
X150495000Y-120332500D03*
X160655000Y-120332500D03*
D14*
X70802500Y-60642500D03*
X77152500Y-58102500D03*
D13*
X79692500Y-63182500D03*
D12*
X74612500Y-63182500D03*
D13*
X69532500Y-63182500D03*
D14*
X94615000Y-117792500D03*
X100965000Y-115252500D03*
D12*
X98425000Y-120332500D03*
D13*
X93345000Y-120332500D03*
X103505000Y-120332500D03*
D14*
X218440000Y-98742500D03*
X224790000Y-96202500D03*
D13*
X227330000Y-101282500D03*
X217170000Y-101282500D03*
D12*
X222250000Y-101282500D03*
D14*
X75565000Y-79692500D03*
X81915000Y-77152500D03*
D13*
X74295000Y-82232500D03*
D12*
X79375000Y-82232500D03*
D13*
X84455000Y-82232500D03*
D14*
X362108750Y-117792500D03*
X368458750Y-115252500D03*
D13*
X360838750Y-120332500D03*
X370998750Y-120332500D03*
D12*
X365918750Y-120332500D03*
D14*
X261302500Y-33972500D03*
X267652500Y-31432500D03*
D13*
X260032500Y-36512500D03*
D12*
X265112500Y-36512500D03*
D13*
X270192500Y-36512500D03*
D14*
X51752500Y-33972500D03*
X58102500Y-31432500D03*
D12*
X55562500Y-36512500D03*
D13*
X60642500Y-36512500D03*
X50482500Y-36512500D03*
D14*
X362108750Y-79692500D03*
X368458750Y-77152500D03*
D12*
X365918750Y-82232500D03*
D13*
X370998750Y-82232500D03*
X360838750Y-82232500D03*
D14*
X170815000Y-79692500D03*
X177165000Y-77152500D03*
D13*
X169545000Y-82232500D03*
X179705000Y-82232500D03*
D12*
X174625000Y-82232500D03*
D14*
X381158750Y-79692500D03*
X387508750Y-77152500D03*
D13*
X379888750Y-82232500D03*
X390048750Y-82232500D03*
D12*
X384968750Y-82232500D03*
D14*
X208915000Y-117792500D03*
X215265000Y-115252500D03*
D12*
X212725000Y-120332500D03*
D13*
X207645000Y-120332500D03*
X217805000Y-120332500D03*
D14*
X185102500Y-60642500D03*
X191452500Y-58102500D03*
D13*
X183832500Y-63182500D03*
X193992500Y-63182500D03*
D12*
X188912500Y-63182500D03*
D14*
X343058750Y-136842500D03*
X349408750Y-134302500D03*
D12*
X346868750Y-139382500D03*
D13*
X341788750Y-139382500D03*
X351948750Y-139382500D03*
D14*
X204152500Y-60642500D03*
X210502500Y-58102500D03*
D13*
X213042500Y-63182500D03*
X202882500Y-63182500D03*
D12*
X207962500Y-63182500D03*
D14*
X213042500Y-33972500D03*
X219392500Y-31432500D03*
D12*
X216852500Y-36512500D03*
D13*
X221932500Y-36512500D03*
X211772500Y-36512500D03*
D14*
X261302500Y-60642500D03*
X267652500Y-58102500D03*
D13*
X260032500Y-63182500D03*
D12*
X265112500Y-63182500D03*
D13*
X270192500Y-63182500D03*
D14*
X381317500Y-33972500D03*
X387667500Y-31432500D03*
D13*
X390207500Y-36512500D03*
D12*
X385127500Y-36512500D03*
D13*
X380047500Y-36512500D03*
D14*
X51752500Y-60642500D03*
X58102500Y-58102500D03*
D12*
X55562500Y-63182500D03*
D13*
X60642500Y-63182500D03*
X50482500Y-63182500D03*
D14*
X343058750Y-60642500D03*
X349408750Y-58102500D03*
D13*
X351948750Y-63182500D03*
X341788750Y-63182500D03*
D12*
X346868750Y-63182500D03*
D14*
X247015000Y-117792500D03*
X253365000Y-115252500D03*
D13*
X255905000Y-120332500D03*
X245745000Y-120332500D03*
D12*
X250825000Y-120332500D03*
D13*
X236220000Y-101282500D03*
X246380000Y-101282500D03*
D12*
X241300000Y-101282500D03*
D14*
X243840000Y-96202500D03*
X237490000Y-98742500D03*
X280352500Y-60642500D03*
X286702500Y-58102500D03*
D13*
X289242500Y-63182500D03*
X279082500Y-63182500D03*
D12*
X284162500Y-63182500D03*
D14*
X180340000Y-98742500D03*
X186690000Y-96202500D03*
D13*
X189230000Y-101282500D03*
X179070000Y-101282500D03*
D12*
X184150000Y-101282500D03*
D14*
X174942500Y-33972500D03*
X181292500Y-31432500D03*
D12*
X178752500Y-36512500D03*
D13*
X173672500Y-36512500D03*
X183832500Y-36512500D03*
D14*
X94615000Y-79692500D03*
X100965000Y-77152500D03*
D13*
X93345000Y-82232500D03*
X103505000Y-82232500D03*
D12*
X98425000Y-82232500D03*
D17*
X77102500Y-84948750D03*
X77102500Y-88248750D03*
X205740000Y-66136250D03*
X205740000Y-69436250D03*
X191452500Y-123286250D03*
X191452500Y-126586250D03*
X317658750Y-142336250D03*
X317658750Y-145636250D03*
X286652500Y-84948750D03*
X286652500Y-88248750D03*
X233521250Y-39148750D03*
X233521250Y-42448750D03*
D18*
X326252500Y-110030000D03*
X328327500Y-110030000D03*
D19*
X360030000Y-96690000D03*
X366230000Y-96690000D03*
X366230000Y-92990000D03*
X360030000Y-92990000D03*
D17*
X382746250Y-39548750D03*
X382746250Y-42848750D03*
X229502500Y-84948750D03*
X229502500Y-88248750D03*
X201040000Y-104236250D03*
X201040000Y-107536250D03*
X248602500Y-123286250D03*
X248602500Y-126586250D03*
X105790000Y-104236250D03*
X105790000Y-107536250D03*
X363696250Y-123286250D03*
X363696250Y-126586250D03*
X79533750Y-142336250D03*
X79533750Y-145636250D03*
X220090000Y-104236250D03*
X220090000Y-107536250D03*
X303371250Y-123286250D03*
X303371250Y-126586250D03*
D20*
X344315000Y-24030000D03*
X342265000Y-24030000D03*
D17*
X54871250Y-84986250D03*
X54871250Y-88286250D03*
X110490000Y-66136250D03*
X110490000Y-69436250D03*
X363596250Y-84786250D03*
X363596250Y-88086250D03*
X186690000Y-66136250D03*
X186690000Y-69436250D03*
D21*
X351352500Y-109717500D03*
X351352500Y-106817500D03*
X349052500Y-106817500D03*
X349052500Y-109717500D03*
D17*
X134302500Y-123286250D03*
X134302500Y-126586250D03*
D18*
X353927500Y-109855000D03*
X356002500Y-109855000D03*
D17*
X258190000Y-104236250D03*
X258190000Y-107536250D03*
D22*
X331790000Y-116030000D03*
X329790000Y-116030000D03*
D17*
X344746250Y-85386250D03*
X344746250Y-88686250D03*
X239140000Y-104236250D03*
X239140000Y-107536250D03*
X172402500Y-123286250D03*
X172402500Y-126586250D03*
X167640000Y-66136250D03*
X167640000Y-69436250D03*
X148590000Y-39148750D03*
X148590000Y-42448750D03*
D18*
X339752500Y-116280000D03*
X341827500Y-116280000D03*
D17*
X143890000Y-104236250D03*
X143890000Y-107536250D03*
X344646250Y-142336250D03*
X344646250Y-145636250D03*
X96152500Y-84948750D03*
X96152500Y-88248750D03*
D23*
X329358750Y-28098750D03*
X331358750Y-28098750D03*
D17*
X270033750Y-142336250D03*
X270033750Y-145636250D03*
X344702500Y-39748750D03*
X344702500Y-43048750D03*
X129540000Y-66136250D03*
X129540000Y-69436250D03*
D24*
X330540000Y-36730000D03*
X330540000Y-33755000D03*
D25*
X345290000Y-102992500D03*
X345290000Y-105067500D03*
D17*
X53340000Y-66342500D03*
X53340000Y-69642500D03*
X263196250Y-39548750D03*
X263196250Y-42848750D03*
X115202500Y-84948750D03*
X115202500Y-88248750D03*
X214471250Y-39148750D03*
X214471250Y-42448750D03*
X90146250Y-38455000D03*
X90146250Y-41755000D03*
D26*
X349430000Y-93430000D03*
D13*
X346890000Y-93430000D03*
X349430000Y-95970000D03*
X346890000Y-95970000D03*
X349430000Y-98510000D03*
X346890000Y-98510000D03*
D17*
X103346250Y-142336250D03*
X103346250Y-145636250D03*
X176371250Y-39148750D03*
X176371250Y-42448750D03*
X364046250Y-66136250D03*
X364046250Y-69436250D03*
X115252500Y-123286250D03*
X115252500Y-126586250D03*
X195421250Y-39148750D03*
X195421250Y-42448750D03*
X267602500Y-84948750D03*
X267602500Y-88248750D03*
X153352500Y-123286250D03*
X153352500Y-126586250D03*
X65246250Y-123286250D03*
X65246250Y-126586250D03*
D27*
X337552500Y-24565000D03*
D28*
X336757500Y-24560000D03*
D29*
X336077500Y-24565000D03*
X335577500Y-24565000D03*
X335077500Y-24565000D03*
X334577500Y-24565000D03*
X334077500Y-24565000D03*
X333577500Y-24565000D03*
X333077500Y-24565000D03*
X332577500Y-24565000D03*
D30*
X331897500Y-24565000D03*
D27*
X331102500Y-24565000D03*
D31*
X337217500Y-22620000D03*
X331437500Y-22620000D03*
D17*
X282296250Y-39548750D03*
X282296250Y-42848750D03*
X277240000Y-104236250D03*
X277240000Y-107536250D03*
X262890000Y-66136250D03*
X262890000Y-69436250D03*
X293846250Y-142336250D03*
X293846250Y-145636250D03*
X210452500Y-84948750D03*
X210452500Y-88248750D03*
X86740000Y-104236250D03*
X86740000Y-107536250D03*
X243840000Y-66136250D03*
X243840000Y-69436250D03*
X229552500Y-123286250D03*
X229552500Y-126586250D03*
D32*
X335290000Y-95560000D03*
X335290000Y-93560000D03*
D17*
X312846250Y-84948750D03*
X312846250Y-88248750D03*
X310515000Y-66136250D03*
X310515000Y-69436250D03*
X382746250Y-85186250D03*
X382746250Y-88486250D03*
D33*
X337827500Y-98030000D03*
X335752500Y-98030000D03*
D17*
X246221250Y-142336250D03*
X246221250Y-145636250D03*
X267652500Y-123286250D03*
X267652500Y-126586250D03*
X124840000Y-104236250D03*
X124840000Y-107536250D03*
X248552500Y-84948750D03*
X248552500Y-88248750D03*
X363696250Y-142336250D03*
X363696250Y-145636250D03*
X383096250Y-66136250D03*
X383096250Y-69436250D03*
X181990000Y-104236250D03*
X181990000Y-107536250D03*
X51952500Y-38505000D03*
X51952500Y-41805000D03*
X300996250Y-39548750D03*
X300996250Y-42848750D03*
D32*
X333246250Y-95560000D03*
X333246250Y-93560000D03*
D17*
X281940000Y-66136250D03*
X281940000Y-69436250D03*
X364152500Y-39548750D03*
X364152500Y-42848750D03*
X96202500Y-123286250D03*
X96202500Y-126586250D03*
D18*
X353927500Y-106680000D03*
X356002500Y-106680000D03*
D17*
X174783750Y-142336250D03*
X174783750Y-145636250D03*
X153302500Y-84948750D03*
X153302500Y-88248750D03*
D22*
X339296250Y-28098750D03*
X337296250Y-28098750D03*
D17*
X344846250Y-66061250D03*
X344846250Y-69361250D03*
X148590000Y-66136250D03*
X148590000Y-69436250D03*
X72390000Y-66336250D03*
X72390000Y-69636250D03*
D33*
X331577500Y-98030000D03*
X329502500Y-98030000D03*
D17*
X129540000Y-39148750D03*
X129540000Y-42448750D03*
X308196250Y-104236250D03*
X308196250Y-107536250D03*
D25*
X328040000Y-100242500D03*
X328040000Y-102317500D03*
D34*
X324290000Y-101567500D03*
X324290000Y-99492500D03*
D17*
X109490000Y-39048750D03*
X109490000Y-42348750D03*
X91440000Y-66136250D03*
X91440000Y-69436250D03*
X319990000Y-39748750D03*
X319990000Y-43048750D03*
X162940000Y-104236250D03*
X162940000Y-107536250D03*
X134252500Y-84948750D03*
X134252500Y-88248750D03*
X60546250Y-104236250D03*
X60546250Y-107536250D03*
X191152500Y-85267500D03*
X191152500Y-88567500D03*
X224790000Y-66136250D03*
X224790000Y-69436250D03*
X55721250Y-142336250D03*
X55721250Y-145636250D03*
X210502500Y-123286250D03*
X210502500Y-126586250D03*
X382746250Y-142336250D03*
X382746250Y-145636250D03*
D23*
X355870000Y-96780000D03*
X357870000Y-96780000D03*
D17*
X172352500Y-84948750D03*
X172352500Y-88248750D03*
M02*
