%TF.GenerationSoftware,KiCad,Pcbnew,(6.0.10)*%
%TF.CreationDate,2023-01-10T21:57:36-05:00*%
%TF.ProjectId,2ndKeyboard,326e644b-6579-4626-9f61-72642e6b6963,rev?*%
%TF.SameCoordinates,Original*%
%TF.FileFunction,Legend,Top*%
%TF.FilePolarity,Positive*%
%FSLAX46Y46*%
G04 Gerber Fmt 4.6, Leading zero omitted, Abs format (unit mm)*
G04 Created by KiCad (PCBNEW (6.0.10)) date 2023-01-10 21:57:36*
%MOMM*%
%LPD*%
G01*
G04 APERTURE LIST*
%ADD10C,0.250000*%
%ADD11C,0.300000*%
%ADD12C,0.150000*%
%ADD13C,0.120000*%
%ADD14C,1.700000*%
%ADD15C,4.000000*%
%ADD16C,2.200000*%
%ADD17C,2.700000*%
%ADD18C,0.650000*%
%ADD19O,1.000000X1.600000*%
%ADD20O,1.000000X2.100000*%
G04 APERTURE END LIST*
D10*
X171928095Y-52887142D02*
X171880476Y-52934761D01*
X171737619Y-52982380D01*
X171642380Y-52982380D01*
X171499523Y-52934761D01*
X171404285Y-52839523D01*
X171356666Y-52744285D01*
X171309047Y-52553809D01*
X171309047Y-52410952D01*
X171356666Y-52220476D01*
X171404285Y-52125238D01*
X171499523Y-52030000D01*
X171642380Y-51982380D01*
X171737619Y-51982380D01*
X171880476Y-52030000D01*
X171928095Y-52077619D01*
X172499523Y-52982380D02*
X172404285Y-52934761D01*
X172356666Y-52887142D01*
X172309047Y-52791904D01*
X172309047Y-52506190D01*
X172356666Y-52410952D01*
X172404285Y-52363333D01*
X172499523Y-52315714D01*
X172642380Y-52315714D01*
X172737619Y-52363333D01*
X172785238Y-52410952D01*
X172832857Y-52506190D01*
X172832857Y-52791904D01*
X172785238Y-52887142D01*
X172737619Y-52934761D01*
X172642380Y-52982380D01*
X172499523Y-52982380D01*
X173404285Y-52982380D02*
X173309047Y-52934761D01*
X173261428Y-52839523D01*
X173261428Y-51982380D01*
X173547142Y-53077619D02*
X174309047Y-53077619D01*
X174975714Y-51982380D02*
X174785238Y-51982380D01*
X174690000Y-52030000D01*
X174642380Y-52077619D01*
X174547142Y-52220476D01*
X174499523Y-52410952D01*
X174499523Y-52791904D01*
X174547142Y-52887142D01*
X174594761Y-52934761D01*
X174690000Y-52982380D01*
X174880476Y-52982380D01*
X174975714Y-52934761D01*
X175023333Y-52887142D01*
X175070952Y-52791904D01*
X175070952Y-52553809D01*
X175023333Y-52458571D01*
X174975714Y-52410952D01*
X174880476Y-52363333D01*
X174690000Y-52363333D01*
X174594761Y-52410952D01*
X174547142Y-52458571D01*
X174499523Y-52553809D01*
X370351904Y-52987142D02*
X370304285Y-53034761D01*
X370161428Y-53082380D01*
X370066190Y-53082380D01*
X369923333Y-53034761D01*
X369828095Y-52939523D01*
X369780476Y-52844285D01*
X369732857Y-52653809D01*
X369732857Y-52510952D01*
X369780476Y-52320476D01*
X369828095Y-52225238D01*
X369923333Y-52130000D01*
X370066190Y-52082380D01*
X370161428Y-52082380D01*
X370304285Y-52130000D01*
X370351904Y-52177619D01*
X370923333Y-53082380D02*
X370828095Y-53034761D01*
X370780476Y-52987142D01*
X370732857Y-52891904D01*
X370732857Y-52606190D01*
X370780476Y-52510952D01*
X370828095Y-52463333D01*
X370923333Y-52415714D01*
X371066190Y-52415714D01*
X371161428Y-52463333D01*
X371209047Y-52510952D01*
X371256666Y-52606190D01*
X371256666Y-52891904D01*
X371209047Y-52987142D01*
X371161428Y-53034761D01*
X371066190Y-53082380D01*
X370923333Y-53082380D01*
X371828095Y-53082380D02*
X371732857Y-53034761D01*
X371685238Y-52939523D01*
X371685238Y-52082380D01*
X371970952Y-53177619D02*
X372732857Y-53177619D01*
X373494761Y-53082380D02*
X372923333Y-53082380D01*
X373209047Y-53082380D02*
X373209047Y-52082380D01*
X373113809Y-52225238D01*
X373018571Y-52320476D01*
X372923333Y-52368095D01*
X374351904Y-52082380D02*
X374161428Y-52082380D01*
X374066190Y-52130000D01*
X374018571Y-52177619D01*
X373923333Y-52320476D01*
X373875714Y-52510952D01*
X373875714Y-52891904D01*
X373923333Y-52987142D01*
X373970952Y-53034761D01*
X374066190Y-53082380D01*
X374256666Y-53082380D01*
X374351904Y-53034761D01*
X374399523Y-52987142D01*
X374447142Y-52891904D01*
X374447142Y-52653809D01*
X374399523Y-52558571D01*
X374351904Y-52510952D01*
X374256666Y-52463333D01*
X374066190Y-52463333D01*
X373970952Y-52510952D01*
X373923333Y-52558571D01*
X373875714Y-52653809D01*
X155928095Y-50787142D02*
X155880476Y-50834761D01*
X155737619Y-50882380D01*
X155642380Y-50882380D01*
X155499523Y-50834761D01*
X155404285Y-50739523D01*
X155356666Y-50644285D01*
X155309047Y-50453809D01*
X155309047Y-50310952D01*
X155356666Y-50120476D01*
X155404285Y-50025238D01*
X155499523Y-49930000D01*
X155642380Y-49882380D01*
X155737619Y-49882380D01*
X155880476Y-49930000D01*
X155928095Y-49977619D01*
X156499523Y-50882380D02*
X156404285Y-50834761D01*
X156356666Y-50787142D01*
X156309047Y-50691904D01*
X156309047Y-50406190D01*
X156356666Y-50310952D01*
X156404285Y-50263333D01*
X156499523Y-50215714D01*
X156642380Y-50215714D01*
X156737619Y-50263333D01*
X156785238Y-50310952D01*
X156832857Y-50406190D01*
X156832857Y-50691904D01*
X156785238Y-50787142D01*
X156737619Y-50834761D01*
X156642380Y-50882380D01*
X156499523Y-50882380D01*
X157404285Y-50882380D02*
X157309047Y-50834761D01*
X157261428Y-50739523D01*
X157261428Y-49882380D01*
X157547142Y-50977619D02*
X158309047Y-50977619D01*
X159023333Y-49882380D02*
X158547142Y-49882380D01*
X158499523Y-50358571D01*
X158547142Y-50310952D01*
X158642380Y-50263333D01*
X158880476Y-50263333D01*
X158975714Y-50310952D01*
X159023333Y-50358571D01*
X159070952Y-50453809D01*
X159070952Y-50691904D01*
X159023333Y-50787142D01*
X158975714Y-50834761D01*
X158880476Y-50882380D01*
X158642380Y-50882380D01*
X158547142Y-50834761D01*
X158499523Y-50787142D01*
X389351904Y-50787142D02*
X389304285Y-50834761D01*
X389161428Y-50882380D01*
X389066190Y-50882380D01*
X388923333Y-50834761D01*
X388828095Y-50739523D01*
X388780476Y-50644285D01*
X388732857Y-50453809D01*
X388732857Y-50310952D01*
X388780476Y-50120476D01*
X388828095Y-50025238D01*
X388923333Y-49930000D01*
X389066190Y-49882380D01*
X389161428Y-49882380D01*
X389304285Y-49930000D01*
X389351904Y-49977619D01*
X389923333Y-50882380D02*
X389828095Y-50834761D01*
X389780476Y-50787142D01*
X389732857Y-50691904D01*
X389732857Y-50406190D01*
X389780476Y-50310952D01*
X389828095Y-50263333D01*
X389923333Y-50215714D01*
X390066190Y-50215714D01*
X390161428Y-50263333D01*
X390209047Y-50310952D01*
X390256666Y-50406190D01*
X390256666Y-50691904D01*
X390209047Y-50787142D01*
X390161428Y-50834761D01*
X390066190Y-50882380D01*
X389923333Y-50882380D01*
X390828095Y-50882380D02*
X390732857Y-50834761D01*
X390685238Y-50739523D01*
X390685238Y-49882380D01*
X390970952Y-50977619D02*
X391732857Y-50977619D01*
X392494761Y-50882380D02*
X391923333Y-50882380D01*
X392209047Y-50882380D02*
X392209047Y-49882380D01*
X392113809Y-50025238D01*
X392018571Y-50120476D01*
X391923333Y-50168095D01*
X392828095Y-49882380D02*
X393494761Y-49882380D01*
X393066190Y-50882380D01*
X193128095Y-50287142D02*
X193080476Y-50334761D01*
X192937619Y-50382380D01*
X192842380Y-50382380D01*
X192699523Y-50334761D01*
X192604285Y-50239523D01*
X192556666Y-50144285D01*
X192509047Y-49953809D01*
X192509047Y-49810952D01*
X192556666Y-49620476D01*
X192604285Y-49525238D01*
X192699523Y-49430000D01*
X192842380Y-49382380D01*
X192937619Y-49382380D01*
X193080476Y-49430000D01*
X193128095Y-49477619D01*
X193699523Y-50382380D02*
X193604285Y-50334761D01*
X193556666Y-50287142D01*
X193509047Y-50191904D01*
X193509047Y-49906190D01*
X193556666Y-49810952D01*
X193604285Y-49763333D01*
X193699523Y-49715714D01*
X193842380Y-49715714D01*
X193937619Y-49763333D01*
X193985238Y-49810952D01*
X194032857Y-49906190D01*
X194032857Y-50191904D01*
X193985238Y-50287142D01*
X193937619Y-50334761D01*
X193842380Y-50382380D01*
X193699523Y-50382380D01*
X194604285Y-50382380D02*
X194509047Y-50334761D01*
X194461428Y-50239523D01*
X194461428Y-49382380D01*
X194747142Y-50477619D02*
X195509047Y-50477619D01*
X195651904Y-49382380D02*
X196318571Y-49382380D01*
X195890000Y-50382380D01*
D11*
X200590000Y-147001071D02*
X200590000Y-148072500D01*
X200518571Y-148286785D01*
X200375714Y-148429642D01*
X200161428Y-148501071D01*
X200018571Y-148501071D01*
X201875714Y-148429642D02*
X201732857Y-148501071D01*
X201447142Y-148501071D01*
X201304285Y-148429642D01*
X201232857Y-148286785D01*
X201232857Y-147715357D01*
X201304285Y-147572500D01*
X201447142Y-147501071D01*
X201732857Y-147501071D01*
X201875714Y-147572500D01*
X201947142Y-147715357D01*
X201947142Y-147858214D01*
X201232857Y-148001071D01*
X203232857Y-148501071D02*
X203232857Y-147715357D01*
X203161428Y-147572500D01*
X203018571Y-147501071D01*
X202732857Y-147501071D01*
X202590000Y-147572500D01*
X203232857Y-148429642D02*
X203090000Y-148501071D01*
X202732857Y-148501071D01*
X202590000Y-148429642D01*
X202518571Y-148286785D01*
X202518571Y-148143928D01*
X202590000Y-148001071D01*
X202732857Y-147929642D01*
X203090000Y-147929642D01*
X203232857Y-147858214D01*
X203947142Y-147501071D02*
X203947142Y-148501071D01*
X203947142Y-147643928D02*
X204018571Y-147572500D01*
X204161428Y-147501071D01*
X204375714Y-147501071D01*
X204518571Y-147572500D01*
X204590000Y-147715357D01*
X204590000Y-148501071D01*
X205304285Y-147929642D02*
X206447142Y-147929642D01*
X207661428Y-147715357D02*
X207161428Y-147715357D01*
X207161428Y-148501071D02*
X207161428Y-147001071D01*
X207875714Y-147001071D01*
X208447142Y-148501071D02*
X208447142Y-147501071D01*
X208447142Y-147786785D02*
X208518571Y-147643928D01*
X208590000Y-147572500D01*
X208732857Y-147501071D01*
X208875714Y-147501071D01*
X210018571Y-148501071D02*
X210018571Y-147715357D01*
X209947142Y-147572500D01*
X209804285Y-147501071D01*
X209518571Y-147501071D01*
X209375714Y-147572500D01*
X210018571Y-148429642D02*
X209875714Y-148501071D01*
X209518571Y-148501071D01*
X209375714Y-148429642D01*
X209304285Y-148286785D01*
X209304285Y-148143928D01*
X209375714Y-148001071D01*
X209518571Y-147929642D01*
X209875714Y-147929642D01*
X210018571Y-147858214D01*
X210732857Y-147501071D02*
X210732857Y-148501071D01*
X210732857Y-147643928D02*
X210804285Y-147572500D01*
X210947142Y-147501071D01*
X211161428Y-147501071D01*
X211304285Y-147572500D01*
X211375714Y-147715357D01*
X211375714Y-148501071D01*
X212732857Y-148429642D02*
X212590000Y-148501071D01*
X212304285Y-148501071D01*
X212161428Y-148429642D01*
X212090000Y-148358214D01*
X212018571Y-148215357D01*
X212018571Y-147786785D01*
X212090000Y-147643928D01*
X212161428Y-147572500D01*
X212304285Y-147501071D01*
X212590000Y-147501071D01*
X212732857Y-147572500D01*
X212447142Y-148572500D02*
X212590000Y-148643928D01*
X212661428Y-148786785D01*
X212590000Y-148929642D01*
X212447142Y-149001071D01*
X212232857Y-149001071D01*
X213590000Y-148501071D02*
X213447142Y-148429642D01*
X213375714Y-148358214D01*
X213304285Y-148215357D01*
X213304285Y-147786785D01*
X213375714Y-147643928D01*
X213447142Y-147572500D01*
X213590000Y-147501071D01*
X213804285Y-147501071D01*
X213947142Y-147572500D01*
X214018571Y-147643928D01*
X214090000Y-147786785D01*
X214090000Y-148215357D01*
X214018571Y-148358214D01*
X213947142Y-148429642D01*
X213804285Y-148501071D01*
X213590000Y-148501071D01*
X214732857Y-148501071D02*
X214732857Y-147501071D01*
X214732857Y-147001071D02*
X214661428Y-147072500D01*
X214732857Y-147143928D01*
X214804285Y-147072500D01*
X214732857Y-147001071D01*
X214732857Y-147143928D01*
X215375714Y-148429642D02*
X215518571Y-148501071D01*
X215804285Y-148501071D01*
X215947142Y-148429642D01*
X216018571Y-148286785D01*
X216018571Y-148215357D01*
X215947142Y-148072500D01*
X215804285Y-148001071D01*
X215590000Y-148001071D01*
X215447142Y-147929642D01*
X215375714Y-147786785D01*
X215375714Y-147715357D01*
X215447142Y-147572500D01*
X215590000Y-147501071D01*
X215804285Y-147501071D01*
X215947142Y-147572500D01*
X217804285Y-148501071D02*
X217804285Y-147001071D01*
X218304285Y-148072500D01*
X218804285Y-147001071D01*
X218804285Y-148501071D01*
X220161428Y-148501071D02*
X220161428Y-147715357D01*
X220090000Y-147572500D01*
X219947142Y-147501071D01*
X219661428Y-147501071D01*
X219518571Y-147572500D01*
X220161428Y-148429642D02*
X220018571Y-148501071D01*
X219661428Y-148501071D01*
X219518571Y-148429642D01*
X219447142Y-148286785D01*
X219447142Y-148143928D01*
X219518571Y-148001071D01*
X219661428Y-147929642D01*
X220018571Y-147929642D01*
X220161428Y-147858214D01*
X220875714Y-148501071D02*
X220875714Y-147501071D01*
X220875714Y-147786785D02*
X220947142Y-147643928D01*
X221018571Y-147572500D01*
X221161428Y-147501071D01*
X221304285Y-147501071D01*
X221590000Y-147501071D02*
X222161428Y-147501071D01*
X221804285Y-147001071D02*
X221804285Y-148286785D01*
X221875714Y-148429642D01*
X222018571Y-148501071D01*
X222161428Y-148501071D01*
X222661428Y-148501071D02*
X222661428Y-147501071D01*
X222661428Y-147001071D02*
X222590000Y-147072500D01*
X222661428Y-147143928D01*
X222732857Y-147072500D01*
X222661428Y-147001071D01*
X222661428Y-147143928D01*
X223375714Y-147501071D02*
X223375714Y-148501071D01*
X223375714Y-147643928D02*
X223447142Y-147572500D01*
X223590000Y-147501071D01*
X223804285Y-147501071D01*
X223947142Y-147572500D01*
X224018571Y-147715357D01*
X224018571Y-148501071D01*
X205982857Y-149558928D02*
X206054285Y-149487500D01*
X206197142Y-149416071D01*
X206554285Y-149416071D01*
X206697142Y-149487500D01*
X206768571Y-149558928D01*
X206840000Y-149701785D01*
X206840000Y-149844642D01*
X206768571Y-150058928D01*
X205911428Y-150916071D01*
X206840000Y-150916071D01*
X207768571Y-149416071D02*
X207911428Y-149416071D01*
X208054285Y-149487500D01*
X208125714Y-149558928D01*
X208197142Y-149701785D01*
X208268571Y-149987500D01*
X208268571Y-150344642D01*
X208197142Y-150630357D01*
X208125714Y-150773214D01*
X208054285Y-150844642D01*
X207911428Y-150916071D01*
X207768571Y-150916071D01*
X207625714Y-150844642D01*
X207554285Y-150773214D01*
X207482857Y-150630357D01*
X207411428Y-150344642D01*
X207411428Y-149987500D01*
X207482857Y-149701785D01*
X207554285Y-149558928D01*
X207625714Y-149487500D01*
X207768571Y-149416071D01*
X208840000Y-149558928D02*
X208911428Y-149487500D01*
X209054285Y-149416071D01*
X209411428Y-149416071D01*
X209554285Y-149487500D01*
X209625714Y-149558928D01*
X209697142Y-149701785D01*
X209697142Y-149844642D01*
X209625714Y-150058928D01*
X208768571Y-150916071D01*
X209697142Y-150916071D01*
X210197142Y-149416071D02*
X211125714Y-149416071D01*
X210625714Y-149987500D01*
X210840000Y-149987500D01*
X210982857Y-150058928D01*
X211054285Y-150130357D01*
X211125714Y-150273214D01*
X211125714Y-150630357D01*
X211054285Y-150773214D01*
X210982857Y-150844642D01*
X210840000Y-150916071D01*
X210411428Y-150916071D01*
X210268571Y-150844642D01*
X210197142Y-150773214D01*
X212054285Y-149416071D02*
X212197142Y-149416071D01*
X212340000Y-149487500D01*
X212411428Y-149558928D01*
X212482857Y-149701785D01*
X212554285Y-149987500D01*
X212554285Y-150344642D01*
X212482857Y-150630357D01*
X212411428Y-150773214D01*
X212340000Y-150844642D01*
X212197142Y-150916071D01*
X212054285Y-150916071D01*
X211911428Y-150844642D01*
X211840000Y-150773214D01*
X211768571Y-150630357D01*
X211697142Y-150344642D01*
X211697142Y-149987500D01*
X211768571Y-149701785D01*
X211840000Y-149558928D01*
X211911428Y-149487500D01*
X212054285Y-149416071D01*
X213982857Y-150916071D02*
X213125714Y-150916071D01*
X213554285Y-150916071D02*
X213554285Y-149416071D01*
X213411428Y-149630357D01*
X213268571Y-149773214D01*
X213125714Y-149844642D01*
X214911428Y-149416071D02*
X215054285Y-149416071D01*
X215197142Y-149487500D01*
X215268571Y-149558928D01*
X215340000Y-149701785D01*
X215411428Y-149987500D01*
X215411428Y-150344642D01*
X215340000Y-150630357D01*
X215268571Y-150773214D01*
X215197142Y-150844642D01*
X215054285Y-150916071D01*
X214911428Y-150916071D01*
X214768571Y-150844642D01*
X214697142Y-150773214D01*
X214625714Y-150630357D01*
X214554285Y-150344642D01*
X214554285Y-149987500D01*
X214625714Y-149701785D01*
X214697142Y-149558928D01*
X214768571Y-149487500D01*
X214911428Y-149416071D01*
X216125714Y-150916071D02*
X216411428Y-150916071D01*
X216554285Y-150844642D01*
X216625714Y-150773214D01*
X216768571Y-150558928D01*
X216840000Y-150273214D01*
X216840000Y-149701785D01*
X216768571Y-149558928D01*
X216697142Y-149487500D01*
X216554285Y-149416071D01*
X216268571Y-149416071D01*
X216125714Y-149487500D01*
X216054285Y-149558928D01*
X215982857Y-149701785D01*
X215982857Y-150058928D01*
X216054285Y-150201785D01*
X216125714Y-150273214D01*
X216268571Y-150344642D01*
X216554285Y-150344642D01*
X216697142Y-150273214D01*
X216768571Y-150201785D01*
X216840000Y-150058928D01*
X218125714Y-150916071D02*
X218125714Y-150130357D01*
X218054285Y-149987500D01*
X217911428Y-149916071D01*
X217625714Y-149916071D01*
X217482857Y-149987500D01*
X218125714Y-150844642D02*
X217982857Y-150916071D01*
X217625714Y-150916071D01*
X217482857Y-150844642D01*
X217411428Y-150701785D01*
X217411428Y-150558928D01*
X217482857Y-150416071D01*
X217625714Y-150344642D01*
X217982857Y-150344642D01*
X218125714Y-150273214D01*
D10*
X288851904Y-50687142D02*
X288804285Y-50734761D01*
X288661428Y-50782380D01*
X288566190Y-50782380D01*
X288423333Y-50734761D01*
X288328095Y-50639523D01*
X288280476Y-50544285D01*
X288232857Y-50353809D01*
X288232857Y-50210952D01*
X288280476Y-50020476D01*
X288328095Y-49925238D01*
X288423333Y-49830000D01*
X288566190Y-49782380D01*
X288661428Y-49782380D01*
X288804285Y-49830000D01*
X288851904Y-49877619D01*
X289423333Y-50782380D02*
X289328095Y-50734761D01*
X289280476Y-50687142D01*
X289232857Y-50591904D01*
X289232857Y-50306190D01*
X289280476Y-50210952D01*
X289328095Y-50163333D01*
X289423333Y-50115714D01*
X289566190Y-50115714D01*
X289661428Y-50163333D01*
X289709047Y-50210952D01*
X289756666Y-50306190D01*
X289756666Y-50591904D01*
X289709047Y-50687142D01*
X289661428Y-50734761D01*
X289566190Y-50782380D01*
X289423333Y-50782380D01*
X290328095Y-50782380D02*
X290232857Y-50734761D01*
X290185238Y-50639523D01*
X290185238Y-49782380D01*
X290470952Y-50877619D02*
X291232857Y-50877619D01*
X291994761Y-50782380D02*
X291423333Y-50782380D01*
X291709047Y-50782380D02*
X291709047Y-49782380D01*
X291613809Y-49925238D01*
X291518571Y-50020476D01*
X291423333Y-50068095D01*
X292375714Y-49877619D02*
X292423333Y-49830000D01*
X292518571Y-49782380D01*
X292756666Y-49782380D01*
X292851904Y-49830000D01*
X292899523Y-49877619D01*
X292947142Y-49972857D01*
X292947142Y-50068095D01*
X292899523Y-50210952D01*
X292328095Y-50782380D01*
X292947142Y-50782380D01*
X98428095Y-50787142D02*
X98380476Y-50834761D01*
X98237619Y-50882380D01*
X98142380Y-50882380D01*
X97999523Y-50834761D01*
X97904285Y-50739523D01*
X97856666Y-50644285D01*
X97809047Y-50453809D01*
X97809047Y-50310952D01*
X97856666Y-50120476D01*
X97904285Y-50025238D01*
X97999523Y-49930000D01*
X98142380Y-49882380D01*
X98237619Y-49882380D01*
X98380476Y-49930000D01*
X98428095Y-49977619D01*
X98999523Y-50882380D02*
X98904285Y-50834761D01*
X98856666Y-50787142D01*
X98809047Y-50691904D01*
X98809047Y-50406190D01*
X98856666Y-50310952D01*
X98904285Y-50263333D01*
X98999523Y-50215714D01*
X99142380Y-50215714D01*
X99237619Y-50263333D01*
X99285238Y-50310952D01*
X99332857Y-50406190D01*
X99332857Y-50691904D01*
X99285238Y-50787142D01*
X99237619Y-50834761D01*
X99142380Y-50882380D01*
X98999523Y-50882380D01*
X99904285Y-50882380D02*
X99809047Y-50834761D01*
X99761428Y-50739523D01*
X99761428Y-49882380D01*
X100047142Y-50977619D02*
X100809047Y-50977619D01*
X100999523Y-49977619D02*
X101047142Y-49930000D01*
X101142380Y-49882380D01*
X101380476Y-49882380D01*
X101475714Y-49930000D01*
X101523333Y-49977619D01*
X101570952Y-50072857D01*
X101570952Y-50168095D01*
X101523333Y-50310952D01*
X100951904Y-50882380D01*
X101570952Y-50882380D01*
X231328095Y-50387142D02*
X231280476Y-50434761D01*
X231137619Y-50482380D01*
X231042380Y-50482380D01*
X230899523Y-50434761D01*
X230804285Y-50339523D01*
X230756666Y-50244285D01*
X230709047Y-50053809D01*
X230709047Y-49910952D01*
X230756666Y-49720476D01*
X230804285Y-49625238D01*
X230899523Y-49530000D01*
X231042380Y-49482380D01*
X231137619Y-49482380D01*
X231280476Y-49530000D01*
X231328095Y-49577619D01*
X231899523Y-50482380D02*
X231804285Y-50434761D01*
X231756666Y-50387142D01*
X231709047Y-50291904D01*
X231709047Y-50006190D01*
X231756666Y-49910952D01*
X231804285Y-49863333D01*
X231899523Y-49815714D01*
X232042380Y-49815714D01*
X232137619Y-49863333D01*
X232185238Y-49910952D01*
X232232857Y-50006190D01*
X232232857Y-50291904D01*
X232185238Y-50387142D01*
X232137619Y-50434761D01*
X232042380Y-50482380D01*
X231899523Y-50482380D01*
X232804285Y-50482380D02*
X232709047Y-50434761D01*
X232661428Y-50339523D01*
X232661428Y-49482380D01*
X232947142Y-50577619D02*
X233709047Y-50577619D01*
X233994761Y-50482380D02*
X234185238Y-50482380D01*
X234280476Y-50434761D01*
X234328095Y-50387142D01*
X234423333Y-50244285D01*
X234470952Y-50053809D01*
X234470952Y-49672857D01*
X234423333Y-49577619D01*
X234375714Y-49530000D01*
X234280476Y-49482380D01*
X234090000Y-49482380D01*
X233994761Y-49530000D01*
X233947142Y-49577619D01*
X233899523Y-49672857D01*
X233899523Y-49910952D01*
X233947142Y-50006190D01*
X233994761Y-50053809D01*
X234090000Y-50101428D01*
X234280476Y-50101428D01*
X234375714Y-50053809D01*
X234423333Y-50006190D01*
X234470952Y-49910952D01*
X60128095Y-49987142D02*
X60080476Y-50034761D01*
X59937619Y-50082380D01*
X59842380Y-50082380D01*
X59699523Y-50034761D01*
X59604285Y-49939523D01*
X59556666Y-49844285D01*
X59509047Y-49653809D01*
X59509047Y-49510952D01*
X59556666Y-49320476D01*
X59604285Y-49225238D01*
X59699523Y-49130000D01*
X59842380Y-49082380D01*
X59937619Y-49082380D01*
X60080476Y-49130000D01*
X60128095Y-49177619D01*
X60699523Y-50082380D02*
X60604285Y-50034761D01*
X60556666Y-49987142D01*
X60509047Y-49891904D01*
X60509047Y-49606190D01*
X60556666Y-49510952D01*
X60604285Y-49463333D01*
X60699523Y-49415714D01*
X60842380Y-49415714D01*
X60937619Y-49463333D01*
X60985238Y-49510952D01*
X61032857Y-49606190D01*
X61032857Y-49891904D01*
X60985238Y-49987142D01*
X60937619Y-50034761D01*
X60842380Y-50082380D01*
X60699523Y-50082380D01*
X61604285Y-50082380D02*
X61509047Y-50034761D01*
X61461428Y-49939523D01*
X61461428Y-49082380D01*
X61747142Y-50177619D02*
X62509047Y-50177619D01*
X62937619Y-49082380D02*
X63032857Y-49082380D01*
X63128095Y-49130000D01*
X63175714Y-49177619D01*
X63223333Y-49272857D01*
X63270952Y-49463333D01*
X63270952Y-49701428D01*
X63223333Y-49891904D01*
X63175714Y-49987142D01*
X63128095Y-50034761D01*
X63032857Y-50082380D01*
X62937619Y-50082380D01*
X62842380Y-50034761D01*
X62794761Y-49987142D01*
X62747142Y-49891904D01*
X62699523Y-49701428D01*
X62699523Y-49463333D01*
X62747142Y-49272857D01*
X62794761Y-49177619D01*
X62842380Y-49130000D01*
X62937619Y-49082380D01*
X205028095Y-50387142D02*
X204980476Y-50434761D01*
X204837619Y-50482380D01*
X204742380Y-50482380D01*
X204599523Y-50434761D01*
X204504285Y-50339523D01*
X204456666Y-50244285D01*
X204409047Y-50053809D01*
X204409047Y-49910952D01*
X204456666Y-49720476D01*
X204504285Y-49625238D01*
X204599523Y-49530000D01*
X204742380Y-49482380D01*
X204837619Y-49482380D01*
X204980476Y-49530000D01*
X205028095Y-49577619D01*
X205599523Y-50482380D02*
X205504285Y-50434761D01*
X205456666Y-50387142D01*
X205409047Y-50291904D01*
X205409047Y-50006190D01*
X205456666Y-49910952D01*
X205504285Y-49863333D01*
X205599523Y-49815714D01*
X205742380Y-49815714D01*
X205837619Y-49863333D01*
X205885238Y-49910952D01*
X205932857Y-50006190D01*
X205932857Y-50291904D01*
X205885238Y-50387142D01*
X205837619Y-50434761D01*
X205742380Y-50482380D01*
X205599523Y-50482380D01*
X206504285Y-50482380D02*
X206409047Y-50434761D01*
X206361428Y-50339523D01*
X206361428Y-49482380D01*
X206647142Y-50577619D02*
X207409047Y-50577619D01*
X207790000Y-49910952D02*
X207694761Y-49863333D01*
X207647142Y-49815714D01*
X207599523Y-49720476D01*
X207599523Y-49672857D01*
X207647142Y-49577619D01*
X207694761Y-49530000D01*
X207790000Y-49482380D01*
X207980476Y-49482380D01*
X208075714Y-49530000D01*
X208123333Y-49577619D01*
X208170952Y-49672857D01*
X208170952Y-49720476D01*
X208123333Y-49815714D01*
X208075714Y-49863333D01*
X207980476Y-49910952D01*
X207790000Y-49910952D01*
X207694761Y-49958571D01*
X207647142Y-50006190D01*
X207599523Y-50101428D01*
X207599523Y-50291904D01*
X207647142Y-50387142D01*
X207694761Y-50434761D01*
X207790000Y-50482380D01*
X207980476Y-50482380D01*
X208075714Y-50434761D01*
X208123333Y-50387142D01*
X208170952Y-50291904D01*
X208170952Y-50101428D01*
X208123333Y-50006190D01*
X208075714Y-49958571D01*
X207980476Y-49910952D01*
X351351904Y-50087142D02*
X351304285Y-50134761D01*
X351161428Y-50182380D01*
X351066190Y-50182380D01*
X350923333Y-50134761D01*
X350828095Y-50039523D01*
X350780476Y-49944285D01*
X350732857Y-49753809D01*
X350732857Y-49610952D01*
X350780476Y-49420476D01*
X350828095Y-49325238D01*
X350923333Y-49230000D01*
X351066190Y-49182380D01*
X351161428Y-49182380D01*
X351304285Y-49230000D01*
X351351904Y-49277619D01*
X351923333Y-50182380D02*
X351828095Y-50134761D01*
X351780476Y-50087142D01*
X351732857Y-49991904D01*
X351732857Y-49706190D01*
X351780476Y-49610952D01*
X351828095Y-49563333D01*
X351923333Y-49515714D01*
X352066190Y-49515714D01*
X352161428Y-49563333D01*
X352209047Y-49610952D01*
X352256666Y-49706190D01*
X352256666Y-49991904D01*
X352209047Y-50087142D01*
X352161428Y-50134761D01*
X352066190Y-50182380D01*
X351923333Y-50182380D01*
X352828095Y-50182380D02*
X352732857Y-50134761D01*
X352685238Y-50039523D01*
X352685238Y-49182380D01*
X352970952Y-50277619D02*
X353732857Y-50277619D01*
X354494761Y-50182380D02*
X353923333Y-50182380D01*
X354209047Y-50182380D02*
X354209047Y-49182380D01*
X354113809Y-49325238D01*
X354018571Y-49420476D01*
X353923333Y-49468095D01*
X355399523Y-49182380D02*
X354923333Y-49182380D01*
X354875714Y-49658571D01*
X354923333Y-49610952D01*
X355018571Y-49563333D01*
X355256666Y-49563333D01*
X355351904Y-49610952D01*
X355399523Y-49658571D01*
X355447142Y-49753809D01*
X355447142Y-49991904D01*
X355399523Y-50087142D01*
X355351904Y-50134761D01*
X355256666Y-50182380D01*
X355018571Y-50182380D01*
X354923333Y-50134761D01*
X354875714Y-50087142D01*
X307851904Y-50887142D02*
X307804285Y-50934761D01*
X307661428Y-50982380D01*
X307566190Y-50982380D01*
X307423333Y-50934761D01*
X307328095Y-50839523D01*
X307280476Y-50744285D01*
X307232857Y-50553809D01*
X307232857Y-50410952D01*
X307280476Y-50220476D01*
X307328095Y-50125238D01*
X307423333Y-50030000D01*
X307566190Y-49982380D01*
X307661428Y-49982380D01*
X307804285Y-50030000D01*
X307851904Y-50077619D01*
X308423333Y-50982380D02*
X308328095Y-50934761D01*
X308280476Y-50887142D01*
X308232857Y-50791904D01*
X308232857Y-50506190D01*
X308280476Y-50410952D01*
X308328095Y-50363333D01*
X308423333Y-50315714D01*
X308566190Y-50315714D01*
X308661428Y-50363333D01*
X308709047Y-50410952D01*
X308756666Y-50506190D01*
X308756666Y-50791904D01*
X308709047Y-50887142D01*
X308661428Y-50934761D01*
X308566190Y-50982380D01*
X308423333Y-50982380D01*
X309328095Y-50982380D02*
X309232857Y-50934761D01*
X309185238Y-50839523D01*
X309185238Y-49982380D01*
X309470952Y-51077619D02*
X310232857Y-51077619D01*
X310994761Y-50982380D02*
X310423333Y-50982380D01*
X310709047Y-50982380D02*
X310709047Y-49982380D01*
X310613809Y-50125238D01*
X310518571Y-50220476D01*
X310423333Y-50268095D01*
X311328095Y-49982380D02*
X311947142Y-49982380D01*
X311613809Y-50363333D01*
X311756666Y-50363333D01*
X311851904Y-50410952D01*
X311899523Y-50458571D01*
X311947142Y-50553809D01*
X311947142Y-50791904D01*
X311899523Y-50887142D01*
X311851904Y-50934761D01*
X311756666Y-50982380D01*
X311470952Y-50982380D01*
X311375714Y-50934761D01*
X311328095Y-50887142D01*
X76428095Y-52687142D02*
X76380476Y-52734761D01*
X76237619Y-52782380D01*
X76142380Y-52782380D01*
X75999523Y-52734761D01*
X75904285Y-52639523D01*
X75856666Y-52544285D01*
X75809047Y-52353809D01*
X75809047Y-52210952D01*
X75856666Y-52020476D01*
X75904285Y-51925238D01*
X75999523Y-51830000D01*
X76142380Y-51782380D01*
X76237619Y-51782380D01*
X76380476Y-51830000D01*
X76428095Y-51877619D01*
X76999523Y-52782380D02*
X76904285Y-52734761D01*
X76856666Y-52687142D01*
X76809047Y-52591904D01*
X76809047Y-52306190D01*
X76856666Y-52210952D01*
X76904285Y-52163333D01*
X76999523Y-52115714D01*
X77142380Y-52115714D01*
X77237619Y-52163333D01*
X77285238Y-52210952D01*
X77332857Y-52306190D01*
X77332857Y-52591904D01*
X77285238Y-52687142D01*
X77237619Y-52734761D01*
X77142380Y-52782380D01*
X76999523Y-52782380D01*
X77904285Y-52782380D02*
X77809047Y-52734761D01*
X77761428Y-52639523D01*
X77761428Y-51782380D01*
X78047142Y-52877619D02*
X78809047Y-52877619D01*
X79570952Y-52782380D02*
X78999523Y-52782380D01*
X79285238Y-52782380D02*
X79285238Y-51782380D01*
X79190000Y-51925238D01*
X79094761Y-52020476D01*
X78999523Y-52068095D01*
X324451904Y-51438058D02*
X324404285Y-51485677D01*
X324261428Y-51533296D01*
X324166190Y-51533296D01*
X324023333Y-51485677D01*
X323928095Y-51390439D01*
X323880476Y-51295201D01*
X323832857Y-51104725D01*
X323832857Y-50961868D01*
X323880476Y-50771392D01*
X323928095Y-50676154D01*
X324023333Y-50580916D01*
X324166190Y-50533296D01*
X324261428Y-50533296D01*
X324404285Y-50580916D01*
X324451904Y-50628535D01*
X325023333Y-51533296D02*
X324928095Y-51485677D01*
X324880476Y-51438058D01*
X324832857Y-51342820D01*
X324832857Y-51057106D01*
X324880476Y-50961868D01*
X324928095Y-50914249D01*
X325023333Y-50866630D01*
X325166190Y-50866630D01*
X325261428Y-50914249D01*
X325309047Y-50961868D01*
X325356666Y-51057106D01*
X325356666Y-51342820D01*
X325309047Y-51438058D01*
X325261428Y-51485677D01*
X325166190Y-51533296D01*
X325023333Y-51533296D01*
X325928095Y-51533296D02*
X325832857Y-51485677D01*
X325785238Y-51390439D01*
X325785238Y-50533296D01*
X326070952Y-51628535D02*
X326832857Y-51628535D01*
X327594761Y-51533296D02*
X327023333Y-51533296D01*
X327309047Y-51533296D02*
X327309047Y-50533296D01*
X327213809Y-50676154D01*
X327118571Y-50771392D01*
X327023333Y-50819011D01*
X328451904Y-50866630D02*
X328451904Y-51533296D01*
X328213809Y-50485677D02*
X327975714Y-51199963D01*
X328594761Y-51199963D01*
X242551904Y-50387142D02*
X242504285Y-50434761D01*
X242361428Y-50482380D01*
X242266190Y-50482380D01*
X242123333Y-50434761D01*
X242028095Y-50339523D01*
X241980476Y-50244285D01*
X241932857Y-50053809D01*
X241932857Y-49910952D01*
X241980476Y-49720476D01*
X242028095Y-49625238D01*
X242123333Y-49530000D01*
X242266190Y-49482380D01*
X242361428Y-49482380D01*
X242504285Y-49530000D01*
X242551904Y-49577619D01*
X243123333Y-50482380D02*
X243028095Y-50434761D01*
X242980476Y-50387142D01*
X242932857Y-50291904D01*
X242932857Y-50006190D01*
X242980476Y-49910952D01*
X243028095Y-49863333D01*
X243123333Y-49815714D01*
X243266190Y-49815714D01*
X243361428Y-49863333D01*
X243409047Y-49910952D01*
X243456666Y-50006190D01*
X243456666Y-50291904D01*
X243409047Y-50387142D01*
X243361428Y-50434761D01*
X243266190Y-50482380D01*
X243123333Y-50482380D01*
X244028095Y-50482380D02*
X243932857Y-50434761D01*
X243885238Y-50339523D01*
X243885238Y-49482380D01*
X244170952Y-50577619D02*
X244932857Y-50577619D01*
X245694761Y-50482380D02*
X245123333Y-50482380D01*
X245409047Y-50482380D02*
X245409047Y-49482380D01*
X245313809Y-49625238D01*
X245218571Y-49720476D01*
X245123333Y-49768095D01*
X246313809Y-49482380D02*
X246409047Y-49482380D01*
X246504285Y-49530000D01*
X246551904Y-49577619D01*
X246599523Y-49672857D01*
X246647142Y-49863333D01*
X246647142Y-50101428D01*
X246599523Y-50291904D01*
X246551904Y-50387142D01*
X246504285Y-50434761D01*
X246409047Y-50482380D01*
X246313809Y-50482380D01*
X246218571Y-50434761D01*
X246170952Y-50387142D01*
X246123333Y-50291904D01*
X246075714Y-50101428D01*
X246075714Y-49863333D01*
X246123333Y-49672857D01*
X246170952Y-49577619D01*
X246218571Y-49530000D01*
X246313809Y-49482380D01*
X269651904Y-50387142D02*
X269604285Y-50434761D01*
X269461428Y-50482380D01*
X269366190Y-50482380D01*
X269223333Y-50434761D01*
X269128095Y-50339523D01*
X269080476Y-50244285D01*
X269032857Y-50053809D01*
X269032857Y-49910952D01*
X269080476Y-49720476D01*
X269128095Y-49625238D01*
X269223333Y-49530000D01*
X269366190Y-49482380D01*
X269461428Y-49482380D01*
X269604285Y-49530000D01*
X269651904Y-49577619D01*
X270223333Y-50482380D02*
X270128095Y-50434761D01*
X270080476Y-50387142D01*
X270032857Y-50291904D01*
X270032857Y-50006190D01*
X270080476Y-49910952D01*
X270128095Y-49863333D01*
X270223333Y-49815714D01*
X270366190Y-49815714D01*
X270461428Y-49863333D01*
X270509047Y-49910952D01*
X270556666Y-50006190D01*
X270556666Y-50291904D01*
X270509047Y-50387142D01*
X270461428Y-50434761D01*
X270366190Y-50482380D01*
X270223333Y-50482380D01*
X271128095Y-50482380D02*
X271032857Y-50434761D01*
X270985238Y-50339523D01*
X270985238Y-49482380D01*
X271270952Y-50577619D02*
X272032857Y-50577619D01*
X272794761Y-50482380D02*
X272223333Y-50482380D01*
X272509047Y-50482380D02*
X272509047Y-49482380D01*
X272413809Y-49625238D01*
X272318571Y-49720476D01*
X272223333Y-49768095D01*
X273747142Y-50482380D02*
X273175714Y-50482380D01*
X273461428Y-50482380D02*
X273461428Y-49482380D01*
X273366190Y-49625238D01*
X273270952Y-49720476D01*
X273175714Y-49768095D01*
X117528095Y-50087142D02*
X117480476Y-50134761D01*
X117337619Y-50182380D01*
X117242380Y-50182380D01*
X117099523Y-50134761D01*
X117004285Y-50039523D01*
X116956666Y-49944285D01*
X116909047Y-49753809D01*
X116909047Y-49610952D01*
X116956666Y-49420476D01*
X117004285Y-49325238D01*
X117099523Y-49230000D01*
X117242380Y-49182380D01*
X117337619Y-49182380D01*
X117480476Y-49230000D01*
X117528095Y-49277619D01*
X118099523Y-50182380D02*
X118004285Y-50134761D01*
X117956666Y-50087142D01*
X117909047Y-49991904D01*
X117909047Y-49706190D01*
X117956666Y-49610952D01*
X118004285Y-49563333D01*
X118099523Y-49515714D01*
X118242380Y-49515714D01*
X118337619Y-49563333D01*
X118385238Y-49610952D01*
X118432857Y-49706190D01*
X118432857Y-49991904D01*
X118385238Y-50087142D01*
X118337619Y-50134761D01*
X118242380Y-50182380D01*
X118099523Y-50182380D01*
X119004285Y-50182380D02*
X118909047Y-50134761D01*
X118861428Y-50039523D01*
X118861428Y-49182380D01*
X119147142Y-50277619D02*
X119909047Y-50277619D01*
X120051904Y-49182380D02*
X120670952Y-49182380D01*
X120337619Y-49563333D01*
X120480476Y-49563333D01*
X120575714Y-49610952D01*
X120623333Y-49658571D01*
X120670952Y-49753809D01*
X120670952Y-49991904D01*
X120623333Y-50087142D01*
X120575714Y-50134761D01*
X120480476Y-50182380D01*
X120194761Y-50182380D01*
X120099523Y-50134761D01*
X120051904Y-50087142D01*
X136228095Y-50987142D02*
X136180476Y-51034761D01*
X136037619Y-51082380D01*
X135942380Y-51082380D01*
X135799523Y-51034761D01*
X135704285Y-50939523D01*
X135656666Y-50844285D01*
X135609047Y-50653809D01*
X135609047Y-50510952D01*
X135656666Y-50320476D01*
X135704285Y-50225238D01*
X135799523Y-50130000D01*
X135942380Y-50082380D01*
X136037619Y-50082380D01*
X136180476Y-50130000D01*
X136228095Y-50177619D01*
X136799523Y-51082380D02*
X136704285Y-51034761D01*
X136656666Y-50987142D01*
X136609047Y-50891904D01*
X136609047Y-50606190D01*
X136656666Y-50510952D01*
X136704285Y-50463333D01*
X136799523Y-50415714D01*
X136942380Y-50415714D01*
X137037619Y-50463333D01*
X137085238Y-50510952D01*
X137132857Y-50606190D01*
X137132857Y-50891904D01*
X137085238Y-50987142D01*
X137037619Y-51034761D01*
X136942380Y-51082380D01*
X136799523Y-51082380D01*
X137704285Y-51082380D02*
X137609047Y-51034761D01*
X137561428Y-50939523D01*
X137561428Y-50082380D01*
X137847142Y-51177619D02*
X138609047Y-51177619D01*
X139275714Y-50415714D02*
X139275714Y-51082380D01*
X139037619Y-50034761D02*
X138799523Y-50749047D01*
X139418571Y-50749047D01*
D12*
X135310714Y-74810880D02*
X135310714Y-73810880D01*
X135882142Y-74810880D02*
X135453571Y-74239452D01*
X135882142Y-73810880D02*
X135310714Y-74382309D01*
X136215476Y-73810880D02*
X136834523Y-73810880D01*
X136501190Y-74191833D01*
X136644047Y-74191833D01*
X136739285Y-74239452D01*
X136786904Y-74287071D01*
X136834523Y-74382309D01*
X136834523Y-74620404D01*
X136786904Y-74715642D01*
X136739285Y-74763261D01*
X136644047Y-74810880D01*
X136358333Y-74810880D01*
X136263095Y-74763261D01*
X136215476Y-74715642D01*
X137405952Y-74239452D02*
X137310714Y-74191833D01*
X137263095Y-74144214D01*
X137215476Y-74048976D01*
X137215476Y-74001357D01*
X137263095Y-73906119D01*
X137310714Y-73858500D01*
X137405952Y-73810880D01*
X137596428Y-73810880D01*
X137691666Y-73858500D01*
X137739285Y-73906119D01*
X137786904Y-74001357D01*
X137786904Y-74048976D01*
X137739285Y-74144214D01*
X137691666Y-74191833D01*
X137596428Y-74239452D01*
X137405952Y-74239452D01*
X137310714Y-74287071D01*
X137263095Y-74334690D01*
X137215476Y-74429928D01*
X137215476Y-74620404D01*
X137263095Y-74715642D01*
X137310714Y-74763261D01*
X137405952Y-74810880D01*
X137596428Y-74810880D01*
X137691666Y-74763261D01*
X137739285Y-74715642D01*
X137786904Y-74620404D01*
X137786904Y-74429928D01*
X137739285Y-74334690D01*
X137691666Y-74287071D01*
X137596428Y-74239452D01*
X225798214Y-55760880D02*
X225798214Y-54760880D01*
X226369642Y-55760880D02*
X225941071Y-55189452D01*
X226369642Y-54760880D02*
X225798214Y-55332309D01*
X226750595Y-54856119D02*
X226798214Y-54808500D01*
X226893452Y-54760880D01*
X227131547Y-54760880D01*
X227226785Y-54808500D01*
X227274404Y-54856119D01*
X227322023Y-54951357D01*
X227322023Y-55046595D01*
X227274404Y-55189452D01*
X226702976Y-55760880D01*
X227322023Y-55760880D01*
X228179166Y-54760880D02*
X227988690Y-54760880D01*
X227893452Y-54808500D01*
X227845833Y-54856119D01*
X227750595Y-54998976D01*
X227702976Y-55189452D01*
X227702976Y-55570404D01*
X227750595Y-55665642D01*
X227798214Y-55713261D01*
X227893452Y-55760880D01*
X228083928Y-55760880D01*
X228179166Y-55713261D01*
X228226785Y-55665642D01*
X228274404Y-55570404D01*
X228274404Y-55332309D01*
X228226785Y-55237071D01*
X228179166Y-55189452D01*
X228083928Y-55141833D01*
X227893452Y-55141833D01*
X227798214Y-55189452D01*
X227750595Y-55237071D01*
X227702976Y-55332309D01*
X163428095Y-45432380D02*
X163428095Y-44432380D01*
X163428095Y-44908571D02*
X163999523Y-44908571D01*
X163999523Y-45432380D02*
X163999523Y-44432380D01*
X164904285Y-44765714D02*
X164904285Y-45432380D01*
X164666190Y-44384761D02*
X164428095Y-45099047D01*
X165047142Y-45099047D01*
X301998214Y-29090880D02*
X301998214Y-28090880D01*
X302569642Y-29090880D02*
X302141071Y-28519452D01*
X302569642Y-28090880D02*
X301998214Y-28662309D01*
X303522023Y-29090880D02*
X302950595Y-29090880D01*
X303236309Y-29090880D02*
X303236309Y-28090880D01*
X303141071Y-28233738D01*
X303045833Y-28328976D01*
X302950595Y-28376595D01*
X303902976Y-28186119D02*
X303950595Y-28138500D01*
X304045833Y-28090880D01*
X304283928Y-28090880D01*
X304379166Y-28138500D01*
X304426785Y-28186119D01*
X304474404Y-28281357D01*
X304474404Y-28376595D01*
X304426785Y-28519452D01*
X303855357Y-29090880D01*
X304474404Y-29090880D01*
X125785714Y-93860880D02*
X125785714Y-92860880D01*
X126357142Y-93860880D02*
X125928571Y-93289452D01*
X126357142Y-92860880D02*
X125785714Y-93432309D01*
X127261904Y-92860880D02*
X126785714Y-92860880D01*
X126738095Y-93337071D01*
X126785714Y-93289452D01*
X126880952Y-93241833D01*
X127119047Y-93241833D01*
X127214285Y-93289452D01*
X127261904Y-93337071D01*
X127309523Y-93432309D01*
X127309523Y-93670404D01*
X127261904Y-93765642D01*
X127214285Y-93813261D01*
X127119047Y-93860880D01*
X126880952Y-93860880D01*
X126785714Y-93813261D01*
X126738095Y-93765642D01*
X128166666Y-93194214D02*
X128166666Y-93860880D01*
X127928571Y-92813261D02*
X127690476Y-93527547D01*
X128309523Y-93527547D01*
X364704464Y-55760880D02*
X364704464Y-54760880D01*
X365275892Y-55760880D02*
X364847321Y-55189452D01*
X365275892Y-54760880D02*
X364704464Y-55332309D01*
X365609226Y-54760880D02*
X366228273Y-54760880D01*
X365894940Y-55141833D01*
X366037797Y-55141833D01*
X366133035Y-55189452D01*
X366180654Y-55237071D01*
X366228273Y-55332309D01*
X366228273Y-55570404D01*
X366180654Y-55665642D01*
X366133035Y-55713261D01*
X366037797Y-55760880D01*
X365752083Y-55760880D01*
X365656845Y-55713261D01*
X365609226Y-55665642D01*
X366609226Y-54856119D02*
X366656845Y-54808500D01*
X366752083Y-54760880D01*
X366990178Y-54760880D01*
X367085416Y-54808500D01*
X367133035Y-54856119D01*
X367180654Y-54951357D01*
X367180654Y-55046595D01*
X367133035Y-55189452D01*
X366561607Y-55760880D01*
X367180654Y-55760880D01*
X192460714Y-74810880D02*
X192460714Y-73810880D01*
X193032142Y-74810880D02*
X192603571Y-74239452D01*
X193032142Y-73810880D02*
X192460714Y-74382309D01*
X193889285Y-74144214D02*
X193889285Y-74810880D01*
X193651190Y-73763261D02*
X193413095Y-74477547D01*
X194032142Y-74477547D01*
X194936904Y-74810880D02*
X194365476Y-74810880D01*
X194651190Y-74810880D02*
X194651190Y-73810880D01*
X194555952Y-73953738D01*
X194460714Y-74048976D01*
X194365476Y-74096595D01*
X131024404Y-29090880D02*
X131024404Y-28090880D01*
X131595833Y-29090880D02*
X131167261Y-28519452D01*
X131595833Y-28090880D02*
X131024404Y-28662309D01*
X132452976Y-28424214D02*
X132452976Y-29090880D01*
X132214880Y-28043261D02*
X131976785Y-28757547D01*
X132595833Y-28757547D01*
X116260714Y-112910880D02*
X116260714Y-111910880D01*
X116832142Y-112910880D02*
X116403571Y-112339452D01*
X116832142Y-111910880D02*
X116260714Y-112482309D01*
X117689285Y-111910880D02*
X117498809Y-111910880D01*
X117403571Y-111958500D01*
X117355952Y-112006119D01*
X117260714Y-112148976D01*
X117213095Y-112339452D01*
X117213095Y-112720404D01*
X117260714Y-112815642D01*
X117308333Y-112863261D01*
X117403571Y-112910880D01*
X117594047Y-112910880D01*
X117689285Y-112863261D01*
X117736904Y-112815642D01*
X117784523Y-112720404D01*
X117784523Y-112482309D01*
X117736904Y-112387071D01*
X117689285Y-112339452D01*
X117594047Y-112291833D01*
X117403571Y-112291833D01*
X117308333Y-112339452D01*
X117260714Y-112387071D01*
X117213095Y-112482309D01*
X118641666Y-111910880D02*
X118451190Y-111910880D01*
X118355952Y-111958500D01*
X118308333Y-112006119D01*
X118213095Y-112148976D01*
X118165476Y-112339452D01*
X118165476Y-112720404D01*
X118213095Y-112815642D01*
X118260714Y-112863261D01*
X118355952Y-112910880D01*
X118546428Y-112910880D01*
X118641666Y-112863261D01*
X118689285Y-112815642D01*
X118736904Y-112720404D01*
X118736904Y-112482309D01*
X118689285Y-112387071D01*
X118641666Y-112339452D01*
X118546428Y-112291833D01*
X118355952Y-112291833D01*
X118260714Y-112339452D01*
X118213095Y-112387071D01*
X118165476Y-112482309D01*
X268660714Y-112910880D02*
X268660714Y-111910880D01*
X269232142Y-112910880D02*
X268803571Y-112339452D01*
X269232142Y-111910880D02*
X268660714Y-112482309D01*
X269565476Y-111910880D02*
X270232142Y-111910880D01*
X269803571Y-112910880D01*
X271041666Y-112244214D02*
X271041666Y-112910880D01*
X270803571Y-111863261D02*
X270565476Y-112577547D01*
X271184523Y-112577547D01*
X230560714Y-74810880D02*
X230560714Y-73810880D01*
X231132142Y-74810880D02*
X230703571Y-74239452D01*
X231132142Y-73810880D02*
X230560714Y-74382309D01*
X231989285Y-74144214D02*
X231989285Y-74810880D01*
X231751190Y-73763261D02*
X231513095Y-74477547D01*
X232132142Y-74477547D01*
X232417857Y-73810880D02*
X233036904Y-73810880D01*
X232703571Y-74191833D01*
X232846428Y-74191833D01*
X232941666Y-74239452D01*
X232989285Y-74287071D01*
X233036904Y-74382309D01*
X233036904Y-74620404D01*
X232989285Y-74715642D01*
X232941666Y-74763261D01*
X232846428Y-74810880D01*
X232560714Y-74810880D01*
X232465476Y-74763261D01*
X232417857Y-74715642D01*
X318666964Y-131960880D02*
X318666964Y-130960880D01*
X319238392Y-131960880D02*
X318809821Y-131389452D01*
X319238392Y-130960880D02*
X318666964Y-131532309D01*
X319809821Y-131389452D02*
X319714583Y-131341833D01*
X319666964Y-131294214D01*
X319619345Y-131198976D01*
X319619345Y-131151357D01*
X319666964Y-131056119D01*
X319714583Y-131008500D01*
X319809821Y-130960880D01*
X320000297Y-130960880D01*
X320095535Y-131008500D01*
X320143154Y-131056119D01*
X320190773Y-131151357D01*
X320190773Y-131198976D01*
X320143154Y-131294214D01*
X320095535Y-131341833D01*
X320000297Y-131389452D01*
X319809821Y-131389452D01*
X319714583Y-131437071D01*
X319666964Y-131484690D01*
X319619345Y-131579928D01*
X319619345Y-131770404D01*
X319666964Y-131865642D01*
X319714583Y-131913261D01*
X319809821Y-131960880D01*
X320000297Y-131960880D01*
X320095535Y-131913261D01*
X320143154Y-131865642D01*
X320190773Y-131770404D01*
X320190773Y-131579928D01*
X320143154Y-131484690D01*
X320095535Y-131437071D01*
X320000297Y-131389452D01*
X321047916Y-131294214D02*
X321047916Y-131960880D01*
X320809821Y-130913261D02*
X320571726Y-131627547D01*
X321190773Y-131627547D01*
D11*
X188837428Y-143484000D02*
X189563142Y-143484000D01*
X188692285Y-143919428D02*
X189200285Y-142395428D01*
X189708285Y-143919428D01*
X190216285Y-143919428D02*
X190216285Y-142903428D01*
X190216285Y-143193714D02*
X190288857Y-143048571D01*
X190361428Y-142976000D01*
X190506571Y-142903428D01*
X190651714Y-142903428D01*
X191812857Y-143846857D02*
X191667714Y-143919428D01*
X191377428Y-143919428D01*
X191232285Y-143846857D01*
X191159714Y-143774285D01*
X191087142Y-143629142D01*
X191087142Y-143193714D01*
X191159714Y-143048571D01*
X191232285Y-142976000D01*
X191377428Y-142903428D01*
X191667714Y-142903428D01*
X191812857Y-142976000D01*
X192466000Y-143919428D02*
X192466000Y-142395428D01*
X193119142Y-143919428D02*
X193119142Y-143121142D01*
X193046571Y-142976000D01*
X192901428Y-142903428D01*
X192683714Y-142903428D01*
X192538571Y-142976000D01*
X192466000Y-143048571D01*
X194570571Y-143919428D02*
X193844857Y-143919428D01*
X193844857Y-142395428D01*
X195078571Y-143919428D02*
X195078571Y-142903428D01*
X195078571Y-142395428D02*
X195006000Y-142468000D01*
X195078571Y-142540571D01*
X195151142Y-142468000D01*
X195078571Y-142395428D01*
X195078571Y-142540571D01*
X195804285Y-142903428D02*
X195804285Y-143919428D01*
X195804285Y-143048571D02*
X195876857Y-142976000D01*
X196022000Y-142903428D01*
X196239714Y-142903428D01*
X196384857Y-142976000D01*
X196457428Y-143121142D01*
X196457428Y-143919428D01*
X197836285Y-142903428D02*
X197836285Y-143919428D01*
X197183142Y-142903428D02*
X197183142Y-143701714D01*
X197255714Y-143846857D01*
X197400857Y-143919428D01*
X197618571Y-143919428D01*
X197763714Y-143846857D01*
X197836285Y-143774285D01*
X198416857Y-143919428D02*
X199215142Y-142903428D01*
X198416857Y-142903428D02*
X199215142Y-143919428D01*
D12*
X345813214Y-29090880D02*
X345813214Y-28090880D01*
X346384642Y-29090880D02*
X345956071Y-28519452D01*
X346384642Y-28090880D02*
X345813214Y-28662309D01*
X347337023Y-29090880D02*
X346765595Y-29090880D01*
X347051309Y-29090880D02*
X347051309Y-28090880D01*
X346956071Y-28233738D01*
X346860833Y-28328976D01*
X346765595Y-28376595D01*
X348194166Y-28424214D02*
X348194166Y-29090880D01*
X347956071Y-28043261D02*
X347717976Y-28757547D01*
X348337023Y-28757547D01*
X150074404Y-29090880D02*
X150074404Y-28090880D01*
X150645833Y-29090880D02*
X150217261Y-28519452D01*
X150645833Y-28090880D02*
X150074404Y-28662309D01*
X151550595Y-28090880D02*
X151074404Y-28090880D01*
X151026785Y-28567071D01*
X151074404Y-28519452D01*
X151169642Y-28471833D01*
X151407738Y-28471833D01*
X151502976Y-28519452D01*
X151550595Y-28567071D01*
X151598214Y-28662309D01*
X151598214Y-28900404D01*
X151550595Y-28995642D01*
X151502976Y-29043261D01*
X151407738Y-29090880D01*
X151169642Y-29090880D01*
X151074404Y-29043261D01*
X151026785Y-28995642D01*
X244848214Y-55760880D02*
X244848214Y-54760880D01*
X245419642Y-55760880D02*
X244991071Y-55189452D01*
X245419642Y-54760880D02*
X244848214Y-55332309D01*
X245800595Y-54856119D02*
X245848214Y-54808500D01*
X245943452Y-54760880D01*
X246181547Y-54760880D01*
X246276785Y-54808500D01*
X246324404Y-54856119D01*
X246372023Y-54951357D01*
X246372023Y-55046595D01*
X246324404Y-55189452D01*
X245752976Y-55760880D01*
X246372023Y-55760880D01*
X246705357Y-54760880D02*
X247372023Y-54760880D01*
X246943452Y-55760880D01*
X111974404Y-29090880D02*
X111974404Y-28090880D01*
X112545833Y-29090880D02*
X112117261Y-28519452D01*
X112545833Y-28090880D02*
X111974404Y-28662309D01*
X112879166Y-28090880D02*
X113498214Y-28090880D01*
X113164880Y-28471833D01*
X113307738Y-28471833D01*
X113402976Y-28519452D01*
X113450595Y-28567071D01*
X113498214Y-28662309D01*
X113498214Y-28900404D01*
X113450595Y-28995642D01*
X113402976Y-29043261D01*
X113307738Y-29090880D01*
X113022023Y-29090880D01*
X112926785Y-29043261D01*
X112879166Y-28995642D01*
X364704464Y-131960880D02*
X364704464Y-130960880D01*
X365275892Y-131960880D02*
X364847321Y-131389452D01*
X365275892Y-130960880D02*
X364704464Y-131532309D01*
X365847321Y-131389452D02*
X365752083Y-131341833D01*
X365704464Y-131294214D01*
X365656845Y-131198976D01*
X365656845Y-131151357D01*
X365704464Y-131056119D01*
X365752083Y-131008500D01*
X365847321Y-130960880D01*
X366037797Y-130960880D01*
X366133035Y-131008500D01*
X366180654Y-131056119D01*
X366228273Y-131151357D01*
X366228273Y-131198976D01*
X366180654Y-131294214D01*
X366133035Y-131341833D01*
X366037797Y-131389452D01*
X365847321Y-131389452D01*
X365752083Y-131437071D01*
X365704464Y-131484690D01*
X365656845Y-131579928D01*
X365656845Y-131770404D01*
X365704464Y-131865642D01*
X365752083Y-131913261D01*
X365847321Y-131960880D01*
X366037797Y-131960880D01*
X366133035Y-131913261D01*
X366180654Y-131865642D01*
X366228273Y-131770404D01*
X366228273Y-131579928D01*
X366180654Y-131484690D01*
X366133035Y-131437071D01*
X366037797Y-131389452D01*
X367085416Y-130960880D02*
X366894940Y-130960880D01*
X366799702Y-131008500D01*
X366752083Y-131056119D01*
X366656845Y-131198976D01*
X366609226Y-131389452D01*
X366609226Y-131770404D01*
X366656845Y-131865642D01*
X366704464Y-131913261D01*
X366799702Y-131960880D01*
X366990178Y-131960880D01*
X367085416Y-131913261D01*
X367133035Y-131865642D01*
X367180654Y-131770404D01*
X367180654Y-131532309D01*
X367133035Y-131437071D01*
X367085416Y-131389452D01*
X366990178Y-131341833D01*
X366799702Y-131341833D01*
X366704464Y-131389452D01*
X366656845Y-131437071D01*
X366609226Y-131532309D01*
X154360714Y-74810880D02*
X154360714Y-73810880D01*
X154932142Y-74810880D02*
X154503571Y-74239452D01*
X154932142Y-73810880D02*
X154360714Y-74382309D01*
X155265476Y-73810880D02*
X155884523Y-73810880D01*
X155551190Y-74191833D01*
X155694047Y-74191833D01*
X155789285Y-74239452D01*
X155836904Y-74287071D01*
X155884523Y-74382309D01*
X155884523Y-74620404D01*
X155836904Y-74715642D01*
X155789285Y-74763261D01*
X155694047Y-74810880D01*
X155408333Y-74810880D01*
X155313095Y-74763261D01*
X155265476Y-74715642D01*
X156360714Y-74810880D02*
X156551190Y-74810880D01*
X156646428Y-74763261D01*
X156694047Y-74715642D01*
X156789285Y-74572785D01*
X156836904Y-74382309D01*
X156836904Y-74001357D01*
X156789285Y-73906119D01*
X156741666Y-73858500D01*
X156646428Y-73810880D01*
X156455952Y-73810880D01*
X156360714Y-73858500D01*
X156313095Y-73906119D01*
X156265476Y-74001357D01*
X156265476Y-74239452D01*
X156313095Y-74334690D01*
X156360714Y-74382309D01*
X156455952Y-74429928D01*
X156646428Y-74429928D01*
X156741666Y-74382309D01*
X156789285Y-74334690D01*
X156836904Y-74239452D01*
X235164404Y-29090880D02*
X235164404Y-28090880D01*
X235735833Y-29090880D02*
X235307261Y-28519452D01*
X235735833Y-28090880D02*
X235164404Y-28662309D01*
X236212023Y-29090880D02*
X236402500Y-29090880D01*
X236497738Y-29043261D01*
X236545357Y-28995642D01*
X236640595Y-28852785D01*
X236688214Y-28662309D01*
X236688214Y-28281357D01*
X236640595Y-28186119D01*
X236592976Y-28138500D01*
X236497738Y-28090880D01*
X236307261Y-28090880D01*
X236212023Y-28138500D01*
X236164404Y-28186119D01*
X236116785Y-28281357D01*
X236116785Y-28519452D01*
X236164404Y-28614690D01*
X236212023Y-28662309D01*
X236307261Y-28709928D01*
X236497738Y-28709928D01*
X236592976Y-28662309D01*
X236640595Y-28614690D01*
X236688214Y-28519452D01*
X391578095Y-119532380D02*
X391578095Y-118532380D01*
X391578095Y-119008571D02*
X392149523Y-119008571D01*
X392149523Y-119532380D02*
X392149523Y-118532380D01*
X392673333Y-119532380D02*
X392863809Y-119532380D01*
X392959047Y-119484761D01*
X393006666Y-119437142D01*
X393101904Y-119294285D01*
X393149523Y-119103809D01*
X393149523Y-118722857D01*
X393101904Y-118627619D01*
X393054285Y-118580000D01*
X392959047Y-118532380D01*
X392768571Y-118532380D01*
X392673333Y-118580000D01*
X392625714Y-118627619D01*
X392578095Y-118722857D01*
X392578095Y-118960952D01*
X392625714Y-119056190D01*
X392673333Y-119103809D01*
X392768571Y-119151428D01*
X392959047Y-119151428D01*
X393054285Y-119103809D01*
X393101904Y-119056190D01*
X393149523Y-118960952D01*
X197064404Y-29090880D02*
X197064404Y-28090880D01*
X197635833Y-29090880D02*
X197207261Y-28519452D01*
X197635833Y-28090880D02*
X197064404Y-28662309D01*
X197969166Y-28090880D02*
X198635833Y-28090880D01*
X198207261Y-29090880D01*
X294854464Y-131960880D02*
X294854464Y-130960880D01*
X295425892Y-131960880D02*
X294997321Y-131389452D01*
X295425892Y-130960880D02*
X294854464Y-131532309D01*
X295997321Y-131389452D02*
X295902083Y-131341833D01*
X295854464Y-131294214D01*
X295806845Y-131198976D01*
X295806845Y-131151357D01*
X295854464Y-131056119D01*
X295902083Y-131008500D01*
X295997321Y-130960880D01*
X296187797Y-130960880D01*
X296283035Y-131008500D01*
X296330654Y-131056119D01*
X296378273Y-131151357D01*
X296378273Y-131198976D01*
X296330654Y-131294214D01*
X296283035Y-131341833D01*
X296187797Y-131389452D01*
X295997321Y-131389452D01*
X295902083Y-131437071D01*
X295854464Y-131484690D01*
X295806845Y-131579928D01*
X295806845Y-131770404D01*
X295854464Y-131865642D01*
X295902083Y-131913261D01*
X295997321Y-131960880D01*
X296187797Y-131960880D01*
X296283035Y-131913261D01*
X296330654Y-131865642D01*
X296378273Y-131770404D01*
X296378273Y-131579928D01*
X296330654Y-131484690D01*
X296283035Y-131437071D01*
X296187797Y-131389452D01*
X296711607Y-130960880D02*
X297330654Y-130960880D01*
X296997321Y-131341833D01*
X297140178Y-131341833D01*
X297235416Y-131389452D01*
X297283035Y-131437071D01*
X297330654Y-131532309D01*
X297330654Y-131770404D01*
X297283035Y-131865642D01*
X297235416Y-131913261D01*
X297140178Y-131960880D01*
X296854464Y-131960880D01*
X296759226Y-131913261D01*
X296711607Y-131865642D01*
X80541964Y-131960880D02*
X80541964Y-130960880D01*
X81113392Y-131960880D02*
X80684821Y-131389452D01*
X81113392Y-130960880D02*
X80541964Y-131532309D01*
X81446726Y-130960880D02*
X82113392Y-130960880D01*
X81684821Y-131960880D01*
X82637202Y-131389452D02*
X82541964Y-131341833D01*
X82494345Y-131294214D01*
X82446726Y-131198976D01*
X82446726Y-131151357D01*
X82494345Y-131056119D01*
X82541964Y-131008500D01*
X82637202Y-130960880D01*
X82827678Y-130960880D01*
X82922916Y-131008500D01*
X82970535Y-131056119D01*
X83018154Y-131151357D01*
X83018154Y-131198976D01*
X82970535Y-131294214D01*
X82922916Y-131341833D01*
X82827678Y-131389452D01*
X82637202Y-131389452D01*
X82541964Y-131437071D01*
X82494345Y-131484690D01*
X82446726Y-131579928D01*
X82446726Y-131770404D01*
X82494345Y-131865642D01*
X82541964Y-131913261D01*
X82637202Y-131960880D01*
X82827678Y-131960880D01*
X82922916Y-131913261D01*
X82970535Y-131865642D01*
X83018154Y-131770404D01*
X83018154Y-131579928D01*
X82970535Y-131484690D01*
X82922916Y-131437071D01*
X82827678Y-131389452D01*
X130548214Y-55760880D02*
X130548214Y-54760880D01*
X131119642Y-55760880D02*
X130691071Y-55189452D01*
X131119642Y-54760880D02*
X130548214Y-55332309D01*
X131500595Y-54856119D02*
X131548214Y-54808500D01*
X131643452Y-54760880D01*
X131881547Y-54760880D01*
X131976785Y-54808500D01*
X132024404Y-54856119D01*
X132072023Y-54951357D01*
X132072023Y-55046595D01*
X132024404Y-55189452D01*
X131452976Y-55760880D01*
X132072023Y-55760880D01*
X133024404Y-55760880D02*
X132452976Y-55760880D01*
X132738690Y-55760880D02*
X132738690Y-54760880D01*
X132643452Y-54903738D01*
X132548214Y-54998976D01*
X132452976Y-55046595D01*
X111498214Y-55760880D02*
X111498214Y-54760880D01*
X112069642Y-55760880D02*
X111641071Y-55189452D01*
X112069642Y-54760880D02*
X111498214Y-55332309D01*
X112450595Y-54856119D02*
X112498214Y-54808500D01*
X112593452Y-54760880D01*
X112831547Y-54760880D01*
X112926785Y-54808500D01*
X112974404Y-54856119D01*
X113022023Y-54951357D01*
X113022023Y-55046595D01*
X112974404Y-55189452D01*
X112402976Y-55760880D01*
X113022023Y-55760880D01*
X113641071Y-54760880D02*
X113736309Y-54760880D01*
X113831547Y-54808500D01*
X113879166Y-54856119D01*
X113926785Y-54951357D01*
X113974404Y-55141833D01*
X113974404Y-55379928D01*
X113926785Y-55570404D01*
X113879166Y-55665642D01*
X113831547Y-55713261D01*
X113736309Y-55760880D01*
X113641071Y-55760880D01*
X113545833Y-55713261D01*
X113498214Y-55665642D01*
X113450595Y-55570404D01*
X113402976Y-55379928D01*
X113402976Y-55141833D01*
X113450595Y-54951357D01*
X113498214Y-54856119D01*
X113545833Y-54808500D01*
X113641071Y-54760880D01*
X278185714Y-93860880D02*
X278185714Y-92860880D01*
X278757142Y-93860880D02*
X278328571Y-93289452D01*
X278757142Y-92860880D02*
X278185714Y-93432309D01*
X279614285Y-92860880D02*
X279423809Y-92860880D01*
X279328571Y-92908500D01*
X279280952Y-92956119D01*
X279185714Y-93098976D01*
X279138095Y-93289452D01*
X279138095Y-93670404D01*
X279185714Y-93765642D01*
X279233333Y-93813261D01*
X279328571Y-93860880D01*
X279519047Y-93860880D01*
X279614285Y-93813261D01*
X279661904Y-93765642D01*
X279709523Y-93670404D01*
X279709523Y-93432309D01*
X279661904Y-93337071D01*
X279614285Y-93289452D01*
X279519047Y-93241833D01*
X279328571Y-93241833D01*
X279233333Y-93289452D01*
X279185714Y-93337071D01*
X279138095Y-93432309D01*
X280090476Y-92956119D02*
X280138095Y-92908500D01*
X280233333Y-92860880D01*
X280471428Y-92860880D01*
X280566666Y-92908500D01*
X280614285Y-92956119D01*
X280661904Y-93051357D01*
X280661904Y-93146595D01*
X280614285Y-93289452D01*
X280042857Y-93860880D01*
X280661904Y-93860880D01*
X249610714Y-74810880D02*
X249610714Y-73810880D01*
X250182142Y-74810880D02*
X249753571Y-74239452D01*
X250182142Y-73810880D02*
X249610714Y-74382309D01*
X251039285Y-74144214D02*
X251039285Y-74810880D01*
X250801190Y-73763261D02*
X250563095Y-74477547D01*
X251182142Y-74477547D01*
X251991666Y-74144214D02*
X251991666Y-74810880D01*
X251753571Y-73763261D02*
X251515476Y-74477547D01*
X252134523Y-74477547D01*
X104354464Y-131960880D02*
X104354464Y-130960880D01*
X104925892Y-131960880D02*
X104497321Y-131389452D01*
X104925892Y-130960880D02*
X104354464Y-131532309D01*
X105259226Y-130960880D02*
X105925892Y-130960880D01*
X105497321Y-131960880D01*
X106354464Y-131960880D02*
X106544940Y-131960880D01*
X106640178Y-131913261D01*
X106687797Y-131865642D01*
X106783035Y-131722785D01*
X106830654Y-131532309D01*
X106830654Y-131151357D01*
X106783035Y-131056119D01*
X106735416Y-131008500D01*
X106640178Y-130960880D01*
X106449702Y-130960880D01*
X106354464Y-131008500D01*
X106306845Y-131056119D01*
X106259226Y-131151357D01*
X106259226Y-131389452D01*
X106306845Y-131484690D01*
X106354464Y-131532309D01*
X106449702Y-131579928D01*
X106640178Y-131579928D01*
X106735416Y-131532309D01*
X106783035Y-131484690D01*
X106830654Y-131389452D01*
X259135714Y-93860880D02*
X259135714Y-92860880D01*
X259707142Y-93860880D02*
X259278571Y-93289452D01*
X259707142Y-92860880D02*
X259135714Y-93432309D01*
X260564285Y-92860880D02*
X260373809Y-92860880D01*
X260278571Y-92908500D01*
X260230952Y-92956119D01*
X260135714Y-93098976D01*
X260088095Y-93289452D01*
X260088095Y-93670404D01*
X260135714Y-93765642D01*
X260183333Y-93813261D01*
X260278571Y-93860880D01*
X260469047Y-93860880D01*
X260564285Y-93813261D01*
X260611904Y-93765642D01*
X260659523Y-93670404D01*
X260659523Y-93432309D01*
X260611904Y-93337071D01*
X260564285Y-93289452D01*
X260469047Y-93241833D01*
X260278571Y-93241833D01*
X260183333Y-93289452D01*
X260135714Y-93337071D01*
X260088095Y-93432309D01*
X261611904Y-93860880D02*
X261040476Y-93860880D01*
X261326190Y-93860880D02*
X261326190Y-92860880D01*
X261230952Y-93003738D01*
X261135714Y-93098976D01*
X261040476Y-93146595D01*
X116260714Y-74810880D02*
X116260714Y-73810880D01*
X116832142Y-74810880D02*
X116403571Y-74239452D01*
X116832142Y-73810880D02*
X116260714Y-74382309D01*
X117165476Y-73810880D02*
X117784523Y-73810880D01*
X117451190Y-74191833D01*
X117594047Y-74191833D01*
X117689285Y-74239452D01*
X117736904Y-74287071D01*
X117784523Y-74382309D01*
X117784523Y-74620404D01*
X117736904Y-74715642D01*
X117689285Y-74763261D01*
X117594047Y-74810880D01*
X117308333Y-74810880D01*
X117213095Y-74763261D01*
X117165476Y-74715642D01*
X118117857Y-73810880D02*
X118784523Y-73810880D01*
X118355952Y-74810880D01*
X383754464Y-131960880D02*
X383754464Y-130960880D01*
X384325892Y-131960880D02*
X383897321Y-131389452D01*
X384325892Y-130960880D02*
X383754464Y-131532309D01*
X384897321Y-131389452D02*
X384802083Y-131341833D01*
X384754464Y-131294214D01*
X384706845Y-131198976D01*
X384706845Y-131151357D01*
X384754464Y-131056119D01*
X384802083Y-131008500D01*
X384897321Y-130960880D01*
X385087797Y-130960880D01*
X385183035Y-131008500D01*
X385230654Y-131056119D01*
X385278273Y-131151357D01*
X385278273Y-131198976D01*
X385230654Y-131294214D01*
X385183035Y-131341833D01*
X385087797Y-131389452D01*
X384897321Y-131389452D01*
X384802083Y-131437071D01*
X384754464Y-131484690D01*
X384706845Y-131579928D01*
X384706845Y-131770404D01*
X384754464Y-131865642D01*
X384802083Y-131913261D01*
X384897321Y-131960880D01*
X385087797Y-131960880D01*
X385183035Y-131913261D01*
X385230654Y-131865642D01*
X385278273Y-131770404D01*
X385278273Y-131579928D01*
X385230654Y-131484690D01*
X385183035Y-131437071D01*
X385087797Y-131389452D01*
X385611607Y-130960880D02*
X386278273Y-130960880D01*
X385849702Y-131960880D01*
X282948214Y-29090880D02*
X282948214Y-28090880D01*
X283519642Y-29090880D02*
X283091071Y-28519452D01*
X283519642Y-28090880D02*
X282948214Y-28662309D01*
X284472023Y-29090880D02*
X283900595Y-29090880D01*
X284186309Y-29090880D02*
X284186309Y-28090880D01*
X284091071Y-28233738D01*
X283995833Y-28328976D01*
X283900595Y-28376595D01*
X285424404Y-29090880D02*
X284852976Y-29090880D01*
X285138690Y-29090880D02*
X285138690Y-28090880D01*
X285043452Y-28233738D01*
X284948214Y-28328976D01*
X284852976Y-28376595D01*
X144835714Y-93860880D02*
X144835714Y-92860880D01*
X145407142Y-93860880D02*
X144978571Y-93289452D01*
X145407142Y-92860880D02*
X144835714Y-93432309D01*
X146311904Y-92860880D02*
X145835714Y-92860880D01*
X145788095Y-93337071D01*
X145835714Y-93289452D01*
X145930952Y-93241833D01*
X146169047Y-93241833D01*
X146264285Y-93289452D01*
X146311904Y-93337071D01*
X146359523Y-93432309D01*
X146359523Y-93670404D01*
X146311904Y-93765642D01*
X146264285Y-93813261D01*
X146169047Y-93860880D01*
X145930952Y-93860880D01*
X145835714Y-93813261D01*
X145788095Y-93765642D01*
X147264285Y-92860880D02*
X146788095Y-92860880D01*
X146740476Y-93337071D01*
X146788095Y-93289452D01*
X146883333Y-93241833D01*
X147121428Y-93241833D01*
X147216666Y-93289452D01*
X147264285Y-93337071D01*
X147311904Y-93432309D01*
X147311904Y-93670404D01*
X147264285Y-93765642D01*
X147216666Y-93813261D01*
X147121428Y-93860880D01*
X146883333Y-93860880D01*
X146788095Y-93813261D01*
X146740476Y-93765642D01*
X87685714Y-93860880D02*
X87685714Y-92860880D01*
X88257142Y-93860880D02*
X87828571Y-93289452D01*
X88257142Y-92860880D02*
X87685714Y-93432309D01*
X89161904Y-92860880D02*
X88685714Y-92860880D01*
X88638095Y-93337071D01*
X88685714Y-93289452D01*
X88780952Y-93241833D01*
X89019047Y-93241833D01*
X89114285Y-93289452D01*
X89161904Y-93337071D01*
X89209523Y-93432309D01*
X89209523Y-93670404D01*
X89161904Y-93765642D01*
X89114285Y-93813261D01*
X89019047Y-93860880D01*
X88780952Y-93860880D01*
X88685714Y-93813261D01*
X88638095Y-93765642D01*
X89590476Y-92956119D02*
X89638095Y-92908500D01*
X89733333Y-92860880D01*
X89971428Y-92860880D01*
X90066666Y-92908500D01*
X90114285Y-92956119D01*
X90161904Y-93051357D01*
X90161904Y-93146595D01*
X90114285Y-93289452D01*
X89542857Y-93860880D01*
X90161904Y-93860880D01*
X106735714Y-93860880D02*
X106735714Y-92860880D01*
X107307142Y-93860880D02*
X106878571Y-93289452D01*
X107307142Y-92860880D02*
X106735714Y-93432309D01*
X108211904Y-92860880D02*
X107735714Y-92860880D01*
X107688095Y-93337071D01*
X107735714Y-93289452D01*
X107830952Y-93241833D01*
X108069047Y-93241833D01*
X108164285Y-93289452D01*
X108211904Y-93337071D01*
X108259523Y-93432309D01*
X108259523Y-93670404D01*
X108211904Y-93765642D01*
X108164285Y-93813261D01*
X108069047Y-93860880D01*
X107830952Y-93860880D01*
X107735714Y-93813261D01*
X107688095Y-93765642D01*
X108592857Y-92860880D02*
X109211904Y-92860880D01*
X108878571Y-93241833D01*
X109021428Y-93241833D01*
X109116666Y-93289452D01*
X109164285Y-93337071D01*
X109211904Y-93432309D01*
X109211904Y-93670404D01*
X109164285Y-93765642D01*
X109116666Y-93813261D01*
X109021428Y-93860880D01*
X108735714Y-93860880D01*
X108640476Y-93813261D01*
X108592857Y-93765642D01*
X135310714Y-112910880D02*
X135310714Y-111910880D01*
X135882142Y-112910880D02*
X135453571Y-112339452D01*
X135882142Y-111910880D02*
X135310714Y-112482309D01*
X136739285Y-111910880D02*
X136548809Y-111910880D01*
X136453571Y-111958500D01*
X136405952Y-112006119D01*
X136310714Y-112148976D01*
X136263095Y-112339452D01*
X136263095Y-112720404D01*
X136310714Y-112815642D01*
X136358333Y-112863261D01*
X136453571Y-112910880D01*
X136644047Y-112910880D01*
X136739285Y-112863261D01*
X136786904Y-112815642D01*
X136834523Y-112720404D01*
X136834523Y-112482309D01*
X136786904Y-112387071D01*
X136739285Y-112339452D01*
X136644047Y-112291833D01*
X136453571Y-112291833D01*
X136358333Y-112339452D01*
X136310714Y-112387071D01*
X136263095Y-112482309D01*
X137167857Y-111910880D02*
X137834523Y-111910880D01*
X137405952Y-112910880D01*
X345654464Y-74810880D02*
X345654464Y-73810880D01*
X346225892Y-74810880D02*
X345797321Y-74239452D01*
X346225892Y-73810880D02*
X345654464Y-74382309D01*
X347083035Y-74144214D02*
X347083035Y-74810880D01*
X346844940Y-73763261D02*
X346606845Y-74477547D01*
X347225892Y-74477547D01*
X347749702Y-74239452D02*
X347654464Y-74191833D01*
X347606845Y-74144214D01*
X347559226Y-74048976D01*
X347559226Y-74001357D01*
X347606845Y-73906119D01*
X347654464Y-73858500D01*
X347749702Y-73810880D01*
X347940178Y-73810880D01*
X348035416Y-73858500D01*
X348083035Y-73906119D01*
X348130654Y-74001357D01*
X348130654Y-74048976D01*
X348083035Y-74144214D01*
X348035416Y-74191833D01*
X347940178Y-74239452D01*
X347749702Y-74239452D01*
X347654464Y-74287071D01*
X347606845Y-74334690D01*
X347559226Y-74429928D01*
X347559226Y-74620404D01*
X347606845Y-74715642D01*
X347654464Y-74763261D01*
X347749702Y-74810880D01*
X347940178Y-74810880D01*
X348035416Y-74763261D01*
X348083035Y-74715642D01*
X348130654Y-74620404D01*
X348130654Y-74429928D01*
X348083035Y-74334690D01*
X348035416Y-74287071D01*
X347940178Y-74239452D01*
X230560714Y-112910880D02*
X230560714Y-111910880D01*
X231132142Y-112910880D02*
X230703571Y-112339452D01*
X231132142Y-111910880D02*
X230560714Y-112482309D01*
X231465476Y-111910880D02*
X232132142Y-111910880D01*
X231703571Y-112910880D01*
X232465476Y-112006119D02*
X232513095Y-111958500D01*
X232608333Y-111910880D01*
X232846428Y-111910880D01*
X232941666Y-111958500D01*
X232989285Y-112006119D01*
X233036904Y-112101357D01*
X233036904Y-112196595D01*
X232989285Y-112339452D01*
X232417857Y-112910880D01*
X233036904Y-112910880D01*
X287710714Y-74810880D02*
X287710714Y-73810880D01*
X288282142Y-74810880D02*
X287853571Y-74239452D01*
X288282142Y-73810880D02*
X287710714Y-74382309D01*
X289139285Y-74144214D02*
X289139285Y-74810880D01*
X288901190Y-73763261D02*
X288663095Y-74477547D01*
X289282142Y-74477547D01*
X290091666Y-73810880D02*
X289901190Y-73810880D01*
X289805952Y-73858500D01*
X289758333Y-73906119D01*
X289663095Y-74048976D01*
X289615476Y-74239452D01*
X289615476Y-74620404D01*
X289663095Y-74715642D01*
X289710714Y-74763261D01*
X289805952Y-74810880D01*
X289996428Y-74810880D01*
X290091666Y-74763261D01*
X290139285Y-74715642D01*
X290186904Y-74620404D01*
X290186904Y-74382309D01*
X290139285Y-74287071D01*
X290091666Y-74239452D01*
X289996428Y-74191833D01*
X289805952Y-74191833D01*
X289710714Y-74239452D01*
X289663095Y-74287071D01*
X289615476Y-74382309D01*
X364863214Y-29090880D02*
X364863214Y-28090880D01*
X365434642Y-29090880D02*
X365006071Y-28519452D01*
X365434642Y-28090880D02*
X364863214Y-28662309D01*
X366387023Y-29090880D02*
X365815595Y-29090880D01*
X366101309Y-29090880D02*
X366101309Y-28090880D01*
X366006071Y-28233738D01*
X365910833Y-28328976D01*
X365815595Y-28376595D01*
X367291785Y-28090880D02*
X366815595Y-28090880D01*
X366767976Y-28567071D01*
X366815595Y-28519452D01*
X366910833Y-28471833D01*
X367148928Y-28471833D01*
X367244166Y-28519452D01*
X367291785Y-28567071D01*
X367339404Y-28662309D01*
X367339404Y-28900404D01*
X367291785Y-28995642D01*
X367244166Y-29043261D01*
X367148928Y-29090880D01*
X366910833Y-29090880D01*
X366815595Y-29043261D01*
X366767976Y-28995642D01*
X296501904Y-47432380D02*
X296501904Y-46432380D01*
X296501904Y-46908571D02*
X297073333Y-46908571D01*
X297073333Y-47432380D02*
X297073333Y-46432380D01*
X298073333Y-47432380D02*
X297501904Y-47432380D01*
X297787619Y-47432380D02*
X297787619Y-46432380D01*
X297692380Y-46575238D01*
X297597142Y-46670476D01*
X297501904Y-46718095D01*
X298692380Y-46432380D02*
X298787619Y-46432380D01*
X298882857Y-46480000D01*
X298930476Y-46527619D01*
X298978095Y-46622857D01*
X299025714Y-46813333D01*
X299025714Y-47051428D01*
X298978095Y-47241904D01*
X298930476Y-47337142D01*
X298882857Y-47384761D01*
X298787619Y-47432380D01*
X298692380Y-47432380D01*
X298597142Y-47384761D01*
X298549523Y-47337142D01*
X298501904Y-47241904D01*
X298454285Y-47051428D01*
X298454285Y-46813333D01*
X298501904Y-46622857D01*
X298549523Y-46527619D01*
X298597142Y-46480000D01*
X298692380Y-46432380D01*
X321048214Y-29090880D02*
X321048214Y-28090880D01*
X321619642Y-29090880D02*
X321191071Y-28519452D01*
X321619642Y-28090880D02*
X321048214Y-28662309D01*
X322572023Y-29090880D02*
X322000595Y-29090880D01*
X322286309Y-29090880D02*
X322286309Y-28090880D01*
X322191071Y-28233738D01*
X322095833Y-28328976D01*
X322000595Y-28376595D01*
X322905357Y-28090880D02*
X323524404Y-28090880D01*
X323191071Y-28471833D01*
X323333928Y-28471833D01*
X323429166Y-28519452D01*
X323476785Y-28567071D01*
X323524404Y-28662309D01*
X323524404Y-28900404D01*
X323476785Y-28995642D01*
X323429166Y-29043261D01*
X323333928Y-29090880D01*
X323048214Y-29090880D01*
X322952976Y-29043261D01*
X322905357Y-28995642D01*
X131628095Y-133782380D02*
X131628095Y-132782380D01*
X131628095Y-133258571D02*
X132199523Y-133258571D01*
X132199523Y-133782380D02*
X132199523Y-132782380D01*
X132628095Y-132877619D02*
X132675714Y-132830000D01*
X132770952Y-132782380D01*
X133009047Y-132782380D01*
X133104285Y-132830000D01*
X133151904Y-132877619D01*
X133199523Y-132972857D01*
X133199523Y-133068095D01*
X133151904Y-133210952D01*
X132580476Y-133782380D01*
X133199523Y-133782380D01*
X92924404Y-29090880D02*
X92924404Y-28090880D01*
X93495833Y-29090880D02*
X93067261Y-28519452D01*
X93495833Y-28090880D02*
X92924404Y-28662309D01*
X93876785Y-28186119D02*
X93924404Y-28138500D01*
X94019642Y-28090880D01*
X94257738Y-28090880D01*
X94352976Y-28138500D01*
X94400595Y-28186119D01*
X94448214Y-28281357D01*
X94448214Y-28376595D01*
X94400595Y-28519452D01*
X93829166Y-29090880D01*
X94448214Y-29090880D01*
X163885714Y-93860880D02*
X163885714Y-92860880D01*
X164457142Y-93860880D02*
X164028571Y-93289452D01*
X164457142Y-92860880D02*
X163885714Y-93432309D01*
X165361904Y-92860880D02*
X164885714Y-92860880D01*
X164838095Y-93337071D01*
X164885714Y-93289452D01*
X164980952Y-93241833D01*
X165219047Y-93241833D01*
X165314285Y-93289452D01*
X165361904Y-93337071D01*
X165409523Y-93432309D01*
X165409523Y-93670404D01*
X165361904Y-93765642D01*
X165314285Y-93813261D01*
X165219047Y-93860880D01*
X164980952Y-93860880D01*
X164885714Y-93813261D01*
X164838095Y-93765642D01*
X166266666Y-92860880D02*
X166076190Y-92860880D01*
X165980952Y-92908500D01*
X165933333Y-92956119D01*
X165838095Y-93098976D01*
X165790476Y-93289452D01*
X165790476Y-93670404D01*
X165838095Y-93765642D01*
X165885714Y-93813261D01*
X165980952Y-93860880D01*
X166171428Y-93860880D01*
X166266666Y-93813261D01*
X166314285Y-93765642D01*
X166361904Y-93670404D01*
X166361904Y-93432309D01*
X166314285Y-93337071D01*
X166266666Y-93289452D01*
X166171428Y-93241833D01*
X165980952Y-93241833D01*
X165885714Y-93289452D01*
X165838095Y-93337071D01*
X165790476Y-93432309D01*
X192460714Y-112910880D02*
X192460714Y-111910880D01*
X193032142Y-112910880D02*
X192603571Y-112339452D01*
X193032142Y-111910880D02*
X192460714Y-112482309D01*
X193365476Y-111910880D02*
X194032142Y-111910880D01*
X193603571Y-112910880D01*
X194603571Y-111910880D02*
X194698809Y-111910880D01*
X194794047Y-111958500D01*
X194841666Y-112006119D01*
X194889285Y-112101357D01*
X194936904Y-112291833D01*
X194936904Y-112529928D01*
X194889285Y-112720404D01*
X194841666Y-112815642D01*
X194794047Y-112863261D01*
X194698809Y-112910880D01*
X194603571Y-112910880D01*
X194508333Y-112863261D01*
X194460714Y-112815642D01*
X194413095Y-112720404D01*
X194365476Y-112529928D01*
X194365476Y-112291833D01*
X194413095Y-112101357D01*
X194460714Y-112006119D01*
X194508333Y-111958500D01*
X194603571Y-111910880D01*
X201985714Y-93860880D02*
X201985714Y-92860880D01*
X202557142Y-93860880D02*
X202128571Y-93289452D01*
X202557142Y-92860880D02*
X201985714Y-93432309D01*
X203461904Y-92860880D02*
X202985714Y-92860880D01*
X202938095Y-93337071D01*
X202985714Y-93289452D01*
X203080952Y-93241833D01*
X203319047Y-93241833D01*
X203414285Y-93289452D01*
X203461904Y-93337071D01*
X203509523Y-93432309D01*
X203509523Y-93670404D01*
X203461904Y-93765642D01*
X203414285Y-93813261D01*
X203319047Y-93860880D01*
X203080952Y-93860880D01*
X202985714Y-93813261D01*
X202938095Y-93765642D01*
X204080952Y-93289452D02*
X203985714Y-93241833D01*
X203938095Y-93194214D01*
X203890476Y-93098976D01*
X203890476Y-93051357D01*
X203938095Y-92956119D01*
X203985714Y-92908500D01*
X204080952Y-92860880D01*
X204271428Y-92860880D01*
X204366666Y-92908500D01*
X204414285Y-92956119D01*
X204461904Y-93051357D01*
X204461904Y-93098976D01*
X204414285Y-93194214D01*
X204366666Y-93241833D01*
X204271428Y-93289452D01*
X204080952Y-93289452D01*
X203985714Y-93337071D01*
X203938095Y-93384690D01*
X203890476Y-93479928D01*
X203890476Y-93670404D01*
X203938095Y-93765642D01*
X203985714Y-93813261D01*
X204080952Y-93860880D01*
X204271428Y-93860880D01*
X204366666Y-93813261D01*
X204414285Y-93765642D01*
X204461904Y-93670404D01*
X204461904Y-93479928D01*
X204414285Y-93384690D01*
X204366666Y-93337071D01*
X204271428Y-93289452D01*
X168648214Y-55760880D02*
X168648214Y-54760880D01*
X169219642Y-55760880D02*
X168791071Y-55189452D01*
X169219642Y-54760880D02*
X168648214Y-55332309D01*
X169600595Y-54856119D02*
X169648214Y-54808500D01*
X169743452Y-54760880D01*
X169981547Y-54760880D01*
X170076785Y-54808500D01*
X170124404Y-54856119D01*
X170172023Y-54951357D01*
X170172023Y-55046595D01*
X170124404Y-55189452D01*
X169552976Y-55760880D01*
X170172023Y-55760880D01*
X170505357Y-54760880D02*
X171124404Y-54760880D01*
X170791071Y-55141833D01*
X170933928Y-55141833D01*
X171029166Y-55189452D01*
X171076785Y-55237071D01*
X171124404Y-55332309D01*
X171124404Y-55570404D01*
X171076785Y-55665642D01*
X171029166Y-55713261D01*
X170933928Y-55760880D01*
X170648214Y-55760880D01*
X170552976Y-55713261D01*
X170505357Y-55665642D01*
X211510714Y-74810880D02*
X211510714Y-73810880D01*
X212082142Y-74810880D02*
X211653571Y-74239452D01*
X212082142Y-73810880D02*
X211510714Y-74382309D01*
X212939285Y-74144214D02*
X212939285Y-74810880D01*
X212701190Y-73763261D02*
X212463095Y-74477547D01*
X213082142Y-74477547D01*
X213415476Y-73906119D02*
X213463095Y-73858500D01*
X213558333Y-73810880D01*
X213796428Y-73810880D01*
X213891666Y-73858500D01*
X213939285Y-73906119D01*
X213986904Y-74001357D01*
X213986904Y-74096595D01*
X213939285Y-74239452D01*
X213367857Y-74810880D01*
X213986904Y-74810880D01*
X383754464Y-55760880D02*
X383754464Y-54760880D01*
X384325892Y-55760880D02*
X383897321Y-55189452D01*
X384325892Y-54760880D02*
X383754464Y-55332309D01*
X384659226Y-54760880D02*
X385278273Y-54760880D01*
X384944940Y-55141833D01*
X385087797Y-55141833D01*
X385183035Y-55189452D01*
X385230654Y-55237071D01*
X385278273Y-55332309D01*
X385278273Y-55570404D01*
X385230654Y-55665642D01*
X385183035Y-55713261D01*
X385087797Y-55760880D01*
X384802083Y-55760880D01*
X384706845Y-55713261D01*
X384659226Y-55665642D01*
X385611607Y-54760880D02*
X386230654Y-54760880D01*
X385897321Y-55141833D01*
X386040178Y-55141833D01*
X386135416Y-55189452D01*
X386183035Y-55237071D01*
X386230654Y-55332309D01*
X386230654Y-55570404D01*
X386183035Y-55665642D01*
X386135416Y-55713261D01*
X386040178Y-55760880D01*
X385754464Y-55760880D01*
X385659226Y-55713261D01*
X385611607Y-55665642D01*
X149598214Y-55760880D02*
X149598214Y-54760880D01*
X150169642Y-55760880D02*
X149741071Y-55189452D01*
X150169642Y-54760880D02*
X149598214Y-55332309D01*
X150550595Y-54856119D02*
X150598214Y-54808500D01*
X150693452Y-54760880D01*
X150931547Y-54760880D01*
X151026785Y-54808500D01*
X151074404Y-54856119D01*
X151122023Y-54951357D01*
X151122023Y-55046595D01*
X151074404Y-55189452D01*
X150502976Y-55760880D01*
X151122023Y-55760880D01*
X151502976Y-54856119D02*
X151550595Y-54808500D01*
X151645833Y-54760880D01*
X151883928Y-54760880D01*
X151979166Y-54808500D01*
X152026785Y-54856119D01*
X152074404Y-54951357D01*
X152074404Y-55046595D01*
X152026785Y-55189452D01*
X151455357Y-55760880D01*
X152074404Y-55760880D01*
X268660714Y-74810880D02*
X268660714Y-73810880D01*
X269232142Y-74810880D02*
X268803571Y-74239452D01*
X269232142Y-73810880D02*
X268660714Y-74382309D01*
X270089285Y-74144214D02*
X270089285Y-74810880D01*
X269851190Y-73763261D02*
X269613095Y-74477547D01*
X270232142Y-74477547D01*
X271089285Y-73810880D02*
X270613095Y-73810880D01*
X270565476Y-74287071D01*
X270613095Y-74239452D01*
X270708333Y-74191833D01*
X270946428Y-74191833D01*
X271041666Y-74239452D01*
X271089285Y-74287071D01*
X271136904Y-74382309D01*
X271136904Y-74620404D01*
X271089285Y-74715642D01*
X271041666Y-74763261D01*
X270946428Y-74810880D01*
X270708333Y-74810880D01*
X270613095Y-74763261D01*
X270565476Y-74715642D01*
X173410714Y-112910880D02*
X173410714Y-111910880D01*
X173982142Y-112910880D02*
X173553571Y-112339452D01*
X173982142Y-111910880D02*
X173410714Y-112482309D01*
X174839285Y-111910880D02*
X174648809Y-111910880D01*
X174553571Y-111958500D01*
X174505952Y-112006119D01*
X174410714Y-112148976D01*
X174363095Y-112339452D01*
X174363095Y-112720404D01*
X174410714Y-112815642D01*
X174458333Y-112863261D01*
X174553571Y-112910880D01*
X174744047Y-112910880D01*
X174839285Y-112863261D01*
X174886904Y-112815642D01*
X174934523Y-112720404D01*
X174934523Y-112482309D01*
X174886904Y-112387071D01*
X174839285Y-112339452D01*
X174744047Y-112291833D01*
X174553571Y-112291833D01*
X174458333Y-112339452D01*
X174410714Y-112387071D01*
X174363095Y-112482309D01*
X175410714Y-112910880D02*
X175601190Y-112910880D01*
X175696428Y-112863261D01*
X175744047Y-112815642D01*
X175839285Y-112672785D01*
X175886904Y-112482309D01*
X175886904Y-112101357D01*
X175839285Y-112006119D01*
X175791666Y-111958500D01*
X175696428Y-111910880D01*
X175505952Y-111910880D01*
X175410714Y-111958500D01*
X175363095Y-112006119D01*
X175315476Y-112101357D01*
X175315476Y-112339452D01*
X175363095Y-112434690D01*
X175410714Y-112482309D01*
X175505952Y-112529928D01*
X175696428Y-112529928D01*
X175791666Y-112482309D01*
X175839285Y-112434690D01*
X175886904Y-112339452D01*
X66258214Y-112930880D02*
X66258214Y-111930880D01*
X66829642Y-112930880D02*
X66401071Y-112359452D01*
X66829642Y-111930880D02*
X66258214Y-112502309D01*
X67686785Y-111930880D02*
X67496309Y-111930880D01*
X67401071Y-111978500D01*
X67353452Y-112026119D01*
X67258214Y-112168976D01*
X67210595Y-112359452D01*
X67210595Y-112740404D01*
X67258214Y-112835642D01*
X67305833Y-112883261D01*
X67401071Y-112930880D01*
X67591547Y-112930880D01*
X67686785Y-112883261D01*
X67734404Y-112835642D01*
X67782023Y-112740404D01*
X67782023Y-112502309D01*
X67734404Y-112407071D01*
X67686785Y-112359452D01*
X67591547Y-112311833D01*
X67401071Y-112311833D01*
X67305833Y-112359452D01*
X67258214Y-112407071D01*
X67210595Y-112502309D01*
X68639166Y-112264214D02*
X68639166Y-112930880D01*
X68401071Y-111883261D02*
X68162976Y-112597547D01*
X68782023Y-112597547D01*
X375478095Y-46732380D02*
X375478095Y-45732380D01*
X375478095Y-46208571D02*
X376049523Y-46208571D01*
X376049523Y-46732380D02*
X376049523Y-45732380D01*
X376668571Y-46160952D02*
X376573333Y-46113333D01*
X376525714Y-46065714D01*
X376478095Y-45970476D01*
X376478095Y-45922857D01*
X376525714Y-45827619D01*
X376573333Y-45780000D01*
X376668571Y-45732380D01*
X376859047Y-45732380D01*
X376954285Y-45780000D01*
X377001904Y-45827619D01*
X377049523Y-45922857D01*
X377049523Y-45970476D01*
X377001904Y-46065714D01*
X376954285Y-46113333D01*
X376859047Y-46160952D01*
X376668571Y-46160952D01*
X376573333Y-46208571D01*
X376525714Y-46256190D01*
X376478095Y-46351428D01*
X376478095Y-46541904D01*
X376525714Y-46637142D01*
X376573333Y-46684761D01*
X376668571Y-46732380D01*
X376859047Y-46732380D01*
X376954285Y-46684761D01*
X377001904Y-46637142D01*
X377049523Y-46541904D01*
X377049523Y-46351428D01*
X377001904Y-46256190D01*
X376954285Y-46208571D01*
X376859047Y-46160952D01*
X92448214Y-55760880D02*
X92448214Y-54760880D01*
X93019642Y-55760880D02*
X92591071Y-55189452D01*
X93019642Y-54760880D02*
X92448214Y-55332309D01*
X93972023Y-55760880D02*
X93400595Y-55760880D01*
X93686309Y-55760880D02*
X93686309Y-54760880D01*
X93591071Y-54903738D01*
X93495833Y-54998976D01*
X93400595Y-55046595D01*
X94448214Y-55760880D02*
X94638690Y-55760880D01*
X94733928Y-55713261D01*
X94781547Y-55665642D01*
X94876785Y-55522785D01*
X94924404Y-55332309D01*
X94924404Y-54951357D01*
X94876785Y-54856119D01*
X94829166Y-54808500D01*
X94733928Y-54760880D01*
X94543452Y-54760880D01*
X94448214Y-54808500D01*
X94400595Y-54856119D01*
X94352976Y-54951357D01*
X94352976Y-55189452D01*
X94400595Y-55284690D01*
X94448214Y-55332309D01*
X94543452Y-55379928D01*
X94733928Y-55379928D01*
X94829166Y-55332309D01*
X94876785Y-55284690D01*
X94924404Y-55189452D01*
X48828095Y-118032380D02*
X48828095Y-117032380D01*
X48828095Y-117508571D02*
X49399523Y-117508571D01*
X49399523Y-118032380D02*
X49399523Y-117032380D01*
X49780476Y-117032380D02*
X50399523Y-117032380D01*
X50066190Y-117413333D01*
X50209047Y-117413333D01*
X50304285Y-117460952D01*
X50351904Y-117508571D01*
X50399523Y-117603809D01*
X50399523Y-117841904D01*
X50351904Y-117937142D01*
X50304285Y-117984761D01*
X50209047Y-118032380D01*
X49923333Y-118032380D01*
X49828095Y-117984761D01*
X49780476Y-117937142D01*
X154360714Y-112910880D02*
X154360714Y-111910880D01*
X154932142Y-112910880D02*
X154503571Y-112339452D01*
X154932142Y-111910880D02*
X154360714Y-112482309D01*
X155789285Y-111910880D02*
X155598809Y-111910880D01*
X155503571Y-111958500D01*
X155455952Y-112006119D01*
X155360714Y-112148976D01*
X155313095Y-112339452D01*
X155313095Y-112720404D01*
X155360714Y-112815642D01*
X155408333Y-112863261D01*
X155503571Y-112910880D01*
X155694047Y-112910880D01*
X155789285Y-112863261D01*
X155836904Y-112815642D01*
X155884523Y-112720404D01*
X155884523Y-112482309D01*
X155836904Y-112387071D01*
X155789285Y-112339452D01*
X155694047Y-112291833D01*
X155503571Y-112291833D01*
X155408333Y-112339452D01*
X155360714Y-112387071D01*
X155313095Y-112482309D01*
X156455952Y-112339452D02*
X156360714Y-112291833D01*
X156313095Y-112244214D01*
X156265476Y-112148976D01*
X156265476Y-112101357D01*
X156313095Y-112006119D01*
X156360714Y-111958500D01*
X156455952Y-111910880D01*
X156646428Y-111910880D01*
X156741666Y-111958500D01*
X156789285Y-112006119D01*
X156836904Y-112101357D01*
X156836904Y-112148976D01*
X156789285Y-112244214D01*
X156741666Y-112291833D01*
X156646428Y-112339452D01*
X156455952Y-112339452D01*
X156360714Y-112387071D01*
X156313095Y-112434690D01*
X156265476Y-112529928D01*
X156265476Y-112720404D01*
X156313095Y-112815642D01*
X156360714Y-112863261D01*
X156455952Y-112910880D01*
X156646428Y-112910880D01*
X156741666Y-112863261D01*
X156789285Y-112815642D01*
X156836904Y-112720404D01*
X156836904Y-112529928D01*
X156789285Y-112434690D01*
X156741666Y-112387071D01*
X156646428Y-112339452D01*
X73398214Y-55760880D02*
X73398214Y-54760880D01*
X73969642Y-55760880D02*
X73541071Y-55189452D01*
X73969642Y-54760880D02*
X73398214Y-55332309D01*
X74922023Y-55760880D02*
X74350595Y-55760880D01*
X74636309Y-55760880D02*
X74636309Y-54760880D01*
X74541071Y-54903738D01*
X74445833Y-54998976D01*
X74350595Y-55046595D01*
X75493452Y-55189452D02*
X75398214Y-55141833D01*
X75350595Y-55094214D01*
X75302976Y-54998976D01*
X75302976Y-54951357D01*
X75350595Y-54856119D01*
X75398214Y-54808500D01*
X75493452Y-54760880D01*
X75683928Y-54760880D01*
X75779166Y-54808500D01*
X75826785Y-54856119D01*
X75874404Y-54951357D01*
X75874404Y-54998976D01*
X75826785Y-55094214D01*
X75779166Y-55141833D01*
X75683928Y-55189452D01*
X75493452Y-55189452D01*
X75398214Y-55237071D01*
X75350595Y-55284690D01*
X75302976Y-55379928D01*
X75302976Y-55570404D01*
X75350595Y-55665642D01*
X75398214Y-55713261D01*
X75493452Y-55760880D01*
X75683928Y-55760880D01*
X75779166Y-55713261D01*
X75826785Y-55665642D01*
X75874404Y-55570404D01*
X75874404Y-55379928D01*
X75826785Y-55284690D01*
X75779166Y-55237071D01*
X75683928Y-55189452D01*
X97210714Y-112910880D02*
X97210714Y-111910880D01*
X97782142Y-112910880D02*
X97353571Y-112339452D01*
X97782142Y-111910880D02*
X97210714Y-112482309D01*
X98639285Y-111910880D02*
X98448809Y-111910880D01*
X98353571Y-111958500D01*
X98305952Y-112006119D01*
X98210714Y-112148976D01*
X98163095Y-112339452D01*
X98163095Y-112720404D01*
X98210714Y-112815642D01*
X98258333Y-112863261D01*
X98353571Y-112910880D01*
X98544047Y-112910880D01*
X98639285Y-112863261D01*
X98686904Y-112815642D01*
X98734523Y-112720404D01*
X98734523Y-112482309D01*
X98686904Y-112387071D01*
X98639285Y-112339452D01*
X98544047Y-112291833D01*
X98353571Y-112291833D01*
X98258333Y-112339452D01*
X98210714Y-112387071D01*
X98163095Y-112482309D01*
X99639285Y-111910880D02*
X99163095Y-111910880D01*
X99115476Y-112387071D01*
X99163095Y-112339452D01*
X99258333Y-112291833D01*
X99496428Y-112291833D01*
X99591666Y-112339452D01*
X99639285Y-112387071D01*
X99686904Y-112482309D01*
X99686904Y-112720404D01*
X99639285Y-112815642D01*
X99591666Y-112863261D01*
X99496428Y-112910880D01*
X99258333Y-112910880D01*
X99163095Y-112863261D01*
X99115476Y-112815642D01*
X221035714Y-93860880D02*
X221035714Y-92860880D01*
X221607142Y-93860880D02*
X221178571Y-93289452D01*
X221607142Y-92860880D02*
X221035714Y-93432309D01*
X222511904Y-92860880D02*
X222035714Y-92860880D01*
X221988095Y-93337071D01*
X222035714Y-93289452D01*
X222130952Y-93241833D01*
X222369047Y-93241833D01*
X222464285Y-93289452D01*
X222511904Y-93337071D01*
X222559523Y-93432309D01*
X222559523Y-93670404D01*
X222511904Y-93765642D01*
X222464285Y-93813261D01*
X222369047Y-93860880D01*
X222130952Y-93860880D01*
X222035714Y-93813261D01*
X221988095Y-93765642D01*
X223035714Y-93860880D02*
X223226190Y-93860880D01*
X223321428Y-93813261D01*
X223369047Y-93765642D01*
X223464285Y-93622785D01*
X223511904Y-93432309D01*
X223511904Y-93051357D01*
X223464285Y-92956119D01*
X223416666Y-92908500D01*
X223321428Y-92860880D01*
X223130952Y-92860880D01*
X223035714Y-92908500D01*
X222988095Y-92956119D01*
X222940476Y-93051357D01*
X222940476Y-93289452D01*
X222988095Y-93384690D01*
X223035714Y-93432309D01*
X223130952Y-93479928D01*
X223321428Y-93479928D01*
X223416666Y-93432309D01*
X223464285Y-93384690D01*
X223511904Y-93289452D01*
X56729464Y-131960880D02*
X56729464Y-130960880D01*
X57300892Y-131960880D02*
X56872321Y-131389452D01*
X57300892Y-130960880D02*
X56729464Y-131532309D01*
X57634226Y-130960880D02*
X58300892Y-130960880D01*
X57872321Y-131960880D01*
X58586607Y-130960880D02*
X59253273Y-130960880D01*
X58824702Y-131960880D01*
X78160714Y-74810880D02*
X78160714Y-73810880D01*
X78732142Y-74810880D02*
X78303571Y-74239452D01*
X78732142Y-73810880D02*
X78160714Y-74382309D01*
X79065476Y-73810880D02*
X79684523Y-73810880D01*
X79351190Y-74191833D01*
X79494047Y-74191833D01*
X79589285Y-74239452D01*
X79636904Y-74287071D01*
X79684523Y-74382309D01*
X79684523Y-74620404D01*
X79636904Y-74715642D01*
X79589285Y-74763261D01*
X79494047Y-74810880D01*
X79208333Y-74810880D01*
X79113095Y-74763261D01*
X79065476Y-74715642D01*
X80589285Y-73810880D02*
X80113095Y-73810880D01*
X80065476Y-74287071D01*
X80113095Y-74239452D01*
X80208333Y-74191833D01*
X80446428Y-74191833D01*
X80541666Y-74239452D01*
X80589285Y-74287071D01*
X80636904Y-74382309D01*
X80636904Y-74620404D01*
X80589285Y-74715642D01*
X80541666Y-74763261D01*
X80446428Y-74810880D01*
X80208333Y-74810880D01*
X80113095Y-74763261D01*
X80065476Y-74715642D01*
X364704464Y-112910880D02*
X364704464Y-111910880D01*
X365275892Y-112910880D02*
X364847321Y-112339452D01*
X365275892Y-111910880D02*
X364704464Y-112482309D01*
X365609226Y-111910880D02*
X366275892Y-111910880D01*
X365847321Y-112910880D01*
X367085416Y-111910880D02*
X366894940Y-111910880D01*
X366799702Y-111958500D01*
X366752083Y-112006119D01*
X366656845Y-112148976D01*
X366609226Y-112339452D01*
X366609226Y-112720404D01*
X366656845Y-112815642D01*
X366704464Y-112863261D01*
X366799702Y-112910880D01*
X366990178Y-112910880D01*
X367085416Y-112863261D01*
X367133035Y-112815642D01*
X367180654Y-112720404D01*
X367180654Y-112482309D01*
X367133035Y-112387071D01*
X367085416Y-112339452D01*
X366990178Y-112291833D01*
X366799702Y-112291833D01*
X366704464Y-112339452D01*
X366656845Y-112387071D01*
X366609226Y-112482309D01*
X61491964Y-93860880D02*
X61491964Y-92860880D01*
X62063392Y-93860880D02*
X61634821Y-93289452D01*
X62063392Y-92860880D02*
X61491964Y-93432309D01*
X62968154Y-92860880D02*
X62491964Y-92860880D01*
X62444345Y-93337071D01*
X62491964Y-93289452D01*
X62587202Y-93241833D01*
X62825297Y-93241833D01*
X62920535Y-93289452D01*
X62968154Y-93337071D01*
X63015773Y-93432309D01*
X63015773Y-93670404D01*
X62968154Y-93765642D01*
X62920535Y-93813261D01*
X62825297Y-93860880D01*
X62587202Y-93860880D01*
X62491964Y-93813261D01*
X62444345Y-93765642D01*
X63968154Y-93860880D02*
X63396726Y-93860880D01*
X63682440Y-93860880D02*
X63682440Y-92860880D01*
X63587202Y-93003738D01*
X63491964Y-93098976D01*
X63396726Y-93146595D01*
X313904464Y-74810880D02*
X313904464Y-73810880D01*
X314475892Y-74810880D02*
X314047321Y-74239452D01*
X314475892Y-73810880D02*
X313904464Y-74382309D01*
X315333035Y-74144214D02*
X315333035Y-74810880D01*
X315094940Y-73763261D02*
X314856845Y-74477547D01*
X315475892Y-74477547D01*
X315761607Y-73810880D02*
X316428273Y-73810880D01*
X315999702Y-74810880D01*
X263898214Y-29090880D02*
X263898214Y-28090880D01*
X264469642Y-29090880D02*
X264041071Y-28519452D01*
X264469642Y-28090880D02*
X263898214Y-28662309D01*
X265422023Y-29090880D02*
X264850595Y-29090880D01*
X265136309Y-29090880D02*
X265136309Y-28090880D01*
X265041071Y-28233738D01*
X264945833Y-28328976D01*
X264850595Y-28376595D01*
X266041071Y-28090880D02*
X266136309Y-28090880D01*
X266231547Y-28138500D01*
X266279166Y-28186119D01*
X266326785Y-28281357D01*
X266374404Y-28471833D01*
X266374404Y-28709928D01*
X266326785Y-28900404D01*
X266279166Y-28995642D01*
X266231547Y-29043261D01*
X266136309Y-29090880D01*
X266041071Y-29090880D01*
X265945833Y-29043261D01*
X265898214Y-28995642D01*
X265850595Y-28900404D01*
X265802976Y-28709928D01*
X265802976Y-28471833D01*
X265850595Y-28281357D01*
X265898214Y-28186119D01*
X265945833Y-28138500D01*
X266041071Y-28090880D01*
X54824404Y-29090880D02*
X54824404Y-28090880D01*
X55395833Y-29090880D02*
X54967261Y-28519452D01*
X55395833Y-28090880D02*
X54824404Y-28662309D01*
X56348214Y-29090880D02*
X55776785Y-29090880D01*
X56062500Y-29090880D02*
X56062500Y-28090880D01*
X55967261Y-28233738D01*
X55872023Y-28328976D01*
X55776785Y-28376595D01*
X364704464Y-74810880D02*
X364704464Y-73810880D01*
X365275892Y-74810880D02*
X364847321Y-74239452D01*
X365275892Y-73810880D02*
X364704464Y-74382309D01*
X366133035Y-74144214D02*
X366133035Y-74810880D01*
X365894940Y-73763261D02*
X365656845Y-74477547D01*
X366275892Y-74477547D01*
X366704464Y-74810880D02*
X366894940Y-74810880D01*
X366990178Y-74763261D01*
X367037797Y-74715642D01*
X367133035Y-74572785D01*
X367180654Y-74382309D01*
X367180654Y-74001357D01*
X367133035Y-73906119D01*
X367085416Y-73858500D01*
X366990178Y-73810880D01*
X366799702Y-73810880D01*
X366704464Y-73858500D01*
X366656845Y-73906119D01*
X366609226Y-74001357D01*
X366609226Y-74239452D01*
X366656845Y-74334690D01*
X366704464Y-74382309D01*
X366799702Y-74429928D01*
X366990178Y-74429928D01*
X367085416Y-74382309D01*
X367133035Y-74334690D01*
X367180654Y-74239452D01*
X175811014Y-131945680D02*
X175811014Y-130945680D01*
X176382442Y-131945680D02*
X175953871Y-131374252D01*
X176382442Y-130945680D02*
X175811014Y-131517109D01*
X176953871Y-131374252D02*
X176858633Y-131326633D01*
X176811014Y-131279014D01*
X176763395Y-131183776D01*
X176763395Y-131136157D01*
X176811014Y-131040919D01*
X176858633Y-130993300D01*
X176953871Y-130945680D01*
X177144347Y-130945680D01*
X177239585Y-130993300D01*
X177287204Y-131040919D01*
X177334823Y-131136157D01*
X177334823Y-131183776D01*
X177287204Y-131279014D01*
X177239585Y-131326633D01*
X177144347Y-131374252D01*
X176953871Y-131374252D01*
X176858633Y-131421871D01*
X176811014Y-131469490D01*
X176763395Y-131564728D01*
X176763395Y-131755204D01*
X176811014Y-131850442D01*
X176858633Y-131898061D01*
X176953871Y-131945680D01*
X177144347Y-131945680D01*
X177239585Y-131898061D01*
X177287204Y-131850442D01*
X177334823Y-131755204D01*
X177334823Y-131564728D01*
X177287204Y-131469490D01*
X177239585Y-131421871D01*
X177144347Y-131374252D01*
X177953871Y-130945680D02*
X178049109Y-130945680D01*
X178144347Y-130993300D01*
X178191966Y-131040919D01*
X178239585Y-131136157D01*
X178287204Y-131326633D01*
X178287204Y-131564728D01*
X178239585Y-131755204D01*
X178191966Y-131850442D01*
X178144347Y-131898061D01*
X178049109Y-131945680D01*
X177953871Y-131945680D01*
X177858633Y-131898061D01*
X177811014Y-131850442D01*
X177763395Y-131755204D01*
X177715776Y-131564728D01*
X177715776Y-131326633D01*
X177763395Y-131136157D01*
X177811014Y-131040919D01*
X177858633Y-130993300D01*
X177953871Y-130945680D01*
X173410714Y-74810880D02*
X173410714Y-73810880D01*
X173982142Y-74810880D02*
X173553571Y-74239452D01*
X173982142Y-73810880D02*
X173410714Y-74382309D01*
X174839285Y-74144214D02*
X174839285Y-74810880D01*
X174601190Y-73763261D02*
X174363095Y-74477547D01*
X174982142Y-74477547D01*
X175553571Y-73810880D02*
X175648809Y-73810880D01*
X175744047Y-73858500D01*
X175791666Y-73906119D01*
X175839285Y-74001357D01*
X175886904Y-74191833D01*
X175886904Y-74429928D01*
X175839285Y-74620404D01*
X175791666Y-74715642D01*
X175744047Y-74763261D01*
X175648809Y-74810880D01*
X175553571Y-74810880D01*
X175458333Y-74763261D01*
X175410714Y-74715642D01*
X175363095Y-74620404D01*
X175315476Y-74429928D01*
X175315476Y-74191833D01*
X175363095Y-74001357D01*
X175410714Y-73906119D01*
X175458333Y-73858500D01*
X175553571Y-73810880D01*
X383754464Y-74810880D02*
X383754464Y-73810880D01*
X384325892Y-74810880D02*
X383897321Y-74239452D01*
X384325892Y-73810880D02*
X383754464Y-74382309D01*
X385230654Y-73810880D02*
X384754464Y-73810880D01*
X384706845Y-74287071D01*
X384754464Y-74239452D01*
X384849702Y-74191833D01*
X385087797Y-74191833D01*
X385183035Y-74239452D01*
X385230654Y-74287071D01*
X385278273Y-74382309D01*
X385278273Y-74620404D01*
X385230654Y-74715642D01*
X385183035Y-74763261D01*
X385087797Y-74810880D01*
X384849702Y-74810880D01*
X384754464Y-74763261D01*
X384706845Y-74715642D01*
X385897321Y-73810880D02*
X385992559Y-73810880D01*
X386087797Y-73858500D01*
X386135416Y-73906119D01*
X386183035Y-74001357D01*
X386230654Y-74191833D01*
X386230654Y-74429928D01*
X386183035Y-74620404D01*
X386135416Y-74715642D01*
X386087797Y-74763261D01*
X385992559Y-74810880D01*
X385897321Y-74810880D01*
X385802083Y-74763261D01*
X385754464Y-74715642D01*
X385706845Y-74620404D01*
X385659226Y-74429928D01*
X385659226Y-74191833D01*
X385706845Y-74001357D01*
X385754464Y-73906119D01*
X385802083Y-73858500D01*
X385897321Y-73810880D01*
X211510714Y-112910880D02*
X211510714Y-111910880D01*
X212082142Y-112910880D02*
X211653571Y-112339452D01*
X212082142Y-111910880D02*
X211510714Y-112482309D01*
X212415476Y-111910880D02*
X213082142Y-111910880D01*
X212653571Y-112910880D01*
X213986904Y-112910880D02*
X213415476Y-112910880D01*
X213701190Y-112910880D02*
X213701190Y-111910880D01*
X213605952Y-112053738D01*
X213510714Y-112148976D01*
X213415476Y-112196595D01*
X187698214Y-55760880D02*
X187698214Y-54760880D01*
X188269642Y-55760880D02*
X187841071Y-55189452D01*
X188269642Y-54760880D02*
X187698214Y-55332309D01*
X188650595Y-54856119D02*
X188698214Y-54808500D01*
X188793452Y-54760880D01*
X189031547Y-54760880D01*
X189126785Y-54808500D01*
X189174404Y-54856119D01*
X189222023Y-54951357D01*
X189222023Y-55046595D01*
X189174404Y-55189452D01*
X188602976Y-55760880D01*
X189222023Y-55760880D01*
X190079166Y-55094214D02*
X190079166Y-55760880D01*
X189841071Y-54713261D02*
X189602976Y-55427547D01*
X190222023Y-55427547D01*
X345654464Y-131960880D02*
X345654464Y-130960880D01*
X346225892Y-131960880D02*
X345797321Y-131389452D01*
X346225892Y-130960880D02*
X345654464Y-131532309D01*
X346797321Y-131389452D02*
X346702083Y-131341833D01*
X346654464Y-131294214D01*
X346606845Y-131198976D01*
X346606845Y-131151357D01*
X346654464Y-131056119D01*
X346702083Y-131008500D01*
X346797321Y-130960880D01*
X346987797Y-130960880D01*
X347083035Y-131008500D01*
X347130654Y-131056119D01*
X347178273Y-131151357D01*
X347178273Y-131198976D01*
X347130654Y-131294214D01*
X347083035Y-131341833D01*
X346987797Y-131389452D01*
X346797321Y-131389452D01*
X346702083Y-131437071D01*
X346654464Y-131484690D01*
X346606845Y-131579928D01*
X346606845Y-131770404D01*
X346654464Y-131865642D01*
X346702083Y-131913261D01*
X346797321Y-131960880D01*
X346987797Y-131960880D01*
X347083035Y-131913261D01*
X347130654Y-131865642D01*
X347178273Y-131770404D01*
X347178273Y-131579928D01*
X347130654Y-131484690D01*
X347083035Y-131437071D01*
X346987797Y-131389452D01*
X348083035Y-130960880D02*
X347606845Y-130960880D01*
X347559226Y-131437071D01*
X347606845Y-131389452D01*
X347702083Y-131341833D01*
X347940178Y-131341833D01*
X348035416Y-131389452D01*
X348083035Y-131437071D01*
X348130654Y-131532309D01*
X348130654Y-131770404D01*
X348083035Y-131865642D01*
X348035416Y-131913261D01*
X347940178Y-131960880D01*
X347702083Y-131960880D01*
X347606845Y-131913261D01*
X347559226Y-131865642D01*
X206748214Y-55760880D02*
X206748214Y-54760880D01*
X207319642Y-55760880D02*
X206891071Y-55189452D01*
X207319642Y-54760880D02*
X206748214Y-55332309D01*
X207700595Y-54856119D02*
X207748214Y-54808500D01*
X207843452Y-54760880D01*
X208081547Y-54760880D01*
X208176785Y-54808500D01*
X208224404Y-54856119D01*
X208272023Y-54951357D01*
X208272023Y-55046595D01*
X208224404Y-55189452D01*
X207652976Y-55760880D01*
X208272023Y-55760880D01*
X209176785Y-54760880D02*
X208700595Y-54760880D01*
X208652976Y-55237071D01*
X208700595Y-55189452D01*
X208795833Y-55141833D01*
X209033928Y-55141833D01*
X209129166Y-55189452D01*
X209176785Y-55237071D01*
X209224404Y-55332309D01*
X209224404Y-55570404D01*
X209176785Y-55665642D01*
X209129166Y-55713261D01*
X209033928Y-55760880D01*
X208795833Y-55760880D01*
X208700595Y-55713261D01*
X208652976Y-55665642D01*
X56729464Y-74810880D02*
X56729464Y-73810880D01*
X57300892Y-74810880D02*
X56872321Y-74239452D01*
X57300892Y-73810880D02*
X56729464Y-74382309D01*
X57634226Y-73810880D02*
X58253273Y-73810880D01*
X57919940Y-74191833D01*
X58062797Y-74191833D01*
X58158035Y-74239452D01*
X58205654Y-74287071D01*
X58253273Y-74382309D01*
X58253273Y-74620404D01*
X58205654Y-74715642D01*
X58158035Y-74763261D01*
X58062797Y-74810880D01*
X57777083Y-74810880D01*
X57681845Y-74763261D01*
X57634226Y-74715642D01*
X59110416Y-74144214D02*
X59110416Y-74810880D01*
X58872321Y-73763261D02*
X58634226Y-74477547D01*
X59253273Y-74477547D01*
X216114404Y-29090880D02*
X216114404Y-28090880D01*
X216685833Y-29090880D02*
X216257261Y-28519452D01*
X216685833Y-28090880D02*
X216114404Y-28662309D01*
X217257261Y-28519452D02*
X217162023Y-28471833D01*
X217114404Y-28424214D01*
X217066785Y-28328976D01*
X217066785Y-28281357D01*
X217114404Y-28186119D01*
X217162023Y-28138500D01*
X217257261Y-28090880D01*
X217447738Y-28090880D01*
X217542976Y-28138500D01*
X217590595Y-28186119D01*
X217638214Y-28281357D01*
X217638214Y-28328976D01*
X217590595Y-28424214D01*
X217542976Y-28471833D01*
X217447738Y-28519452D01*
X217257261Y-28519452D01*
X217162023Y-28567071D01*
X217114404Y-28614690D01*
X217066785Y-28709928D01*
X217066785Y-28900404D01*
X217114404Y-28995642D01*
X217162023Y-29043261D01*
X217257261Y-29090880D01*
X217447738Y-29090880D01*
X217542976Y-29043261D01*
X217590595Y-28995642D01*
X217638214Y-28900404D01*
X217638214Y-28709928D01*
X217590595Y-28614690D01*
X217542976Y-28567071D01*
X217447738Y-28519452D01*
X249828095Y-23182380D02*
X249828095Y-22182380D01*
X249828095Y-22658571D02*
X250399523Y-22658571D01*
X250399523Y-23182380D02*
X250399523Y-22182380D01*
X251304285Y-22182380D02*
X251113809Y-22182380D01*
X251018571Y-22230000D01*
X250970952Y-22277619D01*
X250875714Y-22420476D01*
X250828095Y-22610952D01*
X250828095Y-22991904D01*
X250875714Y-23087142D01*
X250923333Y-23134761D01*
X251018571Y-23182380D01*
X251209047Y-23182380D01*
X251304285Y-23134761D01*
X251351904Y-23087142D01*
X251399523Y-22991904D01*
X251399523Y-22753809D01*
X251351904Y-22658571D01*
X251304285Y-22610952D01*
X251209047Y-22563333D01*
X251018571Y-22563333D01*
X250923333Y-22610952D01*
X250875714Y-22658571D01*
X250828095Y-22753809D01*
X247229464Y-131960880D02*
X247229464Y-130960880D01*
X247800892Y-131960880D02*
X247372321Y-131389452D01*
X247800892Y-130960880D02*
X247229464Y-131532309D01*
X248372321Y-131389452D02*
X248277083Y-131341833D01*
X248229464Y-131294214D01*
X248181845Y-131198976D01*
X248181845Y-131151357D01*
X248229464Y-131056119D01*
X248277083Y-131008500D01*
X248372321Y-130960880D01*
X248562797Y-130960880D01*
X248658035Y-131008500D01*
X248705654Y-131056119D01*
X248753273Y-131151357D01*
X248753273Y-131198976D01*
X248705654Y-131294214D01*
X248658035Y-131341833D01*
X248562797Y-131389452D01*
X248372321Y-131389452D01*
X248277083Y-131437071D01*
X248229464Y-131484690D01*
X248181845Y-131579928D01*
X248181845Y-131770404D01*
X248229464Y-131865642D01*
X248277083Y-131913261D01*
X248372321Y-131960880D01*
X248562797Y-131960880D01*
X248658035Y-131913261D01*
X248705654Y-131865642D01*
X248753273Y-131770404D01*
X248753273Y-131579928D01*
X248705654Y-131484690D01*
X248658035Y-131437071D01*
X248562797Y-131389452D01*
X249705654Y-131960880D02*
X249134226Y-131960880D01*
X249419940Y-131960880D02*
X249419940Y-130960880D01*
X249324702Y-131103738D01*
X249229464Y-131198976D01*
X249134226Y-131246595D01*
X304379464Y-112910880D02*
X304379464Y-111910880D01*
X304950892Y-112910880D02*
X304522321Y-112339452D01*
X304950892Y-111910880D02*
X304379464Y-112482309D01*
X305284226Y-111910880D02*
X305950892Y-111910880D01*
X305522321Y-112910880D01*
X306808035Y-111910880D02*
X306331845Y-111910880D01*
X306284226Y-112387071D01*
X306331845Y-112339452D01*
X306427083Y-112291833D01*
X306665178Y-112291833D01*
X306760416Y-112339452D01*
X306808035Y-112387071D01*
X306855654Y-112482309D01*
X306855654Y-112720404D01*
X306808035Y-112815642D01*
X306760416Y-112863261D01*
X306665178Y-112910880D01*
X306427083Y-112910880D01*
X306331845Y-112863261D01*
X306284226Y-112815642D01*
X294128095Y-97832380D02*
X294128095Y-96832380D01*
X294128095Y-97308571D02*
X294699523Y-97308571D01*
X294699523Y-97832380D02*
X294699523Y-96832380D01*
X295080476Y-96832380D02*
X295747142Y-96832380D01*
X295318571Y-97832380D01*
X263898214Y-55760880D02*
X263898214Y-54760880D01*
X264469642Y-55760880D02*
X264041071Y-55189452D01*
X264469642Y-54760880D02*
X263898214Y-55332309D01*
X264850595Y-54856119D02*
X264898214Y-54808500D01*
X264993452Y-54760880D01*
X265231547Y-54760880D01*
X265326785Y-54808500D01*
X265374404Y-54856119D01*
X265422023Y-54951357D01*
X265422023Y-55046595D01*
X265374404Y-55189452D01*
X264802976Y-55760880D01*
X265422023Y-55760880D01*
X265993452Y-55189452D02*
X265898214Y-55141833D01*
X265850595Y-55094214D01*
X265802976Y-54998976D01*
X265802976Y-54951357D01*
X265850595Y-54856119D01*
X265898214Y-54808500D01*
X265993452Y-54760880D01*
X266183928Y-54760880D01*
X266279166Y-54808500D01*
X266326785Y-54856119D01*
X266374404Y-54951357D01*
X266374404Y-54998976D01*
X266326785Y-55094214D01*
X266279166Y-55141833D01*
X266183928Y-55189452D01*
X265993452Y-55189452D01*
X265898214Y-55237071D01*
X265850595Y-55284690D01*
X265802976Y-55379928D01*
X265802976Y-55570404D01*
X265850595Y-55665642D01*
X265898214Y-55713261D01*
X265993452Y-55760880D01*
X266183928Y-55760880D01*
X266279166Y-55713261D01*
X266326785Y-55665642D01*
X266374404Y-55570404D01*
X266374404Y-55379928D01*
X266326785Y-55284690D01*
X266279166Y-55237071D01*
X266183928Y-55189452D01*
X73928095Y-24882380D02*
X73928095Y-23882380D01*
X73928095Y-24358571D02*
X74499523Y-24358571D01*
X74499523Y-24882380D02*
X74499523Y-23882380D01*
X75499523Y-24882380D02*
X74928095Y-24882380D01*
X75213809Y-24882380D02*
X75213809Y-23882380D01*
X75118571Y-24025238D01*
X75023333Y-24120476D01*
X74928095Y-24168095D01*
X311497814Y-55771080D02*
X311497814Y-54771080D01*
X312069242Y-55771080D02*
X311640671Y-55199652D01*
X312069242Y-54771080D02*
X311497814Y-55342509D01*
X312402576Y-54771080D02*
X313021623Y-54771080D01*
X312688290Y-55152033D01*
X312831147Y-55152033D01*
X312926385Y-55199652D01*
X312974004Y-55247271D01*
X313021623Y-55342509D01*
X313021623Y-55580604D01*
X312974004Y-55675842D01*
X312926385Y-55723461D01*
X312831147Y-55771080D01*
X312545433Y-55771080D01*
X312450195Y-55723461D01*
X312402576Y-55675842D01*
X313640671Y-54771080D02*
X313735909Y-54771080D01*
X313831147Y-54818700D01*
X313878766Y-54866319D01*
X313926385Y-54961557D01*
X313974004Y-55152033D01*
X313974004Y-55390128D01*
X313926385Y-55580604D01*
X313878766Y-55675842D01*
X313831147Y-55723461D01*
X313735909Y-55771080D01*
X313640671Y-55771080D01*
X313545433Y-55723461D01*
X313497814Y-55675842D01*
X313450195Y-55580604D01*
X313402576Y-55390128D01*
X313402576Y-55152033D01*
X313450195Y-54961557D01*
X313497814Y-54866319D01*
X313545433Y-54818700D01*
X313640671Y-54771080D01*
X383913214Y-29090880D02*
X383913214Y-28090880D01*
X384484642Y-29090880D02*
X384056071Y-28519452D01*
X384484642Y-28090880D02*
X383913214Y-28662309D01*
X385437023Y-29090880D02*
X384865595Y-29090880D01*
X385151309Y-29090880D02*
X385151309Y-28090880D01*
X385056071Y-28233738D01*
X384960833Y-28328976D01*
X384865595Y-28376595D01*
X386294166Y-28090880D02*
X386103690Y-28090880D01*
X386008452Y-28138500D01*
X385960833Y-28186119D01*
X385865595Y-28328976D01*
X385817976Y-28519452D01*
X385817976Y-28900404D01*
X385865595Y-28995642D01*
X385913214Y-29043261D01*
X386008452Y-29090880D01*
X386198928Y-29090880D01*
X386294166Y-29043261D01*
X386341785Y-28995642D01*
X386389404Y-28900404D01*
X386389404Y-28662309D01*
X386341785Y-28567071D01*
X386294166Y-28519452D01*
X386198928Y-28471833D01*
X386008452Y-28471833D01*
X385913214Y-28519452D01*
X385865595Y-28567071D01*
X385817976Y-28662309D01*
X54348214Y-55760880D02*
X54348214Y-54760880D01*
X54919642Y-55760880D02*
X54491071Y-55189452D01*
X54919642Y-54760880D02*
X54348214Y-55332309D01*
X55872023Y-55760880D02*
X55300595Y-55760880D01*
X55586309Y-55760880D02*
X55586309Y-54760880D01*
X55491071Y-54903738D01*
X55395833Y-54998976D01*
X55300595Y-55046595D01*
X56205357Y-54760880D02*
X56872023Y-54760880D01*
X56443452Y-55760880D01*
X271038214Y-131970880D02*
X271038214Y-130970880D01*
X271609642Y-131970880D02*
X271181071Y-131399452D01*
X271609642Y-130970880D02*
X271038214Y-131542309D01*
X272181071Y-131399452D02*
X272085833Y-131351833D01*
X272038214Y-131304214D01*
X271990595Y-131208976D01*
X271990595Y-131161357D01*
X272038214Y-131066119D01*
X272085833Y-131018500D01*
X272181071Y-130970880D01*
X272371547Y-130970880D01*
X272466785Y-131018500D01*
X272514404Y-131066119D01*
X272562023Y-131161357D01*
X272562023Y-131208976D01*
X272514404Y-131304214D01*
X272466785Y-131351833D01*
X272371547Y-131399452D01*
X272181071Y-131399452D01*
X272085833Y-131447071D01*
X272038214Y-131494690D01*
X271990595Y-131589928D01*
X271990595Y-131780404D01*
X272038214Y-131875642D01*
X272085833Y-131923261D01*
X272181071Y-131970880D01*
X272371547Y-131970880D01*
X272466785Y-131923261D01*
X272514404Y-131875642D01*
X272562023Y-131780404D01*
X272562023Y-131589928D01*
X272514404Y-131494690D01*
X272466785Y-131447071D01*
X272371547Y-131399452D01*
X272942976Y-131066119D02*
X272990595Y-131018500D01*
X273085833Y-130970880D01*
X273323928Y-130970880D01*
X273419166Y-131018500D01*
X273466785Y-131066119D01*
X273514404Y-131161357D01*
X273514404Y-131256595D01*
X273466785Y-131399452D01*
X272895357Y-131970880D01*
X273514404Y-131970880D01*
X345654464Y-55760880D02*
X345654464Y-54760880D01*
X346225892Y-55760880D02*
X345797321Y-55189452D01*
X346225892Y-54760880D02*
X345654464Y-55332309D01*
X346559226Y-54760880D02*
X347178273Y-54760880D01*
X346844940Y-55141833D01*
X346987797Y-55141833D01*
X347083035Y-55189452D01*
X347130654Y-55237071D01*
X347178273Y-55332309D01*
X347178273Y-55570404D01*
X347130654Y-55665642D01*
X347083035Y-55713261D01*
X346987797Y-55760880D01*
X346702083Y-55760880D01*
X346606845Y-55713261D01*
X346559226Y-55665642D01*
X348130654Y-55760880D02*
X347559226Y-55760880D01*
X347844940Y-55760880D02*
X347844940Y-54760880D01*
X347749702Y-54903738D01*
X347654464Y-54998976D01*
X347559226Y-55046595D01*
X249610714Y-112910880D02*
X249610714Y-111910880D01*
X250182142Y-112910880D02*
X249753571Y-112339452D01*
X250182142Y-111910880D02*
X249610714Y-112482309D01*
X250515476Y-111910880D02*
X251182142Y-111910880D01*
X250753571Y-112910880D01*
X251467857Y-111910880D02*
X252086904Y-111910880D01*
X251753571Y-112291833D01*
X251896428Y-112291833D01*
X251991666Y-112339452D01*
X252039285Y-112387071D01*
X252086904Y-112482309D01*
X252086904Y-112720404D01*
X252039285Y-112815642D01*
X251991666Y-112863261D01*
X251896428Y-112910880D01*
X251610714Y-112910880D01*
X251515476Y-112863261D01*
X251467857Y-112815642D01*
X218528095Y-134682380D02*
X218528095Y-133682380D01*
X218528095Y-134158571D02*
X219099523Y-134158571D01*
X219099523Y-134682380D02*
X219099523Y-133682380D01*
X220051904Y-133682380D02*
X219575714Y-133682380D01*
X219528095Y-134158571D01*
X219575714Y-134110952D01*
X219670952Y-134063333D01*
X219909047Y-134063333D01*
X220004285Y-134110952D01*
X220051904Y-134158571D01*
X220099523Y-134253809D01*
X220099523Y-134491904D01*
X220051904Y-134587142D01*
X220004285Y-134634761D01*
X219909047Y-134682380D01*
X219670952Y-134682380D01*
X219575714Y-134634761D01*
X219528095Y-134587142D01*
X240085714Y-93860880D02*
X240085714Y-92860880D01*
X240657142Y-93860880D02*
X240228571Y-93289452D01*
X240657142Y-92860880D02*
X240085714Y-93432309D01*
X241514285Y-92860880D02*
X241323809Y-92860880D01*
X241228571Y-92908500D01*
X241180952Y-92956119D01*
X241085714Y-93098976D01*
X241038095Y-93289452D01*
X241038095Y-93670404D01*
X241085714Y-93765642D01*
X241133333Y-93813261D01*
X241228571Y-93860880D01*
X241419047Y-93860880D01*
X241514285Y-93813261D01*
X241561904Y-93765642D01*
X241609523Y-93670404D01*
X241609523Y-93432309D01*
X241561904Y-93337071D01*
X241514285Y-93289452D01*
X241419047Y-93241833D01*
X241228571Y-93241833D01*
X241133333Y-93289452D01*
X241085714Y-93337071D01*
X241038095Y-93432309D01*
X242228571Y-92860880D02*
X242323809Y-92860880D01*
X242419047Y-92908500D01*
X242466666Y-92956119D01*
X242514285Y-93051357D01*
X242561904Y-93241833D01*
X242561904Y-93479928D01*
X242514285Y-93670404D01*
X242466666Y-93765642D01*
X242419047Y-93813261D01*
X242323809Y-93860880D01*
X242228571Y-93860880D01*
X242133333Y-93813261D01*
X242085714Y-93765642D01*
X242038095Y-93670404D01*
X241990476Y-93479928D01*
X241990476Y-93241833D01*
X242038095Y-93051357D01*
X242085714Y-92956119D01*
X242133333Y-92908500D01*
X242228571Y-92860880D01*
X282948214Y-55760880D02*
X282948214Y-54760880D01*
X283519642Y-55760880D02*
X283091071Y-55189452D01*
X283519642Y-54760880D02*
X282948214Y-55332309D01*
X283900595Y-54856119D02*
X283948214Y-54808500D01*
X284043452Y-54760880D01*
X284281547Y-54760880D01*
X284376785Y-54808500D01*
X284424404Y-54856119D01*
X284472023Y-54951357D01*
X284472023Y-55046595D01*
X284424404Y-55189452D01*
X283852976Y-55760880D01*
X284472023Y-55760880D01*
X284948214Y-55760880D02*
X285138690Y-55760880D01*
X285233928Y-55713261D01*
X285281547Y-55665642D01*
X285376785Y-55522785D01*
X285424404Y-55332309D01*
X285424404Y-54951357D01*
X285376785Y-54856119D01*
X285329166Y-54808500D01*
X285233928Y-54760880D01*
X285043452Y-54760880D01*
X284948214Y-54808500D01*
X284900595Y-54856119D01*
X284852976Y-54951357D01*
X284852976Y-55189452D01*
X284900595Y-55284690D01*
X284948214Y-55332309D01*
X285043452Y-55379928D01*
X285233928Y-55379928D01*
X285329166Y-55332309D01*
X285376785Y-55284690D01*
X285424404Y-55189452D01*
X182935714Y-93860880D02*
X182935714Y-92860880D01*
X183507142Y-93860880D02*
X183078571Y-93289452D01*
X183507142Y-92860880D02*
X182935714Y-93432309D01*
X184411904Y-92860880D02*
X183935714Y-92860880D01*
X183888095Y-93337071D01*
X183935714Y-93289452D01*
X184030952Y-93241833D01*
X184269047Y-93241833D01*
X184364285Y-93289452D01*
X184411904Y-93337071D01*
X184459523Y-93432309D01*
X184459523Y-93670404D01*
X184411904Y-93765642D01*
X184364285Y-93813261D01*
X184269047Y-93860880D01*
X184030952Y-93860880D01*
X183935714Y-93813261D01*
X183888095Y-93765642D01*
X184792857Y-92860880D02*
X185459523Y-92860880D01*
X185030952Y-93860880D01*
X178014404Y-29090880D02*
X178014404Y-28090880D01*
X178585833Y-29090880D02*
X178157261Y-28519452D01*
X178585833Y-28090880D02*
X178014404Y-28662309D01*
X179442976Y-28090880D02*
X179252500Y-28090880D01*
X179157261Y-28138500D01*
X179109642Y-28186119D01*
X179014404Y-28328976D01*
X178966785Y-28519452D01*
X178966785Y-28900404D01*
X179014404Y-28995642D01*
X179062023Y-29043261D01*
X179157261Y-29090880D01*
X179347738Y-29090880D01*
X179442976Y-29043261D01*
X179490595Y-28995642D01*
X179538214Y-28900404D01*
X179538214Y-28662309D01*
X179490595Y-28567071D01*
X179442976Y-28519452D01*
X179347738Y-28471833D01*
X179157261Y-28471833D01*
X179062023Y-28519452D01*
X179014404Y-28567071D01*
X178966785Y-28662309D01*
X309141964Y-93860880D02*
X309141964Y-92860880D01*
X309713392Y-93860880D02*
X309284821Y-93289452D01*
X309713392Y-92860880D02*
X309141964Y-93432309D01*
X310570535Y-92860880D02*
X310380059Y-92860880D01*
X310284821Y-92908500D01*
X310237202Y-92956119D01*
X310141964Y-93098976D01*
X310094345Y-93289452D01*
X310094345Y-93670404D01*
X310141964Y-93765642D01*
X310189583Y-93813261D01*
X310284821Y-93860880D01*
X310475297Y-93860880D01*
X310570535Y-93813261D01*
X310618154Y-93765642D01*
X310665773Y-93670404D01*
X310665773Y-93432309D01*
X310618154Y-93337071D01*
X310570535Y-93289452D01*
X310475297Y-93241833D01*
X310284821Y-93241833D01*
X310189583Y-93289452D01*
X310141964Y-93337071D01*
X310094345Y-93432309D01*
X310999107Y-92860880D02*
X311618154Y-92860880D01*
X311284821Y-93241833D01*
X311427678Y-93241833D01*
X311522916Y-93289452D01*
X311570535Y-93337071D01*
X311618154Y-93432309D01*
X311618154Y-93670404D01*
X311570535Y-93765642D01*
X311522916Y-93813261D01*
X311427678Y-93860880D01*
X311141964Y-93860880D01*
X311046726Y-93813261D01*
X310999107Y-93765642D01*
X97210714Y-74810880D02*
X97210714Y-73810880D01*
X97782142Y-74810880D02*
X97353571Y-74239452D01*
X97782142Y-73810880D02*
X97210714Y-74382309D01*
X98115476Y-73810880D02*
X98734523Y-73810880D01*
X98401190Y-74191833D01*
X98544047Y-74191833D01*
X98639285Y-74239452D01*
X98686904Y-74287071D01*
X98734523Y-74382309D01*
X98734523Y-74620404D01*
X98686904Y-74715642D01*
X98639285Y-74763261D01*
X98544047Y-74810880D01*
X98258333Y-74810880D01*
X98163095Y-74763261D01*
X98115476Y-74715642D01*
X99591666Y-73810880D02*
X99401190Y-73810880D01*
X99305952Y-73858500D01*
X99258333Y-73906119D01*
X99163095Y-74048976D01*
X99115476Y-74239452D01*
X99115476Y-74620404D01*
X99163095Y-74715642D01*
X99210714Y-74763261D01*
X99305952Y-74810880D01*
X99496428Y-74810880D01*
X99591666Y-74763261D01*
X99639285Y-74715642D01*
X99686904Y-74620404D01*
X99686904Y-74382309D01*
X99639285Y-74287071D01*
X99591666Y-74239452D01*
X99496428Y-74191833D01*
X99305952Y-74191833D01*
X99210714Y-74239452D01*
X99163095Y-74287071D01*
X99115476Y-74382309D01*
D13*
X143510000Y-75247500D02*
X143510000Y-89217500D01*
X129540000Y-89217500D02*
X129540000Y-75247500D01*
X143510000Y-89217500D02*
X129540000Y-89217500D01*
X129540000Y-75247500D02*
X143510000Y-75247500D01*
X233997500Y-56197500D02*
X233997500Y-70167500D01*
X233997500Y-70167500D02*
X220027500Y-70167500D01*
X220027500Y-56197500D02*
X233997500Y-56197500D01*
X220027500Y-70167500D02*
X220027500Y-56197500D01*
X310197500Y-43497500D02*
X296227500Y-43497500D01*
X310197500Y-29527500D02*
X310197500Y-43497500D01*
X296227500Y-43497500D02*
X296227500Y-29527500D01*
X296227500Y-29527500D02*
X310197500Y-29527500D01*
X120015000Y-108267500D02*
X120015000Y-94297500D01*
X120015000Y-94297500D02*
X133985000Y-94297500D01*
X133985000Y-108267500D02*
X120015000Y-108267500D01*
X133985000Y-94297500D02*
X133985000Y-108267500D01*
X372903750Y-56197500D02*
X372903750Y-70167500D01*
X358933750Y-56197500D02*
X372903750Y-56197500D01*
X358933750Y-70167500D02*
X358933750Y-56197500D01*
X372903750Y-70167500D02*
X358933750Y-70167500D01*
X186690000Y-75247500D02*
X200660000Y-75247500D01*
X200660000Y-75247500D02*
X200660000Y-89217500D01*
X186690000Y-89217500D02*
X186690000Y-75247500D01*
X200660000Y-89217500D02*
X186690000Y-89217500D01*
X124777500Y-29527500D02*
X138747500Y-29527500D01*
X124777500Y-43497500D02*
X124777500Y-29527500D01*
X138747500Y-43497500D02*
X124777500Y-43497500D01*
X138747500Y-29527500D02*
X138747500Y-43497500D01*
X110490000Y-127317500D02*
X110490000Y-113347500D01*
X124460000Y-127317500D02*
X110490000Y-127317500D01*
X124460000Y-113347500D02*
X124460000Y-127317500D01*
X110490000Y-113347500D02*
X124460000Y-113347500D01*
X276860000Y-127317500D02*
X262890000Y-127317500D01*
X262890000Y-127317500D02*
X262890000Y-113347500D01*
X276860000Y-113347500D02*
X276860000Y-127317500D01*
X262890000Y-113347500D02*
X276860000Y-113347500D01*
X224790000Y-75247500D02*
X238760000Y-75247500D01*
X238760000Y-89217500D02*
X224790000Y-89217500D01*
X238760000Y-75247500D02*
X238760000Y-89217500D01*
X224790000Y-89217500D02*
X224790000Y-75247500D01*
X326866250Y-132397500D02*
X326866250Y-146367500D01*
X312896250Y-132397500D02*
X326866250Y-132397500D01*
X312896250Y-146367500D02*
X312896250Y-132397500D01*
X326866250Y-146367500D02*
X312896250Y-146367500D01*
G36*
X197720801Y-141234243D02*
G01*
X198159266Y-141234243D01*
X198173830Y-141248807D01*
X198188394Y-141234243D01*
X198173830Y-141219679D01*
X198159266Y-141234243D01*
X197720801Y-141234243D01*
X197571070Y-141159306D01*
X196950033Y-140883086D01*
X196462248Y-140693894D01*
X197418588Y-140693894D01*
X197460183Y-140719326D01*
X197534525Y-140746390D01*
X197564612Y-140747965D01*
X197546772Y-140724715D01*
X197524171Y-140707754D01*
X197463671Y-140678138D01*
X197423022Y-140675303D01*
X197418588Y-140693894D01*
X196462248Y-140693894D01*
X196340676Y-140646741D01*
X196311245Y-140637110D01*
X197285413Y-140637110D01*
X197309122Y-140662674D01*
X197330824Y-140666239D01*
X197360974Y-140652117D01*
X197358234Y-140637110D01*
X197320994Y-140609093D01*
X197312822Y-140607982D01*
X197286197Y-140630199D01*
X197285413Y-140637110D01*
X196311245Y-140637110D01*
X195936003Y-140514314D01*
X197052385Y-140514314D01*
X197075390Y-140542105D01*
X197117924Y-140568370D01*
X197180590Y-140593586D01*
X197229932Y-140604327D01*
X197250449Y-140598565D01*
X197240263Y-140584386D01*
X197191671Y-140553588D01*
X197130112Y-140526262D01*
X197076676Y-140510275D01*
X197052451Y-140513492D01*
X197052385Y-140514314D01*
X195936003Y-140514314D01*
X195751380Y-140453897D01*
X195666224Y-140430039D01*
X196808531Y-140430039D01*
X196852620Y-140463082D01*
X196863327Y-140468867D01*
X196957388Y-140509733D01*
X197010966Y-140513353D01*
X197023257Y-140491468D01*
X196999137Y-140466983D01*
X196970825Y-140462340D01*
X196907848Y-140445397D01*
X196885989Y-140429934D01*
X196835350Y-140408082D01*
X196814901Y-140410423D01*
X196808531Y-140430039D01*
X195666224Y-140430039D01*
X195508578Y-140385872D01*
X195405067Y-140357141D01*
X195314041Y-140329727D01*
X195275550Y-140316837D01*
X195200085Y-140292480D01*
X195103516Y-140265100D01*
X195078933Y-140258680D01*
X194988347Y-140220194D01*
X194953199Y-140166435D01*
X194974271Y-140099525D01*
X194975361Y-140098234D01*
X195362935Y-140098234D01*
X195377500Y-140112798D01*
X195392064Y-140098234D01*
X195377500Y-140083670D01*
X195362935Y-140098234D01*
X194975361Y-140098234D01*
X195006112Y-140061824D01*
X195025189Y-140037492D01*
X195038125Y-140002989D01*
X195045512Y-139949016D01*
X195047943Y-139866277D01*
X195047368Y-139830359D01*
X195370871Y-139830359D01*
X195382978Y-139860119D01*
X195389334Y-139872528D01*
X195440611Y-139928426D01*
X195530936Y-139989404D01*
X195642970Y-140045904D01*
X195759374Y-140088364D01*
X195798906Y-140098349D01*
X195880589Y-140119565D01*
X195941848Y-140141412D01*
X195944548Y-140142727D01*
X195995343Y-140162555D01*
X196081639Y-140191050D01*
X196163968Y-140215925D01*
X196395485Y-140288743D01*
X196579866Y-140359840D01*
X196673715Y-140404018D01*
X196720989Y-140415315D01*
X196750941Y-140404102D01*
X196743865Y-140378349D01*
X196741792Y-140376481D01*
X196702064Y-140355524D01*
X196626947Y-140324800D01*
X196571766Y-140304685D01*
X196476415Y-140270552D01*
X196396161Y-140240297D01*
X196367867Y-140228814D01*
X196286368Y-140197570D01*
X196163497Y-140155236D01*
X196013930Y-140106619D01*
X195852338Y-140056526D01*
X195741605Y-140023645D01*
X195612360Y-139978625D01*
X195502814Y-139926807D01*
X195439263Y-139883520D01*
X195387350Y-139837657D01*
X195370871Y-139830359D01*
X195047368Y-139830359D01*
X195046010Y-139745473D01*
X195040306Y-139577305D01*
X195039061Y-139544794D01*
X195035556Y-139471973D01*
X195314856Y-139471973D01*
X195315951Y-139566496D01*
X195318893Y-139617444D01*
X195323167Y-139619107D01*
X195326007Y-139595768D01*
X195330591Y-139479768D01*
X195327010Y-139360427D01*
X195326007Y-139348177D01*
X195321202Y-139319148D01*
X195317437Y-139342665D01*
X195315225Y-139413015D01*
X195314856Y-139471973D01*
X195035556Y-139471973D01*
X195030477Y-139366457D01*
X195019038Y-139190563D01*
X195006005Y-139033443D01*
X194992641Y-138911428D01*
X194987276Y-138874840D01*
X194973725Y-138814155D01*
X195248721Y-138814155D01*
X195254077Y-138851935D01*
X195264020Y-138852386D01*
X195270974Y-138813401D01*
X195266320Y-138796557D01*
X195253386Y-138785524D01*
X195248721Y-138814155D01*
X194973725Y-138814155D01*
X194918980Y-138568991D01*
X195217293Y-138568991D01*
X195227951Y-138592967D01*
X195236712Y-138588410D01*
X195240198Y-138553841D01*
X195236712Y-138549572D01*
X195219395Y-138553570D01*
X195217293Y-138568991D01*
X194918980Y-138568991D01*
X194912004Y-138537752D01*
X194859088Y-138394220D01*
X195159036Y-138394220D01*
X195169694Y-138418196D01*
X195178455Y-138413639D01*
X195181941Y-138379071D01*
X195178455Y-138374801D01*
X195161138Y-138378800D01*
X195159036Y-138394220D01*
X194859088Y-138394220D01*
X194805898Y-138249945D01*
X194796752Y-138234014D01*
X195100779Y-138234014D01*
X195115344Y-138248578D01*
X195129908Y-138234014D01*
X195115344Y-138219450D01*
X195100779Y-138234014D01*
X194796752Y-138234014D01*
X194668820Y-138011186D01*
X194582411Y-137913601D01*
X194955137Y-137913601D01*
X194969702Y-137928165D01*
X194984266Y-137913601D01*
X194969702Y-137899037D01*
X194955137Y-137913601D01*
X194582411Y-137913601D01*
X194516408Y-137839061D01*
X194896880Y-137839061D01*
X194918025Y-137868723D01*
X194926009Y-137869908D01*
X194954380Y-137859970D01*
X194955137Y-137857063D01*
X194934726Y-137832194D01*
X194926009Y-137826216D01*
X194899167Y-137828525D01*
X194896880Y-137839061D01*
X194516408Y-137839061D01*
X194500629Y-137821241D01*
X194301187Y-137679877D01*
X194262753Y-137659964D01*
X194167867Y-137615397D01*
X194090108Y-137587318D01*
X194010441Y-137572004D01*
X193909831Y-137565731D01*
X193776048Y-137564758D01*
X193635236Y-137566791D01*
X193535099Y-137574194D01*
X193458096Y-137590121D01*
X193386687Y-137617728D01*
X193333030Y-137644438D01*
X193177137Y-137753135D01*
X193030493Y-137905982D01*
X192904357Y-138088903D01*
X192809986Y-138287826D01*
X192803155Y-138306835D01*
X192763165Y-138454042D01*
X192727858Y-138646157D01*
X192698191Y-138869949D01*
X192675122Y-139112187D01*
X192659606Y-139359642D01*
X192652601Y-139599083D01*
X192655063Y-139817280D01*
X192667949Y-140001002D01*
X192676241Y-140061906D01*
X192689675Y-140167282D01*
X192681126Y-140233032D01*
X192640566Y-140273055D01*
X192557963Y-140301249D01*
X192492593Y-140316394D01*
X191889197Y-140463875D01*
X191339048Y-140629082D01*
X190839648Y-140812815D01*
X190550688Y-140938103D01*
X190410033Y-141002406D01*
X190254729Y-141072396D01*
X190120312Y-141132076D01*
X189996709Y-141188993D01*
X189833162Y-141268236D01*
X189640802Y-141364112D01*
X189430759Y-141470927D01*
X189214166Y-141582987D01*
X189002153Y-141694598D01*
X188805851Y-141800066D01*
X188689805Y-141863822D01*
X188567890Y-141930230D01*
X188463391Y-141984662D01*
X188387348Y-142021537D01*
X188350800Y-142035274D01*
X188350662Y-142035275D01*
X188310382Y-142017596D01*
X188311601Y-141970290D01*
X188351857Y-141901956D01*
X188405945Y-141842309D01*
X188489854Y-141750594D01*
X188568256Y-141648171D01*
X188595733Y-141605631D01*
X188642990Y-141533987D01*
X188681894Y-141489290D01*
X188695290Y-141481835D01*
X188718611Y-141458165D01*
X188721651Y-141437613D01*
X188736304Y-141389172D01*
X188779845Y-141291710D01*
X188851646Y-141146432D01*
X188951082Y-140954543D01*
X189065903Y-140739060D01*
X189362477Y-140739060D01*
X189377041Y-140753624D01*
X189391605Y-140739060D01*
X189377041Y-140724496D01*
X189362477Y-140739060D01*
X189065903Y-140739060D01*
X189077525Y-140717250D01*
X189230349Y-140435757D01*
X189408926Y-140111269D01*
X189448023Y-140040696D01*
X189722032Y-139544794D01*
X190003302Y-139544794D01*
X190017867Y-139559358D01*
X190032431Y-139544794D01*
X190017867Y-139530229D01*
X190003302Y-139544794D01*
X189722032Y-139544794D01*
X189766423Y-139464456D01*
X190059481Y-138929521D01*
X190331797Y-138427219D01*
X190587971Y-137948883D01*
X190832603Y-137485842D01*
X191070295Y-137029428D01*
X191305645Y-136570970D01*
X191543253Y-136101800D01*
X191634543Y-135920002D01*
X191744870Y-135700941D01*
X191850057Y-135494217D01*
X191946529Y-135306695D01*
X192030710Y-135145243D01*
X192099026Y-135016729D01*
X192147901Y-134928019D01*
X192170665Y-134890232D01*
X192216405Y-134814933D01*
X192243244Y-134754578D01*
X192246192Y-134739027D01*
X192264231Y-134690146D01*
X192274953Y-134680571D01*
X192297665Y-134675009D01*
X192329651Y-134688678D01*
X192379902Y-134728045D01*
X192457409Y-134799574D01*
X192507556Y-134847833D01*
X192576000Y-134909015D01*
X192630513Y-134948653D01*
X192650964Y-134957064D01*
X192685900Y-134972284D01*
X192758676Y-135013772D01*
X192858801Y-135075269D01*
X192975784Y-135150517D01*
X192980943Y-135153907D01*
X193174193Y-135272487D01*
X193335052Y-135353162D01*
X193440458Y-135389638D01*
X193594105Y-135427330D01*
X193699803Y-135454649D01*
X193766338Y-135474441D01*
X193802497Y-135489556D01*
X193817067Y-135502839D01*
X193819128Y-135512348D01*
X193793359Y-135549287D01*
X193728581Y-135574606D01*
X193643589Y-135583945D01*
X193557529Y-135573043D01*
X193420708Y-135526947D01*
X193262026Y-135461552D01*
X193108838Y-135388735D01*
X193018096Y-135338854D01*
X192925318Y-135284715D01*
X192812160Y-135220523D01*
X192741376Y-135181228D01*
X192653182Y-135128842D01*
X192585917Y-135081573D01*
X192557876Y-135054313D01*
X192514082Y-135019137D01*
X192494606Y-135015321D01*
X192447185Y-135039092D01*
X192381594Y-135102739D01*
X192307131Y-135194764D01*
X192233093Y-135303668D01*
X192168780Y-135417952D01*
X192168389Y-135418737D01*
X192123409Y-135506737D01*
X192087799Y-135571890D01*
X192070964Y-135597890D01*
X192051967Y-135628759D01*
X192013822Y-135699641D01*
X191963045Y-135798249D01*
X191931995Y-135860046D01*
X191857206Y-136007818D01*
X191759231Y-136197842D01*
X191642782Y-136421228D01*
X191512575Y-136669088D01*
X191373324Y-136932532D01*
X191229744Y-137202672D01*
X191086548Y-137470619D01*
X190948452Y-137727484D01*
X190820170Y-137964377D01*
X190706417Y-138172410D01*
X190683931Y-138213201D01*
X190643853Y-138288888D01*
X190618993Y-138341820D01*
X190615000Y-138354593D01*
X190641753Y-138360062D01*
X190713019Y-138360216D01*
X190815311Y-138355183D01*
X190855309Y-138352271D01*
X190971996Y-138344388D01*
X191038811Y-138343929D01*
X191063760Y-138351659D01*
X191054846Y-138368346D01*
X191051766Y-138371086D01*
X191014524Y-138417648D01*
X190966327Y-138496396D01*
X190935645Y-138554427D01*
X190892670Y-138637155D01*
X190858356Y-138696311D01*
X190844608Y-138714633D01*
X190823973Y-138745134D01*
X190783335Y-138815729D01*
X190729302Y-138914691D01*
X190688725Y-138991353D01*
X190618901Y-139123883D01*
X190548096Y-139256667D01*
X190487645Y-139368501D01*
X190466791Y-139406434D01*
X190400709Y-139525634D01*
X190328926Y-139655198D01*
X190297317Y-139712282D01*
X190237919Y-139822227D01*
X190169428Y-139952824D01*
X190117435Y-140054541D01*
X190000799Y-140252030D01*
X189842387Y-140467640D01*
X189650766Y-140690174D01*
X189551889Y-140793748D01*
X189468894Y-140877028D01*
X189416775Y-140923799D01*
X189385530Y-140939059D01*
X189365157Y-140927809D01*
X189346406Y-140896452D01*
X189324192Y-140860013D01*
X189310121Y-140861182D01*
X189298353Y-140907422D01*
X189288357Y-140970594D01*
X189265857Y-141066788D01*
X189223265Y-141145081D01*
X189147001Y-141229786D01*
X189139398Y-141237217D01*
X189076502Y-141304087D01*
X189039759Y-141354753D01*
X189036287Y-141376315D01*
X189078028Y-141373233D01*
X189139982Y-141342707D01*
X189201215Y-141298534D01*
X189240793Y-141254510D01*
X189245963Y-141238129D01*
X189272012Y-141188205D01*
X189344793Y-141124303D01*
X189456251Y-141052259D01*
X189598335Y-140977911D01*
X189617047Y-140969118D01*
X189718709Y-140918659D01*
X189779236Y-140882063D01*
X189795890Y-140862460D01*
X189765933Y-140862980D01*
X189690172Y-140885527D01*
X189617703Y-140906050D01*
X189571729Y-140910796D01*
X189566376Y-140908601D01*
X189579640Y-140883712D01*
X189608680Y-140850308D01*
X189828532Y-140850308D01*
X189846455Y-140866446D01*
X189850378Y-140865065D01*
X189886212Y-140848261D01*
X189958615Y-140813998D01*
X190046995Y-140772032D01*
X190149093Y-140724435D01*
X190239472Y-140683937D01*
X190291344Y-140662203D01*
X190336934Y-140636755D01*
X190343361Y-140617918D01*
X190308877Y-140618594D01*
X190243388Y-140641290D01*
X190215525Y-140654038D01*
X190143971Y-140687991D01*
X190097393Y-140708460D01*
X190090688Y-140710752D01*
X190036841Y-140729591D01*
X189964787Y-140763356D01*
X189893607Y-140801890D01*
X189842380Y-140835037D01*
X189828532Y-140850308D01*
X189608680Y-140850308D01*
X189627267Y-140828928D01*
X189700676Y-140753721D01*
X189748605Y-140707394D01*
X189834475Y-140629567D01*
X189890711Y-140585239D01*
X190381972Y-140585239D01*
X190387859Y-140604385D01*
X190416012Y-140602775D01*
X190482025Y-140579574D01*
X190536865Y-140549912D01*
X190556743Y-140523848D01*
X190533293Y-140513567D01*
X190473759Y-140527881D01*
X190469357Y-140529513D01*
X190409086Y-140558575D01*
X190382078Y-140584078D01*
X190381972Y-140585239D01*
X189890711Y-140585239D01*
X189918327Y-140563471D01*
X190011182Y-140502561D01*
X190031290Y-140491468D01*
X190600435Y-140491468D01*
X190606712Y-140516670D01*
X190626126Y-140520596D01*
X190676452Y-140503505D01*
X190687821Y-140491468D01*
X190681544Y-140466266D01*
X190662130Y-140462340D01*
X190611804Y-140479431D01*
X190600435Y-140491468D01*
X190031290Y-140491468D01*
X190124058Y-140440291D01*
X190124772Y-140439943D01*
X190731513Y-140439943D01*
X190753029Y-140459992D01*
X190796856Y-140458118D01*
X190831918Y-140435708D01*
X190832078Y-140435452D01*
X190869738Y-140411093D01*
X190938171Y-140388933D01*
X190942073Y-140388056D01*
X191021753Y-140366911D01*
X191080099Y-140345520D01*
X191263570Y-140270192D01*
X191401468Y-140230049D01*
X191503657Y-140203444D01*
X191598091Y-140177926D01*
X191619931Y-140171799D01*
X191699964Y-140149313D01*
X191779101Y-140127362D01*
X192217064Y-140127362D01*
X192231628Y-140141927D01*
X192246192Y-140127362D01*
X192231628Y-140112798D01*
X192217064Y-140127362D01*
X191779101Y-140127362D01*
X191804914Y-140120202D01*
X191859256Y-140105250D01*
X191962955Y-140068892D01*
X192067583Y-140019404D01*
X192159051Y-139965108D01*
X192223266Y-139914325D01*
X192246192Y-139876768D01*
X192227087Y-139873580D01*
X192179134Y-139902900D01*
X192156572Y-139920874D01*
X192087954Y-139969360D01*
X192030157Y-139995050D01*
X192020280Y-139996285D01*
X191959916Y-140004609D01*
X191884155Y-140023844D01*
X191815067Y-140045028D01*
X191709563Y-140077265D01*
X191586960Y-140114653D01*
X191547110Y-140126791D01*
X191428243Y-140163794D01*
X191325413Y-140197261D01*
X191255423Y-140221672D01*
X191241261Y-140227283D01*
X191187116Y-140248874D01*
X191095749Y-140283630D01*
X190984717Y-140324894D01*
X190957259Y-140334966D01*
X190853543Y-140375426D01*
X190774952Y-140410883D01*
X190734370Y-140435346D01*
X190731513Y-140439943D01*
X190124772Y-140439943D01*
X190267974Y-140370116D01*
X190453951Y-140285490D01*
X190473760Y-140276660D01*
X190553408Y-140245988D01*
X190615969Y-140229978D01*
X190624965Y-140229312D01*
X190675787Y-140212640D01*
X190687821Y-140200184D01*
X190728462Y-140176334D01*
X190769643Y-140170129D01*
X190844240Y-140151861D01*
X190890005Y-140126436D01*
X190962814Y-140093468D01*
X191026646Y-140083670D01*
X191091815Y-140074091D01*
X191124747Y-140054541D01*
X191165000Y-140031787D01*
X191212133Y-140025413D01*
X191273342Y-140014112D01*
X191299995Y-139995512D01*
X191341477Y-139970950D01*
X191352689Y-139971250D01*
X191414630Y-139969500D01*
X191505274Y-139955073D01*
X191597934Y-139933340D01*
X191665922Y-139909669D01*
X191670510Y-139907308D01*
X191741209Y-139884700D01*
X191788814Y-139879771D01*
X191859659Y-139860342D01*
X191920287Y-139820379D01*
X191945492Y-139792385D01*
X192246192Y-139792385D01*
X192256850Y-139816361D01*
X192265611Y-139811804D01*
X192269097Y-139777236D01*
X192265611Y-139772966D01*
X192248294Y-139776965D01*
X192246192Y-139792385D01*
X191945492Y-139792385D01*
X191948853Y-139788652D01*
X191967412Y-139749079D01*
X191967481Y-139748693D01*
X192450091Y-139748693D01*
X192464656Y-139763257D01*
X192479220Y-139748693D01*
X192464656Y-139734129D01*
X192450091Y-139748693D01*
X191967481Y-139748693D01*
X191978112Y-139689252D01*
X191983100Y-139596763D01*
X191984522Y-139459203D01*
X191984541Y-139448992D01*
X192004992Y-138965166D01*
X192018971Y-138860275D01*
X192309048Y-138860275D01*
X192313626Y-138901627D01*
X192323740Y-138896686D01*
X192327588Y-138837050D01*
X192323740Y-138823865D01*
X192313109Y-138820206D01*
X192309048Y-138860275D01*
X192018971Y-138860275D01*
X192061674Y-138539862D01*
X192362706Y-138539862D01*
X192373364Y-138563838D01*
X192382125Y-138559281D01*
X192385611Y-138524713D01*
X192382125Y-138520444D01*
X192364808Y-138524442D01*
X192362706Y-138539862D01*
X192061674Y-138539862D01*
X192066060Y-138506949D01*
X192095576Y-138365092D01*
X192391835Y-138365092D01*
X192402492Y-138389068D01*
X192411253Y-138384511D01*
X192414740Y-138349942D01*
X192411253Y-138345673D01*
X192393937Y-138349671D01*
X192391835Y-138365092D01*
X192095576Y-138365092D01*
X192116789Y-138263142D01*
X192133851Y-138190321D01*
X192450091Y-138190321D01*
X192460749Y-138214297D01*
X192469510Y-138209740D01*
X192472996Y-138175172D01*
X192469510Y-138170902D01*
X192452194Y-138174901D01*
X192450091Y-138190321D01*
X192133851Y-138190321D01*
X192161149Y-138073807D01*
X192508348Y-138073807D01*
X192519006Y-138097783D01*
X192527767Y-138093226D01*
X192531253Y-138058658D01*
X192527767Y-138054388D01*
X192510450Y-138058387D01*
X192508348Y-138073807D01*
X192161149Y-138073807D01*
X192191860Y-137942729D01*
X192274477Y-137884473D01*
X192595734Y-137884473D01*
X192610298Y-137899037D01*
X192624862Y-137884473D01*
X192610298Y-137869908D01*
X192595734Y-137884473D01*
X192274477Y-137884473D01*
X192336442Y-137840780D01*
X192396879Y-137797087D01*
X192653990Y-137797087D01*
X192668555Y-137811651D01*
X192683119Y-137797087D01*
X192668555Y-137782523D01*
X192653990Y-137797087D01*
X192396879Y-137797087D01*
X192417473Y-137782199D01*
X192482626Y-137733976D01*
X192692828Y-137733976D01*
X192696827Y-137751292D01*
X192712247Y-137753395D01*
X192736223Y-137742737D01*
X192731666Y-137733976D01*
X192697098Y-137730490D01*
X192692828Y-137733976D01*
X192482626Y-137733976D01*
X192529467Y-137699306D01*
X192554427Y-137680574D01*
X192741376Y-137680574D01*
X192755940Y-137695138D01*
X192770504Y-137680574D01*
X192755940Y-137666009D01*
X192741376Y-137680574D01*
X192554427Y-137680574D01*
X192657275Y-137603390D01*
X192778688Y-137511148D01*
X192993402Y-137351125D01*
X193167733Y-137230583D01*
X193303246Y-137148582D01*
X193401510Y-137104181D01*
X193464092Y-137096440D01*
X193467942Y-137097483D01*
X193506090Y-137130011D01*
X193502583Y-137172216D01*
X193462308Y-137198739D01*
X193448199Y-137199954D01*
X193387392Y-137214905D01*
X193295584Y-137253722D01*
X193189840Y-137307353D01*
X193087223Y-137366746D01*
X193004797Y-137422848D01*
X192969579Y-137453856D01*
X192941224Y-137487607D01*
X192946735Y-137493390D01*
X192991081Y-137469589D01*
X193067672Y-137421938D01*
X193158507Y-137368135D01*
X193234329Y-137330133D01*
X193277134Y-137316468D01*
X193327324Y-137299258D01*
X193338509Y-137287340D01*
X193375527Y-137271059D01*
X193451295Y-137260487D01*
X193513279Y-137258211D01*
X193603998Y-137263220D01*
X193668847Y-137276084D01*
X193688050Y-137287340D01*
X193728303Y-137310094D01*
X193775435Y-137316468D01*
X193836430Y-137305473D01*
X193862821Y-137287340D01*
X193900484Y-137269774D01*
X193974529Y-137259402D01*
X194012458Y-137258211D01*
X194139999Y-137277949D01*
X194291209Y-137331765D01*
X194449568Y-137411565D01*
X194598552Y-137509254D01*
X194700263Y-137595209D01*
X194769561Y-137658889D01*
X194819197Y-137697854D01*
X194838616Y-137703837D01*
X194838624Y-137703572D01*
X194814745Y-137655905D01*
X194750315Y-137588600D01*
X194656145Y-137509516D01*
X194543043Y-137426509D01*
X194421820Y-137347437D01*
X194303286Y-137280156D01*
X194198249Y-137232525D01*
X194183234Y-137227190D01*
X194067802Y-137181115D01*
X194005004Y-137139253D01*
X193993899Y-137116113D01*
X194019231Y-137086385D01*
X194080339Y-137059300D01*
X194154886Y-137041640D01*
X194220539Y-137040182D01*
X194233579Y-137043356D01*
X194293260Y-137058807D01*
X194321080Y-137060254D01*
X194362726Y-137066028D01*
X194442137Y-137088898D01*
X194543347Y-137123454D01*
X194650387Y-137164284D01*
X194736674Y-137201085D01*
X194820802Y-137253224D01*
X194924546Y-137336755D01*
X195032110Y-137436809D01*
X195127699Y-137538518D01*
X195195518Y-137627016D01*
X195203733Y-137640705D01*
X195334432Y-137892414D01*
X195431347Y-138129751D01*
X195504039Y-138377266D01*
X195523619Y-138462046D01*
X195546997Y-138595163D01*
X195569653Y-138771803D01*
X195590054Y-138977239D01*
X195606668Y-139196743D01*
X195614501Y-139335631D01*
X195623374Y-139483227D01*
X195634383Y-139612740D01*
X195646221Y-139711456D01*
X195657579Y-139766659D01*
X195659231Y-139770539D01*
X195706340Y-139810455D01*
X195755475Y-139821514D01*
X195816746Y-139832405D01*
X195843555Y-139850642D01*
X195883808Y-139873396D01*
X195930940Y-139879771D01*
X195990873Y-139889258D01*
X196015952Y-139905060D01*
X196051668Y-139923179D01*
X196125439Y-139941354D01*
X196176681Y-139949597D01*
X196263659Y-139965929D01*
X196324308Y-139986199D01*
X196339260Y-139997129D01*
X196379304Y-140019711D01*
X196422017Y-140025413D01*
X196486288Y-140035040D01*
X196514965Y-140048665D01*
X196556229Y-140070116D01*
X196633797Y-140101166D01*
X196702844Y-140125555D01*
X196794854Y-140158941D01*
X196864713Y-140188991D01*
X196890722Y-140204252D01*
X196942954Y-140227123D01*
X196963934Y-140229312D01*
X197013416Y-140243123D01*
X197102041Y-140280698D01*
X197218748Y-140336250D01*
X197352475Y-140403991D01*
X197492159Y-140478135D01*
X197626740Y-140552894D01*
X197745155Y-140622481D01*
X197836343Y-140681110D01*
X197859827Y-140698006D01*
X197944564Y-140767226D01*
X198012316Y-140832376D01*
X198044380Y-140873179D01*
X198062401Y-140916279D01*
X198040305Y-140922375D01*
X198008841Y-140914275D01*
X197928298Y-140891349D01*
X197882546Y-140878569D01*
X197817602Y-140850479D01*
X197743761Y-140805773D01*
X197678908Y-140770320D01*
X197629821Y-140760614D01*
X197627247Y-140761305D01*
X197638095Y-140777725D01*
X197693122Y-140814066D01*
X197783854Y-140865318D01*
X197901819Y-140926466D01*
X197930775Y-140940843D01*
X198117771Y-141037536D01*
X198252927Y-141118442D01*
X198339662Y-141186212D01*
X198381396Y-141243498D01*
X198382331Y-141291010D01*
X198389671Y-141332292D01*
X198449191Y-141371139D01*
X198462476Y-141376906D01*
X198532864Y-141412477D01*
X198577093Y-141446046D01*
X198579791Y-141449734D01*
X198612699Y-141481150D01*
X198636231Y-141456903D01*
X198648736Y-141379074D01*
X198649602Y-141361815D01*
X198649556Y-141288464D01*
X198638732Y-141263177D01*
X198612967Y-141276102D01*
X198566365Y-141295115D01*
X198509435Y-141272326D01*
X198451265Y-141220895D01*
X198393800Y-141146489D01*
X198350725Y-141069810D01*
X198335721Y-141011559D01*
X198335913Y-141009794D01*
X198337738Y-140927546D01*
X198320655Y-140877888D01*
X198304908Y-140870138D01*
X198279066Y-140893731D01*
X198275779Y-140913830D01*
X198269882Y-140946520D01*
X198248200Y-140950606D01*
X198204746Y-140922333D01*
X198133533Y-140857949D01*
X198057623Y-140782752D01*
X198246651Y-140782752D01*
X198257309Y-140806728D01*
X198266070Y-140802171D01*
X198269556Y-140767603D01*
X198266070Y-140763333D01*
X198248753Y-140767332D01*
X198246651Y-140782752D01*
X198057623Y-140782752D01*
X198041910Y-140767187D01*
X197951698Y-140684084D01*
X198198407Y-140684084D01*
X198202958Y-140695367D01*
X198229133Y-140723155D01*
X198233806Y-140724496D01*
X198246317Y-140701959D01*
X198246651Y-140695367D01*
X198224258Y-140667358D01*
X198215804Y-140666239D01*
X198198407Y-140684084D01*
X197951698Y-140684084D01*
X197923458Y-140658069D01*
X197781538Y-140542523D01*
X197643508Y-140442597D01*
X197620390Y-140427459D01*
X197492445Y-140344994D01*
X197376182Y-140269440D01*
X197847272Y-140269440D01*
X197859892Y-140293850D01*
X197902920Y-140345360D01*
X197964125Y-140411374D01*
X198031276Y-140479295D01*
X198092144Y-140536527D01*
X198134497Y-140570474D01*
X198143706Y-140574742D01*
X198138447Y-140558011D01*
X198099415Y-140509938D01*
X198034456Y-140439946D01*
X198014335Y-140419368D01*
X197938763Y-140345143D01*
X197880278Y-140292013D01*
X197849353Y-140269378D01*
X197847272Y-140269440D01*
X197376182Y-140269440D01*
X197359130Y-140258359D01*
X197337040Y-140243876D01*
X197780596Y-140243876D01*
X197795160Y-140258440D01*
X197809724Y-140243876D01*
X197795160Y-140229312D01*
X197780596Y-140243876D01*
X197337040Y-140243876D01*
X197244369Y-140183117D01*
X197218959Y-140166303D01*
X197133126Y-140110659D01*
X197111776Y-140097619D01*
X197596804Y-140097619D01*
X197627097Y-140130034D01*
X197672377Y-140166770D01*
X197716001Y-140193680D01*
X197734078Y-140199215D01*
X197733770Y-140183996D01*
X197697496Y-140145689D01*
X197693211Y-140141927D01*
X197636975Y-140100415D01*
X197598141Y-140083670D01*
X197596804Y-140097619D01*
X197111776Y-140097619D01*
X197067584Y-140070628D01*
X197036036Y-140054567D01*
X197035677Y-140054541D01*
X197002865Y-140038638D01*
X196985617Y-140025852D01*
X196876724Y-139938408D01*
X196804113Y-139883770D01*
X196760144Y-139856472D01*
X196740763Y-139850642D01*
X196706567Y-139831322D01*
X196649404Y-139782191D01*
X196615458Y-139748693D01*
X196549778Y-139688795D01*
X196494882Y-139652134D01*
X196476947Y-139646743D01*
X196451044Y-139631599D01*
X196452865Y-139624888D01*
X197035403Y-139624888D01*
X197048821Y-139648333D01*
X197094091Y-139697042D01*
X197158242Y-139759060D01*
X197228306Y-139822434D01*
X197291313Y-139875212D01*
X197334294Y-139905441D01*
X197343169Y-139908540D01*
X197340010Y-139903557D01*
X197358234Y-139903557D01*
X197439961Y-139979049D01*
X197506605Y-140036467D01*
X197540331Y-140053865D01*
X197547568Y-140041961D01*
X197525775Y-140019470D01*
X197471581Y-139979130D01*
X197452901Y-139966469D01*
X197358234Y-139903557D01*
X197340010Y-139903557D01*
X197331394Y-139889964D01*
X197286492Y-139841185D01*
X197217628Y-139772064D01*
X197204276Y-139759077D01*
X197128182Y-139689043D01*
X197068663Y-139641075D01*
X197037050Y-139624175D01*
X197035403Y-139624888D01*
X196452865Y-139624888D01*
X196454515Y-139618807D01*
X196446542Y-139583077D01*
X196405565Y-139528013D01*
X196387588Y-139509575D01*
X196320262Y-139417903D01*
X196283337Y-139319048D01*
X196263961Y-139249003D01*
X196240951Y-139211698D01*
X196235469Y-139209817D01*
X196215469Y-139185629D01*
X196208323Y-139129875D01*
X196213856Y-139067770D01*
X196231891Y-139024529D01*
X196236789Y-139020482D01*
X196260009Y-138980001D01*
X196265917Y-138936827D01*
X196266756Y-138934281D01*
X196998602Y-138934281D01*
X197006277Y-138969108D01*
X197038542Y-138976789D01*
X197080571Y-138952398D01*
X197111363Y-138902072D01*
X197133497Y-138818872D01*
X197138354Y-138743555D01*
X197125995Y-138694576D01*
X197110642Y-138685505D01*
X197088970Y-138710494D01*
X197081513Y-138760406D01*
X197065068Y-138835296D01*
X197037821Y-138879001D01*
X196998602Y-138934281D01*
X196266756Y-138934281D01*
X196292177Y-138857129D01*
X196360325Y-138783675D01*
X196454418Y-138729715D01*
X196539687Y-138709315D01*
X196640257Y-138686351D01*
X196689653Y-138636429D01*
X196689585Y-138568991D01*
X197052385Y-138568991D01*
X197063043Y-138592967D01*
X197071804Y-138588410D01*
X197075290Y-138553841D01*
X197071804Y-138549572D01*
X197054487Y-138553570D01*
X197052385Y-138568991D01*
X196689585Y-138568991D01*
X196689573Y-138557052D01*
X196674114Y-138511697D01*
X196638567Y-138437913D01*
X196994128Y-138437913D01*
X197008692Y-138452477D01*
X197023257Y-138437913D01*
X197008692Y-138423349D01*
X196994128Y-138437913D01*
X196638567Y-138437913D01*
X196638508Y-138437790D01*
X196605008Y-138386127D01*
X196603487Y-138384457D01*
X196577040Y-138344582D01*
X196532717Y-138265873D01*
X196485295Y-138175757D01*
X196848486Y-138175757D01*
X196863050Y-138190321D01*
X196877614Y-138175757D01*
X196863050Y-138161193D01*
X196848486Y-138175757D01*
X196485295Y-138175757D01*
X196478022Y-138161936D01*
X196448221Y-138102936D01*
X196438364Y-138083517D01*
X196799939Y-138083517D01*
X196803937Y-138100834D01*
X196819357Y-138102936D01*
X196843333Y-138092278D01*
X196838776Y-138083517D01*
X196804208Y-138080031D01*
X196799939Y-138083517D01*
X196438364Y-138083517D01*
X196389082Y-137986422D01*
X196761101Y-137986422D01*
X196771758Y-138010398D01*
X196780520Y-138005841D01*
X196784006Y-137971272D01*
X196780520Y-137967003D01*
X196763203Y-137971002D01*
X196761101Y-137986422D01*
X196389082Y-137986422D01*
X196346291Y-137902117D01*
X196344638Y-137899037D01*
X196702844Y-137899037D01*
X196713501Y-137923013D01*
X196722263Y-137918456D01*
X196725749Y-137883887D01*
X196722263Y-137879618D01*
X196704946Y-137883616D01*
X196702844Y-137899037D01*
X196344638Y-137899037D01*
X196289909Y-137797087D01*
X196644587Y-137797087D01*
X196659151Y-137811651D01*
X196673715Y-137797087D01*
X196659151Y-137782523D01*
X196644587Y-137797087D01*
X196289909Y-137797087D01*
X196266482Y-137753447D01*
X196209049Y-137657373D01*
X196180692Y-137622317D01*
X196557202Y-137622317D01*
X196571766Y-137636881D01*
X196586330Y-137622317D01*
X196571766Y-137607752D01*
X196557202Y-137622317D01*
X196180692Y-137622317D01*
X196174246Y-137614348D01*
X196171250Y-137612607D01*
X196149814Y-137579201D01*
X196149403Y-137573310D01*
X196136577Y-137535280D01*
X196136422Y-137534931D01*
X196498945Y-137534931D01*
X196513509Y-137549496D01*
X196528073Y-137534931D01*
X196513509Y-137520367D01*
X196498945Y-137534931D01*
X196136422Y-137534931D01*
X196102037Y-137457640D01*
X196089459Y-137431263D01*
X196440688Y-137431263D01*
X196461832Y-137460925D01*
X196469816Y-137462110D01*
X196498187Y-137452172D01*
X196498945Y-137449265D01*
X196478533Y-137424396D01*
X196469816Y-137418418D01*
X196442975Y-137420727D01*
X196440688Y-137431263D01*
X196089459Y-137431263D01*
X196051696Y-137352071D01*
X196042916Y-137334313D01*
X196392444Y-137334313D01*
X196396995Y-137345596D01*
X196423170Y-137373384D01*
X196427843Y-137374725D01*
X196440354Y-137352188D01*
X196440688Y-137345596D01*
X196418295Y-137317587D01*
X196409840Y-137316468D01*
X196392444Y-137334313D01*
X196042916Y-137334313D01*
X195998086Y-137243647D01*
X196353302Y-137243647D01*
X196367867Y-137258211D01*
X196382431Y-137243647D01*
X196367867Y-137229083D01*
X196353302Y-137243647D01*
X195998086Y-137243647D01*
X195991464Y-137230255D01*
X195946468Y-137141697D01*
X196295046Y-137141697D01*
X196305703Y-137165673D01*
X196314464Y-137161116D01*
X196317951Y-137126548D01*
X196314464Y-137122278D01*
X196297148Y-137126277D01*
X196295046Y-137141697D01*
X195946468Y-137141697D01*
X195927250Y-137103873D01*
X195864967Y-136984606D01*
X195810525Y-136884136D01*
X195799386Y-136864977D01*
X196149403Y-136864977D01*
X196163968Y-136879541D01*
X196178532Y-136864977D01*
X196163968Y-136850413D01*
X196149403Y-136864977D01*
X195799386Y-136864977D01*
X195769833Y-136814144D01*
X195752985Y-136789862D01*
X195719172Y-136730615D01*
X195712477Y-136697622D01*
X195709497Y-136690207D01*
X196062018Y-136690207D01*
X196076582Y-136704771D01*
X196091146Y-136690207D01*
X196076582Y-136675642D01*
X196062018Y-136690207D01*
X195709497Y-136690207D01*
X195692605Y-136648173D01*
X195676066Y-136636207D01*
X195659064Y-136612561D01*
X195685157Y-136582577D01*
X195740892Y-136553931D01*
X195812817Y-136534296D01*
X195862239Y-136530000D01*
X195958219Y-136545122D01*
X196001428Y-136580975D01*
X196022744Y-136609716D01*
X196030846Y-136588952D01*
X196032004Y-136554454D01*
X196018455Y-136492117D01*
X195981858Y-136398803D01*
X195929684Y-136293161D01*
X195921160Y-136277734D01*
X195864687Y-136174544D01*
X195786254Y-136027615D01*
X195690162Y-135845210D01*
X195580711Y-135635593D01*
X195462201Y-135407027D01*
X195338932Y-135167778D01*
X195215202Y-134926107D01*
X195100622Y-134700763D01*
X195033900Y-134572503D01*
X194975688Y-134467084D01*
X194931148Y-134393369D01*
X194905440Y-134360223D01*
X194902012Y-134359654D01*
X194902465Y-134394209D01*
X194925670Y-134457193D01*
X194932039Y-134470313D01*
X194974456Y-134557129D01*
X195021730Y-134657967D01*
X195067244Y-134758136D01*
X195104379Y-134842944D01*
X195126518Y-134897703D01*
X195129908Y-134909536D01*
X195141272Y-134941136D01*
X195171192Y-135010893D01*
X195213408Y-135104259D01*
X195217293Y-135112668D01*
X195269078Y-135233474D01*
X195298400Y-135321203D01*
X195304665Y-135370979D01*
X195287277Y-135377923D01*
X195245643Y-135337160D01*
X195244486Y-135335734D01*
X195186282Y-135258553D01*
X195110572Y-135150558D01*
X195022960Y-135020578D01*
X194929053Y-134877444D01*
X194834458Y-134729988D01*
X194744781Y-134587038D01*
X194665629Y-134457426D01*
X194602606Y-134349983D01*
X194561321Y-134273538D01*
X194551099Y-134247301D01*
X194838624Y-134247301D01*
X194852985Y-134290012D01*
X194881763Y-134306648D01*
X194892511Y-134301189D01*
X194888491Y-134271263D01*
X194873092Y-134251671D01*
X194843766Y-134235250D01*
X194838624Y-134247301D01*
X194551099Y-134247301D01*
X194547339Y-134237650D01*
X194532382Y-134207060D01*
X194502960Y-134159313D01*
X194790379Y-134159313D01*
X194794931Y-134170596D01*
X194821106Y-134198384D01*
X194825778Y-134199725D01*
X194838290Y-134177188D01*
X194838624Y-134170596D01*
X194816231Y-134142587D01*
X194807776Y-134141468D01*
X194790379Y-134159313D01*
X194502960Y-134159313D01*
X194494062Y-134144873D01*
X194462478Y-134096997D01*
X194436577Y-134054083D01*
X194751238Y-134054083D01*
X194761896Y-134078059D01*
X194770657Y-134073502D01*
X194774143Y-134038933D01*
X194770657Y-134034664D01*
X194753340Y-134038662D01*
X194751238Y-134054083D01*
X194436577Y-134054083D01*
X194424597Y-134034235D01*
X194371387Y-133937569D01*
X194692981Y-133937569D01*
X194703639Y-133961545D01*
X194712400Y-133956988D01*
X194715886Y-133922419D01*
X194712400Y-133918150D01*
X194695083Y-133922148D01*
X194692981Y-133937569D01*
X194371387Y-133937569D01*
X194370490Y-133935939D01*
X194319287Y-133838900D01*
X194644737Y-133838900D01*
X194649289Y-133850184D01*
X194675464Y-133877972D01*
X194680136Y-133879312D01*
X194692647Y-133856776D01*
X194692981Y-133850184D01*
X194670589Y-133822175D01*
X194662134Y-133821055D01*
X194644737Y-133838900D01*
X194319287Y-133838900D01*
X194305283Y-133812361D01*
X194264869Y-133733670D01*
X194605596Y-133733670D01*
X194616254Y-133757646D01*
X194625015Y-133753089D01*
X194628501Y-133718520D01*
X194625015Y-133714251D01*
X194607698Y-133718249D01*
X194605596Y-133733670D01*
X194264869Y-133733670D01*
X194234099Y-133673756D01*
X194220297Y-133646285D01*
X194547339Y-133646285D01*
X194557997Y-133670261D01*
X194566758Y-133665703D01*
X194570185Y-133631720D01*
X194751238Y-133631720D01*
X194765802Y-133646285D01*
X194780367Y-133631720D01*
X194765802Y-133617156D01*
X194751238Y-133631720D01*
X194570185Y-133631720D01*
X194570244Y-133631135D01*
X194566758Y-133626866D01*
X194549441Y-133630864D01*
X194547339Y-133646285D01*
X194220297Y-133646285D01*
X194162064Y-133530377D01*
X194154610Y-133515207D01*
X194489082Y-133515207D01*
X194503646Y-133529771D01*
X194518211Y-133515207D01*
X194503646Y-133500642D01*
X194489082Y-133515207D01*
X194154610Y-133515207D01*
X194111670Y-133427821D01*
X194459954Y-133427821D01*
X194474518Y-133442385D01*
X194489082Y-133427821D01*
X194474518Y-133413257D01*
X194459954Y-133427821D01*
X194111670Y-133427821D01*
X194094302Y-133392476D01*
X194055525Y-133311307D01*
X194401697Y-133311307D01*
X194416261Y-133325872D01*
X194430825Y-133311307D01*
X194416261Y-133296743D01*
X194401697Y-133311307D01*
X194055525Y-133311307D01*
X194035938Y-133270308D01*
X194001517Y-133194794D01*
X194343440Y-133194794D01*
X194358004Y-133209358D01*
X194372568Y-133194794D01*
X194358004Y-133180229D01*
X194343440Y-133194794D01*
X194001517Y-133194794D01*
X193992096Y-133174125D01*
X193967901Y-133114182D01*
X193964770Y-133101193D01*
X193959045Y-133081561D01*
X194295196Y-133081561D01*
X194299747Y-133092844D01*
X194325922Y-133120632D01*
X194330595Y-133121973D01*
X194343106Y-133099436D01*
X194343440Y-133092844D01*
X194321047Y-133064835D01*
X194312593Y-133063716D01*
X194295196Y-133081561D01*
X193959045Y-133081561D01*
X193952981Y-133060768D01*
X193923246Y-132989782D01*
X193916948Y-132976330D01*
X194256055Y-132976330D01*
X194266712Y-133000306D01*
X194275474Y-132995749D01*
X194278960Y-132961181D01*
X194275474Y-132956911D01*
X194258157Y-132960910D01*
X194256055Y-132976330D01*
X193916948Y-132976330D01*
X193907056Y-132955203D01*
X193882411Y-132888945D01*
X194197798Y-132888945D01*
X194208455Y-132912921D01*
X194217217Y-132908364D01*
X194220703Y-132873795D01*
X194217217Y-132869526D01*
X194199900Y-132873525D01*
X194197798Y-132888945D01*
X193882411Y-132888945D01*
X193875424Y-132870160D01*
X193855203Y-132762934D01*
X193846881Y-132655918D01*
X194110413Y-132655918D01*
X194121070Y-132679894D01*
X194129831Y-132675336D01*
X194133318Y-132640768D01*
X194129831Y-132636499D01*
X194112515Y-132640497D01*
X194110413Y-132655918D01*
X193846881Y-132655918D01*
X193843974Y-132618537D01*
X193841517Y-132549215D01*
X193841320Y-132539404D01*
X194052156Y-132539404D01*
X194062813Y-132563380D01*
X194071575Y-132558823D01*
X194075061Y-132524254D01*
X194071575Y-132519985D01*
X194054258Y-132523983D01*
X194052156Y-132539404D01*
X193841320Y-132539404D01*
X193838952Y-132421171D01*
X193993899Y-132421171D01*
X194015043Y-132450833D01*
X194023027Y-132452018D01*
X194051398Y-132442080D01*
X194052156Y-132439173D01*
X194050745Y-132437454D01*
X194197798Y-132437454D01*
X194212362Y-132452018D01*
X194226926Y-132437454D01*
X194212362Y-132422890D01*
X194197798Y-132437454D01*
X194050745Y-132437454D01*
X194031744Y-132414304D01*
X194023027Y-132408326D01*
X193996186Y-132410635D01*
X193993899Y-132421171D01*
X193838952Y-132421171D01*
X193838880Y-132417597D01*
X193840667Y-132335505D01*
X193935642Y-132335505D01*
X193957808Y-132363787D01*
X193964770Y-132364633D01*
X193993052Y-132342467D01*
X193993899Y-132335505D01*
X193971733Y-132307223D01*
X193964770Y-132306376D01*
X193936488Y-132328542D01*
X193935642Y-132335505D01*
X193840667Y-132335505D01*
X193840703Y-132333871D01*
X193848557Y-132287743D01*
X193864014Y-132268920D01*
X193884667Y-132266729D01*
X193929549Y-132258790D01*
X193923113Y-132224451D01*
X193877385Y-132175298D01*
X193832768Y-132113354D01*
X193818699Y-132061552D01*
X193815714Y-132023274D01*
X193801505Y-132031704D01*
X193776148Y-132073349D01*
X193729299Y-132157683D01*
X193709992Y-132206539D01*
X193714912Y-132233851D01*
X193734179Y-132249625D01*
X193761639Y-132297254D01*
X193776243Y-132391756D01*
X193777479Y-132523071D01*
X193764837Y-132681140D01*
X193758614Y-132729737D01*
X193723057Y-132891661D01*
X193656287Y-133080814D01*
X193555474Y-133304918D01*
X193525762Y-133365035D01*
X193491044Y-133439484D01*
X193471305Y-133491972D01*
X193469587Y-133501363D01*
X193458103Y-133537932D01*
X193427776Y-133612092D01*
X193384796Y-133708827D01*
X193377855Y-133723894D01*
X193329764Y-133840028D01*
X193292020Y-133953639D01*
X193272859Y-134039751D01*
X193269855Y-134106251D01*
X193282880Y-134163730D01*
X193319059Y-134229291D01*
X193385512Y-134320033D01*
X193394365Y-134331497D01*
X193512917Y-134486832D01*
X193600381Y-134607599D01*
X193663151Y-134703826D01*
X193707623Y-134785542D01*
X193740192Y-134862775D01*
X193748897Y-134887451D01*
X193793689Y-134993908D01*
X193849675Y-135094806D01*
X193870312Y-135124502D01*
X193916323Y-135194176D01*
X193926599Y-135245807D01*
X193912615Y-135290283D01*
X193890036Y-135331713D01*
X193861260Y-135345035D01*
X193807415Y-135333484D01*
X193757746Y-135316829D01*
X193659865Y-135276242D01*
X193571421Y-135228741D01*
X193554751Y-135217639D01*
X193494749Y-135178919D01*
X193456031Y-135161095D01*
X193454429Y-135160963D01*
X193407604Y-135141150D01*
X193328795Y-135086521D01*
X193225697Y-135004292D01*
X193106008Y-134901679D01*
X192977423Y-134785899D01*
X192847639Y-134664167D01*
X192724352Y-134543699D01*
X192615258Y-134431712D01*
X192528054Y-134335421D01*
X192472627Y-134264832D01*
X192951485Y-134264832D01*
X192952629Y-134289803D01*
X192981567Y-134339527D01*
X193042033Y-134420636D01*
X193122420Y-134520945D01*
X193212452Y-134632918D01*
X193299988Y-134744077D01*
X193370499Y-134835899D01*
X193389872Y-134861956D01*
X193450921Y-134940233D01*
X193484686Y-134969058D01*
X193493737Y-134949005D01*
X193481061Y-134882302D01*
X193452982Y-134828594D01*
X193392759Y-134746172D01*
X193309815Y-134647136D01*
X193232052Y-134562633D01*
X193140775Y-134464769D01*
X193066833Y-134380181D01*
X193018445Y-134318632D01*
X193003532Y-134291292D01*
X192983697Y-134259730D01*
X192974403Y-134257982D01*
X192951485Y-134264832D01*
X192472627Y-134264832D01*
X192470436Y-134262042D01*
X192450091Y-134219300D01*
X192474556Y-134168583D01*
X192507384Y-134150160D01*
X192561485Y-134112211D01*
X192577606Y-134083211D01*
X192924080Y-134083211D01*
X192926352Y-134146211D01*
X192932162Y-134163506D01*
X192936703Y-134148750D01*
X192941522Y-134063870D01*
X192936703Y-134017672D01*
X192929500Y-134003869D01*
X192924930Y-134040465D01*
X192924080Y-134083211D01*
X192577606Y-134083211D01*
X192583402Y-134072784D01*
X192601291Y-134026184D01*
X192638909Y-133936831D01*
X192691820Y-133814978D01*
X192755585Y-133670880D01*
X192805820Y-133558899D01*
X192877195Y-133398693D01*
X193149174Y-133398693D01*
X193163738Y-133413257D01*
X193178302Y-133398693D01*
X193163738Y-133384129D01*
X193149174Y-133398693D01*
X192877195Y-133398693D01*
X192886023Y-133378877D01*
X192979938Y-133164482D01*
X193079116Y-132935216D01*
X193175108Y-132710584D01*
X193241149Y-132553968D01*
X193323710Y-132360060D01*
X193328086Y-132350069D01*
X193615229Y-132350069D01*
X193629793Y-132364633D01*
X193644357Y-132350069D01*
X193629793Y-132335505D01*
X193615229Y-132350069D01*
X193328086Y-132350069D01*
X193411341Y-132159994D01*
X193497150Y-131969121D01*
X193560049Y-131833414D01*
X193790000Y-131833414D01*
X193813254Y-131860517D01*
X193866759Y-131893778D01*
X193926123Y-131919142D01*
X193947439Y-131924130D01*
X193950296Y-131908985D01*
X193921078Y-131869450D01*
X193868394Y-131827345D01*
X193818936Y-131810726D01*
X193791313Y-131824707D01*
X193790000Y-131833414D01*
X193560049Y-131833414D01*
X193574242Y-131802791D01*
X193631393Y-131684941D01*
X193693471Y-131555776D01*
X193744156Y-131439568D01*
X193778107Y-131349314D01*
X193790000Y-131298989D01*
X193798627Y-131245410D01*
X193814399Y-131228624D01*
X193836733Y-131253805D01*
X193876019Y-131322312D01*
X193927058Y-131423592D01*
X193984649Y-131547090D01*
X194043590Y-131682251D01*
X194072762Y-131752936D01*
X194108673Y-131837688D01*
X194156596Y-131945702D01*
X194188341Y-132015092D01*
X194229538Y-132105311D01*
X194286472Y-132231999D01*
X194351576Y-132378233D01*
X194416294Y-132524840D01*
X194500654Y-132715997D01*
X194576656Y-132885955D01*
X194650470Y-133048064D01*
X194728265Y-133215675D01*
X194816207Y-133402140D01*
X194920467Y-133620809D01*
X194981527Y-133748234D01*
X195060194Y-133912612D01*
X195135600Y-134070897D01*
X195201811Y-134210582D01*
X195252897Y-134319165D01*
X195276741Y-134370537D01*
X195315140Y-134451686D01*
X195376023Y-134577112D01*
X195455546Y-134739126D01*
X195549867Y-134930035D01*
X195655145Y-135142149D01*
X195767537Y-135367776D01*
X195883200Y-135599225D01*
X195998293Y-135828804D01*
X196108972Y-136048823D01*
X196211396Y-136251589D01*
X196301722Y-136429413D01*
X196376108Y-136574602D01*
X196421027Y-136661078D01*
X196582502Y-136968421D01*
X196718924Y-137227279D01*
X196832025Y-137440900D01*
X196923535Y-137612534D01*
X196995185Y-137745430D01*
X197048707Y-137842837D01*
X197080590Y-137899037D01*
X197129138Y-137985844D01*
X197192666Y-138103861D01*
X197260007Y-138232235D01*
X197283408Y-138277707D01*
X197340772Y-138388302D01*
X197389943Y-138480284D01*
X197423811Y-138540483D01*
X197433197Y-138555092D01*
X197458554Y-138595331D01*
X197500926Y-138669594D01*
X197541770Y-138744427D01*
X197605417Y-138859299D01*
X197680760Y-138989711D01*
X197733029Y-139077025D01*
X197785898Y-139167070D01*
X197823837Y-139238529D01*
X197838841Y-139276295D01*
X197838853Y-139276719D01*
X197856121Y-139314416D01*
X197898904Y-139374310D01*
X197911674Y-139389899D01*
X197966422Y-139468311D01*
X197983633Y-139524282D01*
X197962599Y-139550178D01*
X197926238Y-139546757D01*
X197848567Y-139524729D01*
X197802442Y-139511652D01*
X197738579Y-139489142D01*
X197647489Y-139452058D01*
X197591261Y-139427442D01*
X197379891Y-139333754D01*
X197179145Y-139247716D01*
X196996529Y-139172315D01*
X196839547Y-139110533D01*
X196715706Y-139065355D01*
X196632512Y-139039766D01*
X196604364Y-139035046D01*
X196532944Y-139045296D01*
X196515734Y-139075734D01*
X196552473Y-139125892D01*
X196642901Y-139195303D01*
X196721821Y-139245393D01*
X196793529Y-139288665D01*
X196848486Y-139321730D01*
X196900310Y-139348762D01*
X196981460Y-139387186D01*
X197023486Y-139406144D01*
X197108570Y-139452717D01*
X197217058Y-139524295D01*
X197328703Y-139607304D01*
X197354885Y-139628374D01*
X197450120Y-139702121D01*
X197533176Y-139758677D01*
X197590822Y-139789329D01*
X197603960Y-139792385D01*
X197644000Y-139809230D01*
X197720135Y-139855460D01*
X197822534Y-139924621D01*
X197941366Y-140010259D01*
X197981108Y-140039977D01*
X198102131Y-140129321D01*
X198208695Y-140204326D01*
X198291308Y-140258582D01*
X198340479Y-140285679D01*
X198347730Y-140287569D01*
X198380995Y-140311502D01*
X198427339Y-140373430D01*
X198464828Y-140437965D01*
X198572859Y-140643383D01*
X198676110Y-140837483D01*
X198770809Y-141013355D01*
X198853185Y-141164091D01*
X198919468Y-141282782D01*
X198965886Y-141362518D01*
X198986861Y-141394450D01*
X199017632Y-141442908D01*
X199061621Y-141525720D01*
X199103652Y-141612913D01*
X199157972Y-141721542D01*
X199215860Y-141822909D01*
X199254228Y-141880408D01*
X199299016Y-141946063D01*
X199323086Y-141993959D01*
X199324403Y-142001087D01*
X199301812Y-142037144D01*
X199243177Y-142041771D01*
X199163034Y-142014270D01*
X199101237Y-141980985D01*
X199004775Y-141926732D01*
X198889087Y-141860261D01*
X198814656Y-141816855D01*
X198396413Y-141583785D01*
X198829220Y-141583785D01*
X198843784Y-141598349D01*
X198858348Y-141583785D01*
X198843784Y-141569220D01*
X198829220Y-141583785D01*
X198396413Y-141583785D01*
X198195404Y-141471771D01*
X197720801Y-141234243D01*
G37*
G36*
X192388145Y-135291357D02*
G01*
X192391835Y-135349265D01*
X192375103Y-135429379D01*
X192329423Y-135543536D01*
X192261562Y-135679757D01*
X192178290Y-135826063D01*
X192086377Y-135970474D01*
X191992590Y-136101012D01*
X191914151Y-136194608D01*
X191833944Y-136281153D01*
X191855240Y-136194395D01*
X191877547Y-136130198D01*
X191901157Y-136097928D01*
X191925275Y-136064600D01*
X191925779Y-136058400D01*
X191937262Y-136018851D01*
X191967514Y-135942492D01*
X192010242Y-135845106D01*
X192014837Y-135835082D01*
X192121677Y-135610045D01*
X192210073Y-135439541D01*
X192280471Y-135322996D01*
X192333319Y-135259833D01*
X192369061Y-135249479D01*
X192388145Y-135291357D01*
G37*
G36*
X193920235Y-141050701D02*
G01*
X194001681Y-141060095D01*
X194015745Y-141063268D01*
X194069441Y-141094979D01*
X194076932Y-141137531D01*
X194035209Y-141172870D01*
X193980680Y-141181623D01*
X193887971Y-141185852D01*
X193776973Y-141185680D01*
X193667579Y-141181227D01*
X193579679Y-141172615D01*
X193564254Y-141169994D01*
X193511013Y-141142037D01*
X193502399Y-141100007D01*
X193541998Y-141063702D01*
X193544790Y-141062589D01*
X193604098Y-141052137D01*
X193700442Y-141046692D01*
X193812822Y-141046223D01*
X193920235Y-141050701D01*
G37*
G36*
X193547263Y-137064022D02*
G01*
X193543264Y-137081338D01*
X193527844Y-137083440D01*
X193503868Y-137072783D01*
X193508425Y-137064022D01*
X193542993Y-137060535D01*
X193547263Y-137064022D01*
G37*
X354012500Y-43497500D02*
X340042500Y-43497500D01*
X340042500Y-29527500D02*
X354012500Y-29527500D01*
X354012500Y-29527500D02*
X354012500Y-43497500D01*
X340042500Y-43497500D02*
X340042500Y-29527500D01*
X157797500Y-29527500D02*
X157797500Y-43497500D01*
X157797500Y-43497500D02*
X143827500Y-43497500D01*
X143827500Y-43497500D02*
X143827500Y-29527500D01*
X143827500Y-29527500D02*
X157797500Y-29527500D01*
X253047500Y-56197500D02*
X253047500Y-70167500D01*
X253047500Y-70167500D02*
X239077500Y-70167500D01*
X239077500Y-70167500D02*
X239077500Y-56197500D01*
X239077500Y-56197500D02*
X253047500Y-56197500D01*
X119697500Y-29527500D02*
X119697500Y-43497500D01*
X105727500Y-43497500D02*
X105727500Y-29527500D01*
X119697500Y-43497500D02*
X105727500Y-43497500D01*
X105727500Y-29527500D02*
X119697500Y-29527500D01*
X372903750Y-132397500D02*
X372903750Y-146367500D01*
X358933750Y-146367500D02*
X358933750Y-132397500D01*
X358933750Y-132397500D02*
X372903750Y-132397500D01*
X372903750Y-146367500D02*
X358933750Y-146367500D01*
X162560000Y-75247500D02*
X162560000Y-89217500D01*
X148590000Y-75247500D02*
X162560000Y-75247500D01*
X162560000Y-89217500D02*
X148590000Y-89217500D01*
X148590000Y-89217500D02*
X148590000Y-75247500D01*
X242887500Y-29527500D02*
X242887500Y-43497500D01*
X242887500Y-43497500D02*
X228917500Y-43497500D01*
X228917500Y-43497500D02*
X228917500Y-29527500D01*
X228917500Y-29527500D02*
X242887500Y-29527500D01*
X204787500Y-43497500D02*
X190817500Y-43497500D01*
X190817500Y-43497500D02*
X190817500Y-29527500D01*
X190817500Y-29527500D02*
X204787500Y-29527500D01*
X204787500Y-29527500D02*
X204787500Y-43497500D01*
X303053750Y-132397500D02*
X303053750Y-146367500D01*
X289083750Y-146367500D02*
X289083750Y-132397500D01*
X303053750Y-146367500D02*
X289083750Y-146367500D01*
X289083750Y-132397500D02*
X303053750Y-132397500D01*
X88741250Y-132397500D02*
X88741250Y-146367500D01*
X74771250Y-132397500D02*
X88741250Y-132397500D01*
X74771250Y-146367500D02*
X74771250Y-132397500D01*
X88741250Y-146367500D02*
X74771250Y-146367500D01*
X124777500Y-70167500D02*
X124777500Y-56197500D01*
X138747500Y-70167500D02*
X124777500Y-70167500D01*
X138747500Y-56197500D02*
X138747500Y-70167500D01*
X124777500Y-56197500D02*
X138747500Y-56197500D01*
X119697500Y-70167500D02*
X105727500Y-70167500D01*
X105727500Y-56197500D02*
X119697500Y-56197500D01*
X119697500Y-56197500D02*
X119697500Y-70167500D01*
X105727500Y-70167500D02*
X105727500Y-56197500D01*
X286385000Y-108267500D02*
X272415000Y-108267500D01*
X272415000Y-108267500D02*
X272415000Y-94297500D01*
X286385000Y-94297500D02*
X286385000Y-108267500D01*
X272415000Y-94297500D02*
X286385000Y-94297500D01*
X257810000Y-89217500D02*
X243840000Y-89217500D01*
X243840000Y-89217500D02*
X243840000Y-75247500D01*
X257810000Y-75247500D02*
X257810000Y-89217500D01*
X243840000Y-75247500D02*
X257810000Y-75247500D01*
X98583750Y-146367500D02*
X98583750Y-132397500D01*
X112553750Y-132397500D02*
X112553750Y-146367500D01*
X112553750Y-146367500D02*
X98583750Y-146367500D01*
X98583750Y-132397500D02*
X112553750Y-132397500D01*
X267335000Y-108267500D02*
X253365000Y-108267500D01*
X253365000Y-108267500D02*
X253365000Y-94297500D01*
X253365000Y-94297500D02*
X267335000Y-94297500D01*
X267335000Y-94297500D02*
X267335000Y-108267500D01*
X124460000Y-89217500D02*
X110490000Y-89217500D01*
X110490000Y-89217500D02*
X110490000Y-75247500D01*
X110490000Y-75247500D02*
X124460000Y-75247500D01*
X124460000Y-75247500D02*
X124460000Y-89217500D01*
X377983750Y-146367500D02*
X377983750Y-132397500D01*
X377983750Y-132397500D02*
X391953750Y-132397500D01*
X391953750Y-132397500D02*
X391953750Y-146367500D01*
X391953750Y-146367500D02*
X377983750Y-146367500D01*
X277177500Y-43497500D02*
X277177500Y-29527500D01*
X291147500Y-43497500D02*
X277177500Y-43497500D01*
X291147500Y-29527500D02*
X291147500Y-43497500D01*
X277177500Y-29527500D02*
X291147500Y-29527500D01*
X153035000Y-94297500D02*
X153035000Y-108267500D01*
X139065000Y-94297500D02*
X153035000Y-94297500D01*
X139065000Y-108267500D02*
X139065000Y-94297500D01*
X153035000Y-108267500D02*
X139065000Y-108267500D01*
X95885000Y-108267500D02*
X81915000Y-108267500D01*
X95885000Y-94297500D02*
X95885000Y-108267500D01*
X81915000Y-94297500D02*
X95885000Y-94297500D01*
X81915000Y-108267500D02*
X81915000Y-94297500D01*
X114935000Y-108267500D02*
X100965000Y-108267500D01*
X114935000Y-94297500D02*
X114935000Y-108267500D01*
X100965000Y-94297500D02*
X114935000Y-94297500D01*
X100965000Y-108267500D02*
X100965000Y-94297500D01*
X129540000Y-127317500D02*
X129540000Y-113347500D01*
X129540000Y-113347500D02*
X143510000Y-113347500D01*
X143510000Y-127317500D02*
X129540000Y-127317500D01*
X143510000Y-113347500D02*
X143510000Y-127317500D01*
X339883750Y-89217500D02*
X339883750Y-75247500D01*
X339883750Y-75247500D02*
X353853750Y-75247500D01*
X353853750Y-75247500D02*
X353853750Y-89217500D01*
X353853750Y-89217500D02*
X339883750Y-89217500D01*
X224790000Y-127317500D02*
X224790000Y-113347500D01*
X238760000Y-127317500D02*
X224790000Y-127317500D01*
X224790000Y-113347500D02*
X238760000Y-113347500D01*
X238760000Y-113347500D02*
X238760000Y-127317500D01*
X295910000Y-75247500D02*
X295910000Y-89217500D01*
X295910000Y-89217500D02*
X281940000Y-89217500D01*
X281940000Y-89217500D02*
X281940000Y-75247500D01*
X281940000Y-75247500D02*
X295910000Y-75247500D01*
X373062500Y-29527500D02*
X373062500Y-43497500D01*
X359092500Y-29527500D02*
X373062500Y-29527500D01*
X359092500Y-43497500D02*
X359092500Y-29527500D01*
X373062500Y-43497500D02*
X359092500Y-43497500D01*
X329247500Y-43497500D02*
X315277500Y-43497500D01*
X329247500Y-29527500D02*
X329247500Y-43497500D01*
X315277500Y-43497500D02*
X315277500Y-29527500D01*
X315277500Y-29527500D02*
X329247500Y-29527500D01*
X86677500Y-43497500D02*
X86677500Y-29527500D01*
X86677500Y-29527500D02*
X100647500Y-29527500D01*
X100647500Y-29527500D02*
X100647500Y-43497500D01*
X100647500Y-43497500D02*
X86677500Y-43497500D01*
X158115000Y-94297500D02*
X172085000Y-94297500D01*
X172085000Y-108267500D02*
X158115000Y-108267500D01*
X158115000Y-108267500D02*
X158115000Y-94297500D01*
X172085000Y-94297500D02*
X172085000Y-108267500D01*
X200660000Y-127317500D02*
X186690000Y-127317500D01*
X200660000Y-113347500D02*
X200660000Y-127317500D01*
X186690000Y-127317500D02*
X186690000Y-113347500D01*
X186690000Y-113347500D02*
X200660000Y-113347500D01*
X196215000Y-94297500D02*
X210185000Y-94297500D01*
X210185000Y-108267500D02*
X196215000Y-108267500D01*
X196215000Y-108267500D02*
X196215000Y-94297500D01*
X210185000Y-94297500D02*
X210185000Y-108267500D01*
X162877500Y-70167500D02*
X162877500Y-56197500D01*
X176847500Y-70167500D02*
X162877500Y-70167500D01*
X162877500Y-56197500D02*
X176847500Y-56197500D01*
X176847500Y-56197500D02*
X176847500Y-70167500D01*
X205740000Y-75247500D02*
X219710000Y-75247500D01*
X219710000Y-89217500D02*
X205740000Y-89217500D01*
X205740000Y-89217500D02*
X205740000Y-75247500D01*
X219710000Y-75247500D02*
X219710000Y-89217500D01*
X391953750Y-70167500D02*
X377983750Y-70167500D01*
X391953750Y-56197500D02*
X391953750Y-70167500D01*
X377983750Y-56197500D02*
X391953750Y-56197500D01*
X377983750Y-70167500D02*
X377983750Y-56197500D01*
X143827500Y-70167500D02*
X143827500Y-56197500D01*
X143827500Y-56197500D02*
X157797500Y-56197500D01*
X157797500Y-70167500D02*
X143827500Y-70167500D01*
X157797500Y-56197500D02*
X157797500Y-70167500D01*
X276860000Y-89217500D02*
X262890000Y-89217500D01*
X262890000Y-75247500D02*
X276860000Y-75247500D01*
X262890000Y-89217500D02*
X262890000Y-75247500D01*
X276860000Y-75247500D02*
X276860000Y-89217500D01*
X167640000Y-127317500D02*
X167640000Y-113347500D01*
X167640000Y-113347500D02*
X181610000Y-113347500D01*
X181610000Y-113347500D02*
X181610000Y-127317500D01*
X181610000Y-127317500D02*
X167640000Y-127317500D01*
X60487500Y-127337500D02*
X60487500Y-113367500D01*
X74457500Y-113367500D02*
X74457500Y-127337500D01*
X74457500Y-127337500D02*
X60487500Y-127337500D01*
X60487500Y-113367500D02*
X74457500Y-113367500D01*
X86677500Y-70167500D02*
X86677500Y-56197500D01*
X86677500Y-56197500D02*
X100647500Y-56197500D01*
X100647500Y-56197500D02*
X100647500Y-70167500D01*
X100647500Y-70167500D02*
X86677500Y-70167500D01*
X162560000Y-127317500D02*
X148590000Y-127317500D01*
X148590000Y-127317500D02*
X148590000Y-113347500D01*
X162560000Y-113347500D02*
X162560000Y-127317500D01*
X148590000Y-113347500D02*
X162560000Y-113347500D01*
X67627500Y-70167500D02*
X67627500Y-56197500D01*
X67627500Y-56197500D02*
X81597500Y-56197500D01*
X81597500Y-56197500D02*
X81597500Y-70167500D01*
X81597500Y-70167500D02*
X67627500Y-70167500D01*
X105410000Y-127317500D02*
X91440000Y-127317500D01*
X91440000Y-127317500D02*
X91440000Y-113347500D01*
X105410000Y-113347500D02*
X105410000Y-127317500D01*
X91440000Y-113347500D02*
X105410000Y-113347500D01*
X215265000Y-108267500D02*
X215265000Y-94297500D01*
X229235000Y-94297500D02*
X229235000Y-108267500D01*
X229235000Y-108267500D02*
X215265000Y-108267500D01*
X215265000Y-94297500D02*
X229235000Y-94297500D01*
X64928750Y-132397500D02*
X64928750Y-146367500D01*
X50958750Y-146367500D02*
X50958750Y-132397500D01*
X50958750Y-132397500D02*
X64928750Y-132397500D01*
X64928750Y-146367500D02*
X50958750Y-146367500D01*
X86360000Y-89217500D02*
X72390000Y-89217500D01*
X72390000Y-75247500D02*
X86360000Y-75247500D01*
X86360000Y-75247500D02*
X86360000Y-89217500D01*
X72390000Y-89217500D02*
X72390000Y-75247500D01*
X358933750Y-113347500D02*
X372903750Y-113347500D01*
X372903750Y-127317500D02*
X358933750Y-127317500D01*
X358933750Y-127317500D02*
X358933750Y-113347500D01*
X372903750Y-113347500D02*
X372903750Y-127317500D01*
X69691250Y-108267500D02*
X55721250Y-108267500D01*
X55721250Y-108267500D02*
X55721250Y-94297500D01*
X69691250Y-94297500D02*
X69691250Y-108267500D01*
X55721250Y-94297500D02*
X69691250Y-94297500D01*
X322103750Y-89217500D02*
X308133750Y-89217500D01*
X322103750Y-75247500D02*
X322103750Y-89217500D01*
X308133750Y-89217500D02*
X308133750Y-75247500D01*
X308133750Y-75247500D02*
X322103750Y-75247500D01*
X258127500Y-29527500D02*
X272097500Y-29527500D01*
X258127500Y-43497500D02*
X258127500Y-29527500D01*
X272097500Y-29527500D02*
X272097500Y-43497500D01*
X272097500Y-43497500D02*
X258127500Y-43497500D01*
X62547500Y-43497500D02*
X48577500Y-43497500D01*
X62547500Y-29527500D02*
X62547500Y-43497500D01*
X48577500Y-29527500D02*
X62547500Y-29527500D01*
X48577500Y-43497500D02*
X48577500Y-29527500D01*
X372903750Y-89217500D02*
X358933750Y-89217500D01*
X358933750Y-89217500D02*
X358933750Y-75247500D01*
X358933750Y-75247500D02*
X372903750Y-75247500D01*
X372903750Y-75247500D02*
X372903750Y-89217500D01*
X184010300Y-132382300D02*
X184010300Y-146352300D01*
X170040300Y-146352300D02*
X170040300Y-132382300D01*
X170040300Y-132382300D02*
X184010300Y-132382300D01*
X184010300Y-146352300D02*
X170040300Y-146352300D01*
X167640000Y-89217500D02*
X167640000Y-75247500D01*
X181610000Y-75247500D02*
X181610000Y-89217500D01*
X167640000Y-75247500D02*
X181610000Y-75247500D01*
X181610000Y-89217500D02*
X167640000Y-89217500D01*
X377983750Y-89217500D02*
X377983750Y-75247500D01*
X391953750Y-89217500D02*
X377983750Y-89217500D01*
X377983750Y-75247500D02*
X391953750Y-75247500D01*
X391953750Y-75247500D02*
X391953750Y-89217500D01*
X205740000Y-113347500D02*
X219710000Y-113347500D01*
X219710000Y-127317500D02*
X205740000Y-127317500D01*
X205740000Y-127317500D02*
X205740000Y-113347500D01*
X219710000Y-113347500D02*
X219710000Y-127317500D01*
X195897500Y-70167500D02*
X181927500Y-70167500D01*
X195897500Y-56197500D02*
X195897500Y-70167500D01*
X181927500Y-70167500D02*
X181927500Y-56197500D01*
X181927500Y-56197500D02*
X195897500Y-56197500D01*
X353853750Y-146367500D02*
X339883750Y-146367500D01*
X339883750Y-146367500D02*
X339883750Y-132397500D01*
X339883750Y-132397500D02*
X353853750Y-132397500D01*
X353853750Y-132397500D02*
X353853750Y-146367500D01*
X200977500Y-70167500D02*
X200977500Y-56197500D01*
X214947500Y-56197500D02*
X214947500Y-70167500D01*
X200977500Y-56197500D02*
X214947500Y-56197500D01*
X214947500Y-70167500D02*
X200977500Y-70167500D01*
X64928750Y-89217500D02*
X50958750Y-89217500D01*
X64928750Y-75247500D02*
X64928750Y-89217500D01*
X50958750Y-75247500D02*
X64928750Y-75247500D01*
X50958750Y-89217500D02*
X50958750Y-75247500D01*
X209867500Y-43497500D02*
X209867500Y-29527500D01*
X223837500Y-43497500D02*
X209867500Y-43497500D01*
X209867500Y-29527500D02*
X223837500Y-29527500D01*
X223837500Y-29527500D02*
X223837500Y-43497500D01*
X255428750Y-132397500D02*
X255428750Y-146367500D01*
X255428750Y-146367500D02*
X241458750Y-146367500D01*
X241458750Y-146367500D02*
X241458750Y-132397500D01*
X241458750Y-132397500D02*
X255428750Y-132397500D01*
X298608750Y-113347500D02*
X312578750Y-113347500D01*
X298608750Y-127317500D02*
X298608750Y-113347500D01*
X312578750Y-127317500D02*
X298608750Y-127317500D01*
X312578750Y-113347500D02*
X312578750Y-127317500D01*
X258127500Y-70167500D02*
X258127500Y-56197500D01*
X258127500Y-56197500D02*
X272097500Y-56197500D01*
X272097500Y-70167500D02*
X258127500Y-70167500D01*
X272097500Y-56197500D02*
X272097500Y-70167500D01*
X305727100Y-70177700D02*
X305727100Y-56207700D01*
X305727100Y-56207700D02*
X319697100Y-56207700D01*
X319697100Y-70177700D02*
X305727100Y-70177700D01*
X319697100Y-56207700D02*
X319697100Y-70177700D01*
X378142500Y-43497500D02*
X378142500Y-29527500D01*
X392112500Y-43497500D02*
X378142500Y-43497500D01*
X392112500Y-29527500D02*
X392112500Y-43497500D01*
X378142500Y-29527500D02*
X392112500Y-29527500D01*
X62547500Y-70167500D02*
X48577500Y-70167500D01*
X62547500Y-56197500D02*
X62547500Y-70167500D01*
X48577500Y-56197500D02*
X62547500Y-56197500D01*
X48577500Y-70167500D02*
X48577500Y-56197500D01*
X265267500Y-132407500D02*
X279237500Y-132407500D01*
X279237500Y-132407500D02*
X279237500Y-146377500D01*
X279237500Y-146377500D02*
X265267500Y-146377500D01*
X265267500Y-146377500D02*
X265267500Y-132407500D01*
X339883750Y-56197500D02*
X353853750Y-56197500D01*
X353853750Y-70167500D02*
X339883750Y-70167500D01*
X353853750Y-56197500D02*
X353853750Y-70167500D01*
X339883750Y-70167500D02*
X339883750Y-56197500D01*
X243840000Y-113347500D02*
X257810000Y-113347500D01*
X257810000Y-113347500D02*
X257810000Y-127317500D01*
X243840000Y-127317500D02*
X243840000Y-113347500D01*
X257810000Y-127317500D02*
X243840000Y-127317500D01*
X248285000Y-94297500D02*
X248285000Y-108267500D01*
X234315000Y-94297500D02*
X248285000Y-94297500D01*
X248285000Y-108267500D02*
X234315000Y-108267500D01*
X234315000Y-108267500D02*
X234315000Y-94297500D01*
X277177500Y-70167500D02*
X277177500Y-56197500D01*
X277177500Y-56197500D02*
X291147500Y-56197500D01*
X291147500Y-70167500D02*
X277177500Y-70167500D01*
X291147500Y-56197500D02*
X291147500Y-70167500D01*
X191135000Y-94297500D02*
X191135000Y-108267500D01*
X191135000Y-108267500D02*
X177165000Y-108267500D01*
X177165000Y-108267500D02*
X177165000Y-94297500D01*
X177165000Y-94297500D02*
X191135000Y-94297500D01*
X171767500Y-29527500D02*
X185737500Y-29527500D01*
X185737500Y-43497500D02*
X171767500Y-43497500D01*
X171767500Y-43497500D02*
X171767500Y-29527500D01*
X185737500Y-29527500D02*
X185737500Y-43497500D01*
X317341250Y-94297500D02*
X317341250Y-108267500D01*
X303371250Y-94297500D02*
X317341250Y-94297500D01*
X317341250Y-108267500D02*
X303371250Y-108267500D01*
X303371250Y-108267500D02*
X303371250Y-94297500D01*
X91440000Y-75247500D02*
X105410000Y-75247500D01*
X105410000Y-75247500D02*
X105410000Y-89217500D01*
X105410000Y-89217500D02*
X91440000Y-89217500D01*
X91440000Y-89217500D02*
X91440000Y-75247500D01*
%LPC*%
D14*
X141605000Y-82232500D03*
X131445000Y-82232500D03*
D15*
X136525000Y-82232500D03*
D16*
X139065000Y-77152500D03*
X132715000Y-79692500D03*
D14*
X221932500Y-63182500D03*
X232092500Y-63182500D03*
D15*
X227012500Y-63182500D03*
D16*
X229552500Y-58102500D03*
X223202500Y-60642500D03*
D17*
X164190000Y-48330000D03*
D14*
X298132500Y-36512500D03*
D15*
X303212500Y-36512500D03*
D14*
X308292500Y-36512500D03*
D16*
X305752500Y-31432500D03*
X299402500Y-33972500D03*
D15*
X127000000Y-101282500D03*
D14*
X132080000Y-101282500D03*
X121920000Y-101282500D03*
D16*
X129540000Y-96202500D03*
X123190000Y-98742500D03*
D15*
X365918750Y-63182500D03*
D14*
X370998750Y-63182500D03*
X360838750Y-63182500D03*
D16*
X368458750Y-58102500D03*
X362108750Y-60642500D03*
D14*
X198755000Y-82232500D03*
X188595000Y-82232500D03*
D15*
X193675000Y-82232500D03*
D16*
X196215000Y-77152500D03*
X189865000Y-79692500D03*
D15*
X131762500Y-36512500D03*
D14*
X136842500Y-36512500D03*
X126682500Y-36512500D03*
D16*
X134302500Y-31432500D03*
X127952500Y-33972500D03*
D14*
X112395000Y-120332500D03*
X122555000Y-120332500D03*
D15*
X117475000Y-120332500D03*
D16*
X120015000Y-115252500D03*
X113665000Y-117792500D03*
D14*
X274955000Y-120332500D03*
D15*
X269875000Y-120332500D03*
D14*
X264795000Y-120332500D03*
D16*
X272415000Y-115252500D03*
X266065000Y-117792500D03*
D14*
X236855000Y-82232500D03*
X226695000Y-82232500D03*
D15*
X231775000Y-82232500D03*
D16*
X234315000Y-77152500D03*
X227965000Y-79692500D03*
D14*
X324961250Y-139382500D03*
D15*
X319881250Y-139382500D03*
D14*
X314801250Y-139382500D03*
D16*
X322421250Y-134302500D03*
X316071250Y-136842500D03*
D14*
X352107500Y-36512500D03*
X341947500Y-36512500D03*
D15*
X347027500Y-36512500D03*
D16*
X349567500Y-31432500D03*
X343217500Y-33972500D03*
D15*
X150812500Y-36512500D03*
D14*
X145732500Y-36512500D03*
X155892500Y-36512500D03*
D16*
X153352500Y-31432500D03*
X147002500Y-33972500D03*
D15*
X246062500Y-63182500D03*
D14*
X251142500Y-63182500D03*
X240982500Y-63182500D03*
D16*
X248602500Y-58102500D03*
X242252500Y-60642500D03*
D15*
X112712500Y-36512500D03*
D14*
X117792500Y-36512500D03*
X107632500Y-36512500D03*
D16*
X115252500Y-31432500D03*
X108902500Y-33972500D03*
D14*
X360838750Y-139382500D03*
D15*
X365918750Y-139382500D03*
D14*
X370998750Y-139382500D03*
D16*
X368458750Y-134302500D03*
X362108750Y-136842500D03*
D14*
X160655000Y-82232500D03*
D15*
X155575000Y-82232500D03*
D14*
X150495000Y-82232500D03*
D16*
X158115000Y-77152500D03*
X151765000Y-79692500D03*
D15*
X235902500Y-36512500D03*
D14*
X240982500Y-36512500D03*
X230822500Y-36512500D03*
D16*
X238442500Y-31432500D03*
X232092500Y-33972500D03*
D17*
X392340000Y-122430000D03*
D15*
X197802500Y-36512500D03*
D14*
X192722500Y-36512500D03*
X202882500Y-36512500D03*
D16*
X200342500Y-31432500D03*
X193992500Y-33972500D03*
D14*
X290988750Y-139382500D03*
X301148750Y-139382500D03*
D15*
X296068750Y-139382500D03*
D16*
X298608750Y-134302500D03*
X292258750Y-136842500D03*
D14*
X76676250Y-139382500D03*
D15*
X81756250Y-139382500D03*
D14*
X86836250Y-139382500D03*
D16*
X84296250Y-134302500D03*
X77946250Y-136842500D03*
D15*
X131762500Y-63182500D03*
D14*
X136842500Y-63182500D03*
X126682500Y-63182500D03*
D16*
X134302500Y-58102500D03*
X127952500Y-60642500D03*
D14*
X117792500Y-63182500D03*
D15*
X112712500Y-63182500D03*
D14*
X107632500Y-63182500D03*
D16*
X115252500Y-58102500D03*
X108902500Y-60642500D03*
D14*
X274320000Y-101282500D03*
X284480000Y-101282500D03*
D15*
X279400000Y-101282500D03*
D16*
X281940000Y-96202500D03*
X275590000Y-98742500D03*
D14*
X255905000Y-82232500D03*
X245745000Y-82232500D03*
D15*
X250825000Y-82232500D03*
D16*
X253365000Y-77152500D03*
X247015000Y-79692500D03*
D14*
X100488750Y-139382500D03*
D15*
X105568750Y-139382500D03*
D14*
X110648750Y-139382500D03*
D16*
X108108750Y-134302500D03*
X101758750Y-136842500D03*
D15*
X260350000Y-101282500D03*
D14*
X265430000Y-101282500D03*
X255270000Y-101282500D03*
D16*
X262890000Y-96202500D03*
X256540000Y-98742500D03*
D15*
X117475000Y-82232500D03*
D14*
X112395000Y-82232500D03*
X122555000Y-82232500D03*
D16*
X120015000Y-77152500D03*
X113665000Y-79692500D03*
D15*
X384968750Y-139382500D03*
D14*
X390048750Y-139382500D03*
X379888750Y-139382500D03*
D16*
X387508750Y-134302500D03*
X381158750Y-136842500D03*
D14*
X279082500Y-36512500D03*
X289242500Y-36512500D03*
D15*
X284162500Y-36512500D03*
D16*
X286702500Y-31432500D03*
X280352500Y-33972500D03*
D14*
X140970000Y-101282500D03*
X151130000Y-101282500D03*
D15*
X146050000Y-101282500D03*
D16*
X148590000Y-96202500D03*
X142240000Y-98742500D03*
D14*
X93980000Y-101282500D03*
X83820000Y-101282500D03*
D15*
X88900000Y-101282500D03*
D16*
X91440000Y-96202500D03*
X85090000Y-98742500D03*
D15*
X107950000Y-101282500D03*
D14*
X102870000Y-101282500D03*
X113030000Y-101282500D03*
D16*
X110490000Y-96202500D03*
X104140000Y-98742500D03*
D15*
X136525000Y-120332500D03*
D14*
X141605000Y-120332500D03*
X131445000Y-120332500D03*
D16*
X139065000Y-115252500D03*
X132715000Y-117792500D03*
D14*
X341788750Y-82232500D03*
X351948750Y-82232500D03*
D15*
X346868750Y-82232500D03*
D16*
X349408750Y-77152500D03*
X343058750Y-79692500D03*
D14*
X236855000Y-120332500D03*
X226695000Y-120332500D03*
D15*
X231775000Y-120332500D03*
D16*
X234315000Y-115252500D03*
X227965000Y-117792500D03*
D14*
X294005000Y-82232500D03*
X283845000Y-82232500D03*
D15*
X288925000Y-82232500D03*
D16*
X291465000Y-77152500D03*
X285115000Y-79692500D03*
D15*
X366077500Y-36512500D03*
D14*
X371157500Y-36512500D03*
X360997500Y-36512500D03*
D16*
X368617500Y-31432500D03*
X362267500Y-33972500D03*
D17*
X297740000Y-50330000D03*
D15*
X322262500Y-36512500D03*
D14*
X327342500Y-36512500D03*
X317182500Y-36512500D03*
D16*
X324802500Y-31432500D03*
X318452500Y-33972500D03*
D17*
X132390000Y-136680000D03*
D14*
X98742500Y-36512500D03*
D15*
X93662500Y-36512500D03*
D14*
X88582500Y-36512500D03*
D16*
X96202500Y-31432500D03*
X89852500Y-33972500D03*
D14*
X160020000Y-101282500D03*
X170180000Y-101282500D03*
D15*
X165100000Y-101282500D03*
D16*
X167640000Y-96202500D03*
X161290000Y-98742500D03*
D14*
X188595000Y-120332500D03*
X198755000Y-120332500D03*
D15*
X193675000Y-120332500D03*
D16*
X196215000Y-115252500D03*
X189865000Y-117792500D03*
D14*
X198120000Y-101282500D03*
X208280000Y-101282500D03*
D15*
X203200000Y-101282500D03*
D16*
X205740000Y-96202500D03*
X199390000Y-98742500D03*
D14*
X174942500Y-63182500D03*
X164782500Y-63182500D03*
D15*
X169862500Y-63182500D03*
D16*
X172402500Y-58102500D03*
X166052500Y-60642500D03*
D15*
X212725000Y-82232500D03*
D14*
X217805000Y-82232500D03*
X207645000Y-82232500D03*
D16*
X215265000Y-77152500D03*
X208915000Y-79692500D03*
D14*
X390048750Y-63182500D03*
D15*
X384968750Y-63182500D03*
D14*
X379888750Y-63182500D03*
D16*
X387508750Y-58102500D03*
X381158750Y-60642500D03*
D14*
X145732500Y-63182500D03*
X155892500Y-63182500D03*
D15*
X150812500Y-63182500D03*
D16*
X153352500Y-58102500D03*
X147002500Y-60642500D03*
D14*
X264795000Y-82232500D03*
X274955000Y-82232500D03*
D15*
X269875000Y-82232500D03*
D16*
X272415000Y-77152500D03*
X266065000Y-79692500D03*
D14*
X179705000Y-120332500D03*
X169545000Y-120332500D03*
D15*
X174625000Y-120332500D03*
D16*
X177165000Y-115252500D03*
X170815000Y-117792500D03*
D14*
X72552500Y-120352500D03*
X62392500Y-120352500D03*
D15*
X67472500Y-120352500D03*
D16*
X70012500Y-115272500D03*
X63662500Y-117812500D03*
D17*
X376240000Y-49630000D03*
D15*
X93662500Y-63182500D03*
D14*
X88582500Y-63182500D03*
X98742500Y-63182500D03*
D16*
X96202500Y-58102500D03*
X89852500Y-60642500D03*
D17*
X49590000Y-120930000D03*
D14*
X160655000Y-120332500D03*
X150495000Y-120332500D03*
D15*
X155575000Y-120332500D03*
D16*
X158115000Y-115252500D03*
X151765000Y-117792500D03*
D14*
X69532500Y-63182500D03*
D15*
X74612500Y-63182500D03*
D14*
X79692500Y-63182500D03*
D16*
X77152500Y-58102500D03*
X70802500Y-60642500D03*
D14*
X103505000Y-120332500D03*
X93345000Y-120332500D03*
D15*
X98425000Y-120332500D03*
D16*
X100965000Y-115252500D03*
X94615000Y-117792500D03*
D15*
X222250000Y-101282500D03*
D14*
X217170000Y-101282500D03*
X227330000Y-101282500D03*
D16*
X224790000Y-96202500D03*
X218440000Y-98742500D03*
D14*
X52863750Y-139382500D03*
X63023750Y-139382500D03*
D15*
X57943750Y-139382500D03*
D16*
X60483750Y-134302500D03*
X54133750Y-136842500D03*
D14*
X84455000Y-82232500D03*
D15*
X79375000Y-82232500D03*
D14*
X74295000Y-82232500D03*
D16*
X81915000Y-77152500D03*
X75565000Y-79692500D03*
D15*
X365918750Y-120332500D03*
D14*
X370998750Y-120332500D03*
X360838750Y-120332500D03*
D16*
X368458750Y-115252500D03*
X362108750Y-117792500D03*
D15*
X62706250Y-101282500D03*
D14*
X57626250Y-101282500D03*
X67786250Y-101282500D03*
D16*
X65246250Y-96202500D03*
X58896250Y-98742500D03*
D15*
X315118750Y-82232500D03*
D14*
X310038750Y-82232500D03*
X320198750Y-82232500D03*
D16*
X317658750Y-77152500D03*
X311308750Y-79692500D03*
D14*
X270192500Y-36512500D03*
D15*
X265112500Y-36512500D03*
D14*
X260032500Y-36512500D03*
D16*
X267652500Y-31432500D03*
X261302500Y-33972500D03*
D14*
X50482500Y-36512500D03*
X60642500Y-36512500D03*
D15*
X55562500Y-36512500D03*
D16*
X58102500Y-31432500D03*
X51752500Y-33972500D03*
D14*
X360838750Y-82232500D03*
X370998750Y-82232500D03*
D15*
X365918750Y-82232500D03*
D16*
X368458750Y-77152500D03*
X362108750Y-79692500D03*
D14*
X171945300Y-139367300D03*
X182105300Y-139367300D03*
D15*
X177025300Y-139367300D03*
D16*
X179565300Y-134287300D03*
X173215300Y-136827300D03*
D15*
X174625000Y-82232500D03*
D14*
X179705000Y-82232500D03*
X169545000Y-82232500D03*
D16*
X177165000Y-77152500D03*
X170815000Y-79692500D03*
D15*
X384968750Y-82232500D03*
D14*
X390048750Y-82232500D03*
X379888750Y-82232500D03*
D16*
X387508750Y-77152500D03*
X381158750Y-79692500D03*
D14*
X217805000Y-120332500D03*
X207645000Y-120332500D03*
D15*
X212725000Y-120332500D03*
D16*
X215265000Y-115252500D03*
X208915000Y-117792500D03*
D15*
X188912500Y-63182500D03*
D14*
X193992500Y-63182500D03*
X183832500Y-63182500D03*
D16*
X191452500Y-58102500D03*
X185102500Y-60642500D03*
D14*
X351948750Y-139382500D03*
X341788750Y-139382500D03*
D15*
X346868750Y-139382500D03*
D16*
X349408750Y-134302500D03*
X343058750Y-136842500D03*
D15*
X207962500Y-63182500D03*
D14*
X202882500Y-63182500D03*
X213042500Y-63182500D03*
D16*
X210502500Y-58102500D03*
X204152500Y-60642500D03*
D14*
X63023750Y-82232500D03*
X52863750Y-82232500D03*
D15*
X57943750Y-82232500D03*
D16*
X60483750Y-77152500D03*
X54133750Y-79692500D03*
D14*
X211772500Y-36512500D03*
X221932500Y-36512500D03*
D15*
X216852500Y-36512500D03*
D16*
X219392500Y-31432500D03*
X213042500Y-33972500D03*
D17*
X250590000Y-26080000D03*
D14*
X243363750Y-139382500D03*
X253523750Y-139382500D03*
D15*
X248443750Y-139382500D03*
D16*
X250983750Y-134302500D03*
X244633750Y-136842500D03*
D15*
X305593750Y-120332500D03*
D14*
X300513750Y-120332500D03*
X310673750Y-120332500D03*
D16*
X308133750Y-115252500D03*
X301783750Y-117792500D03*
D17*
X294890000Y-100730000D03*
D14*
X270192500Y-63182500D03*
D15*
X265112500Y-63182500D03*
D14*
X260032500Y-63182500D03*
D16*
X267652500Y-58102500D03*
X261302500Y-60642500D03*
D17*
X74690000Y-27780000D03*
D14*
X307632100Y-63192700D03*
D15*
X312712100Y-63192700D03*
D14*
X317792100Y-63192700D03*
D16*
X315252100Y-58112700D03*
X308902100Y-60652700D03*
D14*
X380047500Y-36512500D03*
D15*
X385127500Y-36512500D03*
D14*
X390207500Y-36512500D03*
D16*
X387667500Y-31432500D03*
X381317500Y-33972500D03*
D14*
X50482500Y-63182500D03*
X60642500Y-63182500D03*
D15*
X55562500Y-63182500D03*
D16*
X58102500Y-58102500D03*
X51752500Y-60642500D03*
D14*
X277332500Y-139392500D03*
X267172500Y-139392500D03*
D15*
X272252500Y-139392500D03*
D16*
X274792500Y-134312500D03*
X268442500Y-136852500D03*
D15*
X346868750Y-63182500D03*
D14*
X341788750Y-63182500D03*
X351948750Y-63182500D03*
D16*
X349408750Y-58102500D03*
X343058750Y-60642500D03*
D15*
X250825000Y-120332500D03*
D14*
X245745000Y-120332500D03*
X255905000Y-120332500D03*
D16*
X253365000Y-115252500D03*
X247015000Y-117792500D03*
D17*
X219290000Y-137580000D03*
D14*
X236220000Y-101282500D03*
X246380000Y-101282500D03*
D15*
X241300000Y-101282500D03*
D16*
X243840000Y-96202500D03*
X237490000Y-98742500D03*
D15*
X284162500Y-63182500D03*
D14*
X279082500Y-63182500D03*
X289242500Y-63182500D03*
D16*
X286702500Y-58102500D03*
X280352500Y-60642500D03*
D15*
X184150000Y-101282500D03*
D14*
X179070000Y-101282500D03*
X189230000Y-101282500D03*
D16*
X186690000Y-96202500D03*
X180340000Y-98742500D03*
D14*
X183832500Y-36512500D03*
X173672500Y-36512500D03*
D15*
X178752500Y-36512500D03*
D16*
X181292500Y-31432500D03*
X174942500Y-33972500D03*
D14*
X315436250Y-101282500D03*
D15*
X310356250Y-101282500D03*
D14*
X305276250Y-101282500D03*
D16*
X312896250Y-96202500D03*
X306546250Y-98742500D03*
D15*
X98425000Y-82232500D03*
D14*
X103505000Y-82232500D03*
X93345000Y-82232500D03*
D16*
X100965000Y-77152500D03*
X94615000Y-79692500D03*
D18*
X331437500Y-24095000D03*
X337217500Y-24095000D03*
D19*
X330007500Y-20445000D03*
X338647500Y-20445000D03*
D20*
X330007500Y-24625000D03*
X338647500Y-24625000D03*
M02*
