%TF.GenerationSoftware,KiCad,Pcbnew,(6.0.10)*%
%TF.CreationDate,2023-01-01T01:58:15-05:00*%
%TF.ProjectId,2ndKeyboard,326e644b-6579-4626-9f61-72642e6b6963,rev?*%
%TF.SameCoordinates,Original*%
%TF.FileFunction,Drillmap*%
%TF.FilePolarity,Positive*%
%FSLAX45Y45*%
G04 Gerber Fmt 4.5, Leading zero omitted, Abs format (unit mm)*
G04 Created by KiCad (PCBNEW (6.0.10)) date 2023-01-01 01:58:15*
%MOMM*%
%LPD*%
G01*
G04 APERTURE LIST*
%ADD10C,0.100000*%
%ADD11C,0.200000*%
%ADD12C,0.040000*%
%ADD13C,0.060000*%
%ADD14C,0.150000*%
G04 APERTURE END LIST*
D10*
X4143375Y-2174875D02*
X32718375Y-2174875D01*
X3984625Y-2333625D02*
X3984625Y-15271750D01*
X32718375Y-2174875D02*
G75*
G03*
X32877125Y-2016125I-5J158755D01*
G01*
X32877125Y-2016125D02*
X32877125Y-1778000D01*
X4143375Y-2174875D02*
G75*
G03*
X3984625Y-2333625I9J-158759D01*
G01*
X32877125Y-1778000D02*
X33988375Y-1778000D01*
X39941500Y-15430500D02*
G75*
G03*
X40100250Y-15271750I0J158750D01*
G01*
X3984630Y-15271750D02*
G75*
G03*
X4143375Y-15430500I158750J0D01*
G01*
X33988375Y-1778000D02*
X33988375Y-2016125D01*
X40100250Y-2333625D02*
X40100250Y-15271750D01*
X4143375Y-15430500D02*
X39941500Y-15430500D01*
X40100255Y-2333625D02*
G75*
G03*
X39941500Y-2174875I-158755J-5D01*
G01*
X34147125Y-2174875D02*
X39941500Y-2174875D01*
X33988375Y-2016125D02*
G75*
G03*
X34147125Y-2174875I158745J-5D01*
G01*
D11*
D12*
X6504625Y-11132625D02*
X6544625Y-11172625D01*
X6544625Y-11132625D02*
X6504625Y-11172625D01*
X7674250Y-10814250D02*
X7714250Y-10854250D01*
X7714250Y-10814250D02*
X7674250Y-10854250D01*
X9734125Y-11162875D02*
X9774125Y-11202875D01*
X9774125Y-11162875D02*
X9734125Y-11202875D01*
X11981500Y-11017500D02*
X12021500Y-11057500D01*
X12021500Y-11017500D02*
X11981500Y-11057500D01*
X13593625Y-11212375D02*
X13633625Y-11252375D01*
X13633625Y-11212375D02*
X13593625Y-11252375D01*
X15791500Y-11223500D02*
X15831500Y-11263500D01*
X15831500Y-11223500D02*
X15791500Y-11263500D01*
X17412625Y-11221375D02*
X17452625Y-11261375D01*
X17452625Y-11221375D02*
X17412625Y-11261375D01*
X19601500Y-11247500D02*
X19641500Y-11287500D01*
X19641500Y-11247500D02*
X19601500Y-11287500D01*
X21236625Y-11235375D02*
X21276625Y-11275375D01*
X21276625Y-11235375D02*
X21236625Y-11275375D01*
X22967125Y-9092125D02*
X23007125Y-9132125D01*
X23007125Y-9092125D02*
X22967125Y-9132125D01*
X25002625Y-8961625D02*
X25042625Y-9001625D01*
X25042625Y-8961625D02*
X25002625Y-9001625D01*
X26668625Y-9200625D02*
X26708625Y-9240625D01*
X26708625Y-9200625D02*
X26668625Y-9240625D01*
X28631125Y-9143125D02*
X28671125Y-9183125D01*
X28671125Y-9143125D02*
X28631125Y-9183125D01*
X30846687Y-9177313D02*
X30886687Y-9217313D01*
X30886687Y-9177313D02*
X30846687Y-9217313D01*
X31745875Y-9343875D02*
X31785875Y-9383875D01*
X31785875Y-9343875D02*
X31745875Y-9383875D01*
X32588000Y-11307000D02*
X32628000Y-11347000D01*
X32628000Y-11307000D02*
X32588000Y-11347000D01*
X32708000Y-10781000D02*
X32748000Y-10821000D01*
X32748000Y-10781000D02*
X32708000Y-10821000D01*
X32847000Y-6882000D02*
X32887000Y-6922000D01*
X32887000Y-6882000D02*
X32847000Y-6922000D01*
X32872000Y-8795000D02*
X32912000Y-8835000D01*
X32912000Y-8795000D02*
X32872000Y-8835000D01*
X32880000Y-4406000D02*
X32920000Y-4446000D01*
X32920000Y-4406000D02*
X32880000Y-4446000D01*
X32903000Y-9111000D02*
X32943000Y-9151000D01*
X32943000Y-9111000D02*
X32903000Y-9151000D01*
X33084000Y-9766125D02*
X33124000Y-9806125D01*
X33124000Y-9766125D02*
X33084000Y-9806125D01*
X33160880Y-2634880D02*
X33200880Y-2674880D01*
X33200880Y-2634880D02*
X33160880Y-2674880D01*
X33270263Y-10090187D02*
X33310263Y-10130187D01*
X33310263Y-10090187D02*
X33270263Y-10130187D01*
X33610000Y-4414000D02*
X33650000Y-4454000D01*
X33650000Y-4414000D02*
X33610000Y-4454000D01*
X33660200Y-2624000D02*
X33700200Y-2664000D01*
X33700200Y-2624000D02*
X33660200Y-2664000D01*
X33789125Y-6916125D02*
X33829125Y-6956125D01*
X33829125Y-6916125D02*
X33789125Y-6956125D01*
X33819000Y-10069000D02*
X33859000Y-10109000D01*
X33859000Y-10069000D02*
X33819000Y-10109000D01*
X33823000Y-8810000D02*
X33863000Y-8850000D01*
X33863000Y-8810000D02*
X33823000Y-8850000D01*
X33851000Y-9111000D02*
X33891000Y-9151000D01*
X33891000Y-9111000D02*
X33851000Y-9151000D01*
X34112000Y-11840000D02*
X34152000Y-11880000D01*
X34152000Y-11840000D02*
X34112000Y-11880000D01*
X34467000Y-10403000D02*
X34507000Y-10443000D01*
X34507000Y-10403000D02*
X34467000Y-10443000D01*
X34498230Y-9871230D02*
X34538230Y-9911230D01*
X34538230Y-9871230D02*
X34498230Y-9911230D01*
X34551000Y-11485000D02*
X34591000Y-11525000D01*
X34591000Y-11485000D02*
X34551000Y-11525000D01*
X34697000Y-10737000D02*
X34737000Y-10777000D01*
X34737000Y-10737000D02*
X34697000Y-10777000D01*
X34699248Y-11326752D02*
X34739248Y-11366752D01*
X34739248Y-11326752D02*
X34699248Y-11366752D01*
X34747000Y-12681000D02*
X34787000Y-12721000D01*
X34787000Y-12681000D02*
X34747000Y-12721000D01*
X34747000Y-12896000D02*
X34787000Y-12936000D01*
X34787000Y-12896000D02*
X34747000Y-12936000D01*
X34791000Y-9965000D02*
X34831000Y-10005000D01*
X34831000Y-9965000D02*
X34791000Y-10005000D01*
X35057000Y-11512000D02*
X35097000Y-11552000D01*
X35097000Y-11512000D02*
X35057000Y-11552000D01*
X35202000Y-9250550D02*
X35242000Y-9290550D01*
X35242000Y-9250550D02*
X35202000Y-9290550D01*
X35202000Y-9571000D02*
X35242000Y-9611000D01*
X35242000Y-9571000D02*
X35202000Y-9611000D01*
X35722000Y-10649000D02*
X35762000Y-10689000D01*
X35762000Y-10649000D02*
X35722000Y-10689000D01*
X35722000Y-10967000D02*
X35762000Y-11007000D01*
X35762000Y-10967000D02*
X35722000Y-11007000D01*
X37025000Y-11112000D02*
X37065000Y-11152000D01*
X37065000Y-11112000D02*
X37025000Y-11152000D01*
D13*
X33030750Y-1897000D02*
G75*
G03*
X33030750Y-1897000I-30000J0D01*
G01*
D11*
X32970750Y-1867000D02*
X32970750Y-1927000D01*
X33030750Y-1867000D02*
X33030750Y-1927000D01*
X32970750Y-1927000D02*
G75*
G03*
X33030750Y-1927000I30000J0D01*
G01*
X33030750Y-1867000D02*
G75*
G03*
X32970750Y-1867000I-30000J0D01*
G01*
D13*
X33030750Y-2315000D02*
G75*
G03*
X33030750Y-2315000I-30000J0D01*
G01*
D11*
X32970750Y-2260000D02*
X32970750Y-2370000D01*
X33030750Y-2260000D02*
X33030750Y-2370000D01*
X32970750Y-2370000D02*
G75*
G03*
X33030750Y-2370000I30000J0D01*
G01*
X33030750Y-2260000D02*
G75*
G03*
X32970750Y-2260000I-30000J0D01*
G01*
D13*
X33894750Y-1897000D02*
G75*
G03*
X33894750Y-1897000I-30000J0D01*
G01*
D11*
X33834750Y-1867000D02*
X33834750Y-1927000D01*
X33894750Y-1867000D02*
X33894750Y-1927000D01*
X33834750Y-1927000D02*
G75*
G03*
X33894750Y-1927000I30000J0D01*
G01*
X33894750Y-1867000D02*
G75*
G03*
X33834750Y-1867000I-30000J0D01*
G01*
D13*
X33894750Y-2315000D02*
G75*
G03*
X33894750Y-2315000I-30000J0D01*
G01*
D11*
X33834750Y-2260000D02*
X33834750Y-2370000D01*
X33894750Y-2260000D02*
X33894750Y-2370000D01*
X33834750Y-2370000D02*
G75*
G03*
X33894750Y-2370000I30000J0D01*
G01*
X33894750Y-2260000D02*
G75*
G03*
X33834750Y-2260000I-30000J0D01*
G01*
D10*
X34689000Y-9293000D02*
X34689000Y-9393000D01*
X34639000Y-9343000D02*
X34739000Y-9343000D01*
X34689000Y-9547000D02*
X34689000Y-9647000D01*
X34639000Y-9597000D02*
X34739000Y-9597000D01*
X34689000Y-9801000D02*
X34689000Y-9901000D01*
X34639000Y-9851000D02*
X34739000Y-9851000D01*
X34943000Y-9293000D02*
X34943000Y-9393000D01*
X34893000Y-9343000D02*
X34993000Y-9343000D01*
X34943000Y-9547000D02*
X34943000Y-9647000D01*
X34893000Y-9597000D02*
X34993000Y-9597000D01*
X34943000Y-9801000D02*
X34943000Y-9901000D01*
X34893000Y-9851000D02*
X34993000Y-9851000D01*
D14*
X5228284Y-3450283D02*
X5228284Y-3344216D01*
X5122217Y-3344216D01*
X5122217Y-3450283D01*
X5228284Y-3450283D01*
X5228284Y-6117283D02*
X5228284Y-6011216D01*
X5122217Y-6011216D01*
X5122217Y-6117283D01*
X5228284Y-6117283D01*
X5466409Y-8022283D02*
X5466409Y-7916216D01*
X5360342Y-7916216D01*
X5360342Y-8022283D01*
X5466409Y-8022283D01*
X5466409Y-13737283D02*
X5466409Y-13631216D01*
X5360342Y-13631216D01*
X5360342Y-13737283D01*
X5466409Y-13737283D01*
X5863283Y-3196283D02*
X5863283Y-3090216D01*
X5757216Y-3090216D01*
X5757216Y-3196283D01*
X5863283Y-3196283D01*
X5863283Y-5863283D02*
X5863283Y-5757216D01*
X5757216Y-5757216D01*
X5757216Y-5863283D01*
X5863283Y-5863283D01*
X5942658Y-9927284D02*
X5942658Y-9821217D01*
X5836591Y-9821217D01*
X5836591Y-9927284D01*
X5942658Y-9927284D01*
X6101408Y-7768283D02*
X6101408Y-7662216D01*
X5995341Y-7662216D01*
X5995341Y-7768283D01*
X6101408Y-7768283D01*
X6101408Y-13483283D02*
X6101408Y-13377216D01*
X5995341Y-13377216D01*
X5995341Y-13483283D01*
X6101408Y-13483283D01*
X6419283Y-11834283D02*
X6419283Y-11728216D01*
X6313216Y-11728216D01*
X6313216Y-11834283D01*
X6419283Y-11834283D01*
X6577658Y-9673284D02*
X6577658Y-9567217D01*
X6471591Y-9567217D01*
X6471591Y-9673284D01*
X6577658Y-9673284D01*
X7054283Y-11580283D02*
X7054283Y-11474216D01*
X6948216Y-11474216D01*
X6948216Y-11580283D01*
X7054283Y-11580283D01*
X7133283Y-6117283D02*
X7133283Y-6011216D01*
X7027216Y-6011216D01*
X7027216Y-6117283D01*
X7133283Y-6117283D01*
X7609533Y-8022283D02*
X7609533Y-7916216D01*
X7503466Y-7916216D01*
X7503466Y-8022283D01*
X7609533Y-8022283D01*
X7768283Y-5863283D02*
X7768283Y-5757216D01*
X7662216Y-5757216D01*
X7662216Y-5863283D01*
X7768283Y-5863283D01*
X7847658Y-13737283D02*
X7847658Y-13631216D01*
X7741591Y-13631216D01*
X7741591Y-13737283D01*
X7847658Y-13737283D01*
X8244533Y-7768283D02*
X8244533Y-7662216D01*
X8138466Y-7662216D01*
X8138466Y-7768283D01*
X8244533Y-7768283D01*
X8482659Y-13483283D02*
X8482659Y-13377216D01*
X8376591Y-13377216D01*
X8376591Y-13483283D01*
X8482659Y-13483283D01*
X8562034Y-9927284D02*
X8562034Y-9821217D01*
X8455967Y-9821217D01*
X8455967Y-9927284D01*
X8562034Y-9927284D01*
X9038284Y-3450283D02*
X9038284Y-3344216D01*
X8932217Y-3344216D01*
X8932217Y-3450283D01*
X9038284Y-3450283D01*
X9038284Y-6117283D02*
X9038284Y-6011216D01*
X8932217Y-6011216D01*
X8932217Y-6117283D01*
X9038284Y-6117283D01*
X9197034Y-9673284D02*
X9197034Y-9567217D01*
X9090967Y-9567217D01*
X9090967Y-9673284D01*
X9197034Y-9673284D01*
X9514534Y-8022283D02*
X9514534Y-7916216D01*
X9408467Y-7916216D01*
X9408467Y-8022283D01*
X9514534Y-8022283D01*
X9514534Y-11832283D02*
X9514534Y-11726216D01*
X9408467Y-11726216D01*
X9408467Y-11832283D01*
X9514534Y-11832283D01*
X9673284Y-3196283D02*
X9673284Y-3090216D01*
X9567217Y-3090216D01*
X9567217Y-3196283D01*
X9673284Y-3196283D01*
X9673284Y-5863283D02*
X9673284Y-5757216D01*
X9567217Y-5757216D01*
X9567217Y-5863283D01*
X9673284Y-5863283D01*
X10149534Y-7768283D02*
X10149534Y-7662216D01*
X10043467Y-7662216D01*
X10043467Y-7768283D01*
X10149534Y-7768283D01*
X10149534Y-11578283D02*
X10149534Y-11472216D01*
X10043467Y-11472216D01*
X10043467Y-11578283D01*
X10149534Y-11578283D01*
X10228909Y-13737283D02*
X10228909Y-13631216D01*
X10122842Y-13631216D01*
X10122842Y-13737283D01*
X10228909Y-13737283D01*
X10467034Y-9927284D02*
X10467034Y-9821217D01*
X10360967Y-9821217D01*
X10360967Y-9927284D01*
X10467034Y-9927284D01*
X10863909Y-13483283D02*
X10863909Y-13377216D01*
X10757842Y-13377216D01*
X10757842Y-13483283D01*
X10863909Y-13483283D01*
X10943284Y-3450283D02*
X10943284Y-3344216D01*
X10837217Y-3344216D01*
X10837217Y-3450283D01*
X10943284Y-3450283D01*
X10943284Y-6117283D02*
X10943284Y-6011216D01*
X10837217Y-6011216D01*
X10837217Y-6117283D01*
X10943284Y-6117283D01*
X11102034Y-9673284D02*
X11102034Y-9567217D01*
X10995967Y-9567217D01*
X10995967Y-9673284D01*
X11102034Y-9673284D01*
X11419533Y-8022283D02*
X11419533Y-7916216D01*
X11313466Y-7916216D01*
X11313466Y-8022283D01*
X11419533Y-8022283D01*
X11419533Y-11832283D02*
X11419533Y-11726216D01*
X11313466Y-11726216D01*
X11313466Y-11832283D01*
X11419533Y-11832283D01*
X11578283Y-3196283D02*
X11578283Y-3090216D01*
X11472216Y-3090216D01*
X11472216Y-3196283D01*
X11578283Y-3196283D01*
X11578283Y-5863283D02*
X11578283Y-5757216D01*
X11472216Y-5757216D01*
X11472216Y-5863283D01*
X11578283Y-5863283D01*
X12054533Y-7768283D02*
X12054533Y-7662216D01*
X11948466Y-7662216D01*
X11948466Y-7768283D01*
X12054533Y-7768283D01*
X12054533Y-11578283D02*
X12054533Y-11472216D01*
X11948466Y-11472216D01*
X11948466Y-11578283D01*
X12054533Y-11578283D01*
X12372033Y-9927284D02*
X12372033Y-9821217D01*
X12265966Y-9821217D01*
X12265966Y-9927284D01*
X12372033Y-9927284D01*
X12848283Y-3450283D02*
X12848283Y-3344216D01*
X12742216Y-3344216D01*
X12742216Y-3450283D01*
X12848283Y-3450283D01*
X12848283Y-6117283D02*
X12848283Y-6011216D01*
X12742216Y-6011216D01*
X12742216Y-6117283D01*
X12848283Y-6117283D01*
X13007033Y-9673284D02*
X13007033Y-9567217D01*
X12900966Y-9567217D01*
X12900966Y-9673284D01*
X13007033Y-9673284D01*
X13324533Y-8022283D02*
X13324533Y-7916216D01*
X13218466Y-7916216D01*
X13218466Y-8022283D01*
X13324533Y-8022283D01*
X13324533Y-11832283D02*
X13324533Y-11726216D01*
X13218466Y-11726216D01*
X13218466Y-11832283D01*
X13324533Y-11832283D01*
X13483283Y-3196283D02*
X13483283Y-3090216D01*
X13377216Y-3090216D01*
X13377216Y-3196283D01*
X13483283Y-3196283D01*
X13483283Y-5863283D02*
X13483283Y-5757216D01*
X13377216Y-5757216D01*
X13377216Y-5863283D01*
X13483283Y-5863283D01*
X13959533Y-7768283D02*
X13959533Y-7662216D01*
X13853466Y-7662216D01*
X13853466Y-7768283D01*
X13959533Y-7768283D01*
X13959533Y-11578283D02*
X13959533Y-11472216D01*
X13853466Y-11472216D01*
X13853466Y-11578283D01*
X13959533Y-11578283D01*
X14277033Y-9927284D02*
X14277033Y-9821217D01*
X14170966Y-9821217D01*
X14170966Y-9927284D01*
X14277033Y-9927284D01*
X14753283Y-3450283D02*
X14753283Y-3344216D01*
X14647216Y-3344216D01*
X14647216Y-3450283D01*
X14753283Y-3450283D01*
X14753283Y-6117283D02*
X14753283Y-6011216D01*
X14647216Y-6011216D01*
X14647216Y-6117283D01*
X14753283Y-6117283D01*
X14912033Y-9673284D02*
X14912033Y-9567217D01*
X14805966Y-9567217D01*
X14805966Y-9673284D01*
X14912033Y-9673284D01*
X15229533Y-8022283D02*
X15229533Y-7916216D01*
X15123466Y-7916216D01*
X15123466Y-8022283D01*
X15229533Y-8022283D01*
X15229533Y-11832283D02*
X15229533Y-11726216D01*
X15123466Y-11726216D01*
X15123466Y-11832283D01*
X15229533Y-11832283D01*
X15388283Y-3196283D02*
X15388283Y-3090216D01*
X15282216Y-3090216D01*
X15282216Y-3196283D01*
X15388283Y-3196283D01*
X15388283Y-5863283D02*
X15388283Y-5757216D01*
X15282216Y-5757216D01*
X15282216Y-5863283D01*
X15388283Y-5863283D01*
X15864533Y-7768283D02*
X15864533Y-7662216D01*
X15758466Y-7662216D01*
X15758466Y-7768283D01*
X15864533Y-7768283D01*
X15864533Y-11578283D02*
X15864533Y-11472216D01*
X15758466Y-11472216D01*
X15758466Y-11578283D01*
X15864533Y-11578283D01*
X16182033Y-9927284D02*
X16182033Y-9821217D01*
X16075966Y-9821217D01*
X16075966Y-9927284D01*
X16182033Y-9927284D01*
X16658283Y-6117283D02*
X16658283Y-6011216D01*
X16552216Y-6011216D01*
X16552216Y-6117283D01*
X16658283Y-6117283D01*
X16817034Y-9673284D02*
X16817034Y-9567217D01*
X16710966Y-9567217D01*
X16710966Y-9673284D01*
X16817034Y-9673284D01*
X17134534Y-8022283D02*
X17134534Y-7916216D01*
X17028467Y-7916216D01*
X17028467Y-8022283D01*
X17134534Y-8022283D01*
X17134534Y-11832283D02*
X17134534Y-11726216D01*
X17028467Y-11726216D01*
X17028467Y-11832283D01*
X17134534Y-11832283D01*
X17293284Y-5863283D02*
X17293284Y-5757216D01*
X17187217Y-5757216D01*
X17187217Y-5863283D01*
X17293284Y-5863283D01*
X17374564Y-13735763D02*
X17374564Y-13629696D01*
X17268497Y-13629696D01*
X17268497Y-13735763D01*
X17374564Y-13735763D01*
X17547284Y-3450283D02*
X17547284Y-3344216D01*
X17441217Y-3344216D01*
X17441217Y-3450283D01*
X17547284Y-3450283D01*
X17769534Y-7768283D02*
X17769534Y-7662216D01*
X17663467Y-7662216D01*
X17663467Y-7768283D01*
X17769534Y-7768283D01*
X17769534Y-11578283D02*
X17769534Y-11472216D01*
X17663467Y-11472216D01*
X17663467Y-11578283D01*
X17769534Y-11578283D01*
X18009564Y-13481763D02*
X18009564Y-13375696D01*
X17903497Y-13375696D01*
X17903497Y-13481763D01*
X18009564Y-13481763D01*
X18087034Y-9927284D02*
X18087034Y-9821217D01*
X17980967Y-9821217D01*
X17980967Y-9927284D01*
X18087034Y-9927284D01*
X18182284Y-3196283D02*
X18182284Y-3090216D01*
X18076217Y-3090216D01*
X18076217Y-3196283D01*
X18182284Y-3196283D01*
X18563284Y-6117283D02*
X18563284Y-6011216D01*
X18457217Y-6011216D01*
X18457217Y-6117283D01*
X18563284Y-6117283D01*
X18722034Y-9673284D02*
X18722034Y-9567217D01*
X18615967Y-9567217D01*
X18615967Y-9673284D01*
X18722034Y-9673284D01*
X19039534Y-8022283D02*
X19039534Y-7916216D01*
X18933467Y-7916216D01*
X18933467Y-8022283D01*
X19039534Y-8022283D01*
X19039534Y-11832283D02*
X19039534Y-11726216D01*
X18933467Y-11726216D01*
X18933467Y-11832283D01*
X19039534Y-11832283D01*
X19198284Y-5863283D02*
X19198284Y-5757216D01*
X19092217Y-5757216D01*
X19092217Y-5863283D01*
X19198284Y-5863283D01*
X19452284Y-3450283D02*
X19452284Y-3344216D01*
X19346217Y-3344216D01*
X19346217Y-3450283D01*
X19452284Y-3450283D01*
X19674534Y-7768283D02*
X19674534Y-7662216D01*
X19568467Y-7662216D01*
X19568467Y-7768283D01*
X19674534Y-7768283D01*
X19674534Y-11578283D02*
X19674534Y-11472216D01*
X19568467Y-11472216D01*
X19568467Y-11578283D01*
X19674534Y-11578283D01*
X19992034Y-9927284D02*
X19992034Y-9821217D01*
X19885967Y-9821217D01*
X19885967Y-9927284D01*
X19992034Y-9927284D01*
X20087284Y-3196283D02*
X20087284Y-3090216D01*
X19981217Y-3090216D01*
X19981217Y-3196283D01*
X20087284Y-3196283D01*
X20468284Y-6117283D02*
X20468284Y-6011216D01*
X20362217Y-6011216D01*
X20362217Y-6117283D01*
X20468284Y-6117283D01*
X20627034Y-9673284D02*
X20627034Y-9567217D01*
X20520967Y-9567217D01*
X20520967Y-9673284D01*
X20627034Y-9673284D01*
X20944534Y-8022283D02*
X20944534Y-7916216D01*
X20838467Y-7916216D01*
X20838467Y-8022283D01*
X20944534Y-8022283D01*
X20944534Y-11832283D02*
X20944534Y-11726216D01*
X20838467Y-11726216D01*
X20838467Y-11832283D01*
X20944534Y-11832283D01*
X21103284Y-5863283D02*
X21103284Y-5757216D01*
X20997217Y-5757216D01*
X20997217Y-5863283D01*
X21103284Y-5863283D01*
X21357284Y-3450283D02*
X21357284Y-3344216D01*
X21251217Y-3344216D01*
X21251217Y-3450283D01*
X21357284Y-3450283D01*
X21579534Y-7768283D02*
X21579534Y-7662216D01*
X21473467Y-7662216D01*
X21473467Y-7768283D01*
X21579534Y-7768283D01*
X21579534Y-11578283D02*
X21579534Y-11472216D01*
X21473467Y-11472216D01*
X21473467Y-11578283D01*
X21579534Y-11578283D01*
X21897034Y-9927284D02*
X21897034Y-9821217D01*
X21790967Y-9821217D01*
X21790967Y-9927284D01*
X21897034Y-9927284D01*
X21992284Y-3196283D02*
X21992284Y-3090216D01*
X21886217Y-3090216D01*
X21886217Y-3196283D01*
X21992284Y-3196283D01*
X22373283Y-6117283D02*
X22373283Y-6011216D01*
X22267217Y-6011216D01*
X22267217Y-6117283D01*
X22373283Y-6117283D01*
X22532033Y-9673284D02*
X22532033Y-9567217D01*
X22425966Y-9567217D01*
X22425966Y-9673284D01*
X22532033Y-9673284D01*
X22849533Y-8022283D02*
X22849533Y-7916216D01*
X22743466Y-7916216D01*
X22743466Y-8022283D01*
X22849533Y-8022283D01*
X22849533Y-11832283D02*
X22849533Y-11726216D01*
X22743466Y-11726216D01*
X22743466Y-11832283D01*
X22849533Y-11832283D01*
X23008283Y-5863283D02*
X23008283Y-5757216D01*
X22902216Y-5757216D01*
X22902216Y-5863283D01*
X23008283Y-5863283D01*
X23262283Y-3450283D02*
X23262283Y-3344216D01*
X23156216Y-3344216D01*
X23156216Y-3450283D01*
X23262283Y-3450283D01*
X23484533Y-7768283D02*
X23484533Y-7662216D01*
X23378466Y-7662216D01*
X23378466Y-7768283D01*
X23484533Y-7768283D01*
X23484533Y-11578283D02*
X23484533Y-11472216D01*
X23378466Y-11472216D01*
X23378466Y-11578283D01*
X23484533Y-11578283D01*
X23802033Y-9927284D02*
X23802033Y-9821217D01*
X23695966Y-9821217D01*
X23695966Y-9927284D01*
X23802033Y-9927284D01*
X23897283Y-3196283D02*
X23897283Y-3090216D01*
X23791216Y-3090216D01*
X23791216Y-3196283D01*
X23897283Y-3196283D01*
X24278283Y-6117283D02*
X24278283Y-6011216D01*
X24172216Y-6011216D01*
X24172216Y-6117283D01*
X24278283Y-6117283D01*
X24437033Y-9673284D02*
X24437033Y-9567217D01*
X24330966Y-9567217D01*
X24330966Y-9673284D01*
X24437033Y-9673284D01*
X24516408Y-13737283D02*
X24516408Y-13631216D01*
X24410341Y-13631216D01*
X24410341Y-13737283D01*
X24516408Y-13737283D01*
X24754533Y-8022283D02*
X24754533Y-7916216D01*
X24648466Y-7916216D01*
X24648466Y-8022283D01*
X24754533Y-8022283D01*
X24754533Y-11832283D02*
X24754533Y-11726216D01*
X24648466Y-11726216D01*
X24648466Y-11832283D01*
X24754533Y-11832283D01*
X24913283Y-5863283D02*
X24913283Y-5757216D01*
X24807216Y-5757216D01*
X24807216Y-5863283D01*
X24913283Y-5863283D01*
X25151408Y-13483283D02*
X25151408Y-13377216D01*
X25045341Y-13377216D01*
X25045341Y-13483283D01*
X25151408Y-13483283D01*
X25389533Y-7768283D02*
X25389533Y-7662216D01*
X25283466Y-7662216D01*
X25283466Y-7768283D01*
X25389533Y-7768283D01*
X25389533Y-11578283D02*
X25389533Y-11472216D01*
X25283466Y-11472216D01*
X25283466Y-11578283D01*
X25389533Y-11578283D01*
X25707033Y-9927284D02*
X25707033Y-9821217D01*
X25600966Y-9821217D01*
X25600966Y-9927284D01*
X25707033Y-9927284D01*
X26183283Y-3450283D02*
X26183283Y-3344216D01*
X26077216Y-3344216D01*
X26077216Y-3450283D01*
X26183283Y-3450283D01*
X26183283Y-6117283D02*
X26183283Y-6011216D01*
X26077216Y-6011216D01*
X26077216Y-6117283D01*
X26183283Y-6117283D01*
X26342033Y-9673284D02*
X26342033Y-9567217D01*
X26235966Y-9567217D01*
X26235966Y-9673284D01*
X26342033Y-9673284D01*
X26659533Y-8022283D02*
X26659533Y-7916216D01*
X26553466Y-7916216D01*
X26553466Y-8022283D01*
X26659533Y-8022283D01*
X26659533Y-11832283D02*
X26659533Y-11726216D01*
X26553466Y-11726216D01*
X26553466Y-11832283D01*
X26659533Y-11832283D01*
X26818283Y-3196283D02*
X26818283Y-3090216D01*
X26712216Y-3090216D01*
X26712216Y-3196283D01*
X26818283Y-3196283D01*
X26818283Y-5863283D02*
X26818283Y-5757216D01*
X26712216Y-5757216D01*
X26712216Y-5863283D01*
X26818283Y-5863283D01*
X26897283Y-13738283D02*
X26897283Y-13632216D01*
X26791216Y-13632216D01*
X26791216Y-13738283D01*
X26897283Y-13738283D01*
X27294533Y-7768283D02*
X27294533Y-7662216D01*
X27188466Y-7662216D01*
X27188466Y-7768283D01*
X27294533Y-7768283D01*
X27294533Y-11578283D02*
X27294533Y-11472216D01*
X27188466Y-11472216D01*
X27188466Y-11578283D01*
X27294533Y-11578283D01*
X27532283Y-13484283D02*
X27532283Y-13378216D01*
X27426216Y-13378216D01*
X27426216Y-13484283D01*
X27532283Y-13484283D01*
X27612033Y-9927284D02*
X27612033Y-9821217D01*
X27505966Y-9821217D01*
X27505966Y-9927284D01*
X27612033Y-9927284D01*
X28088283Y-3450283D02*
X28088283Y-3344216D01*
X27982216Y-3344216D01*
X27982216Y-3450283D01*
X28088283Y-3450283D01*
X28088283Y-6117283D02*
X28088283Y-6011216D01*
X27982216Y-6011216D01*
X27982216Y-6117283D01*
X28088283Y-6117283D01*
X28247033Y-9673284D02*
X28247033Y-9567217D01*
X28140966Y-9567217D01*
X28140966Y-9673284D01*
X28247033Y-9673284D01*
X28564533Y-8022283D02*
X28564533Y-7916216D01*
X28458466Y-7916216D01*
X28458466Y-8022283D01*
X28564533Y-8022283D01*
X28723283Y-3196283D02*
X28723283Y-3090216D01*
X28617216Y-3090216D01*
X28617216Y-3196283D01*
X28723283Y-3196283D01*
X28723283Y-5863283D02*
X28723283Y-5757216D01*
X28617216Y-5757216D01*
X28617216Y-5863283D01*
X28723283Y-5863283D01*
X29199533Y-7768283D02*
X29199533Y-7662216D01*
X29093466Y-7662216D01*
X29093466Y-7768283D01*
X29199533Y-7768283D01*
X29278908Y-13737283D02*
X29278908Y-13631216D01*
X29172841Y-13631216D01*
X29172841Y-13737283D01*
X29278908Y-13737283D01*
X29913908Y-13483283D02*
X29913908Y-13377216D01*
X29807841Y-13377216D01*
X29807841Y-13483283D01*
X29913908Y-13483283D01*
X29993283Y-3450283D02*
X29993283Y-3344216D01*
X29887216Y-3344216D01*
X29887216Y-3450283D01*
X29993283Y-3450283D01*
X30231408Y-11832283D02*
X30231408Y-11726216D01*
X30125341Y-11726216D01*
X30125341Y-11832283D01*
X30231408Y-11832283D01*
X30628283Y-3196283D02*
X30628283Y-3090216D01*
X30522216Y-3090216D01*
X30522216Y-3196283D01*
X30628283Y-3196283D01*
X30707658Y-9927284D02*
X30707658Y-9821217D01*
X30601591Y-9821217D01*
X30601591Y-9927284D01*
X30707658Y-9927284D01*
X30866408Y-11578283D02*
X30866408Y-11472216D01*
X30760341Y-11472216D01*
X30760341Y-11578283D01*
X30866408Y-11578283D01*
X30943243Y-6118303D02*
X30943243Y-6012236D01*
X30837176Y-6012236D01*
X30837176Y-6118303D01*
X30943243Y-6118303D01*
X31183908Y-8022283D02*
X31183908Y-7916216D01*
X31077841Y-7916216D01*
X31077841Y-8022283D01*
X31183908Y-8022283D01*
X31342658Y-9673284D02*
X31342658Y-9567217D01*
X31236591Y-9567217D01*
X31236591Y-9673284D01*
X31342658Y-9673284D01*
X31578243Y-5864303D02*
X31578243Y-5758236D01*
X31472176Y-5758236D01*
X31472176Y-5864303D01*
X31578243Y-5864303D01*
X31660158Y-13737283D02*
X31660158Y-13631216D01*
X31554091Y-13631216D01*
X31554091Y-13737283D01*
X31660158Y-13737283D01*
X31818908Y-7768283D02*
X31818908Y-7662216D01*
X31712841Y-7662216D01*
X31712841Y-7768283D01*
X31818908Y-7768283D01*
X31898283Y-3450283D02*
X31898283Y-3344216D01*
X31792216Y-3344216D01*
X31792216Y-3450283D01*
X31898283Y-3450283D01*
X32295158Y-13483283D02*
X32295158Y-13377216D01*
X32189091Y-13377216D01*
X32189091Y-13483283D01*
X32295158Y-13483283D01*
X32533283Y-3196283D02*
X32533283Y-3090216D01*
X32427216Y-3090216D01*
X32427216Y-3196283D01*
X32533283Y-3196283D01*
X34358909Y-6117283D02*
X34358909Y-6011216D01*
X34252842Y-6011216D01*
X34252842Y-6117283D01*
X34358909Y-6117283D01*
X34358909Y-8022283D02*
X34358909Y-7916216D01*
X34252842Y-7916216D01*
X34252842Y-8022283D01*
X34358909Y-8022283D01*
X34358909Y-13737283D02*
X34358909Y-13631216D01*
X34252842Y-13631216D01*
X34252842Y-13737283D01*
X34358909Y-13737283D01*
X34374784Y-3450283D02*
X34374784Y-3344216D01*
X34268717Y-3344216D01*
X34268717Y-3450283D01*
X34374784Y-3450283D01*
X34993909Y-5863283D02*
X34993909Y-5757216D01*
X34887842Y-5757216D01*
X34887842Y-5863283D01*
X34993909Y-5863283D01*
X34993909Y-7768283D02*
X34993909Y-7662216D01*
X34887842Y-7662216D01*
X34887842Y-7768283D01*
X34993909Y-7768283D01*
X34993909Y-13483283D02*
X34993909Y-13377216D01*
X34887842Y-13377216D01*
X34887842Y-13483283D01*
X34993909Y-13483283D01*
X35009784Y-3196283D02*
X35009784Y-3090216D01*
X34903717Y-3090216D01*
X34903717Y-3196283D01*
X35009784Y-3196283D01*
X36263909Y-6117283D02*
X36263909Y-6011216D01*
X36157842Y-6011216D01*
X36157842Y-6117283D01*
X36263909Y-6117283D01*
X36263909Y-8022283D02*
X36263909Y-7916216D01*
X36157842Y-7916216D01*
X36157842Y-8022283D01*
X36263909Y-8022283D01*
X36263909Y-11832283D02*
X36263909Y-11726216D01*
X36157842Y-11726216D01*
X36157842Y-11832283D01*
X36263909Y-11832283D01*
X36263909Y-13737283D02*
X36263909Y-13631216D01*
X36157842Y-13631216D01*
X36157842Y-13737283D01*
X36263909Y-13737283D01*
X36279784Y-3450283D02*
X36279784Y-3344216D01*
X36173717Y-3344216D01*
X36173717Y-3450283D01*
X36279784Y-3450283D01*
X36898909Y-5863283D02*
X36898909Y-5757216D01*
X36792842Y-5757216D01*
X36792842Y-5863283D01*
X36898909Y-5863283D01*
X36898909Y-7768283D02*
X36898909Y-7662216D01*
X36792842Y-7662216D01*
X36792842Y-7768283D01*
X36898909Y-7768283D01*
X36898909Y-11578283D02*
X36898909Y-11472216D01*
X36792842Y-11472216D01*
X36792842Y-11578283D01*
X36898909Y-11578283D01*
X36898909Y-13483283D02*
X36898909Y-13377216D01*
X36792842Y-13377216D01*
X36792842Y-13483283D01*
X36898909Y-13483283D01*
X36914784Y-3196283D02*
X36914784Y-3090216D01*
X36808717Y-3090216D01*
X36808717Y-3196283D01*
X36914784Y-3196283D01*
X38168909Y-6117283D02*
X38168909Y-6011216D01*
X38062842Y-6011216D01*
X38062842Y-6117283D01*
X38168909Y-6117283D01*
X38168909Y-8022283D02*
X38168909Y-7916216D01*
X38062842Y-7916216D01*
X38062842Y-8022283D01*
X38168909Y-8022283D01*
X38168909Y-13737283D02*
X38168909Y-13631216D01*
X38062842Y-13631216D01*
X38062842Y-13737283D01*
X38168909Y-13737283D01*
X38184784Y-3450283D02*
X38184784Y-3344216D01*
X38078717Y-3344216D01*
X38078717Y-3450283D01*
X38184784Y-3450283D01*
X38803909Y-5863283D02*
X38803909Y-5757216D01*
X38697842Y-5757216D01*
X38697842Y-5863283D01*
X38803909Y-5863283D01*
X38803909Y-7768283D02*
X38803909Y-7662216D01*
X38697842Y-7662216D01*
X38697842Y-7768283D01*
X38803909Y-7768283D01*
X38803909Y-13483283D02*
X38803909Y-13377216D01*
X38697842Y-13377216D01*
X38697842Y-13483283D01*
X38803909Y-13483283D01*
X38819784Y-3196283D02*
X38819784Y-3090216D01*
X38713717Y-3090216D01*
X38713717Y-3196283D01*
X38819784Y-3196283D01*
D11*
X4237244Y-15745976D02*
X4237244Y-15545976D01*
X4284863Y-15545976D01*
X4313435Y-15555500D01*
X4332482Y-15574548D01*
X4342006Y-15593595D01*
X4351530Y-15631690D01*
X4351530Y-15660262D01*
X4342006Y-15698357D01*
X4332482Y-15717405D01*
X4313435Y-15736452D01*
X4284863Y-15745976D01*
X4237244Y-15745976D01*
X4437244Y-15745976D02*
X4437244Y-15612643D01*
X4437244Y-15650738D02*
X4446768Y-15631690D01*
X4456292Y-15622167D01*
X4475339Y-15612643D01*
X4494387Y-15612643D01*
X4561054Y-15745976D02*
X4561054Y-15612643D01*
X4561054Y-15545976D02*
X4551530Y-15555500D01*
X4561054Y-15565024D01*
X4570577Y-15555500D01*
X4561054Y-15545976D01*
X4561054Y-15565024D01*
X4684863Y-15745976D02*
X4665815Y-15736452D01*
X4656292Y-15717405D01*
X4656292Y-15545976D01*
X4789625Y-15745976D02*
X4770577Y-15736452D01*
X4761054Y-15717405D01*
X4761054Y-15545976D01*
X5018196Y-15745976D02*
X5018196Y-15545976D01*
X5084863Y-15688833D01*
X5151530Y-15545976D01*
X5151530Y-15745976D01*
X5332482Y-15745976D02*
X5332482Y-15641214D01*
X5322958Y-15622167D01*
X5303911Y-15612643D01*
X5265815Y-15612643D01*
X5246768Y-15622167D01*
X5332482Y-15736452D02*
X5313435Y-15745976D01*
X5265815Y-15745976D01*
X5246768Y-15736452D01*
X5237244Y-15717405D01*
X5237244Y-15698357D01*
X5246768Y-15679309D01*
X5265815Y-15669786D01*
X5313435Y-15669786D01*
X5332482Y-15660262D01*
X5427720Y-15612643D02*
X5427720Y-15812643D01*
X5427720Y-15622167D02*
X5446768Y-15612643D01*
X5484863Y-15612643D01*
X5503911Y-15622167D01*
X5513435Y-15631690D01*
X5522958Y-15650738D01*
X5522958Y-15707881D01*
X5513435Y-15726928D01*
X5503911Y-15736452D01*
X5484863Y-15745976D01*
X5446768Y-15745976D01*
X5427720Y-15736452D01*
X5608673Y-15726928D02*
X5618196Y-15736452D01*
X5608673Y-15745976D01*
X5599149Y-15736452D01*
X5608673Y-15726928D01*
X5608673Y-15745976D01*
X5608673Y-15622167D02*
X5618196Y-15631690D01*
X5608673Y-15641214D01*
X5599149Y-15631690D01*
X5608673Y-15622167D01*
X5608673Y-15641214D01*
D12*
X3939625Y-16055500D02*
X3979625Y-16095500D01*
X3979625Y-16055500D02*
X3939625Y-16095500D01*
D11*
X4275339Y-15965976D02*
X4294387Y-15965976D01*
X4313435Y-15975500D01*
X4322958Y-15985024D01*
X4332482Y-16004071D01*
X4342006Y-16042167D01*
X4342006Y-16089786D01*
X4332482Y-16127881D01*
X4322958Y-16146928D01*
X4313435Y-16156452D01*
X4294387Y-16165976D01*
X4275339Y-16165976D01*
X4256292Y-16156452D01*
X4246768Y-16146928D01*
X4237244Y-16127881D01*
X4227720Y-16089786D01*
X4227720Y-16042167D01*
X4237244Y-16004071D01*
X4246768Y-15985024D01*
X4256292Y-15975500D01*
X4275339Y-15965976D01*
X4427720Y-16146928D02*
X4437244Y-16156452D01*
X4427720Y-16165976D01*
X4418196Y-16156452D01*
X4427720Y-16146928D01*
X4427720Y-16165976D01*
X4608673Y-16032643D02*
X4608673Y-16165976D01*
X4561054Y-15956452D02*
X4513435Y-16099309D01*
X4637244Y-16099309D01*
X4751530Y-15965976D02*
X4770577Y-15965976D01*
X4789625Y-15975500D01*
X4799149Y-15985024D01*
X4808673Y-16004071D01*
X4818196Y-16042167D01*
X4818196Y-16089786D01*
X4808673Y-16127881D01*
X4799149Y-16146928D01*
X4789625Y-16156452D01*
X4770577Y-16165976D01*
X4751530Y-16165976D01*
X4732482Y-16156452D01*
X4722958Y-16146928D01*
X4713435Y-16127881D01*
X4703911Y-16089786D01*
X4703911Y-16042167D01*
X4713435Y-16004071D01*
X4722958Y-15985024D01*
X4732482Y-15975500D01*
X4751530Y-15965976D01*
X4942006Y-15965976D02*
X4961054Y-15965976D01*
X4980101Y-15975500D01*
X4989625Y-15985024D01*
X4999149Y-16004071D01*
X5008673Y-16042167D01*
X5008673Y-16089786D01*
X4999149Y-16127881D01*
X4989625Y-16146928D01*
X4980101Y-16156452D01*
X4961054Y-16165976D01*
X4942006Y-16165976D01*
X4922958Y-16156452D01*
X4913435Y-16146928D01*
X4903911Y-16127881D01*
X4894387Y-16089786D01*
X4894387Y-16042167D01*
X4903911Y-16004071D01*
X4913435Y-15985024D01*
X4922958Y-15975500D01*
X4942006Y-15965976D01*
X5094387Y-16165976D02*
X5094387Y-16032643D01*
X5094387Y-16051690D02*
X5103911Y-16042167D01*
X5122958Y-16032643D01*
X5151530Y-16032643D01*
X5170577Y-16042167D01*
X5180101Y-16061214D01*
X5180101Y-16165976D01*
X5180101Y-16061214D02*
X5189625Y-16042167D01*
X5208673Y-16032643D01*
X5237244Y-16032643D01*
X5256292Y-16042167D01*
X5265815Y-16061214D01*
X5265815Y-16165976D01*
X5361054Y-16165976D02*
X5361054Y-16032643D01*
X5361054Y-16051690D02*
X5370577Y-16042167D01*
X5389625Y-16032643D01*
X5418196Y-16032643D01*
X5437244Y-16042167D01*
X5446768Y-16061214D01*
X5446768Y-16165976D01*
X5446768Y-16061214D02*
X5456292Y-16042167D01*
X5475339Y-16032643D01*
X5503911Y-16032643D01*
X5522958Y-16042167D01*
X5532482Y-16061214D01*
X5532482Y-16165976D01*
X5922958Y-15956452D02*
X5751530Y-16213595D01*
X6180101Y-15965976D02*
X6199149Y-15965976D01*
X6218196Y-15975500D01*
X6227720Y-15985024D01*
X6237244Y-16004071D01*
X6246768Y-16042167D01*
X6246768Y-16089786D01*
X6237244Y-16127881D01*
X6227720Y-16146928D01*
X6218196Y-16156452D01*
X6199149Y-16165976D01*
X6180101Y-16165976D01*
X6161053Y-16156452D01*
X6151530Y-16146928D01*
X6142006Y-16127881D01*
X6132482Y-16089786D01*
X6132482Y-16042167D01*
X6142006Y-16004071D01*
X6151530Y-15985024D01*
X6161053Y-15975500D01*
X6180101Y-15965976D01*
X6332482Y-16146928D02*
X6342006Y-16156452D01*
X6332482Y-16165976D01*
X6322958Y-16156452D01*
X6332482Y-16146928D01*
X6332482Y-16165976D01*
X6465815Y-15965976D02*
X6484863Y-15965976D01*
X6503911Y-15975500D01*
X6513434Y-15985024D01*
X6522958Y-16004071D01*
X6532482Y-16042167D01*
X6532482Y-16089786D01*
X6522958Y-16127881D01*
X6513434Y-16146928D01*
X6503911Y-16156452D01*
X6484863Y-16165976D01*
X6465815Y-16165976D01*
X6446768Y-16156452D01*
X6437244Y-16146928D01*
X6427720Y-16127881D01*
X6418196Y-16089786D01*
X6418196Y-16042167D01*
X6427720Y-16004071D01*
X6437244Y-15985024D01*
X6446768Y-15975500D01*
X6465815Y-15965976D01*
X6722958Y-16165976D02*
X6608673Y-16165976D01*
X6665815Y-16165976D02*
X6665815Y-15965976D01*
X6646768Y-15994548D01*
X6627720Y-16013595D01*
X6608673Y-16023119D01*
X6903911Y-15965976D02*
X6808673Y-15965976D01*
X6799149Y-16061214D01*
X6808673Y-16051690D01*
X6827720Y-16042167D01*
X6875339Y-16042167D01*
X6894387Y-16051690D01*
X6903911Y-16061214D01*
X6913434Y-16080262D01*
X6913434Y-16127881D01*
X6903911Y-16146928D01*
X6894387Y-16156452D01*
X6875339Y-16165976D01*
X6827720Y-16165976D01*
X6808673Y-16156452D01*
X6799149Y-16146928D01*
X6980101Y-15965976D02*
X7113434Y-15965976D01*
X7027720Y-16165976D01*
X7180101Y-15965976D02*
X7180101Y-16004071D01*
X7256292Y-15965976D02*
X7256292Y-16004071D01*
X7551530Y-16242167D02*
X7542006Y-16232643D01*
X7522958Y-16204071D01*
X7513434Y-16185024D01*
X7503911Y-16156452D01*
X7494387Y-16108833D01*
X7494387Y-16070738D01*
X7503911Y-16023119D01*
X7513434Y-15994548D01*
X7522958Y-15975500D01*
X7542006Y-15946928D01*
X7551530Y-15937405D01*
X7713434Y-16032643D02*
X7713434Y-16165976D01*
X7665815Y-15956452D02*
X7618196Y-16099309D01*
X7742006Y-16099309D01*
X7913434Y-15965976D02*
X7818196Y-15965976D01*
X7808673Y-16061214D01*
X7818196Y-16051690D01*
X7837244Y-16042167D01*
X7884863Y-16042167D01*
X7903911Y-16051690D01*
X7913434Y-16061214D01*
X7922958Y-16080262D01*
X7922958Y-16127881D01*
X7913434Y-16146928D01*
X7903911Y-16156452D01*
X7884863Y-16165976D01*
X7837244Y-16165976D01*
X7818196Y-16156452D01*
X7808673Y-16146928D01*
X8161053Y-16165976D02*
X8161053Y-15965976D01*
X8246768Y-16165976D02*
X8246768Y-16061214D01*
X8237244Y-16042167D01*
X8218196Y-16032643D01*
X8189625Y-16032643D01*
X8170577Y-16042167D01*
X8161053Y-16051690D01*
X8370577Y-16165976D02*
X8351530Y-16156452D01*
X8342006Y-16146928D01*
X8332482Y-16127881D01*
X8332482Y-16070738D01*
X8342006Y-16051690D01*
X8351530Y-16042167D01*
X8370577Y-16032643D01*
X8399149Y-16032643D01*
X8418196Y-16042167D01*
X8427720Y-16051690D01*
X8437244Y-16070738D01*
X8437244Y-16127881D01*
X8427720Y-16146928D01*
X8418196Y-16156452D01*
X8399149Y-16165976D01*
X8370577Y-16165976D01*
X8551530Y-16165976D02*
X8532482Y-16156452D01*
X8522958Y-16137405D01*
X8522958Y-15965976D01*
X8703911Y-16156452D02*
X8684863Y-16165976D01*
X8646768Y-16165976D01*
X8627720Y-16156452D01*
X8618196Y-16137405D01*
X8618196Y-16061214D01*
X8627720Y-16042167D01*
X8646768Y-16032643D01*
X8684863Y-16032643D01*
X8703911Y-16042167D01*
X8713435Y-16061214D01*
X8713435Y-16080262D01*
X8618196Y-16099309D01*
X8789625Y-16156452D02*
X8808673Y-16165976D01*
X8846768Y-16165976D01*
X8865815Y-16156452D01*
X8875339Y-16137405D01*
X8875339Y-16127881D01*
X8865815Y-16108833D01*
X8846768Y-16099309D01*
X8818196Y-16099309D01*
X8799149Y-16089786D01*
X8789625Y-16070738D01*
X8789625Y-16061214D01*
X8799149Y-16042167D01*
X8818196Y-16032643D01*
X8846768Y-16032643D01*
X8865815Y-16042167D01*
X8942006Y-16242167D02*
X8951530Y-16232643D01*
X8970577Y-16204071D01*
X8980101Y-16185024D01*
X8989625Y-16156452D01*
X8999149Y-16108833D01*
X8999149Y-16070738D01*
X8989625Y-16023119D01*
X8980101Y-15994548D01*
X8970577Y-15975500D01*
X8951530Y-15946928D01*
X8942006Y-15937405D01*
D13*
X3979625Y-16339500D02*
G75*
G03*
X3979625Y-16339500I-30000J0D01*
G01*
D11*
X4275339Y-16229976D02*
X4294387Y-16229976D01*
X4313435Y-16239500D01*
X4322958Y-16249024D01*
X4332482Y-16268071D01*
X4342006Y-16306167D01*
X4342006Y-16353786D01*
X4332482Y-16391881D01*
X4322958Y-16410928D01*
X4313435Y-16420452D01*
X4294387Y-16429976D01*
X4275339Y-16429976D01*
X4256292Y-16420452D01*
X4246768Y-16410928D01*
X4237244Y-16391881D01*
X4227720Y-16353786D01*
X4227720Y-16306167D01*
X4237244Y-16268071D01*
X4246768Y-16249024D01*
X4256292Y-16239500D01*
X4275339Y-16229976D01*
X4427720Y-16410928D02*
X4437244Y-16420452D01*
X4427720Y-16429976D01*
X4418196Y-16420452D01*
X4427720Y-16410928D01*
X4427720Y-16429976D01*
X4608673Y-16229976D02*
X4570577Y-16229976D01*
X4551530Y-16239500D01*
X4542006Y-16249024D01*
X4522958Y-16277595D01*
X4513435Y-16315690D01*
X4513435Y-16391881D01*
X4522958Y-16410928D01*
X4532482Y-16420452D01*
X4551530Y-16429976D01*
X4589625Y-16429976D01*
X4608673Y-16420452D01*
X4618196Y-16410928D01*
X4627720Y-16391881D01*
X4627720Y-16344262D01*
X4618196Y-16325214D01*
X4608673Y-16315690D01*
X4589625Y-16306167D01*
X4551530Y-16306167D01*
X4532482Y-16315690D01*
X4522958Y-16325214D01*
X4513435Y-16344262D01*
X4751530Y-16229976D02*
X4770577Y-16229976D01*
X4789625Y-16239500D01*
X4799149Y-16249024D01*
X4808673Y-16268071D01*
X4818196Y-16306167D01*
X4818196Y-16353786D01*
X4808673Y-16391881D01*
X4799149Y-16410928D01*
X4789625Y-16420452D01*
X4770577Y-16429976D01*
X4751530Y-16429976D01*
X4732482Y-16420452D01*
X4722958Y-16410928D01*
X4713435Y-16391881D01*
X4703911Y-16353786D01*
X4703911Y-16306167D01*
X4713435Y-16268071D01*
X4722958Y-16249024D01*
X4732482Y-16239500D01*
X4751530Y-16229976D01*
X4942006Y-16229976D02*
X4961054Y-16229976D01*
X4980101Y-16239500D01*
X4989625Y-16249024D01*
X4999149Y-16268071D01*
X5008673Y-16306167D01*
X5008673Y-16353786D01*
X4999149Y-16391881D01*
X4989625Y-16410928D01*
X4980101Y-16420452D01*
X4961054Y-16429976D01*
X4942006Y-16429976D01*
X4922958Y-16420452D01*
X4913435Y-16410928D01*
X4903911Y-16391881D01*
X4894387Y-16353786D01*
X4894387Y-16306167D01*
X4903911Y-16268071D01*
X4913435Y-16249024D01*
X4922958Y-16239500D01*
X4942006Y-16229976D01*
X5094387Y-16429976D02*
X5094387Y-16296643D01*
X5094387Y-16315690D02*
X5103911Y-16306167D01*
X5122958Y-16296643D01*
X5151530Y-16296643D01*
X5170577Y-16306167D01*
X5180101Y-16325214D01*
X5180101Y-16429976D01*
X5180101Y-16325214D02*
X5189625Y-16306167D01*
X5208673Y-16296643D01*
X5237244Y-16296643D01*
X5256292Y-16306167D01*
X5265815Y-16325214D01*
X5265815Y-16429976D01*
X5361054Y-16429976D02*
X5361054Y-16296643D01*
X5361054Y-16315690D02*
X5370577Y-16306167D01*
X5389625Y-16296643D01*
X5418196Y-16296643D01*
X5437244Y-16306167D01*
X5446768Y-16325214D01*
X5446768Y-16429976D01*
X5446768Y-16325214D02*
X5456292Y-16306167D01*
X5475339Y-16296643D01*
X5503911Y-16296643D01*
X5522958Y-16306167D01*
X5532482Y-16325214D01*
X5532482Y-16429976D01*
X5922958Y-16220452D02*
X5751530Y-16477595D01*
X6180101Y-16229976D02*
X6199149Y-16229976D01*
X6218196Y-16239500D01*
X6227720Y-16249024D01*
X6237244Y-16268071D01*
X6246768Y-16306167D01*
X6246768Y-16353786D01*
X6237244Y-16391881D01*
X6227720Y-16410928D01*
X6218196Y-16420452D01*
X6199149Y-16429976D01*
X6180101Y-16429976D01*
X6161053Y-16420452D01*
X6151530Y-16410928D01*
X6142006Y-16391881D01*
X6132482Y-16353786D01*
X6132482Y-16306167D01*
X6142006Y-16268071D01*
X6151530Y-16249024D01*
X6161053Y-16239500D01*
X6180101Y-16229976D01*
X6332482Y-16410928D02*
X6342006Y-16420452D01*
X6332482Y-16429976D01*
X6322958Y-16420452D01*
X6332482Y-16410928D01*
X6332482Y-16429976D01*
X6465815Y-16229976D02*
X6484863Y-16229976D01*
X6503911Y-16239500D01*
X6513434Y-16249024D01*
X6522958Y-16268071D01*
X6532482Y-16306167D01*
X6532482Y-16353786D01*
X6522958Y-16391881D01*
X6513434Y-16410928D01*
X6503911Y-16420452D01*
X6484863Y-16429976D01*
X6465815Y-16429976D01*
X6446768Y-16420452D01*
X6437244Y-16410928D01*
X6427720Y-16391881D01*
X6418196Y-16353786D01*
X6418196Y-16306167D01*
X6427720Y-16268071D01*
X6437244Y-16249024D01*
X6446768Y-16239500D01*
X6465815Y-16229976D01*
X6608673Y-16249024D02*
X6618196Y-16239500D01*
X6637244Y-16229976D01*
X6684863Y-16229976D01*
X6703911Y-16239500D01*
X6713434Y-16249024D01*
X6722958Y-16268071D01*
X6722958Y-16287119D01*
X6713434Y-16315690D01*
X6599149Y-16429976D01*
X6722958Y-16429976D01*
X6789625Y-16229976D02*
X6913434Y-16229976D01*
X6846768Y-16306167D01*
X6875339Y-16306167D01*
X6894387Y-16315690D01*
X6903911Y-16325214D01*
X6913434Y-16344262D01*
X6913434Y-16391881D01*
X6903911Y-16410928D01*
X6894387Y-16420452D01*
X6875339Y-16429976D01*
X6818196Y-16429976D01*
X6799149Y-16420452D01*
X6789625Y-16410928D01*
X7084863Y-16229976D02*
X7046768Y-16229976D01*
X7027720Y-16239500D01*
X7018196Y-16249024D01*
X6999149Y-16277595D01*
X6989625Y-16315690D01*
X6989625Y-16391881D01*
X6999149Y-16410928D01*
X7008673Y-16420452D01*
X7027720Y-16429976D01*
X7065815Y-16429976D01*
X7084863Y-16420452D01*
X7094387Y-16410928D01*
X7103911Y-16391881D01*
X7103911Y-16344262D01*
X7094387Y-16325214D01*
X7084863Y-16315690D01*
X7065815Y-16306167D01*
X7027720Y-16306167D01*
X7008673Y-16315690D01*
X6999149Y-16325214D01*
X6989625Y-16344262D01*
X7180101Y-16229976D02*
X7180101Y-16268071D01*
X7256292Y-16229976D02*
X7256292Y-16268071D01*
X7551530Y-16506167D02*
X7542006Y-16496643D01*
X7522958Y-16468071D01*
X7513434Y-16449024D01*
X7503911Y-16420452D01*
X7494387Y-16372833D01*
X7494387Y-16334738D01*
X7503911Y-16287119D01*
X7513434Y-16258548D01*
X7522958Y-16239500D01*
X7542006Y-16210928D01*
X7551530Y-16201405D01*
X7665815Y-16229976D02*
X7684863Y-16229976D01*
X7703911Y-16239500D01*
X7713434Y-16249024D01*
X7722958Y-16268071D01*
X7732482Y-16306167D01*
X7732482Y-16353786D01*
X7722958Y-16391881D01*
X7713434Y-16410928D01*
X7703911Y-16420452D01*
X7684863Y-16429976D01*
X7665815Y-16429976D01*
X7646768Y-16420452D01*
X7637244Y-16410928D01*
X7627720Y-16391881D01*
X7618196Y-16353786D01*
X7618196Y-16306167D01*
X7627720Y-16268071D01*
X7637244Y-16249024D01*
X7646768Y-16239500D01*
X7665815Y-16229976D01*
X7970577Y-16429976D02*
X7970577Y-16229976D01*
X8056292Y-16429976D02*
X8056292Y-16325214D01*
X8046768Y-16306167D01*
X8027720Y-16296643D01*
X7999149Y-16296643D01*
X7980101Y-16306167D01*
X7970577Y-16315690D01*
X8180101Y-16429976D02*
X8161053Y-16420452D01*
X8151530Y-16410928D01*
X8142006Y-16391881D01*
X8142006Y-16334738D01*
X8151530Y-16315690D01*
X8161053Y-16306167D01*
X8180101Y-16296643D01*
X8208673Y-16296643D01*
X8227720Y-16306167D01*
X8237244Y-16315690D01*
X8246768Y-16334738D01*
X8246768Y-16391881D01*
X8237244Y-16410928D01*
X8227720Y-16420452D01*
X8208673Y-16429976D01*
X8180101Y-16429976D01*
X8361053Y-16429976D02*
X8342006Y-16420452D01*
X8332482Y-16401405D01*
X8332482Y-16229976D01*
X8513435Y-16420452D02*
X8494387Y-16429976D01*
X8456292Y-16429976D01*
X8437244Y-16420452D01*
X8427720Y-16401405D01*
X8427720Y-16325214D01*
X8437244Y-16306167D01*
X8456292Y-16296643D01*
X8494387Y-16296643D01*
X8513435Y-16306167D01*
X8522958Y-16325214D01*
X8522958Y-16344262D01*
X8427720Y-16363309D01*
X8599149Y-16420452D02*
X8618196Y-16429976D01*
X8656292Y-16429976D01*
X8675339Y-16420452D01*
X8684863Y-16401405D01*
X8684863Y-16391881D01*
X8675339Y-16372833D01*
X8656292Y-16363309D01*
X8627720Y-16363309D01*
X8608673Y-16353786D01*
X8599149Y-16334738D01*
X8599149Y-16325214D01*
X8608673Y-16306167D01*
X8627720Y-16296643D01*
X8656292Y-16296643D01*
X8675339Y-16306167D01*
X8922958Y-16353786D02*
X9075339Y-16353786D01*
X8999149Y-16429976D02*
X8999149Y-16277595D01*
X9408673Y-16296643D02*
X9408673Y-16429976D01*
X9361054Y-16220452D02*
X9313435Y-16363309D01*
X9437244Y-16363309D01*
X9656292Y-16420452D02*
X9675339Y-16429976D01*
X9713435Y-16429976D01*
X9732482Y-16420452D01*
X9742006Y-16401405D01*
X9742006Y-16391881D01*
X9732482Y-16372833D01*
X9713435Y-16363309D01*
X9684863Y-16363309D01*
X9665815Y-16353786D01*
X9656292Y-16334738D01*
X9656292Y-16325214D01*
X9665815Y-16306167D01*
X9684863Y-16296643D01*
X9713435Y-16296643D01*
X9732482Y-16306167D01*
X9856292Y-16429976D02*
X9837244Y-16420452D01*
X9827720Y-16401405D01*
X9827720Y-16229976D01*
X9961054Y-16429976D02*
X9942006Y-16420452D01*
X9932482Y-16410928D01*
X9922958Y-16391881D01*
X9922958Y-16334738D01*
X9932482Y-16315690D01*
X9942006Y-16306167D01*
X9961054Y-16296643D01*
X9989625Y-16296643D01*
X10008673Y-16306167D01*
X10018196Y-16315690D01*
X10027720Y-16334738D01*
X10027720Y-16391881D01*
X10018196Y-16410928D01*
X10008673Y-16420452D01*
X9989625Y-16429976D01*
X9961054Y-16429976D01*
X10084863Y-16296643D02*
X10161054Y-16296643D01*
X10113435Y-16229976D02*
X10113435Y-16401405D01*
X10122958Y-16420452D01*
X10142006Y-16429976D01*
X10161054Y-16429976D01*
X10218196Y-16420452D02*
X10237244Y-16429976D01*
X10275339Y-16429976D01*
X10294387Y-16420452D01*
X10303911Y-16401405D01*
X10303911Y-16391881D01*
X10294387Y-16372833D01*
X10275339Y-16363309D01*
X10246768Y-16363309D01*
X10227720Y-16353786D01*
X10218196Y-16334738D01*
X10218196Y-16325214D01*
X10227720Y-16306167D01*
X10246768Y-16296643D01*
X10275339Y-16296643D01*
X10294387Y-16306167D01*
X10370577Y-16506167D02*
X10380101Y-16496643D01*
X10399149Y-16468071D01*
X10408673Y-16449024D01*
X10418196Y-16420452D01*
X10427720Y-16372833D01*
X10427720Y-16334738D01*
X10418196Y-16287119D01*
X10408673Y-16258548D01*
X10399149Y-16239500D01*
X10380101Y-16210928D01*
X10370577Y-16201405D01*
D10*
X3929625Y-16553500D02*
X3929625Y-16653500D01*
X3879625Y-16603500D02*
X3979625Y-16603500D01*
D11*
X4342006Y-16693976D02*
X4227720Y-16693976D01*
X4284863Y-16693976D02*
X4284863Y-16493976D01*
X4265815Y-16522548D01*
X4246768Y-16541595D01*
X4227720Y-16551119D01*
X4427720Y-16674928D02*
X4437244Y-16684452D01*
X4427720Y-16693976D01*
X4418196Y-16684452D01*
X4427720Y-16674928D01*
X4427720Y-16693976D01*
X4561054Y-16493976D02*
X4580101Y-16493976D01*
X4599149Y-16503500D01*
X4608673Y-16513024D01*
X4618196Y-16532071D01*
X4627720Y-16570167D01*
X4627720Y-16617786D01*
X4618196Y-16655881D01*
X4608673Y-16674928D01*
X4599149Y-16684452D01*
X4580101Y-16693976D01*
X4561054Y-16693976D01*
X4542006Y-16684452D01*
X4532482Y-16674928D01*
X4522958Y-16655881D01*
X4513435Y-16617786D01*
X4513435Y-16570167D01*
X4522958Y-16532071D01*
X4532482Y-16513024D01*
X4542006Y-16503500D01*
X4561054Y-16493976D01*
X4751530Y-16493976D02*
X4770577Y-16493976D01*
X4789625Y-16503500D01*
X4799149Y-16513024D01*
X4808673Y-16532071D01*
X4818196Y-16570167D01*
X4818196Y-16617786D01*
X4808673Y-16655881D01*
X4799149Y-16674928D01*
X4789625Y-16684452D01*
X4770577Y-16693976D01*
X4751530Y-16693976D01*
X4732482Y-16684452D01*
X4722958Y-16674928D01*
X4713435Y-16655881D01*
X4703911Y-16617786D01*
X4703911Y-16570167D01*
X4713435Y-16532071D01*
X4722958Y-16513024D01*
X4732482Y-16503500D01*
X4751530Y-16493976D01*
X4942006Y-16493976D02*
X4961054Y-16493976D01*
X4980101Y-16503500D01*
X4989625Y-16513024D01*
X4999149Y-16532071D01*
X5008673Y-16570167D01*
X5008673Y-16617786D01*
X4999149Y-16655881D01*
X4989625Y-16674928D01*
X4980101Y-16684452D01*
X4961054Y-16693976D01*
X4942006Y-16693976D01*
X4922958Y-16684452D01*
X4913435Y-16674928D01*
X4903911Y-16655881D01*
X4894387Y-16617786D01*
X4894387Y-16570167D01*
X4903911Y-16532071D01*
X4913435Y-16513024D01*
X4922958Y-16503500D01*
X4942006Y-16493976D01*
X5094387Y-16693976D02*
X5094387Y-16560643D01*
X5094387Y-16579690D02*
X5103911Y-16570167D01*
X5122958Y-16560643D01*
X5151530Y-16560643D01*
X5170577Y-16570167D01*
X5180101Y-16589214D01*
X5180101Y-16693976D01*
X5180101Y-16589214D02*
X5189625Y-16570167D01*
X5208673Y-16560643D01*
X5237244Y-16560643D01*
X5256292Y-16570167D01*
X5265815Y-16589214D01*
X5265815Y-16693976D01*
X5361054Y-16693976D02*
X5361054Y-16560643D01*
X5361054Y-16579690D02*
X5370577Y-16570167D01*
X5389625Y-16560643D01*
X5418196Y-16560643D01*
X5437244Y-16570167D01*
X5446768Y-16589214D01*
X5446768Y-16693976D01*
X5446768Y-16589214D02*
X5456292Y-16570167D01*
X5475339Y-16560643D01*
X5503911Y-16560643D01*
X5522958Y-16570167D01*
X5532482Y-16589214D01*
X5532482Y-16693976D01*
X5922958Y-16484452D02*
X5751530Y-16741595D01*
X6180101Y-16493976D02*
X6199149Y-16493976D01*
X6218196Y-16503500D01*
X6227720Y-16513024D01*
X6237244Y-16532071D01*
X6246768Y-16570167D01*
X6246768Y-16617786D01*
X6237244Y-16655881D01*
X6227720Y-16674928D01*
X6218196Y-16684452D01*
X6199149Y-16693976D01*
X6180101Y-16693976D01*
X6161053Y-16684452D01*
X6151530Y-16674928D01*
X6142006Y-16655881D01*
X6132482Y-16617786D01*
X6132482Y-16570167D01*
X6142006Y-16532071D01*
X6151530Y-16513024D01*
X6161053Y-16503500D01*
X6180101Y-16493976D01*
X6332482Y-16674928D02*
X6342006Y-16684452D01*
X6332482Y-16693976D01*
X6322958Y-16684452D01*
X6332482Y-16674928D01*
X6332482Y-16693976D01*
X6465815Y-16493976D02*
X6484863Y-16493976D01*
X6503911Y-16503500D01*
X6513434Y-16513024D01*
X6522958Y-16532071D01*
X6532482Y-16570167D01*
X6532482Y-16617786D01*
X6522958Y-16655881D01*
X6513434Y-16674928D01*
X6503911Y-16684452D01*
X6484863Y-16693976D01*
X6465815Y-16693976D01*
X6446768Y-16684452D01*
X6437244Y-16674928D01*
X6427720Y-16655881D01*
X6418196Y-16617786D01*
X6418196Y-16570167D01*
X6427720Y-16532071D01*
X6437244Y-16513024D01*
X6446768Y-16503500D01*
X6465815Y-16493976D01*
X6599149Y-16493976D02*
X6722958Y-16493976D01*
X6656292Y-16570167D01*
X6684863Y-16570167D01*
X6703911Y-16579690D01*
X6713434Y-16589214D01*
X6722958Y-16608262D01*
X6722958Y-16655881D01*
X6713434Y-16674928D01*
X6703911Y-16684452D01*
X6684863Y-16693976D01*
X6627720Y-16693976D01*
X6608673Y-16684452D01*
X6599149Y-16674928D01*
X6818196Y-16693976D02*
X6856292Y-16693976D01*
X6875339Y-16684452D01*
X6884863Y-16674928D01*
X6903911Y-16646357D01*
X6913434Y-16608262D01*
X6913434Y-16532071D01*
X6903911Y-16513024D01*
X6894387Y-16503500D01*
X6875339Y-16493976D01*
X6837244Y-16493976D01*
X6818196Y-16503500D01*
X6808673Y-16513024D01*
X6799149Y-16532071D01*
X6799149Y-16579690D01*
X6808673Y-16598738D01*
X6818196Y-16608262D01*
X6837244Y-16617786D01*
X6875339Y-16617786D01*
X6894387Y-16608262D01*
X6903911Y-16598738D01*
X6913434Y-16579690D01*
X7084863Y-16560643D02*
X7084863Y-16693976D01*
X7037244Y-16484452D02*
X6989625Y-16627309D01*
X7113434Y-16627309D01*
X7180101Y-16493976D02*
X7180101Y-16532071D01*
X7256292Y-16493976D02*
X7256292Y-16532071D01*
X7551530Y-16770167D02*
X7542006Y-16760643D01*
X7522958Y-16732071D01*
X7513434Y-16713024D01*
X7503911Y-16684452D01*
X7494387Y-16636833D01*
X7494387Y-16598738D01*
X7503911Y-16551119D01*
X7513434Y-16522548D01*
X7522958Y-16503500D01*
X7542006Y-16474928D01*
X7551530Y-16465405D01*
X7713434Y-16493976D02*
X7675339Y-16493976D01*
X7656292Y-16503500D01*
X7646768Y-16513024D01*
X7627720Y-16541595D01*
X7618196Y-16579690D01*
X7618196Y-16655881D01*
X7627720Y-16674928D01*
X7637244Y-16684452D01*
X7656292Y-16693976D01*
X7694387Y-16693976D01*
X7713434Y-16684452D01*
X7722958Y-16674928D01*
X7732482Y-16655881D01*
X7732482Y-16608262D01*
X7722958Y-16589214D01*
X7713434Y-16579690D01*
X7694387Y-16570167D01*
X7656292Y-16570167D01*
X7637244Y-16579690D01*
X7627720Y-16589214D01*
X7618196Y-16608262D01*
X7970577Y-16693976D02*
X7970577Y-16493976D01*
X8056292Y-16693976D02*
X8056292Y-16589214D01*
X8046768Y-16570167D01*
X8027720Y-16560643D01*
X7999149Y-16560643D01*
X7980101Y-16570167D01*
X7970577Y-16579690D01*
X8180101Y-16693976D02*
X8161053Y-16684452D01*
X8151530Y-16674928D01*
X8142006Y-16655881D01*
X8142006Y-16598738D01*
X8151530Y-16579690D01*
X8161053Y-16570167D01*
X8180101Y-16560643D01*
X8208673Y-16560643D01*
X8227720Y-16570167D01*
X8237244Y-16579690D01*
X8246768Y-16598738D01*
X8246768Y-16655881D01*
X8237244Y-16674928D01*
X8227720Y-16684452D01*
X8208673Y-16693976D01*
X8180101Y-16693976D01*
X8361053Y-16693976D02*
X8342006Y-16684452D01*
X8332482Y-16665405D01*
X8332482Y-16493976D01*
X8513435Y-16684452D02*
X8494387Y-16693976D01*
X8456292Y-16693976D01*
X8437244Y-16684452D01*
X8427720Y-16665405D01*
X8427720Y-16589214D01*
X8437244Y-16570167D01*
X8456292Y-16560643D01*
X8494387Y-16560643D01*
X8513435Y-16570167D01*
X8522958Y-16589214D01*
X8522958Y-16608262D01*
X8427720Y-16627309D01*
X8599149Y-16684452D02*
X8618196Y-16693976D01*
X8656292Y-16693976D01*
X8675339Y-16684452D01*
X8684863Y-16665405D01*
X8684863Y-16655881D01*
X8675339Y-16636833D01*
X8656292Y-16627309D01*
X8627720Y-16627309D01*
X8608673Y-16617786D01*
X8599149Y-16598738D01*
X8599149Y-16589214D01*
X8608673Y-16570167D01*
X8627720Y-16560643D01*
X8656292Y-16560643D01*
X8675339Y-16570167D01*
X8751530Y-16770167D02*
X8761054Y-16760643D01*
X8780101Y-16732071D01*
X8789625Y-16713024D01*
X8799149Y-16684452D01*
X8808673Y-16636833D01*
X8808673Y-16598738D01*
X8799149Y-16551119D01*
X8789625Y-16522548D01*
X8780101Y-16503500D01*
X8761054Y-16474928D01*
X8751530Y-16465405D01*
D14*
X3957658Y-16920534D02*
X3957658Y-16814467D01*
X3851591Y-16814467D01*
X3851591Y-16920534D01*
X3957658Y-16920534D01*
D11*
X4342006Y-16957976D02*
X4227720Y-16957976D01*
X4284863Y-16957976D02*
X4284863Y-16757976D01*
X4265815Y-16786548D01*
X4246768Y-16805595D01*
X4227720Y-16815119D01*
X4427720Y-16938929D02*
X4437244Y-16948452D01*
X4427720Y-16957976D01*
X4418196Y-16948452D01*
X4427720Y-16938929D01*
X4427720Y-16957976D01*
X4618196Y-16757976D02*
X4522958Y-16757976D01*
X4513435Y-16853214D01*
X4522958Y-16843690D01*
X4542006Y-16834167D01*
X4589625Y-16834167D01*
X4608673Y-16843690D01*
X4618196Y-16853214D01*
X4627720Y-16872262D01*
X4627720Y-16919881D01*
X4618196Y-16938929D01*
X4608673Y-16948452D01*
X4589625Y-16957976D01*
X4542006Y-16957976D01*
X4522958Y-16948452D01*
X4513435Y-16938929D01*
X4751530Y-16757976D02*
X4770577Y-16757976D01*
X4789625Y-16767500D01*
X4799149Y-16777024D01*
X4808673Y-16796071D01*
X4818196Y-16834167D01*
X4818196Y-16881786D01*
X4808673Y-16919881D01*
X4799149Y-16938929D01*
X4789625Y-16948452D01*
X4770577Y-16957976D01*
X4751530Y-16957976D01*
X4732482Y-16948452D01*
X4722958Y-16938929D01*
X4713435Y-16919881D01*
X4703911Y-16881786D01*
X4703911Y-16834167D01*
X4713435Y-16796071D01*
X4722958Y-16777024D01*
X4732482Y-16767500D01*
X4751530Y-16757976D01*
X4942006Y-16757976D02*
X4961054Y-16757976D01*
X4980101Y-16767500D01*
X4989625Y-16777024D01*
X4999149Y-16796071D01*
X5008673Y-16834167D01*
X5008673Y-16881786D01*
X4999149Y-16919881D01*
X4989625Y-16938929D01*
X4980101Y-16948452D01*
X4961054Y-16957976D01*
X4942006Y-16957976D01*
X4922958Y-16948452D01*
X4913435Y-16938929D01*
X4903911Y-16919881D01*
X4894387Y-16881786D01*
X4894387Y-16834167D01*
X4903911Y-16796071D01*
X4913435Y-16777024D01*
X4922958Y-16767500D01*
X4942006Y-16757976D01*
X5094387Y-16957976D02*
X5094387Y-16824643D01*
X5094387Y-16843690D02*
X5103911Y-16834167D01*
X5122958Y-16824643D01*
X5151530Y-16824643D01*
X5170577Y-16834167D01*
X5180101Y-16853214D01*
X5180101Y-16957976D01*
X5180101Y-16853214D02*
X5189625Y-16834167D01*
X5208673Y-16824643D01*
X5237244Y-16824643D01*
X5256292Y-16834167D01*
X5265815Y-16853214D01*
X5265815Y-16957976D01*
X5361054Y-16957976D02*
X5361054Y-16824643D01*
X5361054Y-16843690D02*
X5370577Y-16834167D01*
X5389625Y-16824643D01*
X5418196Y-16824643D01*
X5437244Y-16834167D01*
X5446768Y-16853214D01*
X5446768Y-16957976D01*
X5446768Y-16853214D02*
X5456292Y-16834167D01*
X5475339Y-16824643D01*
X5503911Y-16824643D01*
X5522958Y-16834167D01*
X5532482Y-16853214D01*
X5532482Y-16957976D01*
X5922958Y-16748452D02*
X5751530Y-17005595D01*
X6180101Y-16757976D02*
X6199149Y-16757976D01*
X6218196Y-16767500D01*
X6227720Y-16777024D01*
X6237244Y-16796071D01*
X6246768Y-16834167D01*
X6246768Y-16881786D01*
X6237244Y-16919881D01*
X6227720Y-16938929D01*
X6218196Y-16948452D01*
X6199149Y-16957976D01*
X6180101Y-16957976D01*
X6161053Y-16948452D01*
X6151530Y-16938929D01*
X6142006Y-16919881D01*
X6132482Y-16881786D01*
X6132482Y-16834167D01*
X6142006Y-16796071D01*
X6151530Y-16777024D01*
X6161053Y-16767500D01*
X6180101Y-16757976D01*
X6332482Y-16938929D02*
X6342006Y-16948452D01*
X6332482Y-16957976D01*
X6322958Y-16948452D01*
X6332482Y-16938929D01*
X6332482Y-16957976D01*
X6465815Y-16757976D02*
X6484863Y-16757976D01*
X6503911Y-16767500D01*
X6513434Y-16777024D01*
X6522958Y-16796071D01*
X6532482Y-16834167D01*
X6532482Y-16881786D01*
X6522958Y-16919881D01*
X6513434Y-16938929D01*
X6503911Y-16948452D01*
X6484863Y-16957976D01*
X6465815Y-16957976D01*
X6446768Y-16948452D01*
X6437244Y-16938929D01*
X6427720Y-16919881D01*
X6418196Y-16881786D01*
X6418196Y-16834167D01*
X6427720Y-16796071D01*
X6437244Y-16777024D01*
X6446768Y-16767500D01*
X6465815Y-16757976D01*
X6713434Y-16757976D02*
X6618196Y-16757976D01*
X6608673Y-16853214D01*
X6618196Y-16843690D01*
X6637244Y-16834167D01*
X6684863Y-16834167D01*
X6703911Y-16843690D01*
X6713434Y-16853214D01*
X6722958Y-16872262D01*
X6722958Y-16919881D01*
X6713434Y-16938929D01*
X6703911Y-16948452D01*
X6684863Y-16957976D01*
X6637244Y-16957976D01*
X6618196Y-16948452D01*
X6608673Y-16938929D01*
X6818196Y-16957976D02*
X6856292Y-16957976D01*
X6875339Y-16948452D01*
X6884863Y-16938929D01*
X6903911Y-16910357D01*
X6913434Y-16872262D01*
X6913434Y-16796071D01*
X6903911Y-16777024D01*
X6894387Y-16767500D01*
X6875339Y-16757976D01*
X6837244Y-16757976D01*
X6818196Y-16767500D01*
X6808673Y-16777024D01*
X6799149Y-16796071D01*
X6799149Y-16843690D01*
X6808673Y-16862738D01*
X6818196Y-16872262D01*
X6837244Y-16881786D01*
X6875339Y-16881786D01*
X6894387Y-16872262D01*
X6903911Y-16862738D01*
X6913434Y-16843690D01*
X7103911Y-16957976D02*
X6989625Y-16957976D01*
X7046768Y-16957976D02*
X7046768Y-16757976D01*
X7027720Y-16786548D01*
X7008673Y-16805595D01*
X6989625Y-16815119D01*
X7180101Y-16757976D02*
X7180101Y-16796071D01*
X7256292Y-16757976D02*
X7256292Y-16796071D01*
X7551530Y-17034167D02*
X7542006Y-17024643D01*
X7522958Y-16996071D01*
X7513434Y-16977024D01*
X7503911Y-16948452D01*
X7494387Y-16900833D01*
X7494387Y-16862738D01*
X7503911Y-16815119D01*
X7513434Y-16786548D01*
X7522958Y-16767500D01*
X7542006Y-16738928D01*
X7551530Y-16729405D01*
X7732482Y-16957976D02*
X7618196Y-16957976D01*
X7675339Y-16957976D02*
X7675339Y-16757976D01*
X7656292Y-16786548D01*
X7637244Y-16805595D01*
X7618196Y-16815119D01*
X7799149Y-16757976D02*
X7932482Y-16757976D01*
X7846768Y-16957976D01*
X8094387Y-16824643D02*
X8094387Y-16957976D01*
X8046768Y-16748452D02*
X7999149Y-16891310D01*
X8122958Y-16891310D01*
X8351530Y-16957976D02*
X8351530Y-16757976D01*
X8437244Y-16957976D02*
X8437244Y-16853214D01*
X8427720Y-16834167D01*
X8408673Y-16824643D01*
X8380101Y-16824643D01*
X8361053Y-16834167D01*
X8351530Y-16843690D01*
X8561054Y-16957976D02*
X8542006Y-16948452D01*
X8532482Y-16938929D01*
X8522958Y-16919881D01*
X8522958Y-16862738D01*
X8532482Y-16843690D01*
X8542006Y-16834167D01*
X8561054Y-16824643D01*
X8589625Y-16824643D01*
X8608673Y-16834167D01*
X8618196Y-16843690D01*
X8627720Y-16862738D01*
X8627720Y-16919881D01*
X8618196Y-16938929D01*
X8608673Y-16948452D01*
X8589625Y-16957976D01*
X8561054Y-16957976D01*
X8742006Y-16957976D02*
X8722958Y-16948452D01*
X8713435Y-16929405D01*
X8713435Y-16757976D01*
X8894387Y-16948452D02*
X8875339Y-16957976D01*
X8837244Y-16957976D01*
X8818196Y-16948452D01*
X8808673Y-16929405D01*
X8808673Y-16853214D01*
X8818196Y-16834167D01*
X8837244Y-16824643D01*
X8875339Y-16824643D01*
X8894387Y-16834167D01*
X8903911Y-16853214D01*
X8903911Y-16872262D01*
X8808673Y-16891310D01*
X8980101Y-16948452D02*
X8999149Y-16957976D01*
X9037244Y-16957976D01*
X9056292Y-16948452D01*
X9065815Y-16929405D01*
X9065815Y-16919881D01*
X9056292Y-16900833D01*
X9037244Y-16891310D01*
X9008673Y-16891310D01*
X8989625Y-16881786D01*
X8980101Y-16862738D01*
X8980101Y-16853214D01*
X8989625Y-16834167D01*
X9008673Y-16824643D01*
X9037244Y-16824643D01*
X9056292Y-16834167D01*
X9132482Y-17034167D02*
X9142006Y-17024643D01*
X9161054Y-16996071D01*
X9170577Y-16977024D01*
X9180101Y-16948452D01*
X9189625Y-16900833D01*
X9189625Y-16862738D01*
X9180101Y-16815119D01*
X9170577Y-16786548D01*
X9161054Y-16767500D01*
X9142006Y-16738928D01*
X9132482Y-16729405D01*
M02*
