%TF.GenerationSoftware,KiCad,Pcbnew,(6.0.10)*%
%TF.CreationDate,2023-01-10T21:51:09-05:00*%
%TF.ProjectId,2ndKeyboard,326e644b-6579-4626-9f61-72642e6b6963,rev?*%
%TF.SameCoordinates,Original*%
%TF.FileFunction,Drillmap*%
%TF.FilePolarity,Positive*%
%FSLAX45Y45*%
G04 Gerber Fmt 4.5, Leading zero omitted, Abs format (unit mm)*
G04 Created by KiCad (PCBNEW (6.0.10)) date 2023-01-10 21:51:09*
%MOMM*%
%LPD*%
G01*
G04 APERTURE LIST*
%ADD10C,0.100000*%
%ADD11C,0.200000*%
%ADD12C,0.065000*%
%ADD13C,0.170000*%
%ADD14C,0.270000*%
%ADD15C,0.400000*%
G04 APERTURE END LIST*
D10*
X4441251Y-2178000D02*
X32718375Y-2174875D01*
X4282501Y-2336750D02*
X4282500Y-15265747D01*
X32718375Y-2174875D02*
G75*
G03*
X32877125Y-2016125I-5J158755D01*
G01*
X32877125Y-2016125D02*
X32877125Y-1778000D01*
X4441251Y-2178001D02*
G75*
G03*
X4282501Y-2336750I9J-158759D01*
G01*
X32877125Y-1778000D02*
X33988375Y-1778000D01*
X39604000Y-15428000D02*
G75*
G03*
X39779000Y-15253000I14930J160070D01*
G01*
X4282503Y-15265747D02*
G75*
G03*
X4441250Y-15424497I158757J7D01*
G01*
X33988375Y-1778000D02*
X33988375Y-2016125D01*
X39779000Y-2333625D02*
X39779000Y-15253000D01*
X4441250Y-15424497D02*
X39604000Y-15428000D01*
X39778995Y-2333625D02*
G75*
G03*
X39620250Y-2174875I-158745J5D01*
G01*
X34147125Y-2174875D02*
X39620250Y-2174875D01*
X33988375Y-2016125D02*
G75*
G03*
X34147125Y-2174875I158745J-5D01*
G01*
D11*
D12*
X33111250Y-2377000D02*
X33176250Y-2442000D01*
X33176250Y-2377000D02*
X33111250Y-2442000D01*
X33689250Y-2377000D02*
X33754250Y-2442000D01*
X33754250Y-2377000D02*
X33689250Y-2442000D01*
D13*
X5133250Y-3651250D02*
G75*
G03*
X5133250Y-3651250I-85000J0D01*
G01*
X5133250Y-6318250D02*
G75*
G03*
X5133250Y-6318250I-85000J0D01*
G01*
X5371375Y-8223250D02*
G75*
G03*
X5371375Y-8223250I-85000J0D01*
G01*
X5371375Y-13938250D02*
G75*
G03*
X5371375Y-13938250I-85000J0D01*
G01*
X5847625Y-10128250D02*
G75*
G03*
X5847625Y-10128250I-85000J0D01*
G01*
X6149250Y-3651250D02*
G75*
G03*
X6149250Y-3651250I-85000J0D01*
G01*
X6149250Y-6318250D02*
G75*
G03*
X6149250Y-6318250I-85000J0D01*
G01*
X6324250Y-12035250D02*
G75*
G03*
X6324250Y-12035250I-85000J0D01*
G01*
X6387375Y-8223250D02*
G75*
G03*
X6387375Y-8223250I-85000J0D01*
G01*
X6387375Y-13938250D02*
G75*
G03*
X6387375Y-13938250I-85000J0D01*
G01*
X6863625Y-10128250D02*
G75*
G03*
X6863625Y-10128250I-85000J0D01*
G01*
X7038250Y-6318250D02*
G75*
G03*
X7038250Y-6318250I-85000J0D01*
G01*
X7340250Y-12035250D02*
G75*
G03*
X7340250Y-12035250I-85000J0D01*
G01*
X7514500Y-8223250D02*
G75*
G03*
X7514500Y-8223250I-85000J0D01*
G01*
X7752625Y-13938250D02*
G75*
G03*
X7752625Y-13938250I-85000J0D01*
G01*
X8054250Y-6318250D02*
G75*
G03*
X8054250Y-6318250I-85000J0D01*
G01*
X8467000Y-10128250D02*
G75*
G03*
X8467000Y-10128250I-85000J0D01*
G01*
X8530500Y-8223250D02*
G75*
G03*
X8530500Y-8223250I-85000J0D01*
G01*
X8768625Y-13938250D02*
G75*
G03*
X8768625Y-13938250I-85000J0D01*
G01*
X8943250Y-3651250D02*
G75*
G03*
X8943250Y-3651250I-85000J0D01*
G01*
X8943250Y-6318250D02*
G75*
G03*
X8943250Y-6318250I-85000J0D01*
G01*
X9419500Y-8223250D02*
G75*
G03*
X9419500Y-8223250I-85000J0D01*
G01*
X9419500Y-12033250D02*
G75*
G03*
X9419500Y-12033250I-85000J0D01*
G01*
X9483000Y-10128250D02*
G75*
G03*
X9483000Y-10128250I-85000J0D01*
G01*
X9959250Y-3651250D02*
G75*
G03*
X9959250Y-3651250I-85000J0D01*
G01*
X9959250Y-6318250D02*
G75*
G03*
X9959250Y-6318250I-85000J0D01*
G01*
X10133875Y-13938250D02*
G75*
G03*
X10133875Y-13938250I-85000J0D01*
G01*
X10372000Y-10128250D02*
G75*
G03*
X10372000Y-10128250I-85000J0D01*
G01*
X10435500Y-8223250D02*
G75*
G03*
X10435500Y-8223250I-85000J0D01*
G01*
X10435500Y-12033250D02*
G75*
G03*
X10435500Y-12033250I-85000J0D01*
G01*
X10848250Y-3651250D02*
G75*
G03*
X10848250Y-3651250I-85000J0D01*
G01*
X10848250Y-6318250D02*
G75*
G03*
X10848250Y-6318250I-85000J0D01*
G01*
X11149875Y-13938250D02*
G75*
G03*
X11149875Y-13938250I-85000J0D01*
G01*
X11324500Y-8223250D02*
G75*
G03*
X11324500Y-8223250I-85000J0D01*
G01*
X11324500Y-12033250D02*
G75*
G03*
X11324500Y-12033250I-85000J0D01*
G01*
X11388000Y-10128250D02*
G75*
G03*
X11388000Y-10128250I-85000J0D01*
G01*
X11864250Y-3651250D02*
G75*
G03*
X11864250Y-3651250I-85000J0D01*
G01*
X11864250Y-6318250D02*
G75*
G03*
X11864250Y-6318250I-85000J0D01*
G01*
X12277000Y-10128250D02*
G75*
G03*
X12277000Y-10128250I-85000J0D01*
G01*
X12340500Y-8223250D02*
G75*
G03*
X12340500Y-8223250I-85000J0D01*
G01*
X12340500Y-12033250D02*
G75*
G03*
X12340500Y-12033250I-85000J0D01*
G01*
X12753250Y-3651250D02*
G75*
G03*
X12753250Y-3651250I-85000J0D01*
G01*
X12753250Y-6318250D02*
G75*
G03*
X12753250Y-6318250I-85000J0D01*
G01*
X13229500Y-8223250D02*
G75*
G03*
X13229500Y-8223250I-85000J0D01*
G01*
X13229500Y-12033250D02*
G75*
G03*
X13229500Y-12033250I-85000J0D01*
G01*
X13293000Y-10128250D02*
G75*
G03*
X13293000Y-10128250I-85000J0D01*
G01*
X13769250Y-3651250D02*
G75*
G03*
X13769250Y-3651250I-85000J0D01*
G01*
X13769250Y-6318250D02*
G75*
G03*
X13769250Y-6318250I-85000J0D01*
G01*
X14182000Y-10128250D02*
G75*
G03*
X14182000Y-10128250I-85000J0D01*
G01*
X14245500Y-8223250D02*
G75*
G03*
X14245500Y-8223250I-85000J0D01*
G01*
X14245500Y-12033250D02*
G75*
G03*
X14245500Y-12033250I-85000J0D01*
G01*
X14658250Y-3651250D02*
G75*
G03*
X14658250Y-3651250I-85000J0D01*
G01*
X14658250Y-6318250D02*
G75*
G03*
X14658250Y-6318250I-85000J0D01*
G01*
X15134500Y-8223250D02*
G75*
G03*
X15134500Y-8223250I-85000J0D01*
G01*
X15134500Y-12033250D02*
G75*
G03*
X15134500Y-12033250I-85000J0D01*
G01*
X15198000Y-10128250D02*
G75*
G03*
X15198000Y-10128250I-85000J0D01*
G01*
X15674250Y-3651250D02*
G75*
G03*
X15674250Y-3651250I-85000J0D01*
G01*
X15674250Y-6318250D02*
G75*
G03*
X15674250Y-6318250I-85000J0D01*
G01*
X16087000Y-10128250D02*
G75*
G03*
X16087000Y-10128250I-85000J0D01*
G01*
X16150500Y-8223250D02*
G75*
G03*
X16150500Y-8223250I-85000J0D01*
G01*
X16150500Y-12033250D02*
G75*
G03*
X16150500Y-12033250I-85000J0D01*
G01*
X16563250Y-6318250D02*
G75*
G03*
X16563250Y-6318250I-85000J0D01*
G01*
X17039500Y-8223250D02*
G75*
G03*
X17039500Y-8223250I-85000J0D01*
G01*
X17039500Y-12033250D02*
G75*
G03*
X17039500Y-12033250I-85000J0D01*
G01*
X17103000Y-10128250D02*
G75*
G03*
X17103000Y-10128250I-85000J0D01*
G01*
X17279530Y-13936730D02*
G75*
G03*
X17279530Y-13936730I-85000J0D01*
G01*
X17452250Y-3651250D02*
G75*
G03*
X17452250Y-3651250I-85000J0D01*
G01*
X17579250Y-6318250D02*
G75*
G03*
X17579250Y-6318250I-85000J0D01*
G01*
X17992000Y-10128250D02*
G75*
G03*
X17992000Y-10128250I-85000J0D01*
G01*
X18055500Y-8223250D02*
G75*
G03*
X18055500Y-8223250I-85000J0D01*
G01*
X18055500Y-12033250D02*
G75*
G03*
X18055500Y-12033250I-85000J0D01*
G01*
X18295530Y-13936730D02*
G75*
G03*
X18295530Y-13936730I-85000J0D01*
G01*
X18468250Y-3651250D02*
G75*
G03*
X18468250Y-3651250I-85000J0D01*
G01*
X18468250Y-6318250D02*
G75*
G03*
X18468250Y-6318250I-85000J0D01*
G01*
X18944500Y-8223250D02*
G75*
G03*
X18944500Y-8223250I-85000J0D01*
G01*
X18944500Y-12033250D02*
G75*
G03*
X18944500Y-12033250I-85000J0D01*
G01*
X19008000Y-10128250D02*
G75*
G03*
X19008000Y-10128250I-85000J0D01*
G01*
X19357250Y-3651250D02*
G75*
G03*
X19357250Y-3651250I-85000J0D01*
G01*
X19484250Y-6318250D02*
G75*
G03*
X19484250Y-6318250I-85000J0D01*
G01*
X19897000Y-10128250D02*
G75*
G03*
X19897000Y-10128250I-85000J0D01*
G01*
X19960500Y-8223250D02*
G75*
G03*
X19960500Y-8223250I-85000J0D01*
G01*
X19960500Y-12033250D02*
G75*
G03*
X19960500Y-12033250I-85000J0D01*
G01*
X20373250Y-3651250D02*
G75*
G03*
X20373250Y-3651250I-85000J0D01*
G01*
X20373250Y-6318250D02*
G75*
G03*
X20373250Y-6318250I-85000J0D01*
G01*
X20849500Y-8223250D02*
G75*
G03*
X20849500Y-8223250I-85000J0D01*
G01*
X20849500Y-12033250D02*
G75*
G03*
X20849500Y-12033250I-85000J0D01*
G01*
X20913000Y-10128250D02*
G75*
G03*
X20913000Y-10128250I-85000J0D01*
G01*
X21262250Y-3651250D02*
G75*
G03*
X21262250Y-3651250I-85000J0D01*
G01*
X21389250Y-6318250D02*
G75*
G03*
X21389250Y-6318250I-85000J0D01*
G01*
X21802000Y-10128250D02*
G75*
G03*
X21802000Y-10128250I-85000J0D01*
G01*
X21865500Y-8223250D02*
G75*
G03*
X21865500Y-8223250I-85000J0D01*
G01*
X21865500Y-12033250D02*
G75*
G03*
X21865500Y-12033250I-85000J0D01*
G01*
X22278250Y-3651250D02*
G75*
G03*
X22278250Y-3651250I-85000J0D01*
G01*
X22278250Y-6318250D02*
G75*
G03*
X22278250Y-6318250I-85000J0D01*
G01*
X22754500Y-8223250D02*
G75*
G03*
X22754500Y-8223250I-85000J0D01*
G01*
X22754500Y-12033250D02*
G75*
G03*
X22754500Y-12033250I-85000J0D01*
G01*
X22818000Y-10128250D02*
G75*
G03*
X22818000Y-10128250I-85000J0D01*
G01*
X23167250Y-3651250D02*
G75*
G03*
X23167250Y-3651250I-85000J0D01*
G01*
X23294250Y-6318250D02*
G75*
G03*
X23294250Y-6318250I-85000J0D01*
G01*
X23707000Y-10128250D02*
G75*
G03*
X23707000Y-10128250I-85000J0D01*
G01*
X23770500Y-8223250D02*
G75*
G03*
X23770500Y-8223250I-85000J0D01*
G01*
X23770500Y-12033250D02*
G75*
G03*
X23770500Y-12033250I-85000J0D01*
G01*
X24183250Y-3651250D02*
G75*
G03*
X24183250Y-3651250I-85000J0D01*
G01*
X24183250Y-6318250D02*
G75*
G03*
X24183250Y-6318250I-85000J0D01*
G01*
X24421375Y-13938250D02*
G75*
G03*
X24421375Y-13938250I-85000J0D01*
G01*
X24659500Y-8223250D02*
G75*
G03*
X24659500Y-8223250I-85000J0D01*
G01*
X24659500Y-12033250D02*
G75*
G03*
X24659500Y-12033250I-85000J0D01*
G01*
X24723000Y-10128250D02*
G75*
G03*
X24723000Y-10128250I-85000J0D01*
G01*
X25199250Y-6318250D02*
G75*
G03*
X25199250Y-6318250I-85000J0D01*
G01*
X25437375Y-13938250D02*
G75*
G03*
X25437375Y-13938250I-85000J0D01*
G01*
X25612000Y-10128250D02*
G75*
G03*
X25612000Y-10128250I-85000J0D01*
G01*
X25675500Y-8223250D02*
G75*
G03*
X25675500Y-8223250I-85000J0D01*
G01*
X25675500Y-12033250D02*
G75*
G03*
X25675500Y-12033250I-85000J0D01*
G01*
X26088250Y-3651250D02*
G75*
G03*
X26088250Y-3651250I-85000J0D01*
G01*
X26088250Y-6318250D02*
G75*
G03*
X26088250Y-6318250I-85000J0D01*
G01*
X26564500Y-8223250D02*
G75*
G03*
X26564500Y-8223250I-85000J0D01*
G01*
X26564500Y-12033250D02*
G75*
G03*
X26564500Y-12033250I-85000J0D01*
G01*
X26628000Y-10128250D02*
G75*
G03*
X26628000Y-10128250I-85000J0D01*
G01*
X26802250Y-13939250D02*
G75*
G03*
X26802250Y-13939250I-85000J0D01*
G01*
X27104250Y-3651250D02*
G75*
G03*
X27104250Y-3651250I-85000J0D01*
G01*
X27104250Y-6318250D02*
G75*
G03*
X27104250Y-6318250I-85000J0D01*
G01*
X27517000Y-10128250D02*
G75*
G03*
X27517000Y-10128250I-85000J0D01*
G01*
X27580500Y-8223250D02*
G75*
G03*
X27580500Y-8223250I-85000J0D01*
G01*
X27580500Y-12033250D02*
G75*
G03*
X27580500Y-12033250I-85000J0D01*
G01*
X27818250Y-13939250D02*
G75*
G03*
X27818250Y-13939250I-85000J0D01*
G01*
X27993250Y-3651250D02*
G75*
G03*
X27993250Y-3651250I-85000J0D01*
G01*
X27993250Y-6318250D02*
G75*
G03*
X27993250Y-6318250I-85000J0D01*
G01*
X28469500Y-8223250D02*
G75*
G03*
X28469500Y-8223250I-85000J0D01*
G01*
X28533000Y-10128250D02*
G75*
G03*
X28533000Y-10128250I-85000J0D01*
G01*
X29009250Y-3651250D02*
G75*
G03*
X29009250Y-3651250I-85000J0D01*
G01*
X29009250Y-6318250D02*
G75*
G03*
X29009250Y-6318250I-85000J0D01*
G01*
X29183875Y-13938250D02*
G75*
G03*
X29183875Y-13938250I-85000J0D01*
G01*
X29485500Y-8223250D02*
G75*
G03*
X29485500Y-8223250I-85000J0D01*
G01*
X29898250Y-3651250D02*
G75*
G03*
X29898250Y-3651250I-85000J0D01*
G01*
X30136375Y-12033250D02*
G75*
G03*
X30136375Y-12033250I-85000J0D01*
G01*
X30199875Y-13938250D02*
G75*
G03*
X30199875Y-13938250I-85000J0D01*
G01*
X30612625Y-10128250D02*
G75*
G03*
X30612625Y-10128250I-85000J0D01*
G01*
X30848210Y-6319270D02*
G75*
G03*
X30848210Y-6319270I-85000J0D01*
G01*
X30914250Y-3651250D02*
G75*
G03*
X30914250Y-3651250I-85000J0D01*
G01*
X31088875Y-8223250D02*
G75*
G03*
X31088875Y-8223250I-85000J0D01*
G01*
X31152375Y-12033250D02*
G75*
G03*
X31152375Y-12033250I-85000J0D01*
G01*
X31565125Y-13938250D02*
G75*
G03*
X31565125Y-13938250I-85000J0D01*
G01*
X31628625Y-10128250D02*
G75*
G03*
X31628625Y-10128250I-85000J0D01*
G01*
X31803250Y-3651250D02*
G75*
G03*
X31803250Y-3651250I-85000J0D01*
G01*
X31864210Y-6319270D02*
G75*
G03*
X31864210Y-6319270I-85000J0D01*
G01*
X32104875Y-8223250D02*
G75*
G03*
X32104875Y-8223250I-85000J0D01*
G01*
X32581125Y-13938250D02*
G75*
G03*
X32581125Y-13938250I-85000J0D01*
G01*
X32819250Y-3651250D02*
G75*
G03*
X32819250Y-3651250I-85000J0D01*
G01*
X34263875Y-6318250D02*
G75*
G03*
X34263875Y-6318250I-85000J0D01*
G01*
X34263875Y-8223250D02*
G75*
G03*
X34263875Y-8223250I-85000J0D01*
G01*
X34263875Y-13938250D02*
G75*
G03*
X34263875Y-13938250I-85000J0D01*
G01*
X34279750Y-3651250D02*
G75*
G03*
X34279750Y-3651250I-85000J0D01*
G01*
X35279875Y-6318250D02*
G75*
G03*
X35279875Y-6318250I-85000J0D01*
G01*
X35279875Y-8223250D02*
G75*
G03*
X35279875Y-8223250I-85000J0D01*
G01*
X35279875Y-13938250D02*
G75*
G03*
X35279875Y-13938250I-85000J0D01*
G01*
X35295750Y-3651250D02*
G75*
G03*
X35295750Y-3651250I-85000J0D01*
G01*
X36168875Y-6318250D02*
G75*
G03*
X36168875Y-6318250I-85000J0D01*
G01*
X36168875Y-8223250D02*
G75*
G03*
X36168875Y-8223250I-85000J0D01*
G01*
X36168875Y-12033250D02*
G75*
G03*
X36168875Y-12033250I-85000J0D01*
G01*
X36168875Y-13938250D02*
G75*
G03*
X36168875Y-13938250I-85000J0D01*
G01*
X36184750Y-3651250D02*
G75*
G03*
X36184750Y-3651250I-85000J0D01*
G01*
X37184875Y-6318250D02*
G75*
G03*
X37184875Y-6318250I-85000J0D01*
G01*
X37184875Y-8223250D02*
G75*
G03*
X37184875Y-8223250I-85000J0D01*
G01*
X37184875Y-12033250D02*
G75*
G03*
X37184875Y-12033250I-85000J0D01*
G01*
X37184875Y-13938250D02*
G75*
G03*
X37184875Y-13938250I-85000J0D01*
G01*
X37200750Y-3651250D02*
G75*
G03*
X37200750Y-3651250I-85000J0D01*
G01*
X38073875Y-6318250D02*
G75*
G03*
X38073875Y-6318250I-85000J0D01*
G01*
X38073875Y-8223250D02*
G75*
G03*
X38073875Y-8223250I-85000J0D01*
G01*
X38073875Y-13938250D02*
G75*
G03*
X38073875Y-13938250I-85000J0D01*
G01*
X38089750Y-3651250D02*
G75*
G03*
X38089750Y-3651250I-85000J0D01*
G01*
X39089875Y-6318250D02*
G75*
G03*
X39089875Y-6318250I-85000J0D01*
G01*
X39089875Y-8223250D02*
G75*
G03*
X39089875Y-8223250I-85000J0D01*
G01*
X39089875Y-13938250D02*
G75*
G03*
X39089875Y-13938250I-85000J0D01*
G01*
X39105750Y-3651250D02*
G75*
G03*
X39105750Y-3651250I-85000J0D01*
G01*
D14*
X4959000Y-11958000D02*
X4959000Y-12228000D01*
X4824000Y-12093000D02*
X5094000Y-12093000D01*
X7469000Y-2643000D02*
X7469000Y-2913000D01*
X7334000Y-2778000D02*
X7604000Y-2778000D01*
X13239000Y-13533000D02*
X13239000Y-13803000D01*
X13104000Y-13668000D02*
X13374000Y-13668000D01*
X16419000Y-4698000D02*
X16419000Y-4968000D01*
X16284000Y-4833000D02*
X16554000Y-4833000D01*
X21929000Y-13623000D02*
X21929000Y-13893000D01*
X21794000Y-13758000D02*
X22064000Y-13758000D01*
X25059000Y-2473000D02*
X25059000Y-2743000D01*
X24924000Y-2608000D02*
X25194000Y-2608000D01*
X29489000Y-9938000D02*
X29489000Y-10208000D01*
X29354000Y-10073000D02*
X29624000Y-10073000D01*
X29774000Y-4898000D02*
X29774000Y-5168000D01*
X29639000Y-5033000D02*
X29909000Y-5033000D01*
X37624000Y-4828000D02*
X37624000Y-5098000D01*
X37489000Y-4963000D02*
X37759000Y-4963000D01*
X39234000Y-12108000D02*
X39234000Y-12378000D01*
X39099000Y-12243000D02*
X39369000Y-12243000D01*
D15*
X5697673Y-3792673D02*
X5697673Y-3509827D01*
X5414827Y-3509827D01*
X5414827Y-3792673D01*
X5697673Y-3792673D01*
X5697673Y-6459673D02*
X5697673Y-6176827D01*
X5414827Y-6176827D01*
X5414827Y-6459673D01*
X5697673Y-6459673D01*
X5935798Y-8364673D02*
X5935798Y-8081827D01*
X5652952Y-8081827D01*
X5652952Y-8364673D01*
X5935798Y-8364673D01*
X5935798Y-14079673D02*
X5935798Y-13796827D01*
X5652952Y-13796827D01*
X5652952Y-14079673D01*
X5935798Y-14079673D01*
X6412048Y-10269673D02*
X6412048Y-9986827D01*
X6129202Y-9986827D01*
X6129202Y-10269673D01*
X6412048Y-10269673D01*
X6888673Y-12176673D02*
X6888673Y-11893827D01*
X6605827Y-11893827D01*
X6605827Y-12176673D01*
X6888673Y-12176673D01*
X7602673Y-6459673D02*
X7602673Y-6176827D01*
X7319827Y-6176827D01*
X7319827Y-6459673D01*
X7602673Y-6459673D01*
X8078923Y-8364673D02*
X8078923Y-8081827D01*
X7796077Y-8081827D01*
X7796077Y-8364673D01*
X8078923Y-8364673D01*
X8317048Y-14079673D02*
X8317048Y-13796827D01*
X8034202Y-13796827D01*
X8034202Y-14079673D01*
X8317048Y-14079673D01*
X9031423Y-10269673D02*
X9031423Y-9986827D01*
X8748577Y-9986827D01*
X8748577Y-10269673D01*
X9031423Y-10269673D01*
X9507673Y-3792673D02*
X9507673Y-3509827D01*
X9224827Y-3509827D01*
X9224827Y-3792673D01*
X9507673Y-3792673D01*
X9507673Y-6459673D02*
X9507673Y-6176827D01*
X9224827Y-6176827D01*
X9224827Y-6459673D01*
X9507673Y-6459673D01*
X9983923Y-8364673D02*
X9983923Y-8081827D01*
X9701077Y-8081827D01*
X9701077Y-8364673D01*
X9983923Y-8364673D01*
X9983923Y-12174673D02*
X9983923Y-11891827D01*
X9701077Y-11891827D01*
X9701077Y-12174673D01*
X9983923Y-12174673D01*
X10698298Y-14079673D02*
X10698298Y-13796827D01*
X10415452Y-13796827D01*
X10415452Y-14079673D01*
X10698298Y-14079673D01*
X10936423Y-10269673D02*
X10936423Y-9986827D01*
X10653577Y-9986827D01*
X10653577Y-10269673D01*
X10936423Y-10269673D01*
X11412673Y-3792673D02*
X11412673Y-3509827D01*
X11129827Y-3509827D01*
X11129827Y-3792673D01*
X11412673Y-3792673D01*
X11412673Y-6459673D02*
X11412673Y-6176827D01*
X11129827Y-6176827D01*
X11129827Y-6459673D01*
X11412673Y-6459673D01*
X11888923Y-8364673D02*
X11888923Y-8081827D01*
X11606077Y-8081827D01*
X11606077Y-8364673D01*
X11888923Y-8364673D01*
X11888923Y-12174673D02*
X11888923Y-11891827D01*
X11606077Y-11891827D01*
X11606077Y-12174673D01*
X11888923Y-12174673D01*
X12841423Y-10269673D02*
X12841423Y-9986827D01*
X12558577Y-9986827D01*
X12558577Y-10269673D01*
X12841423Y-10269673D01*
X13317673Y-3792673D02*
X13317673Y-3509827D01*
X13034827Y-3509827D01*
X13034827Y-3792673D01*
X13317673Y-3792673D01*
X13317673Y-6459673D02*
X13317673Y-6176827D01*
X13034827Y-6176827D01*
X13034827Y-6459673D01*
X13317673Y-6459673D01*
X13793923Y-8364673D02*
X13793923Y-8081827D01*
X13511077Y-8081827D01*
X13511077Y-8364673D01*
X13793923Y-8364673D01*
X13793923Y-12174673D02*
X13793923Y-11891827D01*
X13511077Y-11891827D01*
X13511077Y-12174673D01*
X13793923Y-12174673D01*
X14746423Y-10269673D02*
X14746423Y-9986827D01*
X14463577Y-9986827D01*
X14463577Y-10269673D01*
X14746423Y-10269673D01*
X15222673Y-3792673D02*
X15222673Y-3509827D01*
X14939827Y-3509827D01*
X14939827Y-3792673D01*
X15222673Y-3792673D01*
X15222673Y-6459673D02*
X15222673Y-6176827D01*
X14939827Y-6176827D01*
X14939827Y-6459673D01*
X15222673Y-6459673D01*
X15698923Y-8364673D02*
X15698923Y-8081827D01*
X15416077Y-8081827D01*
X15416077Y-8364673D01*
X15698923Y-8364673D01*
X15698923Y-12174673D02*
X15698923Y-11891827D01*
X15416077Y-11891827D01*
X15416077Y-12174673D01*
X15698923Y-12174673D01*
X16651423Y-10269673D02*
X16651423Y-9986827D01*
X16368577Y-9986827D01*
X16368577Y-10269673D01*
X16651423Y-10269673D01*
X17127673Y-6459673D02*
X17127673Y-6176827D01*
X16844827Y-6176827D01*
X16844827Y-6459673D01*
X17127673Y-6459673D01*
X17603923Y-8364673D02*
X17603923Y-8081827D01*
X17321077Y-8081827D01*
X17321077Y-8364673D01*
X17603923Y-8364673D01*
X17603923Y-12174673D02*
X17603923Y-11891827D01*
X17321077Y-11891827D01*
X17321077Y-12174673D01*
X17603923Y-12174673D01*
X17843953Y-14078153D02*
X17843953Y-13795307D01*
X17561107Y-13795307D01*
X17561107Y-14078153D01*
X17843953Y-14078153D01*
X18016673Y-3792673D02*
X18016673Y-3509827D01*
X17733827Y-3509827D01*
X17733827Y-3792673D01*
X18016673Y-3792673D01*
X18556423Y-10269673D02*
X18556423Y-9986827D01*
X18273577Y-9986827D01*
X18273577Y-10269673D01*
X18556423Y-10269673D01*
X19032673Y-6459673D02*
X19032673Y-6176827D01*
X18749827Y-6176827D01*
X18749827Y-6459673D01*
X19032673Y-6459673D01*
X19508923Y-8364673D02*
X19508923Y-8081827D01*
X19226077Y-8081827D01*
X19226077Y-8364673D01*
X19508923Y-8364673D01*
X19508923Y-12174673D02*
X19508923Y-11891827D01*
X19226077Y-11891827D01*
X19226077Y-12174673D01*
X19508923Y-12174673D01*
X19921673Y-3792673D02*
X19921673Y-3509827D01*
X19638827Y-3509827D01*
X19638827Y-3792673D01*
X19921673Y-3792673D01*
X20461423Y-10269673D02*
X20461423Y-9986827D01*
X20178577Y-9986827D01*
X20178577Y-10269673D01*
X20461423Y-10269673D01*
X20937673Y-6459673D02*
X20937673Y-6176827D01*
X20654827Y-6176827D01*
X20654827Y-6459673D01*
X20937673Y-6459673D01*
X21413923Y-8364673D02*
X21413923Y-8081827D01*
X21131077Y-8081827D01*
X21131077Y-8364673D01*
X21413923Y-8364673D01*
X21413923Y-12174673D02*
X21413923Y-11891827D01*
X21131077Y-11891827D01*
X21131077Y-12174673D01*
X21413923Y-12174673D01*
X21826673Y-3792673D02*
X21826673Y-3509827D01*
X21543827Y-3509827D01*
X21543827Y-3792673D01*
X21826673Y-3792673D01*
X22366423Y-10269673D02*
X22366423Y-9986827D01*
X22083577Y-9986827D01*
X22083577Y-10269673D01*
X22366423Y-10269673D01*
X22842673Y-6459673D02*
X22842673Y-6176827D01*
X22559827Y-6176827D01*
X22559827Y-6459673D01*
X22842673Y-6459673D01*
X23318923Y-8364673D02*
X23318923Y-8081827D01*
X23036077Y-8081827D01*
X23036077Y-8364673D01*
X23318923Y-8364673D01*
X23318923Y-12174673D02*
X23318923Y-11891827D01*
X23036077Y-11891827D01*
X23036077Y-12174673D01*
X23318923Y-12174673D01*
X23731673Y-3792673D02*
X23731673Y-3509827D01*
X23448827Y-3509827D01*
X23448827Y-3792673D01*
X23731673Y-3792673D01*
X24271423Y-10269673D02*
X24271423Y-9986827D01*
X23988577Y-9986827D01*
X23988577Y-10269673D01*
X24271423Y-10269673D01*
X24747673Y-6459673D02*
X24747673Y-6176827D01*
X24464827Y-6176827D01*
X24464827Y-6459673D01*
X24747673Y-6459673D01*
X24985798Y-14079673D02*
X24985798Y-13796827D01*
X24702952Y-13796827D01*
X24702952Y-14079673D01*
X24985798Y-14079673D01*
X25223923Y-8364673D02*
X25223923Y-8081827D01*
X24941077Y-8081827D01*
X24941077Y-8364673D01*
X25223923Y-8364673D01*
X25223923Y-12174673D02*
X25223923Y-11891827D01*
X24941077Y-11891827D01*
X24941077Y-12174673D01*
X25223923Y-12174673D01*
X26176423Y-10269673D02*
X26176423Y-9986827D01*
X25893577Y-9986827D01*
X25893577Y-10269673D01*
X26176423Y-10269673D01*
X26652673Y-3792673D02*
X26652673Y-3509827D01*
X26369827Y-3509827D01*
X26369827Y-3792673D01*
X26652673Y-3792673D01*
X26652673Y-6459673D02*
X26652673Y-6176827D01*
X26369827Y-6176827D01*
X26369827Y-6459673D01*
X26652673Y-6459673D01*
X27128923Y-8364673D02*
X27128923Y-8081827D01*
X26846077Y-8081827D01*
X26846077Y-8364673D01*
X27128923Y-8364673D01*
X27128923Y-12174673D02*
X27128923Y-11891827D01*
X26846077Y-11891827D01*
X26846077Y-12174673D01*
X27128923Y-12174673D01*
X27366673Y-14080673D02*
X27366673Y-13797827D01*
X27083827Y-13797827D01*
X27083827Y-14080673D01*
X27366673Y-14080673D01*
X28081423Y-10269673D02*
X28081423Y-9986827D01*
X27798577Y-9986827D01*
X27798577Y-10269673D01*
X28081423Y-10269673D01*
X28557673Y-3792673D02*
X28557673Y-3509827D01*
X28274827Y-3509827D01*
X28274827Y-3792673D01*
X28557673Y-3792673D01*
X28557673Y-6459673D02*
X28557673Y-6176827D01*
X28274827Y-6176827D01*
X28274827Y-6459673D01*
X28557673Y-6459673D01*
X29033923Y-8364673D02*
X29033923Y-8081827D01*
X28751077Y-8081827D01*
X28751077Y-8364673D01*
X29033923Y-8364673D01*
X29748298Y-14079673D02*
X29748298Y-13796827D01*
X29465452Y-13796827D01*
X29465452Y-14079673D01*
X29748298Y-14079673D01*
X30462673Y-3792673D02*
X30462673Y-3509827D01*
X30179827Y-3509827D01*
X30179827Y-3792673D01*
X30462673Y-3792673D01*
X30700798Y-12174673D02*
X30700798Y-11891827D01*
X30417952Y-11891827D01*
X30417952Y-12174673D01*
X30700798Y-12174673D01*
X31177048Y-10269673D02*
X31177048Y-9986827D01*
X30894202Y-9986827D01*
X30894202Y-10269673D01*
X31177048Y-10269673D01*
X31412633Y-6460693D02*
X31412633Y-6177847D01*
X31129787Y-6177847D01*
X31129787Y-6460693D01*
X31412633Y-6460693D01*
X31653298Y-8364673D02*
X31653298Y-8081827D01*
X31370452Y-8081827D01*
X31370452Y-8364673D01*
X31653298Y-8364673D01*
X32129548Y-14079673D02*
X32129548Y-13796827D01*
X31846702Y-13796827D01*
X31846702Y-14079673D01*
X32129548Y-14079673D01*
X32367673Y-3792673D02*
X32367673Y-3509827D01*
X32084827Y-3509827D01*
X32084827Y-3792673D01*
X32367673Y-3792673D01*
X34828298Y-6459673D02*
X34828298Y-6176827D01*
X34545452Y-6176827D01*
X34545452Y-6459673D01*
X34828298Y-6459673D01*
X34828298Y-8364673D02*
X34828298Y-8081827D01*
X34545452Y-8081827D01*
X34545452Y-8364673D01*
X34828298Y-8364673D01*
X34828298Y-14079673D02*
X34828298Y-13796827D01*
X34545452Y-13796827D01*
X34545452Y-14079673D01*
X34828298Y-14079673D01*
X34844173Y-3792673D02*
X34844173Y-3509827D01*
X34561327Y-3509827D01*
X34561327Y-3792673D01*
X34844173Y-3792673D01*
X36733298Y-6459673D02*
X36733298Y-6176827D01*
X36450452Y-6176827D01*
X36450452Y-6459673D01*
X36733298Y-6459673D01*
X36733298Y-8364673D02*
X36733298Y-8081827D01*
X36450452Y-8081827D01*
X36450452Y-8364673D01*
X36733298Y-8364673D01*
X36733298Y-12174673D02*
X36733298Y-11891827D01*
X36450452Y-11891827D01*
X36450452Y-12174673D01*
X36733298Y-12174673D01*
X36733298Y-14079673D02*
X36733298Y-13796827D01*
X36450452Y-13796827D01*
X36450452Y-14079673D01*
X36733298Y-14079673D01*
X36749173Y-3792673D02*
X36749173Y-3509827D01*
X36466327Y-3509827D01*
X36466327Y-3792673D01*
X36749173Y-3792673D01*
X38638298Y-6459673D02*
X38638298Y-6176827D01*
X38355452Y-6176827D01*
X38355452Y-6459673D01*
X38638298Y-6459673D01*
X38638298Y-8364673D02*
X38638298Y-8081827D01*
X38355452Y-8081827D01*
X38355452Y-8364673D01*
X38638298Y-8364673D01*
X38638298Y-14079673D02*
X38638298Y-13796827D01*
X38355452Y-13796827D01*
X38355452Y-14079673D01*
X38638298Y-14079673D01*
X38654173Y-3792673D02*
X38654173Y-3509827D01*
X38371327Y-3509827D01*
X38371327Y-3792673D01*
X38654173Y-3792673D01*
D11*
X4535119Y-15744171D02*
X4535119Y-15544171D01*
X4582738Y-15544171D01*
X4611310Y-15553695D01*
X4630357Y-15572742D01*
X4639881Y-15591790D01*
X4649405Y-15629885D01*
X4649405Y-15658457D01*
X4639881Y-15696552D01*
X4630357Y-15715599D01*
X4611310Y-15734647D01*
X4582738Y-15744171D01*
X4535119Y-15744171D01*
X4735119Y-15744171D02*
X4735119Y-15610838D01*
X4735119Y-15648933D02*
X4744643Y-15629885D01*
X4754167Y-15620361D01*
X4773214Y-15610838D01*
X4792262Y-15610838D01*
X4858929Y-15744171D02*
X4858929Y-15610838D01*
X4858929Y-15544171D02*
X4849405Y-15553695D01*
X4858929Y-15563219D01*
X4868452Y-15553695D01*
X4858929Y-15544171D01*
X4858929Y-15563219D01*
X4982738Y-15744171D02*
X4963690Y-15734647D01*
X4954167Y-15715599D01*
X4954167Y-15544171D01*
X5087500Y-15744171D02*
X5068452Y-15734647D01*
X5058929Y-15715599D01*
X5058929Y-15544171D01*
X5316071Y-15744171D02*
X5316071Y-15544171D01*
X5382738Y-15687028D01*
X5449405Y-15544171D01*
X5449405Y-15744171D01*
X5630357Y-15744171D02*
X5630357Y-15639409D01*
X5620833Y-15620361D01*
X5601786Y-15610838D01*
X5563690Y-15610838D01*
X5544643Y-15620361D01*
X5630357Y-15734647D02*
X5611309Y-15744171D01*
X5563690Y-15744171D01*
X5544643Y-15734647D01*
X5535119Y-15715599D01*
X5535119Y-15696552D01*
X5544643Y-15677504D01*
X5563690Y-15667980D01*
X5611309Y-15667980D01*
X5630357Y-15658457D01*
X5725595Y-15610838D02*
X5725595Y-15810838D01*
X5725595Y-15620361D02*
X5744643Y-15610838D01*
X5782738Y-15610838D01*
X5801786Y-15620361D01*
X5811309Y-15629885D01*
X5820833Y-15648933D01*
X5820833Y-15706076D01*
X5811309Y-15725123D01*
X5801786Y-15734647D01*
X5782738Y-15744171D01*
X5744643Y-15744171D01*
X5725595Y-15734647D01*
X5906548Y-15725123D02*
X5916071Y-15734647D01*
X5906548Y-15744171D01*
X5897024Y-15734647D01*
X5906548Y-15725123D01*
X5906548Y-15744171D01*
X5906548Y-15620361D02*
X5916071Y-15629885D01*
X5906548Y-15639409D01*
X5897024Y-15629885D01*
X5906548Y-15620361D01*
X5906548Y-15639409D01*
D12*
X4212500Y-16041195D02*
X4277500Y-16106195D01*
X4277500Y-16041195D02*
X4212500Y-16106195D01*
D11*
X4573214Y-15964171D02*
X4592262Y-15964171D01*
X4611310Y-15973695D01*
X4620833Y-15983219D01*
X4630357Y-16002266D01*
X4639881Y-16040361D01*
X4639881Y-16087980D01*
X4630357Y-16126076D01*
X4620833Y-16145123D01*
X4611310Y-16154647D01*
X4592262Y-16164171D01*
X4573214Y-16164171D01*
X4554167Y-16154647D01*
X4544643Y-16145123D01*
X4535119Y-16126076D01*
X4525595Y-16087980D01*
X4525595Y-16040361D01*
X4535119Y-16002266D01*
X4544643Y-15983219D01*
X4554167Y-15973695D01*
X4573214Y-15964171D01*
X4725595Y-16145123D02*
X4735119Y-16154647D01*
X4725595Y-16164171D01*
X4716071Y-16154647D01*
X4725595Y-16145123D01*
X4725595Y-16164171D01*
X4906548Y-15964171D02*
X4868452Y-15964171D01*
X4849405Y-15973695D01*
X4839881Y-15983219D01*
X4820833Y-16011790D01*
X4811310Y-16049885D01*
X4811310Y-16126076D01*
X4820833Y-16145123D01*
X4830357Y-16154647D01*
X4849405Y-16164171D01*
X4887500Y-16164171D01*
X4906548Y-16154647D01*
X4916071Y-16145123D01*
X4925595Y-16126076D01*
X4925595Y-16078457D01*
X4916071Y-16059409D01*
X4906548Y-16049885D01*
X4887500Y-16040361D01*
X4849405Y-16040361D01*
X4830357Y-16049885D01*
X4820833Y-16059409D01*
X4811310Y-16078457D01*
X5106548Y-15964171D02*
X5011310Y-15964171D01*
X5001786Y-16059409D01*
X5011310Y-16049885D01*
X5030357Y-16040361D01*
X5077976Y-16040361D01*
X5097024Y-16049885D01*
X5106548Y-16059409D01*
X5116071Y-16078457D01*
X5116071Y-16126076D01*
X5106548Y-16145123D01*
X5097024Y-16154647D01*
X5077976Y-16164171D01*
X5030357Y-16164171D01*
X5011310Y-16154647D01*
X5001786Y-16145123D01*
X5239881Y-15964171D02*
X5258929Y-15964171D01*
X5277976Y-15973695D01*
X5287500Y-15983219D01*
X5297024Y-16002266D01*
X5306548Y-16040361D01*
X5306548Y-16087980D01*
X5297024Y-16126076D01*
X5287500Y-16145123D01*
X5277976Y-16154647D01*
X5258929Y-16164171D01*
X5239881Y-16164171D01*
X5220833Y-16154647D01*
X5211310Y-16145123D01*
X5201786Y-16126076D01*
X5192262Y-16087980D01*
X5192262Y-16040361D01*
X5201786Y-16002266D01*
X5211310Y-15983219D01*
X5220833Y-15973695D01*
X5239881Y-15964171D01*
X5392262Y-16164171D02*
X5392262Y-16030838D01*
X5392262Y-16049885D02*
X5401786Y-16040361D01*
X5420833Y-16030838D01*
X5449405Y-16030838D01*
X5468452Y-16040361D01*
X5477976Y-16059409D01*
X5477976Y-16164171D01*
X5477976Y-16059409D02*
X5487500Y-16040361D01*
X5506548Y-16030838D01*
X5535119Y-16030838D01*
X5554167Y-16040361D01*
X5563690Y-16059409D01*
X5563690Y-16164171D01*
X5658928Y-16164171D02*
X5658928Y-16030838D01*
X5658928Y-16049885D02*
X5668452Y-16040361D01*
X5687500Y-16030838D01*
X5716071Y-16030838D01*
X5735119Y-16040361D01*
X5744643Y-16059409D01*
X5744643Y-16164171D01*
X5744643Y-16059409D02*
X5754167Y-16040361D01*
X5773214Y-16030838D01*
X5801786Y-16030838D01*
X5820833Y-16040361D01*
X5830357Y-16059409D01*
X5830357Y-16164171D01*
X6220833Y-15954647D02*
X6049405Y-16211790D01*
X6477976Y-15964171D02*
X6497024Y-15964171D01*
X6516071Y-15973695D01*
X6525595Y-15983219D01*
X6535119Y-16002266D01*
X6544643Y-16040361D01*
X6544643Y-16087980D01*
X6535119Y-16126076D01*
X6525595Y-16145123D01*
X6516071Y-16154647D01*
X6497024Y-16164171D01*
X6477976Y-16164171D01*
X6458928Y-16154647D01*
X6449405Y-16145123D01*
X6439881Y-16126076D01*
X6430357Y-16087980D01*
X6430357Y-16040361D01*
X6439881Y-16002266D01*
X6449405Y-15983219D01*
X6458928Y-15973695D01*
X6477976Y-15964171D01*
X6630357Y-16145123D02*
X6639881Y-16154647D01*
X6630357Y-16164171D01*
X6620833Y-16154647D01*
X6630357Y-16145123D01*
X6630357Y-16164171D01*
X6763690Y-15964171D02*
X6782738Y-15964171D01*
X6801786Y-15973695D01*
X6811309Y-15983219D01*
X6820833Y-16002266D01*
X6830357Y-16040361D01*
X6830357Y-16087980D01*
X6820833Y-16126076D01*
X6811309Y-16145123D01*
X6801786Y-16154647D01*
X6782738Y-16164171D01*
X6763690Y-16164171D01*
X6744643Y-16154647D01*
X6735119Y-16145123D01*
X6725595Y-16126076D01*
X6716071Y-16087980D01*
X6716071Y-16040361D01*
X6725595Y-16002266D01*
X6735119Y-15983219D01*
X6744643Y-15973695D01*
X6763690Y-15964171D01*
X6906548Y-15983219D02*
X6916071Y-15973695D01*
X6935119Y-15964171D01*
X6982738Y-15964171D01*
X7001786Y-15973695D01*
X7011309Y-15983219D01*
X7020833Y-16002266D01*
X7020833Y-16021314D01*
X7011309Y-16049885D01*
X6897024Y-16164171D01*
X7020833Y-16164171D01*
X7201786Y-15964171D02*
X7106548Y-15964171D01*
X7097024Y-16059409D01*
X7106548Y-16049885D01*
X7125595Y-16040361D01*
X7173214Y-16040361D01*
X7192262Y-16049885D01*
X7201786Y-16059409D01*
X7211309Y-16078457D01*
X7211309Y-16126076D01*
X7201786Y-16145123D01*
X7192262Y-16154647D01*
X7173214Y-16164171D01*
X7125595Y-16164171D01*
X7106548Y-16154647D01*
X7097024Y-16145123D01*
X7382738Y-15964171D02*
X7344643Y-15964171D01*
X7325595Y-15973695D01*
X7316071Y-15983219D01*
X7297024Y-16011790D01*
X7287500Y-16049885D01*
X7287500Y-16126076D01*
X7297024Y-16145123D01*
X7306548Y-16154647D01*
X7325595Y-16164171D01*
X7363690Y-16164171D01*
X7382738Y-16154647D01*
X7392262Y-16145123D01*
X7401786Y-16126076D01*
X7401786Y-16078457D01*
X7392262Y-16059409D01*
X7382738Y-16049885D01*
X7363690Y-16040361D01*
X7325595Y-16040361D01*
X7306548Y-16049885D01*
X7297024Y-16059409D01*
X7287500Y-16078457D01*
X7477976Y-15964171D02*
X7477976Y-16002266D01*
X7554167Y-15964171D02*
X7554167Y-16002266D01*
X7849405Y-16240361D02*
X7839881Y-16230838D01*
X7820833Y-16202266D01*
X7811309Y-16183219D01*
X7801786Y-16154647D01*
X7792262Y-16107028D01*
X7792262Y-16068933D01*
X7801786Y-16021314D01*
X7811309Y-15992742D01*
X7820833Y-15973695D01*
X7839881Y-15945123D01*
X7849405Y-15935599D01*
X7916071Y-15983219D02*
X7925595Y-15973695D01*
X7944643Y-15964171D01*
X7992262Y-15964171D01*
X8011309Y-15973695D01*
X8020833Y-15983219D01*
X8030357Y-16002266D01*
X8030357Y-16021314D01*
X8020833Y-16049885D01*
X7906548Y-16164171D01*
X8030357Y-16164171D01*
X8268452Y-16164171D02*
X8268452Y-15964171D01*
X8354167Y-16164171D02*
X8354167Y-16059409D01*
X8344643Y-16040361D01*
X8325595Y-16030838D01*
X8297024Y-16030838D01*
X8277976Y-16040361D01*
X8268452Y-16049885D01*
X8477976Y-16164171D02*
X8458929Y-16154647D01*
X8449405Y-16145123D01*
X8439881Y-16126076D01*
X8439881Y-16068933D01*
X8449405Y-16049885D01*
X8458929Y-16040361D01*
X8477976Y-16030838D01*
X8506548Y-16030838D01*
X8525595Y-16040361D01*
X8535119Y-16049885D01*
X8544643Y-16068933D01*
X8544643Y-16126076D01*
X8535119Y-16145123D01*
X8525595Y-16154647D01*
X8506548Y-16164171D01*
X8477976Y-16164171D01*
X8658929Y-16164171D02*
X8639881Y-16154647D01*
X8630357Y-16135599D01*
X8630357Y-15964171D01*
X8811310Y-16154647D02*
X8792262Y-16164171D01*
X8754167Y-16164171D01*
X8735119Y-16154647D01*
X8725595Y-16135599D01*
X8725595Y-16059409D01*
X8735119Y-16040361D01*
X8754167Y-16030838D01*
X8792262Y-16030838D01*
X8811310Y-16040361D01*
X8820833Y-16059409D01*
X8820833Y-16078457D01*
X8725595Y-16097504D01*
X8897024Y-16154647D02*
X8916071Y-16164171D01*
X8954167Y-16164171D01*
X8973214Y-16154647D01*
X8982738Y-16135599D01*
X8982738Y-16126076D01*
X8973214Y-16107028D01*
X8954167Y-16097504D01*
X8925595Y-16097504D01*
X8906548Y-16087980D01*
X8897024Y-16068933D01*
X8897024Y-16059409D01*
X8906548Y-16040361D01*
X8925595Y-16030838D01*
X8954167Y-16030838D01*
X8973214Y-16040361D01*
X9049405Y-16240361D02*
X9058929Y-16230838D01*
X9077976Y-16202266D01*
X9087500Y-16183219D01*
X9097024Y-16154647D01*
X9106548Y-16107028D01*
X9106548Y-16068933D01*
X9097024Y-16021314D01*
X9087500Y-15992742D01*
X9077976Y-15973695D01*
X9058929Y-15945123D01*
X9049405Y-15935599D01*
X9411310Y-16240361D02*
X9401786Y-16230838D01*
X9382738Y-16202266D01*
X9373214Y-16183219D01*
X9363690Y-16154647D01*
X9354167Y-16107028D01*
X9354167Y-16068933D01*
X9363690Y-16021314D01*
X9373214Y-15992742D01*
X9382738Y-15973695D01*
X9401786Y-15945123D01*
X9411310Y-15935599D01*
X9487500Y-16030838D02*
X9487500Y-16164171D01*
X9487500Y-16049885D02*
X9497024Y-16040361D01*
X9516071Y-16030838D01*
X9544643Y-16030838D01*
X9563690Y-16040361D01*
X9573214Y-16059409D01*
X9573214Y-16164171D01*
X9697024Y-16164171D02*
X9677976Y-16154647D01*
X9668452Y-16145123D01*
X9658929Y-16126076D01*
X9658929Y-16068933D01*
X9668452Y-16049885D01*
X9677976Y-16040361D01*
X9697024Y-16030838D01*
X9725595Y-16030838D01*
X9744643Y-16040361D01*
X9754167Y-16049885D01*
X9763690Y-16068933D01*
X9763690Y-16126076D01*
X9754167Y-16145123D01*
X9744643Y-16154647D01*
X9725595Y-16164171D01*
X9697024Y-16164171D01*
X9820833Y-16030838D02*
X9897024Y-16030838D01*
X9849405Y-15964171D02*
X9849405Y-16135599D01*
X9858929Y-16154647D01*
X9877976Y-16164171D01*
X9897024Y-16164171D01*
X10116071Y-16030838D02*
X10116071Y-16230838D01*
X10116071Y-16040361D02*
X10135119Y-16030838D01*
X10173214Y-16030838D01*
X10192262Y-16040361D01*
X10201786Y-16049885D01*
X10211310Y-16068933D01*
X10211310Y-16126076D01*
X10201786Y-16145123D01*
X10192262Y-16154647D01*
X10173214Y-16164171D01*
X10135119Y-16164171D01*
X10116071Y-16154647D01*
X10325595Y-16164171D02*
X10306548Y-16154647D01*
X10297024Y-16135599D01*
X10297024Y-15964171D01*
X10487500Y-16164171D02*
X10487500Y-16059409D01*
X10477976Y-16040361D01*
X10458929Y-16030838D01*
X10420833Y-16030838D01*
X10401786Y-16040361D01*
X10487500Y-16154647D02*
X10468452Y-16164171D01*
X10420833Y-16164171D01*
X10401786Y-16154647D01*
X10392262Y-16135599D01*
X10392262Y-16116552D01*
X10401786Y-16097504D01*
X10420833Y-16087980D01*
X10468452Y-16087980D01*
X10487500Y-16078457D01*
X10554167Y-16030838D02*
X10630357Y-16030838D01*
X10582738Y-15964171D02*
X10582738Y-16135599D01*
X10592262Y-16154647D01*
X10611310Y-16164171D01*
X10630357Y-16164171D01*
X10773214Y-16154647D02*
X10754167Y-16164171D01*
X10716071Y-16164171D01*
X10697024Y-16154647D01*
X10687500Y-16135599D01*
X10687500Y-16059409D01*
X10697024Y-16040361D01*
X10716071Y-16030838D01*
X10754167Y-16030838D01*
X10773214Y-16040361D01*
X10782738Y-16059409D01*
X10782738Y-16078457D01*
X10687500Y-16097504D01*
X10954167Y-16164171D02*
X10954167Y-15964171D01*
X10954167Y-16154647D02*
X10935119Y-16164171D01*
X10897024Y-16164171D01*
X10877976Y-16154647D01*
X10868452Y-16145123D01*
X10858929Y-16126076D01*
X10858929Y-16068933D01*
X10868452Y-16049885D01*
X10877976Y-16040361D01*
X10897024Y-16030838D01*
X10935119Y-16030838D01*
X10954167Y-16040361D01*
X11030357Y-16240361D02*
X11039881Y-16230838D01*
X11058929Y-16202266D01*
X11068452Y-16183219D01*
X11077976Y-16154647D01*
X11087500Y-16107028D01*
X11087500Y-16068933D01*
X11077976Y-16021314D01*
X11068452Y-15992742D01*
X11058929Y-15973695D01*
X11039881Y-15945123D01*
X11030357Y-15935599D01*
D13*
X4277500Y-16337695D02*
G75*
G03*
X4277500Y-16337695I-85000J0D01*
G01*
D11*
X4639881Y-16428171D02*
X4525595Y-16428171D01*
X4582738Y-16428171D02*
X4582738Y-16228171D01*
X4563690Y-16256742D01*
X4544643Y-16275790D01*
X4525595Y-16285314D01*
X4725595Y-16409123D02*
X4735119Y-16418647D01*
X4725595Y-16428171D01*
X4716071Y-16418647D01*
X4725595Y-16409123D01*
X4725595Y-16428171D01*
X4801786Y-16228171D02*
X4935119Y-16228171D01*
X4849405Y-16428171D01*
X5049405Y-16228171D02*
X5068452Y-16228171D01*
X5087500Y-16237695D01*
X5097024Y-16247219D01*
X5106548Y-16266266D01*
X5116071Y-16304361D01*
X5116071Y-16351980D01*
X5106548Y-16390076D01*
X5097024Y-16409123D01*
X5087500Y-16418647D01*
X5068452Y-16428171D01*
X5049405Y-16428171D01*
X5030357Y-16418647D01*
X5020833Y-16409123D01*
X5011310Y-16390076D01*
X5001786Y-16351980D01*
X5001786Y-16304361D01*
X5011310Y-16266266D01*
X5020833Y-16247219D01*
X5030357Y-16237695D01*
X5049405Y-16228171D01*
X5239881Y-16228171D02*
X5258929Y-16228171D01*
X5277976Y-16237695D01*
X5287500Y-16247219D01*
X5297024Y-16266266D01*
X5306548Y-16304361D01*
X5306548Y-16351980D01*
X5297024Y-16390076D01*
X5287500Y-16409123D01*
X5277976Y-16418647D01*
X5258929Y-16428171D01*
X5239881Y-16428171D01*
X5220833Y-16418647D01*
X5211310Y-16409123D01*
X5201786Y-16390076D01*
X5192262Y-16351980D01*
X5192262Y-16304361D01*
X5201786Y-16266266D01*
X5211310Y-16247219D01*
X5220833Y-16237695D01*
X5239881Y-16228171D01*
X5392262Y-16428171D02*
X5392262Y-16294838D01*
X5392262Y-16313885D02*
X5401786Y-16304361D01*
X5420833Y-16294838D01*
X5449405Y-16294838D01*
X5468452Y-16304361D01*
X5477976Y-16323409D01*
X5477976Y-16428171D01*
X5477976Y-16323409D02*
X5487500Y-16304361D01*
X5506548Y-16294838D01*
X5535119Y-16294838D01*
X5554167Y-16304361D01*
X5563690Y-16323409D01*
X5563690Y-16428171D01*
X5658928Y-16428171D02*
X5658928Y-16294838D01*
X5658928Y-16313885D02*
X5668452Y-16304361D01*
X5687500Y-16294838D01*
X5716071Y-16294838D01*
X5735119Y-16304361D01*
X5744643Y-16323409D01*
X5744643Y-16428171D01*
X5744643Y-16323409D02*
X5754167Y-16304361D01*
X5773214Y-16294838D01*
X5801786Y-16294838D01*
X5820833Y-16304361D01*
X5830357Y-16323409D01*
X5830357Y-16428171D01*
X6220833Y-16218647D02*
X6049405Y-16475790D01*
X6477976Y-16228171D02*
X6497024Y-16228171D01*
X6516071Y-16237695D01*
X6525595Y-16247219D01*
X6535119Y-16266266D01*
X6544643Y-16304361D01*
X6544643Y-16351980D01*
X6535119Y-16390076D01*
X6525595Y-16409123D01*
X6516071Y-16418647D01*
X6497024Y-16428171D01*
X6477976Y-16428171D01*
X6458928Y-16418647D01*
X6449405Y-16409123D01*
X6439881Y-16390076D01*
X6430357Y-16351980D01*
X6430357Y-16304361D01*
X6439881Y-16266266D01*
X6449405Y-16247219D01*
X6458928Y-16237695D01*
X6477976Y-16228171D01*
X6630357Y-16409123D02*
X6639881Y-16418647D01*
X6630357Y-16428171D01*
X6620833Y-16418647D01*
X6630357Y-16409123D01*
X6630357Y-16428171D01*
X6763690Y-16228171D02*
X6782738Y-16228171D01*
X6801786Y-16237695D01*
X6811309Y-16247219D01*
X6820833Y-16266266D01*
X6830357Y-16304361D01*
X6830357Y-16351980D01*
X6820833Y-16390076D01*
X6811309Y-16409123D01*
X6801786Y-16418647D01*
X6782738Y-16428171D01*
X6763690Y-16428171D01*
X6744643Y-16418647D01*
X6735119Y-16409123D01*
X6725595Y-16390076D01*
X6716071Y-16351980D01*
X6716071Y-16304361D01*
X6725595Y-16266266D01*
X6735119Y-16247219D01*
X6744643Y-16237695D01*
X6763690Y-16228171D01*
X7001786Y-16228171D02*
X6963690Y-16228171D01*
X6944643Y-16237695D01*
X6935119Y-16247219D01*
X6916071Y-16275790D01*
X6906548Y-16313885D01*
X6906548Y-16390076D01*
X6916071Y-16409123D01*
X6925595Y-16418647D01*
X6944643Y-16428171D01*
X6982738Y-16428171D01*
X7001786Y-16418647D01*
X7011309Y-16409123D01*
X7020833Y-16390076D01*
X7020833Y-16342457D01*
X7011309Y-16323409D01*
X7001786Y-16313885D01*
X6982738Y-16304361D01*
X6944643Y-16304361D01*
X6925595Y-16313885D01*
X6916071Y-16323409D01*
X6906548Y-16342457D01*
X7192262Y-16228171D02*
X7154167Y-16228171D01*
X7135119Y-16237695D01*
X7125595Y-16247219D01*
X7106548Y-16275790D01*
X7097024Y-16313885D01*
X7097024Y-16390076D01*
X7106548Y-16409123D01*
X7116071Y-16418647D01*
X7135119Y-16428171D01*
X7173214Y-16428171D01*
X7192262Y-16418647D01*
X7201786Y-16409123D01*
X7211309Y-16390076D01*
X7211309Y-16342457D01*
X7201786Y-16323409D01*
X7192262Y-16313885D01*
X7173214Y-16304361D01*
X7135119Y-16304361D01*
X7116071Y-16313885D01*
X7106548Y-16323409D01*
X7097024Y-16342457D01*
X7306548Y-16428171D02*
X7344643Y-16428171D01*
X7363690Y-16418647D01*
X7373214Y-16409123D01*
X7392262Y-16380552D01*
X7401786Y-16342457D01*
X7401786Y-16266266D01*
X7392262Y-16247219D01*
X7382738Y-16237695D01*
X7363690Y-16228171D01*
X7325595Y-16228171D01*
X7306548Y-16237695D01*
X7297024Y-16247219D01*
X7287500Y-16266266D01*
X7287500Y-16313885D01*
X7297024Y-16332933D01*
X7306548Y-16342457D01*
X7325595Y-16351980D01*
X7363690Y-16351980D01*
X7382738Y-16342457D01*
X7392262Y-16332933D01*
X7401786Y-16313885D01*
X7477976Y-16228171D02*
X7477976Y-16266266D01*
X7554167Y-16228171D02*
X7554167Y-16266266D01*
X7849405Y-16504361D02*
X7839881Y-16494838D01*
X7820833Y-16466266D01*
X7811309Y-16447219D01*
X7801786Y-16418647D01*
X7792262Y-16371028D01*
X7792262Y-16332933D01*
X7801786Y-16285314D01*
X7811309Y-16256742D01*
X7820833Y-16237695D01*
X7839881Y-16209123D01*
X7849405Y-16199599D01*
X8030357Y-16428171D02*
X7916071Y-16428171D01*
X7973214Y-16428171D02*
X7973214Y-16228171D01*
X7954167Y-16256742D01*
X7935119Y-16275790D01*
X7916071Y-16285314D01*
X8097024Y-16228171D02*
X8230357Y-16228171D01*
X8144643Y-16428171D01*
X8392262Y-16294838D02*
X8392262Y-16428171D01*
X8344643Y-16218647D02*
X8297024Y-16361504D01*
X8420833Y-16361504D01*
X8649405Y-16428171D02*
X8649405Y-16228171D01*
X8735119Y-16428171D02*
X8735119Y-16323409D01*
X8725595Y-16304361D01*
X8706548Y-16294838D01*
X8677976Y-16294838D01*
X8658929Y-16304361D01*
X8649405Y-16313885D01*
X8858929Y-16428171D02*
X8839881Y-16418647D01*
X8830357Y-16409123D01*
X8820833Y-16390076D01*
X8820833Y-16332933D01*
X8830357Y-16313885D01*
X8839881Y-16304361D01*
X8858929Y-16294838D01*
X8887500Y-16294838D01*
X8906548Y-16304361D01*
X8916071Y-16313885D01*
X8925595Y-16332933D01*
X8925595Y-16390076D01*
X8916071Y-16409123D01*
X8906548Y-16418647D01*
X8887500Y-16428171D01*
X8858929Y-16428171D01*
X9039881Y-16428171D02*
X9020833Y-16418647D01*
X9011310Y-16399599D01*
X9011310Y-16228171D01*
X9192262Y-16418647D02*
X9173214Y-16428171D01*
X9135119Y-16428171D01*
X9116071Y-16418647D01*
X9106548Y-16399599D01*
X9106548Y-16323409D01*
X9116071Y-16304361D01*
X9135119Y-16294838D01*
X9173214Y-16294838D01*
X9192262Y-16304361D01*
X9201786Y-16323409D01*
X9201786Y-16342457D01*
X9106548Y-16361504D01*
X9277976Y-16418647D02*
X9297024Y-16428171D01*
X9335119Y-16428171D01*
X9354167Y-16418647D01*
X9363690Y-16399599D01*
X9363690Y-16390076D01*
X9354167Y-16371028D01*
X9335119Y-16361504D01*
X9306548Y-16361504D01*
X9287500Y-16351980D01*
X9277976Y-16332933D01*
X9277976Y-16323409D01*
X9287500Y-16304361D01*
X9306548Y-16294838D01*
X9335119Y-16294838D01*
X9354167Y-16304361D01*
X9430357Y-16504361D02*
X9439881Y-16494838D01*
X9458929Y-16466266D01*
X9468452Y-16447219D01*
X9477976Y-16418647D01*
X9487500Y-16371028D01*
X9487500Y-16332933D01*
X9477976Y-16285314D01*
X9468452Y-16256742D01*
X9458929Y-16237695D01*
X9439881Y-16209123D01*
X9430357Y-16199599D01*
X9792262Y-16504361D02*
X9782738Y-16494838D01*
X9763690Y-16466266D01*
X9754167Y-16447219D01*
X9744643Y-16418647D01*
X9735119Y-16371028D01*
X9735119Y-16332933D01*
X9744643Y-16285314D01*
X9754167Y-16256742D01*
X9763690Y-16237695D01*
X9782738Y-16209123D01*
X9792262Y-16199599D01*
X9868452Y-16294838D02*
X9868452Y-16428171D01*
X9868452Y-16313885D02*
X9877976Y-16304361D01*
X9897024Y-16294838D01*
X9925595Y-16294838D01*
X9944643Y-16304361D01*
X9954167Y-16323409D01*
X9954167Y-16428171D01*
X10077976Y-16428171D02*
X10058929Y-16418647D01*
X10049405Y-16409123D01*
X10039881Y-16390076D01*
X10039881Y-16332933D01*
X10049405Y-16313885D01*
X10058929Y-16304361D01*
X10077976Y-16294838D01*
X10106548Y-16294838D01*
X10125595Y-16304361D01*
X10135119Y-16313885D01*
X10144643Y-16332933D01*
X10144643Y-16390076D01*
X10135119Y-16409123D01*
X10125595Y-16418647D01*
X10106548Y-16428171D01*
X10077976Y-16428171D01*
X10201786Y-16294838D02*
X10277976Y-16294838D01*
X10230357Y-16228171D02*
X10230357Y-16399599D01*
X10239881Y-16418647D01*
X10258929Y-16428171D01*
X10277976Y-16428171D01*
X10497024Y-16294838D02*
X10497024Y-16494838D01*
X10497024Y-16304361D02*
X10516071Y-16294838D01*
X10554167Y-16294838D01*
X10573214Y-16304361D01*
X10582738Y-16313885D01*
X10592262Y-16332933D01*
X10592262Y-16390076D01*
X10582738Y-16409123D01*
X10573214Y-16418647D01*
X10554167Y-16428171D01*
X10516071Y-16428171D01*
X10497024Y-16418647D01*
X10706548Y-16428171D02*
X10687500Y-16418647D01*
X10677976Y-16399599D01*
X10677976Y-16228171D01*
X10868452Y-16428171D02*
X10868452Y-16323409D01*
X10858929Y-16304361D01*
X10839881Y-16294838D01*
X10801786Y-16294838D01*
X10782738Y-16304361D01*
X10868452Y-16418647D02*
X10849405Y-16428171D01*
X10801786Y-16428171D01*
X10782738Y-16418647D01*
X10773214Y-16399599D01*
X10773214Y-16380552D01*
X10782738Y-16361504D01*
X10801786Y-16351980D01*
X10849405Y-16351980D01*
X10868452Y-16342457D01*
X10935119Y-16294838D02*
X11011310Y-16294838D01*
X10963690Y-16228171D02*
X10963690Y-16399599D01*
X10973214Y-16418647D01*
X10992262Y-16428171D01*
X11011310Y-16428171D01*
X11154167Y-16418647D02*
X11135119Y-16428171D01*
X11097024Y-16428171D01*
X11077976Y-16418647D01*
X11068452Y-16399599D01*
X11068452Y-16323409D01*
X11077976Y-16304361D01*
X11097024Y-16294838D01*
X11135119Y-16294838D01*
X11154167Y-16304361D01*
X11163690Y-16323409D01*
X11163690Y-16342457D01*
X11068452Y-16361504D01*
X11335119Y-16428171D02*
X11335119Y-16228171D01*
X11335119Y-16418647D02*
X11316071Y-16428171D01*
X11277976Y-16428171D01*
X11258928Y-16418647D01*
X11249405Y-16409123D01*
X11239881Y-16390076D01*
X11239881Y-16332933D01*
X11249405Y-16313885D01*
X11258928Y-16304361D01*
X11277976Y-16294838D01*
X11316071Y-16294838D01*
X11335119Y-16304361D01*
X11411309Y-16504361D02*
X11420833Y-16494838D01*
X11439881Y-16466266D01*
X11449405Y-16447219D01*
X11458928Y-16418647D01*
X11468452Y-16371028D01*
X11468452Y-16332933D01*
X11458928Y-16285314D01*
X11449405Y-16256742D01*
X11439881Y-16237695D01*
X11420833Y-16209123D01*
X11411309Y-16199599D01*
X4177500Y-16527695D02*
X4177500Y-16727695D01*
X4077500Y-16627695D02*
X4277500Y-16627695D01*
X4525595Y-16537219D02*
X4535119Y-16527695D01*
X4554167Y-16518171D01*
X4601786Y-16518171D01*
X4620833Y-16527695D01*
X4630357Y-16537219D01*
X4639881Y-16556266D01*
X4639881Y-16575314D01*
X4630357Y-16603885D01*
X4516071Y-16718171D01*
X4639881Y-16718171D01*
X4725595Y-16699123D02*
X4735119Y-16708647D01*
X4725595Y-16718171D01*
X4716071Y-16708647D01*
X4725595Y-16699123D01*
X4725595Y-16718171D01*
X4801786Y-16518171D02*
X4935119Y-16518171D01*
X4849405Y-16718171D01*
X5049405Y-16518171D02*
X5068452Y-16518171D01*
X5087500Y-16527695D01*
X5097024Y-16537219D01*
X5106548Y-16556266D01*
X5116071Y-16594361D01*
X5116071Y-16641980D01*
X5106548Y-16680076D01*
X5097024Y-16699123D01*
X5087500Y-16708647D01*
X5068452Y-16718171D01*
X5049405Y-16718171D01*
X5030357Y-16708647D01*
X5020833Y-16699123D01*
X5011310Y-16680076D01*
X5001786Y-16641980D01*
X5001786Y-16594361D01*
X5011310Y-16556266D01*
X5020833Y-16537219D01*
X5030357Y-16527695D01*
X5049405Y-16518171D01*
X5239881Y-16518171D02*
X5258929Y-16518171D01*
X5277976Y-16527695D01*
X5287500Y-16537219D01*
X5297024Y-16556266D01*
X5306548Y-16594361D01*
X5306548Y-16641980D01*
X5297024Y-16680076D01*
X5287500Y-16699123D01*
X5277976Y-16708647D01*
X5258929Y-16718171D01*
X5239881Y-16718171D01*
X5220833Y-16708647D01*
X5211310Y-16699123D01*
X5201786Y-16680076D01*
X5192262Y-16641980D01*
X5192262Y-16594361D01*
X5201786Y-16556266D01*
X5211310Y-16537219D01*
X5220833Y-16527695D01*
X5239881Y-16518171D01*
X5392262Y-16718171D02*
X5392262Y-16584838D01*
X5392262Y-16603885D02*
X5401786Y-16594361D01*
X5420833Y-16584838D01*
X5449405Y-16584838D01*
X5468452Y-16594361D01*
X5477976Y-16613409D01*
X5477976Y-16718171D01*
X5477976Y-16613409D02*
X5487500Y-16594361D01*
X5506548Y-16584838D01*
X5535119Y-16584838D01*
X5554167Y-16594361D01*
X5563690Y-16613409D01*
X5563690Y-16718171D01*
X5658928Y-16718171D02*
X5658928Y-16584838D01*
X5658928Y-16603885D02*
X5668452Y-16594361D01*
X5687500Y-16584838D01*
X5716071Y-16584838D01*
X5735119Y-16594361D01*
X5744643Y-16613409D01*
X5744643Y-16718171D01*
X5744643Y-16613409D02*
X5754167Y-16594361D01*
X5773214Y-16584838D01*
X5801786Y-16584838D01*
X5820833Y-16594361D01*
X5830357Y-16613409D01*
X5830357Y-16718171D01*
X6220833Y-16508647D02*
X6049405Y-16765790D01*
X6477976Y-16518171D02*
X6497024Y-16518171D01*
X6516071Y-16527695D01*
X6525595Y-16537219D01*
X6535119Y-16556266D01*
X6544643Y-16594361D01*
X6544643Y-16641980D01*
X6535119Y-16680076D01*
X6525595Y-16699123D01*
X6516071Y-16708647D01*
X6497024Y-16718171D01*
X6477976Y-16718171D01*
X6458928Y-16708647D01*
X6449405Y-16699123D01*
X6439881Y-16680076D01*
X6430357Y-16641980D01*
X6430357Y-16594361D01*
X6439881Y-16556266D01*
X6449405Y-16537219D01*
X6458928Y-16527695D01*
X6477976Y-16518171D01*
X6630357Y-16699123D02*
X6639881Y-16708647D01*
X6630357Y-16718171D01*
X6620833Y-16708647D01*
X6630357Y-16699123D01*
X6630357Y-16718171D01*
X6830357Y-16718171D02*
X6716071Y-16718171D01*
X6773214Y-16718171D02*
X6773214Y-16518171D01*
X6754167Y-16546742D01*
X6735119Y-16565790D01*
X6716071Y-16575314D01*
X6954167Y-16518171D02*
X6973214Y-16518171D01*
X6992262Y-16527695D01*
X7001786Y-16537219D01*
X7011309Y-16556266D01*
X7020833Y-16594361D01*
X7020833Y-16641980D01*
X7011309Y-16680076D01*
X7001786Y-16699123D01*
X6992262Y-16708647D01*
X6973214Y-16718171D01*
X6954167Y-16718171D01*
X6935119Y-16708647D01*
X6925595Y-16699123D01*
X6916071Y-16680076D01*
X6906548Y-16641980D01*
X6906548Y-16594361D01*
X6916071Y-16556266D01*
X6925595Y-16537219D01*
X6935119Y-16527695D01*
X6954167Y-16518171D01*
X7192262Y-16518171D02*
X7154167Y-16518171D01*
X7135119Y-16527695D01*
X7125595Y-16537219D01*
X7106548Y-16565790D01*
X7097024Y-16603885D01*
X7097024Y-16680076D01*
X7106548Y-16699123D01*
X7116071Y-16708647D01*
X7135119Y-16718171D01*
X7173214Y-16718171D01*
X7192262Y-16708647D01*
X7201786Y-16699123D01*
X7211309Y-16680076D01*
X7211309Y-16632457D01*
X7201786Y-16613409D01*
X7192262Y-16603885D01*
X7173214Y-16594361D01*
X7135119Y-16594361D01*
X7116071Y-16603885D01*
X7106548Y-16613409D01*
X7097024Y-16632457D01*
X7277976Y-16518171D02*
X7401786Y-16518171D01*
X7335119Y-16594361D01*
X7363690Y-16594361D01*
X7382738Y-16603885D01*
X7392262Y-16613409D01*
X7401786Y-16632457D01*
X7401786Y-16680076D01*
X7392262Y-16699123D01*
X7382738Y-16708647D01*
X7363690Y-16718171D01*
X7306548Y-16718171D01*
X7287500Y-16708647D01*
X7277976Y-16699123D01*
X7477976Y-16518171D02*
X7477976Y-16556266D01*
X7554167Y-16518171D02*
X7554167Y-16556266D01*
X7849405Y-16794361D02*
X7839881Y-16784838D01*
X7820833Y-16756266D01*
X7811309Y-16737219D01*
X7801786Y-16708647D01*
X7792262Y-16661028D01*
X7792262Y-16622933D01*
X7801786Y-16575314D01*
X7811309Y-16546742D01*
X7820833Y-16527695D01*
X7839881Y-16499123D01*
X7849405Y-16489599D01*
X8030357Y-16718171D02*
X7916071Y-16718171D01*
X7973214Y-16718171D02*
X7973214Y-16518171D01*
X7954167Y-16546742D01*
X7935119Y-16565790D01*
X7916071Y-16575314D01*
X8154167Y-16518171D02*
X8173214Y-16518171D01*
X8192262Y-16527695D01*
X8201786Y-16537219D01*
X8211309Y-16556266D01*
X8220833Y-16594361D01*
X8220833Y-16641980D01*
X8211309Y-16680076D01*
X8201786Y-16699123D01*
X8192262Y-16708647D01*
X8173214Y-16718171D01*
X8154167Y-16718171D01*
X8135119Y-16708647D01*
X8125595Y-16699123D01*
X8116071Y-16680076D01*
X8106548Y-16641980D01*
X8106548Y-16594361D01*
X8116071Y-16556266D01*
X8125595Y-16537219D01*
X8135119Y-16527695D01*
X8154167Y-16518171D01*
X8458929Y-16718171D02*
X8458929Y-16518171D01*
X8544643Y-16718171D02*
X8544643Y-16613409D01*
X8535119Y-16594361D01*
X8516071Y-16584838D01*
X8487500Y-16584838D01*
X8468452Y-16594361D01*
X8458929Y-16603885D01*
X8668452Y-16718171D02*
X8649405Y-16708647D01*
X8639881Y-16699123D01*
X8630357Y-16680076D01*
X8630357Y-16622933D01*
X8639881Y-16603885D01*
X8649405Y-16594361D01*
X8668452Y-16584838D01*
X8697024Y-16584838D01*
X8716071Y-16594361D01*
X8725595Y-16603885D01*
X8735119Y-16622933D01*
X8735119Y-16680076D01*
X8725595Y-16699123D01*
X8716071Y-16708647D01*
X8697024Y-16718171D01*
X8668452Y-16718171D01*
X8849405Y-16718171D02*
X8830357Y-16708647D01*
X8820833Y-16689599D01*
X8820833Y-16518171D01*
X9001786Y-16708647D02*
X8982738Y-16718171D01*
X8944643Y-16718171D01*
X8925595Y-16708647D01*
X8916071Y-16689599D01*
X8916071Y-16613409D01*
X8925595Y-16594361D01*
X8944643Y-16584838D01*
X8982738Y-16584838D01*
X9001786Y-16594361D01*
X9011310Y-16613409D01*
X9011310Y-16632457D01*
X8916071Y-16651504D01*
X9087500Y-16708647D02*
X9106548Y-16718171D01*
X9144643Y-16718171D01*
X9163690Y-16708647D01*
X9173214Y-16689599D01*
X9173214Y-16680076D01*
X9163690Y-16661028D01*
X9144643Y-16651504D01*
X9116071Y-16651504D01*
X9097024Y-16641980D01*
X9087500Y-16622933D01*
X9087500Y-16613409D01*
X9097024Y-16594361D01*
X9116071Y-16584838D01*
X9144643Y-16584838D01*
X9163690Y-16594361D01*
X9239881Y-16794361D02*
X9249405Y-16784838D01*
X9268452Y-16756266D01*
X9277976Y-16737219D01*
X9287500Y-16708647D01*
X9297024Y-16661028D01*
X9297024Y-16622933D01*
X9287500Y-16575314D01*
X9277976Y-16546742D01*
X9268452Y-16527695D01*
X9249405Y-16499123D01*
X9239881Y-16489599D01*
X9601786Y-16794361D02*
X9592262Y-16784838D01*
X9573214Y-16756266D01*
X9563690Y-16737219D01*
X9554167Y-16708647D01*
X9544643Y-16661028D01*
X9544643Y-16622933D01*
X9554167Y-16575314D01*
X9563690Y-16546742D01*
X9573214Y-16527695D01*
X9592262Y-16499123D01*
X9601786Y-16489599D01*
X9677976Y-16584838D02*
X9677976Y-16718171D01*
X9677976Y-16603885D02*
X9687500Y-16594361D01*
X9706548Y-16584838D01*
X9735119Y-16584838D01*
X9754167Y-16594361D01*
X9763690Y-16613409D01*
X9763690Y-16718171D01*
X9887500Y-16718171D02*
X9868452Y-16708647D01*
X9858929Y-16699123D01*
X9849405Y-16680076D01*
X9849405Y-16622933D01*
X9858929Y-16603885D01*
X9868452Y-16594361D01*
X9887500Y-16584838D01*
X9916071Y-16584838D01*
X9935119Y-16594361D01*
X9944643Y-16603885D01*
X9954167Y-16622933D01*
X9954167Y-16680076D01*
X9944643Y-16699123D01*
X9935119Y-16708647D01*
X9916071Y-16718171D01*
X9887500Y-16718171D01*
X10011310Y-16584838D02*
X10087500Y-16584838D01*
X10039881Y-16518171D02*
X10039881Y-16689599D01*
X10049405Y-16708647D01*
X10068452Y-16718171D01*
X10087500Y-16718171D01*
X10306548Y-16584838D02*
X10306548Y-16784838D01*
X10306548Y-16594361D02*
X10325595Y-16584838D01*
X10363690Y-16584838D01*
X10382738Y-16594361D01*
X10392262Y-16603885D01*
X10401786Y-16622933D01*
X10401786Y-16680076D01*
X10392262Y-16699123D01*
X10382738Y-16708647D01*
X10363690Y-16718171D01*
X10325595Y-16718171D01*
X10306548Y-16708647D01*
X10516071Y-16718171D02*
X10497024Y-16708647D01*
X10487500Y-16689599D01*
X10487500Y-16518171D01*
X10677976Y-16718171D02*
X10677976Y-16613409D01*
X10668452Y-16594361D01*
X10649405Y-16584838D01*
X10611310Y-16584838D01*
X10592262Y-16594361D01*
X10677976Y-16708647D02*
X10658929Y-16718171D01*
X10611310Y-16718171D01*
X10592262Y-16708647D01*
X10582738Y-16689599D01*
X10582738Y-16670552D01*
X10592262Y-16651504D01*
X10611310Y-16641980D01*
X10658929Y-16641980D01*
X10677976Y-16632457D01*
X10744643Y-16584838D02*
X10820833Y-16584838D01*
X10773214Y-16518171D02*
X10773214Y-16689599D01*
X10782738Y-16708647D01*
X10801786Y-16718171D01*
X10820833Y-16718171D01*
X10963690Y-16708647D02*
X10944643Y-16718171D01*
X10906548Y-16718171D01*
X10887500Y-16708647D01*
X10877976Y-16689599D01*
X10877976Y-16613409D01*
X10887500Y-16594361D01*
X10906548Y-16584838D01*
X10944643Y-16584838D01*
X10963690Y-16594361D01*
X10973214Y-16613409D01*
X10973214Y-16632457D01*
X10877976Y-16651504D01*
X11144643Y-16718171D02*
X11144643Y-16518171D01*
X11144643Y-16708647D02*
X11125595Y-16718171D01*
X11087500Y-16718171D01*
X11068452Y-16708647D01*
X11058929Y-16699123D01*
X11049405Y-16680076D01*
X11049405Y-16622933D01*
X11058929Y-16603885D01*
X11068452Y-16594361D01*
X11087500Y-16584838D01*
X11125595Y-16584838D01*
X11144643Y-16594361D01*
X11220833Y-16794361D02*
X11230357Y-16784838D01*
X11249405Y-16756266D01*
X11258928Y-16737219D01*
X11268452Y-16708647D01*
X11277976Y-16661028D01*
X11277976Y-16622933D01*
X11268452Y-16575314D01*
X11258928Y-16546742D01*
X11249405Y-16527695D01*
X11230357Y-16499123D01*
X11220833Y-16489599D01*
X4248211Y-17018406D02*
X4248211Y-16876983D01*
X4106789Y-16876983D01*
X4106789Y-17018406D01*
X4248211Y-17018406D01*
X4620833Y-16904838D02*
X4620833Y-17038171D01*
X4573214Y-16828647D02*
X4525595Y-16971504D01*
X4649405Y-16971504D01*
X4725595Y-17019123D02*
X4735119Y-17028647D01*
X4725595Y-17038171D01*
X4716071Y-17028647D01*
X4725595Y-17019123D01*
X4725595Y-17038171D01*
X4858929Y-16838171D02*
X4877976Y-16838171D01*
X4897024Y-16847695D01*
X4906548Y-16857219D01*
X4916071Y-16876266D01*
X4925595Y-16914361D01*
X4925595Y-16961981D01*
X4916071Y-17000076D01*
X4906548Y-17019123D01*
X4897024Y-17028647D01*
X4877976Y-17038171D01*
X4858929Y-17038171D01*
X4839881Y-17028647D01*
X4830357Y-17019123D01*
X4820833Y-17000076D01*
X4811310Y-16961981D01*
X4811310Y-16914361D01*
X4820833Y-16876266D01*
X4830357Y-16857219D01*
X4839881Y-16847695D01*
X4858929Y-16838171D01*
X5049405Y-16838171D02*
X5068452Y-16838171D01*
X5087500Y-16847695D01*
X5097024Y-16857219D01*
X5106548Y-16876266D01*
X5116071Y-16914361D01*
X5116071Y-16961981D01*
X5106548Y-17000076D01*
X5097024Y-17019123D01*
X5087500Y-17028647D01*
X5068452Y-17038171D01*
X5049405Y-17038171D01*
X5030357Y-17028647D01*
X5020833Y-17019123D01*
X5011310Y-17000076D01*
X5001786Y-16961981D01*
X5001786Y-16914361D01*
X5011310Y-16876266D01*
X5020833Y-16857219D01*
X5030357Y-16847695D01*
X5049405Y-16838171D01*
X5239881Y-16838171D02*
X5258929Y-16838171D01*
X5277976Y-16847695D01*
X5287500Y-16857219D01*
X5297024Y-16876266D01*
X5306548Y-16914361D01*
X5306548Y-16961981D01*
X5297024Y-17000076D01*
X5287500Y-17019123D01*
X5277976Y-17028647D01*
X5258929Y-17038171D01*
X5239881Y-17038171D01*
X5220833Y-17028647D01*
X5211310Y-17019123D01*
X5201786Y-17000076D01*
X5192262Y-16961981D01*
X5192262Y-16914361D01*
X5201786Y-16876266D01*
X5211310Y-16857219D01*
X5220833Y-16847695D01*
X5239881Y-16838171D01*
X5392262Y-17038171D02*
X5392262Y-16904838D01*
X5392262Y-16923885D02*
X5401786Y-16914361D01*
X5420833Y-16904838D01*
X5449405Y-16904838D01*
X5468452Y-16914361D01*
X5477976Y-16933409D01*
X5477976Y-17038171D01*
X5477976Y-16933409D02*
X5487500Y-16914361D01*
X5506548Y-16904838D01*
X5535119Y-16904838D01*
X5554167Y-16914361D01*
X5563690Y-16933409D01*
X5563690Y-17038171D01*
X5658928Y-17038171D02*
X5658928Y-16904838D01*
X5658928Y-16923885D02*
X5668452Y-16914361D01*
X5687500Y-16904838D01*
X5716071Y-16904838D01*
X5735119Y-16914361D01*
X5744643Y-16933409D01*
X5744643Y-17038171D01*
X5744643Y-16933409D02*
X5754167Y-16914361D01*
X5773214Y-16904838D01*
X5801786Y-16904838D01*
X5820833Y-16914361D01*
X5830357Y-16933409D01*
X5830357Y-17038171D01*
X6220833Y-16828647D02*
X6049405Y-17085790D01*
X6477976Y-16838171D02*
X6497024Y-16838171D01*
X6516071Y-16847695D01*
X6525595Y-16857219D01*
X6535119Y-16876266D01*
X6544643Y-16914361D01*
X6544643Y-16961981D01*
X6535119Y-17000076D01*
X6525595Y-17019123D01*
X6516071Y-17028647D01*
X6497024Y-17038171D01*
X6477976Y-17038171D01*
X6458928Y-17028647D01*
X6449405Y-17019123D01*
X6439881Y-17000076D01*
X6430357Y-16961981D01*
X6430357Y-16914361D01*
X6439881Y-16876266D01*
X6449405Y-16857219D01*
X6458928Y-16847695D01*
X6477976Y-16838171D01*
X6630357Y-17019123D02*
X6639881Y-17028647D01*
X6630357Y-17038171D01*
X6620833Y-17028647D01*
X6630357Y-17019123D01*
X6630357Y-17038171D01*
X6830357Y-17038171D02*
X6716071Y-17038171D01*
X6773214Y-17038171D02*
X6773214Y-16838171D01*
X6754167Y-16866742D01*
X6735119Y-16885790D01*
X6716071Y-16895314D01*
X7011309Y-16838171D02*
X6916071Y-16838171D01*
X6906548Y-16933409D01*
X6916071Y-16923885D01*
X6935119Y-16914361D01*
X6982738Y-16914361D01*
X7001786Y-16923885D01*
X7011309Y-16933409D01*
X7020833Y-16952457D01*
X7020833Y-17000076D01*
X7011309Y-17019123D01*
X7001786Y-17028647D01*
X6982738Y-17038171D01*
X6935119Y-17038171D01*
X6916071Y-17028647D01*
X6906548Y-17019123D01*
X7087500Y-16838171D02*
X7220833Y-16838171D01*
X7135119Y-17038171D01*
X7392262Y-16838171D02*
X7297024Y-16838171D01*
X7287500Y-16933409D01*
X7297024Y-16923885D01*
X7316071Y-16914361D01*
X7363690Y-16914361D01*
X7382738Y-16923885D01*
X7392262Y-16933409D01*
X7401786Y-16952457D01*
X7401786Y-17000076D01*
X7392262Y-17019123D01*
X7382738Y-17028647D01*
X7363690Y-17038171D01*
X7316071Y-17038171D01*
X7297024Y-17028647D01*
X7287500Y-17019123D01*
X7477976Y-16838171D02*
X7477976Y-16876266D01*
X7554167Y-16838171D02*
X7554167Y-16876266D01*
X7849405Y-17114361D02*
X7839881Y-17104838D01*
X7820833Y-17076266D01*
X7811309Y-17057219D01*
X7801786Y-17028647D01*
X7792262Y-16981028D01*
X7792262Y-16942933D01*
X7801786Y-16895314D01*
X7811309Y-16866742D01*
X7820833Y-16847695D01*
X7839881Y-16819123D01*
X7849405Y-16809600D01*
X7954167Y-16923885D02*
X7935119Y-16914361D01*
X7925595Y-16904838D01*
X7916071Y-16885790D01*
X7916071Y-16876266D01*
X7925595Y-16857219D01*
X7935119Y-16847695D01*
X7954167Y-16838171D01*
X7992262Y-16838171D01*
X8011309Y-16847695D01*
X8020833Y-16857219D01*
X8030357Y-16876266D01*
X8030357Y-16885790D01*
X8020833Y-16904838D01*
X8011309Y-16914361D01*
X7992262Y-16923885D01*
X7954167Y-16923885D01*
X7935119Y-16933409D01*
X7925595Y-16942933D01*
X7916071Y-16961981D01*
X7916071Y-17000076D01*
X7925595Y-17019123D01*
X7935119Y-17028647D01*
X7954167Y-17038171D01*
X7992262Y-17038171D01*
X8011309Y-17028647D01*
X8020833Y-17019123D01*
X8030357Y-17000076D01*
X8030357Y-16961981D01*
X8020833Y-16942933D01*
X8011309Y-16933409D01*
X7992262Y-16923885D01*
X8097024Y-16838171D02*
X8230357Y-16838171D01*
X8144643Y-17038171D01*
X8458929Y-17038171D02*
X8458929Y-16838171D01*
X8544643Y-17038171D02*
X8544643Y-16933409D01*
X8535119Y-16914361D01*
X8516071Y-16904838D01*
X8487500Y-16904838D01*
X8468452Y-16914361D01*
X8458929Y-16923885D01*
X8668452Y-17038171D02*
X8649405Y-17028647D01*
X8639881Y-17019123D01*
X8630357Y-17000076D01*
X8630357Y-16942933D01*
X8639881Y-16923885D01*
X8649405Y-16914361D01*
X8668452Y-16904838D01*
X8697024Y-16904838D01*
X8716071Y-16914361D01*
X8725595Y-16923885D01*
X8735119Y-16942933D01*
X8735119Y-17000076D01*
X8725595Y-17019123D01*
X8716071Y-17028647D01*
X8697024Y-17038171D01*
X8668452Y-17038171D01*
X8849405Y-17038171D02*
X8830357Y-17028647D01*
X8820833Y-17009600D01*
X8820833Y-16838171D01*
X9001786Y-17028647D02*
X8982738Y-17038171D01*
X8944643Y-17038171D01*
X8925595Y-17028647D01*
X8916071Y-17009600D01*
X8916071Y-16933409D01*
X8925595Y-16914361D01*
X8944643Y-16904838D01*
X8982738Y-16904838D01*
X9001786Y-16914361D01*
X9011310Y-16933409D01*
X9011310Y-16952457D01*
X8916071Y-16971504D01*
X9087500Y-17028647D02*
X9106548Y-17038171D01*
X9144643Y-17038171D01*
X9163690Y-17028647D01*
X9173214Y-17009600D01*
X9173214Y-17000076D01*
X9163690Y-16981028D01*
X9144643Y-16971504D01*
X9116071Y-16971504D01*
X9097024Y-16961981D01*
X9087500Y-16942933D01*
X9087500Y-16933409D01*
X9097024Y-16914361D01*
X9116071Y-16904838D01*
X9144643Y-16904838D01*
X9163690Y-16914361D01*
X9239881Y-17114361D02*
X9249405Y-17104838D01*
X9268452Y-17076266D01*
X9277976Y-17057219D01*
X9287500Y-17028647D01*
X9297024Y-16981028D01*
X9297024Y-16942933D01*
X9287500Y-16895314D01*
X9277976Y-16866742D01*
X9268452Y-16847695D01*
X9249405Y-16819123D01*
X9239881Y-16809600D01*
X9601786Y-17114361D02*
X9592262Y-17104838D01*
X9573214Y-17076266D01*
X9563690Y-17057219D01*
X9554167Y-17028647D01*
X9544643Y-16981028D01*
X9544643Y-16942933D01*
X9554167Y-16895314D01*
X9563690Y-16866742D01*
X9573214Y-16847695D01*
X9592262Y-16819123D01*
X9601786Y-16809600D01*
X9677976Y-16904838D02*
X9677976Y-17038171D01*
X9677976Y-16923885D02*
X9687500Y-16914361D01*
X9706548Y-16904838D01*
X9735119Y-16904838D01*
X9754167Y-16914361D01*
X9763690Y-16933409D01*
X9763690Y-17038171D01*
X9887500Y-17038171D02*
X9868452Y-17028647D01*
X9858929Y-17019123D01*
X9849405Y-17000076D01*
X9849405Y-16942933D01*
X9858929Y-16923885D01*
X9868452Y-16914361D01*
X9887500Y-16904838D01*
X9916071Y-16904838D01*
X9935119Y-16914361D01*
X9944643Y-16923885D01*
X9954167Y-16942933D01*
X9954167Y-17000076D01*
X9944643Y-17019123D01*
X9935119Y-17028647D01*
X9916071Y-17038171D01*
X9887500Y-17038171D01*
X10011310Y-16904838D02*
X10087500Y-16904838D01*
X10039881Y-16838171D02*
X10039881Y-17009600D01*
X10049405Y-17028647D01*
X10068452Y-17038171D01*
X10087500Y-17038171D01*
X10306548Y-16904838D02*
X10306548Y-17104838D01*
X10306548Y-16914361D02*
X10325595Y-16904838D01*
X10363690Y-16904838D01*
X10382738Y-16914361D01*
X10392262Y-16923885D01*
X10401786Y-16942933D01*
X10401786Y-17000076D01*
X10392262Y-17019123D01*
X10382738Y-17028647D01*
X10363690Y-17038171D01*
X10325595Y-17038171D01*
X10306548Y-17028647D01*
X10516071Y-17038171D02*
X10497024Y-17028647D01*
X10487500Y-17009600D01*
X10487500Y-16838171D01*
X10677976Y-17038171D02*
X10677976Y-16933409D01*
X10668452Y-16914361D01*
X10649405Y-16904838D01*
X10611310Y-16904838D01*
X10592262Y-16914361D01*
X10677976Y-17028647D02*
X10658929Y-17038171D01*
X10611310Y-17038171D01*
X10592262Y-17028647D01*
X10582738Y-17009600D01*
X10582738Y-16990552D01*
X10592262Y-16971504D01*
X10611310Y-16961981D01*
X10658929Y-16961981D01*
X10677976Y-16952457D01*
X10744643Y-16904838D02*
X10820833Y-16904838D01*
X10773214Y-16838171D02*
X10773214Y-17009600D01*
X10782738Y-17028647D01*
X10801786Y-17038171D01*
X10820833Y-17038171D01*
X10963690Y-17028647D02*
X10944643Y-17038171D01*
X10906548Y-17038171D01*
X10887500Y-17028647D01*
X10877976Y-17009600D01*
X10877976Y-16933409D01*
X10887500Y-16914361D01*
X10906548Y-16904838D01*
X10944643Y-16904838D01*
X10963690Y-16914361D01*
X10973214Y-16933409D01*
X10973214Y-16952457D01*
X10877976Y-16971504D01*
X11144643Y-17038171D02*
X11144643Y-16838171D01*
X11144643Y-17028647D02*
X11125595Y-17038171D01*
X11087500Y-17038171D01*
X11068452Y-17028647D01*
X11058929Y-17019123D01*
X11049405Y-17000076D01*
X11049405Y-16942933D01*
X11058929Y-16923885D01*
X11068452Y-16914361D01*
X11087500Y-16904838D01*
X11125595Y-16904838D01*
X11144643Y-16914361D01*
X11220833Y-17114361D02*
X11230357Y-17104838D01*
X11249405Y-17076266D01*
X11258928Y-17057219D01*
X11268452Y-17028647D01*
X11277976Y-16981028D01*
X11277976Y-16942933D01*
X11268452Y-16895314D01*
X11258928Y-16866742D01*
X11249405Y-16847695D01*
X11230357Y-16819123D01*
X11220833Y-16809600D01*
M02*
